<?xml version="1.0" encoding="UTF-8"?>
<svg width="23px" height="36px" viewBox="0 0 23 36" version="1.1" xmlns="http://www.w3.org/2000/svg" xmlns:xlink="http://www.w3.org/1999/xlink">
    <!-- Generator: Sketch 50 (54983) - http://www.bohemiancoding.com/sketch -->
    <title>Phone</title>
    <desc>Created with Sketch.</desc>
    <defs></defs>
    <g id="Symbols" stroke="none" stroke-width="1" fill="none" fill-rule="evenodd">
        <g id="Head" transform="translate(-757.000000, -13.000000)" fill="#6419E9">
            <g id="Phone" transform="translate(757.000000, 13.000000)">
                <path d="M3.02631579,1.2 C2.024,1.2 1.21052632,2.004 1.21052632,3 L1.21052632,33 C1.21052632,33.984 2.024,34.8 3.02631579,34.8 L19.9736842,34.8 C20.9747895,34.8 21.7894737,33.984 21.7894737,33 L21.7894737,3 C21.7894737,2.004 20.9747895,1.2 19.9736842,1.2 L3.02631579,1.2 Z M19.9736842,36 L3.02631579,36 C1.357,36 0,34.644 0,33 L0,3 C0,1.344 1.357,0 3.02631579,0 L19.9736842,0 C21.6417895,0 23,1.344 23,3 L23,33 C23,34.644 21.6417895,36 19.9736842,36 L19.9736842,36 Z" id="Fill-1997"></path>
                <path d="M18,2.5 C18,2.77 17.776,3 17.5,3 C17.223,3 17,2.77 17,2.5 C17,2.22 17.223,2 17.5,2 C17.776,2 18,2.22 18,2.5" id="Fill-1998"></path>
                <path d="M13.3333333,3 L10.6666667,3 C10.2973333,3 10,2.77 10,2.5 C10,2.22 10.2973333,2 10.6666667,2 L13.3333333,2 C13.7013333,2 14,2.22 14,2.5 C14,2.77 13.7013333,3 13.3333333,3" id="Fill-1999"></path>
                <path d="M11,32 C10.448,32 10,31.55 10,31 C10,30.45 10.448,30 11,30 C11.551,30 12,30.45 12,31 C12,31.55 11.551,32 11,32" id="Fill-2000"></path>
                <path d="M22.3947368,29 L0.605263158,29 C0.269947368,29 0,28.77 0,28.5 C0,28.22 0.269947368,28 0.605263158,28 L22.3947368,28 C22.7288421,28 23,28.22 23,28.5 C23,28.77 22.7288421,29 22.3947368,29" id="Fill-2001"></path>
                <path d="M22.3947368,6 L0.605263158,6 C0.269947368,6 0,5.77 0,5.5 C0,5.22 0.269947368,5 0.605263158,5 L22.3947368,5 C22.7288421,5 23,5.22 23,5.5 C23,5.77 22.7288421,6 22.3947368,6" id="Fill-2002"></path>
            </g>
        </g>
    </g>
</svg>