<?xml version="1.0" encoding="UTF-8"?>
<svg height="100%" width="100%" xmlns="http://www.w3.org/2000/svg">
	<defs>
		<font horiz-adv-x="278" id="web">
			<font-face alphabetic="0" ascent="961" descent="-250" font-family="" panose-1="2 11 6 2 2 2 4 9 2 4"/>
			<missing-glyph d="M0 718H512V0H0ZM50 667V50H462V667ZM259 609Q313 609 348 573T383 478Q383 442 369 416T319 357Q289 329 281 314T272 270L271 234H225Q225 236 224 244T223 264Q223 301 233 325T276 385L292 402Q313 422 322 437T332 474Q332 510 309 534T256 559Q222 559 201 535T174 464L124 472Q130 538 165 573T259 609ZM222 184H278V117H222Z" horiz-adv-x="512"/>
			<glyph d="" unicode=" "/>
			<glyph d="M237 698H355L231 196H140ZM112 112H224L201 0H89Z" horiz-adv-x="389" unicode="!"/>
			<glyph d="M213 698H301V453H213ZM363 698H451V453H363Z" horiz-adv-x="556" unicode="&quot;"/>
			<glyph d="M219 698H295L266 490H384L413 698H489L460 490H566L555 414H449L431 284H537L526 208H420L391 0H315L344 208H226L197 0H121L150 208H44L55 284H161L179 414H72L83 490H190ZM253 414L235 284H353L371 414Z" horiz-adv-x="556" unicode="#"/>
			<glyph d="M366 840H443L413 707Q475 699 527 677L499 588Q442 622 373 622Q311 622 272 594T234 514Q234 481 256 456T331 401Q405 357 438 315T472 212Q472 161 449 112T378 28T255 -11L227 -140H150L178 -9Q114 -3 36 28L68 120Q100 100 139 88T215 76Q263 76 297 93T349 139T366 200Q366 231 351 254T316 292T260 328Q216 354 189 376T145 432T128 511Q128 569 157 612T234 680T337 709Z" horiz-adv-x="556" unicode="$"/>
			<glyph d="M714 720H784L274 -22H204ZM290 710Q362 710 398 669T434 557Q434 468 389 409T256 351Q189 351 150 390T112 497Q112 551 133 600T194 679T290 710ZM290 646Q242 646 218 601T194 497Q194 454 209 434T259 415Q307 415 329 459T352 563Q352 604 339 625T290 646ZM727 347Q796 347 833 308T871 194Q871 99 823 43T693 -12Q626 -12 587 27T549 134Q549 191 571 240T634 318T727 347ZM727 283Q679 283 655 239T631 134Q631 90 647 71T696 52Q744 52 766 97T789 200Q789 241 776 262T727 283Z" horiz-adv-x="1000" unicode="%"/>
			<glyph d="M410 710Q490 710 543 671T597 556Q597 484 547 436T400 355L511 190Q571 256 595 378H684Q656 207 560 117L636 0H525L491 53Q455 23 406 5T307 -12Q194 -12 131 40T69 184Q69 260 122 315T269 393Q241 430 228 466T215 543Q215 592 243 630T316 689T410 710ZM413 634Q369 634 339 606T309 533Q309 508 319 481T356 420Q428 440 468 473T509 549Q509 590 482 612T413 634ZM312 326Q169 289 169 189Q169 132 207 98T302 64Q338 64 376 79T445 122Z" horiz-adv-x="722" unicode="&amp;"/>
			<glyph d="M135 698H223V453H135Z" unicode="'"/>
			<glyph d="M336 756H436Q297 617 237 490T177 217Q177 145 191 62T237 -140H154Q116 -20 99 77T83 270Q83 388 144 508T336 756Z" horiz-adv-x="333" unicode="("/>
			<glyph d="M136 756H219Q255 641 272 543T290 347Q290 107 37 -140H-63Q76 -1 136 126T196 399Q196 471 182 553T136 756Z" horiz-adv-x="333" unicode=")"/>
			<glyph d="M323 698L409 678L361 530L517 557L523 470H364L443 331L360 294L311 444L200 330L142 395L271 487L129 555L171 634L302 540Z" horiz-adv-x="556" unicode="*"/>
			<glyph d="M271 506H359V297H568V209H359V0H271V209H62V297H271Z" horiz-adv-x="600" unicode="+"/>
			<glyph d="M57 112H177L38 -133H-56Z" unicode=","/>
			<glyph d="M51 307H314L299 231H35Z" horiz-adv-x="333" unicode="-"/>
			<glyph d="M57 112H169L146 0H34Z" unicode="."/>
			<glyph d="M240 710H328L88 -12H0Z" unicode="/"/>
			<glyph d="M369 710Q462 710 510 651T559 484Q559 387 529 270T427 71T240 -12Q146 -12 100 51T54 216Q54 321 88 436T194 630T369 710ZM359 628Q291 628 244 553T175 380T154 210Q154 144 178 107T249 70Q319 70 367 146T437 322T459 490Q459 628 359 628Z" horiz-adv-x="570" unicode="0"/>
			<glyph d="M292 698H381L231 0H131L256 583L132 497L86 571Z" horiz-adv-x="376" unicode="1"/>
			<glyph d="M329 710Q420 710 473 666T527 542Q527 452 430 340T128 84V82H450L432 0H-6L16 102Q234 265 327 367T421 528Q421 578 390 603T303 628Q221 628 141 584L150 675Q202 694 242 702T329 710Z" horiz-adv-x="530" unicode="2"/>
			<glyph d="M314 710Q424 710 480 668T536 544Q536 500 513 461T450 397T358 363V361Q411 348 443 310T475 215Q475 145 435 93T332 14T202 -12Q93 -12 5 19L29 108Q111 70 187 70Q234 70 277 86T347 135T375 218Q375 273 325 297T178 322H169L184 404Q310 404 373 437T436 537Q436 583 402 605T317 628Q278 628 234 618T151 593L161 685Q226 701 255 705T314 710Z" horiz-adv-x="536" unicode="3"/>
			<glyph d="M409 698H553L453 241H543L527 159H435L400 0H302L337 159H11L30 241ZM447 616L138 241H357L449 616Z" horiz-adv-x="566" unicode="4"/>
			<glyph d="M199 698H574L557 616H274L232 434Q271 439 290 439Q386 439 442 390T498 249Q498 165 459 106T353 17T199 -12Q160 -12 125 -7T41 10L58 99Q136 70 194 70Q282 70 340 114T398 240Q398 299 355 328T245 357Q185 357 116 336Z" horiz-adv-x="542" unicode="5"/>
			<glyph d="M426 710Q505 710 571 683L540 603Q493 628 434 628Q240 628 169 371L171 369Q205 405 243 422T329 439Q407 439 456 390T506 262Q506 182 476 120T389 23T255 -12Q156 -12 104 44T52 205Q52 318 89 435T213 631T426 710ZM299 357Q257 357 223 331T170 265T152 178Q152 129 178 99T252 70Q299 70 334 97T387 166T406 249Q406 301 375 329T299 357Z" horiz-adv-x="537" unicode="6"/>
			<glyph d="M120 698H562L542 609L160 0H45L437 616H101Z" horiz-adv-x="492" unicode="7"/>
			<glyph d="M367 710Q419 710 466 692T543 639T573 549Q573 490 529 441T410 367Q464 333 489 296T514 210Q514 145 480 94T391 16T269 -12Q172 -12 107 33T43 166Q43 243 95 297T229 370Q184 399 159 438T135 523Q135 586 167 628T252 690T367 710ZM368 628Q319 628 277 602T235 522Q235 488 262 457T335 399L361 412Q417 440 445 468T473 541Q473 580 441 604T368 628ZM297 329Q226 310 184 271T143 182Q143 130 178 100T268 70Q306 70 339 87T393 136T414 206Q414 284 297 329Z" horiz-adv-x="575" unicode="8"/>
			<glyph d="M346 710Q445 710 497 654T549 494Q549 382 512 265T391 68T175 -12Q97 -12 30 15L61 95Q108 70 168 70Q361 70 432 327L430 329Q395 293 357 276T272 259Q222 259 181 280T118 342T95 437Q95 512 123 574T209 673T346 710ZM348 628Q303 628 268 601T214 533T195 449Q195 397 226 369T301 341Q345 341 378 366T430 433T449 520Q449 566 424 597T348 628Z" horiz-adv-x="557" unicode="9"/>
			<glyph d="M139 510H251L228 398H116ZM57 112H169L146 0H34Z" unicode=":"/>
			<glyph d="M139 510H251L228 398H116ZM57 112H177L38 -133H-56Z" unicode=";"/>
			<glyph d="M569 514V426L175 253L569 80V-8L61 215V291Z" horiz-adv-x="600" unicode="&lt;"/>
			<glyph d="M62 402H568V314H62ZM62 192H568V104H62Z" horiz-adv-x="600" unicode="="/>
			<glyph d="M61 514L569 291V215L61 -8V80L455 253L61 426Z" horiz-adv-x="600" unicode="&gt;"/>
			<glyph d="M319 710Q412 710 466 669T521 547Q521 490 495 452T414 369Q396 353 387 346Q341 308 320 281T293 222L288 196H194Q209 262 222 293T258 349T334 413Q378 446 396 475T415 538Q415 579 386 600T294 622Q261 622 228 614T152 593L163 686Q249 710 319 710ZM170 112H282L259 0H147Z" horiz-adv-x="500" unicode="?"/>
			<glyph d="M441 710Q531 710 607 672T729 566T775 413Q775 325 734 262T637 167T538 135Q514 135 497 150T480 191H478Q451 163 422 149T369 135Q328 135 294 156T240 215T221 295Q221 358 248 416T324 510T436 546Q510 546 550 480L565 532H640L577 293Q576 287 570 267T565 236Q565 211 583 211Q612 211 640 236T687 305T705 398Q705 473 670 527T575 611T440 640Q357 640 292 601T192 496T157 347Q157 255 194 190T297 91T450 58Q509 58 567 80T667 147H743Q695 73 616 30T445 -12Q342 -12 257 31T124 156T75 349Q75 454 123 536T255 664T441 710ZM441 464Q405 464 374 440T326 380T309 308Q309 267 331 242T391 217Q426 217 455 242T502 306T519 379Q519 416 497 440T441 464Z" horiz-adv-x="800" unicode="@"/>
			<glyph d="M422 698H521L675 0H572L535 176H192L80 0H-31ZM454 589L243 258H520Z" horiz-adv-x="722" unicode="A"/>
			<glyph d="M197 698H382Q483 698 534 657T586 535Q586 469 547 423T443 361V359Q503 338 527 305T552 216Q552 162 523 112T430 31T267 0H46ZM279 616L232 400H322Q390 400 438 430T486 521Q486 570 452 593T348 616ZM215 318L164 82H258Q350 82 398 116T446 218Q446 318 306 318Z" horiz-adv-x="611" unicode="B"/>
			<glyph d="M493 710Q580 710 659 678L630 592Q560 622 495 622Q396 622 325 579T217 463T180 302Q180 191 246 133T418 76Q485 76 543 100L530 7Q470 -12 402 -12Q251 -12 162 70T74 307Q74 400 118 493T258 648T493 710Z" horiz-adv-x="611" unicode="C"/>
			<glyph d="M190 698H347Q456 698 534 664T654 567T695 416Q695 286 641 192T488 49T251 0H42ZM273 610L162 88H268Q364 88 436 127T549 237T589 405Q589 509 528 559T329 610Z" horiz-adv-x="722" unicode="D"/>
			<glyph d="M195 698H574L554 610H278L233 406H492L475 318H213L162 88H455L436 0H42Z" horiz-adv-x="556" unicode="E"/>
			<glyph d="M190 698H556L539 610H272L228 406H474L455 318H209L140 0H38Z" horiz-adv-x="500" unicode="F"/>
			<glyph d="M494 710Q611 710 707 670L677 584Q640 602 593 612T496 622Q394 622 322 577T215 460T180 302Q180 196 243 136T417 76Q440 76 464 78T501 85L547 300H401L421 382H664L583 9Q492 -12 403 -12Q247 -12 160 72T74 307Q74 402 119 495T260 649T494 710Z" horiz-adv-x="722" unicode="G"/>
			<glyph d="M193 698H294L233 406H565L628 698H726L579 0H477L546 318H215L148 0H46Z" horiz-adv-x="722" unicode="H"/>
			<glyph d="M188 698H289L139 0H38Z" unicode="I"/>
			<glyph d="M299 698H398L281 168Q266 99 238 60T167 4T58 -12Q41 -12 16 -7T-28 5L-10 96Q22 76 66 76Q121 76 149 110T191 210Z" horiz-adv-x="389" unicode="J"/>
			<glyph d="M203 698H303L235 392L237 389L572 698H704L328 354L605 0H479L223 334L153 0H52Z" horiz-adv-x="667" unicode="K"/>
			<glyph d="M189 698H290L158 88H448L430 0H38Z" horiz-adv-x="500" unicode="L"/>
			<glyph d="M202 698H352L447 127L787 698H951L802 0H702L830 598H828L469 0H372L275 598H273L139 0H42Z" horiz-adv-x="944" unicode="M"/>
			<glyph d="M187 698H319L516 113H518L642 698H737L585 0H456L259 580H257L138 0H42Z" horiz-adv-x="722" unicode="N"/>
			<glyph d="M468 710Q601 710 676 635T751 426Q751 311 706 211T574 49T367 -12Q223 -12 148 63T74 284Q74 384 119 482T255 645T468 710ZM465 622Q383 622 317 574T216 449T180 281Q180 187 228 131T371 76Q451 76 513 126T610 254T645 414Q645 515 599 568T465 622Z" horiz-adv-x="778" unicode="O"/>
			<glyph d="M190 698H361Q465 698 526 651T588 516Q588 446 554 392T455 308T299 279H199L138 0H38ZM272 610L219 367H273Q379 367 430 400T482 501Q482 558 447 584T332 610Z" horiz-adv-x="556" unicode="P"/>
			<glyph d="M469 710Q599 710 675 636T751 426Q751 330 720 244T629 96T489 8L613 -129H486L393 -10Q385 -12 367 -12Q223 -12 148 63T74 284Q74 386 120 484T257 646T469 710ZM464 622Q383 622 318 575T216 450T180 281Q180 187 229 131T371 76Q451 76 513 126T610 254T645 414Q645 516 599 569T464 622Z" horiz-adv-x="778" unicode="Q"/>
			<glyph d="M191 698H353Q471 698 530 658T589 528Q589 482 567 441T506 373T419 339Q448 321 464 278T494 176L501 147L539 0H433L399 148Q382 221 372 252T346 296T301 310H207L142 0H42ZM272 610L227 398H300Q380 398 431 426T483 515Q483 565 455 587T369 610Z" horiz-adv-x="611" unicode="R"/>
			<glyph d="M340 710Q428 710 508 677L480 588Q423 622 354 622Q292 622 253 594T215 514Q215 481 237 456T312 401Q386 357 419 315T453 212Q453 158 427 106T347 21T211 -12Q166 -12 119 -3T17 28L49 120Q81 100 120 88T196 76Q244 76 278 93T330 139T347 200Q347 231 332 254T297 292T241 328Q197 354 170 376T126 432T109 511Q109 573 142 618T228 686T340 710Z" horiz-adv-x="500" unicode="S"/>
			<glyph d="M111 698H646L627 610H410L279 0H178L309 610H92Z" horiz-adv-x="556" unicode="T"/>
			<glyph d="M192 698H292L202 277Q194 240 194 215Q194 150 235 113T346 76Q432 76 480 139T556 330L636 698H736L646 288Q612 135 538 61T340 -12Q252 -12 197 22T118 104T94 200Q94 223 99 257T118 355Z" horiz-adv-x="722" unicode="U"/>
			<glyph d="M108 698H208L296 100H298L650 698H760L341 0H221Z" horiz-adv-x="667" unicode="V"/>
			<glyph d="M112 698H212L250 101H252L530 698H662L680 100H682L984 698H1091L726 0H596L581 604H579L301 0H169Z" horiz-adv-x="1000" unicode="W"/>
			<glyph d="M129 698H237L375 431L609 698H736L428 360L612 0H501L353 302L88 0H-36L299 373Z" horiz-adv-x="667" unicode="X"/>
			<glyph d="M106 698H216L355 382L630 698H757L391 292L331 0H233L293 292Z" horiz-adv-x="667" unicode="Y"/>
			<glyph d="M138 698H603L587 609L127 88H488L471 0H-13L3 88L463 610H120Z" horiz-adv-x="556" unicode="Z"/>
			<glyph d="M213 756H405L389 686H290L126 -70H226L212 -140H19Z" horiz-adv-x="333" unicode="["/>
			<glyph d="M0 710H88L328 -12H240Z" unicode="\"/>
			<glyph d="M155 756H348L154 -140H-38L-22 -70H77L241 686H141Z" horiz-adv-x="333" unicode="]"/>
			<glyph d="M279 698H361L560 294H472L320 606L168 294H80Z" horiz-adv-x="600" unicode="^"/>
			<glyph d="M0 -75H500V-125H0Z" horiz-adv-x="500" unicode="_"/>
			<glyph d="M104 725H205L272 581H205Z" unicode="`"/>
			<glyph d="M288 522Q381 522 435 481T489 360Q489 333 484 302T466 209Q442 98 427 0H340L357 85H355Q332 40 286 14T189 -12Q119 -12 72 25T26 129Q26 222 99 268T327 315Q333 315 396 312Q401 335 401 346Q401 392 373 419T284 446Q245 446 204 435T128 403L145 496Q175 506 216 514T288 522ZM306 245Q224 245 175 217T126 133Q126 101 150 82T210 64Q273 64 319 116T376 245Z" horiz-adv-x="556" unicode="a"/>
			<glyph d="M194 750H288L225 455H227Q251 487 293 504T389 522Q470 522 520 468T571 327Q571 233 542 156T454 33T313 -12Q259 -12 225 1T174 35T142 85H140L123 0H35ZM356 446Q304 446 262 411T197 319T174 199Q174 141 207 102T301 64Q353 64 392 101T451 197T471 319Q471 382 439 414T356 446Z" horiz-adv-x="611" unicode="b"/>
			<glyph d="M326 522Q399 522 457 502L434 421Q388 446 342 446Q284 446 239 414T171 330T147 215Q147 143 182 103T285 64Q329 64 388 87L371 0Q330 -12 273 -12Q166 -12 106 44T47 202Q47 288 79 361T175 478T326 522Z" horiz-adv-x="444" unicode="c"/>
			<glyph d="M544 750H638L515 182Q495 90 483 0H395Q407 61 412 78H410Q387 33 345 10T236 -12Q179 -12 136 15T70 91T47 203Q47 286 78 359T169 477T311 522Q368 522 411 497T475 426H477ZM315 446Q264 446 225 408T167 316T147 209Q147 144 178 104T271 64Q328 64 366 104T424 200T443 304Q443 365 410 405T315 446Z" horiz-adv-x="611" unicode="d"/>
			<glyph d="M328 522Q417 522 467 470T518 327Q518 290 509 234H150Q147 218 147 202Q147 132 185 98T304 64Q371 64 448 95L433 9Q349 -12 282 -12Q166 -12 106 46T47 217Q47 289 79 359T176 476T328 522ZM315 446Q264 446 221 407T160 304H421Q424 327 424 343Q424 388 396 417T315 446Z" horiz-adv-x="556" unicode="e"/>
			<glyph d="M413 762Q447 762 485 751L466 676Q458 680 444 683T420 686Q368 685 342 652T303 557L293 510H428L413 434H276L182 0H88L182 434H60L74 510H198L214 577Q235 665 282 713T413 762Z" horiz-adv-x="389" unicode="f"/>
			<glyph d="M310 522Q370 522 414 495T478 420H480L498 510H585L468 -37Q458 -83 425 -125T334 -195T194 -222Q157 -222 106 -212T23 -185L44 -101Q131 -146 207 -146Q352 -146 388 15L398 58H396Q371 26 334 13T245 0Q199 0 155 23T82 93T54 205Q54 293 86 365T176 480T310 522ZM315 446Q265 446 228 409T173 317T154 209Q154 152 184 114T268 76Q315 76 355 102T419 180T443 306Q443 366 409 406T315 446Z" horiz-adv-x="611" unicode="g"/>
			<glyph d="M192 750H286L223 446H225Q250 483 293 502T386 522Q464 522 510 481T556 362Q556 329 544 269L488 0H394L454 290Q462 330 462 353Q462 394 436 420T369 446Q317 446 277 415T214 339T182 253L129 0H35Z" horiz-adv-x="611" unicode="h"/>
			<glyph d="M190 730H296L274 624H168ZM149 510H243L135 0H41Z" unicode="i"/>
			<glyph d="M190 730H296L274 624H168ZM149 510H243L120 -70Q104 -147 66 -184T-38 -222Q-53 -222 -77 -215T-110 -204L-93 -130Q-73 -140 -51 -140Q-16 -140 2 -116T34 -31Z" unicode="j"/>
			<glyph d="M194 750H288L193 310H195L432 510H570L281 284L489 0H369L184 262L129 0H35Z" horiz-adv-x="556" unicode="k"/>
			<glyph d="M200 750H294L135 0H41Z" unicode="l"/>
			<glyph d="M378 522Q428 522 465 499T514 433Q553 479 595 500T694 522Q758 522 797 484T837 389Q837 354 827 306L763 0H669L738 328Q743 356 743 371Q743 403 723 424T668 446Q610 446 566 393T502 252L446 0H352L418 313Q426 350 426 371Q426 405 405 425T351 446Q294 446 249 393T184 247L129 0H35L126 438Q130 456 139 510H227L215 440H217Q244 480 286 501T378 522Z" horiz-adv-x="889" unicode="m"/>
			<glyph d="M386 522Q464 522 510 481T556 362Q556 327 544 269L488 0H394L454 291Q462 331 462 353Q462 394 436 420T369 446Q299 446 249 388T182 252L129 0H35L123 427Q136 494 138 510H226L210 429H212Q240 474 285 498T386 522Z" horiz-adv-x="611" unicode="n"/>
			<glyph d="M338 522Q442 522 503 462T564 299Q564 210 529 139T430 28T279 -12Q169 -12 108 47T47 215Q47 302 81 371T182 481T338 522ZM333 446Q276 446 234 411T169 321T147 208Q147 142 181 103T278 64Q329 64 372 98T439 186T464 299Q464 361 428 403T333 446Z" horiz-adv-x="611" unicode="o"/>
			<glyph d="M382 522Q465 522 514 468T564 327Q564 230 534 153T445 32T307 -12Q177 -12 141 76H139L78 -210H-16L97 323Q116 417 128 510H216L199 432H201Q228 478 277 500T382 522ZM349 446Q298 446 256 411T191 320T167 199Q167 141 200 102T294 64Q344 64 382 99T442 193T464 319Q464 380 433 413T349 446Z" horiz-adv-x="611" unicode="p"/>
			<glyph d="M311 522Q369 522 413 495T478 420H480L498 510H585L432 -210H339L394 51H392Q345 -12 236 -12Q178 -12 135 16T70 92T47 203Q47 286 78 359T169 477T311 522ZM315 446Q264 446 226 409T167 316T147 209Q147 144 178 104T271 64Q325 64 364 102T423 197T443 307Q443 367 409 406T315 446Z" horiz-adv-x="611" unicode="q"/>
			<glyph d="M385 522Q407 522 429 513L408 430Q385 440 367 440Q316 440 277 409T214 335T182 251L129 0H35L123 428Q136 490 138 510H226L210 429H212Q240 474 285 498T385 522Z" horiz-adv-x="389" unicode="r"/>
			<glyph d="M256 522Q321 522 389 494L361 420Q307 446 259 446Q217 446 190 431T164 384Q164 365 174 350T196 326T242 294Q288 264 313 233T338 151Q338 94 308 57T234 4T144 -12Q100 -12 67 -7T-4 12L14 93Q48 79 75 71T131 64Q176 64 207 84T238 143Q238 169 218 189T152 241Q106 272 85 302T64 372Q64 422 92 456T165 506T256 522Z" horiz-adv-x="389" unicode="s"/>
			<glyph d="M314 663L282 510H422L407 434H266L227 252Q204 147 204 119Q204 91 220 77T272 64Q287 64 306 67T338 77L324 -1Q310 -6 283 -9T232 -12Q171 -12 140 21T110 101Q110 137 128 221L172 434H60L74 510H188L213 628Z" horiz-adv-x="389" unicode="t"/>
			<glyph d="M131 510H225L163 210Q157 178 157 157Q157 116 182 90T250 64Q303 64 342 95T405 171T436 253L490 510H584L496 83Q495 76 489 45T481 0H393L409 81H407Q378 36 334 12T233 -12Q155 -12 109 29T63 148Q63 166 65 185T76 246Z" horiz-adv-x="611" unicode="u"/>
			<glyph d="M69 510H169L221 98H223L450 510H550L259 0H149Z" horiz-adv-x="500" unicode="v"/>
			<glyph d="M69 510H163L198 100H200L418 510H532L567 100H569L781 510H885L606 0H498L458 410H456L236 0H125Z" horiz-adv-x="833" unicode="w"/>
			<glyph d="M86 510H189L265 326L418 510H532L315 265L439 0H333L245 200L75 0H-42L194 269Z" horiz-adv-x="500" unicode="x"/>
			<glyph d="M72 510H170L229 103H231L453 510H554L207 -94Q181 -140 159 -166T108 -207T33 -222Q-4 -222 -38 -215L-22 -137Q-6 -146 19 -146Q62 -146 94 -116T154 -28Z" horiz-adv-x="500" unicode="y"/>
			<glyph d="M105 510H509L490 428L124 76H426L409 0H-6L10 82L373 434H90Z" horiz-adv-x="500" unicode="z"/>
			<glyph d="M342 756H420L405 686H355Q325 686 310 669T287 613L248 431Q235 374 199 344T129 309V307Q161 300 179 277T198 218Q198 207 193 179L155 -2Q152 -17 152 -30Q152 -48 159 -59T188 -70H239L225 -140H150Q110 -140 84 -112T58 -42Q58 -28 61 -14L99 161Q104 184 104 198Q104 236 83 254T37 273L52 343Q90 348 121 376T161 445L201 630Q215 694 251 725T342 756Z" horiz-adv-x="333" unicode="{"/>
			<glyph d="M92 750H180V-250H92Z" horiz-adv-x="222" unicode="|"/>
			<glyph d="M109 756H184Q224 756 250 728T276 658Q276 644 273 630L235 455Q230 433 230 418Q230 380 250 361T297 343L282 273Q244 268 213 240T173 171L133 -14Q119 -78 82 -109T-8 -140H-86L-71 -70H-21Q9 -70 23 -53T47 3L86 185Q99 242 134 272T205 307V309Q173 316 154 338T136 398Q136 410 141 437L179 618Q182 633 182 646Q182 664 174 675T146 686H95Z" horiz-adv-x="333" unicode="}"/>
			<glyph d="M510 333L546 263Q515 217 486 197T421 177Q396 177 373 185T319 210Q287 228 260 237T205 246Q179 246 158 229T120 173L84 243Q107 286 137 307T209 328Q259 328 350 283Q378 270 393 264T422 259Q445 259 465 276T510 333Z" horiz-adv-x="600" unicode="~"/>
			<glyph d="" unicode=" "/>
			<glyph d="M188 510H300L277 398H165ZM158 314H249L152 -188H34Z" horiz-adv-x="389" unicode="¡"/>
			<glyph d="M407 634H463L426 517Q460 513 492 502L469 421Q439 438 403 441L284 68Q299 64 319 64Q364 64 423 87L406 0Q365 -12 309 -12Q281 -12 260 -8L220 -133H164L208 5Q147 27 114 76T82 202Q82 290 115 363T212 479T361 522H371ZM346 441Q271 428 226 365T182 215Q182 172 195 139T234 89Z" horiz-adv-x="556" unicode="¢"/>
			<glyph d="M456 710Q539 710 597 681L573 598Q514 622 472 622Q396 622 358 581T301 457L289 406H451L441 348H277L221 88H470L453 0H9L26 88H121L177 348H92L104 406H189L203 466Q232 589 289 649T456 710Z" horiz-adv-x="556" unicode="£"/>
			<glyph d="M95 603L150 548Q178 571 218 584T298 597Q340 597 379 584T448 548L502 603L552 551L498 497Q521 471 533 431T546 349Q546 307 534 269T498 203L552 146L502 95L448 152Q419 127 380 114T298 101Q207 101 150 152L95 95L44 146L100 203Q50 262 50 349Q50 392 62 431T100 497L44 551ZM297 515Q253 515 216 492T159 431T138 349Q138 305 159 267T217 206T298 183Q343 183 379 206T437 267T458 349Q458 391 438 429T381 491T297 515Z" horiz-adv-x="556" unicode="¤"/>
			<glyph d="M91 698H195L297 381L529 698H629L386 366H493L482 308H343L331 292L317 220H464L453 162H306L274 0H181L213 162H74L85 220H224L238 292L232 308H103L114 366H211Z" horiz-adv-x="556" unicode="¥"/>
			<glyph d="M92 675H180V325H92ZM92 175H180V-175H92Z" horiz-adv-x="222" unicode="¦"/>
			<glyph d="M366 710Q456 710 530 678L503 596Q440 628 366 628Q315 628 276 611T238 556Q238 526 265 504T357 455Q438 420 468 383T499 301Q499 258 472 223T385 156Q414 137 427 112T440 54Q440 6 414 -34T334 -99T201 -124Q91 -124 15 -90L42 -7Q88 -25 123 -33T195 -42Q267 -42 306 -19T346 48Q346 78 322 96T244 137Q192 159 163 174T112 216T90 285Q90 330 117 366T205 441Q144 486 144 548Q144 589 166 626T239 686T366 710ZM259 405L236 387Q210 366 194 346T178 302Q178 279 205 258T276 218L332 192Q374 218 392 239T411 286Q411 315 389 333T318 376Z" horiz-adv-x="556" unicode="§"/>
			<glyph d="M105 688H193L172 588H84ZM270 688H358L337 588H249Z" unicode="¨"/>
			<glyph d="M420 710Q518 710 600 661T732 530T781 349Q781 250 732 167T600 36T420 -12Q322 -12 239 36T108 168T59 349Q59 446 107 529T238 661T420 710ZM419 640Q344 640 281 602T183 497T147 349Q147 266 183 199T282 95T420 58Q495 58 557 96T656 200T693 349Q693 429 657 496T559 601T419 640ZM426 567Q496 567 544 526T602 417H529Q522 454 494 475T427 497Q367 497 333 456T300 351Q300 284 335 241T429 199Q468 199 495 220T529 285H602Q591 214 543 171T429 129Q369 129 322 157T250 235T224 349Q224 411 247 460T317 538T426 567Z" horiz-adv-x="800" unicode="©"/>
			<glyph d="M274 710Q334 710 373 685T412 613Q412 592 407 563T394 503Q380 441 372 396H292L303 446H301Q286 418 257 403T192 388Q138 388 101 409T64 475Q64 536 119 564T256 593H321Q324 607 324 613Q324 629 306 637T255 646Q235 646 201 639T136 621L147 695Q226 710 274 710ZM270 535Q221 535 186 522T152 483Q152 466 169 459T207 452Q246 452 277 474T315 535Z" horiz-adv-x="361" unicode="ª"/>
			<glyph d="M227 471H331L143 269L289 67H192L44 269ZM426 471H530L342 269L488 67H391L243 269Z" horiz-adv-x="556" unicode="«"/>
			<glyph d="M62 402H568V107H480V314H62Z" horiz-adv-x="600" unicode="¬"/>
			<glyph d="M51 307H314L299 231H35Z" horiz-adv-x="333" unicode="­"/>
			<glyph d="M420 710Q518 710 600 661T732 530T781 349Q781 250 732 167T600 36T420 -12Q322 -12 239 36T108 168T59 349Q59 446 107 529T238 661T420 710ZM419 640Q344 640 281 602T183 497T147 349Q147 266 183 199T282 95T420 58Q495 58 557 96T656 200T693 349Q693 429 657 496T559 601T419 640ZM281 555H434Q509 555 546 526T584 435Q584 335 477 325L587 146H509L403 322H357V146H281ZM357 497V380H430Q471 380 489 394T508 441Q508 497 427 497Z" horiz-adv-x="800" unicode="®"/>
			<glyph d="M93 673H362L351 615H81Z" unicode="¯"/>
			<glyph d="M250 710Q288 710 321 691T373 639T393 567Q393 528 374 495T322 443T250 424Q211 424 178 443T126 495T107 567Q107 605 126 638T178 690T250 710ZM250 646Q217 646 194 623T171 567Q171 534 194 511T250 488Q283 488 306 511T329 567Q329 600 306 623T250 646Z" horiz-adv-x="400" unicode="°"/>
			<glyph d="M271 506H359V359H568V271H359V124H271V271H62V359H271ZM62 88H568V0H62Z" horiz-adv-x="600" unicode="±"/>
			<glyph d="M291 856Q352 856 389 829T427 754Q427 705 379 650T249 536Q221 515 204 501V498H373L359 428H69L83 490L136 531Q235 607 287 658T339 743Q339 786 275 786Q232 786 170 766L176 835Q236 856 291 856ZZ" horiz-adv-x="361" unicode="²"/>
			<glyph d="M281 856Q351 856 392 832T434 756Q434 714 397 684T309 647V645Q346 636 370 613T394 559Q394 516 365 484T294 437T208 422Q138 422 80 441L96 516Q133 492 199 492Q250 492 278 510T306 561Q306 591 271 602T187 612L196 682Q263 681 304 695T346 746Q346 765 327 775T282 786Q231 786 175 765L181 841Q187 842 218 849T281 856ZZZ" horiz-adv-x="361" unicode="³"/>
			<glyph d="M258 725H370L235 581H164Z" unicode="´"/>
			<glyph d="M141 510H235L173 210Q167 182 167 157Q167 116 192 90T260 64Q314 64 354 96T416 172T445 249L500 510H594L502 63Q494 26 491 0H403L419 81H417Q359 -12 238 -12Q198 -12 174 -6T132 11L87 -210H-7Z" horiz-adv-x="611" unicode="µ"/>
			<glyph d="M362 698H633L464 -112H375L529 628H414L260 -112H173L266 333Q181 333 132 371T83 475Q83 550 121 600T223 674T362 698Z" horiz-adv-x="600" unicode="¶"/>
			<glyph d="M155 362Q179 362 196 345T214 303Q214 278 197 261T155 244Q130 244 113 261T96 303Q96 327 113 344T155 362Z" unicode="·"/>
			<glyph d="M146 0H188L134 -61L136 -63Q150 -59 164 -59Q201 -59 228 -78T255 -135Q255 -175 218 -198T133 -222Q82 -222 37 -200L53 -164Q58 -166 80 -174T119 -182Q179 -182 179 -137Q179 -120 165 -109T133 -99Q114 -99 91 -109L74 -85Z" unicode="¸"/>
			<glyph d="M289 850H370L275 428H190L264 774L190 729L155 774Z" horiz-adv-x="361" unicode="¹"/>
			<glyph d="M281 710Q353 710 393 674T434 575Q434 493 383 440T242 388Q167 388 126 423T86 525Q86 576 107 617T173 684T281 710ZM274 646Q228 646 201 612T174 526Q174 499 193 475T246 452Q288 452 317 482T346 562Q346 600 328 623T274 646Z" horiz-adv-x="397" unicode="º"/>
			<glyph d="M86 471H183L331 269L148 67H44L232 269ZM285 471H382L530 269L347 67H243L431 269Z" horiz-adv-x="556" unicode="»"/>
			<glyph d="M586 720H656L221 -22H151ZM225 703H306L211 281H126L200 627L126 582L91 627ZM683 422H794L736 153H797L782 83H723L705 0H621L639 83H430L440 154ZM691 335L527 153H652L693 335Z" horiz-adv-x="834" unicode="¼"/>
			<glyph d="M596 720H666L231 -22H161ZM215 703H296L201 281H116L190 627L116 582L81 627ZM672 428Q733 428 770 401T808 326Q808 276 759 221T630 108Q602 87 585 73V70H754L740 0H450L464 62L517 103Q616 179 668 230T720 315Q720 358 656 358Q613 358 551 338L557 407Q617 428 672 428ZZ" horiz-adv-x="834" unicode="½"/>
			<glyph d="M626 720H696L261 -22H191ZM231 709Q301 709 342 685T384 609Q384 567 347 537T259 500V498Q296 489 320 466T344 412Q344 369 315 338T244 291T158 275Q88 275 30 294L46 369Q83 345 149 345Q200 345 228 363T256 414Q256 444 221 455T137 465L146 535Q211 534 253 548T296 599Q296 618 277 628T232 639Q180 639 125 618L131 694Q137 695 169 702T231 709ZM686 422H797L739 153H800L785 83H726L708 0H624L642 83H433L443 154ZM694 335L530 153H655L696 335ZZZ" horiz-adv-x="834" unicode="¾"/>
			<glyph d="M241 510H353L330 398H218ZM212 314H306L301 294Q288 240 279 217T249 169T186 112Q136 75 110 44T85 -28Q85 -70 114 -91T206 -112Q239 -112 272 -104T348 -83L337 -176Q250 -200 181 -200Q83 -200 31 -158T-21 -37Q-21 18 3 56T80 136Q137 182 162 208T196 254T212 314Z" horiz-adv-x="500" unicode="¿"/>
			<glyph d="M422 698H521L675 0H572L535 176H192L80 0H-31ZM454 589L243 258H520ZM346 884H447L514 740H447Z" horiz-adv-x="722" unicode="À"/>
			<glyph d="M422 698H521L675 0H572L535 176H192L80 0H-31ZM454 589L243 258H520ZM531 884H643L508 740H437Z" horiz-adv-x="722" unicode="Á"/>
			<glyph d="M422 698H521L675 0H572L535 176H192L80 0H-31ZM454 589L243 258H520ZM464 884H550L625 740H551L500 838L413 740H331Z" horiz-adv-x="722" unicode="Â"/>
			<glyph d="M422 698H521L675 0H572L535 176H192L80 0H-31ZM454 589L243 258H520ZM422 866Q439 866 457 860T505 842Q530 831 548 825T581 820Q597 820 608 831T622 866H668Q661 812 637 783T574 754Q557 754 537 760T491 778Q466 789 449 794T416 800Q381 800 374 754H328Q335 808 359 837T422 866Z" horiz-adv-x="722" unicode="Ã"/>
			<glyph d="M422 698H521L675 0H572L535 176H192L80 0H-31ZM454 589L243 258H520ZM385 862H473L452 762H364ZM550 862H638L617 762H529Z" horiz-adv-x="722" unicode="Ä"/>
			<glyph d="M422 698H521L675 0H572L535 176H192L80 0H-31ZM454 589L243 258H520ZM479 933Q521 933 550 903T580 831Q580 789 550 759T479 729Q437 729 408 759T379 831Q379 874 408 903T479 933ZM478 893Q455 893 437 875T419 831Q419 806 436 787T479 769Q503 769 521 788T540 831Q540 855 521 874T478 893Z" horiz-adv-x="722" unicode="Å"/>
			<glyph d="M525 698H962L947 610H683L644 406H885L868 318H627L583 88H847L831 0H464L498 176H228L87 0H-36ZM582 616L294 258H514L584 616Z" horiz-adv-x="944" unicode="Æ"/>
			<glyph d="M493 710Q580 710 659 678L630 592Q560 622 495 622Q396 622 324 578T216 462T180 302Q180 195 243 135T418 76Q485 76 543 100L530 7Q472 -12 402 -12Q370 -12 347 -8L301 -61L303 -63Q317 -59 331 -59Q367 -59 394 -77T422 -135Q422 -176 385 -199T300 -222Q249 -222 204 -200L220 -164Q224 -166 238 -171T264 -179T286 -182Q346 -182 346 -137Q346 -120 332 -109T300 -99Q281 -99 258 -109L241 -85L311 -2Q195 21 134 100T74 307Q74 403 120 496T261 649T493 710Z" horiz-adv-x="611" unicode="Ç"/>
			<glyph d="M195 698H574L554 610H278L233 406H492L475 318H213L162 88H455L436 0H42ZM273 884H374L441 740H374Z" horiz-adv-x="556" unicode="È"/>
			<glyph d="M195 698H574L554 610H278L233 406H492L475 318H213L162 88H455L436 0H42ZM423 884H535L400 740H329Z" horiz-adv-x="556" unicode="É"/>
			<glyph d="M195 698H574L554 610H278L233 406H492L475 318H213L162 88H455L436 0H42ZM351 884H437L512 740H438L387 838L300 740H218Z" horiz-adv-x="556" unicode="Ê"/>
			<glyph d="M195 698H574L554 610H278L233 406H492L475 318H213L162 88H455L436 0H42ZM276 862H364L343 762H255ZM441 862H529L508 762H420Z" horiz-adv-x="556" unicode="Ë"/>
			<glyph d="M188 698H289L139 0H38ZM134 884H235L302 740H235Z" unicode="Ì"/>
			<glyph d="M188 698H289L139 0H38ZM283 884H395L260 740H189Z" unicode="Í"/>
			<glyph d="M188 698H289L139 0H38ZM215 884H301L376 740H302L251 838L164 740H82Z" unicode="Î"/>
			<glyph d="M188 698H289L139 0H38ZM136 862H224L203 762H115ZM301 862H389L368 762H280Z" unicode="Ï"/>
			<glyph d="M190 698H347Q456 698 534 664T654 567T695 416Q695 286 641 192T488 49T251 0H42L115 342H40L54 406H128ZM273 610L230 406H410L396 342H216L162 88H268Q364 88 436 127T549 237T589 405Q589 509 528 559T329 610Z" horiz-adv-x="722" unicode="Ð"/>
			<glyph d="M187 698H319L516 113H518L642 698H737L585 0H456L259 580H257L138 0H42ZM395 866Q412 866 430 860T478 842Q503 831 521 825T554 820Q570 820 581 831T595 866H641Q634 812 610 783T547 754Q530 754 510 760T464 778Q439 789 422 794T389 800Q354 800 347 754H301Q308 808 332 837T395 866Z" horiz-adv-x="722" unicode="Ñ"/>
			<glyph d="M468 710Q601 710 676 635T751 426Q751 311 706 211T574 49T367 -12Q223 -12 148 63T74 284Q74 384 119 482T255 645T468 710ZM465 622Q383 622 317 574T216 449T180 281Q180 187 228 131T371 76Q451 76 513 126T610 254T645 414Q645 515 599 568T465 622ZM390 884H491L558 740H491Z" horiz-adv-x="778" unicode="Ò"/>
			<glyph d="M468 710Q601 710 676 635T751 426Q751 311 706 211T574 49T367 -12Q223 -12 148 63T74 284Q74 384 119 482T255 645T468 710ZM465 622Q383 622 317 574T216 449T180 281Q180 187 228 131T371 76Q451 76 513 126T610 254T645 414Q645 515 599 568T465 622ZM536 884H648L513 740H442Z" horiz-adv-x="778" unicode="Ó"/>
			<glyph d="M468 710Q601 710 676 635T751 426Q751 311 706 211T574 49T367 -12Q223 -12 148 63T74 284Q74 384 119 482T255 645T468 710ZM465 622Q383 622 317 574T216 449T180 281Q180 187 228 131T371 76Q451 76 513 126T610 254T645 414Q645 515 599 568T465 622ZM469 884H555L630 740H556L505 838L418 740H336Z" horiz-adv-x="778" unicode="Ô"/>
			<glyph d="M468 710Q601 710 676 635T751 426Q751 311 706 211T574 49T367 -12Q223 -12 148 63T74 284Q74 384 119 482T255 645T468 710ZM465 622Q383 622 317 574T216 449T180 281Q180 187 228 131T371 76Q451 76 513 126T610 254T645 414Q645 515 599 568T465 622ZM430 866Q447 866 465 860T513 842Q538 831 556 825T589 820Q605 820 616 831T630 866H676Q669 812 645 783T582 754Q565 754 545 760T499 778Q474 789 457 794T424 800Q389 800 382 754H336Q343 808 367 837T430 866Z" horiz-adv-x="778" unicode="Õ"/>
			<glyph d="M468 710Q601 710 676 635T751 426Q751 311 706 211T574 49T367 -12Q223 -12 148 63T74 284Q74 384 119 482T255 645T468 710ZM465 622Q383 622 317 574T216 449T180 281Q180 187 228 131T371 76Q451 76 513 126T610 254T645 414Q645 515 599 568T465 622ZM391 862H479L458 762H370ZM556 862H644L623 762H535Z" horiz-adv-x="778" unicode="Ö"/>
			<glyph d="M145 485L315 314L485 485L547 423L376 253L547 83L485 21L315 192L145 21L83 83L253 253L83 423Z" horiz-adv-x="600" unicode="×"/>
			<glyph d="M685 770L735 735L667 643Q751 570 751 427Q751 310 705 209T573 48T367 -12Q271 -12 208 21L131 -83L81 -48L158 56Q116 92 95 150T74 284Q74 387 120 485T258 647T470 710Q556 710 616 677ZM465 622Q383 622 318 575T216 450T180 281Q180 194 221 142L559 600Q521 622 465 622ZM605 560L267 101Q308 76 371 76Q451 76 513 125T610 253T645 414Q645 508 605 560Z" horiz-adv-x="778" unicode="Ø"/>
			<glyph d="M192 698H292L202 277Q194 240 194 215Q194 150 235 113T346 76Q432 76 480 139T556 330L636 698H736L646 288Q612 135 538 61T340 -12Q252 -12 197 22T118 104T94 200Q94 223 99 257T118 355ZM358 884H459L526 740H459Z" horiz-adv-x="722" unicode="Ù"/>
			<glyph d="M192 698H292L202 277Q194 240 194 215Q194 150 235 113T346 76Q432 76 480 139T556 330L636 698H736L646 288Q612 135 538 61T340 -12Q252 -12 197 22T118 104T94 200Q94 223 99 257T118 355ZM513 884H625L490 740H419Z" horiz-adv-x="722" unicode="Ú"/>
			<glyph d="M192 698H292L202 277Q194 240 194 215Q194 150 235 113T346 76Q432 76 480 139T556 330L636 698H736L646 288Q612 135 538 61T340 -12Q252 -12 197 22T118 104T94 200Q94 223 99 257T118 355ZM444 884H530L605 740H531L480 838L393 740H311Z" horiz-adv-x="722" unicode="Û"/>
			<glyph d="M192 698H292L202 277Q194 240 194 215Q194 150 235 113T346 76Q432 76 480 139T556 330L636 698H736L646 288Q612 135 538 61T340 -12Q252 -12 197 22T118 104T94 200Q94 223 99 257T118 355ZM364 862H452L431 762H343ZM529 862H617L596 762H508Z" horiz-adv-x="722" unicode="Ü"/>
			<glyph d="M106 698H216L355 382L630 698H757L391 292L331 0H233L293 292ZM448 884H560L425 740H354Z" horiz-adv-x="667" unicode="Ý"/>
			<glyph d="M190 698H290L268 596H343Q438 596 502 550T567 414Q567 342 532 288T432 206T281 177H177L138 0H38ZM249 508L196 265H253Q459 265 459 399Q459 457 423 482T311 508Z" horiz-adv-x="556" unicode="Þ"/>
			<glyph d="M387 762Q474 762 529 717T585 580Q585 534 564 494T507 428T430 396V394Q489 387 523 346T557 242Q557 178 528 121T441 29T300 -6Q256 -6 201 4L218 81Q257 70 304 70Q349 70 383 93T437 155T457 241Q457 303 422 330T306 357L322 433Q367 433 405 450T467 500T491 578Q491 628 461 657T385 686Q330 686 293 643T236 505L129 0H35L144 517Q160 591 185 644T259 729T387 762Z" horiz-adv-x="611" unicode="ß"/>
			<glyph d="M288 522Q381 522 435 481T489 360Q489 333 484 302T466 209Q442 98 427 0H340L357 85H355Q332 40 286 14T189 -12Q119 -12 72 25T26 129Q26 222 99 268T327 315Q333 315 396 312Q401 335 401 346Q401 392 373 419T284 446Q245 446 204 435T128 403L145 496Q175 506 216 514T288 522ZM306 245Q224 245 175 217T126 133Q126 101 150 82T210 64Q273 64 319 116T376 245ZM243 725H344L411 581H344Z" horiz-adv-x="556" unicode="à"/>
			<glyph d="M288 522Q381 522 435 481T489 360Q489 333 484 302T466 209Q442 98 427 0H340L357 85H355Q332 40 286 14T189 -12Q119 -12 72 25T26 129Q26 222 99 268T327 315Q333 315 396 312Q401 335 401 346Q401 392 373 419T284 446Q245 446 204 435T128 403L145 496Q175 506 216 514T288 522ZM306 245Q224 245 175 217T126 133Q126 101 150 82T210 64Q273 64 319 116T376 245ZM397 725H509L374 581H303Z" horiz-adv-x="556" unicode="á"/>
			<glyph d="M288 522Q381 522 435 481T489 360Q489 333 484 302T466 209Q442 98 427 0H340L357 85H355Q332 40 286 14T189 -12Q119 -12 72 25T26 129Q26 222 99 268T327 315Q333 315 396 312Q401 335 401 346Q401 392 373 419T284 446Q245 446 204 435T128 403L145 496Q175 506 216 514T288 522ZM306 245Q224 245 175 217T126 133Q126 101 150 82T210 64Q273 64 319 116T376 245ZM330 725H416L491 581H417L366 679L279 581H197Z" horiz-adv-x="556" unicode="â"/>
			<glyph d="M288 522Q381 522 435 481T489 360Q489 333 484 302T466 209Q442 98 427 0H340L357 85H355Q332 40 286 14T189 -12Q119 -12 72 25T26 129Q26 222 99 268T327 315Q333 315 396 312Q401 335 401 346Q401 392 373 419T284 446Q245 446 204 435T128 403L145 496Q175 506 216 514T288 522ZM306 245Q224 245 175 217T126 133Q126 101 150 82T210 64Q273 64 319 116T376 245ZM284 698Q301 698 321 691T366 674Q394 662 410 657T439 652Q477 652 484 698H530Q522 643 498 614T436 586Q420 586 400 592T354 610Q327 622 311 627T282 632Q243 632 236 586H190Q198 640 222 669T284 698Z" horiz-adv-x="556" unicode="ã"/>
			<glyph d="M288 522Q381 522 435 481T489 360Q489 333 484 302T466 209Q442 98 427 0H340L357 85H355Q332 40 286 14T189 -12Q119 -12 72 25T26 129Q26 222 99 268T327 315Q333 315 396 312Q401 335 401 346Q401 392 373 419T284 446Q245 446 204 435T128 403L145 496Q175 506 216 514T288 522ZM306 245Q224 245 175 217T126 133Q126 101 150 82T210 64Q273 64 319 116T376 245ZM244 688H332L311 588H223ZM409 688H497L476 588H388Z" horiz-adv-x="556" unicode="ä"/>
			<glyph d="M288 522Q381 522 435 481T489 360Q489 333 484 302T466 209Q442 98 427 0H340L357 85H355Q332 40 286 14T189 -12Q119 -12 72 25T26 129Q26 222 99 268T327 315Q333 315 396 312Q401 335 401 346Q401 392 373 419T284 446Q245 446 204 435T128 403L145 496Q175 506 216 514T288 522ZM306 245Q224 245 175 217T126 133Q126 101 150 82T210 64Q273 64 319 116T376 245ZM346 767Q387 767 417 737T447 665Q447 623 417 593T346 563Q303 563 274 593T246 665Q246 707 275 737T346 767ZM346 727Q322 727 304 709T286 665Q286 640 303 621T346 603Q370 603 388 622T407 665Q407 690 388 708T346 727Z" horiz-adv-x="556" unicode="å"/>
			<glyph d="M301 522Q374 522 419 499T483 434Q546 522 671 522Q762 522 812 470T863 327Q863 288 854 234H503Q500 224 500 200Q500 134 547 99T659 64Q722 64 793 94L780 10Q750 0 716 -6T654 -12Q590 -12 548 -1T478 33T424 101Q394 49 335 18T210 -12Q125 -12 75 24T26 129Q26 222 99 268T328 315Q354 315 414 311Q418 327 418 345Q418 394 384 420T294 446Q219 446 129 406L147 497Q229 522 301 522ZM661 446Q608 446 565 406T505 304H766Q769 327 769 343Q769 391 740 418T661 446ZM308 245Q223 245 174 216T126 133Q126 102 150 83T220 64Q288 64 334 110T398 245Z" horiz-adv-x="889" unicode="æ"/>
			<glyph d="M326 522Q397 522 457 502L434 421Q388 446 342 446Q285 446 240 415T171 331T147 215Q147 143 182 103T285 64Q329 64 388 87L371 0Q330 -12 275 -12L261 -11L217 -61L219 -63Q233 -59 247 -59Q283 -59 310 -77T338 -135Q338 -177 300 -199T216 -222Q165 -222 120 -200L136 -164Q180 -182 202 -182Q262 -182 262 -137Q262 -120 248 -109T216 -99Q197 -99 174 -109L157 -85L222 -8Q137 5 92 59T47 202Q47 288 79 361T175 478T326 522Z" horiz-adv-x="444" unicode="ç"/>
			<glyph d="M328 522Q417 522 467 470T518 327Q518 290 509 234H150Q147 218 147 202Q147 132 185 98T304 64Q371 64 448 95L433 9Q349 -12 282 -12Q166 -12 106 46T47 217Q47 289 79 359T176 476T328 522ZM315 446Q264 446 221 407T160 304H421Q424 327 424 343Q424 388 396 417T315 446ZM243 725H344L411 581H344Z" horiz-adv-x="556" unicode="è"/>
			<glyph d="M328 522Q417 522 467 470T518 327Q518 290 509 234H150Q147 218 147 202Q147 132 185 98T304 64Q371 64 448 95L433 9Q349 -12 282 -12Q166 -12 106 46T47 217Q47 289 79 359T176 476T328 522ZM315 446Q264 446 221 407T160 304H421Q424 327 424 343Q424 388 396 417T315 446ZM397 725H509L374 581H303Z" horiz-adv-x="556" unicode="é"/>
			<glyph d="M328 522Q417 522 467 470T518 327Q518 290 509 234H150Q147 218 147 202Q147 132 185 98T304 64Q371 64 448 95L433 9Q349 -12 282 -12Q166 -12 106 46T47 217Q47 289 79 359T176 476T328 522ZM315 446Q264 446 221 407T160 304H421Q424 327 424 343Q424 388 396 417T315 446ZM330 725H416L491 581H417L366 679L279 581H197Z" horiz-adv-x="556" unicode="ê"/>
			<glyph d="M328 522Q417 522 467 470T518 327Q518 290 509 234H150Q147 218 147 202Q147 132 185 98T304 64Q371 64 448 95L433 9Q349 -12 282 -12Q166 -12 106 46T47 217Q47 289 79 359T176 476T328 522ZM315 446Q264 446 221 407T160 304H421Q424 327 424 343Q424 388 396 417T315 446ZM244 688H332L311 588H223ZM409 688H497L476 588H388Z" horiz-adv-x="556" unicode="ë"/>
			<glyph d="M149 510H243L135 0H41ZM104 725H205L272 581H205Z" unicode="ì"/>
			<glyph d="M149 510H243L135 0H41ZM258 725H370L235 581H164Z" unicode="í"/>
			<glyph d="M149 510H243L135 0H41ZM191 725H277L352 581H278L227 679L140 581H58Z" unicode="î"/>
			<glyph d="M149 510H243L135 0H41ZM105 688H193L172 588H84ZM270 688H358L337 588H249Z" unicode="ï"/>
			<glyph d="M284 762Q334 733 374 702L504 762L547 711L426 655Q497 583 530 495T564 299Q564 210 530 139T431 28T279 -12Q169 -12 108 47T47 215Q47 303 82 372T183 482T337 522Q391 522 428 500H430Q396 565 342 616L215 557L172 608L287 662Q259 682 212 709ZM333 446Q276 446 233 411T169 321T147 208Q147 142 181 103T278 64Q330 64 373 99T440 188T464 299Q464 361 428 403T333 446Z" horiz-adv-x="611" unicode="ð"/>
			<glyph d="M386 522Q464 522 510 481T556 362Q556 327 544 269L488 0H394L454 291Q462 331 462 353Q462 394 436 420T369 446Q299 446 249 388T182 252L129 0H35L123 427Q136 494 138 510H226L210 429H212Q240 474 285 498T386 522ZM312 698Q329 698 349 691T394 674Q422 662 438 657T467 652Q505 652 512 698H558Q550 643 526 614T464 586Q448 586 428 592T382 610Q355 622 339 627T310 632Q271 632 264 586H218Q226 640 250 669T312 698Z" horiz-adv-x="611" unicode="ñ"/>
			<glyph d="M338 522Q442 522 503 462T564 299Q564 210 529 139T430 28T279 -12Q169 -12 108 47T47 215Q47 302 81 371T182 481T338 522ZM333 446Q276 446 234 411T169 321T147 208Q147 142 181 103T278 64Q329 64 372 98T439 186T464 299Q464 361 428 403T333 446ZM271 725H372L439 581H372Z" horiz-adv-x="611" unicode="ò"/>
			<glyph d="M338 522Q442 522 503 462T564 299Q564 210 529 139T430 28T279 -12Q169 -12 108 47T47 215Q47 302 81 371T182 481T338 522ZM333 446Q276 446 234 411T169 321T147 208Q147 142 181 103T278 64Q329 64 372 98T439 186T464 299Q464 361 428 403T333 446ZM425 725H537L402 581H331Z" horiz-adv-x="611" unicode="ó"/>
			<glyph d="M338 522Q442 522 503 462T564 299Q564 210 529 139T430 28T279 -12Q169 -12 108 47T47 215Q47 302 81 371T182 481T338 522ZM333 446Q276 446 234 411T169 321T147 208Q147 142 181 103T278 64Q329 64 372 98T439 186T464 299Q464 361 428 403T333 446ZM358 725H444L519 581H445L394 679L307 581H225Z" horiz-adv-x="611" unicode="ô"/>
			<glyph d="M338 522Q442 522 503 462T564 299Q564 210 529 139T430 28T279 -12Q169 -12 108 47T47 215Q47 302 81 371T182 481T338 522ZM333 446Q276 446 234 411T169 321T147 208Q147 142 181 103T278 64Q329 64 372 98T439 186T464 299Q464 361 428 403T333 446ZM312 698Q329 698 349 691T394 674Q422 662 438 657T467 652Q505 652 512 698H558Q550 643 526 614T464 586Q448 586 428 592T382 610Q355 622 339 627T310 632Q271 632 264 586H218Q226 640 250 669T312 698Z" horiz-adv-x="611" unicode="õ"/>
			<glyph d="M338 522Q442 522 503 462T564 299Q564 210 529 139T430 28T279 -12Q169 -12 108 47T47 215Q47 302 81 371T182 481T338 522ZM333 446Q276 446 234 411T169 321T147 208Q147 142 181 103T278 64Q329 64 372 98T439 186T464 299Q464 361 428 403T333 446ZM272 688H360L339 588H251ZM437 688H525L504 588H416Z" horiz-adv-x="611" unicode="ö"/>
			<glyph d="M316 537Q346 537 369 514T392 460Q392 431 369 407T317 384Q285 384 262 406T239 460Q239 491 261 514T316 537ZM62 297H568V209H62ZM316 122Q346 122 369 99T392 46Q392 16 369 -7T317 -31Q285 -31 262 -8T239 46Q239 78 262 100T316 122Z" horiz-adv-x="600" unicode="÷"/>
			<glyph d="M507 582L552 549L493 470Q527 442 545 398T564 299Q564 209 529 138T430 27T279 -12Q207 -12 156 15L92 -72L47 -39L110 46Q47 104 47 215Q47 302 81 371T182 481T338 522Q398 522 446 499ZM333 446Q275 446 233 410T169 320T147 208Q147 158 167 123L395 431Q368 446 333 446ZM436 393L206 83Q238 64 278 64Q330 64 372 98T439 188T464 299Q464 353 436 393Z" horiz-adv-x="611" unicode="ø"/>
			<glyph d="M131 510H225L163 210Q157 178 157 157Q157 116 182 90T250 64Q303 64 342 95T405 171T436 253L490 510H584L496 83Q495 76 489 45T481 0H393L409 81H407Q378 36 334 12T233 -12Q155 -12 109 29T63 148Q63 166 65 185T76 246ZM271 725H372L439 581H372Z" horiz-adv-x="611" unicode="ù"/>
			<glyph d="M131 510H225L163 210Q157 178 157 157Q157 116 182 90T250 64Q303 64 342 95T405 171T436 253L490 510H584L496 83Q495 76 489 45T481 0H393L409 81H407Q378 36 334 12T233 -12Q155 -12 109 29T63 148Q63 166 65 185T76 246ZM425 725H537L402 581H331Z" horiz-adv-x="611" unicode="ú"/>
			<glyph d="M131 510H225L163 210Q157 178 157 157Q157 116 182 90T250 64Q303 64 342 95T405 171T436 253L490 510H584L496 83Q495 76 489 45T481 0H393L409 81H407Q378 36 334 12T233 -12Q155 -12 109 29T63 148Q63 166 65 185T76 246ZM358 725H444L519 581H445L394 679L307 581H225Z" horiz-adv-x="611" unicode="û"/>
			<glyph d="M131 510H225L163 210Q157 178 157 157Q157 116 182 90T250 64Q303 64 342 95T405 171T436 253L490 510H584L496 83Q495 76 489 45T481 0H393L409 81H407Q378 36 334 12T233 -12Q155 -12 109 29T63 148Q63 166 65 185T76 246ZM272 688H360L339 588H251ZM437 688H525L504 588H416Z" horiz-adv-x="611" unicode="ü"/>
			<glyph d="M72 510H170L229 103H231L453 510H554L207 -94Q181 -140 159 -166T108 -207T33 -222Q-4 -222 -38 -215L-22 -137Q-6 -146 19 -146Q62 -146 94 -116T154 -28ZM369 725H481L346 581H275Z" horiz-adv-x="500" unicode="ý"/>
			<glyph d="M187 750H281L218 455H220Q244 486 286 504T382 522Q465 522 514 467T564 327Q564 230 534 153T445 32T307 -12Q177 -12 141 76H139L78 -210H-16ZM349 446Q297 446 255 411T190 319T167 199Q167 141 200 102T294 64Q346 64 385 101T444 197T464 319Q464 379 433 412T349 446Z" horiz-adv-x="611" unicode="þ"/>
			<glyph d="M72 510H170L229 103H231L453 510H554L207 -94Q181 -140 159 -166T108 -207T33 -222Q-4 -222 -38 -215L-22 -137Q-6 -146 19 -146Q62 -146 94 -116T154 -28ZM216 688H304L283 588H195ZM381 688H469L448 588H360Z" horiz-adv-x="500" unicode="ÿ"/>
			<glyph d="M422 698H521L675 0H572L535 176H192L80 0H-31ZM454 589L243 258H520ZM365 841H634L623 783H353Z" horiz-adv-x="722" unicode="Ā"/>
			<glyph d="M288 522Q381 522 435 481T489 360Q489 333 484 302T466 209Q442 98 427 0H340L357 85H355Q332 40 286 14T189 -12Q119 -12 72 25T26 129Q26 222 99 268T327 315Q333 315 396 312Q401 335 401 346Q401 392 373 419T284 446Q245 446 204 435T128 403L145 496Q175 506 216 514T288 522ZM306 245Q224 245 175 217T126 133Q126 101 150 82T210 64Q273 64 319 116T376 245ZM217 673H486L475 615H205Z" horiz-adv-x="556" unicode="ā"/>
			<glyph d="M422 698H521L675 0H572L535 176H192L80 0H-31ZM454 589L243 258H520ZM347 876H393Q393 837 417 817T485 798Q578 798 601 876H647Q636 811 593 775T481 740Q419 740 383 771T347 863Z" horiz-adv-x="722" unicode="Ă"/>
			<glyph d="M288 522Q381 522 435 481T489 360Q489 333 484 302T466 209Q442 98 427 0H340L357 85H355Q332 40 286 14T189 -12Q119 -12 72 25T26 129Q26 222 99 268T327 315Q333 315 396 312Q401 335 401 346Q401 392 373 419T284 446Q245 446 204 435T128 403L145 496Q175 506 216 514T288 522ZM306 245Q224 245 175 217T126 133Q126 101 150 82T210 64Q273 64 319 116T376 245ZM196 719H242Q242 680 266 660T336 641Q427 641 450 719H496Q485 654 442 618T330 583Q269 583 233 613T196 707Z" horiz-adv-x="556" unicode="ă"/>
			<glyph d="M422 698H521L675 0H627Q567 -45 541 -75T516 -132Q516 -154 526 -162T548 -170Q578 -170 614 -136L635 -153Q604 -184 578 -197T518 -210Q484 -210 462 -195T440 -151Q440 -116 479 -76T584 0H572L535 176H192L80 0H-31ZM454 589L243 258H520Z" horiz-adv-x="722" unicode="Ą"/>
			<glyph d="M288 522Q381 522 435 481T489 360Q489 333 484 302T466 209Q442 98 427 0H401Q341 -46 315 -75T290 -132Q290 -151 299 -160T322 -170Q352 -170 388 -136L409 -153Q378 -185 352 -197T292 -210Q258 -210 236 -196T214 -151Q214 -116 253 -76T358 0H340L357 85H355Q332 40 286 14T189 -12Q119 -12 72 25T26 129Q26 222 99 268T327 315Q333 315 396 312Q401 335 401 346Q401 392 373 419T284 446Q247 446 205 435T128 403L145 496Q175 506 216 514T288 522ZM306 245Q227 245 176 218T126 133Q126 101 150 82T210 64Q273 64 319 116T376 245Z" horiz-adv-x="556" unicode="ą"/>
			<glyph d="M493 710Q580 710 659 678L630 592Q560 622 495 622Q396 622 325 579T217 463T180 302Q180 191 246 133T418 76Q485 76 543 100L530 7Q470 -12 402 -12Q251 -12 162 70T74 307Q74 400 118 493T258 648T493 710ZM520 884H632L497 740H426Z" horiz-adv-x="611" unicode="Ć"/>
			<glyph d="M326 522Q399 522 457 502L434 421Q388 446 342 446Q284 446 239 414T171 330T147 215Q147 143 182 103T285 64Q329 64 388 87L371 0Q330 -12 273 -12Q166 -12 106 44T47 202Q47 288 79 361T175 478T326 522ZM366 725H478L343 581H272Z" horiz-adv-x="444" unicode="ć"/>
			<glyph d="M493 710Q580 710 659 678L630 592Q560 622 495 622Q396 622 325 579T217 463T180 302Q180 191 246 133T418 76Q485 76 543 100L530 7Q470 -12 402 -12Q251 -12 162 70T74 307Q74 400 118 493T258 648T493 710ZM456 884H542L617 740H543L492 838L405 740H323Z" horiz-adv-x="611" unicode="Ĉ"/>
			<glyph d="M326 522Q399 522 457 502L434 421Q388 446 342 446Q284 446 239 414T171 330T147 215Q147 143 182 103T285 64Q329 64 388 87L371 0Q330 -12 273 -12Q166 -12 106 44T47 202Q47 288 79 361T175 478T326 522ZM311 725H397L472 581H398L347 679L260 581H178Z" horiz-adv-x="444" unicode="ĉ"/>
			<glyph d="M493 710Q580 710 659 678L630 592Q560 622 495 622Q396 622 325 579T217 463T180 302Q180 191 246 133T418 76Q485 76 543 100L530 7Q470 -12 402 -12Q251 -12 162 70T74 307Q74 400 118 493T258 648T493 710ZM462 862H550L529 762H441Z" horiz-adv-x="611" unicode="Ċ"/>
			<glyph d="M326 522Q399 522 457 502L434 421Q388 446 342 446Q284 446 239 414T171 330T147 215Q147 143 182 103T285 64Q329 64 388 87L371 0Q330 -12 273 -12Q166 -12 106 44T47 202Q47 288 79 361T175 478T326 522ZM308 688H396L375 588H287Z" horiz-adv-x="444" unicode="ċ"/>
			<glyph d="M493 710Q580 710 659 678L630 592Q560 622 495 622Q396 622 325 579T217 463T180 302Q180 191 246 133T418 76Q485 76 543 100L530 7Q470 -12 402 -12Q251 -12 162 70T74 307Q74 400 118 493T258 648T493 710ZM366 884H440L491 786L578 884H660L527 740H441Z" horiz-adv-x="611" unicode="Č"/>
			<glyph d="M326 522Q399 522 457 502L434 421Q388 446 342 446Q284 446 239 414T171 330T147 215Q147 143 182 103T285 64Q329 64 388 87L371 0Q330 -12 273 -12Q166 -12 106 44T47 202Q47 288 79 361T175 478T326 522ZM217 725H291L342 627L429 725H511L378 581H292Z" horiz-adv-x="444" unicode="č"/>
			<glyph d="M190 698H347Q456 698 534 664T654 567T695 416Q695 286 641 192T488 49T251 0H42ZM273 610L162 88H268Q364 88 436 127T549 237T589 405Q589 509 528 559T329 610ZM282 884H356L407 786L494 884H576L443 740H357Z" horiz-adv-x="722" unicode="Ď"/>
			<glyph d="M544 750H638L515 182Q495 90 483 0H395Q407 61 412 78H410Q387 33 345 10T236 -12Q179 -12 136 15T70 91T47 203Q47 286 78 359T169 477T311 522Q368 522 411 497T475 426H477ZM315 446Q264 446 225 408T167 316T147 209Q147 144 178 104T271 64Q328 64 366 104T424 200T443 304Q443 365 410 405T315 446ZM714 725H806L718 532H652Z" horiz-adv-x="654" unicode="ď"/>
			<glyph d="M190 698H347Q456 698 534 664T654 567T695 416Q695 286 641 192T488 49T251 0H42L115 342H40L54 406H128ZM273 610L230 406H410L396 342H216L162 88H268Q364 88 436 127T549 237T589 405Q589 509 528 559T329 610Z" horiz-adv-x="722" unicode="Đ"/>
			<glyph d="M544 750H638L620 666H699L686 605H606L515 182Q495 90 483 0H395Q407 61 412 78H410Q387 33 345 10T236 -12Q179 -12 136 15T70 91T47 203Q47 286 78 359T169 477T311 522Q368 522 411 497T475 426H477L514 605H328L341 666H527ZM315 446Q264 446 225 409T167 316T147 209Q147 144 178 104T271 64Q328 64 366 104T424 200T443 304Q443 365 410 405T315 446Z" horiz-adv-x="611" unicode="đ"/>
			<glyph d="M195 698H574L554 610H278L233 406H492L475 318H213L162 88H455L436 0H42ZM270 841H539L528 783H258Z" horiz-adv-x="556" unicode="Ē"/>
			<glyph d="M328 522Q417 522 467 470T518 327Q518 290 509 234H150Q147 218 147 202Q147 132 185 98T304 64Q371 64 448 95L433 9Q349 -12 282 -12Q166 -12 106 46T47 217Q47 289 79 359T176 476T328 522ZM315 446Q264 446 221 407T160 304H421Q424 327 424 343Q424 388 396 417T315 446ZM212 673H481L470 615H200Z" horiz-adv-x="556" unicode="ē"/>
			<glyph d="M195 698H574L554 610H278L233 406H492L475 318H213L162 88H455L436 0H42ZM257 876H303Q303 837 327 817T395 798Q488 798 511 876H557Q546 811 503 775T391 740Q329 740 293 771T257 863Z" horiz-adv-x="556" unicode="Ĕ"/>
			<glyph d="M328 522Q417 522 467 470T518 327Q518 290 509 234H150Q147 218 147 202Q147 132 185 98T304 64Q371 64 448 95L433 9Q349 -12 282 -12Q166 -12 106 46T47 217Q47 289 79 359T176 476T328 522ZM315 446Q264 446 221 407T160 304H421Q424 327 424 343Q424 388 396 417T315 446ZM221 719H267Q267 680 291 660T361 641Q452 641 475 719H521Q510 654 467 618T355 583Q294 583 258 613T221 707Z" horiz-adv-x="556" unicode="ĕ"/>
			<glyph d="M195 698H574L554 610H278L233 406H492L475 318H213L162 88H455L436 0H42ZM371 862H459L438 762H350Z" horiz-adv-x="556" unicode="Ė"/>
			<glyph d="M328 522Q417 522 467 470T518 327Q518 290 509 234H150Q147 218 147 202Q147 132 185 98T304 64Q371 64 448 95L433 9Q349 -12 282 -12Q166 -12 106 46T47 217Q47 289 79 359T176 476T328 522ZM315 446Q264 446 221 407T160 304H421Q424 327 424 343Q424 388 396 417T315 446ZM309 688H397L376 588H288Z" horiz-adv-x="556" unicode="ė"/>
			<glyph d="M195 698H574L554 610H278L233 406H492L475 318H213L162 88H455L436 0H401Q341 -46 315 -75T290 -132Q290 -150 299 -160T322 -170Q352 -170 388 -136L409 -153Q378 -184 352 -197T292 -210Q256 -210 235 -195T214 -151Q214 -116 252 -76T358 0H42Z" horiz-adv-x="556" unicode="Ę"/>
			<glyph d="M328 522Q417 522 467 470T518 327Q518 290 509 234H150Q147 218 147 202Q147 132 185 98T304 64Q371 64 448 95L433 9Q354 -10 298 -12Q295 -15 270 -34T224 -80T203 -132Q203 -152 212 -161T235 -170Q265 -170 301 -136L322 -153Q291 -184 265 -197T205 -210Q170 -210 148 -195T127 -151Q127 -119 160 -82T251 -11Q153 -5 100 52T47 217Q47 289 79 359T176 476T328 522ZM315 446Q264 446 221 407T160 304H421Q424 327 424 343Q424 388 396 417T315 446Z" horiz-adv-x="556" unicode="ę"/>
			<glyph d="M195 698H574L554 610H278L233 406H492L475 318H213L162 88H455L436 0H42ZM272 884H346L397 786L484 884H566L433 740H347Z" horiz-adv-x="556" unicode="Ě"/>
			<glyph d="M328 522Q417 522 467 470T518 327Q518 290 509 234H150Q147 218 147 202Q147 132 185 98T304 64Q371 64 448 95L433 9Q349 -12 282 -12Q166 -12 106 46T47 217Q47 289 79 359T176 476T328 522ZM315 446Q264 446 221 407T160 304H421Q424 327 424 343Q424 388 396 417T315 446ZM220 725H294L345 627L432 725H514L381 581H295Z" horiz-adv-x="556" unicode="ě"/>
			<glyph d="M494 710Q611 710 707 670L677 584Q640 602 593 612T496 622Q394 622 322 577T215 460T180 302Q180 196 243 136T417 76Q440 76 464 78T501 85L547 300H401L421 382H664L583 9Q492 -12 403 -12Q247 -12 160 72T74 307Q74 402 119 495T260 649T494 710ZM464 884H550L625 740H551L500 838L413 740H331Z" horiz-adv-x="722" unicode="Ĝ"/>
			<glyph d="M310 522Q370 522 414 495T478 420H480L498 510H585L468 -37Q458 -83 425 -125T334 -195T194 -222Q157 -222 106 -212T23 -185L44 -101Q131 -146 207 -146Q352 -146 388 15L398 58H396Q371 26 334 13T245 0Q199 0 155 23T82 93T54 205Q54 293 86 365T176 480T310 522ZM315 446Q265 446 228 409T173 317T154 209Q154 152 184 114T268 76Q315 76 355 102T419 180T443 306Q443 366 409 406T315 446ZM341 725H427L502 581H428L377 679L290 581H208Z" horiz-adv-x="611" unicode="ĝ"/>
			<glyph d="M494 710Q611 710 707 670L677 584Q640 602 593 612T496 622Q394 622 322 577T215 460T180 302Q180 196 243 136T417 76Q440 76 464 78T501 85L547 300H401L421 382H664L583 9Q492 -12 403 -12Q247 -12 160 72T74 307Q74 402 119 495T260 649T494 710ZM360 876H406Q406 837 430 817T498 798Q591 798 614 876H660Q649 811 606 775T494 740Q432 740 396 771T360 863Z" horiz-adv-x="722" unicode="Ğ"/>
			<glyph d="M310 522Q370 522 414 495T478 420H480L498 510H585L468 -37Q458 -83 425 -125T334 -195T194 -222Q157 -222 106 -212T23 -185L44 -101Q131 -146 207 -146Q352 -146 388 15L398 58H396Q371 26 334 13T245 0Q199 0 155 23T82 93T54 205Q54 293 86 365T176 480T310 522ZM315 446Q265 446 228 409T173 317T154 209Q154 152 184 114T268 76Q315 76 355 102T419 180T443 306Q443 366 409 406T315 446ZM222 719H268Q268 680 292 660T362 641Q453 641 476 719H522Q511 654 468 618T356 583Q295 583 259 613T222 707Z" horiz-adv-x="611" unicode="ğ"/>
			<glyph d="M494 710Q611 710 707 670L677 584Q640 602 593 612T496 622Q394 622 322 577T215 460T180 302Q180 196 243 136T417 76Q440 76 464 78T501 85L547 300H401L421 382H664L583 9Q492 -12 403 -12Q247 -12 160 72T74 307Q74 402 119 495T260 649T494 710ZM470 862H558L537 762H449Z" horiz-adv-x="722" unicode="Ġ"/>
			<glyph d="M310 522Q370 522 414 495T478 420H480L498 510H585L468 -37Q458 -83 425 -125T334 -195T194 -222Q157 -222 106 -212T23 -185L44 -101Q131 -146 207 -146Q352 -146 388 15L398 58H396Q371 26 334 13T245 0Q199 0 155 23T82 93T54 205Q54 293 86 365T176 480T310 522ZM315 446Q265 446 228 409T173 317T154 209Q154 152 184 114T268 76Q315 76 355 102T419 180T443 306Q443 366 409 406T315 446ZM338 688H426L405 588H317Z" horiz-adv-x="611" unicode="ġ"/>
			<glyph d="M494 710Q611 710 707 670L677 584Q640 602 593 612T496 622Q394 622 322 577T215 460T180 302Q180 196 243 136T417 76Q440 76 464 78T501 85L547 300H401L421 382H664L583 9Q492 -12 403 -12Q247 -12 160 72T74 307Q74 402 119 495T260 649T494 710ZM307 -78H402L323 -222H248Z" horiz-adv-x="722" unicode="Ģ"/>
			<glyph d="M310 522Q370 522 414 495T478 420H480L498 510H585L468 -37Q458 -83 425 -125T334 -195T194 -222Q157 -222 106 -212T23 -185L44 -101Q131 -146 207 -146Q352 -146 388 15L398 58H396Q371 26 334 13T245 0Q199 0 155 23T82 93T54 205Q54 293 86 365T176 480T310 522ZM315 446Q265 446 228 409T173 317T154 209Q154 152 184 114T268 76Q315 76 355 102T419 180T443 306Q443 366 409 406T315 446ZM375 725H447L388 581H296Z" horiz-adv-x="611" unicode="ģ"/>
			<glyph d="M193 698H294L233 406H565L628 698H726L579 0H477L546 318H215L148 0H46ZM444 884H530L605 740H531L480 838L393 740H311Z" horiz-adv-x="722" unicode="Ĥ"/>
			<glyph d="M192 750H286L223 446H225Q250 483 293 502T386 522Q464 522 510 481T556 362Q556 329 544 269L488 0H394L454 290Q462 330 462 353Q462 394 436 420T369 446Q317 446 277 415T214 339T182 253L129 0H35ZM402 933H488L563 789H489L438 887L351 789H269Z" horiz-adv-x="611" unicode="ĥ"/>
			<glyph d="M193 698H294L265 558H597L628 698H726L696 558H765L754 497H684L579 0H477L543 303H212L148 0H46L151 497H77L89 558H164ZM252 497L229 383H560L585 497Z" horiz-adv-x="722" unicode="Ħ"/>
			<glyph d="M192 750H286L268 666H458L445 605H255L223 446H225Q250 483 293 502T386 522Q464 522 510 481T556 362Q556 329 544 269L488 0H394L454 290Q462 330 462 353Q462 394 436 420T369 446Q317 446 277 415T214 339T182 253L129 0H35L161 605H87L100 666H174Z" horiz-adv-x="611" unicode="ħ"/>
			<glyph d="M188 698H289L139 0H38ZM180 866Q197 866 215 860T263 842Q288 831 306 825T339 820Q355 820 366 831T380 866H426Q419 812 395 783T332 754Q315 754 295 760T249 778Q224 789 207 794T174 800Q139 800 132 754H86Q93 808 117 837T180 866Z" unicode="Ĩ"/>
			<glyph d="M149 510H243L135 0H41ZM139 698Q156 698 176 691T221 674Q249 662 265 657T294 652Q332 652 339 698H385Q377 643 353 614T291 586Q275 586 255 592T209 610Q182 622 166 627T137 632Q98 632 91 586H45Q53 640 77 669T139 698Z" unicode="ĩ"/>
			<glyph d="M188 698H289L139 0H38ZM128 841H397L386 783H116Z" unicode="Ī"/>
			<glyph d="M149 510H243L135 0H41ZM93 673H362L351 615H81Z" unicode="ī"/>
			<glyph d="M188 698H289L139 0Q79 -45 53 -75T28 -132Q28 -151 37 -160T60 -170Q90 -170 126 -136L147 -153Q116 -184 90 -197T30 -210Q-4 -210 -26 -196T-48 -151Q-48 -116 -9 -76T96 0H38Z" unicode="Į"/>
			<glyph d="M190 730H296L274 624H168ZM149 510H243L135 0Q73 -47 48 -76T24 -132Q24 -152 33 -161T56 -170Q86 -170 122 -136L143 -153Q111 -185 85 -197T26 -210Q-7 -210 -29 -196T-52 -151Q-52 -116 -13 -76T92 0H41Z" unicode="į"/>
			<glyph d="M188 698H289L139 0H38ZM227 862H315L294 762H206Z" unicode="İ"/>
			<glyph d="M149 510H243L135 0H41Z" unicode="ı"/>
			<glyph d="M188 698H289L139 0H38ZM553 698H652L535 168Q520 99 492 60T421 4T312 -12Q295 -12 270 -7T226 5L244 96Q276 76 320 76Q375 76 403 110T445 210Z" horiz-adv-x="643" unicode="Ĳ"/>
			<glyph d="M190 730H296L274 624H168ZM149 510H243L135 0H41ZM451 730H557L535 624H429ZM410 510H504L381 -70Q365 -147 327 -184T223 -222Q208 -222 183 -215T151 -204L168 -130Q188 -140 210 -140Q245 -140 263 -116T295 -31Z" horiz-adv-x="539" unicode="ĳ"/>
			<glyph d="M299 698H398L281 168Q266 99 238 60T167 4T58 -12Q41 -12 16 -7T-28 5L-10 96Q22 76 66 76Q121 76 149 110T191 210ZM329 884H415L490 740H416L365 838L278 740H196Z" horiz-adv-x="389" unicode="Ĵ"/>
			<glyph d="M149 510H243L120 -70Q104 -147 66 -184T-38 -222Q-53 -222 -77 -215T-110 -204L-93 -130Q-73 -140 -51 -140Q-16 -140 2 -116T34 -31ZM189 725H275L350 581H276L225 679L138 581H56Z" unicode="ĵ"/>
			<glyph d="M203 698H303L235 392L237 389L572 698H704L328 354L605 0H479L223 334L153 0H52ZM255 -78H350L271 -222H196Z" horiz-adv-x="667" unicode="Ķ"/>
			<glyph d="M194 750H288L193 310H195L432 510H570L281 284L489 0H369L184 262L129 0H35ZM203 -78H298L219 -222H144Z" horiz-adv-x="556" unicode="ķ"/>
			<glyph d="M189 698H290L158 88H448L430 0H38ZM298 884H410L275 740H204Z" horiz-adv-x="500" unicode="Ĺ"/>
			<glyph d="M200 750H294L135 0H41ZM284 924H396L261 780H190Z" unicode="ĺ"/>
			<glyph d="M189 698H290L158 88H448L430 0H38ZM180 -78H275L196 -222H121Z" horiz-adv-x="500" unicode="Ļ"/>
			<glyph d="M200 750H294L135 0H41ZM26 -78H121L42 -222H-33Z" unicode="ļ"/>
			<glyph d="M189 698H290L158 88H448L430 0H38ZM400 725H492L404 532H338Z" horiz-adv-x="500" unicode="Ľ"/>
			<glyph d="M200 750H294L135 0H41ZM370 725H462L374 532H308Z" horiz-adv-x="309" unicode="ľ"/>
			<glyph d="M189 698H290L158 88H448L430 0H38ZM332 450H420L399 350H311Z" horiz-adv-x="500" unicode="Ŀ"/>
			<glyph d="M200 750H294L135 0H41ZM309 451H397L376 351H288Z" horiz-adv-x="396" unicode="ŀ"/>
			<glyph d="M189 698H290L219 371L434 484L419 409L203 296L158 88H448L430 0H38L89 236L15 197L30 272L105 312Z" horiz-adv-x="500" unicode="Ł"/>
			<glyph d="M202 750H296L240 486L308 537L291 455L222 403L135 0H41L109 319L42 268L59 350L127 401Z" unicode="ł"/>
			<glyph d="M187 698H319L516 113H518L642 698H737L585 0H456L259 580H257L138 0H42ZM510 884H622L487 740H416Z" horiz-adv-x="722" unicode="Ń"/>
			<glyph d="M386 522Q464 522 510 481T556 362Q556 327 544 269L488 0H394L454 291Q462 331 462 353Q462 394 436 420T369 446Q299 446 249 388T182 252L129 0H35L123 427Q136 494 138 510H226L210 429H212Q240 474 285 498T386 522ZM408 725H520L385 581H314Z" horiz-adv-x="611" unicode="ń"/>
			<glyph d="M187 698H319L516 113H518L642 698H737L585 0H456L259 580H257L138 0H42ZM274 -78H369L290 -222H215Z" horiz-adv-x="722" unicode="Ņ"/>
			<glyph d="M386 522Q464 522 510 481T556 362Q556 327 544 269L488 0H394L454 291Q462 331 462 353Q462 394 436 420T369 446Q299 446 249 388T182 252L129 0H35L123 427Q136 494 138 510H226L210 429H212Q240 474 285 498T386 522ZM209 -78H304L225 -222H150Z" horiz-adv-x="611" unicode="ņ"/>
			<glyph d="M187 698H319L516 113H518L642 698H737L585 0H456L259 580H257L138 0H42ZM355 884H429L480 786L567 884H649L516 740H430Z" horiz-adv-x="722" unicode="Ň"/>
			<glyph d="M386 522Q464 522 510 481T556 362Q556 327 544 269L488 0H394L454 291Q462 331 462 353Q462 394 436 420T369 446Q299 446 249 388T182 252L129 0H35L123 427Q136 494 138 510H226L210 429H212Q240 474 285 498T386 522ZM251 725H325L376 627L463 725H545L412 581H326Z" horiz-adv-x="611" unicode="ň"/>
			<glyph d="M119 698H231L117 483H31ZM456 522Q534 522 580 481T626 362Q626 327 614 269L558 0H464L524 291Q532 331 532 353Q532 394 506 420T439 446Q368 446 318 388T252 252L199 0H105L193 427Q206 494 208 510H296L280 429H282Q310 474 355 498T456 522Z" horiz-adv-x="681" unicode="ŉ"/>
			<glyph d="M468 710Q601 710 676 635T751 426Q751 311 706 211T574 49T367 -12Q223 -12 148 63T74 284Q74 384 119 482T255 645T468 710ZM465 622Q383 622 317 574T216 449T180 281Q180 187 228 131T371 76Q451 76 513 126T610 254T645 414Q645 515 599 568T465 622ZM371 841H640L629 783H359Z" horiz-adv-x="778" unicode="Ō"/>
			<glyph d="M338 522Q442 522 503 462T564 299Q564 210 529 139T430 28T279 -12Q169 -12 108 47T47 215Q47 302 81 371T182 481T338 522ZM333 446Q276 446 234 411T169 321T147 208Q147 142 181 103T278 64Q329 64 372 98T439 186T464 299Q464 361 428 403T333 446ZM251 673H520L509 615H239Z" horiz-adv-x="611" unicode="ō"/>
			<glyph d="M468 710Q601 710 676 635T751 426Q751 311 706 211T574 49T367 -12Q223 -12 148 63T74 284Q74 384 119 482T255 645T468 710ZM465 622Q383 622 317 574T216 449T180 281Q180 187 228 131T371 76Q451 76 513 126T610 254T645 414Q645 515 599 568T465 622ZM360 876H406Q406 837 430 817T498 798Q591 798 614 876H660Q649 811 606 775T494 740Q432 740 396 771T360 863Z" horiz-adv-x="778" unicode="Ŏ"/>
			<glyph d="M338 522Q442 522 503 462T564 299Q564 210 529 139T430 28T279 -12Q169 -12 108 47T47 215Q47 302 81 371T182 481T338 522ZM333 446Q276 446 234 411T169 321T147 208Q147 142 181 103T278 64Q329 64 372 98T439 186T464 299Q464 361 428 403T333 446ZM235 719H281Q281 680 305 660T375 641Q466 641 489 719H535Q524 654 481 618T369 583Q308 583 272 613T235 707Z" horiz-adv-x="611" unicode="ŏ"/>
			<glyph d="M468 710Q601 710 676 635T751 426Q751 311 706 211T574 49T367 -12Q223 -12 148 63T74 284Q74 384 119 482T255 645T468 710ZM465 622Q383 622 317 574T216 449T180 281Q180 187 228 131T371 76Q451 76 513 126T610 254T645 414Q645 515 599 568T465 622ZM428 884H540L405 740H334ZM594 884H706L571 740H500Z" horiz-adv-x="778" unicode="Ő"/>
			<glyph d="M338 522Q442 522 503 462T564 299Q564 210 529 139T430 28T279 -12Q169 -12 108 47T47 215Q47 302 81 371T182 481T338 522ZM333 446Q276 446 234 411T169 321T147 208Q147 142 181 103T278 64Q329 64 372 98T439 186T464 299Q464 361 428 403T333 446ZM309 725H421L286 581H215ZM475 725H587L452 581H381Z" horiz-adv-x="611" unicode="ő"/>
			<glyph d="M507 704Q540 704 614 701T722 698H962L944 610H679L635 406H884L868 318H616L566 88H847L831 0H565Q540 0 473 -3T385 -6Q291 -6 220 34T112 143T74 293Q74 423 132 516T288 656T507 704ZM496 616Q408 616 335 576T221 467T180 312Q180 206 239 144T403 82Q429 82 468 88L580 610Q534 616 496 616Z" horiz-adv-x="944" unicode="Œ"/>
			<glyph d="M332 522Q403 522 450 493T513 412Q537 465 590 493T711 522Q802 522 852 470T903 327Q903 287 894 234H543Q540 219 540 200Q540 136 586 100T699 64Q762 64 833 94L820 10Q792 0 757 -6T695 -12Q611 -12 559 17T478 104Q447 51 390 19T272 -12Q162 -12 101 47T41 215Q41 303 76 372T177 482T332 522ZM327 446Q272 446 229 411T163 321T141 208Q141 142 175 103T272 64Q322 64 365 97T433 185T458 299Q458 361 422 403T327 446ZM701 446Q650 446 606 408T545 304H806Q809 327 809 343Q809 391 780 418T701 446Z" horiz-adv-x="944" unicode="œ"/>
			<glyph d="M191 698H353Q471 698 530 658T589 528Q589 482 567 441T506 373T419 339Q448 321 464 278T494 176L501 147L539 0H433L399 148Q382 221 372 252T346 296T301 310H207L142 0H42ZM272 610L227 398H300Q380 398 431 426T483 515Q483 565 455 587T369 610ZM407 884H519L384 740H313Z" horiz-adv-x="611" unicode="Ŕ"/>
			<glyph d="M385 522Q407 522 429 513L408 430Q385 440 367 440Q316 440 277 409T214 335T182 251L129 0H35L123 428Q136 490 138 510H226L210 429H212Q240 474 285 498T385 522ZM337 725H449L314 581H243Z" horiz-adv-x="389" unicode="ŕ"/>
			<glyph d="M191 698H353Q471 698 530 658T589 528Q589 482 567 441T506 373T419 339Q448 321 464 278T494 176L501 147L539 0H433L399 148Q382 221 372 252T346 296T301 310H207L142 0H42ZM272 610L227 398H300Q380 398 431 426T483 515Q483 565 455 587T369 610ZM225 -78H320L241 -222H166Z" horiz-adv-x="611" unicode="Ŗ"/>
			<glyph d="M385 522Q407 522 429 513L408 430Q385 440 367 440Q316 440 277 409T214 335T182 251L129 0H35L123 428Q136 490 138 510H226L210 429H212Q240 474 285 498T385 522ZM20 -78H115L36 -222H-39Z" horiz-adv-x="389" unicode="ŗ"/>
			<glyph d="M191 698H353Q471 698 530 658T589 528Q589 482 567 441T506 373T419 339Q448 321 464 278T494 176L501 147L539 0H433L399 148Q382 221 372 252T346 296T301 310H207L142 0H42ZM272 610L227 398H300Q380 398 431 426T483 515Q483 565 455 587T369 610ZM261 884H335L386 786L473 884H555L422 740H336Z" horiz-adv-x="611" unicode="Ř"/>
			<glyph d="M385 522Q407 522 429 513L408 430Q385 440 367 440Q316 440 277 409T214 335T182 251L129 0H35L123 428Q136 490 138 510H226L210 429H212Q240 474 285 498T385 522ZM179 725H253L304 627L391 725H473L340 581H254Z" horiz-adv-x="389" unicode="ř"/>
			<glyph d="M340 710Q428 710 508 677L480 588Q423 622 354 622Q292 622 253 594T215 514Q215 481 237 456T312 401Q386 357 419 315T453 212Q453 158 427 106T347 21T211 -12Q166 -12 119 -3T17 28L49 120Q81 100 120 88T196 76Q244 76 278 93T330 139T347 200Q347 231 332 254T297 292T241 328Q197 354 170 376T126 432T109 511Q109 573 142 618T228 686T340 710ZM383 884H495L360 740H289Z" horiz-adv-x="500" unicode="Ś"/>
			<glyph d="M256 522Q321 522 389 494L361 420Q307 446 259 446Q217 446 190 431T164 384Q164 365 174 350T196 326T242 294Q288 264 313 233T338 151Q338 94 308 57T234 4T144 -12Q100 -12 67 -7T-4 12L14 93Q48 79 75 71T131 64Q176 64 207 84T238 143Q238 169 218 189T152 241Q106 272 85 302T64 372Q64 422 92 456T165 506T256 522ZM301 725H413L278 581H207Z" horiz-adv-x="389" unicode="ś"/>
			<glyph d="M340 710Q428 710 508 677L480 588Q423 622 354 622Q292 622 253 594T215 514Q215 481 237 456T312 401Q386 357 419 315T453 212Q453 158 427 106T347 21T211 -12Q166 -12 119 -3T17 28L49 120Q81 100 120 88T196 76Q244 76 278 93T330 139T347 200Q347 231 332 254T297 292T241 328Q197 354 170 376T126 432T109 511Q109 573 142 618T228 686T340 710ZM321 884H407L482 740H408L357 838L270 740H188Z" horiz-adv-x="500" unicode="Ŝ"/>
			<glyph d="M256 522Q321 522 389 494L361 420Q307 446 259 446Q217 446 190 431T164 384Q164 365 174 350T196 326T242 294Q288 264 313 233T338 151Q338 94 308 57T234 4T144 -12Q100 -12 67 -7T-4 12L14 93Q48 79 75 71T131 64Q176 64 207 84T238 143Q238 169 218 189T152 241Q106 272 85 302T64 372Q64 422 92 456T165 506T256 522ZM261 725H347L422 581H348L297 679L210 581H128Z" horiz-adv-x="389" unicode="ŝ"/>
			<glyph d="M340 710Q428 710 508 677L480 588Q423 622 354 622Q292 622 253 594T215 514Q215 481 237 456T312 401Q386 357 419 315T453 212Q453 156 426 104T345 20T213 -12H197L154 -59L156 -61Q170 -57 186 -57Q222 -57 248 -75T275 -130Q275 -172 238 -191T153 -210Q101 -210 57 -188L73 -152Q89 -160 109 -165T147 -170Q199 -170 199 -132Q199 -117 186 -107T153 -97Q132 -97 111 -107L94 -83L157 -9Q95 -3 17 28L49 119Q81 99 120 87T196 76Q244 76 278 93T330 139T347 200Q347 231 332 254T297 292T241 328Q197 354 170 376T126 432T109 511Q109 572 142 617T229 686T340 710Z" horiz-adv-x="500" unicode="Ş"/>
			<glyph d="M256 522Q321 522 389 494L361 420Q306 446 259 446Q217 446 190 431T164 384Q164 365 174 350T196 326T242 294Q289 264 313 231T338 151Q338 80 287 35T148 -12L105 -59L107 -61Q122 -57 137 -57Q172 -57 199 -75T226 -130Q226 -172 190 -191T104 -210Q52 -210 8 -188L24 -152Q40 -160 60 -165T98 -170Q150 -170 150 -132Q150 -117 137 -107T104 -97Q83 -97 62 -107L45 -83L107 -11Q72 -9 48 -3T-4 12L14 93Q48 79 75 71T131 64Q176 64 207 84T238 143Q238 171 218 190T152 241Q106 272 85 302T64 372Q64 422 92 456T165 506T256 522Z" horiz-adv-x="389" unicode="ş"/>
			<glyph d="M340 710Q428 710 508 677L480 588Q423 622 354 622Q292 622 253 594T215 514Q215 481 237 456T312 401Q386 357 419 315T453 212Q453 158 427 106T347 21T211 -12Q166 -12 119 -3T17 28L49 120Q81 100 120 88T196 76Q244 76 278 93T330 139T347 200Q347 231 332 254T297 292T241 328Q197 354 170 376T126 432T109 511Q109 573 142 618T228 686T340 710ZM202 884H276L327 786L414 884H496L363 740H277Z" horiz-adv-x="500" unicode="Š"/>
			<glyph d="M256 522Q321 522 389 494L361 420Q307 446 259 446Q217 446 190 431T164 384Q164 365 174 350T196 326T242 294Q288 264 313 233T338 151Q338 94 308 57T234 4T144 -12Q100 -12 67 -7T-4 12L14 93Q48 79 75 71T131 64Q176 64 207 84T238 143Q238 169 218 189T152 241Q106 272 85 302T64 372Q64 422 92 456T165 506T256 522ZM153 725H227L278 627L365 725H447L314 581H228Z" horiz-adv-x="389" unicode="š"/>
			<glyph d="M111 698H646L627 610H410L279 0H178L309 610H92ZM169 -78H264L185 -222H110Z" horiz-adv-x="556" unicode="Ţ"/>
			<glyph d="M314 663L282 510H422L407 434H266L227 252Q204 147 204 119Q204 91 220 77T272 64Q287 64 306 67T338 77L324 -1Q310 -6 283 -9T232 -12Q171 -12 140 21T110 101Q110 137 128 221L172 434H60L74 510H188L213 628ZM128 -78H223L144 -222H69Z" horiz-adv-x="389" unicode="ţ"/>
			<glyph d="M111 698H646L627 610H410L279 0H178L309 610H92ZM259 884H333L384 786L471 884H553L420 740H334Z" horiz-adv-x="556" unicode="Ť"/>
			<glyph d="M414 725H506L424 552H358ZM314 663L282 510H422L407 434H266L227 252Q204 147 204 119Q204 91 220 77T272 64Q287 64 306 67T338 77L324 -1Q310 -6 283 -9T232 -12Q171 -12 140 21T110 101Q110 137 128 221L172 434H60L74 510H188L213 628Z" horiz-adv-x="395" unicode="ť"/>
			<glyph d="M111 698H646L627 610H410L377 460H551L537 392H363L279 0H178L262 392H93L107 460H276L309 610H92Z" horiz-adv-x="556" unicode="Ŧ"/>
			<glyph d="M314 663L282 510H422L407 434H266L245 336H368L353 273H230Q204 147 204 119Q204 91 220 77T272 64Q287 64 306 67T338 77L324 -1Q310 -6 283 -9T232 -12Q171 -12 140 21T110 101Q110 116 116 153T130 234L137 273H39L54 336H151L172 434H60L74 510H188L213 628Z" horiz-adv-x="389" unicode="ŧ"/>
			<glyph d="M192 698H292L202 277Q194 240 194 215Q194 150 235 113T346 76Q432 76 480 139T556 330L636 698H736L646 288Q612 135 538 61T340 -12Q252 -12 197 22T118 104T94 200Q94 223 99 257T118 355ZM405 867Q422 867 440 861T488 843Q513 832 531 826T564 821Q580 821 591 832T605 867H651Q644 813 620 784T557 755Q540 755 520 761T474 779Q449 790 432 795T399 801Q364 801 357 755H311Q318 809 342 838T405 867Z" horiz-adv-x="722" unicode="Ũ"/>
			<glyph d="M131 510H225L163 210Q157 178 157 157Q157 116 182 90T250 64Q303 64 342 95T405 171T436 253L490 510H584L496 83Q495 76 489 45T481 0H393L409 81H407Q378 36 334 12T233 -12Q155 -12 109 29T63 148Q63 166 65 185T76 246ZM295 698Q312 698 332 691T377 674Q405 662 421 657T450 652Q488 652 495 698H541Q533 643 509 614T447 586Q431 586 411 592T365 610Q338 622 322 627T293 632Q254 632 247 586H201Q209 640 233 669T295 698Z" horiz-adv-x="611" unicode="ũ"/>
			<glyph d="M192 698H292L202 277Q194 240 194 215Q194 150 235 113T346 76Q432 76 480 139T556 330L636 698H736L646 288Q612 135 538 61T340 -12Q252 -12 197 22T118 104T94 200Q94 223 99 257T118 355ZM351 841H620L609 783H339Z" horiz-adv-x="722" unicode="Ū"/>
			<glyph d="M131 510H225L163 210Q157 178 157 157Q157 116 182 90T250 64Q303 64 342 95T405 171T436 253L490 510H584L496 83Q495 76 489 45T481 0H393L409 81H407Q378 36 334 12T233 -12Q155 -12 109 29T63 148Q63 166 65 185T76 246ZM254 673H523L512 615H242Z" horiz-adv-x="611" unicode="ū"/>
			<glyph d="M192 698H292L202 277Q194 240 194 215Q194 150 235 113T346 76Q432 76 480 139T556 330L636 698H736L646 288Q612 135 538 61T340 -12Q252 -12 197 22T118 104T94 200Q94 223 99 257T118 355ZM329 877H375Q375 838 399 818T467 799Q560 799 583 877H629Q618 812 575 776T463 741Q401 741 365 772T329 864Z" horiz-adv-x="722" unicode="Ŭ"/>
			<glyph d="M131 510H225L163 210Q157 178 157 157Q157 116 182 90T250 64Q303 64 342 95T405 171T436 253L490 510H584L496 83Q495 76 489 45T481 0H393L409 81H407Q378 36 334 12T233 -12Q155 -12 109 29T63 148Q63 166 65 185T76 246ZM235 719H281Q281 680 305 660T375 641Q466 641 489 719H535Q524 654 481 618T369 583Q308 583 272 613T235 707Z" horiz-adv-x="611" unicode="ŭ"/>
			<glyph d="M192 698H292L202 277Q194 240 194 215Q194 150 235 113T346 76Q432 76 480 139T556 330L636 698H736L646 288Q612 135 538 61T340 -12Q252 -12 197 22T118 104T94 200Q94 223 99 257T118 355ZM475 933Q517 933 546 903T576 831Q576 789 546 759T475 729Q433 729 404 759T375 831Q375 874 404 903T475 933ZM474 893Q451 893 433 875T415 831Q415 806 432 787T475 769Q499 769 517 788T536 831Q536 855 517 874T474 893Z" horiz-adv-x="722" unicode="Ů"/>
			<glyph d="M131 510H225L163 210Q157 178 157 157Q157 116 182 90T250 64Q303 64 342 95T405 171T436 253L490 510H584L496 83Q495 76 489 45T481 0H393L409 81H407Q378 36 334 12T233 -12Q155 -12 109 29T63 148Q63 166 65 185T76 246ZM378 767Q419 767 449 737T479 665Q479 623 449 593T378 563Q335 563 306 593T278 665Q278 707 307 737T378 767ZM378 727Q354 727 336 709T318 665Q318 640 335 621T378 603Q402 603 420 622T439 665Q439 690 420 708T378 727Z" horiz-adv-x="611" unicode="ů"/>
			<glyph d="M192 698H292L202 277Q194 240 194 215Q194 150 235 113T346 76Q432 76 480 139T556 330L636 698H736L646 288Q612 135 538 61T340 -12Q252 -12 197 22T118 104T94 200Q94 223 99 257T118 355ZM423 884H535L400 740H329ZM589 884H701L566 740H495Z" horiz-adv-x="722" unicode="Ű"/>
			<glyph d="M131 510H225L163 210Q157 178 157 157Q157 116 182 90T250 64Q303 64 342 95T405 171T436 253L490 510H584L496 83Q495 76 489 45T481 0H393L409 81H407Q378 36 334 12T233 -12Q155 -12 109 29T63 148Q63 166 65 185T76 246ZM332 725H444L309 581H238ZM498 725H610L475 581H404Z" horiz-adv-x="611" unicode="ű"/>
			<glyph d="M192 698H292L202 277Q194 240 194 215Q194 150 235 113T346 76Q434 76 481 141T556 330L636 698H736L646 288Q615 147 548 71T355 -12Q310 -48 285 -75T260 -132Q260 -153 270 -161T292 -170Q322 -170 358 -136L379 -153Q348 -184 322 -197T262 -210Q228 -210 206 -195T184 -151Q184 -116 221 -78T308 -11Q244 -7 195 23T120 101T94 200Q94 223 99 257T118 355Z" horiz-adv-x="722" unicode="Ų"/>
			<glyph d="M131 510H225L163 210Q157 178 157 157Q157 116 182 90T250 64Q303 64 342 95T405 170T436 253L490 510H584L496 83Q495 76 489 45T481 0H457Q397 -45 371 -75T346 -132Q346 -152 355 -161T378 -170Q408 -170 444 -136L465 -153Q434 -184 409 -197T348 -210Q315 -210 292 -196T270 -151Q270 -115 310 -75T414 0H393L409 81H407Q379 36 334 12T233 -12Q155 -12 109 29T63 148Q63 185 76 246Z" horiz-adv-x="611" unicode="ų"/>
			<glyph d="M112 698H212L250 101H252L530 698H662L680 100H682L984 698H1091L726 0H596L581 604H579L301 0H169ZM575 884H661L736 740H662L611 838L524 740H442Z" horiz-adv-x="1000" unicode="Ŵ"/>
			<glyph d="M69 510H163L198 100H200L418 510H532L567 100H569L781 510H885L606 0H498L458 410H456L236 0H125ZM472 725H558L633 581H559L508 679L421 581H339Z" horiz-adv-x="833" unicode="ŵ"/>
			<glyph d="M106 698H216L355 382L630 698H757L391 292L331 0H233L293 292ZM408 884H494L569 740H495L444 838L357 740H275Z" horiz-adv-x="667" unicode="Ŷ"/>
			<glyph d="M72 510H170L229 103H231L453 510H554L207 -94Q181 -140 159 -166T108 -207T33 -222Q-4 -222 -38 -215L-22 -137Q-6 -146 19 -146Q62 -146 94 -116T154 -28ZM296 725H382L457 581H383L332 679L245 581H163Z" horiz-adv-x="500" unicode="ŷ"/>
			<glyph d="M106 698H216L355 382L630 698H757L391 292L331 0H233L293 292ZM335 850H423L402 750H314ZM500 850H588L567 750H479Z" horiz-adv-x="667" unicode="Ÿ"/>
			<glyph d="M138 698H603L587 609L127 88H488L471 0H-13L3 88L463 610H120ZM402 884H514L379 740H308Z" horiz-adv-x="556" unicode="Ź"/>
			<glyph d="M105 510H509L490 428L124 76H426L409 0H-6L10 82L373 434H90ZM357 725H469L334 581H263Z" horiz-adv-x="500" unicode="ź"/>
			<glyph d="M138 698H603L587 609L127 88H488L471 0H-13L3 88L463 610H120ZM354 862H442L421 762H333Z" horiz-adv-x="556" unicode="Ż"/>
			<glyph d="M105 510H509L490 428L124 76H426L409 0H-6L10 82L373 434H90ZM297 688H385L364 588H276Z" horiz-adv-x="500" unicode="ż"/>
			<glyph d="M138 698H603L587 609L127 88H488L471 0H-13L3 88L463 610H120ZM232 884H306L357 786L444 884H526L393 740H307Z" horiz-adv-x="556" unicode="Ž"/>
			<glyph d="M105 510H509L490 428L124 76H426L409 0H-6L10 82L373 434H90ZM208 725H282L333 627L420 725H502L369 581H283Z" horiz-adv-x="500" unicode="ž"/>
			<glyph d="M452 710Q504 710 542 695L522 606Q495 628 463 628Q433 628 414 605T387 537L361 414H477L465 344H349L283 -4Q268 -85 249 -130T195 -198T95 -222Q49 -222 16 -207L32 -120Q63 -140 94 -140Q118 -140 131 -133T152 -109T168 -57L249 344H137L149 414H261L278 491Q301 597 340 653T452 710Z" horiz-adv-x="556" unicode="ƒ"/>
			<glyph d="M340 710Q428 710 508 677L480 588Q423 622 354 622Q292 622 253 594T215 514Q215 481 237 456T312 401Q386 357 419 315T453 212Q453 158 427 106T347 21T211 -12Q166 -12 119 -3T17 28L49 120Q81 100 120 88T196 76Q244 76 278 93T330 139T347 200Q347 231 332 254T297 292T241 328Q197 354 170 376T126 432T109 511Q109 573 142 618T228 686T340 710ZM147 -78H242L163 -222H88Z" horiz-adv-x="500" unicode="Ș"/>
			<glyph d="M256 522Q321 522 389 494L361 420Q307 446 259 446Q217 446 190 431T164 384Q164 365 174 350T196 326T242 294Q288 264 313 233T338 151Q338 94 308 57T234 4T144 -12Q100 -12 67 -7T-4 12L14 93Q48 79 75 71T131 64Q176 64 207 84T238 143Q238 169 218 189T152 241Q106 272 85 302T64 372Q64 422 92 456T165 506T256 522ZM90 -78H185L106 -222H31Z" horiz-adv-x="389" unicode="ș"/>
			<glyph d="M111 698H646L627 610H410L279 0H178L309 610H92ZM169 -78H264L185 -222H110Z" horiz-adv-x="556" unicode="Ț"/>
			<glyph d="M314 663L282 510H422L407 434H266L227 252Q204 147 204 119Q204 91 220 77T272 64Q287 64 306 67T338 77L324 -1Q310 -6 283 -9T232 -12Q171 -12 140 21T110 101Q110 137 128 221L172 434H60L74 510H188L213 628ZM128 -78H223L144 -222H69Z" horiz-adv-x="389" unicode="ț"/>
			<glyph d="M149 510H243L120 -70Q104 -147 66 -184T-38 -222Q-53 -222 -77 -215T-110 -204L-93 -130Q-73 -140 -51 -140Q-16 -140 2 -116T34 -31Z" unicode="ȷ"/>
			<glyph d="M191 725H277L352 581H278L227 679L140 581H58Z" unicode="ˆ"/>
			<glyph d="M97 725H171L222 627L309 725H391L258 581H172Z" unicode="ˇ"/>
			<glyph d="M93 673H362L351 615H81Z" unicode="ˉ"/>
			<glyph d="M82 719H128Q128 680 152 660T222 641Q313 641 336 719H382Q371 654 328 618T216 583Q155 583 119 613T82 707Z" unicode="˘"/>
			<glyph d="M188 688H276L255 588H167Z" unicode="˙"/>
			<glyph d="M221 767Q262 767 292 737T322 665Q322 623 292 593T221 563Q178 563 149 593T121 665Q121 707 150 737T221 767ZM221 727Q197 727 179 709T161 665Q161 640 178 621T221 603Q245 603 263 622T282 665Q282 690 263 708T221 727Z" unicode="˚"/>
			<glyph d="M132 0H175Q116 -41 90 -70T64 -128Q64 -148 74 -159T102 -170Q116 -170 135 -159T162 -136L183 -153Q152 -185 126 -197T61 -210Q-12 -210 -12 -155Q-12 -71 132 0Z" unicode="˛"/>
			<glyph d="M145 698Q162 698 182 691T227 674Q255 662 271 657T300 652Q338 652 345 698H391Q383 643 359 614T297 586Q281 586 261 592T215 610Q188 622 172 627T143 632Q104 632 97 586H51Q59 640 83 669T145 698Z" unicode="˜"/>
			<glyph d="M175 725H287L152 581H81ZM341 725H453L318 581H247Z" unicode="˝"/>
			<glyph d="M404 698H503L647 0H-39ZM436 589L126 88H528Z" horiz-adv-x="708" unicode="Δ"/>
			<glyph d="M464 710Q547 710 609 677T704 584T737 446Q737 381 710 312T636 184T532 88H671L652 0H390L412 88Q472 120 521 176T598 300T627 431Q627 524 582 573T451 622Q376 622 314 580T218 469T183 317Q183 247 207 186T278 88L263 0H9L27 88H171Q127 133 102 192T78 312Q78 423 132 514T275 657T464 710Z" horiz-adv-x="760" unicode="Ω"/>
			<glyph d="M141 510H235L173 210Q167 182 167 157Q167 116 192 90T260 64Q314 64 354 96T416 172T445 249L500 510H594L502 63Q494 26 491 0H403L419 81H417Q359 -12 238 -12Q198 -12 174 -6T132 11L87 -210H-7Z" horiz-adv-x="611" unicode="μ"/>
			<glyph d="M66 510H633L617 434H527L462 131Q458 116 458 105Q458 85 465 74T492 63Q504 63 515 66T542 76L529 1Q485 -12 457 -12Q408 -12 384 8T360 70Q360 97 369 136L433 434H234L142 0H48L140 434H50Z" horiz-adv-x="611" unicode="π"/>
			<glyph d="M438 710Q479 710 535 706T633 697L616 614Q580 612 541 596T475 555T449 497Q449 450 505 382Q537 343 553 320T583 268T597 207Q597 102 532 45T355 -12Q316 -12 275 -4T204 19L236 111Q262 95 296 85T358 76Q420 76 455 103T491 186Q491 220 473 248T418 322Q379 367 361 398T343 464Q343 579 488 623Q444 627 430 627Q347 627 295 588T226 470L127 0H29L131 482Q156 604 232 657T438 710Z" horiz-adv-x="634" unicode="ẞ"/>
			<glyph d="M51 307H314L299 231H35Z" horiz-adv-x="333" unicode="‐"/>
			<glyph d="M14 304H514L499 234H-1Z" horiz-adv-x="500" unicode="–"/>
			<glyph d="M14 304H1014L999 234H-1Z" horiz-adv-x="1000" unicode="—"/>
			<glyph d="M228 698H324L209 453H90Z" unicode="‘"/>
			<glyph d="M205 698H324L186 453H90Z" unicode="’"/>
			<glyph d="M59 112H178L40 -133H-56Z" unicode="‚"/>
			<glyph d="M269 698H365L250 453H131ZM465 698H561L446 453H327Z" horiz-adv-x="556" unicode="“"/>
			<glyph d="M246 698H365L227 453H131ZM442 698H561L423 453H327Z" horiz-adv-x="556" unicode="”"/>
			<glyph d="M120 112H239L101 -133H5ZM316 112H435L297 -133H201Z" horiz-adv-x="556" unicode="„"/>
			<glyph d="M332 698H420L382 523H556L541 453H367L270 0H182L279 453H105L120 523H294Z" horiz-adv-x="556" unicode="†"/>
			<glyph d="M332 698H420L385 536H559L544 466H370L320 232H493L478 162H305L270 0H182L217 162H43L58 232H232L282 466H109L124 536H297Z" horiz-adv-x="556" unicode="‡"/>
			<glyph d="M270 523Q317 523 357 499T421 436T445 349Q445 301 421 261T356 197T270 174Q223 174 183 197T119 261T96 349Q96 396 119 436T183 499T270 523Z" horiz-adv-x="500" unicode="•"/>
			<glyph d="M94 112H206L183 0H71ZM427 112H539L516 0H404ZM760 112H872L849 0H737Z" horiz-adv-x="1000" unicode="…"/>
			<glyph d="M572 720H642L132 -22H62ZM239 710Q300 710 331 676T363 576Q363 495 320 439T197 384Q139 384 104 419T69 514Q69 567 89 612T148 683T239 710ZM228 646Q186 646 168 603T151 512Q151 480 163 464T205 448Q243 448 262 489T281 580Q281 646 228 646ZM508 314Q569 314 600 280T632 180Q632 99 589 43T466 -12Q408 -12 373 23T338 118Q338 171 358 216T417 287T508 314ZM845 314Q906 314 937 280T969 180Q969 99 926 43T803 -12Q745 -12 710 23T675 118Q675 171 695 216T754 287T845 314ZM497 250Q455 250 437 207T420 116Q420 84 432 68T474 52Q512 52 531 93T550 184Q550 250 497 250ZM834 250Q792 250 774 207T757 116Q757 84 769 68T811 52Q849 52 868 93T887 184Q887 250 834 250Z" horiz-adv-x="1000" unicode="‰"/>
			<glyph d="M214 471H318L130 269L276 67H179L31 269Z" horiz-adv-x="333" unicode="‹"/>
			<glyph d="M73 471H170L318 269L135 67H31L219 269Z" horiz-adv-x="333" unicode="›"/>
			<glyph d="M266 720H336L-99 -22H-169Z" horiz-adv-x="167" unicode="⁄"/>
			<glyph d="M520 710Q605 710 667 684L630 601Q608 613 574 620T511 628Q429 628 359 580T246 445H564L540 391H223Q210 351 205 307H504L481 253H206Q211 167 260 119T392 72Q465 72 522 97L510 10Q451 -12 366 -12Q238 -12 166 59T95 253H0L24 307H99Q105 352 117 391H29L53 445H136Q189 567 293 638T520 710Z" horiz-adv-x="556" unicode="€"/>
			<glyph d="M154 698H626L614 640H457Q489 604 490 550H595L582 492H486Q457 320 223 320H172L396 0H282L72 313L89 394H198Q280 394 325 415T384 492H109L122 550H390Q387 599 356 619T269 640H142Z" horiz-adv-x="555" unicode="₹"/>
			<glyph d="M210 698H309L279 559L478 632L464 566L265 493L246 401L445 474L431 408L232 335L177 75Q193 73 207 73Q278 73 323 112T394 212T439 362H539Q499 180 417 86T186 -7Q146 -7 62 0L124 296L28 261L42 327L138 362L158 454L62 419L76 485L172 520Z" horiz-adv-x="556" unicode="₺"/>
			<glyph d="M454 698H554L527 573Q637 559 688 463T740 230Q740 188 735 137T722 48L712 0H610L619 43Q628 85 634 138T641 233Q641 340 613 408T510 491L420 70H320L411 491Q336 481 275 409T173 238T113 48L103 0H1L14 64Q39 185 94 298T235 488T427 573Z" horiz-adv-x="792" unicode="₼"/>
			<glyph d="M225 698H379Q481 698 542 655T604 519Q604 405 525 347T318 289H235L220 221H396L379 143H203L172 0H73L104 143H20L37 221H121L136 289H51L68 367H153ZM305 616L252 367H306Q402 367 453 402T504 510Q504 565 468 590T370 616Z" horiz-adv-x="556" unicode="₽"/>
			<glyph d="M366 721Q410 721 438 692T466 617Q466 540 402 451T221 273L203 193Q187 119 187 100Q187 73 201 59T239 45Q261 45 284 54T340 87L361 40Q325 14 290 0T218 -14Q166 -14 137 12T108 86Q108 100 116 142L132 220L63 161L39 208L147 291L202 549Q220 636 263 678T366 721ZM357 667Q304 667 283 566L236 346Q312 417 355 487T399 612Q399 635 388 651T357 667Z" horiz-adv-x="500" unicode="ℓ"/>
			<glyph d="M89 698H421V628H293V282H217V628H89ZM519 698H637L746 417L853 698H971V282H895V600H893L776 282H714L597 600H595V282H519Z" horiz-adv-x="990" unicode="™"/>
			<glyph d="M464 710Q547 710 609 677T704 584T737 446Q737 381 710 312T636 184T532 88H671L652 0H390L412 88Q472 120 521 176T598 300T627 431Q627 524 582 573T451 622Q376 622 314 580T218 469T183 317Q183 247 207 186T278 88L263 0H9L27 88H171Q127 133 102 192T78 312Q78 423 132 514T275 657T464 710Z" horiz-adv-x="760" unicode="Ω"/>
			<glyph d="M302 535Q376 535 435 500T527 403T561 259H157V78Q216 19 302 19Q366 19 412 48T495 139L530 118Q485 45 431 14T302 -17Q226 -17 167 19T76 118T44 259Q44 338 76 401T167 499T302 535ZM300 500Q217 500 157 440V295H448V440Q385 500 300 500Z" horiz-adv-x="600" unicode="℮"/>
			<glyph d="M357 782Q447 782 499 716T552 534Q552 434 510 305T384 84T183 -8Q111 -8 70 37T29 160Q29 238 66 312T166 433T304 480Q353 480 390 455T444 389H445Q451 408 458 446T465 519Q465 605 429 656T331 708Q261 708 190 660L175 726Q258 782 357 782ZM303 408Q257 408 214 373T144 283T118 174Q118 125 142 95T207 66Q268 66 326 133T418 306Q411 350 380 379T303 408Z" horiz-adv-x="553" unicode="∂"/>
			<glyph d="M404 698H503L647 0H-39ZM436 589L126 88H528Z" horiz-adv-x="708" unicode="∆"/>
			<glyph d="M68 786H650V-214H572V714H146V-214H68Z" horiz-adv-x="719" unicode="∏"/>
			<glyph d="M39 786H577V714H140L441 290L122 -142H589V-214H25V-150L347 290L39 722Z" horiz-adv-x="615" unicode="∑"/>
			<glyph d="M62 297H568V209H62Z" horiz-adv-x="600" unicode="−"/>
			<glyph d="M266 720H336L-99 -22H-169Z" horiz-adv-x="167" unicode="∕"/>
			<glyph d="M155 362Q179 362 196 345T214 303Q214 278 197 261T155 244Q130 244 113 261T96 303Q96 327 113 344T155 362Z" unicode="∙"/>
			<glyph d="M409 786H485L274 -214H199L37 120L-10 98L-38 158L74 210L225 -107Z" horiz-adv-x="504" unicode="√"/>
			<glyph d="M538 410Q603 410 644 366T686 255Q686 185 645 141T539 98Q494 98 447 124T349 207L301 164Q265 132 231 115T158 99Q92 99 51 142T10 252Q10 320 50 364T155 408Q201 408 246 381T349 294Q412 360 453 385T538 410ZM538 342Q513 342 489 329T448 302T391 251Q440 204 473 185T541 166Q577 166 599 189T621 252Q621 292 598 317T538 342ZM154 341Q119 341 97 315T75 252Q75 212 97 189T158 166Q220 166 305 251Q254 299 219 320T154 341Z" horiz-adv-x="759" unicode="∞"/>
			<glyph d="M339 786Q370 786 395 772T420 730Q420 712 408 702T378 692Q365 692 356 699T340 719Q329 735 323 735Q291 735 291 637L293 555V-5Q293 -213 170 -213Q137 -213 117 -198T98 -161Q98 -146 109 -135T135 -125Q147 -125 154 -132T171 -152Q172 -154 177 -160T187 -167Q215 -167 215 -49V599Q215 690 244 738T339 786Z" horiz-adv-x="554" unicode="∫"/>
			<glyph d="M483 415H533Q525 346 491 307T403 269Q372 269 336 279T250 308Q207 324 179 332T132 340Q102 340 82 317T57 263H5Q13 333 47 372T134 411Q162 411 194 402T278 374Q327 356 355 348T408 340Q437 340 456 359T483 415ZM483 235H533Q525 166 491 127T403 89Q374 89 337 99T249 128Q207 144 178 152T132 160Q102 160 82 137T57 83H5Q13 153 47 192T134 231Q162 231 194 222T277 194Q324 177 353 168T408 160Q437 160 456 179T483 235Z" horiz-adv-x="593" unicode="≈"/>
			<glyph d="M375 532L438 500L376 384H522V313H339L272 186H522V114H235L159 -32L97 0L156 114H15V186H193L260 313H15V384H298Z" horiz-adv-x="593" unicode="≠"/>
			<glyph d="M522 528V450L114 304L522 159V82L15 266V341ZM15 42H522V-30H15Z" horiz-adv-x="593" unicode="≤"/>
			<glyph d="M15 528L522 341V266L15 82V159L423 304L15 450ZM15 42H522V-30H15Z" horiz-adv-x="593" unicode="≥"/>
			<glyph d="M260 747H332L504 356L332 -35H260L89 356ZM296 671L165 356L296 41L428 356Z" horiz-adv-x="593" unicode="◊"/>
			<glyph d="M134 884H235L302 740H235Z" unicode=""/>
			<glyph d="M282 884H394L259 740H188Z" unicode=""/>
			<glyph d="M219 884H305L380 740H306L255 838L168 740H86Z" unicode=""/>
			<glyph d="M129 884H203L254 786L341 884H423L290 740H204Z" unicode=""/>
			<glyph d="M180 866Q197 866 215 860T263 842Q288 831 306 825T339 820Q355 820 366 831T380 866H426Q419 812 395 783T332 754Q315 754 295 760T249 778Q224 789 207 794T174 800Q139 800 132 754H86Q93 808 117 837T180 866Z" unicode=""/>
			<glyph d="M136 862H224L203 762H115ZM301 862H389L368 762H280Z" unicode=""/>
			<glyph d="M128 841H397L386 783H116Z" unicode=""/>
			<glyph d="M115 876H161Q161 837 185 817T253 798Q346 798 369 876H415Q404 811 361 775T249 740Q187 740 151 771T115 863Z" unicode=""/>
			<glyph d="M256 933Q298 933 327 903T357 831Q357 789 327 759T256 729Q214 729 185 759T156 831Q156 874 185 903T256 933ZM255 893Q232 893 214 875T196 831Q196 806 213 787T256 769Q280 769 298 788T317 831Q317 855 298 874T255 893Z" unicode=""/>
			<glyph d="M207 884H319L184 740H113ZM373 884H485L350 740H279Z" unicode=""/>
			<glyph d="M225 862H313L292 762H204Z" unicode=""/>
			<glyph d="M132 725H224L136 532H70Z" unicode=""/>
			<glyph d="M34 -78H129L50 -222H-25Z" unicode=""/>
			<glyph d="M218 725H290L231 581H139Z" unicode=""/>
			<glyph d="M0 718H512V0H0ZM50 667V50H462V667ZM259 609Q313 609 348 573T383 478Q383 442 369 416T319 357Q289 329 281 314T272 270L271 234H225Q225 236 224 244T223 264Q223 301 233 325T276 385L292 402Q313 422 322 437T332 474Q332 510 309 534T256 559Q222 559 201 535T174 464L124 472Q130 538 165 573T259 609ZM222 184H278V117H222Z" horiz-adv-x="512" unicode=""/>
			<glyph d="M413 762Q447 762 485 751L466 676Q458 680 444 683T420 686Q368 685 342 652T303 557L293 510H428L413 434H276L182 0H88L182 434H60L74 510H198L214 577Q235 665 282 713T413 762ZM578 730H684L662 624H556ZM537 510H631L523 0H429Z" horiz-adv-x="667" unicode="ﬁ"/>
			<glyph d="M413 762Q447 762 485 751L466 676Q458 680 444 683T420 686Q368 685 342 652T303 557L293 510H428L413 434H276L182 0H88L182 434H60L74 510H198L214 577Q235 665 282 713T413 762ZM589 750H683L524 0H430Z" horiz-adv-x="667" unicode="ﬂ"/>
		</font>
</defs>
</svg>
