<?xml version="1.0" encoding="UTF-8"?>
<svg height="100%" width="100%" xmlns="http://www.w3.org/2000/svg">
	<defs>
		<font horiz-adv-x="463" id="web">
			<font-face alphabetic="0" ascent="961" descent="-250" font-family="" panose-1="2 11 4 6 2 2 4 9 2 4"/>
			<missing-glyph d="M0 718H512V0H0ZM50 667V50H462V667ZM259 609Q313 609 348 573T383 478Q383 441 368 415T318 357Q293 334 284 321T273 293T271 234H225L223 253Q223 306 235 333T287 396Q310 416 321 434T332 474Q332 509 309 534T256 559Q222 559 201 535T174 464L124 472Q130 539 165 574T259 609ZM222 184H278V117H222Z" horiz-adv-x="512"/>
			<glyph d="" horiz-adv-x="240" unicode=" "/>
			<glyph d="M213 698H287L165 172H111ZM84 90H158L139 0H65Z" horiz-adv-x="352" unicode="!"/>
			<glyph d="M225 750H283L236 528H178ZM367 750H425L378 528H320Z" horiz-adv-x="480" unicode="&quot;"/>
			<glyph d="M200 698H250L204 476H329L375 698H425L379 476H460V426H369L336 272H427V222H326L280 0H230L276 222H151L105 0H55L101 222H20V272H111L144 426H57V476H154ZM194 426L161 272H286L319 426Z" horiz-adv-x="480" unicode="#"/>
			<glyph d="M315 835H371L342 704Q382 701 439 683L421 613Q394 631 369 639T313 647Q251 647 216 613T181 519Q181 486 198 459T254 399Q316 345 343 303T371 210Q371 121 323 63T192 -5L164 -140H108L135 -6Q63 -3 18 26L37 98Q86 51 160 51Q227 51 266 92T305 202Q305 240 283 273T210 348Q115 423 115 510Q115 593 160 644T286 703Z" horiz-adv-x="480" unicode="$"/>
			<glyph d="M596 731H650L217 -33H163ZM275 705Q322 705 351 671T380 583Q380 522 358 463T297 365T208 327Q158 327 129 359T100 449Q100 509 120 568T181 666T275 705ZM269 653Q234 653 208 622T168 543T155 448Q155 415 171 397T210 379Q248 379 274 411T312 490T325 578Q325 614 310 633T269 653ZM609 371Q656 371 685 337T714 249Q714 188 692 129T631 31T542 -7Q492 -7 463 25T434 115Q434 175 454 234T515 332T609 371ZM603 319Q569 319 542 287T502 208T489 114Q489 81 505 63T544 45Q582 45 608 77T646 156T659 244Q659 280 644 299T603 319Z" horiz-adv-x="815" unicode="%"/>
			<glyph d="M328 705Q364 705 394 686T441 638T458 580Q458 520 418 472T282 375L382 176Q408 209 435 273T477 394H535Q512 310 479 239T411 124L481 0H406L367 84Q320 36 277 14T183 -7Q107 -7 61 37T16 149Q16 236 61 296T205 398Q184 432 172 469T160 538Q160 614 205 659T328 705ZM322 647Q278 647 250 615T222 536Q222 511 231 484T258 421Q330 457 361 494T393 577Q393 607 373 627T322 647ZM228 352Q150 314 115 267T80 162Q80 112 108 81T188 51Q226 51 266 71T341 130Z" horiz-adv-x="574" unicode="&amp;"/>
			<glyph d="M176 750H234L187 528H129Z" horiz-adv-x="240" unicode="'"/>
			<glyph d="M266 756L316 750Q244 641 195 553T115 365T83 161Q83 91 94 22T128 -134L81 -140Q22 17 22 166Q22 304 82 450T266 756Z" horiz-adv-x="259" unicode="("/>
			<glyph d="M160 756Q219 604 219 450Q219 312 159 166T-25 -140L-75 -134Q-2 -24 46 62T126 249T158 455Q158 520 147 589T113 750Z" horiz-adv-x="259" unicode=")"/>
			<glyph d="M277 750H339L317 622L436 675L449 617L328 578L390 466L335 437L287 548L213 438L164 467L252 578L137 617L164 675L271 622Z" horiz-adv-x="480" unicode="*"/>
			<glyph d="M261 506H311V278H539V228H311V0H261V228H33V278H261Z" horiz-adv-x="600" unicode="+"/>
			<glyph d="M31 90H102L11 -132H-44Z" horiz-adv-x="240" unicode=","/>
			<glyph d="M37 308H241L229 250H25Z" horiz-adv-x="296" unicode="-"/>
			<glyph d="M27 98H105L85 0H7Z" horiz-adv-x="240" unicode="."/>
			<glyph d="M271 705H323L-13 -7H-65Z" horiz-adv-x="259" unicode="/"/>
			<glyph d="M318 705Q387 705 425 653T464 511Q464 419 441 319T376 141Q339 72 290 32T185 -7Q116 -7 77 44T39 187Q39 275 63 382T133 569Q210 705 318 705ZM315 647Q254 647 203 569Q170 520 147 448T112 305T100 188Q100 125 123 88T187 51Q255 51 307 139Q337 190 359 260T392 398T403 510Q403 573 379 610T315 647Z" horiz-adv-x="513" unicode="0"/>
			<glyph d="M246 698H310L162 0H100L230 620L125 524L91 568Z" horiz-adv-x="316" unicode="1"/>
			<glyph d="M272 705Q341 705 383 664T425 561Q425 500 393 439T322 334T225 230L55 58H331L319 0H-25L-17 61L72 150Q103 181 156 236T233 318Q295 388 327 443T359 559Q359 601 335 624T266 647Q205 647 128 592L132 661Q168 685 200 695T272 705Z" horiz-adv-x="446" unicode="2"/>
			<glyph d="M262 705Q340 705 384 665T428 556Q428 487 386 436T267 363V361Q311 348 337 312T364 227Q364 155 331 102T240 21T103 -7Q61 -7 23 1T-32 21L-15 89Q4 75 41 63T108 51Q193 51 245 97T298 222Q298 272 261 302T166 333H112L122 391Q242 392 302 433T363 553Q363 595 334 621T258 647Q223 647 187 636T123 606L130 672Q192 705 262 705Z" horiz-adv-x="455" unicode="3"/>
			<glyph d="M364 698H446L345 225H424L412 167H333L298 0H236L271 167H-4L6 230ZM368 632L62 225H283L370 632Z" horiz-adv-x="493" unicode="4"/>
			<glyph d="M162 698H459L447 640H208L161 423Q185 433 223 433Q306 433 354 386T402 263Q402 183 370 122T280 27T142 -7Q69 -7 11 20L28 87Q52 72 85 61T145 51Q201 51 244 77T311 152T335 262Q335 316 303 345T214 375Q160 375 93 350H88Z" horiz-adv-x="475" unicode="5"/>
			<glyph d="M357 705Q387 705 421 700T481 686L461 616Q418 647 359 647Q273 647 207 567T108 344H110Q141 391 182 416T269 442Q337 442 377 397T417 280Q417 207 386 140T301 33T182 -7Q108 -7 67 40T26 169Q26 271 63 397T175 614T357 705ZM255 384Q208 384 170 352T111 269T90 166Q90 114 116 82T184 51Q231 51 269 83T329 166T351 273Q351 328 326 356T255 384Z" horiz-adv-x="480" unicode="6"/>
			<glyph d="M118 698H466L455 637L103 0H31L392 640H106Z" horiz-adv-x="441" unicode="7"/>
			<glyph d="M306 705Q354 705 390 686T447 634T467 563Q467 437 306 362Q357 334 383 296T410 212Q410 150 380 100T297 21T181 -7Q100 -7 53 37T7 156Q7 231 54 287T186 370Q102 423 102 513Q102 566 129 610T203 679T306 705ZM302 647Q266 647 235 629T185 580T167 512Q167 473 189 441T260 390Q329 422 364 465T399 557Q399 596 372 621T302 647ZM238 340Q163 318 119 268T75 158Q75 112 106 81T186 51Q256 51 299 94T342 207Q342 288 238 340Z" horiz-adv-x="497" unicode="8"/>
			<glyph d="M301 705Q376 705 416 657T457 525Q457 473 445 409T413 281Q368 144 294 68T123 -7Q94 -7 61 -2T2 12L22 82Q64 51 124 51Q210 51 276 130T375 354H373Q340 306 299 281T214 256Q145 256 105 300T66 420Q66 493 97 559T182 665T301 705ZM299 647Q254 647 215 615T154 532T132 425Q132 371 156 342T227 314Q276 314 313 346T372 430T393 532Q393 586 366 616T299 647Z" horiz-adv-x="490" unicode="9"/>
			<glyph d="M115 510H193L172 412H94ZM27 98H105L85 0H7Z" horiz-adv-x="240" unicode=":"/>
			<glyph d="M115 510H193L172 412H94ZM31 90H102L11 -132H-44Z" horiz-adv-x="240" unicode=";"/>
			<glyph d="M533 513V459L89 253L533 47V-7L27 226V280Z" horiz-adv-x="600" unicode="&lt;"/>
			<glyph d="M27 375H533V325H27ZM27 181H533V131H27Z" horiz-adv-x="600" unicode="="/>
			<glyph d="M47 513L553 280V226L47 -7V47L491 253L47 459Z" horiz-adv-x="600" unicode="&gt;"/>
			<glyph d="M266 705Q335 705 376 666T418 563Q418 512 396 470T325 378Q282 333 258 305T217 244T194 171H136L141 201Q153 254 176 289T251 379L274 404Q319 453 334 485T350 559Q350 599 327 623T263 647Q235 647 209 640T148 614L155 682Q182 694 207 699T266 705ZM111 90H185L166 0H92Z" horiz-adv-x="444" unicode="?"/>
			<glyph d="M437 705Q530 705 604 672T720 579T762 441Q762 383 729 314T642 197T525 149Q489 149 467 164T445 207V212Q406 176 378 162T316 149Q261 149 229 180T198 268Q198 331 231 399T323 512T449 557Q488 557 516 535T551 479H554L583 541H633L526 305Q497 242 494 234T492 221Q492 195 532 195Q578 195 619 235T686 334T712 441Q712 508 676 557T578 633T437 659Q348 659 268 611T140 483T92 311Q92 230 126 168T221 73T363 39Q464 39 537 70T665 167H719Q657 79 570 36T360 -7Q269 -7 196 33T83 145T42 309Q42 411 95 502T240 649T437 705ZM447 511Q399 511 352 473T277 378T248 269Q248 234 266 214T319 195Q366 195 412 235T487 333T517 439Q517 469 496 490T447 511Z" horiz-adv-x="800" unicode="@"/>
			<glyph d="M316 698H382L469 0H407L385 192H107L6 0H-61ZM337 632L138 250H379L339 632Z" horiz-adv-x="556" unicode="A"/>
			<glyph d="M154 698H286Q363 698 410 656T457 548Q457 479 421 430T316 362L315 360Q360 346 386 311T412 228Q412 157 381 105T296 27T173 0H6ZM204 640L151 391H239Q308 391 350 432T392 543Q392 590 362 615T285 640ZM138 333L80 58H175Q253 58 299 102T346 225Q346 274 314 303T233 333Z" horiz-adv-x="500" unicode="B"/>
			<glyph d="M411 705Q446 705 481 698T535 682L518 612Q499 628 469 637T406 646Q319 646 251 589T145 442T108 248Q108 154 156 102T284 51Q348 51 411 82L400 15Q372 4 346 -1T284 -7Q170 -7 105 60T41 248Q41 359 85 464T214 637T411 705Z" horiz-adv-x="532" unicode="C"/>
			<glyph d="M154 698H265Q389 698 458 633T527 448Q527 310 480 208T350 53T163 0H6ZM204 640L80 58H161Q248 58 315 103T421 236T460 447Q460 640 255 640Z" horiz-adv-x="564" unicode="D"/>
			<glyph d="M154 698H450L438 640H204L151 392H374L361 334H138L80 58H325L313 0H6Z" horiz-adv-x="444" unicode="E"/>
			<glyph d="M154 698H439L427 640H204L151 392H363L350 334H138L68 0H6Z" horiz-adv-x="407" unicode="F"/>
			<glyph d="M415 705Q454 705 495 695T568 671L551 603Q530 621 490 634T413 647Q323 647 253 589T145 441T107 260Q107 159 155 105T296 51Q359 51 396 72L448 317H324L336 375H522L449 31Q410 11 372 2T293 -7Q174 -7 107 64T41 259Q41 372 89 475T224 641T415 705Z" horiz-adv-x="593" unicode="G"/>
			<glyph d="M154 698H216L151 392H423L488 698H550L402 0H340L410 334H138L68 0H6Z" horiz-adv-x="556" unicode="H"/>
			<glyph d="M154 698H216L68 0H6Z" horiz-adv-x="222" unicode="I"/>
			<glyph d="M228 698H290L178 171Q157 75 115 34T2 -7Q-27 -7 -53 0L-40 65Q-21 55 3 55Q39 55 60 67T96 109T121 192Z" horiz-adv-x="296" unicode="J"/>
			<glyph d="M154 698H216L151 392H153L462 698H543L195 361L424 0H347L142 342H140L68 0H6Z" horiz-adv-x="500" unicode="K"/>
			<glyph d="M154 698H216L80 58H307L295 0H6Z" horiz-adv-x="389" unicode="L"/>
			<glyph d="M154 698H248L313 92H315L636 698H734L586 0H528L664 640H662L320 0H272L202 640H200L64 0H6Z" horiz-adv-x="740" unicode="M"/>
			<glyph d="M154 698H232L395 78H397L529 698H587L439 0H360L196 616H194L64 0H6Z" horiz-adv-x="593" unicode="N"/>
			<glyph d="M365 705Q456 705 506 646T557 485Q557 366 517 252T403 65T229 -7Q139 -7 88 51T37 211Q37 335 77 449T193 634T365 705ZM362 647Q285 647 225 581T134 414T103 213Q103 137 137 94T231 51Q310 51 369 116T460 282T491 485Q491 561 457 604T362 647Z" horiz-adv-x="594" unicode="O"/>
			<glyph d="M154 698H273Q361 698 411 654T462 533Q462 463 431 411T346 331T220 304H132L68 0H6ZM204 640L144 362H215Q303 362 349 404T396 530Q396 583 362 611T271 640Z" unicode="P"/>
			<glyph d="M367 705Q457 705 507 646T557 485Q557 383 527 284T445 113T324 13L423 -128H348L264 -5Q248 -7 233 -7Q138 -7 87 51T37 225Q37 313 71 425T181 621T367 705ZM362 647Q279 647 219 576T131 404T103 213Q103 138 137 94T231 51Q318 51 376 122T463 294T491 485Q491 561 457 604T362 647Z" horiz-adv-x="594" unicode="Q"/>
			<glyph d="M154 698H284Q362 698 410 658T458 551Q458 473 415 419T291 350V348Q312 339 324 324T342 279L393 0H328L286 245Q279 286 263 305T218 325H137L68 0H6ZM204 640L149 383H237Q280 383 315 404T371 462T392 547Q392 593 361 616T278 640Z" horiz-adv-x="500" unicode="R"/>
			<glyph d="M289 705Q322 705 349 699T411 683L393 613Q366 631 341 639T285 647Q223 647 188 613T153 519Q153 486 170 459T226 399Q288 345 315 303T343 210Q343 112 285 52T130 -7Q42 -7 -10 26L9 98Q58 51 132 51Q199 51 238 92T277 202Q277 240 255 273T182 348Q87 423 87 510Q87 600 140 652T289 705Z" horiz-adv-x="426" unicode="S"/>
			<glyph d="M94 698H480L468 640H306L170 0H108L244 640H82Z" horiz-adv-x="426" unicode="T"/>
			<glyph d="M154 698H216L119 243Q113 216 113 177Q113 117 144 84T233 51Q293 51 328 79T382 154T415 272L506 698H568L475 259Q446 123 388 58T231 -7Q144 -7 97 39T51 173Q51 215 57 244Z" horiz-adv-x="574" unicode="U"/>
			<glyph d="M84 698H147L197 86H199L506 698H571L212 0H152Z" horiz-adv-x="519" unicode="V"/>
			<glyph d="M80 698H144L146 74H148L416 698H501L509 74H511L770 698H834L533 0H454L443 627H441L170 0H94Z" horiz-adv-x="778" unicode="W"/>
			<glyph d="M110 698H177L278 418L497 698H569L303 368L437 0H370L260 319L19 0H-61L235 372Z" horiz-adv-x="519" unicode="X"/>
			<glyph d="M111 698H174L249 361L456 698H525L269 302L205 0H143L207 302Z" horiz-adv-x="500" unicode="Y"/>
			<glyph d="M118 698H471L460 638L42 58H344L332 0H-38L-27 62L390 640H106Z" horiz-adv-x="444" unicode="Z"/>
			<glyph d="M164 756H289L279 710H208L38 -94H113L104 -140H-26Z" horiz-adv-x="259" unicode="["/>
			<glyph d="M48 705H98L211 -7H161Z" horiz-adv-x="259" unicode="\"/>
			<glyph d="M137 756H267L77 -140H-48L-38 -94H33L203 710H128Z" horiz-adv-x="259" unicode="]"/>
			<glyph d="M349 698H399L534 245H479L364 636L83 245H22Z" horiz-adv-x="600" unicode="^"/>
			<glyph d="M0 -75H500V-125H0Z" horiz-adv-x="500" unicode="_"/>
			<glyph d="M70 728H137L192 586H145Z" horiz-adv-x="186" unicode="`"/>
			<glyph d="M244 517Q308 517 344 482T381 392Q381 366 375 337L330 123Q319 73 310 0H258L269 72H267Q210 -7 128 -7Q65 -7 29 27T-7 124Q-7 214 63 260T261 307H315Q325 351 325 382Q325 463 242 463Q176 463 100 412V474Q140 497 173 507T244 517ZM290 257Q196 257 144 241T73 196T54 125Q54 89 75 68T135 47Q170 47 202 66T258 116T288 183L304 257Z" horiz-adv-x="444" unicode="a"/>
			<glyph d="M149 750H207L142 444H144Q172 481 201 499T271 517Q338 517 376 472T414 348Q414 266 386 183T306 47T186 -7Q91 -7 57 75H55L40 0H-14Q-6 30 5 77ZM262 463Q208 463 167 419T106 305T85 158Q85 104 111 75T184 47Q238 47 276 93T333 209T352 345Q352 463 262 463Z" unicode="b"/>
			<glyph d="M273 517Q335 517 376 499L359 433Q345 445 322 452T273 459Q213 459 168 420T99 320T75 190Q75 123 108 87T194 51Q249 51 292 78L283 12Q236 -7 191 -7Q111 -7 61 45T12 188Q12 264 42 340T133 467T273 517Z" horiz-adv-x="370" unicode="c"/>
			<glyph d="M426 750H484L361 173Q336 55 329 0H275L289 70H287Q258 32 226 12T153 -7Q87 -7 49 38T11 165Q11 235 36 317T114 458T238 517Q283 517 313 498T359 444H361ZM240 463Q188 463 150 417T92 302T73 162Q73 106 96 76T161 47Q217 47 258 92T319 208T340 352Q340 406 314 434T240 463Z" unicode="d"/>
			<glyph d="M241 517Q306 517 342 477T378 367Q378 306 361 236H77Q71 198 71 175Q71 110 99 78T180 47Q213 47 249 58T309 89L298 22Q243 -7 175 -7Q96 -7 53 40T10 174Q10 248 38 328T120 463T241 517ZM237 463Q189 463 149 416T88 290H311Q318 332 318 367Q318 414 296 438T237 463Z" horiz-adv-x="426" unicode="e"/>
			<glyph d="M295 762Q322 762 349 757L337 699Q316 708 290 708Q247 708 226 673Q212 651 193 545L186 510H276L264 456H174L78 0H20L116 456H37L49 510H128L152 629Q178 762 295 762Z" horiz-adv-x="259" unicode="f"/>
			<glyph d="M239 517Q284 517 317 495T365 435H367L383 510H437Q419 446 397 340L324 -4Q307 -84 280 -131T212 -200T109 -222Q62 -222 31 -216T-45 -194L-27 -129Q36 -168 111 -168Q163 -168 195 -144T247 -70T281 70H279Q254 32 223 12T153 -7Q87 -7 49 38T11 165Q11 225 27 288T75 405Q139 517 239 517ZM240 463Q189 463 150 418T92 303T73 162Q73 106 95 76T160 47Q216 47 257 91T319 204T340 350Q340 403 313 433T240 463Z" unicode="g"/>
			<glyph d="M153 750H211L145 440H147Q176 483 207 500T282 517Q337 517 368 486T400 403Q400 380 392 337L321 0H263L301 178Q322 273 332 324T342 394Q342 427 322 445T266 463Q216 463 174 422T118 312L52 0H-6Z" unicode="h"/>
			<glyph d="M141 713H211L192 623H122ZM107 510H165L57 0H-1Z" horiz-adv-x="204" unicode="i"/>
			<glyph d="M141 713H211L192 623H122ZM107 510H165L36 -99Q23 -161 -7 -191T-89 -222Q-112 -222 -128 -216L-116 -158Q-108 -164 -87 -164Q-58 -164 -44 -149T-22 -97Z" horiz-adv-x="204" unicode="j"/>
			<glyph d="M155 750H213L118 305L351 510H428L164 280L345 0H273L111 260H109L54 0H-4Z" horiz-adv-x="426" unicode="k"/>
			<glyph d="M158 750H216L57 0H-1Z" horiz-adv-x="204" unicode="l"/>
			<glyph d="M268 517Q308 517 336 496T374 434Q431 517 510 517Q563 517 593 486T623 403Q623 380 615 337L544 0H486L559 344Q566 380 565 394Q565 425 547 444T497 463Q450 463 415 427T369 335L298 0H240L314 353Q319 380 319 396Q319 429 302 446T256 463Q209 463 171 422T118 313L52 0H-6L68 353Q81 417 98 510H152Q151 494 140 435H142Q194 517 268 517Z" horiz-adv-x="686" unicode="m"/>
			<glyph d="M282 517Q337 517 368 486T400 403Q400 380 392 337L321 0H263L330 316Q342 369 342 394Q342 427 322 445T266 463Q217 463 175 423T118 312L52 0H-6L68 353Q76 391 98 510H152Q150 493 143 452L140 435H142Q167 475 201 496T282 517Z" unicode="n"/>
			<glyph d="M258 517Q332 517 372 470T412 338Q412 263 384 182T299 47T165 -7Q91 -7 51 39T12 169Q12 255 42 335T129 466T258 517ZM255 463Q200 463 159 419T96 307T74 169Q74 47 171 47Q223 47 264 89T327 200T350 341Q350 401 325 432T255 463Z" horiz-adv-x="464" unicode="o"/>
			<glyph d="M270 517Q337 517 375 472T414 351Q414 274 387 190T309 50T186 -7Q140 -7 108 12T64 69H62L2 -216H-56L64 352Q76 404 94 510H148L132 435H134Q175 483 203 500T270 517ZM262 463Q208 463 167 419T106 305T85 156Q85 101 111 74T186 47Q238 47 275 92T332 208T352 351Q352 405 329 434T262 463Z" unicode="p"/>
			<glyph d="M238 517Q284 517 317 495T365 435H367L383 510H437Q417 434 413 414L279 -216H221L281 70H279Q254 32 223 12T153 -7Q87 -7 49 38T11 165Q11 235 36 317T114 458T238 517ZM240 463Q188 463 150 418T92 303T73 162Q73 106 95 76T160 47Q216 47 257 91T319 205T340 350Q340 403 314 433T240 463Z" unicode="q"/>
			<glyph d="M289 517H292L280 455Q213 455 174 424T122 330L52 0H-6L68 351Q79 404 98 510H152L139 429H141Q166 465 184 483T227 509T289 517Z" horiz-adv-x="278" unicode="r"/>
			<glyph d="M214 517Q246 517 276 512T316 502L295 442Q272 453 253 458T212 463Q167 463 140 437T113 372Q113 346 128 326T175 285Q228 250 248 220T269 149Q269 77 222 35T97 -7Q59 -7 31 -1T-32 17L-10 82Q5 68 37 57T101 47Q147 47 177 73T207 141Q207 171 190 193T135 239Q93 265 72 295T51 366Q51 435 95 476T214 517Z" horiz-adv-x="352" unicode="s"/>
			<glyph d="M211 630L186 510H290L278 456H174L106 133Q100 104 100 83Q100 69 110 58T144 47Q162 47 172 49T194 58L182 0Q161 -7 128 -7Q87 -7 63 16T39 77Q39 91 43 113L116 456H40L52 510H128L150 612Z" horiz-adv-x="278" unicode="t"/>
			<glyph d="M103 510H161L88 167Q82 135 82 117Q82 84 101 65T157 47Q208 47 248 87T300 181L370 510H428L354 158L324 0H270Q271 21 282 75H280Q255 32 222 12T142 -7Q85 -7 54 22T24 107Q24 133 32 173Z" unicode="u"/>
			<glyph d="M39 510H99L133 66H135L346 510H407L156 0H85Z" horiz-adv-x="390" unicode="v"/>
			<glyph d="M39 510H99L118 62H120L310 510H385L408 62H410L605 510H665L430 0H357L336 444H334L143 0H73Z" horiz-adv-x="648" unicode="w"/>
			<glyph d="M56 510H120L185 320L327 510H398L208 267L304 0H240L166 222L9 0H-62L141 277Z" horiz-adv-x="389" unicode="x"/>
			<glyph d="M37 510H97L126 86H128L327 510H387L101 -86Q63 -164 34 -193T-36 -222Q-64 -222 -84 -216L-70 -157Q-64 -162 -52 -165T-31 -168Q4 -168 29 -117L79 -13Z" horiz-adv-x="370" unicode="y"/>
			<glyph d="M70 510H367L356 452L32 54H275L264 0H-45L-34 58L289 456H58Z" horiz-adv-x="370" unicode="z"/>
			<glyph d="M293 756H322L312 710H289Q251 710 234 692T209 639L165 432Q153 376 131 346T75 307V305Q96 298 107 282T119 241Q119 214 113 188L67 -32Q65 -42 65 -54Q65 -76 77 -85T115 -94H150L140 -140H91Q10 -140 10 -63Q10 -40 15 -19L52 150Q64 206 64 236Q64 263 54 274T20 285L30 331Q64 331 82 358T117 459L153 627Q165 681 183 709T227 746T293 756Z" horiz-adv-x="259" unicode="{"/>
			<glyph d="M86 750H136V-250H86Z" horiz-adv-x="222" unicode="|"/>
			<glyph d="M101 756H150Q231 756 231 679Q231 656 226 635L189 466Q177 410 177 380Q177 353 187 342T221 331L211 285Q177 285 158 258T124 157L88 -11Q76 -65 58 -93T14 -130T-52 -140H-81L-71 -94H-48Q-10 -94 7 -76T32 -23L76 184Q88 240 110 270T166 309V311Q145 318 133 334T122 375Q122 402 128 428L174 648Q176 658 176 670Q176 692 164 701T126 710H91Z" horiz-adv-x="259" unicode="}"/>
			<glyph d="M488 316L516 280Q475 232 444 213T378 194Q354 194 328 203T269 233Q241 249 221 255T179 262Q149 262 126 247T71 190L43 226Q71 268 106 290T181 312Q234 312 290 278Q345 244 384 244Q409 244 429 259T488 316Z" horiz-adv-x="600" unicode="~"/>
			<glyph d="" horiz-adv-x="240" unicode=" "/>
			<glyph d="M172 510H246L227 420H153ZM148 338H202L100 -188H26Z" horiz-adv-x="352" unicode="¡"/>
			<glyph d="M317 629H359L335 516Q373 515 410 499L393 433Q368 457 323 458L236 51Q264 52 285 58T326 78L317 13Q270 -7 224 -7L198 -128H156L183 -3Q118 12 82 62T46 188Q46 267 77 341T166 464T293 517ZM281 457Q232 449 192 409T131 311T109 190Q109 137 132 101T196 55Z" horiz-adv-x="480" unicode="¢"/>
			<glyph d="M389 705Q457 705 505 679L481 616Q466 630 441 638T389 647Q329 647 285 606T226 491L206 399H366L355 345H195L134 58H369L357 0H-11L1 58H72L133 345H62L73 399H144Q160 481 178 543Q198 613 256 659T389 705Z" horiz-adv-x="480" unicode="£"/>
			<glyph d="M57 565L105 517Q135 541 169 553T240 565Q276 565 311 552T375 517L423 565L456 532L409 483Q432 455 444 420T456 349Q456 272 409 215L456 166L423 133L375 181Q346 157 311 145T240 133Q204 133 169 145T105 181L57 133L24 166L71 215Q24 272 24 349Q24 385 36 419T71 483L24 532ZM239 515Q195 515 157 492T96 431T74 349Q74 305 96 266T157 205T240 183Q285 183 323 205T383 266T406 349Q406 393 384 431T323 492T239 515Z" horiz-adv-x="480" unicode="¤"/>
			<glyph d="M107 698H170L240 359L453 698H521L278 329H395L387 287H258L238 196H367L358 154H229L197 0H135L167 154H38L47 196H176L196 287H67L75 329H192Z" horiz-adv-x="480" unicode="¥"/>
			<glyph d="M86 675H136V325H86ZM86 175H136V-175H86Z" horiz-adv-x="222" unicode="¦"/>
			<glyph d="M331 705Q362 705 398 697T456 678L432 616Q387 638 371 642T332 647Q281 647 249 620T217 550Q217 524 234 503T301 446Q349 410 370 378T392 310Q392 219 280 141Q326 95 326 39Q326 -38 274 -84T135 -130Q59 -130 -15 -94L10 -28Q38 -49 71 -60T137 -72Q192 -72 227 -41T263 38Q263 64 245 88T183 141Q80 207 80 281Q80 332 107 371T200 450Q178 468 165 494T152 548Q152 594 175 630T240 685T331 705ZM231 426Q185 392 163 360T142 292Q142 253 166 226T247 164Q287 199 308 234T330 298Q330 332 306 362T231 426Z" horiz-adv-x="480" unicode="§"/>
			<glyph d="M61 712H119L98 614H40ZM211 712H269L248 614H190Z" horiz-adv-x="186" unicode="¨"/>
			<glyph d="M400 705Q496 705 577 656T707 525T756 349Q756 254 708 172T578 41T400 -7Q304 -7 222 41T92 171T44 349Q44 444 93 526T223 656T400 705ZM399 659Q318 659 248 617T136 504T94 349Q94 265 135 194T246 81T400 39Q482 39 552 81T664 194T706 349Q706 431 664 502T552 616T399 659ZM404 568Q476 568 523 529T581 424H531Q521 469 487 495T404 522Q333 522 291 474T249 350Q249 302 268 262T323 199T404 176Q454 176 487 202T531 278H581Q564 208 516 169T404 130Q345 130 298 158T225 236T199 349Q199 413 224 463T296 540T404 568Z" horiz-adv-x="800" unicode="©"/>
			<glyph d="M212 705Q256 705 282 683T308 628Q308 613 304 595L273 447Q270 429 267 396H226L232 440H230Q189 392 136 392Q98 392 73 414T49 472Q49 526 93 553T233 580H260Q266 604 266 621Q266 643 253 655T209 667Q183 667 161 659T116 637L120 680Q165 705 212 705ZM253 546L195 544Q149 543 122 525T96 476Q96 455 109 442T146 430Q232 430 250 533Z" horiz-adv-x="289" unicode="ª"/>
			<glyph d="M220 466H276L129 262L196 54H144L68 264ZM359 466H415L268 262L335 54H283L207 264Z" horiz-adv-x="480" unicode="«"/>
			<glyph d="M47 375H553V108H503V325H47Z" horiz-adv-x="600" unicode="¬"/>
			<glyph d="M37 308H241L229 250H25Z" horiz-adv-x="296" unicode="­"/>
			<glyph d="M400 705Q496 705 577 656T707 525T756 349Q756 254 708 172T578 41T400 -7Q304 -7 222 41T92 171T44 349Q44 444 93 526T223 656T400 705ZM399 659Q318 659 248 617T136 504T94 349Q94 265 135 194T246 81T400 39Q482 39 552 81T664 194T706 349Q706 431 664 502T552 616T399 659ZM261 553H422Q485 553 517 524T550 440Q550 393 523 363T449 326L568 145H514L394 326H307V145H261ZM307 511V368H412Q504 368 504 440Q504 475 480 493T412 511Z" horiz-adv-x="800" unicode="®"/>
			<glyph d="M39 680H277L267 634H29Z" horiz-adv-x="186" unicode="¯"/>
			<glyph d="M265 705Q324 705 358 672T392 582Q392 537 369 498T307 437T224 415Q167 415 132 448T97 538Q97 582 120 620T183 682T265 705ZM263 660Q215 660 180 624T145 539Q145 506 169 483T226 460Q257 460 284 476T328 521T344 581Q344 615 321 637T263 660Z" horiz-adv-x="400" unicode="°"/>
			<glyph d="M255 506H305V324H533V274H305V92H255V274H27V324H255ZM27 50H533V0H27Z" horiz-adv-x="600" unicode="±"/>
			<glyph d="M245 851Q293 851 322 825T351 757Q351 710 316 658T197 532L128 470H296L288 428H62L66 465Q216 600 259 652T302 749Q302 778 286 793T242 809Q219 809 194 799T151 775V823Q195 851 245 851Z" horiz-adv-x="312" unicode="²"/>
			<glyph d="M237 851Q289 851 320 823T352 755Q352 676 251 649L250 647Q280 639 298 616T317 563Q317 499 272 461T153 424Q96 424 65 441L71 488Q108 466 152 466Q206 466 236 490T266 561Q266 589 243 607T183 625H149L157 667Q228 667 264 688T301 751Q301 776 283 792T233 809Q188 809 147 791V835Q193 851 237 851Z" horiz-adv-x="312" unicode="³"/>
			<glyph d="M192 728H265L148 586H95Z" horiz-adv-x="186" unicode="´"/>
			<glyph d="M110 508H167L124 257Q112 189 112 151Q112 47 186 47Q225 47 253 76T307 163Q316 186 322 213T342 326L373 508H432L369 138Q365 112 365 85Q365 65 371 57T391 49Q398 49 410 53L401 0Q386 -6 362 -6Q335 -6 322 11T310 65Q310 81 313 102H311Q282 48 249 21T176 -6Q104 -6 90 62H87Q85 23 74 -47L47 -210H-12Q16 -38 38 91T75 306Z" horiz-adv-x="479" unicode="µ"/>
			<glyph d="M299 698H504L329 -123H279L444 652H344L179 -123H129L225 326Q150 329 105 372T60 482Q60 547 90 596T175 671T299 698Z" horiz-adv-x="480" unicode="¶"/>
			<glyph d="M119 363Q140 363 153 350T167 317Q167 292 148 272T103 253Q82 253 68 265T55 299Q55 325 74 344T119 363Z" horiz-adv-x="240" unicode="·"/>
			<glyph d="M11 0H47L-4 -55L-3 -57Q6 -53 23 -53Q54 -53 74 -70T94 -114Q94 -153 60 -176T-27 -200Q-55 -200 -73 -196T-104 -184L-88 -156Q-67 -163 -54 -166T-29 -170Q4 -170 21 -157T39 -120Q39 -103 27 -92T-1 -82Q-22 -82 -50 -95L-60 -81Z" horiz-adv-x="186" unicode="¸"/>
			<glyph d="M244 851H292L202 428H156L235 799L165 740L141 768Z" horiz-adv-x="312" unicode="¹"/>
			<glyph d="M224 705Q273 705 301 673T330 590Q330 538 311 492T256 420T172 393Q121 393 93 423T66 508Q66 561 85 606T141 678T224 705ZM223 667Q174 667 144 620T114 505Q114 472 130 451T174 431Q224 431 253 477T283 591Q283 626 266 646T223 667Z" horiz-adv-x="312" unicode="º"/>
			<glyph d="M107 466H159L235 256L83 54H27L174 258ZM246 466H298L374 256L222 54H166L313 258Z" horiz-adv-x="480" unicode="»"/>
			<glyph d="M520 731H572L135 -33H83ZM214 705H262L172 282H126L205 653L135 594L111 622ZM572 419H630L570 138H616L609 96H561L541 0H495L515 96H337L344 138ZM570 362L389 138H524L572 362Z" horiz-adv-x="721" unicode="¼"/>
			<glyph d="M535 731H587L150 -33H98ZM214 705H262L172 282H126L205 653L135 594L111 622ZM547 423Q595 423 624 397T653 329Q653 282 618 230T499 104L430 42H598L590 0H364L368 37Q518 172 561 224T604 321Q604 350 588 365T544 381Q521 381 496 371T453 347V395Q497 423 547 423Z" horiz-adv-x="721" unicode="½"/>
			<glyph d="M570 731H622L185 -33H133ZM207 705Q259 705 290 677T322 609Q322 530 221 503L220 501Q250 493 268 470T287 417Q287 353 242 315T123 278Q66 278 35 295L41 342Q78 320 122 320Q176 320 206 344T236 415Q236 443 213 461T153 479H119L127 521Q198 521 234 542T271 605Q271 630 253 646T203 663Q158 663 117 645V689Q163 705 207 705ZM593 419H651L591 138H637L630 96H582L562 0H516L536 96H358L365 138ZM591 362L410 138H545L593 362Z" horiz-adv-x="721" unicode="¾"/>
			<glyph d="M240 510H314L295 420H221ZM212 339H270Q252 244 218 203Q169 146 123 95Q86 53 71 22T56 -48Q56 -90 79 -113T144 -137Q174 -137 199 -129T258 -104L251 -172Q224 -184 199 -189T141 -195Q72 -195 30 -155T-12 -53Q-12 -4 10 39T79 130Q122 173 144 199T186 260T212 339Z" horiz-adv-x="444" unicode="¿"/>
			<glyph d="M316 698H382L469 0H407L385 192H107L6 0H-61ZM337 632L138 250H379L339 632ZM274 869H341L396 727H349Z" horiz-adv-x="556" unicode="À"/>
			<glyph d="M316 698H382L469 0H407L385 192H107L6 0H-61ZM337 632L138 250H379L339 632ZM409 869H482L365 727H312Z" horiz-adv-x="556" unicode="Á"/>
			<glyph d="M316 698H382L469 0H407L385 192H107L6 0H-61ZM337 632L138 250H379L339 632ZM351 869H409L476 727H422L376 829L286 727H224Z" horiz-adv-x="556" unicode="Â"/>
			<glyph d="M316 698H382L469 0H407L385 192H107L6 0H-61ZM337 632L138 250H379L339 632ZM465 850H507Q483 751 419 751Q406 751 390 757T354 776Q324 795 310 795Q293 795 281 784T262 746H220Q233 795 255 820T311 845Q325 845 340 838T374 821Q389 812 400 806T420 801Q455 801 465 850Z" horiz-adv-x="556" unicode="Ã"/>
			<glyph d="M316 698H382L469 0H407L385 192H107L6 0H-61ZM337 632L138 250H379L339 632ZM270 853H328L307 755H249ZM420 853H478L457 755H399Z" horiz-adv-x="556" unicode="Ä"/>
			<glyph d="M316 698H382L469 0H407L385 192H107L6 0H-61ZM337 632L138 250H379L339 632ZM379 913Q417 913 441 889T466 829Q466 782 435 750T356 719Q318 719 293 742T269 803Q269 851 300 882T379 913ZM377 880Q348 880 327 858T306 805Q306 783 320 767T357 752Q387 752 408 774T429 827Q429 849 414 864T377 880Z" horiz-adv-x="556" unicode="Å"/>
			<glyph d="M440 698H765L753 640H531L478 392H689L676 334H465L407 58H640L628 0H333L373 192H151L15 0H-61ZM468 648L189 250H386L470 648Z" horiz-adv-x="759" unicode="Æ"/>
			<glyph d="M411 705Q446 705 481 698T535 682L518 612Q499 628 469 637T406 646Q319 646 251 590T145 442T108 248Q108 154 156 102T284 51Q348 51 411 82L400 15Q372 4 345 -1T281 -7L268 -6L224 -55L225 -57Q234 -53 250 -53Q283 -53 302 -70T322 -114Q322 -153 288 -176T201 -200Q146 -200 124 -184L140 -156Q176 -170 199 -170Q231 -170 249 -157T267 -120Q267 -103 255 -92T227 -82Q210 -82 178 -95L168 -81L236 -3Q142 11 91 75T41 244Q41 356 85 462T214 637T411 705Z" horiz-adv-x="537" unicode="Ç"/>
			<glyph d="M154 698H450L438 640H204L151 392H374L361 334H138L80 58H325L313 0H6ZM227 869H294L349 727H302Z" horiz-adv-x="444" unicode="È"/>
			<glyph d="M154 698H450L438 640H204L151 392H374L361 334H138L80 58H325L313 0H6ZM367 869H440L323 727H270Z" horiz-adv-x="444" unicode="É"/>
			<glyph d="M154 698H450L438 640H204L151 392H374L361 334H138L80 58H325L313 0H6ZM305 869H363L430 727H376L330 829L240 727H178Z" horiz-adv-x="444" unicode="Ê"/>
			<glyph d="M154 698H450L438 640H204L151 392H374L361 334H138L80 58H325L313 0H6ZM227 853H285L264 755H206ZM377 853H435L414 755H356Z" horiz-adv-x="444" unicode="Ë"/>
			<glyph d="M154 698H216L68 0H6ZM117 869H184L239 727H192Z" horiz-adv-x="222" unicode="Ì"/>
			<glyph d="M154 698H216L68 0H6ZM242 869H315L198 727H145Z" horiz-adv-x="222" unicode="Í"/>
			<glyph d="M154 698H216L68 0H6ZM187 869H245L312 727H258L212 829L122 727H60Z" horiz-adv-x="222" unicode="Î"/>
			<glyph d="M154 698H216L68 0H6ZM111 853H169L148 755H90ZM261 853H319L298 755H240Z" horiz-adv-x="222" unicode="Ï"/>
			<glyph d="M154 698H265Q389 698 458 633T527 448Q527 310 480 208T350 53T163 0H6L78 341H10L19 383H87ZM204 640L149 383H327L318 341H140L80 58H161Q248 58 315 103T421 236T460 447Q460 640 255 640Z" horiz-adv-x="564" unicode="Ð"/>
			<glyph d="M154 698H232L395 78H397L529 698H587L439 0H360L196 616H194L64 0H6ZM489 850H531Q507 751 443 751Q430 751 414 757T378 776Q348 795 334 795Q317 795 305 784T286 746H244Q257 795 279 820T335 845Q349 845 364 838T398 821Q413 812 424 806T444 801Q479 801 489 850Z" horiz-adv-x="593" unicode="Ñ"/>
			<glyph d="M365 705Q456 705 506 646T557 485Q557 366 517 252T403 65T229 -7Q139 -7 88 51T37 211Q37 335 77 449T193 634T365 705ZM362 647Q285 647 225 581T134 414T103 213Q103 137 137 94T231 51Q310 51 369 116T460 282T491 485Q491 561 457 604T362 647ZM304 869H371L426 727H379Z" horiz-adv-x="594" unicode="Ò"/>
			<glyph d="M365 705Q456 705 506 646T557 485Q557 366 517 252T403 65T229 -7Q139 -7 88 51T37 211Q37 335 77 449T193 634T365 705ZM362 647Q285 647 225 581T134 414T103 213Q103 137 137 94T231 51Q310 51 369 116T460 282T491 485Q491 561 457 604T362 647ZM434 869H507L390 727H337Z" horiz-adv-x="594" unicode="Ó"/>
			<glyph d="M365 705Q456 705 506 646T557 485Q557 366 517 252T403 65T229 -7Q139 -7 88 51T37 211Q37 335 77 449T193 634T365 705ZM362 647Q285 647 225 581T134 414T103 213Q103 137 137 94T231 51Q310 51 369 116T460 282T491 485Q491 561 457 604T362 647ZM375 869H433L500 727H446L400 829L310 727H248Z" horiz-adv-x="594" unicode="Ô"/>
			<glyph d="M365 705Q456 705 506 646T557 485Q557 366 517 252T403 65T229 -7Q139 -7 88 51T37 211Q37 335 77 449T193 634T365 705ZM362 647Q285 647 225 581T134 414T103 213Q103 137 137 94T231 51Q310 51 369 116T460 282T491 485Q491 561 457 604T362 647ZM490 850H532Q508 751 444 751Q431 751 415 757T379 776Q349 795 335 795Q318 795 306 784T287 746H245Q258 795 280 820T336 845Q350 845 365 838T399 821Q414 812 425 806T445 801Q480 801 490 850Z" horiz-adv-x="594" unicode="Õ"/>
			<glyph d="M365 705Q456 705 506 646T557 485Q557 366 517 252T403 65T229 -7Q139 -7 88 51T37 211Q37 335 77 449T193 634T365 705ZM362 647Q285 647 225 581T134 414T103 213Q103 137 137 94T231 51Q310 51 369 116T460 282T491 485Q491 561 457 604T362 647ZM300 853H358L337 755H279ZM450 853H508L487 755H429Z" horiz-adv-x="594" unicode="Ö"/>
			<glyph d="M98 479L288 288L478 479L514 443L323 253L514 63L478 27L288 218L98 27L62 63L252 253L62 443Z" horiz-adv-x="600" unicode="×"/>
			<glyph d="M601 711L626 686L539 589Q557 541 557 481Q557 377 520 263T409 71T230 -7Q174 -7 136 14T70 78L-6 -7L-31 17L54 112Q37 161 37 208Q37 316 72 432T184 626T369 705Q470 705 522 622ZM363 647Q287 647 227 584T135 419T103 199Q103 176 106 165L475 576Q445 647 363 647ZM487 536L117 125Q132 88 160 69T233 51Q308 51 366 113T458 277T491 495Q491 515 487 536Z" horiz-adv-x="594" unicode="Ø"/>
			<glyph d="M154 698H216L119 243Q113 216 113 177Q113 117 144 84T233 51Q293 51 328 79T382 154T415 272L506 698H568L475 259Q446 123 388 58T231 -7Q144 -7 97 39T51 173Q51 215 57 244ZM288 869H355L410 727H363Z" horiz-adv-x="574" unicode="Ù"/>
			<glyph d="M154 698H216L119 243Q113 216 113 177Q113 117 144 84T233 51Q293 51 328 79T382 154T415 272L506 698H568L475 259Q446 123 388 58T231 -7Q144 -7 97 39T51 173Q51 215 57 244ZM417 869H490L373 727H320Z" horiz-adv-x="574" unicode="Ú"/>
			<glyph d="M154 698H216L119 243Q113 216 113 177Q113 117 144 84T233 51Q293 51 328 79T382 154T415 272L506 698H568L475 259Q446 123 388 58T231 -7Q144 -7 97 39T51 173Q51 215 57 244ZM364 869H422L489 727H435L389 829L299 727H237Z" horiz-adv-x="574" unicode="Û"/>
			<glyph d="M154 698H216L119 243Q113 216 113 177Q113 117 144 84T233 51Q293 51 328 79T382 154T415 272L506 698H568L475 259Q446 123 388 58T231 -7Q144 -7 97 39T51 173Q51 215 57 244ZM285 853H343L322 755H264ZM435 853H493L472 755H414Z" horiz-adv-x="574" unicode="Ü"/>
			<glyph d="M111 698H174L249 361L456 698H525L269 302L205 0H143L207 302ZM378 869H451L334 727H281Z" horiz-adv-x="500" unicode="Ý"/>
			<glyph d="M154 698H216L184 548H257Q336 548 383 507T431 393Q431 322 399 267T312 183T193 154H100L68 0H6ZM172 491L113 211H183Q266 211 314 258T363 390Q363 441 333 466T247 491Z" unicode="Þ"/>
			<glyph d="M306 762Q367 762 406 721T445 618Q445 566 425 519T369 441T282 400L281 398Q336 387 367 348T399 251Q399 178 372 119T295 26T179 -7Q163 -7 139 -5T108 0L122 62Q130 57 147 54T182 51Q227 51 262 78T317 150T337 249Q337 301 301 333T200 369L212 427Q291 427 337 477T383 613Q383 653 361 678T303 704Q261 704 233 684T186 623T151 509L44 0H-14L99 536Q124 652 174 707T306 762Z" unicode="ß"/>
			<glyph d="M244 517Q308 517 344 482T381 392Q381 366 375 337L330 123Q319 73 310 0H258L269 72H267Q210 -7 128 -7Q65 -7 29 27T-7 124Q-7 214 63 260T261 307H315Q325 351 325 382Q325 463 242 463Q176 463 100 412V474Q140 497 173 507T244 517ZM290 257Q196 257 144 241T73 196T54 125Q54 89 75 68T135 47Q170 47 202 66T258 116T288 183L304 257ZM187 728H254L309 586H262Z" horiz-adv-x="444" unicode="à"/>
			<glyph d="M244 517Q308 517 344 482T381 392Q381 366 375 337L330 123Q319 73 310 0H258L269 72H267Q210 -7 128 -7Q65 -7 29 27T-7 124Q-7 214 63 260T261 307H315Q325 351 325 382Q325 463 242 463Q176 463 100 412V474Q140 497 173 507T244 517ZM290 257Q196 257 144 241T73 196T54 125Q54 89 75 68T135 47Q170 47 202 66T258 116T288 183L304 257ZM321 728H394L277 586H224Z" horiz-adv-x="444" unicode="á"/>
			<glyph d="M244 517Q308 517 344 482T381 392Q381 366 375 337L330 123Q319 73 310 0H258L269 72H267Q210 -7 128 -7Q65 -7 29 27T-7 124Q-7 214 63 260T261 307H315Q325 351 325 382Q325 463 242 463Q176 463 100 412V474Q140 497 173 507T244 517ZM290 257Q196 257 144 241T73 196T54 125Q54 89 75 68T135 47Q170 47 202 66T258 116T288 183L304 257ZM264 728H322L389 586H335L289 688L199 586H137Z" horiz-adv-x="444" unicode="â"/>
			<glyph d="M244 517Q308 517 344 482T381 392Q381 366 375 337L330 123Q319 73 310 0H258L269 72H267Q210 -7 128 -7Q65 -7 29 27T-7 124Q-7 214 63 260T261 307H315Q325 351 325 382Q325 463 242 463Q176 463 100 412V474Q140 497 173 507T244 517ZM290 257Q196 257 144 241T73 196T54 125Q54 89 75 68T135 47Q170 47 202 66T258 116T288 183L304 257ZM377 709H419Q395 610 331 610Q318 610 302 616T266 635Q236 654 222 654Q205 654 194 643T174 605H132Q145 654 167 679T223 704Q237 704 253 697T290 678Q295 675 309 667T332 660Q367 660 377 709Z" horiz-adv-x="444" unicode="ã"/>
			<glyph d="M244 517Q308 517 344 482T381 392Q381 366 375 337L330 123Q319 73 310 0H258L269 72H267Q210 -7 128 -7Q65 -7 29 27T-7 124Q-7 214 63 260T261 307H315Q325 351 325 382Q325 463 242 463Q176 463 100 412V474Q140 497 173 507T244 517ZM290 257Q196 257 144 241T73 196T54 125Q54 89 75 68T135 47Q170 47 202 66T258 116T288 183L304 257ZM184 712H242L221 614H163ZM334 712H392L371 614H313Z" horiz-adv-x="444" unicode="ä"/>
			<glyph d="M244 517Q308 517 344 482T381 392Q381 366 375 337L330 123Q319 73 310 0H258L269 72H267Q210 -7 128 -7Q65 -7 29 27T-7 124Q-7 214 63 260T261 307H315Q325 351 325 382Q325 463 242 463Q176 463 100 412V474Q140 497 173 507T244 517ZM290 257Q196 257 144 241T73 196T54 125Q54 89 75 68T135 47Q170 47 202 66T258 116T288 183L304 257ZM291 762Q330 762 354 738T378 678Q378 630 347 599T268 568Q230 568 205 591T181 652Q181 699 212 730T291 762ZM290 729Q260 729 239 707T218 654Q218 631 232 616T269 601Q299 601 320 623T341 676Q341 697 326 713T290 729Z" horiz-adv-x="444" unicode="å"/>
			<glyph d="M237 517Q285 517 316 492T354 425Q381 468 420 492T505 517Q569 517 604 476T640 364Q640 336 636 306T628 257H345Q334 206 334 176Q334 116 363 81T444 47Q468 47 493 55T558 84L548 18Q488 -7 438 -7Q377 -7 337 22T287 108H285Q260 55 215 24T110 -7Q54 -7 21 26T-11 116Q-11 210 60 258T247 307H294Q305 349 305 386Q305 422 285 442T229 463Q199 463 173 453T105 418L112 475Q148 498 177 507T237 517ZM502 463Q463 463 432 439T381 379T356 307H577Q583 331 583 361Q583 411 562 437T502 463ZM275 257Q51 257 51 117Q51 84 68 65T118 47Q181 47 220 96T277 228L283 257Z" horiz-adv-x="685" unicode="æ"/>
			<glyph d="M273 517Q335 517 376 499L359 433Q345 445 322 452T273 459Q213 459 168 420T99 320T75 190Q75 123 108 87T194 51Q249 51 292 78L283 12Q239 -7 189 -7Q184 -7 180 -6L135 -55L136 -57Q147 -53 162 -53Q194 -53 213 -70T233 -114Q233 -154 199 -177T112 -200Q59 -200 35 -184L51 -156Q75 -165 86 -167T110 -170Q178 -170 178 -120Q178 -103 166 -92T138 -82Q119 -82 89 -95L79 -81L148 -2Q83 13 47 62T12 187Q12 263 42 339T132 466T273 517Z" horiz-adv-x="370" unicode="ç"/>
			<glyph d="M241 517Q306 517 342 477T378 367Q378 306 361 236H77Q71 198 71 175Q71 110 99 78T180 47Q213 47 249 58T309 89L298 22Q243 -7 175 -7Q96 -7 53 40T10 174Q10 248 38 328T120 463T241 517ZM237 463Q189 463 149 416T88 290H311Q318 332 318 367Q318 414 296 438T237 463ZM178 728H245L300 586H253Z" horiz-adv-x="426" unicode="è"/>
			<glyph d="M241 517Q306 517 342 477T378 367Q378 306 361 236H77Q71 198 71 175Q71 110 99 78T180 47Q213 47 249 58T309 89L298 22Q243 -7 175 -7Q96 -7 53 40T10 174Q10 248 38 328T120 463T241 517ZM237 463Q189 463 149 416T88 290H311Q318 332 318 367Q318 414 296 438T237 463ZM308 728H381L264 586H211Z" horiz-adv-x="426" unicode="é"/>
			<glyph d="M241 517Q306 517 342 477T378 367Q378 306 361 236H77Q71 198 71 175Q71 110 99 78T180 47Q213 47 249 58T309 89L298 22Q243 -7 175 -7Q96 -7 53 40T10 174Q10 248 38 328T120 463T241 517ZM237 463Q189 463 149 416T88 290H311Q318 332 318 367Q318 414 296 438T237 463ZM255 728H313L380 586H326L280 688L190 586H128Z" horiz-adv-x="426" unicode="ê"/>
			<glyph d="M241 517Q306 517 342 477T378 367Q378 306 361 236H77Q71 198 71 175Q71 110 99 78T180 47Q213 47 249 58T309 89L298 22Q243 -7 175 -7Q96 -7 53 40T10 174Q10 248 38 328T120 463T241 517ZM237 463Q189 463 149 416T88 290H311Q318 332 318 367Q318 414 296 438T237 463ZM177 712H235L214 614H156ZM327 712H385L364 614H306Z" horiz-adv-x="426" unicode="ë"/>
			<glyph d="M107 510H165L57 0H-1ZM71 728H138L193 586H146Z" horiz-adv-x="204" unicode="ì"/>
			<glyph d="M107 510H165L57 0H-1ZM204 728H277L160 586H107Z" horiz-adv-x="204" unicode="í"/>
			<glyph d="M107 510H165L57 0H-1ZM148 728H206L273 586H219L173 688L83 586H21Z" horiz-adv-x="204" unicode="î"/>
			<glyph d="M107 510H165L57 0H-1ZM70 712H128L107 614H49ZM220 712H278L257 614H199Z" horiz-adv-x="204" unicode="ï"/>
			<glyph d="M190 762Q251 743 301 703L406 762L425 730L328 676Q375 631 397 566T420 404Q420 309 393 214T310 56T166 -7Q91 -7 50 39T10 170Q10 243 38 320T121 450T254 503Q292 503 318 490T365 448L368 450Q360 578 285 654L173 593L154 625L255 680Q238 694 219 704T164 729ZM251 449Q194 449 154 402T93 290T73 166Q73 47 165 47Q227 47 269 94T330 207T350 332Q350 449 251 449Z" horiz-adv-x="464" unicode="ð"/>
			<glyph d="M282 517Q337 517 368 486T400 403Q400 380 392 337L321 0H263L330 316Q342 369 342 394Q342 427 322 445T266 463Q217 463 175 423T118 312L52 0H-6L68 353Q76 391 98 510H152Q150 493 143 452L140 435H142Q167 475 201 496T282 517ZM392 709H434Q410 610 346 610Q333 610 317 616T281 635Q251 654 237 654Q220 654 209 643T189 605H147Q160 654 182 679T238 704Q252 704 268 697T305 678Q310 675 324 667T347 660Q382 660 392 709Z" unicode="ñ"/>
			<glyph d="M258 517Q332 517 372 470T412 338Q412 263 384 182T299 47T165 -7Q91 -7 51 39T12 169Q12 255 42 335T129 466T258 517ZM255 463Q200 463 159 419T96 307T74 169Q74 47 171 47Q223 47 264 89T327 200T350 341Q350 401 325 432T255 463ZM199 728H266L321 586H274Z" horiz-adv-x="464" unicode="ò"/>
			<glyph d="M258 517Q332 517 372 470T412 338Q412 263 384 182T299 47T165 -7Q91 -7 51 39T12 169Q12 255 42 335T129 466T258 517ZM255 463Q200 463 159 419T96 307T74 169Q74 47 171 47Q223 47 264 89T327 200T350 341Q350 401 325 432T255 463ZM331 728H404L287 586H234Z" horiz-adv-x="464" unicode="ó"/>
			<glyph d="M258 517Q332 517 372 470T412 338Q412 263 384 182T299 47T165 -7Q91 -7 51 39T12 169Q12 255 42 335T129 466T258 517ZM255 463Q200 463 159 419T96 307T74 169Q74 47 171 47Q223 47 264 89T327 200T350 341Q350 401 325 432T255 463ZM274 728H332L399 586H345L299 688L209 586H147Z" horiz-adv-x="464" unicode="ô"/>
			<glyph d="M258 517Q332 517 372 470T412 338Q412 263 384 182T299 47T165 -7Q91 -7 51 39T12 169Q12 255 42 335T129 466T258 517ZM255 463Q200 463 159 419T96 307T74 169Q74 47 171 47Q223 47 264 89T327 200T350 341Q350 401 325 432T255 463ZM391 709H433Q409 610 345 610Q332 610 316 616T280 635Q250 654 236 654Q219 654 208 643T188 605H146Q159 654 181 679T237 704Q251 704 267 697T304 678Q309 675 323 667T346 660Q381 660 391 709Z" horiz-adv-x="464" unicode="õ"/>
			<glyph d="M258 517Q332 517 372 470T412 338Q412 263 384 182T299 47T165 -7Q91 -7 51 39T12 169Q12 255 42 335T129 466T258 517ZM255 463Q200 463 159 419T96 307T74 169Q74 47 171 47Q223 47 264 89T327 200T350 341Q350 401 325 432T255 463ZM197 712H255L234 614H176ZM347 712H405L384 614H326Z" horiz-adv-x="464" unicode="ö"/>
			<glyph d="M280 513Q302 513 318 497T335 458Q335 435 319 419T280 403Q257 403 241 419T225 458Q225 481 241 497T280 513ZM27 278H533V228H27ZM280 103Q303 103 319 87T335 48Q335 25 319 9T280 -7Q256 -7 240 8T225 48Q225 71 241 87T280 103Z" horiz-adv-x="600" unicode="÷"/>
			<glyph d="M258 517Q334 517 377 463L425 517L449 494L394 433Q412 391 412 338Q412 256 382 176T297 44T171 -7Q124 -7 94 7T42 53L-12 -7L-36 15L27 84Q12 124 12 170Q12 255 42 335T129 466T258 517ZM254 463Q200 463 158 418T95 305T74 169Q74 151 76 135L334 420Q311 463 254 463ZM346 384L86 98Q109 47 167 47Q228 47 269 94T330 210T350 341Q350 370 346 384Z" unicode="ø"/>
			<glyph d="M103 510H161L88 167Q82 135 82 117Q82 84 101 65T157 47Q208 47 248 87T300 181L370 510H428L354 158L324 0H270Q271 21 282 75H280Q255 32 222 12T142 -7Q85 -7 54 22T24 107Q24 133 32 173ZM197 728H264L319 586H272Z" unicode="ù"/>
			<glyph d="M103 510H161L88 167Q82 135 82 117Q82 84 101 65T157 47Q208 47 248 87T300 181L370 510H428L354 158L324 0H270Q271 21 282 75H280Q255 32 222 12T142 -7Q85 -7 54 22T24 107Q24 133 32 173ZM333 728H406L289 586H236Z" unicode="ú"/>
			<glyph d="M103 510H161L88 167Q82 135 82 117Q82 84 101 65T157 47Q208 47 248 87T300 181L370 510H428L354 158L324 0H270Q271 21 282 75H280Q255 32 222 12T142 -7Q85 -7 54 22T24 107Q24 133 32 173ZM276 728H334L401 586H347L301 688L211 586H149Z" unicode="û"/>
			<glyph d="M103 510H161L88 167Q82 135 82 117Q82 84 101 65T157 47Q208 47 248 87T300 181L370 510H428L354 158L324 0H270Q271 21 282 75H280Q255 32 222 12T142 -7Q85 -7 54 22T24 107Q24 133 32 173ZM200 712H258L237 614H179ZM350 712H408L387 614H329Z" unicode="ü"/>
			<glyph d="M37 510H97L126 86H128L327 510H387L101 -86Q63 -164 34 -193T-36 -222Q-64 -222 -84 -216L-70 -157Q-64 -162 -52 -165T-31 -168Q4 -168 29 -117L79 -13ZM281 728H354L237 586H184Z" horiz-adv-x="370" unicode="ý"/>
			<glyph d="M145 750H207L142 444H144Q206 517 272 517Q338 517 376 472T414 348Q414 218 348 105Q282 -7 184 -7Q138 -7 106 12T64 69H62L2 -216H-56L103 536Q127 650 134 684T145 750ZM267 463Q212 463 171 419T107 304T85 157Q85 103 109 75T182 47Q231 47 270 91T330 205T352 353Q352 405 330 434T267 463Z" unicode="þ"/>
			<glyph d="M37 510H97L126 86H128L327 510H387L101 -86Q63 -164 34 -193T-36 -222Q-64 -222 -84 -216L-70 -157Q-64 -162 -52 -165T-31 -168Q4 -168 29 -117L79 -13ZM148 712H206L185 614H127ZM298 712H356L335 614H277Z" horiz-adv-x="370" unicode="ÿ"/>
			<glyph d="M316 698H382L469 0H407L385 192H107L6 0H-61ZM337 632L138 250H379L339 632ZM249 821H487L477 775H239Z" horiz-adv-x="556" unicode="Ā"/>
			<glyph d="M244 517Q308 517 344 482T381 392Q381 366 375 337L330 123Q319 73 310 0H258L269 72H267Q210 -7 128 -7Q65 -7 29 27T-7 124Q-7 214 63 260T261 307H315Q325 351 325 382Q325 463 242 463Q176 463 100 412V474Q140 497 173 507T244 517ZM290 257Q196 257 144 241T73 196T54 125Q54 89 75 68T135 47Q170 47 202 66T258 116T288 183L304 257ZM163 680H401L391 634H153Z" horiz-adv-x="444" unicode="ā"/>
			<glyph d="M316 698H382L469 0H407L385 192H107L6 0H-61ZM337 632L138 250H379L339 632ZM258 858H298V851Q298 818 315 800T364 782Q397 782 420 801T456 858H496Q481 798 446 767T360 736Q312 736 284 764T256 834Q256 842 258 858Z" horiz-adv-x="556" unicode="Ă"/>
			<glyph d="M244 517Q308 517 344 482T381 392Q381 366 375 337L330 123Q319 73 310 0H258L269 72H267Q210 -7 128 -7Q65 -7 29 27T-7 124Q-7 214 63 260T261 307H315Q325 351 325 382Q325 463 242 463Q176 463 100 412V474Q140 497 173 507T244 517ZM290 257Q196 257 144 241T73 196T54 125Q54 89 75 68T135 47Q170 47 202 66T258 116T288 183L304 257ZM171 717H211V711Q211 678 228 659T277 641Q310 641 334 661T369 717H409Q394 657 359 626T273 595Q226 595 197 623T169 696Q169 705 171 717Z" horiz-adv-x="444" unicode="ă"/>
			<glyph d="M316 698H382L469 0H453Q403 -27 376 -59T349 -125Q349 -145 361 -157T394 -170Q407 -170 416 -167T439 -158L447 -183Q424 -193 411 -196T383 -200Q340 -200 315 -181T290 -129Q290 -90 319 -58T412 0H407L385 192H107L6 0H-61ZM337 632L138 250H379L339 632Z" horiz-adv-x="556" unicode="Ą"/>
			<glyph d="M244 517Q308 517 344 482T381 392Q381 366 375 337L330 123Q319 73 310 0H308Q258 -26 231 -58T204 -125Q204 -146 216 -158T247 -170Q267 -170 294 -158L302 -183Q283 -192 269 -196T238 -200Q195 -200 170 -181T145 -129Q145 -90 174 -58T267 0H258L269 72H267Q210 -7 128 -7Q65 -7 29 27T-7 124Q-7 214 63 260T261 307H315Q325 351 325 382Q325 463 242 463Q176 463 100 412V474Q140 497 173 507T244 517ZM290 257Q197 257 145 241T73 196T54 125Q54 89 75 68T135 47Q170 47 202 66T258 116T288 183L304 257Z" horiz-adv-x="444" unicode="ą"/>
			<glyph d="M411 705Q446 705 481 698T535 682L518 612Q499 628 469 637T406 646Q319 646 251 589T145 442T108 248Q108 154 156 102T284 51Q348 51 411 82L400 15Q372 4 346 -1T284 -7Q170 -7 105 60T41 248Q41 359 85 464T214 637T411 705ZM453 869H526L409 727H356Z" horiz-adv-x="532" unicode="Ć"/>
			<glyph d="M273 517Q335 517 376 499L359 433Q345 445 322 452T273 459Q213 459 168 420T99 320T75 190Q75 123 108 87T194 51Q249 51 292 78L283 12Q236 -7 191 -7Q111 -7 61 45T12 188Q12 264 42 340T133 467T273 517ZM333 728H406L289 586H236Z" horiz-adv-x="370" unicode="ć"/>
			<glyph d="M411 705Q446 705 481 698T535 682L518 612Q499 628 469 637T406 646Q319 646 251 589T145 442T108 248Q108 154 156 102T284 51Q348 51 411 82L400 15Q372 4 346 -1T284 -7Q170 -7 105 60T41 248Q41 359 85 464T214 637T411 705ZM402 869H460L527 727H473L427 829L337 727H275Z" horiz-adv-x="532" unicode="Ĉ"/>
			<glyph d="M273 517Q335 517 376 499L359 433Q345 445 322 452T273 459Q213 459 168 420T99 320T75 190Q75 123 108 87T194 51Q249 51 292 78L283 12Q236 -7 191 -7Q111 -7 61 45T12 188Q12 264 42 340T133 467T273 517ZM276 728H334L401 586H347L301 688L211 586H149Z" horiz-adv-x="370" unicode="ĉ"/>
			<glyph d="M411 705Q446 705 481 698T535 682L518 612Q499 628 469 637T406 646Q319 646 251 589T145 442T108 248Q108 154 156 102T284 51Q348 51 411 82L400 15Q372 4 346 -1T284 -7Q170 -7 105 60T41 248Q41 359 85 464T214 637T411 705ZM399 853H457L436 755H378Z" horiz-adv-x="532" unicode="Ċ"/>
			<glyph d="M273 517Q335 517 376 499L359 433Q345 445 322 452T273 459Q213 459 168 420T99 320T75 190Q75 123 108 87T194 51Q249 51 292 78L283 12Q236 -7 191 -7Q111 -7 61 45T12 188Q12 264 42 340T133 467T273 517ZM273 712H331L310 614H252Z" horiz-adv-x="370" unicode="ċ"/>
			<glyph d="M411 705Q446 705 481 698T535 682L518 612Q499 628 469 637T406 646Q319 646 251 589T145 442T108 248Q108 154 156 102T284 51Q348 51 411 82L400 15Q372 4 346 -1T284 -7Q170 -7 105 60T41 248Q41 359 85 464T214 637T411 705ZM305 869H360L407 767L496 869H557L430 727H372Z" horiz-adv-x="532" unicode="Č"/>
			<glyph d="M273 517Q335 517 376 499L359 433Q345 445 322 452T273 459Q213 459 168 420T99 320T75 190Q75 123 108 87T194 51Q249 51 292 78L283 12Q236 -7 191 -7Q111 -7 61 45T12 188Q12 264 42 340T133 467T273 517ZM179 728H234L281 626L370 728H431L304 586H246Z" horiz-adv-x="370" unicode="č"/>
			<glyph d="M154 698H265Q389 698 458 633T527 448Q527 310 480 208T350 53T163 0H6ZM204 640L80 58H161Q248 58 315 103T421 236T460 447Q460 640 255 640ZM229 869H284L331 767L420 869H481L354 727H296Z" horiz-adv-x="564" unicode="Ď"/>
			<glyph d="M426 750H484L361 173Q336 55 329 0H275L289 70H287Q258 32 226 12T153 -7Q87 -7 49 38T11 165Q11 235 36 317T114 458T238 517Q283 517 313 498T359 444H361ZM240 463Q188 463 150 417T92 302T73 162Q73 106 96 76T161 47Q217 47 258 92T319 208T340 352Q340 406 314 434T240 463ZM540 728H600L543 564H500Z" unicode="ď"/>
			<glyph d="M154 698H265Q389 698 458 633T527 448Q527 310 480 208T350 53T163 0H6L78 341H10L19 383H87ZM204 640L149 383H327L318 341H140L80 58H161Q248 58 315 103T421 236T460 447Q460 640 255 640Z" horiz-adv-x="564" unicode="Đ"/>
			<glyph d="M426 750H484L464 657H524L515 614H455L361 173Q336 55 329 0H275L289 70H287Q258 32 226 12T153 -7Q87 -7 49 38T11 165Q11 235 37 318T115 459T238 517Q283 517 313 498T359 444H361L397 614H262L271 657H406ZM240 463Q188 463 150 417T92 302T73 162Q73 106 96 76T161 47Q217 47 258 92T319 208T340 352Q340 406 314 434T240 463Z" unicode="đ"/>
			<glyph d="M154 698H450L438 640H204L151 392H374L361 334H138L80 58H325L313 0H6ZM206 821H444L434 775H196Z" horiz-adv-x="444" unicode="Ē"/>
			<glyph d="M241 517Q306 517 342 477T378 367Q378 306 361 236H77Q71 198 71 175Q71 110 99 78T180 47Q213 47 249 58T309 89L298 22Q243 -7 175 -7Q96 -7 53 40T10 174Q10 248 38 328T120 463T241 517ZM237 463Q189 463 149 416T88 290H311Q318 332 318 367Q318 414 296 438T237 463ZM155 680H393L383 634H145Z" horiz-adv-x="426" unicode="ē"/>
			<glyph d="M154 698H450L438 640H204L151 392H374L361 334H138L80 58H325L313 0H6ZM214 858H254V851Q254 818 271 800T320 782Q353 782 376 801T412 858H452Q437 798 402 767T316 736Q268 736 240 764T212 834Q212 842 214 858Z" horiz-adv-x="444" unicode="Ĕ"/>
			<glyph d="M241 517Q306 517 342 477T378 367Q378 306 361 236H77Q71 198 71 175Q71 110 99 78T180 47Q213 47 249 58T309 89L298 22Q243 -7 175 -7Q96 -7 53 40T10 174Q10 248 38 328T120 463T241 517ZM237 463Q189 463 149 416T88 290H311Q318 332 318 367Q318 414 296 438T237 463ZM155 717H195V711Q195 678 212 659T261 641Q294 641 318 661T353 717H393Q378 657 343 626T257 595Q210 595 181 623T153 696Q153 705 155 717Z" horiz-adv-x="426" unicode="ĕ"/>
			<glyph d="M154 698H450L438 640H204L151 392H374L361 334H138L80 58H325L313 0H6ZM303 853H361L340 755H282Z" horiz-adv-x="444" unicode="Ė"/>
			<glyph d="M241 517Q306 517 342 477T378 367Q378 306 361 236H77Q71 198 71 175Q71 110 99 78T180 47Q213 47 249 58T309 89L298 22Q243 -7 175 -7Q96 -7 53 40T10 174Q10 248 38 328T120 463T241 517ZM237 463Q189 463 149 416T88 290H311Q318 332 318 367Q318 414 296 438T237 463ZM253 712H311L290 614H232Z" horiz-adv-x="426" unicode="ė"/>
			<glyph d="M154 698H450L438 640H204L151 392H374L361 334H138L80 58H325L313 0H284Q234 -26 207 -58T180 -125Q180 -145 192 -157T226 -170Q239 -170 248 -167T270 -158L278 -183Q256 -193 242 -196T214 -200Q171 -200 146 -181T121 -129Q121 -90 150 -58T243 0H6Z" horiz-adv-x="444" unicode="Ę"/>
			<glyph d="M241 517Q306 517 342 477T378 367Q378 306 361 236H77Q71 198 71 175Q71 110 99 78T180 47Q213 47 249 58T309 89L298 22Q262 0 204 -6Q159 -30 134 -61T109 -125Q109 -146 121 -158T151 -170Q174 -170 199 -158L207 -183Q188 -192 174 -196T143 -200Q100 -200 75 -181T50 -129Q50 -93 77 -61T157 -6Q86 -1 48 45T10 174Q10 248 38 328T119 462T241 517ZM237 463Q189 463 149 416T88 290H311Q318 332 318 367Q318 414 296 438T237 463Z" horiz-adv-x="426" unicode="ę"/>
			<glyph d="M154 698H450L438 640H204L151 392H374L361 334H138L80 58H325L313 0H6ZM214 869H269L316 767L405 869H466L339 727H281Z" horiz-adv-x="444" unicode="Ě"/>
			<glyph d="M241 517Q306 517 342 477T378 367Q378 306 361 236H77Q71 198 71 175Q71 110 99 78T180 47Q213 47 249 58T309 89L298 22Q243 -7 175 -7Q96 -7 53 40T10 174Q10 248 38 328T120 463T241 517ZM237 463Q189 463 149 416T88 290H311Q318 332 318 367Q318 414 296 438T237 463ZM164 728H219L266 626L355 728H416L289 586H231Z" horiz-adv-x="426" unicode="ě"/>
			<glyph d="M415 705Q454 705 495 695T568 671L551 603Q530 621 490 634T413 647Q323 647 253 589T145 441T107 260Q107 159 155 105T296 51Q359 51 396 72L448 317H324L336 375H522L449 31Q410 11 372 2T293 -7Q174 -7 107 64T41 259Q41 372 89 475T224 641T415 705ZM411 869H469L536 727H482L436 829L346 727H284Z" horiz-adv-x="593" unicode="Ĝ"/>
			<glyph d="M239 517Q284 517 317 495T365 435H367L383 510H437Q419 446 397 340L324 -4Q307 -84 280 -131T212 -200T109 -222Q62 -222 31 -216T-45 -194L-27 -129Q36 -168 111 -168Q163 -168 195 -144T247 -70T281 70H279Q254 32 223 12T153 -7Q87 -7 49 38T11 165Q11 225 27 288T75 405Q139 517 239 517ZM240 463Q189 463 150 418T92 303T73 162Q73 106 95 76T160 47Q216 47 257 91T319 204T340 350Q340 403 313 433T240 463ZM278 728H336L403 586H349L303 688L213 586H151Z" unicode="ĝ"/>
			<glyph d="M415 705Q454 705 495 695T568 671L551 603Q530 621 490 634T413 647Q323 647 253 589T145 441T107 260Q107 159 155 105T296 51Q359 51 396 72L448 317H324L336 375H522L449 31Q410 11 372 2T293 -7Q174 -7 107 64T41 259Q41 372 89 475T224 641T415 705ZM319 858H359V851Q359 818 376 800T425 782Q458 782 481 801T517 858H557Q542 798 507 767T421 736Q373 736 345 764T317 834Q317 842 319 858Z" horiz-adv-x="593" unicode="Ğ"/>
			<glyph d="M239 517Q284 517 317 495T365 435H367L383 510H437Q419 446 397 340L324 -4Q307 -84 280 -131T212 -200T109 -222Q62 -222 31 -216T-45 -194L-27 -129Q36 -168 111 -168Q163 -168 195 -144T247 -70T281 70H279Q254 32 223 12T153 -7Q87 -7 49 38T11 165Q11 225 27 288T75 405Q139 517 239 517ZM240 463Q189 463 150 418T92 303T73 162Q73 106 95 76T160 47Q216 47 257 91T319 204T340 350Q340 403 313 433T240 463ZM186 717H226V711Q226 678 243 659T292 641Q325 641 349 661T384 717H424Q409 657 374 626T288 595Q241 595 212 623T184 696Q184 705 186 717Z" unicode="ğ"/>
			<glyph d="M415 705Q454 705 495 695T568 671L551 603Q530 621 490 634T413 647Q323 647 253 589T145 441T107 260Q107 159 155 105T296 51Q359 51 396 72L448 317H324L336 375H522L449 31Q410 11 372 2T293 -7Q174 -7 107 64T41 259Q41 372 89 475T224 641T415 705ZM408 853H466L445 755H387Z" horiz-adv-x="593" unicode="Ġ"/>
			<glyph d="M239 517Q284 517 317 495T365 435H367L383 510H437Q419 446 397 340L324 -4Q307 -84 280 -131T212 -200T109 -222Q62 -222 31 -216T-45 -194L-27 -129Q36 -168 111 -168Q163 -168 195 -144T247 -70T281 70H279Q254 32 223 12T153 -7Q87 -7 49 38T11 165Q11 225 27 288T75 405Q139 517 239 517ZM240 463Q189 463 150 418T92 303T73 162Q73 106 95 76T160 47Q216 47 257 91T319 204T340 350Q340 403 313 433T240 463ZM275 712H333L312 614H254Z" unicode="ġ"/>
			<glyph d="M415 705Q454 705 495 695T568 671L551 603Q530 621 490 634T413 647Q323 647 253 589T145 441T107 260Q107 159 155 105T296 51Q359 51 396 72L448 317H324L336 375H522L449 31Q410 11 372 2T293 -7Q174 -7 107 64T41 259Q41 372 89 475T224 641T415 705ZM210 -80H279L211 -222H159Z" horiz-adv-x="593" unicode="Ģ"/>
			<glyph d="M239 517Q284 517 317 495T365 435H367L383 510H437Q419 446 397 340L324 -4Q307 -84 280 -131T212 -200T109 -222Q62 -222 31 -216T-45 -194L-27 -129Q36 -168 111 -168Q163 -168 195 -144T247 -70T281 70H279Q254 32 223 12T153 -7Q87 -7 49 38T11 165Q11 225 27 288T75 405Q139 517 239 517ZM240 463Q189 463 150 418T92 303T73 162Q73 106 95 76T160 47Q216 47 257 91T319 204T340 350Q340 403 313 433T240 463ZM306 728H357L305 586H238Z" unicode="ģ"/>
			<glyph d="M154 698H216L151 392H423L488 698H550L402 0H340L410 334H138L68 0H6ZM357 869H415L482 727H428L382 829L292 727H230Z" horiz-adv-x="556" unicode="Ĥ"/>
			<glyph d="M153 750H211L145 440H147Q176 483 207 500T282 517Q337 517 368 486T400 403Q400 380 392 337L321 0H263L301 178Q322 273 332 324T342 394Q342 427 322 445T266 463Q216 463 174 422T118 312L52 0H-6ZM314 919H372L439 777H385L339 879L249 777H187Z" unicode="ĥ"/>
			<glyph d="M154 698H216L178 519H450L488 698H550L512 519H589L580 475H503L402 0H340L404 305H132L68 0H6L107 475H28L37 519H116ZM168 475L144 361H416L440 475Z" horiz-adv-x="556" unicode="Ħ"/>
			<glyph d="M153 750H211L191 657H324L315 614H182L145 440H147Q176 483 207 500T282 517Q337 517 368 486T400 403Q400 380 392 337L321 0H263L301 178Q322 273 332 324T342 394Q342 427 322 445T266 463Q216 463 174 422T118 312L52 0H-6L124 614H64L73 657H133Z" unicode="ħ"/>
			<glyph d="M154 698H216L68 0H6ZM301 850H343Q319 751 255 751Q242 751 226 757T190 776Q160 795 146 795Q129 795 117 784T98 746H56Q69 795 91 820T147 845Q161 845 176 838T210 821Q225 812 236 806T256 801Q291 801 301 850Z" horiz-adv-x="222" unicode="Ĩ"/>
			<glyph d="M107 510H165L57 0H-1ZM264 709H306Q282 610 218 610Q205 610 189 616T153 635Q123 654 109 654Q92 654 81 643T61 605H19Q32 654 54 679T110 704Q124 704 140 697T177 678Q182 675 196 667T219 660Q254 660 264 709Z" horiz-adv-x="204" unicode="ĩ"/>
			<glyph d="M154 698H216L68 0H6ZM89 821H327L317 775H79Z" horiz-adv-x="222" unicode="Ī"/>
			<glyph d="M107 510H165L57 0H-1ZM49 680H287L277 634H39Z" horiz-adv-x="204" unicode="ī"/>
			<glyph d="M154 698H216L68 0Q23 -24 -2 -57T-27 -126Q-27 -146 -15 -158T13 -170Q40 -170 60 -158L68 -183Q49 -192 35 -196T4 -200Q-39 -200 -62 -182T-86 -129Q-86 -48 27 0H6Z" horiz-adv-x="222" unicode="Į"/>
			<glyph d="M141 713H211L192 623H122ZM107 510H165L57 0Q14 -22 -12 -55T-39 -126Q-39 -146 -28 -158T2 -170Q28 -170 48 -158L56 -183Q37 -192 23 -196T-8 -200Q-51 -200 -74 -182T-98 -129Q-98 -48 15 0H-1Z" horiz-adv-x="204" unicode="į"/>
			<glyph d="M154 698H216L68 0H6ZM188 853H246L225 755H167Z" horiz-adv-x="222" unicode="İ"/>
			<glyph d="M107 510H165L57 0H-1Z" horiz-adv-x="204" unicode="ı"/>
			<glyph d="M154 698H216L68 0H6ZM434 698H496L384 171Q363 75 321 34T208 -7Q179 -7 153 0L166 65Q185 55 209 55Q245 55 266 67T302 109T327 192Z" horiz-adv-x="502" unicode="Ĳ"/>
			<glyph d="M141 713H211L192 623H122ZM107 510H165L57 0H-1ZM341 713H411L392 623H322ZM307 510H365L236 -99Q223 -161 193 -191T111 -222Q88 -222 72 -216L84 -158Q92 -164 113 -164Q142 -164 156 -149T178 -97Z" horiz-adv-x="404" unicode="ĳ"/>
			<glyph d="M228 698H290L178 171Q157 75 115 34T2 -7Q-27 -7 -53 0L-40 65Q-21 55 3 55Q39 55 60 67T96 109T121 192ZM257 869H315L382 727H328L282 829L192 727H130Z" horiz-adv-x="296" unicode="Ĵ"/>
			<glyph d="M107 510H165L36 -99Q23 -161 -7 -191T-89 -222Q-112 -222 -128 -216L-116 -158Q-108 -164 -87 -164Q-58 -164 -44 -149T-22 -97ZM143 728H201L268 586H214L168 688L78 586H16Z" horiz-adv-x="204" unicode="ĵ"/>
			<glyph d="M154 698H216L151 392H153L462 698H543L195 361L424 0H347L142 342H140L68 0H6ZM156 -80H225L157 -222H105Z" horiz-adv-x="500" unicode="Ķ"/>
			<glyph d="M155 750H213L118 305L351 510H428L164 280L345 0H273L111 260H109L54 0H-4ZM123 -80H192L124 -222H72Z" horiz-adv-x="426" unicode="ķ"/>
			<glyph d="M154 698H216L80 58H307L295 0H6ZM264 869H337L220 727H167Z" horiz-adv-x="389" unicode="Ĺ"/>
			<glyph d="M158 750H216L57 0H-1ZM252 919H325L208 777H155Z" horiz-adv-x="204" unicode="ĺ"/>
			<glyph d="M154 698H216L80 58H307L295 0H6ZM105 -80H174L106 -222H54Z" horiz-adv-x="389" unicode="Ļ"/>
			<glyph d="M158 750H216L57 0H-1ZM-22 -80H47L-21 -222H-73Z" horiz-adv-x="204" unicode="ļ"/>
			<glyph d="M154 698H216L80 58H307L295 0H6ZM300 728H360L303 564H260Z" horiz-adv-x="389" unicode="Ľ"/>
			<glyph d="M158 750H216L57 0H-1ZM272 728H332L275 564H232Z" horiz-adv-x="204" unicode="ľ"/>
			<glyph d="M154 698H216L80 58H307L295 0H6ZM236 408H294L273 310H215Z" horiz-adv-x="389" unicode="Ŀ"/>
			<glyph d="M158 750H216L57 0H-1ZM219 408H277L256 310H198Z" horiz-adv-x="300" unicode="ŀ"/>
			<glyph d="M154 698H216L147 373L337 523V469L133 308L80 58H307L295 0H6L59 249L-31 176V230L72 314Z" horiz-adv-x="389" unicode="Ł"/>
			<glyph d="M158 750H216L154 460H156L239 541V487L139 389L57 0H-1L65 316H63L-19 233V287L81 387Z" horiz-adv-x="204" unicode="ł"/>
			<glyph d="M154 698H232L395 78H397L529 698H587L439 0H360L196 616H194L64 0H6ZM430 869H503L386 727H333Z" horiz-adv-x="593" unicode="Ń"/>
			<glyph d="M282 517Q337 517 368 486T400 403Q400 380 392 337L321 0H263L330 316Q342 369 342 394Q342 427 322 445T266 463Q217 463 175 423T118 312L52 0H-6L68 353Q76 391 98 510H152Q150 493 143 452L140 435H142Q167 475 201 496T282 517ZM335 728H408L291 586H238Z" unicode="ń"/>
			<glyph d="M154 698H232L395 78H397L529 698H587L439 0H360L196 616H194L64 0H6ZM185 -80H254L186 -222H134Z" horiz-adv-x="593" unicode="Ņ"/>
			<glyph d="M282 517Q337 517 368 486T400 403Q400 380 392 337L321 0H263L330 316Q342 369 342 394Q342 427 322 445T266 463Q217 463 175 423T118 312L52 0H-6L68 353Q76 391 98 510H152Q150 493 143 452L140 435H142Q167 475 201 496T282 517ZM109 -80H178L110 -222H58Z" unicode="ņ"/>
			<glyph d="M154 698H232L395 78H397L529 698H587L439 0H360L196 616H194L64 0H6ZM285 869H340L387 767L476 869H537L410 727H352Z" horiz-adv-x="593" unicode="Ň"/>
			<glyph d="M282 517Q337 517 368 486T400 403Q400 380 392 337L321 0H263L330 316Q342 369 342 394Q342 427 322 445T266 463Q217 463 175 423T118 312L52 0H-6L68 353Q76 391 98 510H152Q150 493 143 452L140 435H142Q167 475 201 496T282 517ZM182 728H237L284 626L373 728H434L307 586H249Z" unicode="ň"/>
			<glyph d="M322 517Q377 517 408 486T440 403Q440 380 432 337L361 0H303L370 316Q382 369 382 394Q382 427 362 445T306 463Q257 463 215 423T158 312L92 0H34L108 353Q116 391 138 510H192Q190 493 183 452L180 435H182Q207 475 241 496T322 517ZM100 750H171L80 528H25Z" horiz-adv-x="503" unicode="ŉ"/>
			<glyph d="M365 705Q456 705 506 646T557 485Q557 366 517 252T403 65T229 -7Q139 -7 88 51T37 211Q37 335 77 449T193 634T365 705ZM362 647Q285 647 225 581T134 414T103 213Q103 137 137 94T231 51Q310 51 369 116T460 282T491 485Q491 561 457 604T362 647ZM276 821H514L504 775H266Z" horiz-adv-x="594" unicode="Ō"/>
			<glyph d="M258 517Q332 517 372 470T412 338Q412 263 384 182T299 47T165 -7Q91 -7 51 39T12 169Q12 255 42 335T129 466T258 517ZM255 463Q200 463 159 419T96 307T74 169Q74 47 171 47Q223 47 264 89T327 200T350 341Q350 401 325 432T255 463ZM175 680H413L403 634H165Z" horiz-adv-x="464" unicode="ō"/>
			<glyph d="M365 705Q456 705 506 646T557 485Q557 366 517 252T403 65T229 -7Q139 -7 88 51T37 211Q37 335 77 449T193 634T365 705ZM362 647Q285 647 225 581T134 414T103 213Q103 137 137 94T231 51Q310 51 369 116T460 282T491 485Q491 561 457 604T362 647ZM284 858H324V851Q324 818 341 800T390 782Q423 782 446 801T482 858H522Q507 798 472 767T386 736Q338 736 310 764T282 834Q282 842 284 858Z" horiz-adv-x="594" unicode="Ŏ"/>
			<glyph d="M258 517Q332 517 372 470T412 338Q412 263 384 182T299 47T165 -7Q91 -7 51 39T12 169Q12 255 42 335T129 466T258 517ZM255 463Q200 463 159 419T96 307T74 169Q74 47 171 47Q223 47 264 89T327 200T350 341Q350 401 325 432T255 463ZM184 717H224V711Q224 678 241 659T290 641Q323 641 347 661T382 717H422Q407 657 372 626T286 595Q239 595 210 623T182 696Q182 705 184 717Z" horiz-adv-x="464" unicode="ŏ"/>
			<glyph d="M365 705Q456 705 506 646T557 485Q557 366 517 252T403 65T229 -7Q139 -7 88 51T37 211Q37 335 77 449T193 634T365 705ZM362 647Q285 647 225 581T134 414T103 213Q103 137 137 94T231 51Q310 51 369 116T460 282T491 485Q491 561 457 604T362 647ZM350 869H419L312 727H263ZM490 869H559L452 727H403Z" horiz-adv-x="594" unicode="Ő"/>
			<glyph d="M258 517Q332 517 372 470T412 338Q412 263 384 182T299 47T165 -7Q91 -7 51 39T12 169Q12 255 42 335T129 466T258 517ZM255 463Q200 463 159 419T96 307T74 169Q74 47 171 47Q223 47 264 89T327 200T350 341Q350 401 325 432T255 463ZM260 728H329L222 586H173ZM400 728H469L362 586H313Z" horiz-adv-x="464" unicode="ő"/>
			<glyph d="M387 705Q399 705 433 701T480 698H747L735 640H517L464 392H671L658 334H451L393 58H622L610 0H332Q319 0 294 -3T254 -7Q151 -7 93 56T35 230Q35 341 72 450T189 632T387 705ZM375 647Q289 647 226 588T130 434T98 234Q98 149 140 100T256 51Q299 51 331 58L455 640Q425 647 375 647Z" horiz-adv-x="741" unicode="Œ"/>
			<glyph d="M257 517Q313 517 349 487T401 405Q472 517 565 517Q629 517 665 477T702 367Q702 306 685 236H399Q393 211 393 175Q393 113 421 80T504 47Q537 47 573 58T633 89L622 22Q569 -7 500 -7Q439 -7 399 20T344 102Q270 -7 167 -7Q91 -7 51 39T12 172Q12 257 44 337T132 467T257 517ZM254 463Q203 463 161 420T97 309T74 169Q74 109 98 78T169 47Q222 47 263 90T328 202T351 341Q351 463 254 463ZM562 463Q513 463 473 418T410 290H635Q642 332 642 367Q642 414 621 438T562 463Z" horiz-adv-x="741" unicode="œ"/>
			<glyph d="M154 698H284Q362 698 410 658T458 551Q458 473 415 419T291 350V348Q312 339 324 324T342 279L393 0H328L286 245Q279 286 263 305T218 325H137L68 0H6ZM204 640L149 383H237Q280 383 315 404T371 462T392 547Q392 593 361 616T278 640ZM353 869H426L309 727H256Z" horiz-adv-x="500" unicode="Ŕ"/>
			<glyph d="M289 517H292L280 455Q213 455 174 424T122 330L52 0H-6L68 351Q79 404 98 510H152L139 429H141Q166 465 184 483T227 509T289 517ZM269 728H342L225 586H172Z" horiz-adv-x="278" unicode="ŕ"/>
			<glyph d="M154 698H284Q362 698 410 658T458 551Q458 473 415 419T291 350V348Q312 339 324 324T342 279L393 0H328L286 245Q279 286 263 305T218 325H137L68 0H6ZM204 640L149 383H237Q280 383 315 404T371 462T392 547Q392 593 361 616T278 640ZM152 -80H221L153 -222H101Z" horiz-adv-x="500" unicode="Ŗ"/>
			<glyph d="M289 517H292L280 455Q213 455 174 424T122 330L52 0H-6L68 351Q79 404 98 510H152L139 429H141Q166 465 184 483T227 509T289 517ZM-24 -80H45L-23 -222H-75Z" horiz-adv-x="278" unicode="ŗ"/>
			<glyph d="M154 698H284Q362 698 410 658T458 551Q458 473 415 419T291 350V348Q312 339 324 324T342 279L393 0H328L286 245Q279 286 263 305T218 325H137L68 0H6ZM204 640L149 383H237Q280 383 315 404T371 462T392 547Q392 593 361 616T278 640ZM205 869H260L307 767L396 869H457L330 727H272Z" horiz-adv-x="500" unicode="Ř"/>
			<glyph d="M289 517H292L280 455Q213 455 174 424T122 330L52 0H-6L68 351Q79 404 98 510H152L139 429H141Q166 465 184 483T227 509T289 517ZM117 728H172L219 626L308 728H369L242 586H184Z" horiz-adv-x="278" unicode="ř"/>
			<glyph d="M289 705Q322 705 349 699T411 683L393 613Q366 631 341 639T285 647Q223 647 188 613T153 519Q153 486 170 459T226 399Q288 345 315 303T343 210Q343 112 285 52T130 -7Q42 -7 -10 26L9 98Q58 51 132 51Q199 51 238 92T277 202Q277 240 255 273T182 348Q87 423 87 510Q87 600 140 652T289 705ZM339 869H412L295 727H242Z" horiz-adv-x="426" unicode="Ś"/>
			<glyph d="M214 517Q246 517 276 512T316 502L295 442Q272 453 253 458T212 463Q167 463 140 437T113 372Q113 346 128 326T175 285Q228 250 248 220T269 149Q269 77 222 35T97 -7Q59 -7 31 -1T-32 17L-10 82Q5 68 37 57T101 47Q147 47 177 73T207 141Q207 171 190 193T135 239Q93 265 72 295T51 366Q51 435 95 476T214 517ZM273 728H346L229 586H176Z" horiz-adv-x="352" unicode="ś"/>
			<glyph d="M289 705Q322 705 349 699T411 683L393 613Q366 631 341 639T285 647Q223 647 188 613T153 519Q153 486 170 459T226 399Q288 345 315 303T343 210Q343 112 285 52T130 -7Q42 -7 -10 26L9 98Q58 51 132 51Q199 51 238 92T277 202Q277 240 255 273T182 348Q87 423 87 510Q87 600 140 652T289 705ZM286 869H344L411 727H357L311 829L221 727H159Z" horiz-adv-x="426" unicode="Ŝ"/>
			<glyph d="M214 517Q246 517 276 512T316 502L295 442Q272 453 253 458T212 463Q167 463 140 437T113 372Q113 346 128 326T175 285Q228 250 248 220T269 149Q269 77 222 35T97 -7Q59 -7 31 -1T-32 17L-10 82Q5 68 37 57T101 47Q147 47 177 73T207 141Q207 171 190 193T135 239Q93 265 72 295T51 366Q51 435 95 476T214 517ZM218 728H276L343 586H289L243 688L153 586H91Z" horiz-adv-x="352" unicode="ŝ"/>
			<glyph d="M289 705Q322 705 349 699T411 683L393 613Q366 631 341 639T285 647Q223 647 188 613T153 519Q153 486 170 459T226 399Q288 345 315 303T343 210Q343 121 292 61T152 -6L107 -55L108 -57Q119 -53 133 -53Q165 -53 185 -70T205 -114Q205 -154 171 -177T84 -200Q29 -200 7 -184L23 -156Q45 -164 57 -167T82 -170Q114 -170 132 -157T150 -120Q150 -103 138 -92T110 -82Q90 -82 61 -95L51 -81L116 -7Q74 -4 43 3T-10 26L9 98Q58 51 132 51Q199 51 238 92T277 202Q277 240 255 273T182 348Q87 423 87 510Q87 600 140 652T289 705Z" horiz-adv-x="426" unicode="Ş"/>
			<glyph d="M214 517Q237 517 271 511T316 502L295 442Q272 453 253 458T212 463Q167 463 140 437T113 372Q113 346 128 326T176 285Q229 251 249 221T269 149Q269 84 228 42T117 -6L72 -55L73 -57Q84 -53 99 -53Q131 -53 150 -70T170 -114Q170 -153 137 -176T49 -200Q-3 -200 -28 -184L-12 -156Q12 -165 23 -167T46 -170Q115 -170 115 -120Q115 -103 103 -92T75 -82Q54 -82 26 -95L16 -81L81 -7Q14 -2 -32 17L-10 82Q5 68 37 57T99 47Q147 47 177 73T207 141Q207 171 190 193T135 239Q93 265 72 295T51 366Q51 435 95 476T214 517Z" horiz-adv-x="352" unicode="ş"/>
			<glyph d="M289 705Q322 705 349 699T411 683L393 613Q366 631 341 639T285 647Q223 647 188 613T153 519Q153 486 170 459T226 399Q288 345 315 303T343 210Q343 112 285 52T130 -7Q42 -7 -10 26L9 98Q58 51 132 51Q199 51 238 92T277 202Q277 240 255 273T182 348Q87 423 87 510Q87 600 140 652T289 705ZM189 869H244L291 767L380 869H441L314 727H256Z" horiz-adv-x="426" unicode="Š"/>
			<glyph d="M214 517Q246 517 276 512T316 502L295 442Q272 453 253 458T212 463Q167 463 140 437T113 372Q113 346 128 326T175 285Q228 250 248 220T269 149Q269 77 222 35T97 -7Q59 -7 31 -1T-32 17L-10 82Q5 68 37 57T101 47Q147 47 177 73T207 141Q207 171 190 193T135 239Q93 265 72 295T51 366Q51 435 95 476T214 517ZM121 728H176L223 626L312 728H373L246 586H188Z" horiz-adv-x="352" unicode="š"/>
			<glyph d="M94 698H480L468 640H306L170 0H108L244 640H82ZM86 -80H155L87 -222H35Z" horiz-adv-x="426" unicode="Ţ"/>
			<glyph d="M211 630L186 510H290L278 456H174L106 133Q100 104 100 83Q100 69 110 58T144 47Q162 47 172 49T194 58L182 0Q161 -7 128 -7Q87 -7 63 16T39 77Q39 91 43 113L116 456H40L52 510H128L150 612ZM40 -80H109L41 -222H-11Z" horiz-adv-x="278" unicode="ţ"/>
			<glyph d="M94 698H480L468 640H306L170 0H108L244 640H82ZM194 869H249L296 767L385 869H446L319 727H261Z" horiz-adv-x="426" unicode="Ť"/>
			<glyph d="M211 630L186 510H290L278 456H174L106 133Q100 104 100 83Q100 69 110 58T144 47Q162 47 172 49T194 58L182 0Q161 -7 128 -7Q87 -7 63 16T39 77Q39 91 43 113L116 456H40L52 510H128L150 612ZM302 728H362L305 564H262Z" horiz-adv-x="278" unicode="ť"/>
			<glyph d="M94 698H480L468 640H306L273 488H395L385 442H263L170 0H108L201 442H78L88 488H211L244 640H82Z" horiz-adv-x="426" unicode="Ŧ"/>
			<glyph d="M211 630L186 510H290L278 456H174L152 353H245L236 311H143L106 133Q100 104 100 83Q100 69 110 58T144 47Q162 47 172 49T194 58L182 0Q161 -7 128 -7Q87 -7 63 16T39 77Q39 91 43 113L85 311H22L31 353H94L116 456H40L52 510H128L150 612Z" horiz-adv-x="278" unicode="ŧ"/>
			<glyph d="M154 698H216L119 243Q113 216 113 177Q113 117 144 84T233 51Q293 51 328 79T382 154T415 272L506 698H568L475 259Q446 123 388 58T231 -7Q144 -7 97 39T51 173Q51 215 57 244ZM478 850H520Q496 751 432 751Q419 751 403 757T367 776Q337 795 323 795Q306 795 294 784T275 746H233Q246 795 268 820T324 845Q338 845 353 838T387 821Q402 812 413 806T433 801Q468 801 478 850Z" horiz-adv-x="574" unicode="Ũ"/>
			<glyph d="M103 510H161L88 167Q82 135 82 117Q82 84 101 65T157 47Q208 47 248 87T300 181L370 510H428L354 158L324 0H270Q271 21 282 75H280Q255 32 222 12T142 -7Q85 -7 54 22T24 107Q24 133 32 173ZM383 709H425Q401 610 337 610Q324 610 308 616T272 635Q242 654 228 654Q211 654 200 643T180 605H138Q151 654 173 679T229 704Q243 704 259 697T296 678Q301 675 315 667T338 660Q373 660 383 709Z" unicode="ũ"/>
			<glyph d="M154 698H216L119 243Q113 216 113 177Q113 117 144 84T233 51Q293 51 328 79T382 154T415 272L506 698H568L475 259Q446 123 388 58T231 -7Q144 -7 97 39T51 173Q51 215 57 244ZM264 821H502L492 775H254Z" horiz-adv-x="574" unicode="Ū"/>
			<glyph d="M103 510H161L88 167Q82 135 82 117Q82 84 101 65T157 47Q208 47 248 87T300 181L370 510H428L354 158L324 0H270Q271 21 282 75H280Q255 32 222 12T142 -7Q85 -7 54 22T24 107Q24 133 32 173ZM178 680H416L406 634H168Z" unicode="ū"/>
			<glyph d="M154 698H216L119 243Q113 216 113 177Q113 117 144 84T233 51Q293 51 328 79T382 154T415 272L506 698H568L475 259Q446 123 388 58T231 -7Q144 -7 97 39T51 173Q51 215 57 244ZM271 858H311V851Q311 818 328 800T377 782Q410 782 433 801T469 858H509Q494 798 459 767T373 736Q325 736 297 764T269 834Q269 842 271 858Z" horiz-adv-x="574" unicode="Ŭ"/>
			<glyph d="M103 510H161L88 167Q82 135 82 117Q82 84 101 65T157 47Q208 47 248 87T300 181L370 510H428L354 158L324 0H270Q271 21 282 75H280Q255 32 222 12T142 -7Q85 -7 54 22T24 107Q24 133 32 173ZM174 717H214V711Q214 678 231 659T280 641Q313 641 337 661T372 717H412Q397 657 362 626T276 595Q229 595 200 623T172 696Q172 705 174 717Z" unicode="ŭ"/>
			<glyph d="M154 698H216L119 243Q113 216 113 177Q113 117 144 84T233 51Q293 51 328 79T382 154T415 272L506 698H568L475 259Q446 123 388 58T231 -7Q144 -7 97 39T51 173Q51 215 57 244ZM393 913Q431 913 455 889T480 829Q480 782 449 750T370 719Q332 719 307 742T283 803Q283 851 314 882T393 913ZM391 880Q362 880 341 858T320 805Q320 783 334 767T371 752Q401 752 422 774T443 827Q443 849 428 864T391 880Z" horiz-adv-x="574" unicode="Ů"/>
			<glyph d="M103 510H161L88 167Q82 135 82 117Q82 84 101 65T157 47Q208 47 248 87T300 181L370 510H428L354 158L324 0H270Q271 21 282 75H280Q255 32 222 12T142 -7Q85 -7 54 22T24 107Q24 133 32 173ZM303 762Q342 762 366 738T390 678Q390 630 359 599T280 568Q242 568 217 591T193 652Q193 699 224 730T303 762ZM302 729Q272 729 251 707T230 654Q230 631 244 616T281 601Q311 601 332 623T353 676Q353 697 338 713T302 729Z" unicode="ů"/>
			<glyph d="M154 698H216L119 243Q113 216 113 177Q113 117 144 84T233 51Q293 51 328 79T382 154T415 272L506 698H568L475 259Q446 123 388 58T231 -7Q144 -7 97 39T51 173Q51 215 57 244ZM347 869H416L309 727H260ZM487 869H556L449 727H400Z" horiz-adv-x="574" unicode="Ű"/>
			<glyph d="M103 510H161L88 167Q82 135 82 117Q82 84 101 65T157 47Q208 47 248 87T300 181L370 510H428L354 158L324 0H270Q271 21 282 75H280Q255 32 222 12T142 -7Q85 -7 54 22T24 107Q24 133 32 173ZM268 728H337L230 586H181ZM408 728H477L370 586H321Z" unicode="ű"/>
			<glyph d="M154 698H216L119 244Q113 217 113 177Q113 117 144 84T233 51Q302 51 344 93T408 241L506 698H568L475 260Q447 127 396 66T268 -4Q218 -33 195 -62T172 -125Q172 -146 184 -158T214 -170Q237 -170 262 -158L270 -183Q252 -192 237 -196T206 -200Q163 -200 138 -181T113 -129Q113 -92 139 -62T219 -7Q137 -3 94 43T51 175Q51 215 57 242Z" horiz-adv-x="574" unicode="Ų"/>
			<glyph d="M103 510H161L88 169Q82 145 82 117Q82 84 101 65T158 47Q208 47 248 88T300 181L370 510H428L354 158Q346 120 324 0Q276 -24 247 -57T219 -125Q219 -145 231 -157T262 -170Q282 -170 309 -158L317 -183Q298 -192 284 -196T253 -200Q209 -200 184 -182T160 -129Q160 -90 189 -58T282 0H270Q271 20 282 75H280Q255 34 222 13T142 -7Q85 -7 54 22T24 107Q24 133 32 173Z" unicode="ų"/>
			<glyph d="M80 698H144L146 74H148L416 698H501L509 74H511L770 698H834L533 0H454L443 627H441L170 0H94ZM455 869H513L580 727H526L480 829L390 727H328Z" horiz-adv-x="778" unicode="Ŵ"/>
			<glyph d="M39 510H99L118 62H120L310 510H385L408 62H410L605 510H665L430 0H357L336 444H334L143 0H73ZM359 728H417L484 586H430L384 688L294 586H232Z" horiz-adv-x="648" unicode="ŵ"/>
			<glyph d="M111 698H174L249 361L456 698H525L269 302L205 0H143L207 302ZM326 869H384L451 727H397L351 829L261 727H199Z" horiz-adv-x="500" unicode="Ŷ"/>
			<glyph d="M37 510H97L126 86H128L327 510H387L101 -86Q63 -164 34 -193T-36 -222Q-64 -222 -84 -216L-70 -157Q-64 -162 -52 -165T-31 -168Q4 -168 29 -117L79 -13ZM226 728H284L351 586H297L251 688L161 586H99Z" horiz-adv-x="370" unicode="ŷ"/>
			<glyph d="M111 698H174L249 361L456 698H525L269 302L205 0H143L207 302ZM247 853H305L284 755H226ZM397 853H455L434 755H376Z" horiz-adv-x="500" unicode="Ÿ"/>
			<glyph d="M118 698H471L460 638L42 58H344L332 0H-38L-27 62L390 640H106ZM351 869H424L307 727H254Z" horiz-adv-x="444" unicode="Ź"/>
			<glyph d="M70 510H367L356 452L32 54H275L264 0H-45L-34 58L289 456H58ZM289 728H362L245 586H192Z" horiz-adv-x="370" unicode="ź"/>
			<glyph d="M118 698H471L460 638L42 58H344L332 0H-38L-27 62L390 640H106ZM294 853H352L331 755H273Z" horiz-adv-x="444" unicode="Ż"/>
			<glyph d="M70 510H367L356 452L32 54H275L264 0H-45L-34 58L289 456H58ZM233 712H291L270 614H212Z" horiz-adv-x="370" unicode="ż"/>
			<glyph d="M118 698H471L460 638L42 58H344L332 0H-38L-27 62L390 640H106ZM198 869H253L300 767L389 869H450L323 727H265Z" horiz-adv-x="444" unicode="Ž"/>
			<glyph d="M70 510H367L356 452L32 54H275L264 0H-45L-34 58L289 456H58ZM141 728H196L243 626L332 728H393L266 586H208Z" horiz-adv-x="370" unicode="ž"/>
			<glyph d="M388 705Q405 705 415 703T445 692L433 635Q414 651 387 651Q331 651 307 544L277 412H367V362H266L188 -10Q171 -91 149 -137T98 -202T27 -222Q4 -222 -19 -212L-8 -152Q-4 -153 6 -156T27 -160Q69 -160 89 -125T126 -6L204 362H117V412H215L236 512Q258 615 294 660T388 705Z" horiz-adv-x="480" unicode="ƒ"/>
			<glyph d="M289 705Q322 705 349 699T411 683L393 613Q366 631 341 639T285 647Q223 647 188 613T153 519Q153 486 170 459T226 399Q288 345 315 303T343 210Q343 112 285 52T130 -7Q42 -7 -10 26L9 98Q58 51 132 51Q199 51 238 92T277 202Q277 240 255 273T182 348Q87 423 87 510Q87 600 140 652T289 705ZM98 -80H167L99 -222H47Z" horiz-adv-x="426" unicode="Ș"/>
			<glyph d="M214 517Q246 517 276 512T316 502L295 442Q272 453 253 458T212 463Q167 463 140 437T113 372Q113 346 128 326T175 285Q228 250 248 220T269 149Q269 77 222 35T97 -7Q59 -7 31 -1T-32 17L-10 82Q5 68 37 57T101 47Q147 47 177 73T207 141Q207 171 190 193T135 239Q93 265 72 295T51 366Q51 435 95 476T214 517ZM64 -80H133L65 -222H13Z" horiz-adv-x="352" unicode="ș"/>
			<glyph d="M94 698H480L468 640H306L170 0H108L244 640H82ZM86 -80H155L87 -222H35Z" horiz-adv-x="426" unicode="Ț"/>
			<glyph d="M211 630L186 510H290L278 456H174L106 133Q100 104 100 83Q100 69 110 58T144 47Q162 47 172 49T194 58L182 0Q161 -7 128 -7Q87 -7 63 16T39 77Q39 91 43 113L116 456H40L52 510H128L150 612ZM40 -80H109L41 -222H-11Z" horiz-adv-x="278" unicode="ț"/>
			<glyph d="M107 510H165L36 -99Q23 -161 -7 -191T-89 -222Q-112 -222 -128 -216L-116 -158Q-108 -164 -87 -164Q-58 -164 -44 -149T-22 -97Z" horiz-adv-x="204" unicode="ȷ"/>
			<glyph d="M139 728H197L264 586H210L164 688L74 586H12Z" horiz-adv-x="186" unicode="ˆ"/>
			<glyph d="M42 728H97L144 626L233 728H294L167 586H109Z" horiz-adv-x="186" unicode="ˇ"/>
			<glyph d="M39 680H277L267 634H29Z" horiz-adv-x="186" unicode="ˉ"/>
			<glyph d="M47 717H87V711Q87 678 104 659T153 641Q186 641 210 661T245 717H285Q270 657 235 626T149 595Q102 595 73 623T45 696Q45 705 47 717Z" horiz-adv-x="186" unicode="˘"/>
			<glyph d="M136 712H194L173 614H115Z" horiz-adv-x="186" unicode="˙"/>
			<glyph d="M167 762Q206 762 230 738T254 678Q254 630 223 599T144 568Q106 568 81 591T57 652Q57 699 88 730T167 762ZM166 729Q136 729 115 707T94 654Q94 631 108 616T145 601Q175 601 196 623T217 676Q217 697 202 713T166 729Z" horiz-adv-x="186" unicode="˚"/>
			<glyph d="M32 0H73Q23 -27 -4 -59T-31 -125Q-31 -145 -18 -157T12 -170Q34 -170 59 -158L67 -183Q49 -192 34 -196T3 -200Q-41 -200 -65 -181T-90 -129Q-90 -90 -60 -58T32 0Z" horiz-adv-x="186" unicode="˛"/>
			<glyph d="M256 709H298Q274 610 210 610Q197 610 181 616T145 635Q115 654 101 654Q84 654 73 643T53 605H11Q24 654 46 679T102 704Q116 704 132 697T169 678Q174 675 188 667T211 660Q246 660 256 709Z" horiz-adv-x="186" unicode="˜"/>
			<glyph d="M119 728H188L81 586H32ZM259 728H328L221 586H172Z" horiz-adv-x="186" unicode="˝"/>
			<glyph d="M292 698H355L460 0H-61ZM311 634L33 55H390L313 634Z" horiz-adv-x="547" unicode="Δ"/>
			<glyph d="M364 710Q462 710 513 642T565 453Q565 339 516 235T384 55H502L492 0H299L311 58Q400 133 450 238T501 452Q501 546 466 600T364 654Q299 654 244 606T156 477T124 298Q124 231 144 168T202 58L195 0H5L15 55H129Q94 101 77 163T60 295Q60 416 103 511T217 658T364 710Z" horiz-adv-x="603" unicode="Ω"/>
			<glyph d="M110 508H167L124 257Q112 189 112 151Q112 47 186 47Q225 47 253 76T307 163Q316 186 322 213T342 326L373 508H432L369 138Q365 112 365 85Q365 65 371 57T391 49Q398 49 410 53L401 0Q386 -6 362 -6Q335 -6 322 11T310 65Q310 81 313 102H311Q282 48 249 21T176 -6Q104 -6 90 62H87Q85 23 74 -47L47 -210H-12Q16 -38 38 91T75 306Z" horiz-adv-x="479" unicode="μ"/>
			<glyph d="M44 508H490L481 457H409L348 111Q344 85 344 80Q344 46 372 46Q392 46 411 58L403 5Q397 1 378 -3T347 -7Q314 -7 298 9T283 57Q283 67 287 93L351 457H165L85 0H27L107 457H35Z" horiz-adv-x="487" unicode="π"/>
			<glyph d="M362 705Q419 705 492 695L480 639Q417 633 372 593T328 496Q328 472 340 446T369 396T390 365Q419 322 434 285T450 209Q450 111 394 52T244 -7Q185 -7 134 20L152 92Q170 72 198 61T251 51Q312 51 348 91T384 196Q384 228 370 260T329 333Q325 339 304 370T272 429T262 483Q262 540 296 583T392 651Q377 653 352 653Q275 653 227 612T164 493L62 0H0L106 499Q128 601 193 653T362 705Z" horiz-adv-x="527" unicode="ẞ"/>
			<glyph d="M37 308H241L229 250H25Z" horiz-adv-x="296" unicode="‐"/>
			<glyph d="M-9 306H491L479 252H-21Z" horiz-adv-x="500" unicode="–"/>
			<glyph d="M-9 306H991L979 252H-21Z" horiz-adv-x="1000" unicode="—"/>
			<glyph d="M197 750H252L177 528H106Z" horiz-adv-x="240" unicode="‘"/>
			<glyph d="M181 750H252L161 528H106Z" horiz-adv-x="240" unicode="’"/>
			<glyph d="M48 90H119L28 -132H-27Z" horiz-adv-x="240" unicode="‚"/>
			<glyph d="M246 750H301L226 528H155ZM390 750H445L370 528H299Z" horiz-adv-x="480" unicode="“"/>
			<glyph d="M230 750H301L210 528H155ZM374 750H445L354 528H301Z" horiz-adv-x="480" unicode="”"/>
			<glyph d="M93 90H164L73 -132H18ZM237 90H308L217 -132H164Z" horiz-adv-x="480" unicode="„"/>
			<glyph d="M287 698H341L302 517H442L432 467H292L193 0H139L238 467H98L108 517H248Z" horiz-adv-x="480" unicode="†"/>
			<glyph d="M287 698H341L304 524H444L433 474H293L240 224H380L369 174H229L193 0H139L175 174H35L46 224H186L239 474H99L110 524H250Z" horiz-adv-x="480" unicode="‡"/>
			<glyph d="M275 524Q317 524 352 504T407 450T427 374Q427 322 398 276T323 202T224 174Q182 174 147 193T93 247T73 324Q73 375 101 421T177 496T275 524Z" horiz-adv-x="500" unicode="•"/>
			<glyph d="M74 98H152L132 0H54ZM407 98H485L465 0H387ZM740 98H818L798 0H720Z" horiz-adv-x="1000" unicode="…"/>
			<glyph d="M465 730H508L130 -33H87ZM215 705Q258 705 282 675T307 590Q307 528 287 469T233 373T155 336Q111 336 87 365T63 451Q63 513 82 572T136 668T215 705ZM208 656Q183 656 162 623T128 541T116 453Q116 417 127 401T162 385Q187 385 208 418T242 499T255 588Q255 656 208 656ZM441 362Q485 362 509 332T534 248Q534 185 514 126T460 30T382 -7Q338 -7 314 22T290 107Q290 170 310 229T364 325T441 362ZM714 362Q758 362 782 332T807 248Q807 185 787 126T733 30T655 -7Q611 -7 587 22T563 107Q563 170 583 229T637 325T714 362ZM434 313Q410 313 388 280T354 199T342 110Q342 74 353 58T388 42Q413 42 434 75T468 156T481 245Q481 313 434 313ZM707 313Q683 313 661 280T627 199T615 110Q615 74 626 58T661 42Q686 42 707 75T741 156T754 245Q754 313 707 313Z" horiz-adv-x="870" unicode="‰"/>
			<glyph d="M179 466H235L88 262L155 54H103L27 264Z" horiz-adv-x="259" unicode="‹"/>
			<glyph d="M66 466H118L194 256L42 54H-14L133 258Z" horiz-adv-x="259" unicode="›"/>
			<glyph d="M276 731H328L-109 -33H-161Z" horiz-adv-x="167" unicode="⁄"/>
			<glyph d="M416 705Q478 705 539 682L515 617Q501 630 470 639T413 648Q329 648 263 592T164 438H457L442 396H152Q147 378 144 353T139 302H412L398 260H138Q138 158 182 104T310 50Q336 50 353 54T408 76L409 11Q370 0 350 -3T307 -7Q192 -7 132 61T71 260H2L18 302H72Q76 354 86 396H23L39 438H97Q124 520 172 580T284 672T416 705Z" horiz-adv-x="480" unicode="€"/>
			<glyph d="M155 698H527L518 654H376Q398 638 407 610T416 552V547H495L486 503H411Q397 424 338 379T197 335H143L311 0H240L78 340L88 386H183Q249 386 293 414T350 503H113L122 547H355V552Q355 600 325 627T246 654H145Z" horiz-adv-x="480" unicode="₹"/>
			<glyph d="M194 698H256L223 541L407 624L395 571L211 488L188 381L373 464L361 411L177 328L118 49Q195 49 244 82T323 180T375 347H436Q413 232 378 156T281 36T119 -7Q75 -7 46 0L108 297L23 259L35 312L120 350L142 457L57 419L69 472L154 510Z" horiz-adv-x="480" unicode="₺"/>
			<glyph d="M379 698H439L412 573Q595 551 595 257Q595 217 589 162T574 57L563 0H502L513 52Q522 98 528 152T534 252Q534 371 504 439T400 515L305 70H245L340 515Q263 508 200 433T95 254T32 52L21 0H-40L-27 64Q-3 181 47 294T174 487T352 573Z" horiz-adv-x="658" unicode="₼"/>
			<glyph d="M172 698H291Q377 698 428 656T480 533Q480 427 414 367T239 308H151L134 229H275L264 175H123L86 0H24L61 175H-8L3 229H72L89 308H20L31 362H101ZM222 640L162 362H238Q325 362 372 404T419 530Q419 583 385 611T294 640Z" horiz-adv-x="480" unicode="₽"/>
			<glyph d="M354 721Q392 721 415 695T439 628Q439 556 378 466T201 277L182 187Q180 178 171 139T164 86Q164 58 179 42T221 26Q243 26 266 35T323 69L337 37Q301 10 271 -2T209 -14Q163 -14 137 10T112 77Q112 112 143 240L69 176L52 207L153 290L207 543Q224 635 260 676T354 721ZM349 684Q334 684 316 674T285 637T256 537L211 328Q294 405 344 485T395 625Q395 652 382 668T349 684Z" horiz-adv-x="500" unicode="ℓ"/>
			<glyph d="M126 698H446L436 652H301L222 282H172L251 652H116ZM520 698H603L664 364L863 698H952L863 282H813L892 651H890L662 282H632L562 652H560L481 282H431Z" horiz-adv-x="1000" unicode="™"/>
			<glyph d="M364 710Q462 710 513 642T565 453Q565 339 516 235T384 55H502L492 0H299L311 58Q400 133 450 238T501 452Q501 546 466 600T364 654Q299 654 244 606T156 477T124 298Q124 231 144 168T202 58L195 0H5L15 55H129Q94 101 77 163T60 295Q60 416 103 511T217 658T364 710Z" horiz-adv-x="603" unicode="Ω"/>
			<glyph d="M282 535Q356 535 414 500T506 403T541 259H137V78Q196 19 282 19Q346 19 392 48T475 139L510 118Q464 45 412 14T283 -17Q207 -17 148 19T57 118T24 259Q24 336 57 399T149 499T282 535ZM280 500Q197 500 137 440V295H428V440Q365 500 280 500Z" horiz-adv-x="600" unicode="℮"/>
			<glyph d="M189 721Q265 721 319 676T402 550T430 363Q430 182 373 85T209 -12Q153 -12 108 17T38 98T13 211Q13 271 37 319T104 395T205 423Q255 423 298 399T373 335L374 390Q374 468 352 531T290 632T192 669Q163 669 138 659T81 624L48 664Q79 692 113 706T189 721ZM208 371Q147 371 108 325T70 210Q70 164 87 124T136 60T209 37Q276 37 318 100T368 276Q334 320 292 345T208 371Z" horiz-adv-x="489" unicode="∂"/>
			<glyph d="M292 698H355L460 0H-61ZM311 634L33 55H390L313 634Z" horiz-adv-x="547" unicode="∆"/>
			<glyph d="M72 786H636V-214H576V729H132V-214H72Z" horiz-adv-x="708" unicode="∏"/>
			<glyph d="M40 786H561V729H116L430 289L98 -158H573V-214H26V-163L357 289L40 734Z" horiz-adv-x="598" unicode="∑"/>
			<glyph d="M30 278H536V228H30Z" horiz-adv-x="600" unicode="−"/>
			<glyph d="M276 731H328L-109 -33H-161Z" horiz-adv-x="167" unicode="∕"/>
			<glyph d="M119 363Q140 363 153 350T167 317Q167 292 148 272T103 253Q82 253 68 265T55 299Q55 325 74 344T119 363Z" horiz-adv-x="240" unicode="∙"/>
			<glyph d="M409 786H465L255 -214H195L28 129L-17 107L-39 152L56 198L218 -142Z" horiz-adv-x="487" unicode="√"/>
			<glyph d="M544 393Q603 393 642 352T682 251Q682 188 644 147T546 107Q503 107 457 132T358 213Q304 165 272 142T218 113T167 107Q108 107 70 147T32 248Q32 288 49 321T98 373T166 392Q206 392 242 371T330 304L358 280Q421 346 460 369T544 393ZM544 340Q524 340 509 335T469 311T393 247Q455 193 485 176T549 160Q586 160 608 184T630 248Q630 290 607 315T544 340ZM165 339Q130 339 107 313T84 248Q84 209 107 184T169 160Q229 160 322 247Q314 252 281 278Q242 310 215 324T165 339Z" horiz-adv-x="759" unicode="∞"/>
			<glyph d="M334 786Q364 786 382 773T400 739Q400 724 390 715T366 706Q353 706 346 712T332 730Q327 738 323 742T315 746Q298 746 287 711T278 609L279 552V5Q279 -214 161 -214Q135 -214 118 -201T102 -168Q102 -154 111 -145T135 -137Q147 -137 153 -142T167 -160Q168 -161 172 -167T183 -174Q200 -174 209 -133T219 -15V511L218 583Q217 689 246 737T334 786Z" horiz-adv-x="540" unicode="∫"/>
			<glyph d="M495 396H535Q527 332 496 297T415 263Q362 263 269 300Q175 336 134 336Q102 336 80 314T54 255H12Q31 390 133 390Q184 390 279 353Q372 316 415 316Q447 316 467 337T495 396ZM495 230H535Q527 166 496 131T415 97Q363 97 270 134T134 171Q103 171 81 148T53 89H12Q23 158 53 191T133 224Q157 224 189 215T279 186Q333 167 362 159T414 151Q444 151 465 171T495 230Z" horiz-adv-x="593" unicode="≈"/>
			<glyph d="M403 529L455 500L382 375H533V325H353L269 181H533V131H240L147 -29L95 0L171 131H27V181H200L284 325H27V375H313Z" horiz-adv-x="593" unicode="≠"/>
			<glyph d="M519 512V453L94 292L519 131V71L19 262V321ZM19 28H519V-26H19Z" horiz-adv-x="593" unicode="≤"/>
			<glyph d="M19 512L519 321V262L19 71V131L444 292L19 453ZM19 28H519V-26H19Z" horiz-adv-x="593" unicode="≥"/>
			<glyph d="M267 747H325L494 356L325 -35H267L99 355ZM296 686L158 356L296 26L435 356Z" horiz-adv-x="593" unicode="◊"/>
			<glyph d="M113 869H180L235 727H188Z" horiz-adv-x="222" unicode=""/>
			<glyph d="M242 869H315L198 727H145Z" horiz-adv-x="222" unicode=""/>
			<glyph d="M187 869H245L312 727H258L212 829L122 727H60Z" horiz-adv-x="222" unicode=""/>
			<glyph d="M90 869H145L192 767L281 869H342L215 727H157Z" horiz-adv-x="222" unicode=""/>
			<glyph d="M302 850H344Q320 751 256 751Q243 751 227 757T191 776Q161 795 147 795Q130 795 118 784T99 746H57Q70 795 92 820T148 845Q162 845 177 838T211 821Q226 812 237 806T257 801Q292 801 302 850Z" horiz-adv-x="222" unicode=""/>
			<glyph d="M109 853H167L146 755H88ZM259 853H317L296 755H238Z" horiz-adv-x="222" unicode=""/>
			<glyph d="M87 821H325L315 775H77Z" horiz-adv-x="222" unicode=""/>
			<glyph d="M95 858H135V851Q135 818 152 800T201 782Q234 782 257 801T293 858H333Q318 798 283 767T197 736Q149 736 121 764T93 834Q93 842 95 858Z" horiz-adv-x="222" unicode=""/>
			<glyph d="M217 913Q255 913 279 889T304 829Q304 782 273 750T194 719Q156 719 131 742T107 803Q107 851 138 882T217 913ZM215 880Q186 880 165 858T144 805Q144 783 158 767T195 752Q225 752 246 774T267 827Q267 849 252 864T215 880Z" horiz-adv-x="222" unicode=""/>
			<glyph d="M163 869H232L125 727H76ZM303 869H372L265 727H216Z" horiz-adv-x="222" unicode=""/>
			<glyph d="M184 853H242L221 755H163Z" horiz-adv-x="222" unicode=""/>
			<glyph d="M104 728H164L107 564H64Z" horiz-adv-x="204" unicode=""/>
			<glyph d="M-23 -80H46L-22 -222H-74Z" horiz-adv-x="204" unicode=""/>
			<glyph d="M173 728H224L172 586H105Z" horiz-adv-x="204" unicode=""/>
			<glyph d="M0 718H512V0H0ZM50 667V50H462V667ZM259 609Q313 609 348 573T383 478Q383 441 368 415T318 357Q293 334 284 321T273 293T271 234H225L223 253Q223 306 235 333T287 396Q310 416 321 434T332 474Q332 509 309 534T256 559Q222 559 201 535T174 464L124 472Q130 539 165 574T259 609ZM222 184H278V117H222Z" horiz-adv-x="512" unicode=""/>
			<glyph d="M295 762Q322 762 349 757L337 699Q316 708 290 708Q247 708 226 673Q212 651 193 545L186 510H276L264 456H174L78 0H20L116 456H37L49 510H128L152 629Q178 762 295 762ZM400 713H470L451 623H381ZM366 510H424L316 0H258Z" unicode="ﬁ"/>
			<glyph d="M295 762Q322 762 349 757L337 699Q316 708 290 708Q247 708 226 673Q212 651 193 545L186 510H276L264 456H174L78 0H20L116 456H37L49 510H128L152 629Q178 762 295 762ZM416 750H474L315 0H257Z" unicode="ﬂ"/>
		</font>
</defs>
</svg>
