<?xml version="1.0" encoding="UTF-8"?>
<svg height="100%" width="100%" xmlns="http://www.w3.org/2000/svg">
	<defs>
		<font horiz-adv-x="556" id="web">
			<font-face alphabetic="0" ascent="961" descent="-250" font-family="" panose-1="2 11 8 3 3 5 4 2 2 4"/>
			<missing-glyph d="M0 718H512V0H0ZM50 667V50H462V667ZM259 609Q313 609 348 573T383 478Q383 442 369 416T319 357Q289 329 281 314T272 270L271 234H225Q225 236 224 244T223 264Q223 301 233 325T276 385L292 402Q313 422 322 437T332 474Q332 510 309 534T256 559Q222 559 201 535T174 464L124 472Q130 538 165 573T259 609ZM222 184H278V117H222Z" horiz-adv-x="512"/>
			<glyph d="" horiz-adv-x="278" unicode=" "/>
			<glyph d="M118 698H272L251 205H137ZM125 140H265V0H125Z" horiz-adv-x="389" unicode="!"/>
			<glyph d="M88 698H210V448H88ZM271 698H393V448H271Z" horiz-adv-x="481" unicode="&quot;"/>
			<glyph d="M191 698H280L252 493H354L382 698H470L442 493H523V413H430L413 285H494V205H402L373 0H285L314 205H212L182 0H94L123 205H33V285H134L151 413H63V493H163ZM240 413L223 285H325L342 413Z" unicode="#"/>
			<glyph d="M233 830H333V709Q406 706 469 685L456 570Q385 600 314 600Q269 600 236 576T204 503Q204 478 220 461T258 433T322 407Q381 384 420 361T484 299T510 199Q510 117 464 65T333 -4V-130H233V-12Q190 -11 158 -5T69 15L82 141Q162 98 240 98Q285 98 324 121T364 188Q364 224 336 245T248 291Q186 315 148 336T84 397T58 497Q58 585 105 636T233 704Z" unicode="$"/>
			<glyph d="M677 720H759L327 -22H245ZM274 710Q354 710 397 661T440 526Q440 439 397 390T274 342Q194 342 150 390T106 526Q106 613 150 661T274 710ZM273 630Q243 630 226 602T210 526Q210 478 226 450T274 422Q305 422 320 448T336 526Q336 630 273 630ZM729 356Q809 356 852 307T895 172Q895 85 852 36T729 -12Q649 -12 605 36T561 172Q561 259 605 307T729 356ZM729 276Q697 276 681 247T665 172Q665 125 681 96T729 68Q760 68 775 94T791 172Q791 223 775 249T729 276Z" horiz-adv-x="1000" unicode="%"/>
			<glyph d="M322 710Q408 710 465 669T523 552Q523 495 493 452T388 367L516 227Q536 250 547 285T560 379H682Q676 239 593 140L718 0H546L499 62Q463 26 413 7T309 -12Q237 -12 180 12T92 83T60 191Q60 261 95 306T207 383Q170 418 152 438T122 486T110 551Q110 599 139 635T218 690T322 710ZM324 612Q290 612 267 592T244 539Q244 517 258 495T310 439Q348 460 374 487T401 541Q401 574 379 593T324 612ZM279 307Q194 263 194 195Q194 150 228 121T312 92Q391 92 434 134Z" horiz-adv-x="722" unicode="&amp;"/>
			<glyph d="M78 698H200V448H78Z" horiz-adv-x="278" unicode="'"/>
			<glyph d="M199 756H326Q247 632 214 528T181 309Q181 195 215 87T326 -140H199Q116 -27 77 82T39 308Q39 429 75 533T199 756Z" horiz-adv-x="333" unicode="("/>
			<glyph d="M7 756H133Q221 636 257 531T294 308Q294 192 255 83T133 -140H7Q82 -20 117 88T152 308Q152 422 119 526T7 756Z" horiz-adv-x="333" unicode=")"/>
			<glyph d="M222 698H336L319 554L452 610L484 506L345 475L441 368L349 302L278 426L202 302L111 368L209 475L72 506L105 610L238 553Z" unicode="*"/>
			<glyph d="M248 506H352V305H554V201H352V0H248V201H46V305H248Z" horiz-adv-x="600" unicode="+"/>
			<glyph d="M87 140H232L141 -110H23Z" horiz-adv-x="278" unicode=","/>
			<glyph d="M35 324H298V214H35Z" horiz-adv-x="333" unicode="-"/>
			<glyph d="M69 140H209V0H69Z" horiz-adv-x="278" unicode="."/>
			<glyph d="M265 710H369L125 -12H21Z" horiz-adv-x="389" unicode="/"/>
			<glyph d="M285 710Q405 710 467 617T529 347Q529 172 467 80T285 -12Q165 -12 104 76T43 347Q43 517 104 613T285 710ZM284 606Q230 606 206 545T183 350Q183 276 189 222T217 130T285 92Q332 92 354 131T383 222T389 347Q389 419 383 473T354 566T284 606Z" horiz-adv-x="572" unicode="0"/>
			<glyph d="M216 698H340V0H200V539L82 443L12 534Z" horiz-adv-x="421" unicode="1"/>
			<glyph d="M266 710Q371 710 428 657T485 506Q485 429 427 338T222 110H507V0H43V117L127 195Q345 398 345 506Q345 549 312 574T231 600Q156 600 70 544L59 660Q159 710 266 710Z" horiz-adv-x="543" unicode="2"/>
			<glyph d="M235 710Q332 710 399 666T466 531Q466 471 434 430T336 364V362Q399 354 434 309T469 196Q469 94 396 41T200 -12Q154 -12 106 -6T19 11L27 130Q109 98 181 98Q238 98 283 124T329 197Q329 306 176 306H107V416H175Q244 416 285 440T326 508Q326 553 295 576T205 600Q125 600 49 563L41 675Q130 710 235 710Z" horiz-adv-x="505" unicode="3"/>
			<glyph d="M281 698H455V249H544V145H455V0H321V145H20V258ZM319 552L146 249H321V552Z" horiz-adv-x="564" unicode="4"/>
			<glyph d="M90 698H491V594H222L219 445Q236 448 251 450T283 452Q383 452 445 395T508 226Q508 155 475 101T380 17T236 -12Q201 -12 156 -6T73 8L76 133Q157 98 217 98Q285 98 326 130T368 221Q368 278 325 310T208 342Q143 342 83 323Z" horiz-adv-x="551" unicode="5"/>
			<glyph d="M330 710Q406 710 477 685L459 572Q428 585 399 592T337 600Q258 600 216 540T171 384L173 382Q198 418 231 435T309 452Q405 452 458 395T512 239Q512 119 452 53T280 -12Q162 -12 102 68T43 313Q43 492 114 601T330 710ZM276 348Q232 348 207 313T183 216Q183 162 207 127T280 92Q326 92 349 129T372 217Q372 272 348 310T276 348Z" horiz-adv-x="548" unicode="6"/>
			<glyph d="M31 698H481V582L233 0H81L340 588H31Z" horiz-adv-x="512" unicode="7"/>
			<glyph d="M270 710Q372 710 438 666T504 542Q504 488 471 441T388 375V374Q456 342 489 297T522 190Q522 94 459 41T282 -12Q168 -12 102 40T36 188Q36 246 67 288T164 362V364Q105 390 76 433T48 526Q48 615 108 662T270 710ZM283 606Q243 606 212 584T182 522Q182 489 208 463T292 417Q322 427 346 456T370 519Q370 554 348 580T283 606ZM265 306Q218 284 197 256T176 191Q176 149 207 120T282 92Q326 92 354 117T382 185Q382 226 353 256T265 306Z" horiz-adv-x="558" unicode="8"/>
			<glyph d="M268 710Q386 710 445 630T505 385Q505 202 433 95T218 -12Q142 -12 71 13L89 126Q153 98 211 98Q286 98 329 154T377 314L375 316Q351 280 318 263T240 246Q142 246 89 303T36 459Q36 579 96 644T268 710ZM267 606Q224 606 200 570T176 481Q176 424 200 387T271 350Q319 350 342 387T365 482Q365 536 341 571T267 606Z" horiz-adv-x="548" unicode="9"/>
			<glyph d="M69 515H209V375H69ZM69 140H209V0H69Z" horiz-adv-x="278" unicode=":"/>
			<glyph d="M69 515H209V375H69ZM87 140H232L141 -110H23Z" horiz-adv-x="278" unicode=";"/>
			<glyph d="M554 514V412L181 253L554 94V-8L46 210V296Z" horiz-adv-x="600" unicode="&lt;"/>
			<glyph d="M46 414H554V310H46ZM46 196H554V92H46Z" horiz-adv-x="600" unicode="="/>
			<glyph d="M46 514L554 296V210L46 -8V94L419 253L46 412Z" horiz-adv-x="600" unicode="&gt;"/>
			<glyph d="M248 710Q350 710 413 663T476 531Q476 488 454 450T385 362Q340 314 323 282T306 217V204H183Q183 257 201 305T272 409Q306 443 318 467T330 515Q330 560 297 583T215 606Q148 606 61 566L50 677Q161 710 248 710ZM175 140H315V0H175Z" horiz-adv-x="500" unicode="?"/>
			<glyph d="M424 710Q513 710 590 676T715 576T763 418Q763 322 717 259T611 167T511 138Q489 138 473 151T457 190H455Q409 138 354 138Q312 138 276 159T220 218T199 304Q199 368 226 423T301 511T405 544Q478 544 521 480L533 528H617L564 294Q555 258 555 251Q555 236 570 236Q598 236 624 256T666 316T683 413Q683 515 611 566T424 618Q344 618 279 581T177 483T141 349Q141 273 174 211T267 115T401 80Q557 80 631 143H716Q665 66 584 27T400 -12Q306 -12 222 30T88 156T37 349Q37 448 87 531T227 662T424 710ZM415 446Q384 446 358 427T317 378T303 318Q303 282 323 259T378 236Q409 236 434 255T474 304T489 366Q489 402 468 424T415 446Z" horiz-adv-x="800" unicode="@"/>
			<glyph d="M281 698H439L713 0H558L498 160H215L154 0H9ZM356 558L255 270H459L358 558Z" horiz-adv-x="722" unicode="A"/>
			<glyph d="M81 698H325Q433 698 491 652T550 520Q550 459 513 417T411 363V361Q483 354 527 310T571 202Q571 102 505 51T322 0H81ZM221 588V416H276Q410 416 410 501Q410 544 382 566T285 588ZM221 312V110H288Q357 110 394 134T431 207Q431 261 396 286T291 312Z" horiz-adv-x="611" unicode="B"/>
			<glyph d="M430 710Q467 710 510 702T588 681L578 563Q543 582 506 591T427 600Q358 600 304 567T222 477T193 347Q193 274 222 217T305 129T430 98Q469 98 513 105T583 127L589 10Q494 -12 430 -12Q249 -12 148 79T47 337Q47 454 92 538T224 666T430 710Z" horiz-adv-x="611" unicode="C"/>
			<glyph d="M81 698H274Q675 698 675 349Q675 0 275 0H81ZM221 588V110H300Q360 110 412 139T497 222T529 349Q529 418 498 472T415 557T296 588Z" horiz-adv-x="722" unicode="D"/>
			<glyph d="M81 698H493V588H221V416H470V306H221V110H495V0H81Z" unicode="E"/>
			<glyph d="M81 698H469V588H221V416H457V306H221V0H81Z" horiz-adv-x="500" unicode="F"/>
			<glyph d="M431 710Q538 710 635 681L626 563Q586 581 538 590T446 600Q369 600 312 568T224 479T193 347Q193 274 222 217T305 129T431 98Q482 98 522 108V290H374V400H656V24Q523 -12 430 -12Q250 -12 148 79T47 337Q47 453 92 537T224 665T431 710Z" horiz-adv-x="722" unicode="G"/>
			<glyph d="M81 698H221V416H501V698H641V0H501V306H221V0H81Z" horiz-adv-x="722" unicode="H"/>
			<glyph d="M69 698H209V0H69Z" horiz-adv-x="278" unicode="I"/>
			<glyph d="M180 698H320V170Q320 121 298 79T234 13T129 -12Q71 -12 22 1V122Q54 110 87 110Q135 110 157 135T180 224Z" horiz-adv-x="389" unicode="J"/>
			<glyph d="M81 698H221V398L473 698H645L358 369L657 0H474L223 324H221V0H81Z" horiz-adv-x="667" unicode="K"/>
			<glyph d="M81 698H221V110H492V0H81Z" horiz-adv-x="500" unicode="L"/>
			<glyph d="M81 698H305L471 169H473L639 698H863V0H729V576H727L539 0H405L217 576L215 574V0H81Z" horiz-adv-x="944" unicode="M"/>
			<glyph d="M74 698H246L512 176H514V698H648V0H477L210 522H208V0H74Z" horiz-adv-x="722" unicode="N"/>
			<glyph d="M389 710Q491 710 568 667T688 543T731 351Q731 240 689 157T569 31T389 -12Q282 -12 205 32T87 158T47 351Q47 461 88 542T206 666T389 710ZM388 600Q327 600 283 567T216 478T193 351Q193 237 244 167T389 98Q483 98 534 167T585 351Q585 418 563 474T497 565T388 600Z" horiz-adv-x="778" unicode="O"/>
			<glyph d="M69 698H249Q389 698 463 645T537 487Q537 379 467 322T270 265H209V0H69ZM209 588V375H256Q391 375 391 479Q391 533 356 560T258 588Z" unicode="P"/>
			<glyph d="M389 710Q497 710 574 664T691 537T731 351Q731 236 685 150T555 25L713 -132H544L422 -10Q411 -12 390 -12Q277 -12 200 34T85 163T47 351Q47 460 87 541T205 666T389 710ZM388 600Q327 600 282 566T215 475T193 351Q193 243 242 170T389 98Q488 98 536 170T585 351Q585 415 564 471T500 564T388 600Z" horiz-adv-x="778" unicode="Q"/>
			<glyph d="M69 698H288Q394 698 451 672T529 605T549 509Q549 446 510 401T405 347V345Q451 342 482 266L591 0H435L354 210Q342 241 332 257T304 281T255 290H209V0H69ZM209 588V400H263Q339 400 371 425T403 497Q403 542 371 565T269 588Z" horiz-adv-x="611" unicode="R"/>
			<glyph d="M303 710Q394 710 469 685L456 570Q385 600 314 600Q269 600 236 576T204 503Q204 478 220 461T257 434T322 407Q381 385 420 362T484 299T510 199Q510 98 441 43T247 -12Q198 -12 163 -6T69 15L82 141Q162 98 240 98Q285 98 324 121T364 188Q364 224 336 245T248 291Q186 315 148 336T84 397T58 497Q58 603 127 656T303 710Z" unicode="S"/>
			<glyph d="M8 698H548V588H348V0H208V588H8Z" unicode="T"/>
			<glyph d="M76 698H216V292Q216 98 361 98Q506 98 506 292V698H646V249Q646 -12 361 -12Q76 -12 76 250Z" horiz-adv-x="722" unicode="U"/>
			<glyph d="M10 698H160L339 150H341L518 698H657L422 0H250Z" horiz-adv-x="667" unicode="V"/>
			<glyph d="M10 698H157L287 140H289L408 698H598L721 140H723L854 698H990L808 0H628L502 558H500L376 0H195Z" horiz-adv-x="1000" unicode="W"/>
			<glyph d="M31 698H193L339 449L488 698H638L428 363L657 0H492L331 272L168 0H10L239 363Z" horiz-adv-x="667" unicode="X"/>
			<glyph d="M11 698H175L340 405L508 698H656L406 276V0H266V276Z" horiz-adv-x="667" unicode="Y"/>
			<glyph d="M49 698H513V584L182 110H520V0H36V114L364 588H49Z" unicode="Z"/>
			<glyph d="M72 756H296V658H200V-42H296V-140H72Z" horiz-adv-x="333" unicode="["/>
			<glyph d="M20 710H124L368 -12H264Z" horiz-adv-x="389" unicode="\"/>
			<glyph d="M37 756H261V-140H37V-42H133V658H37Z" horiz-adv-x="333" unicode="]"/>
			<glyph d="M253 698H347L534 313H430L300 593L170 313H66Z" horiz-adv-x="600" unicode="^"/>
			<glyph d="M0 -75H500V-125H0Z" horiz-adv-x="500" unicode="_"/>
			<glyph d="M29 713H166L249 567H166Z" horiz-adv-x="278" unicode="`"/>
			<glyph d="M271 527Q388 527 440 476T493 310V204Q493 170 495 107T501 0H383Q380 16 377 77H375Q353 36 309 12T216 -12Q169 -12 127 6T61 60T36 142Q36 226 98 272T288 318H371V320Q371 381 342 405T255 429Q214 429 172 414T96 373L92 488Q130 505 178 516T271 527ZM312 238Q164 238 164 149Q164 119 186 102T249 86Q300 86 335 123T371 232V238Z" unicode="a"/>
			<glyph d="M69 750H203V449H205Q234 487 271 507T359 527Q464 527 519 455T575 259Q575 138 521 63T359 -12Q308 -12 267 7T201 63H199V0H69ZM324 423Q284 423 257 398T217 336T204 259Q204 191 233 141T322 92Q380 92 407 141T435 259Q435 327 407 375T324 423Z" horiz-adv-x="611" unicode="b"/>
			<glyph d="M286 527Q358 527 415 510L403 404Q362 423 313 423Q251 423 213 378T176 260Q176 183 212 137T315 92Q337 92 364 98T418 116L424 5Q367 -12 291 -12Q171 -12 103 60T36 260Q36 337 66 397T152 492T286 527Z" horiz-adv-x="444" unicode="c"/>
			<glyph d="M408 750H542V0H412V58H410Q354 -12 252 -12Q143 -12 89 64T36 259Q36 381 91 454T252 527Q302 527 339 509T406 455H408ZM287 423Q232 423 204 375T176 259Q176 193 203 142T289 92Q349 92 378 142T407 259Q407 299 394 336T354 398T287 423Z" horiz-adv-x="611" unicode="d"/>
			<glyph d="M275 527Q403 527 461 450T520 216H164Q169 155 208 120T312 86Q356 86 398 100T482 138V29Q408 -12 306 -12Q178 -12 107 58T36 255Q36 330 62 391T142 490T275 527ZM282 429Q232 429 200 397T164 308H392Q388 365 360 397T282 429Z" unicode="e"/>
			<glyph d="M284 762Q332 762 380 751L369 640Q353 650 340 654T311 658Q282 658 267 637T252 579V515H369V417H252V0H118V417H19V515H118V588Q118 661 159 711T284 762Z" horiz-adv-x="389" unicode="f"/>
			<glyph d="M254 527Q307 527 346 507T412 445H414V515H542V48Q542 -84 474 -153T272 -222Q175 -222 92 -187L103 -73Q139 -92 182 -105T254 -118Q341 -118 374 -70T408 67V82H406Q384 44 340 22T246 0Q143 0 89 71T36 260Q36 326 59 387T132 488T254 527ZM295 423Q237 423 206 378T176 260Q176 223 189 187T228 127T290 104Q350 104 379 149T408 263Q408 331 381 377T295 423Z" horiz-adv-x="611" unicode="g"/>
			<glyph d="M69 750H203V445H205Q230 483 272 505T367 527Q453 527 497 472T542 326V0H408V291Q408 361 387 392T321 423Q263 423 233 375T203 249V0H69Z" horiz-adv-x="611" unicode="h"/>
			<glyph d="M72 737H206V609H72ZM72 515H206V0H72Z" horiz-adv-x="278" unicode="i"/>
			<glyph d="M72 737H206V609H72ZM72 515H206V-36Q206 -131 168 -176T50 -222Q3 -222 -32 -214L-28 -114Q-12 -118 8 -118Q40 -118 56 -97T72 -24Z" horiz-adv-x="278" unicode="j"/>
			<glyph d="M72 750H206V309H208L368 515H526L334 285L550 0H380L208 250H206V0H72Z" unicode="k"/>
			<glyph d="M72 750H206V0H72Z" horiz-adv-x="278" unicode="l"/>
			<glyph d="M348 527Q458 527 499 436Q520 478 563 502T661 527Q743 527 783 477T823 327V0H689V321Q689 376 669 399T612 423Q562 423 537 379T512 252V0H378V321Q378 376 359 399T301 423Q250 423 225 378T201 253V0H67V515H192V443H194Q221 483 260 505T348 527Z" horiz-adv-x="889" unicode="m"/>
			<glyph d="M367 527Q453 527 497 473T542 325V0H408V289Q408 359 387 391T321 423Q262 423 232 374T203 250V0H69V515H196V445H198Q256 527 367 527Z" horiz-adv-x="611" unicode="n"/>
			<glyph d="M305 527Q383 527 444 493T540 397T575 254Q575 178 542 117T447 22T305 -12Q224 -12 163 22T69 117T36 254Q36 335 70 397T166 493T305 527ZM305 423Q245 423 210 378T176 270Q176 186 208 139T305 92Q369 92 402 138T435 270Q435 335 401 379T305 423Z" horiz-adv-x="611" unicode="o"/>
			<glyph d="M359 527Q466 527 520 453T575 259Q575 138 520 63T356 -12Q305 -12 271 4T205 59H203V-210H69V515H197V442H199Q251 527 359 527ZM324 423Q283 423 256 398T216 335T204 259Q204 193 233 142T322 92Q380 92 407 142T435 259Q435 324 408 373T324 423Z" horiz-adv-x="611" unicode="p"/>
			<glyph d="M255 527Q361 527 412 442H414V515H542V-210H408V59H406Q374 21 340 4T255 -12Q146 -12 91 62T36 259Q36 385 92 456T255 527ZM287 423Q233 423 204 375T176 259Q176 191 204 141T289 92Q348 92 377 142T407 259Q407 298 394 335T354 398T287 423Z" horiz-adv-x="611" unicode="q"/>
			<glyph d="M335 527Q359 527 375 523V388Q356 399 315 399Q262 399 234 354T206 212V0H72V515H191V398H193Q197 426 216 456T268 507T335 527Z" horiz-adv-x="389" unicode="r"/>
			<glyph d="M239 527Q303 527 384 508L375 407Q340 419 313 424T256 429Q220 429 198 414T176 372Q176 351 196 338T265 312Q339 292 374 255T409 156Q409 75 348 31T192 -12Q124 -12 41 10L49 120Q117 86 181 86Q215 86 242 101T269 149Q269 176 246 191T173 220Q101 239 68 272T36 367Q36 442 92 484T239 527Z" horiz-adv-x="444" unicode="s"/>
			<glyph d="M247 661V515H366V417H247V178Q247 136 262 114T311 92Q349 92 371 106L375 0Q333 -12 277 -12Q197 -12 155 33T113 155V417H14V515H113V618Z" horiz-adv-x="389" unicode="t"/>
			<glyph d="M69 515H203V221Q203 151 225 121T290 92Q348 92 378 140T408 266V515H542V0H415V70H413Q380 30 337 9T244 -12Q159 -12 114 41T69 190Z" horiz-adv-x="611" unicode="u"/>
			<glyph d="M12 515H156L284 140H286L410 515H544L354 0H203Z" unicode="v"/>
			<glyph d="M11 515H153L267 134H269L373 515H529L641 134H643L750 515H878L720 0H562L450 393H448L338 0H185Z" horiz-adv-x="889" unicode="w"/>
			<glyph d="M27 515H185L286 347L385 515H527L373 270L547 0H387L272 192L156 0H9L186 270Z" unicode="x"/>
			<glyph d="M11 515H159L283 139H285L409 515H545L329 -57Q297 -142 255 -182T136 -222Q91 -222 43 -208L52 -109Q78 -118 120 -118Q162 -118 185 -92T208 -26Z" unicode="y"/>
			<glyph d="M47 515H455V405L199 104H464V0H36V109L297 411H47Z" horiz-adv-x="500" unicode="z"/>
			<glyph d="M248 756H323V676H279Q251 676 239 660T228 607V429Q228 378 199 346T116 309V307Q228 298 228 180V9Q228 -30 239 -45T279 -60H323V-140H249Q184 -140 142 -104T100 -6V167Q100 211 78 237T18 265V351Q57 352 78 377T100 443V622Q100 684 142 720T248 756Z" horiz-adv-x="333" unicode="{"/>
			<glyph d="M59 750H163V-250H59Z" horiz-adv-x="222" unicode="|"/>
			<glyph d="M10 756H84Q149 756 191 720T233 622V444Q233 401 255 376T315 351V265Q275 264 254 237T233 167V-6Q233 -67 192 -103T84 -140H10V-60H54Q83 -60 94 -45T105 9V178Q105 298 217 307V309Q165 315 135 345T105 431V607Q105 646 93 661T53 676H10Z" horiz-adv-x="333" unicode="}"/>
			<glyph d="M495 342L531 254Q479 166 416 166Q385 166 358 175T285 209Q236 236 191 236Q164 236 143 219T105 164L69 252Q114 340 190 340Q219 340 245 332T305 307Q348 285 370 277T412 270Q433 270 452 287T495 342Z" horiz-adv-x="600" unicode="~"/>
			<glyph d="" horiz-adv-x="278" unicode=" "/>
			<glyph d="M123 515H263V375H123ZM138 310H249L271 -183H117Z" horiz-adv-x="389" unicode="¡"/>
			<glyph d="M401 608H459L431 517Q443 516 465 510L453 404Q426 416 401 420L304 105Q329 92 365 92Q388 92 415 98T468 116L474 5Q420 -12 341 -12Q300 -12 270 -4L243 -90H185L217 14Q154 45 120 109T86 260Q86 333 114 393T198 490T336 527Q362 527 375 525ZM343 423Q289 416 257 371T226 260Q226 189 258 145Z" unicode="¢"/>
			<glyph d="M383 710Q456 710 512 693L505 583Q476 591 455 595T409 600Q346 600 314 562T282 469V403H429V323H282V104H505V0H54V104H142V323H66V403H142V488Q142 551 173 601T259 681T383 710Z" unicode="£"/>
			<glyph d="M77 611L135 553Q166 575 203 587T278 599Q316 599 353 587T421 553L479 611L538 552L480 494Q526 428 526 352Q526 275 480 208L538 150L479 91L421 149Q356 103 278 103Q241 103 203 115T135 149L77 91L18 150L76 208Q30 273 30 351Q30 428 76 494L18 552ZM277 495Q240 495 208 475T158 422T140 351Q140 312 159 279T209 226T278 207Q316 207 347 226T397 279T416 351Q416 390 397 423T347 475T277 495Z" unicode="¤"/>
			<glyph d="M-10 698H131L282 390L436 698H567L394 369H492V289H352L345 276V227H492V147H345V0H211V147H64V227H211V276L203 289H64V369H164Z" unicode="¥"/>
			<glyph d="M59 675H163V325H59ZM59 175H163V-175H59Z" horiz-adv-x="222" unicode="¦"/>
			<glyph d="M292 710Q328 710 361 705T451 690L440 581Q374 606 298 606Q201 606 201 538Q201 512 224 493T317 452Q402 425 446 388T491 287Q491 247 471 212T417 159Q449 141 467 110T485 44Q485 -10 454 -52T372 -115T264 -136Q222 -136 179 -128T79 -107L88 7Q183 -32 256 -32Q357 -32 357 37Q357 65 330 83T246 121Q187 142 150 160T89 209T66 285Q66 374 143 420Q105 446 89 474T73 539Q73 594 104 632T185 690T292 710ZM206 383Q191 372 180 351T170 309Q170 284 196 263T279 222T351 191Q387 222 387 266Q387 298 362 316T283 353T206 383Z" unicode="§"/>
			<glyph d="M-22 698H94V582H-22ZM184 698H300V582H184Z" horiz-adv-x="278" unicode="¨"/>
			<glyph d="M400 710Q497 710 580 661T712 530T761 349Q761 250 712 167T580 36T400 -12Q303 -12 220 36T88 167T39 351Q39 447 87 529T219 661T400 710ZM399 630Q327 630 268 594T176 494T143 349Q143 268 176 204T268 104T400 68Q473 68 531 104T623 205T657 349Q657 429 623 493T531 593T399 630ZM412 565Q483 565 529 525T586 415H506Q499 449 473 467T412 485Q363 485 335 449T308 353Q308 297 337 258T414 219Q452 219 477 237T506 291H589Q579 221 530 180T414 139Q355 139 308 166T236 242T210 352Q210 414 235 462T305 538T412 565Z" horiz-adv-x="800" unicode="©"/>
			<glyph d="M185 710Q260 710 294 679T328 574V541Q328 465 333 392H249L246 434H244Q222 384 150 384Q99 384 63 407T28 473Q28 584 200 584H242Q242 622 223 636T169 650Q115 650 64 619V685Q114 710 185 710ZM202 530Q114 530 114 479Q114 460 130 452T166 444Q204 444 223 469T243 530Z" horiz-adv-x="361" unicode="ª"/>
			<glyph d="M167 474H293L183 269L293 64H167L49 269ZM390 474H516L406 269L516 64H390L272 269Z" unicode="«"/>
			<glyph d="M46 414H554V108H450V310H46Z" horiz-adv-x="600" unicode="¬"/>
			<glyph d="M35 324H298V214H35Z" horiz-adv-x="333" unicode="­"/>
			<glyph d="M400 710Q497 710 580 661T712 530T761 349Q761 250 712 167T580 36T400 -12Q303 -12 220 36T88 167T39 351Q39 447 87 529T219 661T400 710ZM399 630Q327 630 268 594T176 494T143 349Q143 268 176 204T268 104T400 68Q473 68 531 104T623 205T657 349Q657 429 623 493T531 593T399 630ZM255 551H409Q489 551 527 522T566 431Q566 333 460 324L566 150H478L382 320H341V150H255ZM341 485V386H415Q450 386 465 398T480 438Q480 462 461 473T404 485Z" horiz-adv-x="800" unicode="®"/>
			<glyph d="M-5 680H283V600H-5Z" horiz-adv-x="278" unicode="¯"/>
			<glyph d="M200 710Q244 710 281 688T339 629T361 549Q361 504 339 467T281 409T200 388Q154 388 117 408T60 466T39 549Q39 593 61 630T120 688T200 710ZM200 637Q161 637 136 612T112 549Q112 510 136 485T200 461Q239 461 263 485T288 549Q288 588 263 612T200 637Z" horiz-adv-x="400" unicode="°"/>
			<glyph d="M248 506H352V374H554V270H352V137H248V270H46V374H248ZM46 104H554V0H46Z" horiz-adv-x="600" unicode="±"/>
			<glyph d="M176 856Q249 856 289 822T330 728Q330 689 302 645T234 567T161 516V514H332V428H30V510Q58 522 102 561T180 646T214 719Q214 743 198 756T153 770Q95 770 48 736L41 823Q103 856 176 856ZZ" horiz-adv-x="361" unicode="²"/>
			<glyph d="M169 856Q233 856 281 830T329 753Q329 713 308 685T246 648V646Q287 643 311 616T335 550Q335 489 281 455T151 422Q91 422 26 439L31 522Q66 512 90 507T138 502Q173 502 196 516T219 553Q219 602 145 602Q109 602 90 599V684Q114 682 145 682Q176 682 197 695T219 730Q219 776 155 776Q126 776 96 769T46 750L41 832Q110 856 169 856ZZZ" horiz-adv-x="361" unicode="³"/>
			<glyph d="M112 713H249L112 567H29Z" horiz-adv-x="278" unicode="´"/>
			<glyph d="M69 515H203V223Q203 147 226 119T290 92Q348 92 378 140T408 265V515H542V0H415V70H413Q397 34 366 11T297 -12Q261 -12 241 -3T205 22H203V-210H69Z" horiz-adv-x="611" unicode="µ"/>
			<glyph d="M240 698H535V-124H431V618H325V-124H221V341Q118 341 60 388T2 517Q2 609 61 653T240 698Z" horiz-adv-x="620" unicode="¶"/>
			<glyph d="M139 361Q173 361 194 339T216 284Q216 250 194 228T139 207Q105 207 83 228T62 284Q62 317 83 339T139 361Z" horiz-adv-x="278" unicode="·"/>
			<glyph d="M176 0H239L193 -53L195 -55Q220 -49 235 -49Q270 -49 293 -68T316 -119Q316 -167 281 -194T189 -222Q120 -222 75 -201L95 -147Q99 -148 120 -155T165 -162Q190 -162 204 -153T218 -127Q218 -110 206 -100T174 -91Q158 -91 132 -100L117 -74Z" horiz-adv-x="278" unicode="¸"/>
			<glyph d="M182 850H276V428H172V748L95 689L43 750Z" horiz-adv-x="361" unicode="¹"/>
			<glyph d="M200 710Q249 710 289 689T353 632T376 548Q376 475 326 429T199 384Q121 384 71 429T21 548Q21 595 45 632T110 689T200 710ZM202 650Q163 650 141 623T119 547Q119 495 138 469T200 444Q278 444 278 547Q278 592 259 621T202 650Z" horiz-adv-x="397" unicode="º"/>
			<glyph d="M40 474H166L284 269L166 64H40L150 269ZM263 474H389L507 269L389 64H263L373 269Z" unicode="»"/>
			<glyph d="M581 720H663L246 -22H164ZM159 703H253V281H149V601L72 542L20 603ZM635 422H760V159H808V79H760V0H656V79H455V164ZM654 330L540 159H656V330Z" horiz-adv-x="834" unicode="¼"/>
			<glyph d="M551 720H633L216 -22H134ZM149 703H243V281H139V601L62 542L10 603ZM645 428Q718 428 758 394T799 300Q799 261 771 218T703 139T630 88V86H801V0H499V82Q527 94 571 134T649 219T683 291Q683 315 667 328T622 342Q564 342 517 308L510 395Q572 428 645 428ZZ" horiz-adv-x="834" unicode="½"/>
			<glyph d="M593 720H675L258 -22H176ZM157 709Q221 709 269 683T317 606Q317 566 296 538T234 501V499Q275 496 299 469T323 403Q323 342 269 308T139 275Q79 275 14 292L19 375Q54 365 78 360T126 355Q161 355 184 369T207 406Q207 455 133 455Q98 455 78 452V537Q102 535 133 535Q164 535 185 548T207 583Q207 629 143 629Q114 629 84 622T34 603L29 685Q98 709 157 709ZM647 422H772V159H820V79H772V0H668V79H467V164ZM666 330L552 159H668V330ZZZ" horiz-adv-x="834" unicode="¾"/>
			<glyph d="M184 515H324V375H184ZM194 311H317Q317 259 304 221T273 160T224 102Q188 63 179 41T170 0Q170 -45 202 -68T286 -91Q324 -91 363 -80T439 -51L450 -162Q371 -195 253 -195Q149 -195 86 -148T24 -17Q24 26 45 64T112 149Q156 195 175 228T194 297Z" horiz-adv-x="500" unicode="¿"/>
			<glyph d="M281 698H439L713 0H558L498 160H215L154 0H9ZM356 558L255 270H459L358 558ZM229 886H366L449 740H366Z" horiz-adv-x="722" unicode="À"/>
			<glyph d="M281 698H439L713 0H558L498 160H215L154 0H9ZM356 558L255 270H459L358 558ZM369 886H506L369 740H286Z" horiz-adv-x="722" unicode="Á"/>
			<glyph d="M281 698H439L713 0H558L498 160H215L154 0H9ZM356 558L255 270H459L358 558ZM319 886H420L525 740H436L368 826L298 740H209Z" horiz-adv-x="722" unicode="Â"/>
			<glyph d="M281 698H439L713 0H558L498 160H215L154 0H9ZM356 558L255 270H459L358 558ZM489 877H543Q543 823 516 789T446 756Q420 756 399 761T351 777Q330 786 317 789T292 793Q270 793 256 780T243 749H189Q190 799 220 834T291 870Q311 870 331 864T379 847Q420 828 445 828Q467 828 478 842T489 877Z" horiz-adv-x="722" unicode="Ã"/>
			<glyph d="M281 698H439L713 0H558L498 160H215L154 0H9ZM356 558L255 270H459L358 558ZM206 871H322V755H206ZM412 871H528V755H412Z" horiz-adv-x="722" unicode="Ä"/>
			<glyph d="M281 698H439L713 0H558L498 160H215L154 0H9ZM356 558L255 270H459L358 558ZM358 943Q402 943 433 911T464 836Q464 792 433 761T358 730Q315 730 283 761T251 836Q251 879 283 911T358 943ZM358 889Q336 889 320 874T305 836Q305 814 320 799T358 784Q380 784 395 799T410 836Q410 858 395 873T358 889Z" horiz-adv-x="722" unicode="Å"/>
			<glyph d="M391 698H890V588H619L633 416H868V306H645L661 110H894V0H525L513 160H245L159 0H9ZM478 594L305 270H503L480 594Z" horiz-adv-x="944" unicode="Æ"/>
			<glyph d="M430 710Q513 710 588 681L578 563Q540 584 504 592T427 600Q358 600 304 567T222 477T193 347Q193 274 222 217T305 129T430 98Q469 98 512 105T583 127L589 10Q494 -12 428 -12Q420 -12 416 -11L380 -53L382 -55Q385 -54 398 -51T423 -49Q455 -49 479 -67T503 -119Q503 -168 468 -195T376 -222Q308 -222 262 -201L282 -147Q286 -148 307 -155T352 -162Q377 -162 391 -153T405 -127Q405 -110 393 -100T361 -91Q346 -91 319 -100L304 -74L358 -6Q208 10 127 99T47 337Q47 454 92 538T224 666T430 710Z" horiz-adv-x="611" unicode="Ç"/>
			<glyph d="M81 698H493V588H221V416H470V306H221V110H495V0H81ZM142 886H279L362 740H279Z" unicode="È"/>
			<glyph d="M81 698H493V588H221V416H470V306H221V110H495V0H81ZM282 886H419L282 740H199Z" unicode="É"/>
			<glyph d="M81 698H493V588H221V416H470V306H221V110H495V0H81ZM232 886H333L438 740H349L281 826L211 740H122Z" unicode="Ê"/>
			<glyph d="M81 698H493V588H221V416H470V306H221V110H495V0H81ZM119 871H235V755H119ZM325 871H441V755H325Z" unicode="Ë"/>
			<glyph d="M69 698H209V0H69ZM4 886H141L224 740H141Z" horiz-adv-x="278" unicode="Ì"/>
			<glyph d="M69 698H209V0H69ZM139 886H276L139 740H56Z" horiz-adv-x="278" unicode="Í"/>
			<glyph d="M69 698H209V0H69ZM91 886H192L297 740H208L140 826L70 740H-19Z" horiz-adv-x="278" unicode="Î"/>
			<glyph d="M69 698H209V0H69ZM-22 871H94V755H-22ZM184 871H300V755H184Z" horiz-adv-x="278" unicode="Ï"/>
			<glyph d="M81 698H274Q675 698 675 349Q675 0 275 0H81V336H17V422H81ZM221 588V422H367V336H221V110H300Q360 110 412 139T497 222T529 349Q529 418 498 472T415 557T296 588Z" horiz-adv-x="722" unicode="Ð"/>
			<glyph d="M74 698H246L512 176H514V698H648V0H477L210 522H208V0H74ZM487 877H541Q541 823 514 789T444 756Q418 756 397 761T349 777Q328 786 315 789T290 793Q268 793 254 780T241 749H187Q188 799 218 834T289 870Q309 870 329 864T377 847Q418 828 443 828Q465 828 476 842T487 877Z" horiz-adv-x="722" unicode="Ñ"/>
			<glyph d="M389 710Q491 710 568 667T688 543T731 351Q731 240 689 157T569 31T389 -12Q282 -12 205 32T87 158T47 351Q47 461 88 542T206 666T389 710ZM388 600Q327 600 283 567T216 478T193 351Q193 237 244 167T389 98Q483 98 534 167T585 351Q585 418 563 474T497 565T388 600ZM258 886H395L478 740H395Z" horiz-adv-x="778" unicode="Ò"/>
			<glyph d="M389 710Q491 710 568 667T688 543T731 351Q731 240 689 157T569 31T389 -12Q282 -12 205 32T87 158T47 351Q47 461 88 542T206 666T389 710ZM388 600Q327 600 283 567T216 478T193 351Q193 237 244 167T389 98Q483 98 534 167T585 351Q585 418 563 474T497 565T388 600ZM398 886H535L398 740H315Z" horiz-adv-x="778" unicode="Ó"/>
			<glyph d="M389 710Q491 710 568 667T688 543T731 351Q731 240 689 157T569 31T389 -12Q282 -12 205 32T87 158T47 351Q47 461 88 542T206 666T389 710ZM388 600Q327 600 283 567T216 478T193 351Q193 237 244 167T389 98Q483 98 534 167T585 351Q585 418 563 474T497 565T388 600ZM347 886H448L553 740H464L396 826L326 740H237Z" horiz-adv-x="778" unicode="Ô"/>
			<glyph d="M389 710Q491 710 568 667T688 543T731 351Q731 240 689 157T569 31T389 -12Q282 -12 205 32T87 158T47 351Q47 461 88 542T206 666T389 710ZM388 600Q327 600 283 567T216 478T193 351Q193 237 244 167T389 98Q483 98 534 167T585 351Q585 418 563 474T497 565T388 600ZM517 877H571Q571 823 544 789T474 756Q448 756 427 761T379 777Q358 786 345 789T320 793Q298 793 284 780T271 749H217Q218 799 248 834T319 870Q339 870 359 864T407 847Q448 828 473 828Q495 828 506 842T517 877Z" horiz-adv-x="778" unicode="Õ"/>
			<glyph d="M389 710Q491 710 568 667T688 543T731 351Q731 240 689 157T569 31T389 -12Q282 -12 205 32T87 158T47 351Q47 461 88 542T206 666T389 710ZM388 600Q327 600 283 567T216 478T193 351Q193 237 244 167T389 98Q483 98 534 167T585 351Q585 418 563 474T497 565T388 600ZM234 871H350V755H234ZM440 871H556V755H440Z" horiz-adv-x="778" unicode="Ö"/>
			<glyph d="M138 487L300 325L462 487L534 415L371 253L534 91L462 19L300 182L138 19L66 91L228 253L66 415Z" horiz-adv-x="600" unicode="×"/>
			<glyph d="M641 727L686 690L632 620Q681 572 706 503T731 351Q731 242 690 160T572 33T389 -12Q267 -12 185 45L128 -29L83 7L142 83Q95 130 71 198T47 351Q47 461 87 542T205 666T389 710Q504 710 587 657ZM388 600Q326 600 282 567T215 477T193 351Q193 258 228 194L509 556Q460 600 388 600ZM546 509L264 146Q312 98 390 98Q484 98 534 168T585 352Q585 445 546 509Z" horiz-adv-x="778" unicode="Ø"/>
			<glyph d="M76 698H216V292Q216 98 361 98Q506 98 506 292V698H646V249Q646 -12 361 -12Q76 -12 76 250ZM229 886H366L449 740H366Z" horiz-adv-x="722" unicode="Ù"/>
			<glyph d="M76 698H216V292Q216 98 361 98Q506 98 506 292V698H646V249Q646 -12 361 -12Q76 -12 76 250ZM368 886H505L368 740H285Z" horiz-adv-x="722" unicode="Ú"/>
			<glyph d="M76 698H216V292Q216 98 361 98Q506 98 506 292V698H646V249Q646 -12 361 -12Q76 -12 76 250ZM317 886H418L523 740H434L366 826L296 740H207Z" horiz-adv-x="722" unicode="Û"/>
			<glyph d="M76 698H216V292Q216 98 361 98Q506 98 506 292V698H646V249Q646 -12 361 -12Q76 -12 76 250ZM204 871H320V755H204ZM410 871H526V755H410Z" horiz-adv-x="722" unicode="Ü"/>
			<glyph d="M11 698H175L340 405L508 698H656L406 276V0H266V276ZM343 886H480L343 740H260Z" horiz-adv-x="667" unicode="Ý"/>
			<glyph d="M69 698H209V582H243Q537 582 537 370Q537 262 468 205T269 149H209V0H69ZM209 472V259H258Q326 259 358 286T391 363Q391 415 357 443T258 472Z" unicode="Þ"/>
			<glyph d="M317 762Q377 762 429 740T513 677T545 578Q545 509 511 463T412 401V399Q487 389 534 337T581 214Q581 149 551 99T469 21T347 -6Q317 -6 292 -1T260 5L264 109Q297 98 333 98Q382 98 411 129T441 229Q441 286 402 314T284 342V446Q344 446 374 474T405 555Q405 602 381 630T316 658Q265 658 235 617T206 516V0H72V505Q72 624 136 693T317 762Z" horiz-adv-x="611" unicode="ß"/>
			<glyph d="M271 527Q388 527 440 476T493 310V204Q493 170 495 107T501 0H383Q380 16 377 77H375Q353 36 309 12T216 -12Q169 -12 127 6T61 60T36 142Q36 226 98 272T288 318H371V320Q371 381 342 405T255 429Q214 429 172 414T96 373L92 488Q130 505 178 516T271 527ZM312 238Q164 238 164 149Q164 119 186 102T249 86Q300 86 335 123T371 232V238ZM126 713H263L346 567H263Z" unicode="à"/>
			<glyph d="M271 527Q388 527 440 476T493 310V204Q493 170 495 107T501 0H383Q380 16 377 77H375Q353 36 309 12T216 -12Q169 -12 127 6T61 60T36 142Q36 226 98 272T288 318H371V320Q371 381 342 405T255 429Q214 429 172 414T96 373L92 488Q130 505 178 516T271 527ZM312 238Q164 238 164 149Q164 119 186 102T249 86Q300 86 335 123T371 232V238ZM293 713H430L293 567H210Z" unicode="á"/>
			<glyph d="M271 527Q388 527 440 476T493 310V204Q493 170 495 107T501 0H383Q380 16 377 77H375Q353 36 309 12T216 -12Q169 -12 127 6T61 60T36 142Q36 226 98 272T288 318H371V320Q371 381 342 405T255 429Q214 429 172 414T96 373L92 488Q130 505 178 516T271 527ZM312 238Q164 238 164 149Q164 119 186 102T249 86Q300 86 335 123T371 232V238ZM233 713H334L439 567H350L282 653L212 567H123Z" unicode="â"/>
			<glyph d="M271 527Q388 527 440 476T493 310V204Q493 170 495 107T501 0H383Q380 16 377 77H375Q353 36 309 12T216 -12Q169 -12 127 6T61 60T36 142Q36 226 98 272T288 318H371V320Q371 381 342 405T255 429Q214 429 172 414T96 373L92 488Q130 505 178 516T271 527ZM312 238Q164 238 164 149Q164 119 186 102T249 86Q300 86 335 123T371 232V238ZM403 704H457Q457 650 430 616T360 583Q334 583 312 588T263 605Q244 613 231 616T206 620Q184 620 170 607T157 576H103Q105 628 135 662T205 697Q227 697 247 691T293 674Q335 655 359 655Q381 655 392 669T403 704Z" unicode="ã"/>
			<glyph d="M271 527Q388 527 440 476T493 310V204Q493 170 495 107T501 0H383Q380 16 377 77H375Q353 36 309 12T216 -12Q169 -12 127 6T61 60T36 142Q36 226 98 272T288 318H371V320Q371 381 342 405T255 429Q214 429 172 414T96 373L92 488Q130 505 178 516T271 527ZM312 238Q164 238 164 149Q164 119 186 102T249 86Q300 86 335 123T371 232V238ZM120 698H236V582H120ZM326 698H442V582H326Z" unicode="ä"/>
			<glyph d="M271 527Q388 527 440 476T493 310V204Q493 170 495 107T501 0H383Q380 16 377 77H375Q353 36 309 12T216 -12Q169 -12 127 6T61 60T36 142Q36 226 98 272T288 318H371V320Q371 381 342 405T255 429Q214 429 172 414T96 373L92 488Q130 505 178 516T271 527ZM312 238Q164 238 164 149Q164 119 186 102T249 86Q300 86 335 123T371 232V238ZM284 776Q328 776 359 744T390 669Q390 625 359 594T284 563Q241 563 209 594T177 669Q177 712 209 744T284 776ZM284 722Q262 722 246 707T231 669Q231 647 246 632T284 617Q306 617 321 632T336 669Q336 691 321 706T284 722Z" unicode="å"/>
			<glyph d="M279 527Q327 527 358 518T408 496T447 462Q509 527 623 527Q737 527 795 448T853 216H499Q499 156 540 121T647 86Q692 86 733 100T818 138V29Q743 -12 642 -12Q566 -12 511 12T425 81Q397 37 347 12T236 -12Q145 -12 90 28T36 141Q36 227 103 272T298 318H371Q371 378 343 404T252 430Q211 430 169 414T93 373L89 488Q174 527 279 527ZM619 429Q566 429 532 396T499 308H725Q724 365 696 397T619 429ZM314 238Q244 238 204 213T164 142Q164 117 184 101T241 86Q310 86 340 122T371 238Z" horiz-adv-x="889" unicode="æ"/>
			<glyph d="M286 527Q358 527 415 510L403 404Q362 423 313 423Q250 423 213 378T176 260Q176 182 213 137T315 92Q337 92 365 98T418 116L424 5Q375 -10 313 -11L276 -53L278 -55Q306 -49 319 -49Q350 -49 374 -66T399 -119Q399 -166 365 -194T272 -222Q202 -222 158 -201L178 -147Q182 -148 203 -155T248 -162Q273 -162 287 -153T301 -127Q301 -110 289 -100T257 -91Q239 -91 215 -100L200 -74L252 -9Q149 1 92 73T36 260Q36 335 65 395T150 491T286 527Z" horiz-adv-x="444" unicode="ç"/>
			<glyph d="M275 527Q403 527 461 450T520 216H164Q169 155 208 120T312 86Q356 86 398 100T482 138V29Q408 -12 306 -12Q178 -12 107 58T36 255Q36 330 62 391T142 490T275 527ZM282 429Q232 429 200 397T164 308H392Q388 365 360 397T282 429ZM126 713H263L346 567H263Z" unicode="è"/>
			<glyph d="M275 527Q403 527 461 450T520 216H164Q169 155 208 120T312 86Q356 86 398 100T482 138V29Q408 -12 306 -12Q178 -12 107 58T36 255Q36 330 62 391T142 490T275 527ZM282 429Q232 429 200 397T164 308H392Q388 365 360 397T282 429ZM293 713H430L293 567H210Z" unicode="é"/>
			<glyph d="M275 527Q403 527 461 450T520 216H164Q169 155 208 120T312 86Q356 86 398 100T482 138V29Q408 -12 306 -12Q178 -12 107 58T36 255Q36 330 62 391T142 490T275 527ZM282 429Q232 429 200 397T164 308H392Q388 365 360 397T282 429ZM233 713H334L439 567H350L282 653L212 567H123Z" unicode="ê"/>
			<glyph d="M275 527Q403 527 461 450T520 216H164Q169 155 208 120T312 86Q356 86 398 100T482 138V29Q408 -12 306 -12Q178 -12 107 58T36 255Q36 330 62 391T142 490T275 527ZM282 429Q232 429 200 397T164 308H392Q388 365 360 397T282 429ZM120 698H236V582H120ZM326 698H442V582H326Z" unicode="ë"/>
			<glyph d="M72 515H206V0H72ZM-15 713H122L205 567H122Z" horiz-adv-x="278" unicode="ì"/>
			<glyph d="M72 515H206V0H72ZM148 713H285L148 567H65Z" horiz-adv-x="278" unicode="í"/>
			<glyph d="M72 515H206V0H72ZM91 713H192L297 567H208L140 653L70 567H-19Z" horiz-adv-x="278" unicode="î"/>
			<glyph d="M72 515H206V0H72ZM-22 698H94V582H-22ZM184 698H300V582H184Z" horiz-adv-x="278" unicode="ï"/>
			<glyph d="M190 764Q259 739 317 705L409 764L460 717L377 664Q473 590 522 493T572 282Q572 140 502 64T305 -12Q226 -12 165 21T70 115T36 258Q36 332 65 390T148 482T270 515Q343 515 392 483H394Q379 516 350 548T288 607L196 547L145 594L228 648Q182 677 129 696ZM306 411Q266 411 236 388T191 328T176 251Q176 186 208 139T306 92Q369 92 400 137T432 250Q432 288 419 325T377 386T306 411Z" horiz-adv-x="611" unicode="ð"/>
			<glyph d="M367 527Q453 527 497 473T542 325V0H408V289Q408 359 387 391T321 423Q262 423 232 374T203 250V0H69V515H196V445H198Q256 527 367 527ZM431 704H485Q485 650 458 616T388 583Q362 583 340 588T291 605Q272 613 259 616T234 620Q212 620 198 607T185 576H131Q133 628 163 662T233 697Q255 697 275 691T321 674Q363 655 387 655Q409 655 420 669T431 704Z" horiz-adv-x="611" unicode="ñ"/>
			<glyph d="M305 527Q383 527 444 493T540 397T575 254Q575 178 542 117T447 22T305 -12Q224 -12 163 22T69 117T36 254Q36 335 70 397T166 493T305 527ZM305 423Q245 423 210 378T176 270Q176 186 208 139T305 92Q369 92 402 138T435 270Q435 335 401 379T305 423ZM155 713H292L375 567H292Z" horiz-adv-x="611" unicode="ò"/>
			<glyph d="M305 527Q383 527 444 493T540 397T575 254Q575 178 542 117T447 22T305 -12Q224 -12 163 22T69 117T36 254Q36 335 70 397T166 493T305 527ZM305 423Q245 423 210 378T176 270Q176 186 208 139T305 92Q369 92 402 138T435 270Q435 335 401 379T305 423ZM321 713H458L321 567H238Z" horiz-adv-x="611" unicode="ó"/>
			<glyph d="M305 527Q383 527 444 493T540 397T575 254Q575 178 542 117T447 22T305 -12Q224 -12 163 22T69 117T36 254Q36 335 70 397T166 493T305 527ZM305 423Q245 423 210 378T176 270Q176 186 208 139T305 92Q369 92 402 138T435 270Q435 335 401 379T305 423ZM261 713H362L467 567H378L310 653L240 567H151Z" horiz-adv-x="611" unicode="ô"/>
			<glyph d="M305 527Q383 527 444 493T540 397T575 254Q575 178 542 117T447 22T305 -12Q224 -12 163 22T69 117T36 254Q36 335 70 397T166 493T305 527ZM305 423Q245 423 210 378T176 270Q176 186 208 139T305 92Q369 92 402 138T435 270Q435 335 401 379T305 423ZM431 704H485Q485 650 458 616T388 583Q362 583 340 588T291 605Q272 613 259 616T234 620Q212 620 198 607T185 576H131Q133 628 163 662T233 697Q255 697 275 691T321 674Q363 655 387 655Q409 655 420 669T431 704Z" horiz-adv-x="611" unicode="õ"/>
			<glyph d="M305 527Q383 527 444 493T540 397T575 254Q575 178 542 117T447 22T305 -12Q224 -12 163 22T69 117T36 254Q36 335 70 397T166 493T305 527ZM305 423Q245 423 210 378T176 270Q176 186 208 139T305 92Q369 92 402 138T435 270Q435 335 401 379T305 423ZM148 698H264V582H148ZM354 698H470V582H354Z" horiz-adv-x="611" unicode="ö"/>
			<glyph d="M300 529Q335 529 356 507T377 452Q377 418 356 396T300 375Q266 375 244 396T223 452Q223 486 244 507T300 529ZM46 305H554V201H46ZM300 131Q335 131 356 109T377 54Q377 20 356 -1T300 -23Q265 -23 244 -1T223 54Q223 88 244 109T300 131Z" horiz-adv-x="600" unicode="÷"/>
			<glyph d="M513 550L553 517L499 452Q575 378 575 254Q575 177 541 116T447 22T305 -12Q216 -12 148 31L93 -35L52 -2L108 65Q73 100 54 148T36 254Q36 338 71 400T168 494T305 527Q391 527 459 485ZM305 423Q245 423 210 379T176 270Q176 210 194 168L384 396Q352 423 305 423ZM417 354L224 122Q256 92 305 92Q368 92 401 138T435 270Q435 316 417 354Z" horiz-adv-x="611" unicode="ø"/>
			<glyph d="M69 515H203V221Q203 151 225 121T290 92Q348 92 378 140T408 266V515H542V0H415V70H413Q380 30 337 9T244 -12Q159 -12 114 41T69 190ZM154 713H291L374 567H291Z" horiz-adv-x="611" unicode="ù"/>
			<glyph d="M69 515H203V221Q203 151 225 121T290 92Q348 92 378 140T408 266V515H542V0H415V70H413Q380 30 337 9T244 -12Q159 -12 114 41T69 190ZM320 713H457L320 567H237Z" horiz-adv-x="611" unicode="ú"/>
			<glyph d="M69 515H203V221Q203 151 225 121T290 92Q348 92 378 140T408 266V515H542V0H415V70H413Q380 30 337 9T244 -12Q159 -12 114 41T69 190ZM260 713H361L466 567H377L309 653L239 567H150Z" horiz-adv-x="611" unicode="û"/>
			<glyph d="M69 515H203V221Q203 151 225 121T290 92Q348 92 378 140T408 266V515H542V0H415V70H413Q380 30 337 9T244 -12Q159 -12 114 41T69 190ZM147 698H263V582H147ZM353 698H469V582H353Z" horiz-adv-x="611" unicode="ü"/>
			<glyph d="M11 515H159L283 139H285L409 515H545L329 -57Q297 -142 255 -182T136 -222Q91 -222 43 -208L52 -109Q78 -118 120 -118Q162 -118 185 -92T208 -26ZM293 713H430L293 567H210Z" unicode="ý"/>
			<glyph d="M69 750H203V448H205Q228 486 268 506T359 527Q465 527 520 454T575 259Q575 137 520 62T359 -12Q258 -12 205 58H203V-210H69ZM324 423Q285 423 257 398T217 336T204 259Q204 192 234 142T322 92Q381 92 408 142T435 259Q435 324 408 373T324 423Z" horiz-adv-x="611" unicode="þ"/>
			<glyph d="M11 515H159L283 139H285L409 515H545L329 -57Q297 -142 255 -182T136 -222Q91 -222 43 -208L52 -109Q78 -118 120 -118Q162 -118 185 -92T208 -26ZM121 698H237V582H121ZM327 698H443V582H327Z" unicode="ÿ"/>
			<glyph d="M281 698H439L713 0H558L498 160H215L154 0H9ZM356 558L255 270H459L358 558ZM218 853H506V773H218Z" horiz-adv-x="722" unicode="Ā"/>
			<glyph d="M271 527Q388 527 440 476T493 310V204Q493 170 495 107T501 0H383Q380 16 377 77H375Q353 36 309 12T216 -12Q169 -12 127 6T61 60T36 142Q36 226 98 272T288 318H371V320Q371 381 342 405T255 429Q214 429 172 414T96 373L92 488Q130 505 178 516T271 527ZM312 238Q164 238 164 149Q164 119 186 102T249 86Q300 86 335 123T371 232V238ZM137 680H425V600H137Z" unicode="ā"/>
			<glyph d="M281 698H439L713 0H558L498 160H215L154 0H9ZM356 558L255 270H459L358 558ZM198 892H260Q270 851 296 831T360 812Q399 812 425 831T462 892H524Q520 825 474 782T360 740Q292 740 247 783T198 892Z" horiz-adv-x="722" unicode="Ă"/>
			<glyph d="M271 527Q388 527 440 476T493 310V204Q493 170 495 107T501 0H383Q380 16 377 77H375Q353 36 309 12T216 -12Q169 -12 127 6T61 60T36 142Q36 226 98 272T288 318H371V320Q371 381 342 405T255 429Q214 429 172 414T96 373L92 488Q130 505 178 516T271 527ZM312 238Q164 238 164 149Q164 119 186 102T249 86Q300 86 335 123T371 232V238ZM115 719H177Q185 681 211 660T277 639Q317 639 343 660T379 719H441Q436 651 390 609T277 567Q210 567 164 609T115 719Z" unicode="ă"/>
			<glyph d="M281 698H439L713 0H625Q577 -37 559 -66T542 -125Q542 -168 583 -168Q599 -168 614 -157T639 -135L679 -143Q661 -183 631 -202T555 -222Q510 -222 483 -199T456 -133Q456 -99 483 -67T576 0H558L498 160H215L154 0H9ZM356 558L255 270H459L358 558Z" horiz-adv-x="722" unicode="Ą"/>
			<glyph d="M273 527Q392 527 442 471T493 313V275Q493 99 501 0H461Q415 -35 396 -64T378 -124Q378 -168 418 -168Q433 -168 449 -158T475 -135L515 -143Q497 -184 468 -203T391 -222Q343 -222 317 -198T292 -132Q292 -96 321 -64T412 0H383Q377 41 377 77H375Q353 36 308 12T216 -12Q168 -12 127 7T61 61T36 142Q36 318 293 318H371V319Q371 375 345 402T255 429Q212 429 170 414T96 373L92 488Q130 505 178 516T273 527ZM305 238Q236 238 200 215T164 149Q164 120 185 103T248 86Q313 86 342 131T371 232V238Z" unicode="ą"/>
			<glyph d="M430 710Q467 710 510 702T588 681L578 563Q543 582 506 591T427 600Q358 600 304 567T222 477T193 347Q193 274 222 217T305 129T430 98Q469 98 513 105T583 127L589 10Q494 -12 430 -12Q249 -12 148 79T47 337Q47 454 92 538T224 666T430 710ZM411 886H548L411 740H328Z" horiz-adv-x="611" unicode="Ć"/>
			<glyph d="M286 527Q358 527 415 510L403 404Q362 423 313 423Q251 423 213 378T176 260Q176 183 212 137T315 92Q337 92 364 98T418 116L424 5Q367 -12 291 -12Q171 -12 103 60T36 260Q36 337 66 397T152 492T286 527ZM298 713H435L298 567H215Z" horiz-adv-x="444" unicode="ć"/>
			<glyph d="M430 710Q467 710 510 702T588 681L578 563Q543 582 506 591T427 600Q358 600 304 567T222 477T193 347Q193 274 222 217T305 129T430 98Q469 98 513 105T583 127L589 10Q494 -12 430 -12Q249 -12 148 79T47 337Q47 454 92 538T224 666T430 710ZM342 886H443L548 740H459L391 826L321 740H232Z" horiz-adv-x="611" unicode="Ĉ"/>
			<glyph d="M286 527Q358 527 415 510L403 404Q362 423 313 423Q251 423 213 378T176 260Q176 183 212 137T315 92Q337 92 364 98T418 116L424 5Q367 -12 291 -12Q171 -12 103 60T36 260Q36 337 66 397T152 492T286 527ZM228 713H329L434 567H345L277 653L207 567H118Z" horiz-adv-x="444" unicode="ĉ"/>
			<glyph d="M430 710Q467 710 510 702T588 681L578 563Q543 582 506 591T427 600Q358 600 304 567T222 477T193 347Q193 274 222 217T305 129T430 98Q469 98 513 105T583 127L589 10Q494 -12 430 -12Q249 -12 148 79T47 337Q47 454 92 538T224 666T430 710ZM332 871H448V755H332Z" horiz-adv-x="611" unicode="Ċ"/>
			<glyph d="M286 527Q358 527 415 510L403 404Q362 423 313 423Q251 423 213 378T176 260Q176 183 212 137T315 92Q337 92 364 98T418 116L424 5Q367 -12 291 -12Q171 -12 103 60T36 260Q36 337 66 397T152 492T286 527ZM218 698H334V582H218Z" horiz-adv-x="444" unicode="ċ"/>
			<glyph d="M430 710Q467 710 510 702T588 681L578 563Q543 582 506 591T427 600Q358 600 304 567T222 477T193 347Q193 274 222 217T305 129T430 98Q469 98 513 105T583 127L589 10Q494 -12 430 -12Q249 -12 148 79T47 337Q47 454 92 538T224 666T430 710ZM232 886H321L391 800L459 886H548L443 740H342Z" horiz-adv-x="611" unicode="Č"/>
			<glyph d="M286 527Q358 527 415 510L403 404Q362 423 313 423Q251 423 213 378T176 260Q176 183 212 137T315 92Q337 92 364 98T418 116L424 5Q367 -12 291 -12Q171 -12 103 60T36 260Q36 337 66 397T152 492T286 527ZM118 713H207L277 627L345 713H434L329 567H228Z" horiz-adv-x="444" unicode="č"/>
			<glyph d="M81 698H274Q675 698 675 349Q675 0 275 0H81ZM221 588V110H300Q360 110 412 139T497 222T529 349Q529 418 498 472T415 557T296 588ZM166 886H255L325 800L393 886H482L377 740H276Z" horiz-adv-x="722" unicode="Ď"/>
			<glyph d="M408 750H542V0H412V58H410Q354 -12 252 -12Q143 -12 89 64T36 259Q36 381 91 454T252 527Q302 527 339 509T406 455H408ZM287 423Q232 423 204 375T176 259Q176 193 203 142T289 92Q349 92 378 142T407 259Q407 299 394 336T354 398T287 423ZM612 731H727L670 532H596Z" horiz-adv-x="688" unicode="ď"/>
			<glyph d="M81 698H274Q675 698 675 349Q675 0 275 0H81V336H17V422H81ZM221 588V422H367V336H221V110H300Q360 110 412 139T497 222T529 349Q529 418 498 472T415 557T296 588Z" horiz-adv-x="722" unicode="Đ"/>
			<glyph d="M408 750H542V669H628V596H542V0H412V58H410Q354 -12 252 -12Q142 -12 89 64T36 259Q36 381 91 454T252 527Q302 527 339 509T406 455H408V596H241V669H408ZM287 423Q232 423 204 375T176 259Q176 193 203 142T289 92Q348 92 377 142T407 259Q407 300 394 336T354 398T287 423Z" horiz-adv-x="611" unicode="đ"/>
			<glyph d="M81 698H493V588H221V416H470V306H221V110H495V0H81ZM145 853H433V773H145Z" unicode="Ē"/>
			<glyph d="M275 527Q403 527 461 450T520 216H164Q169 155 208 120T312 86Q356 86 398 100T482 138V29Q408 -12 306 -12Q178 -12 107 58T36 255Q36 330 62 391T142 490T275 527ZM282 429Q232 429 200 397T164 308H392Q388 365 360 397T282 429ZM142 680H430V600H142Z" unicode="ē"/>
			<glyph d="M81 698H493V588H221V416H470V306H221V110H495V0H81ZM126 892H188Q198 851 224 831T288 812Q327 812 353 831T390 892H452Q448 825 402 782T288 740Q220 740 175 783T126 892Z" unicode="Ĕ"/>
			<glyph d="M275 527Q403 527 461 450T520 216H164Q169 155 208 120T312 86Q356 86 398 100T482 138V29Q408 -12 306 -12Q178 -12 107 58T36 255Q36 330 62 391T142 490T275 527ZM282 429Q232 429 200 397T164 308H392Q388 365 360 397T282 429ZM115 719H177Q185 681 211 660T277 639Q317 639 343 660T379 719H441Q436 651 390 609T277 567Q210 567 164 609T115 719Z" unicode="ĕ"/>
			<glyph d="M81 698H493V588H221V416H470V306H221V110H495V0H81ZM237 871H353V755H237Z" unicode="Ė"/>
			<glyph d="M275 527Q403 527 461 450T520 216H164Q169 155 208 120T312 86Q356 86 398 100T482 138V29Q408 -12 306 -12Q178 -12 107 58T36 255Q36 330 62 391T142 490T275 527ZM282 429Q232 429 200 397T164 308H392Q388 365 360 397T282 429ZM232 698H348V582H232Z" unicode="ė"/>
			<glyph d="M81 698H493V588H221V416H470V306H221V110H495V0H443Q396 -36 378 -65T360 -125Q360 -168 401 -168Q418 -168 434 -157T457 -135L497 -143Q479 -185 450 -203T373 -222Q328 -222 301 -199T274 -133Q274 -97 301 -66T394 0H81Z" unicode="Ę"/>
			<glyph d="M278 527Q404 527 462 451T520 216H164Q168 154 210 120T312 86Q391 86 482 138V29Q419 -6 333 -11Q265 -67 265 -123Q265 -168 306 -168Q320 -168 335 -159T362 -135L402 -143Q384 -185 355 -203T278 -222Q237 -222 208 -201T179 -132Q179 -99 203 -70T278 -11Q144 1 90 73T36 257Q36 317 57 378T132 483T278 527ZM282 429Q233 429 201 397T164 308H392Q390 359 364 394T282 429Z" unicode="ę"/>
			<glyph d="M81 698H493V588H221V416H470V306H221V110H495V0H81ZM130 886H219L289 800L357 886H446L341 740H240Z" unicode="Ě"/>
			<glyph d="M275 527Q403 527 461 450T520 216H164Q169 155 208 120T312 86Q356 86 398 100T482 138V29Q408 -12 306 -12Q178 -12 107 58T36 255Q36 330 62 391T142 490T275 527ZM282 429Q232 429 200 397T164 308H392Q388 365 360 397T282 429ZM126 713H215L285 627L353 713H442L337 567H236Z" unicode="ě"/>
			<glyph d="M431 710Q538 710 635 681L626 563Q586 581 538 590T446 600Q369 600 312 568T224 479T193 347Q193 274 222 217T305 129T431 98Q482 98 522 108V290H374V400H656V24Q523 -12 430 -12Q250 -12 148 79T47 337Q47 453 92 537T224 665T431 710ZM361 886H462L567 740H478L410 826L340 740H251Z" horiz-adv-x="722" unicode="Ĝ"/>
			<glyph d="M254 527Q307 527 346 507T412 445H414V515H542V48Q542 -84 474 -153T272 -222Q175 -222 92 -187L103 -73Q139 -92 182 -105T254 -118Q341 -118 374 -70T408 67V82H406Q384 44 340 22T246 0Q143 0 89 71T36 260Q36 326 59 387T132 488T254 527ZM295 423Q237 423 206 378T176 260Q176 223 189 187T228 127T290 104Q350 104 379 149T408 263Q408 331 381 377T295 423ZM260 713H361L466 567H377L309 653L239 567H150Z" horiz-adv-x="611" unicode="ĝ"/>
			<glyph d="M431 710Q538 710 635 681L626 563Q586 581 538 590T446 600Q369 600 312 568T224 479T193 347Q193 274 222 217T305 129T431 98Q482 98 522 108V290H374V400H656V24Q523 -12 430 -12Q250 -12 148 79T47 337Q47 453 92 537T224 665T431 710ZM246 892H308Q318 851 344 831T408 812Q447 812 473 831T510 892H572Q568 825 522 782T408 740Q340 740 295 783T246 892Z" horiz-adv-x="722" unicode="Ğ"/>
			<glyph d="M254 527Q307 527 346 507T412 445H414V515H542V48Q542 -84 474 -153T272 -222Q175 -222 92 -187L103 -73Q139 -92 182 -105T254 -118Q341 -118 374 -70T408 67V82H406Q384 44 340 22T246 0Q143 0 89 71T36 260Q36 326 59 387T132 488T254 527ZM295 423Q237 423 206 378T176 260Q176 223 189 187T228 127T290 104Q350 104 379 149T408 263Q408 331 381 377T295 423ZM145 719H207Q215 681 241 660T307 639Q347 639 373 660T409 719H471Q466 651 420 609T307 567Q240 567 194 609T145 719Z" horiz-adv-x="611" unicode="ğ"/>
			<glyph d="M431 710Q538 710 635 681L626 563Q586 581 538 590T446 600Q369 600 312 568T224 479T193 347Q193 274 222 217T305 129T431 98Q482 98 522 108V290H374V400H656V24Q523 -12 430 -12Q250 -12 148 79T47 337Q47 453 92 537T224 665T431 710ZM351 871H467V755H351Z" horiz-adv-x="722" unicode="Ġ"/>
			<glyph d="M254 527Q307 527 346 507T412 445H414V515H542V48Q542 -84 474 -153T272 -222Q175 -222 92 -187L103 -73Q139 -92 182 -105T254 -118Q341 -118 374 -70T408 67V82H406Q384 44 340 22T246 0Q143 0 89 71T36 260Q36 326 59 387T132 488T254 527ZM295 423Q237 423 206 378T176 260Q176 223 189 187T228 127T290 104Q350 104 379 149T408 263Q408 331 381 377T295 423ZM250 698H366V582H250Z" horiz-adv-x="611" unicode="ġ"/>
			<glyph d="M431 710Q538 710 635 681L626 563Q586 581 538 590T446 600Q369 600 312 568T224 479T193 347Q193 274 222 217T305 129T431 98Q482 98 522 108V290H374V400H656V24Q523 -12 430 -12Q250 -12 148 79T47 337Q47 453 92 537T224 665T431 710ZM366 -66H493L429 -222H329Z" horiz-adv-x="722" unicode="Ģ"/>
			<glyph d="M254 527Q307 527 346 507T412 445H414V515H542V48Q542 -84 474 -153T272 -222Q175 -222 92 -187L103 -73Q139 -92 182 -105T254 -118Q341 -118 374 -70T408 67V82H406Q384 44 340 22T246 0Q143 0 89 71T36 260Q36 326 59 387T132 488T254 527ZM295 423Q237 423 206 378T176 260Q176 223 189 187T228 127T290 104Q350 104 379 149T408 263Q408 331 381 377T295 423ZM298 731H395L359 585H237Z" horiz-adv-x="611" unicode="ģ"/>
			<glyph d="M81 698H221V416H501V698H641V0H501V306H221V0H81ZM312 886H413L518 740H429L361 826L291 740H202Z" horiz-adv-x="722" unicode="Ĥ"/>
			<glyph d="M69 750H203V445H205Q230 483 272 505T367 527Q453 527 497 472T542 326V0H408V291Q408 361 387 392T321 423Q263 423 233 375T203 249V0H69ZM258 926H359L464 780H375L307 866L237 780H148Z" horiz-adv-x="611" unicode="ĥ"/>
			<glyph d="M81 698H221V575H501V698H641V575H707V493H641V0H501V276H221V0H81V493H15V575H81ZM221 493V377H501V493Z" horiz-adv-x="722" unicode="Ħ"/>
			<glyph d="M69 750H203V669H370V596H203V445H205Q230 483 272 505T367 527Q453 527 497 472T542 326V0H408V291Q408 361 387 392T321 423Q263 423 233 375T203 249V0H69V596H-17V669H69Z" horiz-adv-x="611" unicode="ħ"/>
			<glyph d="M69 698H209V0H69ZM261 877H315Q315 823 288 789T218 756Q192 756 171 761T123 777Q102 786 89 789T64 793Q42 793 28 780T15 749H-39Q-38 799 -7 834T63 870Q83 870 103 864T151 847Q192 828 217 828Q239 828 250 842T261 877Z" horiz-adv-x="278" unicode="Ĩ"/>
			<glyph d="M72 515H206V0H72ZM262 704H316Q316 650 289 616T219 583Q193 583 171 588T122 605Q103 613 90 616T65 620Q43 620 29 607T16 576H-38Q-36 628 -6 662T64 697Q86 697 106 691T152 674Q194 655 218 655Q240 655 251 669T262 704Z" horiz-adv-x="278" unicode="ĩ"/>
			<glyph d="M69 698H209V0H69ZM-6 853H282V773H-6Z" horiz-adv-x="278" unicode="Ī"/>
			<glyph d="M72 515H206V0H72ZM-5 680H283V600H-5Z" horiz-adv-x="278" unicode="ī"/>
			<glyph d="M69 698H209V0H204Q158 -36 139 -64T121 -125Q121 -168 162 -168Q178 -168 193 -158T218 -135L258 -143Q240 -183 211 -202T133 -222Q89 -222 62 -199T35 -132Q35 -98 62 -66T155 0H69Z" horiz-adv-x="278" unicode="Į"/>
			<glyph d="M72 737H206V609H72ZM72 515H206V0H204Q157 -36 139 -64T121 -125Q121 -148 132 -158T162 -168Q175 -168 190 -159T218 -135L258 -143Q240 -183 210 -202T134 -222Q88 -222 61 -199T35 -132Q35 -96 64 -64T155 0H72Z" horiz-adv-x="278" unicode="į"/>
			<glyph d="M69 698H209V0H69ZM80 871H196V755H80Z" horiz-adv-x="278" unicode="İ"/>
			<glyph d="M72 515H206V0H72Z" horiz-adv-x="278" unicode="ı"/>
			<glyph d="M69 698H209V0H69ZM432 698H572V170Q572 121 550 79T486 13T381 -12Q323 -12 274 1V122Q306 110 339 110Q387 110 409 135T432 224Z" horiz-adv-x="641" unicode="Ĳ"/>
			<glyph d="M72 737H206V609H72ZM72 515H206V0H72ZM332 737H466V609H332ZM332 515H466V-36Q466 -131 428 -176T310 -222Q263 -222 228 -214L232 -114Q248 -118 268 -118Q300 -118 316 -97T332 -24Z" horiz-adv-x="538" unicode="ĳ"/>
			<glyph d="M180 698H320V170Q320 121 298 79T234 13T129 -12Q71 -12 22 1V122Q54 110 87 110Q135 110 157 135T180 224ZM198 886H299L404 740H315L247 826L177 740H88Z" horiz-adv-x="389" unicode="Ĵ"/>
			<glyph d="M72 515H206V-36Q206 -131 168 -176T50 -222Q3 -222 -32 -214L-28 -114Q-12 -118 8 -118Q40 -118 56 -97T72 -24ZM91 713H192L297 567H208L140 653L70 567H-19Z" horiz-adv-x="278" unicode="ĵ"/>
			<glyph d="M81 698H221V398L473 698H645L358 369L657 0H474L223 324H221V0H81ZM295 -66H422L358 -222H258Z" horiz-adv-x="667" unicode="Ķ"/>
			<glyph d="M72 750H206V309H208L368 515H526L334 285L550 0H380L208 250H206V0H72ZM238 -66H365L301 -222H201Z" unicode="ķ"/>
			<glyph d="M81 698H221V110H492V0H81ZM177 886H314L177 740H94Z" horiz-adv-x="500" unicode="Ĺ"/>
			<glyph d="M72 750H206V0H72ZM142 926H279L142 780H59Z" horiz-adv-x="278" unicode="ĺ"/>
			<glyph d="M81 698H221V110H492V0H81ZM225 -66H352L288 -222H188Z" horiz-adv-x="500" unicode="Ļ"/>
			<glyph d="M72 750H206V0H72ZM80 -66H207L143 -222H43Z" horiz-adv-x="278" unicode="ļ"/>
			<glyph d="M81 698H221V110H492V0H81ZM316 731H431L374 532H300Z" horiz-adv-x="500" unicode="Ľ"/>
			<glyph d="M72 750H206V0H72ZM277 731H392L335 532H261Z" horiz-adv-x="353" unicode="ľ"/>
			<glyph d="M81 698H221V110H492V0H81ZM314 426H430V310H314Z" horiz-adv-x="500" unicode="Ŀ"/>
			<glyph d="M72 750H206V0H72ZM283 428H399V312H283Z" horiz-adv-x="434" unicode="ŀ"/>
			<glyph d="M81 698H221V418L389 518V426L221 326V110H492V0H81V243L8 199V291L81 335Z" horiz-adv-x="500" unicode="Ł"/>
			<glyph d="M72 750H206V465L278 508V416L206 373V0H72V293L0 250V342L72 385Z" horiz-adv-x="278" unicode="ł"/>
			<glyph d="M74 698H246L512 176H514V698H648V0H477L210 522H208V0H74ZM404 886H541L404 740H321Z" horiz-adv-x="722" unicode="Ń"/>
			<glyph d="M367 527Q453 527 497 473T542 325V0H408V289Q408 359 387 391T321 423Q262 423 232 374T203 250V0H69V515H196V445H198Q256 527 367 527ZM340 713H477L340 567H257Z" horiz-adv-x="611" unicode="ń"/>
			<glyph d="M74 698H246L512 176H514V698H648V0H477L210 522H208V0H74ZM322 -66H449L385 -222H285Z" horiz-adv-x="722" unicode="Ņ"/>
			<glyph d="M367 527Q453 527 497 473T542 325V0H408V289Q408 359 387 391T321 423Q262 423 232 374T203 250V0H69V515H196V445H198Q256 527 367 527ZM250 -66H377L313 -222H213Z" horiz-adv-x="611" unicode="ņ"/>
			<glyph d="M74 698H246L512 176H514V698H648V0H477L210 522H208V0H74ZM209 886H298L368 800L436 886H525L420 740H319Z" horiz-adv-x="722" unicode="Ň"/>
			<glyph d="M367 527Q453 527 497 473T542 325V0H408V289Q408 359 387 391T321 423Q262 423 232 374T203 250V0H69V515H196V445H198Q256 527 367 527ZM151 713H240L310 627L378 713H467L362 567H261Z" horiz-adv-x="611" unicode="ň"/>
			<glyph d="M38 698H180L98 468H-12ZM487 527Q573 527 617 473T662 325V0H528V289Q528 354 509 388T441 423Q381 423 352 374T323 250V0H189V515H316V445H318Q376 527 487 527Z" horiz-adv-x="731" unicode="ŉ"/>
			<glyph d="M389 710Q491 710 568 667T688 543T731 351Q731 240 689 157T569 31T389 -12Q282 -12 205 32T87 158T47 351Q47 461 88 542T206 666T389 710ZM388 600Q327 600 283 567T216 478T193 351Q193 237 244 167T389 98Q483 98 534 167T585 351Q585 418 563 474T497 565T388 600ZM249 853H537V773H249Z" horiz-adv-x="778" unicode="Ō"/>
			<glyph d="M305 527Q383 527 444 493T540 397T575 254Q575 178 542 117T447 22T305 -12Q224 -12 163 22T69 117T36 254Q36 335 70 397T166 493T305 527ZM305 423Q245 423 210 378T176 270Q176 186 208 139T305 92Q369 92 402 138T435 270Q435 335 401 379T305 423ZM162 680H450V600H162Z" horiz-adv-x="611" unicode="ō"/>
			<glyph d="M389 710Q491 710 568 667T688 543T731 351Q731 240 689 157T569 31T389 -12Q282 -12 205 32T87 158T47 351Q47 461 88 542T206 666T389 710ZM388 600Q327 600 283 567T216 478T193 351Q193 237 244 167T389 98Q483 98 534 167T585 351Q585 418 563 474T497 565T388 600ZM230 892H292Q302 851 328 831T392 812Q431 812 457 831T494 892H556Q552 825 506 782T392 740Q324 740 279 783T230 892Z" horiz-adv-x="778" unicode="Ŏ"/>
			<glyph d="M305 527Q383 527 444 493T540 397T575 254Q575 178 542 117T447 22T305 -12Q224 -12 163 22T69 117T36 254Q36 335 70 397T166 493T305 527ZM305 423Q245 423 210 378T176 270Q176 186 208 139T305 92Q369 92 402 138T435 270Q435 335 401 379T305 423ZM142 719H204Q212 681 238 660T304 639Q344 639 370 660T406 719H468Q463 651 417 609T304 567Q237 567 191 609T142 719Z" horiz-adv-x="611" unicode="ŏ"/>
			<glyph d="M389 710Q491 710 568 667T688 543T731 351Q731 240 689 157T569 31T389 -12Q282 -12 205 32T87 158T47 351Q47 461 88 542T206 666T389 710ZM388 600Q327 600 283 567T216 478T193 351Q193 237 244 167T389 98Q483 98 534 167T585 351Q585 418 563 474T497 565T388 600ZM313 886H450L313 740H230ZM510 886H647L510 740H427Z" horiz-adv-x="778" unicode="Ő"/>
			<glyph d="M305 527Q383 527 444 493T540 397T575 254Q575 178 542 117T447 22T305 -12Q224 -12 163 22T69 117T36 254Q36 335 70 397T166 493T305 527ZM305 423Q245 423 210 378T176 270Q176 186 208 139T305 92Q369 92 402 138T435 270Q435 335 401 379T305 423ZM230 713H367L230 567H147ZM427 713H564L427 567H344Z" horiz-adv-x="611" unicode="ő"/>
			<glyph d="M425 704Q462 704 621 698H890V588H630V416H868V306H630V110H894V0H620Q534 -2 493 -4T404 -6Q47 -6 47 345Q47 518 145 611T425 704ZM416 594Q311 594 252 526T193 345Q193 236 254 170T422 104Q452 104 490 110V588Q450 594 416 594Z" horiz-adv-x="944" unicode="Œ"/>
			<glyph d="M305 527Q366 527 415 504T497 439Q525 481 573 504T677 527Q794 527 851 449T908 216H572Q573 155 611 120T715 86Q798 86 868 137L872 28Q808 -12 711 -12Q627 -12 578 9T502 73Q442 -12 305 -12Q225 -12 164 22T69 116T36 254Q36 335 70 397T166 493T305 527ZM305 429Q243 429 209 377T176 256Q176 183 207 134T305 86Q369 86 403 131T438 255Q438 335 403 382T305 429ZM678 429Q632 429 602 395T572 308H780Q778 367 751 398T678 429Z" horiz-adv-x="944" unicode="œ"/>
			<glyph d="M69 698H288Q394 698 451 672T529 605T549 509Q549 446 510 401T405 347V345Q451 342 482 266L591 0H435L354 210Q342 241 332 257T304 281T255 290H209V0H69ZM209 588V400H263Q339 400 371 425T403 497Q403 542 371 565T269 588ZM296 886H433L296 740H213Z" horiz-adv-x="611" unicode="Ŕ"/>
			<glyph d="M335 527Q359 527 375 523V388Q356 399 315 399Q262 399 234 354T206 212V0H72V515H191V398H193Q197 426 216 456T268 507T335 527ZM253 713H390L253 567H170Z" horiz-adv-x="389" unicode="ŕ"/>
			<glyph d="M69 698H288Q394 698 451 672T529 605T549 509Q549 446 510 401T405 347V345Q451 342 482 266L591 0H435L354 210Q342 241 332 257T304 281T255 290H209V0H69ZM209 588V400H263Q339 400 371 425T403 497Q403 542 371 565T269 588ZM254 -66H381L317 -222H217Z" horiz-adv-x="611" unicode="Ŗ"/>
			<glyph d="M335 527Q359 527 375 523V388Q356 399 315 399Q262 399 234 354T206 212V0H72V515H191V398H193Q197 426 216 456T268 507T335 527ZM77 -66H204L140 -222H40Z" horiz-adv-x="389" unicode="ŗ"/>
			<glyph d="M69 698H288Q394 698 451 672T529 605T549 509Q549 446 510 401T405 347V345Q451 342 482 266L591 0H435L354 210Q342 241 332 257T304 281T255 290H209V0H69ZM209 588V400H263Q339 400 371 425T403 497Q403 542 371 565T269 588ZM127 886H216L286 800L354 886H443L338 740H237Z" horiz-adv-x="611" unicode="Ř"/>
			<glyph d="M335 527Q359 527 375 523V388Q356 399 315 399Q262 399 234 354T206 212V0H72V515H191V398H193Q197 426 216 456T268 507T335 527ZM72 713H161L231 627L299 713H388L283 567H182Z" horiz-adv-x="389" unicode="ř"/>
			<glyph d="M303 710Q394 710 469 685L456 570Q385 600 314 600Q269 600 236 576T204 503Q204 478 220 461T257 434T322 407Q381 385 420 362T484 299T510 199Q510 98 441 43T247 -12Q198 -12 163 -6T69 15L82 141Q162 98 240 98Q285 98 324 121T364 188Q364 224 336 245T248 291Q186 315 148 336T84 397T58 497Q58 603 127 656T303 710ZM309 886H446L309 740H226Z" unicode="Ś"/>
			<glyph d="M239 527Q303 527 384 508L375 407Q340 419 313 424T256 429Q220 429 198 414T176 372Q176 351 196 338T265 312Q339 292 374 255T409 156Q409 75 348 31T192 -12Q124 -12 41 10L49 120Q117 86 181 86Q215 86 242 101T269 149Q269 176 246 191T173 220Q101 239 68 272T36 367Q36 442 92 484T239 527ZM255 713H392L255 567H172Z" horiz-adv-x="444" unicode="ś"/>
			<glyph d="M303 710Q394 710 469 685L456 570Q385 600 314 600Q269 600 236 576T204 503Q204 478 220 461T257 434T322 407Q381 385 420 362T484 299T510 199Q510 98 441 43T247 -12Q198 -12 163 -6T69 15L82 141Q162 98 240 98Q285 98 324 121T364 188Q364 224 336 245T248 291Q186 315 148 336T84 397T58 497Q58 603 127 656T303 710ZM232 886H333L438 740H349L281 826L211 740H122Z" unicode="Ŝ"/>
			<glyph d="M239 527Q303 527 384 508L375 407Q340 419 313 424T256 429Q220 429 198 414T176 372Q176 351 196 338T265 312Q339 292 374 255T409 156Q409 75 348 31T192 -12Q124 -12 41 10L49 120Q117 86 181 86Q215 86 242 101T269 149Q269 176 246 191T173 220Q101 239 68 272T36 367Q36 442 92 484T239 527ZM174 713H275L380 567H291L223 653L153 567H64Z" horiz-adv-x="444" unicode="ŝ"/>
			<glyph d="M303 710Q394 710 469 685L456 570Q385 600 314 600Q269 600 236 576T204 503Q204 478 220 461T257 434T322 407Q381 385 420 362T484 299T510 199Q510 18 299 -9L261 -53L263 -55Q281 -49 303 -49Q339 -49 361 -68T384 -119Q384 -167 347 -194T256 -222Q219 -222 189 -216T143 -201L163 -147Q178 -152 200 -157T237 -162Q260 -162 273 -153T286 -126Q286 -109 274 -100T242 -91Q232 -91 223 -93T200 -100L185 -74L234 -12Q199 -11 164 -5T69 15L82 141Q118 120 159 109T240 98Q285 98 324 121T364 188Q364 224 336 246T248 291Q186 315 148 336T84 397T58 497Q58 603 127 656T303 710Z" unicode="Ş"/>
			<glyph d="M239 527Q303 527 384 508L375 407Q340 419 313 424T256 429Q220 429 198 414T176 372Q176 351 196 338T265 312Q339 291 374 255T409 157Q409 18 245 -8L206 -53L208 -55Q228 -49 249 -49Q284 -49 306 -68T329 -120Q329 -166 294 -194T196 -222Q165 -222 134 -216T88 -201L108 -147Q153 -162 182 -162Q206 -162 218 -152T231 -126Q231 -108 219 -99T190 -91Q174 -91 165 -93T145 -100L130 -74L179 -12Q105 -9 41 10L49 120Q111 86 181 86Q215 86 242 101T269 149Q269 178 246 192T173 220Q102 239 69 272T36 367Q36 443 92 485T239 527Z" horiz-adv-x="444" unicode="ş"/>
			<glyph d="M303 710Q394 710 469 685L456 570Q385 600 314 600Q269 600 236 576T204 503Q204 478 220 461T257 434T322 407Q381 385 420 362T484 299T510 199Q510 98 441 43T247 -12Q198 -12 163 -6T69 15L82 141Q162 98 240 98Q285 98 324 121T364 188Q364 224 336 245T248 291Q186 315 148 336T84 397T58 497Q58 603 127 656T303 710ZM122 886H211L281 800L349 886H438L333 740H232Z" unicode="Š"/>
			<glyph d="M239 527Q303 527 384 508L375 407Q340 419 313 424T256 429Q220 429 198 414T176 372Q176 351 196 338T265 312Q339 292 374 255T409 156Q409 75 348 31T192 -12Q124 -12 41 10L49 120Q117 86 181 86Q215 86 242 101T269 149Q269 176 246 191T173 220Q101 239 68 272T36 367Q36 442 92 484T239 527ZM64 713H153L223 627L291 713H380L275 567H174Z" horiz-adv-x="444" unicode="š"/>
			<glyph d="M8 698H548V588H348V0H208V588H8ZM218 -66H345L281 -222H181Z" unicode="Ţ"/>
			<glyph d="M247 661V515H366V417H247V178Q247 136 262 114T311 92Q349 92 371 106L375 0Q333 -12 277 -12Q197 -12 155 33T113 155V417H14V515H113V618ZM158 -66H285L221 -222H121Z" horiz-adv-x="389" unicode="ţ"/>
			<glyph d="M8 698H548V588H348V0H208V588H8ZM120 886H209L279 800L347 886H436L331 740H230Z" unicode="Ť"/>
			<glyph d="M314 731H423L372 552H299ZM247 661V515H366V417H247V178Q247 136 262 114T311 92Q349 92 371 106L375 0Q333 -12 277 -12Q197 -12 155 33T113 155V417H14V515H113V618Z" horiz-adv-x="398" unicode="ť"/>
			<glyph d="M8 698H548V588H348V455H504V365H348V0H208V365H53V455H208V588H8Z" unicode="Ŧ"/>
			<glyph d="M247 661V515H366V417H247V328H342V253H247V178Q247 136 262 114T311 92Q349 92 371 106L375 0Q333 -12 277 -12Q197 -12 155 33T113 155V253H27V328H113V417H14V515H113V618Z" horiz-adv-x="389" unicode="ŧ"/>
			<glyph d="M76 698H216V292Q216 98 361 98Q506 98 506 292V698H646V249Q646 -12 361 -12Q76 -12 76 250ZM488 880H542Q542 826 515 792T445 759Q419 759 398 764T350 780Q329 789 316 792T291 796Q269 796 255 783T242 752H188Q189 802 219 837T290 873Q310 873 330 867T378 850Q419 831 444 831Q466 831 477 845T488 880Z" horiz-adv-x="722" unicode="Ũ"/>
			<glyph d="M69 515H203V221Q203 151 225 121T290 92Q348 92 378 140T408 266V515H542V0H415V70H413Q380 30 337 9T244 -12Q159 -12 114 41T69 190ZM428 704H482Q482 650 455 616T385 583Q359 583 337 588T288 605Q269 613 256 616T231 620Q209 620 195 607T182 576H128Q130 628 160 662T230 697Q252 697 272 691T318 674Q360 655 384 655Q406 655 417 669T428 704Z" horiz-adv-x="611" unicode="ũ"/>
			<glyph d="M76 698H216V292Q216 98 361 98Q506 98 506 292V698H646V249Q646 -12 361 -12Q76 -12 76 250ZM220 853H508V773H220Z" horiz-adv-x="722" unicode="Ū"/>
			<glyph d="M69 515H203V221Q203 151 225 121T290 92Q348 92 378 140T408 266V515H542V0H415V70H413Q380 30 337 9T244 -12Q159 -12 114 41T69 190ZM165 680H453V600H165Z" horiz-adv-x="611" unicode="ū"/>
			<glyph d="M76 698H216V292Q216 98 361 98Q506 98 506 292V698H646V249Q646 -12 361 -12Q76 -12 76 250ZM202 892H264Q274 851 300 831T364 812Q403 812 429 831T466 892H528Q524 825 478 782T364 740Q296 740 251 783T202 892Z" horiz-adv-x="722" unicode="Ŭ"/>
			<glyph d="M69 515H203V221Q203 151 225 121T290 92Q348 92 378 140T408 266V515H542V0H415V70H413Q380 30 337 9T244 -12Q159 -12 114 41T69 190ZM142 719H204Q212 681 238 660T304 639Q344 639 370 660T406 719H468Q463 651 417 609T304 567Q237 567 191 609T142 719Z" horiz-adv-x="611" unicode="ŭ"/>
			<glyph d="M76 698H216V292Q216 98 361 98Q506 98 506 292V698H646V249Q646 -12 361 -12Q76 -12 76 250ZM363 933Q406 933 437 901T468 828Q468 786 437 755T363 724Q321 724 290 755T259 828Q259 870 290 901T363 933ZM363 879Q342 879 327 864T313 828Q313 806 327 792T363 778Q385 778 399 792T414 828Q414 850 399 864T363 879Z" horiz-adv-x="722" unicode="Ů"/>
			<glyph d="M69 515H203V221Q203 151 225 121T290 92Q348 92 378 140T408 266V515H542V0H415V70H413Q380 30 337 9T244 -12Q159 -12 114 41T69 190ZM309 780Q353 780 384 748T415 673Q415 629 384 598T309 567Q266 567 234 598T202 673Q202 716 234 748T309 780ZM309 726Q287 726 271 711T256 673Q256 651 271 636T309 621Q331 621 346 636T361 673Q361 695 346 710T309 726Z" horiz-adv-x="611" unicode="ů"/>
			<glyph d="M76 698H216V292Q216 98 361 98Q506 98 506 292V698H646V249Q646 -12 361 -12Q76 -12 76 250ZM285 886H422L285 740H202ZM482 886H619L482 740H399Z" horiz-adv-x="722" unicode="Ű"/>
			<glyph d="M69 515H203V221Q203 151 225 121T290 92Q348 92 378 140T408 266V515H542V0H415V70H413Q380 30 337 9T244 -12Q159 -12 114 41T69 190ZM230 713H367L230 567H147ZM427 713H564L427 567H344Z" horiz-adv-x="611" unicode="ű"/>
			<glyph d="M76 698H216V292Q216 98 361 98Q506 98 506 292V698H646V259Q646 146 593 74T418 -9Q376 -44 362 -71T348 -125Q348 -149 360 -158T389 -168Q404 -168 419 -158T445 -135L485 -143Q468 -182 439 -202T360 -222Q316 -222 289 -199T262 -133Q262 -102 284 -72T359 -12H351Q212 -12 144 57T76 258Z" horiz-adv-x="722" unicode="Ų"/>
			<glyph d="M69 515H203V221Q203 149 226 120T290 92Q348 92 378 140T408 266V515H542V0H488Q441 -36 423 -64T405 -125Q405 -168 446 -168Q462 -168 477 -157T502 -135L542 -143Q524 -182 495 -202T417 -222Q375 -222 347 -200T319 -132Q319 -96 347 -65T439 0H415V70H413Q382 30 338 9T244 -12Q159 -12 114 41T69 190Z" horiz-adv-x="611" unicode="ų"/>
			<glyph d="M10 698H157L287 140H289L408 698H598L721 140H723L854 698H990L808 0H628L502 558H500L376 0H195ZM451 886H552L657 740H568L500 826L430 740H341Z" horiz-adv-x="1000" unicode="Ŵ"/>
			<glyph d="M11 515H153L267 134H269L373 515H529L641 134H643L750 515H878L720 0H562L450 393H448L338 0H185ZM396 713H497L602 567H513L445 653L375 567H286Z" horiz-adv-x="889" unicode="ŵ"/>
			<glyph d="M11 698H175L340 405L508 698H656L406 276V0H266V276ZM284 886H385L490 740H401L333 826L263 740H174Z" horiz-adv-x="667" unicode="Ŷ"/>
			<glyph d="M11 515H159L283 139H285L409 515H545L329 -57Q297 -142 255 -182T136 -222Q91 -222 43 -208L52 -109Q78 -118 120 -118Q162 -118 185 -92T208 -26ZM230 713H331L436 567H347L279 653L209 567H120Z" unicode="ŷ"/>
			<glyph d="M11 698H175L340 405L508 698H656L406 276V0H266V276ZM179 856H295V740H179ZM385 856H501V740H385Z" horiz-adv-x="667" unicode="Ÿ"/>
			<glyph d="M49 698H513V584L182 110H520V0H36V114L364 588H49ZM316 886H453L316 740H233Z" unicode="Ź"/>
			<glyph d="M47 515H455V405L199 104H464V0H36V109L297 411H47ZM283 713H420L283 567H200Z" horiz-adv-x="500" unicode="ź"/>
			<glyph d="M49 698H513V584L182 110H520V0H36V114L364 588H49ZM238 871H354V755H238Z" unicode="Ż"/>
			<glyph d="M47 515H455V405L199 104H464V0H36V109L297 411H47ZM207 698H323V582H207Z" horiz-adv-x="500" unicode="ż"/>
			<glyph d="M49 698H513V584L182 110H520V0H36V114L364 588H49ZM120 886H209L279 800L347 886H436L331 740H230Z" unicode="Ž"/>
			<glyph d="M47 515H455V405L199 104H464V0H36V109L297 411H47ZM92 713H181L251 627L319 713H408L303 567H202Z" horiz-adv-x="500" unicode="ž"/>
			<glyph d="M463 710Q511 710 547 701L529 595Q492 606 472 606Q438 606 423 583T400 519L376 406H497L484 326H360L297 -14Q280 -109 237 -165T109 -222Q40 -222 8 -212L28 -113Q49 -118 79 -118Q106 -118 123 -101T149 -43L222 326H109L124 406H238L268 541Q286 626 328 668T463 710Z" unicode="ƒ"/>
			<glyph d="M303 710Q394 710 469 685L456 570Q385 600 314 600Q269 600 236 576T204 503Q204 478 220 461T257 434T322 407Q381 385 420 362T484 299T510 199Q510 98 441 43T247 -12Q198 -12 163 -6T69 15L82 141Q162 98 240 98Q285 98 324 121T364 188Q364 224 336 245T248 291Q186 315 148 336T84 397T58 497Q58 603 127 656T303 710ZM217 -66H344L280 -222H180Z" unicode="Ș"/>
			<glyph d="M239 527Q303 527 384 508L375 407Q340 419 313 424T256 429Q220 429 198 414T176 372Q176 351 196 338T265 312Q339 292 374 255T409 156Q409 75 348 31T192 -12Q124 -12 41 10L49 120Q117 86 181 86Q215 86 242 101T269 149Q269 176 246 191T173 220Q101 239 68 272T36 367Q36 442 92 484T239 527ZM165 -66H292L228 -222H128Z" horiz-adv-x="444" unicode="ș"/>
			<glyph d="M8 698H548V588H348V0H208V588H8ZM218 -66H345L281 -222H181Z" unicode="Ț"/>
			<glyph d="M247 661V515H366V417H247V178Q247 136 262 114T311 92Q349 92 371 106L375 0Q333 -12 277 -12Q197 -12 155 33T113 155V417H14V515H113V618ZM158 -66H285L221 -222H121Z" horiz-adv-x="389" unicode="ț"/>
			<glyph d="M72 515H206V-36Q206 -131 168 -176T50 -222Q3 -222 -32 -214L-28 -114Q-12 -118 8 -118Q40 -118 56 -97T72 -24Z" horiz-adv-x="278" unicode="ȷ"/>
			<glyph d="M91 713H192L297 567H208L140 653L70 567H-19Z" horiz-adv-x="278" unicode="ˆ"/>
			<glyph d="M-19 713H70L140 627L208 713H297L192 567H91Z" horiz-adv-x="278" unicode="ˇ"/>
			<glyph d="M-5 680H283V600H-5Z" horiz-adv-x="278" unicode="ˉ"/>
			<glyph d="M-24 719H38Q46 681 72 660T138 639Q178 639 204 660T240 719H302Q297 651 251 609T138 567Q71 567 25 609T-24 719Z" horiz-adv-x="278" unicode="˘"/>
			<glyph d="M81 698H197V582H81Z" horiz-adv-x="278" unicode="˙"/>
			<glyph d="M140 780Q184 780 215 748T246 673Q246 629 215 598T140 567Q97 567 65 598T33 673Q33 716 65 748T140 780ZM140 726Q118 726 102 711T87 673Q87 651 102 636T140 621Q162 621 177 636T192 673Q192 695 177 710T140 726Z" horiz-adv-x="278" unicode="˚"/>
			<glyph d="M181 0H230Q186 -34 166 -63T147 -123Q147 -168 187 -168Q202 -168 217 -159T244 -135L284 -143Q263 -188 234 -205T159 -222Q113 -222 87 -198T61 -132Q61 -96 90 -64T181 0Z" horiz-adv-x="278" unicode="˛"/>
			<glyph d="M262 704H316Q316 650 289 616T219 583Q193 583 171 588T122 605Q103 613 90 616T65 620Q43 620 29 607T16 576H-38Q-36 628 -6 662T64 697Q86 697 106 691T152 674Q194 655 218 655Q240 655 251 669T262 704Z" horiz-adv-x="278" unicode="˜"/>
			<glyph d="M13 713H150L13 567H-70ZM210 713H347L210 567H127Z" horiz-adv-x="278" unicode="˝"/>
			<glyph d="M284 698H447L716 0H13ZM361 580L196 110H522L362 580Z" horiz-adv-x="729" unicode="Δ"/>
			<glyph d="M394 710Q492 710 566 668T680 552T721 386Q721 300 685 226T584 110H727V0H434L437 110Q575 184 575 367Q575 474 525 537T392 600Q304 600 253 535T202 361Q202 275 236 210T334 110L337 0H56V110H192Q122 160 89 225T56 374Q56 473 99 549T218 668T394 710Z" horiz-adv-x="783" unicode="Ω"/>
			<glyph d="M69 515H203V223Q203 147 226 119T290 92Q348 92 378 140T408 265V515H542V0H415V70H413Q397 34 366 11T297 -12Q261 -12 241 -3T205 22H203V-210H69Z" horiz-adv-x="611" unicode="μ"/>
			<glyph d="M10 515H616V417H526V149Q526 86 574 86Q598 86 620 98L624 2Q582 -12 542 -12Q462 -12 427 24T392 141V417H233V0H99V417H10Z" horiz-adv-x="656" unicode="π"/>
			<glyph d="M353 710Q409 710 476 706T586 695V590Q537 588 497 561T457 496Q457 465 479 440T549 375Q609 324 637 284T666 188Q666 91 602 39T435 -12Q390 -12 352 -7T280 10L293 132Q321 115 356 106T423 98Q469 98 494 119T520 184Q520 213 501 235T439 294Q424 306 423 307Q368 353 343 388T319 471Q319 515 352 550T440 600Q402 604 367 604Q286 604 247 564T209 443V0H69V468Q69 600 140 655T353 710Z" horiz-adv-x="687" unicode="ẞ"/>
			<glyph d="M35 324H298V214H35Z" horiz-adv-x="333" unicode="‐"/>
			<glyph d="M0 315H500V223H0Z" horiz-adv-x="500" unicode="–"/>
			<glyph d="M0 315H1000V223H0Z" horiz-adv-x="1000" unicode="—"/>
			<glyph d="M125 698H244L181 448H34Z" horiz-adv-x="278" unicode="‘"/>
			<glyph d="M98 698H244L152 448H34Z" horiz-adv-x="278" unicode="’"/>
			<glyph d="M98 140H244L152 -110H34Z" horiz-adv-x="278" unicode="‚"/>
			<glyph d="M125 698H244L181 448H34ZM328 698H447L384 448H237Z" horiz-adv-x="481" unicode="“"/>
			<glyph d="M98 698H244L152 448H34ZM301 698H447L355 448H237Z" horiz-adv-x="481" unicode="”"/>
			<glyph d="M98 140H244L152 -110H34ZM301 140H447L355 -110H237Z" horiz-adv-x="481" unicode="„"/>
			<glyph d="M214 698H342V539H497V435H342V0H214V435H59V539H214Z" unicode="†"/>
			<glyph d="M214 698H342V555H497V457H342V245H497V147H342V0H214V147H59V245H214V457H59V555H214Z" unicode="‡"/>
			<glyph d="M250 523Q297 523 337 499T401 436T425 349Q425 301 401 261T337 197T250 174Q203 174 163 197T99 261T76 349Q76 395 99 435T162 499T250 523Z" horiz-adv-x="500" unicode="•"/>
			<glyph d="M97 140H237V0H97ZM430 140H570V0H430ZM763 140H903V0H763Z" horiz-adv-x="1000" unicode="…"/>
			<glyph d="M502 720H584L155 -22H73ZM151 710Q223 710 257 668T292 540Q292 364 151 364Q9 364 9 540Q9 627 44 668T151 710ZM150 638Q124 638 112 617T101 537Q101 477 112 456T151 436Q170 436 180 444T195 473T200 537Q200 579 195 600T179 630T150 638ZM515 334Q587 334 621 292T656 164Q656 -12 515 -12Q373 -12 373 164Q373 251 408 292T515 334ZM851 334Q923 334 957 292T992 164Q992 -12 851 -12Q709 -12 709 164Q709 251 744 292T851 334ZM514 262Q488 262 476 241T465 161Q465 101 476 80T515 60Q534 60 544 68T559 97T564 161Q564 203 559 224T543 254T514 262ZM850 262Q824 262 812 241T801 161Q801 101 812 80T851 60Q870 60 880 68T895 97T900 161Q900 203 895 224T879 254T850 262Z" horiz-adv-x="1000" unicode="‰"/>
			<glyph d="M167 474H293L183 269L293 64H167L49 269Z" horiz-adv-x="333" unicode="‹"/>
			<glyph d="M40 474H166L284 269L166 64H40L150 269Z" horiz-adv-x="333" unicode="›"/>
			<glyph d="M251 720H333L-84 -22H-166Z" horiz-adv-x="167" unicode="⁄"/>
			<glyph d="M431 710Q521 710 596 683L570 579Q522 603 453 603Q380 603 326 563T248 449H541L526 388H232Q232 385 231 374T230 352Q230 333 231 322T232 310H508L494 249H248Q273 176 326 137T452 98Q522 98 570 120L576 8Q519 -12 433 -12Q342 -12 271 21T155 114T95 249H-4L11 310H86Q86 314 85 325T84 353Q84 366 85 375T86 388H-4L11 449H96Q113 524 159 583T275 676T431 710Z" unicode="€"/>
			<glyph d="M39 698H550V617H391Q421 597 430 556H550V476H433Q427 383 372 346T213 309H193L456 0H284L39 303V396H148Q194 396 223 401T271 423T293 476H39V556H290Q281 593 248 605T164 617H39Z" unicode="₹"/>
			<glyph d="M101 698H241V579L431 655V572L241 496V427L431 503V420L241 344V97H255Q319 97 349 127T388 203T401 335L402 358H542Q538 240 511 160T421 36T252 -8Q187 -8 101 0V288L8 251V335L101 372V441L8 404V486L101 523Z" unicode="₺"/>
			<glyph d="M347 698H480V573Q584 559 654 482T759 292T793 63V0H655V43Q655 126 639 218T583 383T480 469V70H347V469Q283 454 243 382T188 218T172 43V0H34V63Q34 180 68 292T172 481T347 573Z" horiz-adv-x="827" unicode="₼"/>
			<glyph d="M106 698H297Q546 698 546 488Q546 387 479 336T301 286H243V226H397V138H243V0H106V138H14V226H106V286H14V374H106ZM243 600V374H284Q346 374 377 401T408 488Q408 549 377 574T283 600Z" unicode="₽"/>
			<glyph d="M295 721Q356 721 392 682T429 579Q429 505 384 429T246 269V141Q246 107 263 87T312 68Q353 68 401 107L440 48Q369 -14 285 -14Q214 -14 174 24T135 124V195L77 141L37 202L134 287V536Q134 587 154 629T211 696T295 721ZM293 646Q273 646 259 622T246 556V364Q292 414 315 467T338 572Q338 605 326 625T293 646Z" horiz-adv-x="500" unicode="ℓ"/>
			<glyph d="M48 698H386V618H269V282H165V618H48ZM465 698H610L709 438L807 698H952V282H854V576H852L746 282H671L565 576H563V282H465Z" horiz-adv-x="1000" unicode="™"/>
			<glyph d="M394 710Q492 710 566 668T680 552T721 386Q721 300 685 226T584 110H727V0H434L437 110Q575 184 575 367Q575 474 525 537T392 600Q304 600 253 535T202 361Q202 275 236 210T334 110L337 0H56V110H192Q122 160 89 225T56 374Q56 473 99 549T218 668T394 710Z" horiz-adv-x="783" unicode="Ω"/>
			<glyph d="M302 535Q377 535 435 500T527 403T561 259H157V78Q216 19 302 19Q366 19 412 48T495 139L530 118Q486 46 432 14T302 -17Q227 -17 168 18T77 117T44 259Q44 337 76 400T167 499T302 535ZM300 500Q217 500 157 440V295H448V440Q385 500 300 500Z" horiz-adv-x="600" unicode="℮"/>
			<glyph d="M248 785Q323 785 385 741T483 612T520 406Q520 281 486 187T390 43T243 -8Q179 -8 132 25T62 113T38 229Q38 303 66 362T143 455T253 488Q300 488 340 465T402 406H403Q403 408 403 415T404 438Q404 506 382 563T322 653T232 687Q160 687 103 639L68 728Q142 785 248 785ZM275 392Q242 392 214 369T171 307T156 224Q156 168 182 129T254 91Q311 91 347 157T392 305Q379 340 348 366T275 392Z" horiz-adv-x="568" unicode="∂"/>
			<glyph d="M284 698H447L716 0H13ZM361 580L196 110H522L362 580Z" horiz-adv-x="729" unicode="∆"/>
			<glyph d="M63 786H674V-214H566V688H170V-214H63Z" horiz-adv-x="737" unicode="∏"/>
			<glyph d="M38 786H605V688H181L460 292L163 -117H618V-214H25V-128L331 291L38 702Z" horiz-adv-x="643" unicode="∑"/>
			<glyph d="M46 305H554V201H46Z" horiz-adv-x="600" unicode="−"/>
			<glyph d="M251 720H333L-84 -22H-166Z" horiz-adv-x="167" unicode="∕"/>
			<glyph d="M139 361Q173 361 194 339T216 284Q216 250 194 228T139 207Q105 207 83 228T62 284Q62 317 83 339T139 361Z" horiz-adv-x="278" unicode="∙"/>
			<glyph d="M434 786H543L332 -214H231L78 105L28 82L-12 167L131 232L264 -49Z" horiz-adv-x="531" unicode="√"/>
			<glyph d="M597 437Q647 437 684 414T741 351T761 262Q761 182 715 132T596 83Q548 83 501 110T403 195Q342 131 301 108T211 85Q136 85 90 134T44 260Q44 337 89 386T208 436Q258 436 303 409T403 318Q458 382 503 409T597 437ZM595 345Q569 345 537 326T458 257Q534 175 598 175Q633 175 654 198T675 259Q675 298 653 321T595 345ZM208 344Q175 344 152 319T130 259Q130 222 151 199T211 176Q243 176 279 197T348 258Q305 302 271 323T208 344Z" horiz-adv-x="806" unicode="∞"/>
			<glyph d="M369 786Q408 786 441 767T474 713Q474 693 459 678T423 664Q399 664 388 676T369 711Q362 729 352 729Q333 729 333 696Q333 654 334 635Q334 620 334 596T335 532V-13Q335 -115 301 -164T195 -214Q156 -214 124 -195T93 -142Q93 -121 106 -107T141 -93Q162 -93 173 -103T192 -135Q197 -149 201 -154T211 -160Q230 -160 230 -128Q228 -37 228 -45Q227 -28 227 0V584Q227 687 261 736T369 786Z" horiz-adv-x="600" unicode="∫"/>
			<glyph d="M173 445Q201 445 230 437T308 411Q349 395 378 386T434 378Q483 378 497 444H565Q557 363 519 320T420 277Q392 277 353 288T252 323Q191 346 163 346Q138 346 121 328T98 277H30Q38 357 75 401T173 445ZM171 242Q198 242 228 234T308 207Q347 192 376 183T432 175Q481 175 495 241H563Q555 160 517 117T418 74Q390 74 351 85T250 120Q189 143 161 143Q136 143 119 125T96 74H28Q36 154 73 198T171 242Z" horiz-adv-x="593" unicode="≈"/>
			<glyph d="M399 571L488 526L434 419H556V318H382L322 201H556V99H271L193 -53L104 -7L159 99H37V201H210L271 318H37V419H322Z" horiz-adv-x="593" unicode="≠"/>
			<glyph d="M556 554V447L175 324L556 207V100L37 272V375ZM37 66H556V-35H37Z" horiz-adv-x="593" unicode="≤"/>
			<glyph d="M37 554L556 375V272L37 100V207L417 324L37 447ZM37 66H556V-35H37Z" horiz-adv-x="593" unicode="≥"/>
			<glyph d="M248 747H343L520 356L343 -35H248L72 355ZM295 646L176 356L295 65L417 356Z" horiz-adv-x="593" unicode="◊"/>
			<glyph d="M1 886H138L221 740H138Z" horiz-adv-x="278" unicode=""/>
			<glyph d="M139 886H276L139 740H56Z" horiz-adv-x="278" unicode=""/>
			<glyph d="M90 886H191L296 740H207L139 826L69 740H-20Z" horiz-adv-x="278" unicode=""/>
			<glyph d="M-20 886H69L139 800L207 886H296L191 740H90Z" horiz-adv-x="278" unicode=""/>
			<glyph d="M261 877H315Q315 823 288 789T218 756Q192 756 171 761T123 777Q102 786 89 789T64 793Q42 793 28 780T15 749H-39Q-38 799 -7 834T63 870Q83 870 103 864T151 847Q192 828 217 828Q239 828 250 842T261 877Z" horiz-adv-x="278" unicode=""/>
			<glyph d="M-23 871H93V755H-23ZM183 871H299V755H183Z" horiz-adv-x="278" unicode=""/>
			<glyph d="M-6 853H282V773H-6Z" horiz-adv-x="278" unicode=""/>
			<glyph d="M-24 892H38Q48 851 74 831T138 812Q177 812 203 831T240 892H302Q298 825 252 782T138 740Q70 740 25 783T-24 892Z" horiz-adv-x="278" unicode=""/>
			<glyph d="M140 933Q183 933 214 901T245 828Q245 786 214 755T140 724Q98 724 67 755T36 828Q36 870 67 901T140 933ZM140 879Q119 879 104 864T90 828Q90 806 104 792T140 778Q162 778 176 792T191 828Q191 850 176 864T140 879Z" horiz-adv-x="278" unicode=""/>
			<glyph d="M12 886H149L12 740H-71ZM209 886H346L209 740H126Z" horiz-adv-x="278" unicode=""/>
			<glyph d="M80 871H196V755H80Z" horiz-adv-x="278" unicode=""/>
			<glyph d="M29 731H144L87 532H13Z" horiz-adv-x="278" unicode=""/>
			<glyph d="M88 -66H215L151 -222H51Z" horiz-adv-x="278" unicode=""/>
			<glyph d="M115 731H212L176 585H54Z" horiz-adv-x="278" unicode=""/>
			<glyph d="M0 718H512V0H0ZM50 667V50H462V667ZM259 609Q313 609 348 573T383 478Q383 442 369 416T319 357Q289 329 281 314T272 270L271 234H225Q225 236 224 244T223 264Q223 301 233 325T276 385L292 402Q313 422 322 437T332 474Q332 510 309 534T256 559Q222 559 201 535T174 464L124 472Q130 538 165 573T259 609ZM222 184H278V117H222Z" horiz-adv-x="512" unicode=""/>
			<glyph d="M284 762Q332 762 380 751L369 640Q353 650 340 654T311 658Q282 658 267 637T252 579V515H369V417H252V0H118V417H19V515H118V588Q118 661 159 711T284 762ZM460 737H594V609H460ZM460 515H594V0H460Z" horiz-adv-x="667" unicode="ﬁ"/>
			<glyph d="M284 762Q332 762 380 751L369 640Q353 650 340 654T311 658Q282 658 267 637T252 579V515H369V417H252V0H118V417H19V515H118V588Q118 661 159 711T284 762ZM461 750H595V0H461Z" horiz-adv-x="667" unicode="ﬂ"/>
		</font>
</defs>
</svg>
