<?xml version="1.0" encoding="UTF-8"?>
<svg height="100%" width="100%" xmlns="http://www.w3.org/2000/svg">
	<defs>
		<font horiz-adv-x="574" id="web">
			<font-face alphabetic="0" ascent="961" descent="-250" font-family="" panose-1="2 11 8 6 3 5 4 9 2 4"/>
			<missing-glyph d="M0 718H512V0H0ZM50 667V50H462V667ZM259 609Q313 609 348 573T383 478Q383 444 369 416T319 357Q289 330 280 311T271 258V234H225V259Q225 305 236 330T287 396Q312 421 322 436T332 474Q332 509 309 534T256 559Q222 559 201 535T174 464L124 472Q130 539 165 574T259 609ZM222 184H278V117H222Z" horiz-adv-x="512"/>
			<glyph d="" horiz-adv-x="260" unicode=" "/>
			<glyph d="M189 698H347L226 222H108ZM79 150H223L192 0H48Z" horiz-adv-x="388" unicode="!"/>
			<glyph d="M173 750H299L244 490H118ZM391 750H517L462 490H336Z" horiz-adv-x="520" unicode="&quot;"/>
			<glyph d="M187 698H279L236 499H335L378 698H470L428 499H507V407H408L383 291H471V199H364L321 0H229L271 199H172L130 0H38L80 199H10V291H99L124 407H46V499H144ZM216 407L191 291H290L315 407Z" horiz-adv-x="520" unicode="#"/>
			<glyph d="M303 831H417L390 708Q448 702 497 684L465 559Q406 593 339 593Q289 593 260 574T232 519Q232 491 247 469T281 435T350 390Q396 361 418 334T447 283T453 227Q453 130 397 70T238 -6L213 -129H99L124 -10Q54 -6 -10 20L29 153Q54 135 92 123T168 111Q225 111 254 131T284 197Q284 226 263 251T195 304Q122 345 94 389T67 483Q67 576 121 634T275 706Z" horiz-adv-x="520" unicode="$"/>
			<glyph d="M601 731H691L253 -33H163ZM265 710Q321 710 354 674T388 577Q388 505 363 442T294 341T193 304Q137 304 103 341T70 439Q70 504 94 566T162 669T265 710ZM252 630Q232 630 212 598T180 520T169 437Q169 413 179 398T206 384Q228 384 247 417T278 496T290 576Q290 602 280 616T252 630ZM658 394Q714 394 747 358T781 261Q781 189 756 126T687 25T586 -12Q530 -12 496 25T463 123Q463 188 487 250T555 353T658 394ZM645 314Q624 314 605 282T574 204T562 121Q562 97 572 82T599 68Q621 68 640 101T671 180T683 260Q683 286 673 300T645 314Z" horiz-adv-x="852" unicode="%"/>
			<glyph d="M358 710Q411 710 453 690T520 635T545 559Q545 498 505 450T376 359L448 239Q469 260 487 299T519 386H658Q631 251 515 138L596 0H431L400 52Q348 15 308 1T219 -12Q159 -12 112 10T40 71T14 161Q14 310 190 391Q169 419 156 454T144 524Q144 577 172 619T250 686T358 710ZM355 614Q321 614 301 595T281 538Q281 519 288 500T319 444Q374 471 395 495T416 559Q416 581 398 597T355 614ZM251 299Q209 275 188 246T168 180Q168 144 189 122T249 101Q278 101 300 111T344 142Z" horiz-adv-x="704" unicode="&amp;"/>
			<glyph d="M152 750H278L223 490H97Z" horiz-adv-x="260" unicode="'"/>
			<glyph d="M261 755H384Q259 582 204 440T149 148Q149 73 158 16T199 -139H89Q46 -41 30 21T15 164Q15 472 261 755Z" horiz-adv-x="315" unicode="("/>
			<glyph d="M95 755H205Q248 657 263 594T279 452Q279 144 33 -139H-90Q35 34 90 176T145 468Q145 543 135 599T95 755Z" horiz-adv-x="315" unicode=")"/>
			<glyph d="M271 750H385L349 616L472 680L495 571L362 548L448 452L345 386L301 506L227 386L141 452L244 548L118 571L166 680L278 616Z" horiz-adv-x="519" unicode="*"/>
			<glyph d="M228 506H332V305H533V201H332V0H228V201H27V305H228Z" horiz-adv-x="600" unicode="+"/>
			<glyph d="M17 150H157L45 -110H-68Z" horiz-adv-x="260" unicode=","/>
			<glyph d="M41 348H290L265 226H16Z" horiz-adv-x="333" unicode="-"/>
			<glyph d="M15 150H159L128 0H-16Z" horiz-adv-x="260" unicode="."/>
			<glyph d="M254 710H358L41 -12H-63Z" horiz-adv-x="296" unicode="/"/>
			<glyph d="M332 709Q421 709 471 654T522 505Q522 436 504 346T452 177Q369 -11 218 -11Q117 -11 69 43T22 202Q22 291 49 398T129 589Q165 645 216 677T332 709ZM324 596Q295 596 267 558T217 448Q194 376 182 306T170 184Q170 102 221 102Q250 102 277 140T328 252Q374 402 374 510Q374 557 361 576T324 596Z" horiz-adv-x="554" unicode="0"/>
			<glyph d="M301 698H432L284 0H126L236 514L130 437L65 532Z" horiz-adv-x="424" unicode="1"/>
			<glyph d="M313 710Q399 710 451 663T503 541Q503 472 472 417T381 304Q330 254 289 219T197 141L174 122H422L398 0H-26L-5 122L57 177L105 220Q215 315 275 381T335 501Q335 542 313 561T254 580Q180 580 106 530L122 669Q174 692 217 701T313 710Z" horiz-adv-x="514" unicode="2"/>
			<glyph d="M279 710Q378 710 434 667T490 550Q490 480 447 432T321 361V359Q376 345 407 309T438 225Q438 153 401 99T296 17T138 -12Q32 -12 -33 19L0 146Q69 110 139 110Q204 110 239 140T275 226Q275 262 247 281T171 301H118L136 414Q237 414 283 439T329 521Q329 553 305 570T239 587Q164 587 99 554L115 678Q155 695 192 702T279 710Z" horiz-adv-x="512" unicode="3"/>
			<glyph d="M354 698H526L430 249H506L483 135H406L378 0H228L256 135H-2L27 276ZM344 528L135 249H286L346 528Z" horiz-adv-x="554" unicode="4"/>
			<glyph d="M135 698H516L492 580H249L221 445Q240 450 274 450Q328 450 369 427T434 365T458 275Q458 191 419 125T310 24T150 -12Q38 -12 -20 19L13 143Q37 129 73 120T147 111Q212 111 250 147T288 247Q288 294 256 320T164 347Q137 347 115 342T58 325Z" horiz-adv-x="523" unicode="5"/>
			<glyph d="M383 710Q422 710 454 703T524 683L490 562Q441 592 377 592Q236 592 194 389H196Q227 420 256 433T320 447Q389 447 429 402T470 283Q470 202 437 134T345 27T213 -12Q122 -12 69 42T17 195Q17 233 28 298T62 434T120 561Q165 631 231 670T383 710ZM259 329Q233 329 210 305T174 244T161 167Q161 136 177 117T218 99Q245 99 267 123T301 186T314 265Q314 295 300 312T259 329Z" horiz-adv-x="534" unicode="6"/>
			<glyph d="M112 698H531L503 561L182 0H7L349 576H87Z" horiz-adv-x="499" unicode="7"/>
			<glyph d="M327 710Q384 710 428 689T497 633T522 551Q522 487 485 440T369 359Q423 332 450 294T477 212Q477 148 443 97T349 17T216 -12Q154 -12 105 9T30 70T3 159Q3 232 44 281T171 364Q134 388 112 423T91 502Q91 560 123 607T210 682T327 710ZM317 599Q282 599 257 570T233 499Q233 468 246 442T284 404Q328 423 353 456T378 529Q378 559 361 579T317 599ZM262 315Q154 275 154 174Q154 142 174 120T224 99Q266 99 293 131T321 213Q321 246 305 273T262 315Z" horiz-adv-x="540" unicode="8"/>
			<glyph d="M310 710Q401 710 453 655T506 509Q506 416 468 287Q428 150 348 69T141 -12Q101 -12 68 -5T-1 15L33 136Q82 106 146 106Q216 106 262 157T329 309H327Q296 278 266 264T204 251Q133 251 93 295T53 416Q53 496 86 563T177 670T310 710ZM305 599Q279 599 256 574T221 512T209 434Q209 369 263 369Q290 369 313 392T349 453T362 530Q362 562 346 580T305 599Z" horiz-adv-x="532" unicode="9"/>
			<glyph d="M94 521H238L206 371H62ZM15 150H159L128 0H-16Z" horiz-adv-x="260" unicode=":"/>
			<glyph d="M94 521H238L206 371H62ZM17 150H157L45 -110H-68Z" horiz-adv-x="260" unicode=";"/>
			<glyph d="M533 514V414L161 253L533 92V-8L27 210V296Z" horiz-adv-x="600" unicode="&lt;"/>
			<glyph d="M27 414H533V310H27ZM27 196H533V92H27Z" horiz-adv-x="600" unicode="="/>
			<glyph d="M47 514L553 296V210L47 -8V92L419 253L47 414Z" horiz-adv-x="600" unicode="&gt;"/>
			<glyph d="M281 710Q372 710 424 669T477 559Q477 508 450 461T361 359Q322 324 304 303T279 265T269 223H135Q140 267 150 294T182 349T250 422Q278 450 294 474T310 524Q310 584 225 584Q199 584 165 575T101 552L120 681Q165 697 200 703T281 710ZM117 150H261L230 0H86Z" horiz-adv-x="463" unicode="?"/>
			<glyph d="M446 710Q541 710 614 674T727 573T768 420Q768 354 735 295T648 200T531 165Q503 165 486 180T467 220H465Q437 188 409 174T343 161Q305 161 273 180T222 234T204 310Q204 371 231 423T306 507T413 538Q454 538 480 522T523 478L540 528H626L550 300Q541 273 541 256Q541 248 546 242T561 237Q594 237 623 264T669 333T686 420Q686 518 620 572T439 627Q351 627 282 585T176 471T138 309Q138 199 203 135T383 72Q448 72 493 86T579 135H679Q628 63 550 25T376 -12Q278 -12 201 29T81 143T38 310Q38 421 92 512T239 657T446 710ZM418 459Q388 459 361 440T317 389T300 321Q300 285 319 262T372 239Q403 239 429 259T470 311T485 380Q485 416 468 437T418 459Z" horiz-adv-x="800" unicode="@"/>
			<glyph d="M308 698H490L570 0H412L400 156H184L108 0H-65ZM371 564L234 274H393L373 564Z" horiz-adv-x="648" unicode="A"/>
			<glyph d="M140 698H363Q451 698 502 655T553 542Q553 473 513 426T398 359V357Q453 346 482 312T512 227Q512 156 478 104T384 26T248 0H-8ZM274 584L237 414H287Q339 414 367 442T396 519Q396 551 377 567T324 584ZM213 300L175 118H239Q290 118 320 147T351 229Q351 261 329 280T273 300Z" unicode="B"/>
			<glyph d="M445 710Q540 710 607 679L571 543Q543 562 514 571T446 580Q374 580 319 540T235 433T206 287Q206 208 248 165T367 122Q436 122 503 159L480 15Q406 -12 329 -12Q243 -12 176 22T72 121T35 273Q35 397 88 496T234 653T445 710Z" unicode="C"/>
			<glyph d="M140 698H340Q481 698 557 630T634 433Q634 309 585 210T448 55T250 0H-8ZM278 576L181 122H247Q309 122 358 161T436 269T465 427Q465 499 429 537T328 576Z" horiz-adv-x="667" unicode="D"/>
			<glyph d="M140 698H543L517 576H272L239 420H472L446 298H213L175 122H432L407 0H-8Z" horiz-adv-x="519" unicode="E"/>
			<glyph d="M140 698H527L501 576H272L237 414H457L432 292H212L150 0H-8Z" horiz-adv-x="481" unicode="F"/>
			<glyph d="M462 710Q512 710 562 702T653 681L619 547Q593 564 549 574T465 584Q385 584 325 545T233 436T201 279Q201 203 239 158T346 114Q367 114 381 116T409 124L441 282H349L373 400H621L542 28Q498 8 441 -2T332 -12Q243 -12 175 23T70 124T33 278Q33 400 87 498T238 653T462 710Z" horiz-adv-x="667" unicode="G"/>
			<glyph d="M140 698H304L245 420H415L474 698H638L490 0H326L387 290H217L156 0H-8Z" horiz-adv-x="630" unicode="H"/>
			<glyph d="M140 698H304L156 0H-8Z" horiz-adv-x="296" unicode="I"/>
			<glyph d="M233 698H397L293 208Q269 94 210 41T50 -12Q25 -12 -5 -6T-56 8L-22 141Q9 128 38 128Q77 128 98 149T131 220Z" horiz-adv-x="389" unicode="J"/>
			<glyph d="M140 698H304L243 409H245L468 698H657L368 358L535 0H352L226 321H224L156 0H-8Z" horiz-adv-x="611" unicode="K"/>
			<glyph d="M140 698H304L182 126H413L387 0H-8Z" horiz-adv-x="481" unicode="L"/>
			<glyph d="M140 698H380L401 249H403L617 698H860L712 0H562L679 552H677L404 0H295L261 552H259L142 0H-8Z" horiz-adv-x="852" unicode="M"/>
			<glyph d="M137 698H325L429 212H431L534 698H678L530 0H340L242 507H240L133 0H-11Z" horiz-adv-x="667" unicode="N"/>
			<glyph d="M395 710Q516 710 584 641T653 450Q653 276 562 131Q472 -12 290 -12Q169 -12 100 57T32 249Q32 433 125 571Q219 710 395 710ZM387 592Q335 592 292 540T225 407T201 239Q201 178 227 142T297 106Q350 106 393 157T460 291T484 459Q484 521 458 556T387 592Z" horiz-adv-x="685" unicode="O"/>
			<glyph d="M140 698H347Q446 698 503 649T561 514Q561 435 528 376T435 286T292 255H210L156 0H-8ZM272 576L230 377H287Q337 377 366 411T395 503Q395 538 373 557T312 576Z" horiz-adv-x="556" unicode="P"/>
			<glyph d="M395 710Q516 710 584 641T653 450Q653 318 594 189Q536 64 427 14L523 -137H347L284 -12Q163 -8 97 60T32 249Q32 433 125 571Q219 710 395 710ZM387 592Q335 592 292 540T225 407T201 239Q201 178 227 142T297 106Q350 106 393 157T460 291T484 459Q484 521 458 556T387 592Z" horiz-adv-x="685" unicode="Q"/>
			<glyph d="M140 698H376Q463 698 515 654T567 533Q567 455 524 405T401 337L402 333Q430 323 443 297T463 225L493 0H324L305 206Q298 282 244 282H215L156 0H-8ZM273 580L235 400H288Q342 400 372 431T403 516Q403 544 381 562T324 580Z" horiz-adv-x="593" unicode="R"/>
			<glyph d="M351 710Q431 710 507 683L475 558Q416 592 349 592Q298 592 270 572T242 516Q242 489 258 467T293 432T360 389Q406 360 428 333T457 282T463 226Q463 112 387 50T174 -12Q124 -12 83 -5T0 19L39 152Q64 134 102 122T178 110Q235 110 264 130T294 196Q294 225 273 250T205 303Q132 344 104 388T77 482Q77 589 149 649T351 710Z" horiz-adv-x="537" unicode="S"/>
			<glyph d="M90 698H558L531 572H379L258 0H94L215 572H63Z" horiz-adv-x="500" unicode="T"/>
			<glyph d="M133 698H297L204 260Q194 214 194 189Q194 155 213 134T269 114Q314 114 340 138T382 231L481 698H646L548 237Q522 111 448 49T261 -12Q152 -12 91 37T30 177Q30 217 41 266Z" horiz-adv-x="630" unicode="U"/>
			<glyph d="M80 698H251L272 189H274L502 698H675L320 0H144Z" horiz-adv-x="611" unicode="V"/>
			<glyph d="M78 698H232L214 202H216L400 698H592L576 202H578L771 698H918L637 0H445L467 542H465L266 0H74Z" horiz-adv-x="852" unicode="W"/>
			<glyph d="M102 698H278L335 477L474 698H660L402 365L531 0H356L288 253L125 0H-64L221 373Z" horiz-adv-x="611" unicode="X"/>
			<glyph d="M74 698H253L315 425L471 698H662L361 264L305 0H141L197 267Z" horiz-adv-x="592" unicode="Y"/>
			<glyph d="M111 698H559L532 570L170 126H441L415 0H-44L-16 134L344 572H84Z" horiz-adv-x="519" unicode="Z"/>
			<glyph d="M158 756H371L350 656H259L111 -40H202L181 -140H-32Z" horiz-adv-x="315" unicode="["/>
			<glyph d="M52 710H156L242 -12H138Z" horiz-adv-x="296" unicode="\"/>
			<glyph d="M116 756H329L139 -140H-74L-53 -40H38L186 656H95Z" horiz-adv-x="315" unicode="]"/>
			<glyph d="M326 698H422L526 313H425L355 594L165 313H58Z" horiz-adv-x="600" unicode="^"/>
			<glyph d="M0 -75H500V-125H0Z" horiz-adv-x="500" unicode="_"/>
			<glyph d="M70 726H205L241 580H152Z" horiz-adv-x="222" unicode="`"/>
			<glyph d="M294 529Q383 529 433 488T484 382Q484 344 453 206Q422 69 415 0H276Q277 28 286 72H284Q254 29 219 9T139 -11Q73 -11 31 29T-11 135Q-11 229 56 277T257 325H335Q340 352 340 367Q340 395 321 410T266 425Q225 425 191 416T104 384L110 498Q166 517 204 523T294 529ZM288 251Q134 251 134 153Q134 126 151 109T198 92Q238 92 268 120T311 211L319 251Z" horiz-adv-x="537" unicode="a"/>
			<glyph d="M140 750H298L233 444H235Q267 490 299 509T376 529Q443 529 483 479T524 341Q524 249 490 168T400 40T277 -8Q185 -8 150 83H148Q135 25 127 0H-23Q-11 43 15 165ZM308 420Q272 420 242 383T197 291T181 185Q181 146 198 123T244 101Q279 101 306 133T348 219T364 337Q364 375 349 397T308 420Z" unicode="b"/>
			<glyph d="M315 529Q393 529 443 505L413 387Q374 407 318 407Q250 407 209 353T169 220Q169 167 197 138T274 110Q302 110 325 116T377 135L362 16Q313 -8 235 -8Q168 -8 117 18T38 92T11 202Q11 292 49 367T157 485T315 529Z" horiz-adv-x="444" unicode="c"/>
			<glyph d="M446 750H604L469 118Q449 22 449 0H299Q300 28 312 80H310Q282 35 245 13T161 -8Q94 -8 53 43T12 183Q12 277 45 356T134 482T255 529Q351 529 379 444H381ZM292 420Q258 420 230 388T187 301T172 184Q172 145 186 123T228 101Q265 101 294 138T339 230T355 336Q355 375 338 397T292 420Z" unicode="d"/>
			<glyph d="M300 529Q388 529 439 480T490 348Q490 293 472 219H162L160 197Q160 152 191 126T276 100Q343 100 424 136L409 18Q329 -8 251 -8Q141 -8 78 48T16 201Q16 277 49 352T147 478T300 529ZM292 433Q252 433 222 401T177 305H348Q356 331 356 356Q356 390 338 411T292 433Z" horiz-adv-x="537" unicode="e"/>
			<glyph d="M348 762Q401 762 449 750L422 640Q398 648 378 648Q348 648 332 634T309 590L294 521H390L367 410H271L184 0H26L113 410H23L46 521H136L155 611Q171 688 217 725T348 762Z" horiz-adv-x="370" unicode="f"/>
			<glyph d="M255 529Q301 529 335 506T386 438H388Q391 449 398 480T409 521H559Q552 501 541 453T530 404L453 37Q425 -95 348 -158T141 -222Q48 -222 -49 -191L-17 -62Q64 -108 138 -108Q193 -108 222 -93T272 -37T310 89H308Q278 43 243 21T161 0Q95 0 53 51T12 187Q12 280 45 358T134 483T255 529ZM292 420Q259 420 231 388T187 303T172 189Q172 153 187 131T228 109Q265 109 294 144T339 233T355 336Q355 375 338 397T292 420Z" unicode="g"/>
			<glyph d="M140 750H298L234 452H237Q299 530 378 530Q434 530 470 495T507 405Q507 377 500 345L427 0H269L337 320Q341 343 341 356Q341 376 329 389T298 403Q265 403 239 379T203 303L139 0H-19Z" horiz-adv-x="556" unicode="h"/>
			<glyph d="M141 750H299L269 610H111ZM96 521H254L144 0H-14Z" horiz-adv-x="278" unicode="i"/>
			<glyph d="M141 750H299L269 610H111ZM96 521H254L137 -31Q115 -137 69 -179T-52 -222Q-83 -222 -103 -219T-142 -208L-117 -102Q-99 -108 -84 -108Q-56 -108 -43 -91T-23 -40Z" horiz-adv-x="278" unicode="j"/>
			<glyph d="M145 750H303L209 313H211L376 521H547L330 277L456 0H290L198 248H196L144 0H-14Z" horiz-adv-x="537" unicode="k"/>
			<glyph d="M145 750H303L144 0H-14Z" horiz-adv-x="278" unicode="l"/>
			<glyph d="M655 530Q713 530 749 495T785 405Q785 374 779 348L705 0H547L615 321Q619 338 619 356Q619 376 608 389T578 403Q508 403 488 308L422 0H264L332 320Q336 339 336 353Q336 377 325 390T295 403Q263 403 238 379T205 313L139 0H-19L74 439Q82 476 87 521H231Q231 510 227 489T217 434H219Q279 529 380 529Q468 529 497 442Q531 489 567 509T655 530Z" horiz-adv-x="834" unicode="m"/>
			<glyph d="M378 530Q434 530 470 495T507 405Q507 376 500 345L427 0H269L337 320Q341 343 341 356Q341 376 329 389T298 403Q264 403 239 378T203 303L139 0H-19L68 412Q80 470 87 521H231Q231 510 227 489T217 434H219Q246 479 288 504T378 530Z" horiz-adv-x="556" unicode="n"/>
			<glyph d="M301 529Q366 529 416 503T493 431T521 325Q521 256 492 178T399 46T236 -8Q137 -8 76 48T16 199Q18 286 51 361T149 483T301 529ZM297 420Q261 420 232 388T188 303T172 191Q172 149 190 125T239 101Q276 101 305 132T349 216T365 330Q365 373 347 396T297 420Z" unicode="o"/>
			<glyph d="M375 529Q444 529 484 480T524 341Q524 249 490 168T400 40T279 -8Q234 -8 202 13T157 77H155L93 -216H-65L73 437L87 521H237Q236 499 224 438H226Q260 488 293 508T375 529ZM308 420Q272 420 243 383T197 291T181 185Q181 146 198 123T244 101Q277 101 304 131T348 217T364 337Q364 375 349 397T308 420Z" unicode="p"/>
			<glyph d="M255 529Q301 529 335 506T386 438H388Q391 449 398 480T409 521H559Q548 488 525 378L399 -216H241L303 72H301Q270 28 238 10T161 -8Q94 -8 53 43T12 183Q12 277 45 356T134 482T255 529ZM292 420Q258 420 230 388T187 301T172 184Q172 145 186 123T228 101Q265 101 294 137T339 230T355 336Q355 375 338 397T292 420Z" unicode="q"/>
			<glyph d="M380 529H407L376 383Q351 389 329 389Q272 389 238 353T188 235L139 0H-19L68 412Q79 460 87 521H231Q231 513 225 479T215 427H217Q245 470 267 491T315 521T380 529Z" horiz-adv-x="389" unicode="r"/>
			<glyph d="M251 530Q318 530 391 507L362 391Q311 421 245 421Q213 421 194 408T176 376Q176 354 193 340T275 294Q324 267 341 239T358 167Q358 81 299 35T129 -11Q91 -11 44 -2T-25 16L7 138Q44 120 71 110T131 101Q173 101 191 112T210 146Q210 167 189 183T110 228Q64 254 48 285T32 354Q32 435 92 482T251 530Z" horiz-adv-x="426" unicode="s"/>
			<glyph d="M327 677L294 521H397L374 410H271L219 165Q217 155 217 145Q217 125 228 115T259 106Q280 106 313 117L290 6Q278 0 250 -4T189 -8Q125 -8 89 21T53 103Q53 123 56 139T60 159L113 410H28L51 521H140L163 628Z" horiz-adv-x="389" unicode="t"/>
			<glyph d="M92 521H250L183 205Q178 184 178 165Q178 145 189 131T221 118Q255 118 278 141T312 208L378 521H536L438 56Q436 47 430 0H286Q287 20 293 50T300 87H298Q270 41 229 16T141 -8Q84 -8 48 27T12 116Q12 148 18 173Z" horiz-adv-x="556" unicode="u"/>
			<glyph d="M38 521H198L220 150H222L391 521H549L280 0H94Z" horiz-adv-x="519" unicode="v"/>
			<glyph d="M39 521H194L197 150H199L344 521H521L525 150H527L672 521H825L580 0H413L405 381H403L246 0H73Z" horiz-adv-x="796" unicode="w"/>
			<glyph d="M56 521H221L269 368L368 521H538L331 266L440 0H280L226 175L109 0H-66L163 283Z" horiz-adv-x="519" unicode="x"/>
			<glyph d="M39 521H198L229 166H231L390 521H548L246 -52Q198 -143 148 -182T32 -222Q10 -222 -17 -218T-62 -209L-32 -92Q-2 -104 21 -104Q52 -104 76 -78T118 1Z" horiz-adv-x="519" unicode="y"/>
			<glyph d="M69 521H430L403 392L153 118H350L325 0H-47L-20 130L234 403H44Z" horiz-adv-x="426" unicode="z"/>
			<glyph d="M325 756H404L387 676H346Q320 676 305 661T282 603L244 425Q233 373 196 340T106 304V302Q150 292 172 269T195 207Q193 187 190 169L160 30Q152 -10 152 -19Q152 -60 191 -60H241L224 -140H144Q92 -140 58 -109T24 -28Q24 -17 26 -3L65 174Q67 184 67 196Q67 229 49 247T0 265L18 351Q60 352 86 377T122 444L159 622Q172 684 218 720T325 756Z" horiz-adv-x="333" unicode="{"/>
			<glyph d="M59 750H163V-250H59Z" horiz-adv-x="222" unicode="|"/>
			<glyph d="M91 756H171Q223 756 257 725T291 644Q291 633 289 619L250 442Q248 432 248 420Q248 387 266 369T315 351L297 265Q255 264 228 238T193 172L156 -6Q143 -68 96 -104T-10 -140H-89L-72 -60H-31Q-5 -60 9 -45T33 13L71 191Q82 243 118 275T209 312V314Q165 324 142 346T120 409Q122 429 125 447L155 586Q163 626 163 635Q163 676 124 676H74Z" horiz-adv-x="333" unicode="}"/>
			<glyph d="M491 341L513 254Q479 208 448 187T380 166Q354 166 329 174T273 202Q242 220 218 228T171 236Q141 236 119 220T69 165L45 252Q77 297 110 318T185 340Q214 340 242 330T312 296Q358 270 392 270Q413 270 434 285T491 341Z" horiz-adv-x="600" unicode="~"/>
			<glyph d="" horiz-adv-x="260" unicode=" "/>
			<glyph d="M158 521H302L271 371H127ZM124 299H242L161 -177H3Z" horiz-adv-x="388" unicode="¡"/>
			<glyph d="M377 643H432L406 524Q437 519 473 505L443 387Q413 400 381 405L318 110Q356 114 407 135L392 16Q371 6 349 1T294 -7L266 -135H212L239 -7Q147 2 94 58T41 202Q41 296 79 370T189 487T353 529ZM327 406Q268 396 233 345T199 220Q199 179 216 152T265 116Z" horiz-adv-x="520" unicode="¢"/>
			<glyph d="M420 710Q479 710 542 693L511 575Q486 585 465 590T421 596Q313 596 288 483L273 414H425L406 324H254L211 118H436L411 0H-34L-9 118H61L104 324H34L53 414H123L137 479Q164 602 236 656T420 710Z" horiz-adv-x="520" unicode="£"/>
			<glyph d="M73 591L126 538Q188 580 260 580Q332 580 394 538L447 591L502 536L449 483Q491 422 491 349Q491 281 449 215L502 162L447 107L394 160Q330 118 260 118Q190 118 126 160L73 107L18 162L71 215Q29 280 29 349Q29 420 71 483L18 536ZM259 484Q226 484 197 466T150 417T133 349Q133 313 150 282T196 232T260 214Q295 214 324 232T370 282T387 349Q387 385 370 416T323 465T259 484Z" horiz-adv-x="520" unicode="¤"/>
			<glyph d="M84 698H230L273 406H275L431 698H584L390 386H482L459 282H324L314 264L303 216H445L423 112H281L258 0H114L137 112H-4L19 216H159L170 267L166 282H31L54 386H147Z" horiz-adv-x="520" unicode="¥"/>
			<glyph d="M59 675H163V325H59ZM59 175H163V-175H59Z" horiz-adv-x="222" unicode="¦"/>
			<glyph d="M325 710Q407 710 488 680L452 566Q408 586 380 594T330 602Q253 602 253 547Q253 523 277 499T357 440Q409 407 431 375T454 306Q454 260 427 222T343 148Q385 108 385 51Q385 -4 355 -45T270 -108T143 -131Q92 -131 45 -120T-24 -94L13 23Q38 7 79 -6T148 -20Q191 -20 214 -4T238 43Q238 69 210 94T123 153Q40 201 40 281Q40 334 70 373T158 433Q112 479 112 535Q112 615 170 662T325 710ZM221 391Q193 364 183 346T173 308Q173 276 196 252T275 197Q300 222 310 240T320 282Q320 311 298 334T221 391Z" horiz-adv-x="519" unicode="§"/>
			<glyph d="M42 731H160L133 605H15ZM214 731H332L305 605H187Z" horiz-adv-x="222" unicode="¨"/>
			<glyph d="M400 710Q496 710 579 661T711 530T761 349Q761 253 713 170T582 37T400 -12Q304 -12 221 35T88 166T39 349Q39 446 87 529T219 661T400 710ZM399 624Q328 624 269 588T177 490T143 349Q143 271 177 208T270 109T400 74Q472 74 531 110T623 209T657 349Q657 426 623 488T531 587T399 624ZM410 565Q480 565 525 526T582 415H502Q496 449 470 467T410 485Q360 485 332 450T304 353Q304 295 334 257T411 219Q449 219 473 237T502 291H582Q572 222 524 180T410 139Q353 139 308 167T239 243T214 352Q214 415 239 463T308 538T410 565Z" horiz-adv-x="800" unicode="©"/>
			<glyph d="M251 709Q310 709 342 685T374 620Q374 601 370 585L344 460Q336 420 336 396H239Q239 411 246 439Q218 412 195 402T145 392Q102 392 76 414T50 475Q50 588 245 588H276Q279 599 279 608Q279 631 264 639T223 648Q199 648 172 640T123 620L133 691Q181 709 251 709ZM261 543Q204 543 177 529T150 484Q150 453 187 453Q219 453 238 474T266 543Z" horiz-adv-x="349" unicode="ª"/>
			<glyph d="M155 467H287L146 255L199 53H76L20 264ZM357 467H489L348 255L401 53H278L222 264Z" horiz-adv-x="520" unicode="«"/>
			<glyph d="M27 414H533V108H429V310H27Z" horiz-adv-x="600" unicode="¬"/>
			<glyph d="M41 348H290L265 226H16Z" horiz-adv-x="333" unicode="­"/>
			<glyph d="M400 710Q496 710 579 661T711 530T761 349Q761 253 713 170T582 37T400 -12Q304 -12 221 35T88 166T39 349Q39 446 87 529T219 661T400 710ZM399 624Q328 624 269 588T177 490T143 349Q143 271 177 208T270 109T400 74Q472 74 531 110T623 209T657 349Q657 426 623 488T531 587T399 624ZM261 545H404Q477 545 512 517T548 429Q548 336 456 326L554 158H462L376 322H341V158H261ZM341 479V388H408Q440 388 454 400T468 437Q468 479 392 479Z" horiz-adv-x="800" unicode="®"/>
			<glyph d="M33 697H327L308 611H14Z" horiz-adv-x="222" unicode="¯"/>
			<glyph d="M263 710Q329 710 368 672T408 571Q408 522 382 480T314 412T221 387Q157 387 116 425T76 526Q76 575 102 617T171 685T263 710ZM255 633Q216 633 188 602T160 530Q160 501 178 482T226 464Q266 464 295 494T324 566Q324 596 305 614T255 633Z" horiz-adv-x="400" unicode="°"/>
			<glyph d="M228 506H332V374H533V270H332V138H228V270H27V374H228ZM27 104H533V0H27Z" horiz-adv-x="600" unicode="±"/>
			<glyph d="M258 856Q315 856 350 824T385 747Q385 714 370 685T314 616T186 508H341L325 428H48L61 505L94 532Q185 605 229 651T273 730Q273 752 260 761T223 770Q201 770 174 761T126 738L136 830Q195 856 258 856Z" horiz-adv-x="338" unicode="²"/>
			<glyph d="M238 856Q303 856 340 829T378 757Q378 681 272 649V647Q311 636 332 613T354 561Q354 497 302 460T158 424Q125 424 94 429T46 441L65 524Q119 503 156 503Q196 503 217 518T238 564Q238 585 220 596T158 607H135L150 681Q213 681 242 693T272 736Q272 755 255 766T212 777Q159 777 120 758L130 838Q179 856 238 856Z" horiz-adv-x="338" unicode="³"/>
			<glyph d="M156 726H296L174 580H80Z" horiz-adv-x="222" unicode="´"/>
			<glyph d="M97 522H258L213 253Q205 211 205 178Q205 149 215 134T251 120Q286 120 311 165T350 291L390 522H555L491 162Q489 146 489 141Q489 113 513 113Q525 113 541 119L526 3Q507 -2 481 -5T439 -8Q389 -8 359 14T330 75H328Q305 33 275 11T213 -11Q168 -11 153 10H150L148 -10Q140 -90 133 -135L120 -210H-31Z" horiz-adv-x="585" unicode="µ"/>
			<glyph d="M310 698H609L434 -124H330L488 618H382L224 -124H120L219 341Q155 342 114 379T73 476Q73 580 138 639T310 698Z" horiz-adv-x="620" unicode="¶"/>
			<glyph d="M123 355Q155 355 173 337T192 289Q192 251 167 226T106 201Q74 201 55 219T37 267Q37 305 62 330T123 355Z" horiz-adv-x="260" unicode="·"/>
			<glyph d="M20 7H74L23 -54Q28 -53 46 -53Q86 -53 106 -73T127 -122Q127 -167 89 -194T-11 -222Q-45 -222 -68 -218T-111 -201L-87 -155Q-58 -172 -17 -172Q42 -172 42 -131Q42 -117 30 -107T2 -97Q-9 -97 -17 -98T-36 -105L-54 -87Z" horiz-adv-x="222" unicode="¸"/>
			<glyph d="M249 852H344L253 428H142L210 740L139 686L96 752Z" horiz-adv-x="338" unicode="¹"/>
			<glyph d="M253 709Q318 709 356 674T394 585Q394 532 369 487T300 417T199 392Q137 392 98 426T59 515Q59 570 83 614T152 684T253 709ZM243 644Q211 644 190 602T169 507Q169 485 179 471T210 458Q243 458 263 497T284 594Q284 616 273 630T243 644Z" horiz-adv-x="370" unicode="º"/>
			<glyph d="M81 467H204L260 256L125 53H-7L134 265ZM283 467H406L462 256L327 53H195L336 265Z" horiz-adv-x="520" unicode="»"/>
			<glyph d="M537 731H627L189 -33H99ZM215 705H310L219 281H108L176 593L105 539L62 605ZM591 424H713L654 150H696L682 76H639L623 0H515L531 76H365L382 165ZM584 310L462 150H550L586 310Z" horiz-adv-x="778" unicode="¼"/>
			<glyph d="M527 731H617L179 -33H89ZM215 705H310L219 281H108L176 593L105 539L62 605ZM598 428Q655 428 690 396T725 319Q725 286 710 257T654 188T526 80H681L665 0H388L401 77L434 104Q525 178 569 223T613 302Q613 324 600 333T563 342Q541 342 514 333T466 310L476 402Q535 428 598 428Z" horiz-adv-x="778" unicode="½"/>
			<glyph d="M568 731H658L220 -33H130ZM212 709Q277 709 314 682T352 610Q352 534 246 502V500Q285 489 306 466T328 414Q328 350 276 313T132 277Q99 277 68 282T20 294L39 377Q93 356 130 356Q170 356 191 371T212 417Q212 437 194 448T132 460H109L124 534Q187 534 216 546T246 589Q246 608 229 619T186 630Q133 630 94 611L104 691Q153 709 212 709ZM591 424H713L654 150H696L682 76H639L623 0H515L531 76H365L382 165ZM584 310L462 150H550L586 310Z" horiz-adv-x="778" unicode="¾"/>
			<glyph d="M195 521H339L308 371H164ZM156 298H290Q285 254 275 226T243 171T175 99Q147 71 131 46T115 -3Q115 -63 200 -63Q226 -63 260 -54T324 -31L305 -160Q260 -176 224 -182T144 -189Q53 -189 0 -148T-52 -38Q-52 13 -25 60T64 162Q103 197 121 218T146 255T156 298Z" horiz-adv-x="463" unicode="¿"/>
			<glyph d="M308 698H490L570 0H412L400 156H184L108 0H-65ZM371 564L234 274H393L373 564ZM296 888H431L467 742H378Z" horiz-adv-x="648" unicode="À"/>
			<glyph d="M308 698H490L570 0H412L400 156H184L108 0H-65ZM371 564L234 274H393L373 564ZM407 888H547L425 742H331Z" horiz-adv-x="648" unicode="Á"/>
			<glyph d="M308 698H490L570 0H412L400 156H184L108 0H-65ZM371 564L234 274H393L373 564ZM351 888H495L542 742H445L415 831L350 742H244Z" horiz-adv-x="648" unicode="Â"/>
			<glyph d="M308 698H490L570 0H412L400 156H184L108 0H-65ZM371 564L234 274H393L373 564ZM358 878Q389 878 425 859Q435 854 447 848T471 842Q500 842 508 878H582Q557 756 466 756Q436 756 393 778Q364 792 350 792Q329 792 316 756H242Q255 813 285 845T358 878Z" horiz-adv-x="648" unicode="Ã"/>
			<glyph d="M308 698H490L570 0H412L400 156H184L108 0H-65ZM371 564L234 274H393L373 564ZM283 886H401L374 760H256ZM455 886H573L546 760H428Z" horiz-adv-x="648" unicode="Ä"/>
			<glyph d="M308 698H490L570 0H412L400 156H184L108 0H-65ZM371 564L234 274H393L373 564ZM432 949Q476 949 502 923T529 854Q529 821 512 791T465 744T401 727Q357 727 330 753T303 822Q303 856 320 885T368 932T432 949ZM426 897Q399 897 379 875T360 825Q360 805 372 792T406 779Q434 779 453 800T472 850Q472 871 459 884T426 897Z" horiz-adv-x="648" unicode="Å"/>
			<glyph d="M396 698H888L862 576H634L601 420H815L789 298H575L537 122H775L750 0H358L391 156H216L122 0H-61ZM483 600L283 274H416L485 600Z" horiz-adv-x="870" unicode="Æ"/>
			<glyph d="M445 710Q540 710 607 679L571 543Q543 562 514 571T446 580Q374 580 319 540T235 433T206 287Q206 208 248 165T367 122Q436 122 503 159L480 15Q441 1 405 -5T327 -12L293 -10L257 -54Q262 -53 280 -53Q320 -53 340 -73T361 -122Q361 -167 323 -194T223 -222Q189 -222 166 -218T123 -201L147 -155Q176 -172 217 -172Q276 -172 276 -131Q276 -117 264 -107T236 -97Q225 -97 217 -98T198 -105L180 -87L246 -3Q145 20 90 92T35 273Q35 397 88 496T234 653T445 710Z" unicode="Ç"/>
			<glyph d="M140 698H543L517 576H272L239 420H472L446 298H213L175 122H432L407 0H-8ZM243 888H378L414 742H325Z" horiz-adv-x="519" unicode="È"/>
			<glyph d="M140 698H543L517 576H272L239 420H472L446 298H213L175 122H432L407 0H-8ZM349 888H489L367 742H273Z" horiz-adv-x="519" unicode="É"/>
			<glyph d="M140 698H543L517 576H272L239 420H472L446 298H213L175 122H432L407 0H-8ZM295 888H439L486 742H389L359 831L294 742H188Z" horiz-adv-x="519" unicode="Ê"/>
			<glyph d="M140 698H543L517 576H272L239 420H472L446 298H213L175 122H432L407 0H-8ZM227 886H345L318 760H200ZM399 886H517L490 760H372Z" horiz-adv-x="519" unicode="Ë"/>
			<glyph d="M140 698H304L156 0H-8ZM137 888H272L308 742H219Z" horiz-adv-x="296" unicode="Ì"/>
			<glyph d="M140 698H304L156 0H-8ZM231 888H371L249 742H155Z" horiz-adv-x="296" unicode="Í"/>
			<glyph d="M140 698H304L156 0H-8ZM184 888H328L375 742H278L248 831L183 742H77Z" horiz-adv-x="296" unicode="Î"/>
			<glyph d="M140 698H304L156 0H-8ZM112 886H230L203 760H85ZM284 886H402L375 760H257Z" horiz-adv-x="296" unicode="Ï"/>
			<glyph d="M140 698H340Q481 698 557 630T634 433Q634 309 585 210T448 55T250 0H-8L56 300H-11L13 414H80ZM278 576L243 414H345L321 300H219L181 122H247Q309 122 358 161T436 269T465 427Q465 499 429 537T328 576Z" horiz-adv-x="667" unicode="Ð"/>
			<glyph d="M137 698H325L429 212H431L534 698H678L530 0H340L242 507H240L133 0H-11ZM374 878Q405 878 441 859Q451 854 463 848T487 842Q516 842 524 878H598Q573 756 482 756Q452 756 409 778Q380 792 366 792Q345 792 332 756H258Q271 813 301 845T374 878Z" horiz-adv-x="667" unicode="Ñ"/>
			<glyph d="M395 710Q516 710 584 641T653 450Q653 276 562 131Q472 -12 290 -12Q169 -12 100 57T32 249Q32 433 125 571Q219 710 395 710ZM387 592Q335 592 292 540T225 407T201 239Q201 178 227 142T297 106Q350 106 393 157T460 291T484 459Q484 521 458 556T387 592ZM312 888H447L483 742H394Z" horiz-adv-x="685" unicode="Ò"/>
			<glyph d="M395 710Q516 710 584 641T653 450Q653 276 562 131Q472 -12 290 -12Q169 -12 100 57T32 249Q32 433 125 571Q219 710 395 710ZM387 592Q335 592 292 540T225 407T201 239Q201 178 227 142T297 106Q350 106 393 157T460 291T484 459Q484 521 458 556T387 592ZM426 888H566L444 742H350Z" horiz-adv-x="685" unicode="Ó"/>
			<glyph d="M395 710Q516 710 584 641T653 450Q653 276 562 131Q472 -12 290 -12Q169 -12 100 57T32 249Q32 433 125 571Q219 710 395 710ZM387 592Q335 592 292 540T225 407T201 239Q201 178 227 142T297 106Q350 106 393 157T460 291T484 459Q484 521 458 556T387 592ZM366 888H510L557 742H460L430 831L365 742H259Z" horiz-adv-x="685" unicode="Ô"/>
			<glyph d="M395 710Q516 710 584 641T653 450Q653 276 562 131Q472 -12 290 -12Q169 -12 100 57T32 249Q32 433 125 571Q219 710 395 710ZM387 592Q335 592 292 540T225 407T201 239Q201 178 227 142T297 106Q350 106 393 157T460 291T484 459Q484 521 458 556T387 592ZM370 878Q401 878 437 859Q447 854 459 848T483 842Q512 842 520 878H594Q569 756 478 756Q448 756 405 778Q376 792 362 792Q341 792 328 756H254Q267 813 297 845T370 878Z" horiz-adv-x="685" unicode="Õ"/>
			<glyph d="M395 710Q516 710 584 641T653 450Q653 276 562 131Q472 -12 290 -12Q169 -12 100 57T32 249Q32 433 125 571Q219 710 395 710ZM387 592Q335 592 292 540T225 407T201 239Q201 178 227 142T297 106Q350 106 393 157T460 291T484 459Q484 521 458 556T387 592ZM295 886H413L386 760H268ZM467 886H585L558 760H440Z" horiz-adv-x="685" unicode="Ö"/>
			<glyph d="M118 488L279 326L441 488L515 414L354 253L515 92L441 18L280 179L119 18L45 92L206 253L45 414Z" horiz-adv-x="600" unicode="×"/>
			<glyph d="M650 720L690 683L615 603Q653 541 653 450Q653 355 619 248T505 65T299 -12Q233 -12 186 4T106 54L35 -22L-6 15L69 96Q32 158 32 249Q32 354 68 460T185 638T389 710Q508 710 579 645ZM388 592Q336 592 293 540T225 404T201 232L472 534Q450 592 388 592ZM484 465L213 165Q225 136 247 121T298 106Q350 106 393 158T460 293T484 465Z" horiz-adv-x="685" unicode="Ø"/>
			<glyph d="M133 698H297L204 260Q194 214 194 189Q194 155 213 134T269 114Q314 114 340 138T382 231L481 698H646L548 237Q522 111 448 49T261 -12Q152 -12 91 37T30 177Q30 217 41 266ZM289 888H424L460 742H371Z" horiz-adv-x="630" unicode="Ù"/>
			<glyph d="M133 698H297L204 260Q194 214 194 189Q194 155 213 134T269 114Q314 114 340 138T382 231L481 698H646L548 237Q522 111 448 49T261 -12Q152 -12 91 37T30 177Q30 217 41 266ZM404 888H544L422 742H328Z" horiz-adv-x="630" unicode="Ú"/>
			<glyph d="M133 698H297L204 260Q194 214 194 189Q194 155 213 134T269 114Q314 114 340 138T382 231L481 698H646L548 237Q522 111 448 49T261 -12Q152 -12 91 37T30 177Q30 217 41 266ZM347 888H491L538 742H441L411 831L346 742H240Z" horiz-adv-x="630" unicode="Û"/>
			<glyph d="M133 698H297L204 260Q194 214 194 189Q194 155 213 134T269 114Q314 114 340 138T382 231L481 698H646L548 237Q522 111 448 49T261 -12Q152 -12 91 37T30 177Q30 217 41 266ZM277 886H395L368 760H250ZM449 886H567L540 760H422Z" horiz-adv-x="630" unicode="Ü"/>
			<glyph d="M74 698H253L315 425L471 698H662L361 264L305 0H141L197 267ZM374 888H514L392 742H298Z" horiz-adv-x="592" unicode="Ý"/>
			<glyph d="M140 698H304L286 614H330Q431 614 485 569T540 435Q540 359 506 299T412 205T274 171H192L156 0H-8ZM254 492L212 293H269Q320 293 349 327T379 420Q379 492 304 492Z" horiz-adv-x="556" unicode="Þ"/>
			<glyph d="M359 762Q416 762 461 739T530 678T555 592Q555 515 515 460T405 388V386Q456 374 483 337T511 251Q511 174 480 115T393 24T260 -8Q220 -8 191 -2L215 111Q224 107 250 107Q295 107 324 147T353 248Q353 332 267 333L291 446Q346 446 377 484T409 584Q409 616 391 635T346 654Q313 654 292 628T261 552L144 0H-14L98 527Q124 651 188 706T359 762Z" unicode="ß"/>
			<glyph d="M294 529Q383 529 433 488T484 382Q484 344 453 206Q422 69 415 0H276Q277 28 286 72H284Q254 29 219 9T139 -11Q73 -11 31 29T-11 135Q-11 229 56 277T257 325H335Q340 352 340 367Q340 395 321 410T266 425Q225 425 191 416T104 384L110 498Q166 517 204 523T294 529ZM288 251Q134 251 134 153Q134 126 151 109T198 92Q238 92 268 120T311 211L319 251ZM210 726H345L381 580H292Z" horiz-adv-x="537" unicode="à"/>
			<glyph d="M294 529Q383 529 433 488T484 382Q484 344 453 206Q422 69 415 0H276Q277 28 286 72H284Q254 29 219 9T139 -11Q73 -11 31 29T-11 135Q-11 229 56 277T257 325H335Q340 352 340 367Q340 395 321 410T266 425Q225 425 191 416T104 384L110 498Q166 517 204 523T294 529ZM288 251Q134 251 134 153Q134 126 151 109T198 92Q238 92 268 120T311 211L319 251ZM325 726H465L343 580H249Z" horiz-adv-x="537" unicode="á"/>
			<glyph d="M294 529Q383 529 433 488T484 382Q484 344 453 206Q422 69 415 0H276Q277 28 286 72H284Q254 29 219 9T139 -11Q73 -11 31 29T-11 135Q-11 229 56 277T257 325H335Q340 352 340 367Q340 395 321 410T266 425Q225 425 191 416T104 384L110 498Q166 517 204 523T294 529ZM288 251Q134 251 134 153Q134 126 151 109T198 92Q238 92 268 120T311 211L319 251ZM266 726H410L457 580H360L330 669L265 580H159Z" horiz-adv-x="537" unicode="â"/>
			<glyph d="M294 529Q383 529 433 488T484 382Q484 344 453 206Q422 69 415 0H276Q277 28 286 72H284Q254 29 219 9T139 -11Q73 -11 31 29T-11 135Q-11 229 56 277T257 325H335Q340 352 340 367Q340 395 321 410T266 425Q225 425 191 416T104 384L110 498Q166 517 204 523T294 529ZM288 251Q134 251 134 153Q134 126 151 109T198 92Q238 92 268 120T311 211L319 251ZM269 716Q300 716 336 697Q346 692 358 686T382 680Q411 680 419 716H493Q468 594 377 594Q347 594 304 616Q275 630 261 630Q240 630 227 594H153Q166 651 196 683T269 716Z" horiz-adv-x="537" unicode="ã"/>
			<glyph d="M294 529Q383 529 433 488T484 382Q484 344 453 206Q422 69 415 0H276Q277 28 286 72H284Q254 29 219 9T139 -11Q73 -11 31 29T-11 135Q-11 229 56 277T257 325H335Q340 352 340 367Q340 395 321 410T266 425Q225 425 191 416T104 384L110 498Q166 517 204 523T294 529ZM288 251Q134 251 134 153Q134 126 151 109T198 92Q238 92 268 120T311 211L319 251ZM196 731H314L287 605H169ZM368 731H486L459 605H341Z" horiz-adv-x="537" unicode="ä"/>
			<glyph d="M294 529Q383 529 433 488T484 382Q484 344 453 206Q422 69 415 0H276Q277 28 286 72H284Q254 29 219 9T139 -11Q73 -11 31 29T-11 135Q-11 229 56 277T257 325H335Q340 352 340 367Q340 395 321 410T266 425Q225 425 191 416T104 384L110 498Q166 517 204 523T294 529ZM288 251Q134 251 134 153Q134 126 151 109T198 92Q238 92 268 120T311 211L319 251ZM343 787Q387 787 413 761T440 692Q440 659 423 629T376 582T312 565Q268 565 241 591T214 660Q214 694 231 723T279 770T343 787ZM337 735Q310 735 290 713T271 663Q271 643 283 630T317 617Q345 617 364 638T383 688Q383 709 370 722T337 735Z" horiz-adv-x="537" unicode="å"/>
			<glyph d="M294 529Q343 529 380 510T435 459Q496 529 581 529Q665 529 716 479T768 348Q768 293 750 219H443L442 206Q438 159 466 129T555 100Q622 100 702 136L687 18Q610 -8 535 -8Q469 -8 422 17T352 93Q315 37 268 13T151 -11Q79 -11 34 29T-11 135Q-11 229 56 277T248 325H335Q340 343 340 367Q340 395 321 410T266 425Q226 425 192 416T104 384L110 498Q166 517 205 523T294 529ZM569 433Q531 433 501 400T458 305H626Q634 329 634 356Q634 390 616 411T569 433ZM292 251Q134 251 134 153Q134 127 151 109T195 92Q282 92 308 198L319 251Z" horiz-adv-x="815" unicode="æ"/>
			<glyph d="M315 529Q393 529 443 505L413 387Q374 407 318 407Q250 407 209 353T169 220Q169 167 197 138T274 110Q302 110 325 116T377 135L362 16Q313 -8 232 -8H225L186 -54Q191 -53 209 -53Q249 -53 269 -73T290 -122Q290 -167 252 -194T152 -222Q118 -222 95 -218T52 -201L76 -155Q105 -172 146 -172Q205 -172 205 -131Q205 -117 193 -107T165 -97Q154 -97 146 -98T127 -105L109 -87L176 -2Q100 14 55 68T11 202Q11 292 49 367T157 485T315 529Z" horiz-adv-x="444" unicode="ç"/>
			<glyph d="M300 529Q388 529 439 480T490 348Q490 293 472 219H162L160 197Q160 152 191 126T276 100Q343 100 424 136L409 18Q329 -8 251 -8Q141 -8 78 48T16 201Q16 277 49 352T147 478T300 529ZM292 433Q252 433 222 401T177 305H348Q356 331 356 356Q356 390 338 411T292 433ZM208 726H343L379 580H290Z" horiz-adv-x="537" unicode="è"/>
			<glyph d="M300 529Q388 529 439 480T490 348Q490 293 472 219H162L160 197Q160 152 191 126T276 100Q343 100 424 136L409 18Q329 -8 251 -8Q141 -8 78 48T16 201Q16 277 49 352T147 478T300 529ZM292 433Q252 433 222 401T177 305H348Q356 331 356 356Q356 390 338 411T292 433ZM329 726H469L347 580H253Z" horiz-adv-x="537" unicode="é"/>
			<glyph d="M300 529Q388 529 439 480T490 348Q490 293 472 219H162L160 197Q160 152 191 126T276 100Q343 100 424 136L409 18Q329 -8 251 -8Q141 -8 78 48T16 201Q16 277 49 352T147 478T300 529ZM292 433Q252 433 222 401T177 305H348Q356 331 356 356Q356 390 338 411T292 433ZM269 726H413L460 580H363L333 669L268 580H162Z" horiz-adv-x="537" unicode="ê"/>
			<glyph d="M300 529Q388 529 439 480T490 348Q490 293 472 219H162L160 197Q160 152 191 126T276 100Q343 100 424 136L409 18Q329 -8 251 -8Q141 -8 78 48T16 201Q16 277 49 352T147 478T300 529ZM292 433Q252 433 222 401T177 305H348Q356 331 356 356Q356 390 338 411T292 433ZM199 731H317L290 605H172ZM371 731H489L462 605H344Z" horiz-adv-x="537" unicode="ë"/>
			<glyph d="M96 521H254L144 0H-14ZM88 726H223L259 580H170Z" horiz-adv-x="278" unicode="ì"/>
			<glyph d="M96 521H254L144 0H-14ZM188 726H328L206 580H112Z" horiz-adv-x="278" unicode="í"/>
			<glyph d="M96 521H254L144 0H-14ZM141 726H285L332 580H235L205 669L140 580H34Z" horiz-adv-x="278" unicode="î"/>
			<glyph d="M96 521H254L144 0H-14ZM70 731H188L161 605H43ZM242 731H360L333 605H215Z" horiz-adv-x="278" unicode="ï"/>
			<glyph d="M272 762Q298 759 335 744T399 711L499 762L527 708L446 666Q532 559 532 408Q532 287 497 192T396 45T235 -8Q170 -8 120 17T43 89T16 196Q16 283 50 358T146 479T282 524Q315 524 342 510T383 475H385Q380 517 367 548T330 611L220 557L193 611L279 654Q257 672 209 687ZM298 420Q262 420 233 388T188 303T172 191Q172 148 189 124T238 101Q275 101 304 132T349 216T365 330Q365 372 347 396T298 420Z" unicode="ð"/>
			<glyph d="M378 530Q434 530 470 495T507 405Q507 376 500 345L427 0H269L337 320Q341 343 341 356Q341 376 329 389T298 403Q264 403 239 378T203 303L139 0H-19L68 412Q80 470 87 521H231Q231 510 227 489T217 434H219Q246 479 288 504T378 530ZM280 716Q311 716 347 697Q357 692 369 686T393 680Q422 680 430 716H504Q479 594 388 594Q358 594 315 616Q286 630 272 630Q251 630 238 594H164Q177 651 207 683T280 716Z" horiz-adv-x="556" unicode="ñ"/>
			<glyph d="M301 529Q366 529 416 503T493 431T521 325Q521 256 492 178T399 46T236 -8Q137 -8 76 48T16 199Q18 286 51 361T149 483T301 529ZM297 420Q261 420 232 388T188 303T172 191Q172 149 190 125T239 101Q276 101 305 132T349 216T365 330Q365 373 347 396T297 420ZM222 726H357L393 580H304Z" unicode="ò"/>
			<glyph d="M301 529Q366 529 416 503T493 431T521 325Q521 256 492 178T399 46T236 -8Q137 -8 76 48T16 199Q18 286 51 361T149 483T301 529ZM297 420Q261 420 232 388T188 303T172 191Q172 149 190 125T239 101Q276 101 305 132T349 216T365 330Q365 373 347 396T297 420ZM340 726H480L358 580H264Z" unicode="ó"/>
			<glyph d="M301 529Q366 529 416 503T493 431T521 325Q521 256 492 178T399 46T236 -8Q137 -8 76 48T16 199Q18 286 51 361T149 483T301 529ZM297 420Q261 420 232 388T188 303T172 191Q172 149 190 125T239 101Q276 101 305 132T349 216T365 330Q365 373 347 396T297 420ZM278 726H422L469 580H372L342 669L277 580H171Z" unicode="ô"/>
			<glyph d="M301 529Q366 529 416 503T493 431T521 325Q521 256 492 178T399 46T236 -8Q137 -8 76 48T16 199Q18 286 51 361T149 483T301 529ZM297 420Q261 420 232 388T188 303T172 191Q172 149 190 125T239 101Q276 101 305 132T349 216T365 330Q365 373 347 396T297 420ZM283 716Q314 716 350 697Q360 692 372 686T396 680Q425 680 433 716H507Q482 594 391 594Q361 594 318 616Q289 630 275 630Q254 630 241 594H167Q180 651 210 683T283 716Z" unicode="õ"/>
			<glyph d="M301 529Q366 529 416 503T493 431T521 325Q521 256 492 178T399 46T236 -8Q137 -8 76 48T16 199Q18 286 51 361T149 483T301 529ZM297 420Q261 420 232 388T188 303T172 191Q172 149 190 125T239 101Q276 101 305 132T349 216T365 330Q365 373 347 396T297 420ZM209 731H327L300 605H182ZM381 731H499L472 605H354Z" unicode="ö"/>
			<glyph d="M280 529Q315 529 336 507T357 452Q357 417 335 396T280 375Q245 375 224 396T203 452Q203 486 224 507T280 529ZM27 305H533V201H27ZM280 131Q315 131 336 109T357 54Q357 20 336 -1T280 -23Q245 -23 224 -1T203 54Q203 88 224 109T280 131Z" horiz-adv-x="600" unicode="÷"/>
			<glyph d="M491 540L526 509L476 455Q520 400 520 322Q520 258 493 181T400 48T234 -8Q152 -8 99 31L42 -30L8 1L64 61Q17 118 17 196Q17 286 51 362T150 483T302 529Q382 529 441 486ZM297 420Q262 420 233 389T187 305T171 187V182L353 388Q336 420 297 420ZM366 332L186 129Q203 101 239 101Q275 101 304 131T349 214T366 332Z" unicode="ø"/>
			<glyph d="M92 521H250L183 205Q178 184 178 165Q178 145 189 131T221 118Q255 118 278 141T312 208L378 521H536L438 56Q436 47 430 0H286Q287 20 293 50T300 87H298Q270 41 229 16T141 -8Q84 -8 48 27T12 116Q12 148 18 173ZM222 726H357L393 580H304Z" horiz-adv-x="556" unicode="ù"/>
			<glyph d="M92 521H250L183 205Q178 184 178 165Q178 145 189 131T221 118Q255 118 278 141T312 208L378 521H536L438 56Q436 47 430 0H286Q287 20 293 50T300 87H298Q270 41 229 16T141 -8Q84 -8 48 27T12 116Q12 148 18 173ZM341 726H481L359 580H265Z" horiz-adv-x="556" unicode="ú"/>
			<glyph d="M92 521H250L183 205Q178 184 178 165Q178 145 189 131T221 118Q255 118 278 141T312 208L378 521H536L438 56Q436 47 430 0H286Q287 20 293 50T300 87H298Q270 41 229 16T141 -8Q84 -8 48 27T12 116Q12 148 18 173ZM280 726H424L471 580H374L344 669L279 580H173Z" horiz-adv-x="556" unicode="û"/>
			<glyph d="M92 521H250L183 205Q178 184 178 165Q178 145 189 131T221 118Q255 118 278 141T312 208L378 521H536L438 56Q436 47 430 0H286Q287 20 293 50T300 87H298Q270 41 229 16T141 -8Q84 -8 48 27T12 116Q12 148 18 173ZM209 731H327L300 605H182ZM381 731H499L472 605H354Z" horiz-adv-x="556" unicode="ü"/>
			<glyph d="M39 521H198L229 166H231L390 521H548L246 -52Q198 -143 148 -182T32 -222Q10 -222 -17 -218T-62 -209L-32 -92Q-2 -104 21 -104Q52 -104 76 -78T118 1ZM315 726H455L333 580H239Z" horiz-adv-x="519" unicode="ý"/>
			<glyph d="M140 750H298L233 444H235Q266 489 299 509T376 529Q444 529 484 479T524 341Q524 248 489 167T398 39T277 -8Q231 -8 201 12T157 77H155L93 -216H-65ZM308 420Q273 420 244 382T198 290T181 185Q181 146 198 123T244 101Q277 101 304 133T348 220T364 337Q364 375 349 397T308 420Z" unicode="þ"/>
			<glyph d="M39 521H198L229 166H231L390 521H548L246 -52Q198 -143 148 -182T32 -222Q10 -222 -17 -218T-62 -209L-32 -92Q-2 -104 21 -104Q52 -104 76 -78T118 1ZM191 731H309L282 605H164ZM363 731H481L454 605H336Z" horiz-adv-x="519" unicode="ÿ"/>
			<glyph d="M308 698H490L570 0H412L400 156H184L108 0H-65ZM371 564L234 274H393L373 564ZM275 859H569L551 773H257Z" horiz-adv-x="648" unicode="Ā"/>
			<glyph d="M294 529Q383 529 433 488T484 382Q484 344 453 206Q422 69 415 0H276Q277 28 286 72H284Q254 29 219 9T139 -11Q73 -11 31 29T-11 135Q-11 229 56 277T257 325H335Q340 352 340 367Q340 395 321 410T266 425Q225 425 191 416T104 384L110 498Q166 517 204 523T294 529ZM288 251Q134 251 134 153Q134 126 151 109T198 92Q238 92 268 120T311 211L319 251ZM187 697H481L462 611H168Z" horiz-adv-x="537" unicode="ā"/>
			<glyph d="M308 698H490L570 0H412L400 156H184L108 0H-65ZM371 564L234 274H393L373 564ZM290 888H356Q354 877 354 873Q354 848 370 834T416 821Q486 821 504 888H570Q534 741 405 741Q349 741 317 770T285 847Q285 867 290 888Z" horiz-adv-x="648" unicode="Ă"/>
			<glyph d="M294 529Q383 529 433 488T484 382Q484 344 453 206Q422 69 415 0H276Q277 28 286 72H284Q254 29 219 9T139 -11Q73 -11 31 29T-11 135Q-11 229 56 277T257 325H335Q340 352 340 367Q340 395 321 410T266 425Q225 425 191 416T104 384L110 498Q166 517 204 523T294 529ZM288 251Q134 251 134 153Q134 126 151 109T198 92Q238 92 268 120T311 211L319 251ZM198 728H264Q262 720 262 713Q262 688 278 674T324 661Q393 661 412 728H478Q441 581 313 581Q257 581 225 610T193 687Q193 701 198 728Z" horiz-adv-x="537" unicode="ă"/>
			<glyph d="M308 698H490L570 0H508Q456 -47 438 -76T420 -129Q420 -147 432 -157T467 -168Q485 -168 503 -163L508 -209Q488 -217 470 -219T428 -222Q387 -222 361 -203T336 -154Q336 -115 364 -81T463 0H412L400 156H184L108 0H-65ZM371 564L234 274H393L373 564Z" horiz-adv-x="648" unicode="Ą"/>
			<glyph d="M294 529Q383 529 433 488T484 382Q484 344 453 206Q422 69 415 0H380Q291 -76 291 -129Q291 -147 303 -157T338 -168Q356 -168 374 -163L379 -209Q359 -217 341 -219T299 -222Q258 -222 232 -203T207 -154Q207 -89 293 -29L334 0H276Q277 28 286 72H284Q254 29 219 9T139 -11Q73 -11 31 29T-11 135Q-11 229 56 277T257 325H335Q340 352 340 367Q340 395 321 410T266 425Q225 425 191 416T104 384L110 498Q166 517 204 523T294 529ZM288 251Q134 251 134 153Q134 126 151 109T198 92Q237 92 267 119T311 212L319 251Z" horiz-adv-x="537" unicode="ą"/>
			<glyph d="M445 710Q540 710 607 679L571 543Q543 562 514 571T446 580Q374 580 319 540T235 433T206 287Q206 208 248 165T367 122Q436 122 503 159L480 15Q406 -12 329 -12Q243 -12 176 22T72 121T35 273Q35 397 88 496T234 653T445 710ZM447 888H587L465 742H371Z" unicode="Ć"/>
			<glyph d="M315 529Q393 529 443 505L413 387Q374 407 318 407Q250 407 209 353T169 220Q169 167 197 138T274 110Q302 110 325 116T377 135L362 16Q313 -8 235 -8Q168 -8 117 18T38 92T11 202Q11 292 49 367T157 485T315 529ZM324 726H464L342 580H248Z" horiz-adv-x="444" unicode="ć"/>
			<glyph d="M445 710Q540 710 607 679L571 543Q543 562 514 571T446 580Q374 580 319 540T235 433T206 287Q206 208 248 165T367 122Q436 122 503 159L480 15Q406 -12 329 -12Q243 -12 176 22T72 121T35 273Q35 397 88 496T234 653T445 710ZM388 888H532L579 742H482L452 831L387 742H281Z" unicode="Ĉ"/>
			<glyph d="M315 529Q393 529 443 505L413 387Q374 407 318 407Q250 407 209 353T169 220Q169 167 197 138T274 110Q302 110 325 116T377 135L362 16Q313 -8 235 -8Q168 -8 117 18T38 92T11 202Q11 292 49 367T157 485T315 529ZM273 726H417L464 580H367L337 669L272 580H166Z" horiz-adv-x="444" unicode="ĉ"/>
			<glyph d="M445 710Q540 710 607 679L571 543Q543 562 514 571T446 580Q374 580 319 540T235 433T206 287Q206 208 248 165T367 122Q436 122 503 159L480 15Q406 -12 329 -12Q243 -12 176 22T72 121T35 273Q35 397 88 496T234 653T445 710ZM402 886H520L493 760H375Z" unicode="Ċ"/>
			<glyph d="M315 529Q393 529 443 505L413 387Q374 407 318 407Q250 407 209 353T169 220Q169 167 197 138T274 110Q302 110 325 116T377 135L362 16Q313 -8 235 -8Q168 -8 117 18T38 92T11 202Q11 292 49 367T157 485T315 529ZM288 731H406L379 605H261Z" horiz-adv-x="444" unicode="ċ"/>
			<glyph d="M445 710Q540 710 607 679L571 543Q543 562 514 571T446 580Q374 580 319 540T235 433T206 287Q206 208 248 165T367 122Q436 122 503 159L480 15Q406 -12 329 -12Q243 -12 176 22T72 121T35 273Q35 397 88 496T234 653T445 710ZM316 888H413L443 799L508 888H614L507 742H363Z" unicode="Č"/>
			<glyph d="M315 529Q393 529 443 505L413 387Q374 407 318 407Q250 407 209 353T169 220Q169 167 197 138T274 110Q302 110 325 116T377 135L362 16Q313 -8 235 -8Q168 -8 117 18T38 92T11 202Q11 292 49 367T157 485T315 529ZM201 726H298L328 637L393 726H499L392 580H248Z" horiz-adv-x="444" unicode="č"/>
			<glyph d="M140 698H340Q481 698 557 630T634 433Q634 309 585 210T448 55T250 0H-8ZM278 576L181 122H247Q309 122 358 161T436 269T465 427Q465 499 429 537T328 576ZM254 888H351L381 799L446 888H552L445 742H301Z" horiz-adv-x="667" unicode="Ď"/>
			<glyph d="M446 750H604L469 118Q449 22 449 0H299Q300 28 312 80H310Q282 35 245 13T161 -8Q94 -8 53 43T12 183Q12 277 45 356T134 482T255 529Q351 529 379 444H381ZM292 420Q258 420 230 388T187 301T172 184Q172 145 186 123T228 101Q265 101 294 138T339 230T355 336Q355 375 338 397T292 420ZM658 726H781L704 555H616Z" unicode="ď"/>
			<glyph d="M140 698H340Q481 698 557 630T634 433Q634 309 585 210T448 55T250 0H-8L56 300H-11L13 414H80ZM278 576L243 414H345L321 300H219L181 122H247Q309 122 358 161T436 269T465 427Q465 499 429 537T328 576Z" horiz-adv-x="667" unicode="Đ"/>
			<glyph d="M446 750H604L588 678H646L629 600H572L469 118Q449 22 449 0H299Q300 28 312 80H310Q282 35 245 13T161 -8Q94 -8 53 43T12 183Q12 277 45 356T134 482T255 529Q351 529 379 444H381L414 600H267L284 678H430ZM292 420Q258 420 230 388T187 301T172 184Q172 145 186 123T228 101Q265 101 294 138T339 230T355 336Q355 375 338 397T292 420Z" unicode="đ"/>
			<glyph d="M140 698H543L517 576H272L239 420H472L446 298H213L175 122H432L407 0H-8ZM219 859H513L495 773H201Z" horiz-adv-x="519" unicode="Ē"/>
			<glyph d="M300 529Q388 529 439 480T490 348Q490 293 472 219H162L160 197Q160 152 191 126T276 100Q343 100 424 136L409 18Q329 -8 251 -8Q141 -8 78 48T16 201Q16 277 49 352T147 478T300 529ZM292 433Q252 433 222 401T177 305H348Q356 331 356 356Q356 390 338 411T292 433ZM191 697H485L466 611H172Z" horiz-adv-x="537" unicode="ē"/>
			<glyph d="M140 698H543L517 576H272L239 420H472L446 298H213L175 122H432L407 0H-8ZM228 888H294Q292 877 292 873Q292 848 308 834T354 821Q424 821 442 888H508Q472 741 343 741Q287 741 255 770T223 847Q223 867 228 888Z" horiz-adv-x="519" unicode="Ĕ"/>
			<glyph d="M300 529Q388 529 439 480T490 348Q490 293 472 219H162L160 197Q160 152 191 126T276 100Q343 100 424 136L409 18Q329 -8 251 -8Q141 -8 78 48T16 201Q16 277 49 352T147 478T300 529ZM292 433Q252 433 222 401T177 305H348Q356 331 356 356Q356 390 338 411T292 433ZM194 728H260Q258 720 258 713Q258 688 274 674T320 661Q389 661 408 728H474Q437 581 309 581Q253 581 221 610T189 687Q189 701 194 728Z" horiz-adv-x="537" unicode="ĕ"/>
			<glyph d="M140 698H543L517 576H272L239 420H472L446 298H213L175 122H432L407 0H-8ZM317 886H435L408 760H290Z" horiz-adv-x="519" unicode="Ė"/>
			<glyph d="M300 529Q388 529 439 480T490 348Q490 293 472 219H162L160 197Q160 152 191 126T276 100Q343 100 424 136L409 18Q329 -8 251 -8Q141 -8 78 48T16 201Q16 277 49 352T147 478T300 529ZM292 433Q252 433 222 401T177 305H348Q356 331 356 356Q356 390 338 411T292 433ZM283 731H401L374 605H256Z" horiz-adv-x="537" unicode="ė"/>
			<glyph d="M140 698H543L517 576H272L239 420H472L446 298H213L175 122H432L407 0H359Q307 -47 289 -76T271 -129Q271 -147 283 -157T318 -168Q336 -168 354 -163L359 -209Q339 -217 321 -219T279 -222Q238 -222 212 -203T187 -154Q187 -115 215 -81T314 0H-8Z" horiz-adv-x="519" unicode="Ę"/>
			<glyph d="M300 529Q388 529 439 480T490 348Q490 293 472 219H162L160 197Q160 152 191 126T276 100Q343 100 424 136L409 18Q335 -7 258 -8Q212 -49 195 -77T178 -129Q178 -147 190 -157T225 -168Q243 -168 261 -163L266 -209Q246 -217 228 -219T186 -222Q145 -222 119 -203T94 -154Q94 -92 176 -32L211 -6Q118 4 67 58T16 201Q16 277 49 353T147 479T300 529ZM292 433Q252 433 222 401T177 305H348Q356 331 356 356Q356 390 338 411T292 433Z" horiz-adv-x="537" unicode="ę"/>
			<glyph d="M140 698H543L517 576H272L239 420H472L446 298H213L175 122H432L407 0H-8ZM230 888H327L357 799L422 888H528L421 742H277Z" horiz-adv-x="519" unicode="Ě"/>
			<glyph d="M300 529Q388 529 439 480T490 348Q490 293 472 219H162L160 197Q160 152 191 126T276 100Q343 100 424 136L409 18Q329 -8 251 -8Q141 -8 78 48T16 201Q16 277 49 352T147 478T300 529ZM292 433Q252 433 222 401T177 305H348Q356 331 356 356Q356 390 338 411T292 433ZM199 726H296L326 637L391 726H497L390 580H246Z" horiz-adv-x="537" unicode="ě"/>
			<glyph d="M462 710Q512 710 562 702T653 681L619 547Q593 564 549 574T465 584Q385 584 325 545T233 436T201 279Q201 203 239 158T346 114Q367 114 381 116T409 124L441 282H349L373 400H621L542 28Q498 8 441 -2T332 -12Q243 -12 175 23T70 124T33 278Q33 400 87 498T238 653T462 710ZM413 888H557L604 742H507L477 831L412 742H306Z" horiz-adv-x="667" unicode="Ĝ"/>
			<glyph d="M255 529Q301 529 335 506T386 438H388Q391 449 398 480T409 521H559Q552 501 541 453T530 404L453 37Q425 -95 348 -158T141 -222Q48 -222 -49 -191L-17 -62Q64 -108 138 -108Q193 -108 222 -93T272 -37T310 89H308Q278 43 243 21T161 0Q95 0 53 51T12 187Q12 280 45 358T134 483T255 529ZM292 420Q259 420 231 388T187 303T172 189Q172 153 187 131T228 109Q265 109 294 144T339 233T355 336Q355 375 338 397T292 420ZM291 726H435L482 580H385L355 669L290 580H184Z" unicode="ĝ"/>
			<glyph d="M462 710Q512 710 562 702T653 681L619 547Q593 564 549 574T465 584Q385 584 325 545T233 436T201 279Q201 203 239 158T346 114Q367 114 381 116T409 124L441 282H349L373 400H621L542 28Q498 8 441 -2T332 -12Q243 -12 175 23T70 124T33 278Q33 400 87 498T238 653T462 710ZM346 888H412Q410 877 410 873Q410 848 426 834T472 821Q542 821 560 888H626Q590 741 461 741Q405 741 373 770T341 847Q341 867 346 888Z" horiz-adv-x="667" unicode="Ğ"/>
			<glyph d="M255 529Q301 529 335 506T386 438H388Q391 449 398 480T409 521H559Q552 501 541 453T530 404L453 37Q425 -95 348 -158T141 -222Q48 -222 -49 -191L-17 -62Q64 -108 138 -108Q193 -108 222 -93T272 -37T310 89H308Q278 43 243 21T161 0Q95 0 53 51T12 187Q12 280 45 358T134 483T255 529ZM292 420Q259 420 231 388T187 303T172 189Q172 153 187 131T228 109Q265 109 294 144T339 233T355 336Q355 375 338 397T292 420ZM230 728H296Q294 720 294 713Q294 688 310 674T356 661Q425 661 444 728H510Q473 581 345 581Q289 581 257 610T225 687Q225 701 230 728Z" unicode="ğ"/>
			<glyph d="M462 710Q512 710 562 702T653 681L619 547Q593 564 549 574T465 584Q385 584 325 545T233 436T201 279Q201 203 239 158T346 114Q367 114 381 116T409 124L441 282H349L373 400H621L542 28Q498 8 441 -2T332 -12Q243 -12 175 23T70 124T33 278Q33 400 87 498T238 653T462 710ZM427 886H545L518 760H400Z" horiz-adv-x="667" unicode="Ġ"/>
			<glyph d="M255 529Q301 529 335 506T386 438H388Q391 449 398 480T409 521H559Q552 501 541 453T530 404L453 37Q425 -95 348 -158T141 -222Q48 -222 -49 -191L-17 -62Q64 -108 138 -108Q193 -108 222 -93T272 -37T310 89H308Q278 43 243 21T161 0Q95 0 53 51T12 187Q12 280 45 358T134 483T255 529ZM292 420Q259 420 231 388T187 303T172 189Q172 153 187 131T228 109Q265 109 294 144T339 233T355 336Q355 375 338 397T292 420ZM306 731H424L397 605H279Z" unicode="ġ"/>
			<glyph d="M462 710Q512 710 562 702T653 681L619 547Q593 564 549 574T465 584Q385 584 325 545T233 436T201 279Q201 203 239 158T346 114Q367 114 381 116T409 124L441 282H349L373 400H621L542 28Q498 8 441 -2T332 -12Q243 -12 175 23T70 124T33 278Q33 400 87 498T238 653T462 710ZM248 -71H388L307 -232H192Z" horiz-adv-x="667" unicode="Ģ"/>
			<glyph d="M255 529Q301 529 335 506T386 438H388Q391 449 398 480T409 521H559Q552 501 541 453T530 404L453 37Q425 -95 348 -158T141 -222Q48 -222 -49 -191L-17 -62Q64 -108 138 -108Q193 -108 222 -93T272 -37T310 89H308Q278 43 243 21T161 0Q95 0 53 51T12 187Q12 280 45 358T134 483T255 529ZM292 420Q259 420 231 388T187 303T172 189Q172 153 187 131T228 109Q265 109 294 144T339 233T355 336Q355 375 338 397T292 420ZM343 726H456L401 580H266Z" unicode="ģ"/>
			<glyph d="M140 698H304L245 420H415L474 698H638L490 0H326L387 290H217L156 0H-8ZM351 888H495L542 742H445L415 831L350 742H244Z" horiz-adv-x="630" unicode="Ĥ"/>
			<glyph d="M140 750H298L234 452H237Q299 530 378 530Q434 530 470 495T507 405Q507 377 500 345L427 0H269L337 320Q341 343 341 356Q341 376 329 389T298 403Q265 403 239 379T203 303L139 0H-19ZM323 933H467L514 787H417L387 876L322 787H216Z" horiz-adv-x="556" unicode="ĥ"/>
			<glyph d="M140 698H304L282 594H452L474 698H638L616 594H678L659 504H597L490 0H326L385 278H215L156 0H-8L99 504H36L55 594H118ZM263 504L240 397H410L433 504Z" horiz-adv-x="630" unicode="Ħ"/>
			<glyph d="M140 750H298L282 678H427L410 600H266L234 452H237Q299 530 378 530Q434 530 470 495T507 405Q507 377 500 345L427 0H269L337 320Q341 343 341 356Q341 376 329 389T298 403Q265 403 239 379T203 303L139 0H-19L108 600H51L68 678H124Z" horiz-adv-x="556" unicode="ħ"/>
			<glyph d="M140 698H304L156 0H-8ZM179 878Q210 878 246 859Q256 854 268 848T292 842Q321 842 329 878H403Q378 756 287 756Q257 756 214 778Q185 792 171 792Q150 792 137 756H63Q76 813 106 845T179 878Z" horiz-adv-x="296" unicode="Ĩ"/>
			<glyph d="M96 521H254L144 0H-14ZM138 716Q169 716 205 697Q215 692 227 686T251 680Q280 680 288 716H362Q337 594 246 594Q216 594 173 616Q144 630 130 630Q109 630 96 594H22Q35 651 65 683T138 716Z" horiz-adv-x="278" unicode="ĩ"/>
			<glyph d="M140 698H304L156 0H-8ZM104 859H398L380 773H86Z" horiz-adv-x="296" unicode="Ī"/>
			<glyph d="M96 521H254L144 0H-14ZM61 697H355L336 611H42Z" horiz-adv-x="278" unicode="ī"/>
			<glyph d="M140 698H304L156 0H128Q76 -47 58 -76T40 -129Q40 -147 52 -157T87 -168Q105 -168 123 -163L128 -209Q108 -217 90 -219T48 -222Q7 -222 -18 -203T-44 -154Q-44 -115 -16 -81T83 0H-8Z" horiz-adv-x="296" unicode="Į"/>
			<glyph d="M141 750H299L269 610H111ZM96 521H254L144 0H119Q31 -80 31 -129Q31 -147 43 -157T78 -168Q96 -168 114 -163L119 -209Q99 -217 81 -219T39 -222Q-2 -222 -27 -203T-53 -154Q-53 -92 29 -32L74 0H-14Z" horiz-adv-x="278" unicode="į"/>
			<glyph d="M140 698H304L156 0H-8ZM201 886H319L292 760H174Z" horiz-adv-x="296" unicode="İ"/>
			<glyph d="M96 521H254L144 0H-14Z" horiz-adv-x="278" unicode="ı"/>
			<glyph d="M140 698H304L156 0H-8ZM517 698H681L577 208Q553 94 494 41T334 -12Q309 -12 278 -6T228 8L262 141Q293 128 322 128Q361 128 382 149T415 220Z" horiz-adv-x="673" unicode="Ĳ"/>
			<glyph d="M141 750H299L269 610H111ZM96 521H254L144 0H-14ZM411 750H569L539 610H381ZM366 521H524L407 -31Q385 -137 339 -179T218 -222Q187 -222 166 -219T128 -208L153 -102Q171 -108 186 -108Q214 -108 226 -91T247 -40Z" horiz-adv-x="548" unicode="ĳ"/>
			<glyph d="M233 698H397L293 208Q269 94 210 41T50 -12Q25 -12 -5 -6T-56 8L-22 141Q9 128 38 128Q77 128 98 149T131 220ZM273 888H417L464 742H367L337 831L272 742H166Z" horiz-adv-x="389" unicode="Ĵ"/>
			<glyph d="M96 521H254L137 -31Q115 -137 69 -179T-52 -222Q-83 -222 -103 -219T-142 -208L-117 -102Q-99 -108 -84 -108Q-56 -108 -43 -91T-23 -40ZM140 726H284L331 580H234L204 669L139 580H33Z" horiz-adv-x="278" unicode="ĵ"/>
			<glyph d="M140 698H304L243 409H245L468 698H657L368 358L535 0H352L226 321H224L156 0H-8ZM167 -71H307L226 -232H111Z" horiz-adv-x="611" unicode="Ķ"/>
			<glyph d="M145 750H303L209 313H211L376 521H547L330 277L456 0H290L198 248H196L144 0H-14ZM133 -71H273L192 -232H77Z" horiz-adv-x="537" unicode="ķ"/>
			<glyph d="M140 698H304L182 126H413L387 0H-8ZM248 888H388L266 742H172Z" horiz-adv-x="481" unicode="Ĺ"/>
			<glyph d="M145 750H303L144 0H-14ZM239 933H379L257 787H163Z" horiz-adv-x="278" unicode="ĺ"/>
			<glyph d="M140 698H304L182 126H413L387 0H-8ZM112 -71H252L171 -232H56Z" horiz-adv-x="481" unicode="Ļ"/>
			<glyph d="M145 750H303L144 0H-14ZM-11 -71H129L48 -232H-67Z" horiz-adv-x="278" unicode="ļ"/>
			<glyph d="M140 698H304L182 126H413L387 0H-8ZM378 726H501L424 555H336Z" horiz-adv-x="481" unicode="Ľ"/>
			<glyph d="M145 750H303L144 0H-14ZM356 726H479L402 555H314Z" horiz-adv-x="278" unicode="ľ"/>
			<glyph d="M140 698H304L182 126H413L387 0H-8ZM313 427H431L404 301H286Z" horiz-adv-x="481" unicode="Ŀ"/>
			<glyph d="M145 750H303L144 0H-14ZM290 427H408L381 301H263Z" horiz-adv-x="405" unicode="ŀ"/>
			<glyph d="M140 698H304L249 438L395 538V448L226 333L182 126H413L387 0H-7L41 234L-32 184V275L63 338Z" horiz-adv-x="481" unicode="Ł"/>
			<glyph d="M145 750H303L246 480L323 533V442L224 375L144 0H-14L42 267L-27 216V306L66 374Z" horiz-adv-x="278" unicode="ł"/>
			<glyph d="M137 698H325L429 212H431L534 698H678L530 0H340L242 507H240L133 0H-11ZM437 888H577L455 742H361Z" horiz-adv-x="667" unicode="Ń"/>
			<glyph d="M378 530Q434 530 470 495T507 405Q507 376 500 345L427 0H269L337 320Q341 343 341 356Q341 376 329 389T298 403Q264 403 239 378T203 303L139 0H-19L68 412Q80 470 87 521H231Q231 510 227 489T217 434H219Q246 479 288 504T378 530ZM339 726H479L357 580H263Z" horiz-adv-x="556" unicode="ń"/>
			<glyph d="M137 698H325L429 212H431L534 698H678L530 0H340L242 507H240L133 0H-11ZM203 -71H343L262 -232H147Z" horiz-adv-x="667" unicode="Ņ"/>
			<glyph d="M378 530Q434 530 470 495T507 405Q507 376 500 345L427 0H269L337 320Q341 343 341 356Q341 376 329 389T298 403Q264 403 239 378T203 303L139 0H-19L68 412Q80 470 87 521H231Q231 510 227 489T217 434H219Q246 479 288 504T378 530ZM123 -71H263L182 -232H67Z" horiz-adv-x="556" unicode="ņ"/>
			<glyph d="M137 698H325L429 212H431L534 698H678L530 0H340L242 507H240L133 0H-11ZM306 888H403L433 799L498 888H604L497 742H353Z" horiz-adv-x="667" unicode="Ň"/>
			<glyph d="M378 530Q434 530 470 495T507 405Q507 376 500 345L427 0H269L337 320Q341 343 341 356Q341 376 329 389T298 403Q264 403 239 378T203 303L139 0H-19L68 412Q80 470 87 521H231Q231 510 227 489T217 434H219Q246 479 288 504T378 530ZM203 726H300L330 637L395 726H501L394 580H250Z" horiz-adv-x="556" unicode="ň"/>
			<glyph d="M103 750H243L131 490H18ZM493 530Q549 530 585 495T622 405Q622 376 615 345L542 0H384L452 320Q456 343 456 356Q456 376 444 389T413 403Q379 403 354 379T318 303L254 0H96L183 412Q195 470 202 521H346Q346 510 342 489T332 434H334Q361 479 403 504T493 530Z" horiz-adv-x="671" unicode="ŉ"/>
			<glyph d="M395 710Q516 710 584 641T653 450Q653 276 562 131Q472 -12 290 -12Q169 -12 100 57T32 249Q32 433 125 571Q219 710 395 710ZM387 592Q335 592 292 540T225 407T201 239Q201 178 227 142T297 106Q350 106 393 157T460 291T484 459Q484 521 458 556T387 592ZM287 859H581L563 773H269Z" horiz-adv-x="685" unicode="Ō"/>
			<glyph d="M301 529Q366 529 416 503T493 431T521 325Q521 256 492 178T399 46T236 -8Q137 -8 76 48T16 199Q18 286 51 361T149 483T301 529ZM297 420Q261 420 232 388T188 303T172 191Q172 149 190 125T239 101Q276 101 305 132T349 216T365 330Q365 373 347 396T297 420ZM200 697H494L475 611H181Z" unicode="ō"/>
			<glyph d="M395 710Q516 710 584 641T653 450Q653 276 562 131Q472 -12 290 -12Q169 -12 100 57T32 249Q32 433 125 571Q219 710 395 710ZM387 592Q335 592 292 540T225 407T201 239Q201 178 227 142T297 106Q350 106 393 157T460 291T484 459Q484 521 458 556T387 592ZM312 888H378Q376 877 376 873Q376 848 392 834T438 821Q508 821 526 888H592Q556 741 427 741Q371 741 339 770T307 847Q307 867 312 888Z" horiz-adv-x="685" unicode="Ŏ"/>
			<glyph d="M301 529Q366 529 416 503T493 431T521 325Q521 256 492 178T399 46T236 -8Q137 -8 76 48T16 199Q18 286 51 361T149 483T301 529ZM297 420Q261 420 232 388T188 303T172 191Q172 149 190 125T239 101Q276 101 305 132T349 216T365 330Q365 373 347 396T297 420ZM212 728H278Q276 720 276 713Q276 688 292 674T338 661Q407 661 426 728H492Q455 581 327 581Q271 581 239 610T207 687Q207 701 212 728Z" unicode="ŏ"/>
			<glyph d="M395 710Q516 710 584 641T653 450Q653 276 562 131Q472 -12 290 -12Q169 -12 100 57T32 249Q32 433 125 571Q219 710 395 710ZM387 592Q335 592 292 540T225 407T201 239Q201 178 227 142T297 106Q350 106 393 157T460 291T484 459Q484 521 458 556T387 592ZM335 888H472L350 742H260ZM524 888H660L539 742H448Z" horiz-adv-x="685" unicode="Ő"/>
			<glyph d="M301 529Q366 529 416 503T493 431T521 325Q521 256 492 178T399 46T236 -8Q137 -8 76 48T16 199Q18 286 51 361T149 483T301 529ZM297 420Q261 420 232 388T188 303T172 191Q172 149 190 125T239 101Q276 101 305 132T349 216T365 330Q365 373 347 396T297 420ZM248 726H385L263 580H173ZM437 726H573L452 580H361Z" unicode="ő"/>
			<glyph d="M377 706Q419 706 497 702T597 698H899L873 576H639L606 420H827L801 298H580L542 122H789L764 0H435Q422 0 366 -4T287 -9Q164 -9 94 59T25 250Q25 357 61 462T177 636T377 706ZM380 583Q317 583 274 525T211 387T191 241Q191 183 218 149T292 115Q346 115 379 126L474 572Q425 583 380 583Z" horiz-adv-x="870" unicode="Œ"/>
			<glyph d="M303 529Q418 529 464 451Q499 489 540 509T633 529Q721 529 772 479T823 348Q823 293 805 219H495Q493 201 493 197Q493 152 524 126T609 100Q676 100 757 136L742 18Q662 -8 584 -8Q519 -8 470 16T399 84Q362 39 318 15T230 -8Q166 -8 117 17T42 89T16 196Q16 278 48 354T145 480T303 529ZM624 433Q585 433 554 400T510 305H681Q689 335 689 356Q689 391 671 412T624 433ZM297 420Q260 420 231 388T187 303T172 191Q172 149 190 125T239 101Q276 101 305 132T349 216T365 330Q365 373 347 396T297 420Z" horiz-adv-x="870" unicode="œ"/>
			<glyph d="M140 698H376Q463 698 515 654T567 533Q567 455 524 405T401 337L402 333Q430 323 443 297T463 225L493 0H324L305 206Q298 282 244 282H215L156 0H-8ZM273 580L235 400H288Q342 400 372 431T403 516Q403 544 381 562T324 580ZM370 888H510L388 742H294Z" horiz-adv-x="593" unicode="Ŕ"/>
			<glyph d="M380 529H407L376 383Q351 389 329 389Q272 389 238 353T188 235L139 0H-19L68 412Q79 460 87 521H231Q231 513 225 479T215 427H217Q245 470 267 491T315 521T380 529ZM272 726H412L290 580H196Z" horiz-adv-x="389" unicode="ŕ"/>
			<glyph d="M140 698H376Q463 698 515 654T567 533Q567 455 524 405T401 337L402 333Q430 323 443 297T463 225L493 0H324L305 206Q298 282 244 282H215L156 0H-8ZM273 580L235 400H288Q342 400 372 431T403 516Q403 544 381 562T324 580ZM159 -71H299L218 -232H103Z" horiz-adv-x="593" unicode="Ŗ"/>
			<glyph d="M380 529H407L376 383Q351 389 329 389Q272 389 238 353T188 235L139 0H-19L68 412Q79 460 87 521H231Q231 513 225 479T215 427H217Q245 470 267 491T315 521T380 529ZM-15 -71H125L44 -232H-71Z" horiz-adv-x="389" unicode="ŗ"/>
			<glyph d="M140 698H376Q463 698 515 654T567 533Q567 455 524 405T401 337L402 333Q430 323 443 297T463 225L493 0H324L305 206Q298 282 244 282H215L156 0H-8ZM273 580L235 400H288Q342 400 372 431T403 516Q403 544 381 562T324 580ZM240 888H337L367 799L432 888H538L431 742H287Z" horiz-adv-x="593" unicode="Ř"/>
			<glyph d="M380 529H407L376 383Q351 389 329 389Q272 389 238 353T188 235L139 0H-19L68 412Q79 460 87 521H231Q231 513 225 479T215 427H217Q245 470 267 491T315 521T380 529ZM142 726H239L269 637L334 726H440L333 580H189Z" horiz-adv-x="389" unicode="ř"/>
			<glyph d="M351 710Q431 710 507 683L475 558Q416 592 349 592Q298 592 270 572T242 516Q242 489 258 467T293 432T360 389Q406 360 428 333T457 282T463 226Q463 112 387 50T174 -12Q124 -12 83 -5T0 19L39 152Q64 134 102 122T178 110Q235 110 264 130T294 196Q294 225 273 250T205 303Q132 344 104 388T77 482Q77 589 149 649T351 710ZM357 888H497L375 742H281Z" horiz-adv-x="537" unicode="Ś"/>
			<glyph d="M251 530Q318 530 391 507L362 391Q311 421 245 421Q213 421 194 408T176 376Q176 354 193 340T275 294Q324 267 341 239T358 167Q358 81 299 35T129 -11Q91 -11 44 -2T-25 16L7 138Q44 120 71 110T131 101Q173 101 191 112T210 146Q210 167 189 183T110 228Q64 254 48 285T32 354Q32 435 92 482T251 530ZM267 726H407L285 580H191Z" horiz-adv-x="426" unicode="ś"/>
			<glyph d="M351 710Q431 710 507 683L475 558Q416 592 349 592Q298 592 270 572T242 516Q242 489 258 467T293 432T360 389Q406 360 428 333T457 282T463 226Q463 112 387 50T174 -12Q124 -12 83 -5T0 19L39 152Q64 134 102 122T178 110Q235 110 264 130T294 196Q294 225 273 250T205 303Q132 344 104 388T77 482Q77 589 149 649T351 710ZM291 888H435L482 742H385L355 831L290 742H184Z" horiz-adv-x="537" unicode="Ŝ"/>
			<glyph d="M251 530Q318 530 391 507L362 391Q311 421 245 421Q213 421 194 408T176 376Q176 354 193 340T275 294Q324 267 341 239T358 167Q358 81 299 35T129 -11Q91 -11 44 -2T-25 16L7 138Q44 120 71 110T131 101Q173 101 191 112T210 146Q210 167 189 183T110 228Q64 254 48 285T32 354Q32 435 92 482T251 530ZM213 726H357L404 580H307L277 669L212 580H106Z" horiz-adv-x="426" unicode="ŝ"/>
			<glyph d="M351 710Q431 710 507 683L475 558Q416 592 349 592Q298 592 270 572T242 516Q242 489 258 467T293 432T360 389Q425 348 444 309T463 226Q463 124 403 64T229 -9L191 -54Q196 -53 214 -53Q254 -53 274 -73T295 -122Q295 -167 257 -194T157 -222Q123 -222 100 -218T57 -201L81 -155Q110 -172 151 -172Q210 -172 210 -131Q210 -117 198 -107T170 -97Q159 -97 151 -98T132 -105L114 -87L173 -12Q124 -12 83 -4T0 19L39 152Q64 134 102 122T178 110Q235 110 264 130T294 196Q294 225 273 250T205 303Q132 344 104 388T77 482Q77 589 149 649T351 710Z" horiz-adv-x="537" unicode="Ş"/>
			<glyph d="M251 530Q318 530 391 507L362 391Q311 421 245 421Q213 421 194 409T176 378Q176 355 193 340T242 310T287 287Q325 264 341 236T358 169Q358 7 168 -9L131 -54Q136 -53 154 -53Q194 -53 214 -73T235 -122Q235 -167 197 -194T97 -222Q63 -222 40 -218T-3 -201L21 -155Q50 -172 91 -172Q150 -172 150 -131Q150 -117 138 -107T110 -97Q99 -97 91 -98T72 -105L54 -87L114 -11Q73 -8 34 0T-25 16L7 138Q44 119 71 110T131 101Q173 101 191 112T210 146Q210 167 189 183T110 229Q65 254 48 283T32 354Q32 434 92 482T251 530Z" horiz-adv-x="426" unicode="ş"/>
			<glyph d="M351 710Q431 710 507 683L475 558Q416 592 349 592Q298 592 270 572T242 516Q242 489 258 467T293 432T360 389Q406 360 428 333T457 282T463 226Q463 112 387 50T174 -12Q124 -12 83 -5T0 19L39 152Q64 134 102 122T178 110Q235 110 264 130T294 196Q294 225 273 250T205 303Q132 344 104 388T77 482Q77 589 149 649T351 710ZM219 888H316L346 799L411 888H517L410 742H266Z" horiz-adv-x="537" unicode="Š"/>
			<glyph d="M251 530Q318 530 391 507L362 391Q311 421 245 421Q213 421 194 408T176 376Q176 354 193 340T275 294Q324 267 341 239T358 167Q358 81 299 35T129 -11Q91 -11 44 -2T-25 16L7 138Q44 120 71 110T131 101Q173 101 191 112T210 146Q210 167 189 183T110 228Q64 254 48 285T32 354Q32 435 92 482T251 530ZM134 726H231L261 637L326 726H432L325 580H181Z" horiz-adv-x="426" unicode="š"/>
			<glyph d="M90 698H558L531 572H379L258 0H94L215 572H63ZM98 -71H238L157 -232H42Z" horiz-adv-x="500" unicode="Ţ"/>
			<glyph d="M327 677L294 521H397L374 410H271L219 165Q217 155 217 145Q217 125 228 115T259 106Q280 106 313 117L290 6Q278 0 250 -4T189 -8Q125 -8 89 21T53 103Q53 123 56 139T60 159L113 410H28L51 521H140L163 628ZM68 -71H208L127 -232H12Z" horiz-adv-x="389" unicode="ţ"/>
			<glyph d="M90 698H558L531 572H379L258 0H94L215 572H63ZM206 888H303L333 799L398 888H504L397 742H253Z" horiz-adv-x="500" unicode="Ť"/>
			<glyph d="M327 677L294 521H397L374 410H271L219 165Q217 155 217 145Q217 125 228 115T259 106Q280 106 313 117L290 6Q278 0 250 -4T189 -8Q125 -8 89 21T53 103Q53 123 56 139T60 159L113 410H28L51 521H140L163 628ZM388 726H511L434 555H346Z" horiz-adv-x="389" unicode="ť"/>
			<glyph d="M90 698H558L531 572H379L351 442H465L445 348H331L258 0H94L167 348H52L72 442H187L215 572H63Z" horiz-adv-x="500" unicode="Ŧ"/>
			<glyph d="M327 677L294 521H397L374 410H271L253 327H341L325 250H237L219 165Q217 155 217 145Q217 125 228 115T259 106Q280 106 313 117L290 6Q278 0 250 -4T189 -8Q125 -8 89 21T53 103Q53 123 56 139T60 159L79 250H7L23 327H95L113 410H28L51 521H140L163 628Z" horiz-adv-x="389" unicode="ŧ"/>
			<glyph d="M133 698H297L204 260Q194 214 194 189Q194 155 213 134T269 114Q314 114 340 138T382 231L481 698H646L548 237Q522 111 448 49T261 -12Q152 -12 91 37T30 177Q30 217 41 266ZM355 878Q386 878 422 859Q432 854 444 848T468 842Q497 842 505 878H579Q554 756 463 756Q433 756 390 778Q361 792 347 792Q326 792 313 756H239Q252 813 282 845T355 878Z" horiz-adv-x="630" unicode="Ũ"/>
			<glyph d="M92 521H250L183 205Q178 184 178 165Q178 145 189 131T221 118Q255 118 278 141T312 208L378 521H536L438 56Q436 47 430 0H286Q287 20 293 50T300 87H298Q270 41 229 16T141 -8Q84 -8 48 27T12 116Q12 148 18 173ZM273 716Q304 716 340 697Q350 692 362 686T386 680Q415 680 423 716H497Q472 594 381 594Q351 594 308 616Q279 630 265 630Q244 630 231 594H157Q170 651 200 683T273 716Z" horiz-adv-x="556" unicode="ũ"/>
			<glyph d="M133 698H297L204 260Q194 214 194 189Q194 155 213 134T269 114Q314 114 340 138T382 231L481 698H646L548 237Q522 111 448 49T261 -12Q152 -12 91 37T30 177Q30 217 41 266ZM269 859H563L545 773H251Z" horiz-adv-x="630" unicode="Ū"/>
			<glyph d="M92 521H250L183 205Q178 184 178 165Q178 145 189 131T221 118Q255 118 278 141T312 208L378 521H536L438 56Q436 47 430 0H286Q287 20 293 50T300 87H298Q270 41 229 16T141 -8Q84 -8 48 27T12 116Q12 148 18 173ZM201 697H495L476 611H182Z" horiz-adv-x="556" unicode="ū"/>
			<glyph d="M133 698H297L204 260Q194 214 194 189Q194 155 213 134T269 114Q314 114 340 138T382 231L481 698H646L548 237Q522 111 448 49T261 -12Q152 -12 91 37T30 177Q30 217 41 266ZM275 888H341Q339 877 339 873Q339 848 355 834T401 821Q471 821 489 888H555Q519 741 390 741Q334 741 302 770T270 847Q270 867 275 888Z" horiz-adv-x="630" unicode="Ŭ"/>
			<glyph d="M92 521H250L183 205Q178 184 178 165Q178 145 189 131T221 118Q255 118 278 141T312 208L378 521H536L438 56Q436 47 430 0H286Q287 20 293 50T300 87H298Q270 41 229 16T141 -8Q84 -8 48 27T12 116Q12 148 18 173ZM202 728H268Q266 720 266 713Q266 688 282 674T328 661Q397 661 416 728H482Q445 581 317 581Q261 581 229 610T197 687Q197 701 202 728Z" horiz-adv-x="556" unicode="ŭ"/>
			<glyph d="M133 698H297L204 260Q194 214 194 189Q194 155 213 134T269 114Q314 114 340 138T382 231L481 698H646L548 237Q522 111 448 49T261 -12Q152 -12 91 37T30 177Q30 217 41 266ZM427 949Q471 949 497 923T524 854Q524 821 507 791T460 744T396 727Q352 727 325 753T298 822Q298 856 315 885T363 932T427 949ZM421 897Q394 897 374 875T355 825Q355 805 367 792T401 779Q429 779 448 800T467 850Q467 871 454 884T421 897Z" horiz-adv-x="630" unicode="Ů"/>
			<glyph d="M92 521H250L183 205Q178 184 178 165Q178 145 189 131T221 118Q255 118 278 141T312 208L378 521H536L438 56Q436 47 430 0H286Q287 20 293 50T300 87H298Q270 41 229 16T141 -8Q84 -8 48 27T12 116Q12 148 18 173ZM355 787Q399 787 425 761T452 692Q452 659 435 629T388 582T324 565Q280 565 253 591T226 660Q226 694 243 723T291 770T355 787ZM349 735Q322 735 302 713T283 663Q283 643 295 630T329 617Q357 617 376 638T395 688Q395 709 382 722T349 735Z" horiz-adv-x="556" unicode="ů"/>
			<glyph d="M133 698H297L204 260Q194 214 194 189Q194 155 213 134T269 114Q314 114 340 138T382 231L481 698H646L548 237Q522 111 448 49T261 -12Q152 -12 91 37T30 177Q30 217 41 266ZM313 888H450L328 742H238ZM502 888H638L517 742H426Z" horiz-adv-x="630" unicode="Ű"/>
			<glyph d="M92 521H250L183 205Q178 184 178 165Q178 145 189 131T221 118Q255 118 278 141T312 208L378 521H536L438 56Q436 47 430 0H286Q287 20 293 50T300 87H298Q270 41 229 16T141 -8Q84 -8 48 27T12 116Q12 148 18 173ZM244 726H381L259 580H169ZM433 726H569L448 580H357Z" horiz-adv-x="556" unicode="ű"/>
			<glyph d="M133 698H297L204 260Q194 214 194 189Q194 155 213 134T269 114Q313 114 340 138T379 217L481 698H646L548 237Q524 122 458 59T287 -11Q244 -52 227 -79T211 -129Q211 -147 223 -157T258 -168Q276 -168 294 -163L299 -209Q279 -217 261 -219T219 -222Q178 -222 152 -203T127 -154Q127 -121 147 -91T212 -29L237 -11Q138 -6 84 43T30 177Q30 217 41 266Z" horiz-adv-x="630" unicode="Ų"/>
			<glyph d="M92 521H250L183 204Q178 183 178 165Q178 145 189 131T221 118Q254 118 278 141T312 208L378 521H536L438 56Q436 47 430 0H393Q305 -80 305 -129Q305 -147 317 -157T352 -168Q370 -168 388 -163L393 -209Q373 -217 355 -219T313 -222Q272 -222 246 -203T221 -154Q221 -90 303 -32L348 0H286Q287 20 293 50T300 87H298Q269 40 228 16T141 -8Q84 -8 48 27T12 116Q12 148 18 173Z" horiz-adv-x="556" unicode="ų"/>
			<glyph d="M78 698H232L214 202H216L400 698H592L576 202H578L771 698H918L637 0H445L467 542H465L266 0H74ZM455 888H599L646 742H549L519 831L454 742H348Z" horiz-adv-x="852" unicode="Ŵ"/>
			<glyph d="M39 521H194L197 150H199L344 521H521L525 150H527L672 521H825L580 0H413L405 381H403L246 0H73ZM394 726H538L585 580H488L458 669L393 580H287Z" horiz-adv-x="796" unicode="ŵ"/>
			<glyph d="M74 698H253L315 425L471 698H662L361 264L305 0H141L197 267ZM318 888H462L509 742H412L382 831L317 742H211Z" horiz-adv-x="592" unicode="Ŷ"/>
			<glyph d="M39 521H198L229 166H231L390 521H548L246 -52Q198 -143 148 -182T32 -222Q10 -222 -17 -218T-62 -209L-32 -92Q-2 -104 21 -104Q52 -104 76 -78T118 1ZM265 726H409L456 580H359L329 669L264 580H158Z" horiz-adv-x="519" unicode="ŷ"/>
			<glyph d="M74 698H253L315 425L471 698H662L361 264L305 0H141L197 267ZM250 886H368L341 760H223ZM422 886H540L513 760H395Z" horiz-adv-x="592" unicode="Ÿ"/>
			<glyph d="M111 698H559L532 570L170 126H441L415 0H-44L-16 134L344 572H84ZM355 888H495L373 742H279Z" horiz-adv-x="519" unicode="Ź"/>
			<glyph d="M69 521H430L403 392L153 118H350L325 0H-47L-20 130L234 403H44ZM277 726H417L295 580H201Z" horiz-adv-x="426" unicode="ź"/>
			<glyph d="M111 698H559L532 570L170 126H441L415 0H-44L-16 134L344 572H84ZM310 886H428L401 760H283Z" horiz-adv-x="519" unicode="Ż"/>
			<glyph d="M69 521H430L403 392L153 118H350L325 0H-47L-20 130L234 403H44ZM230 731H348L321 605H203Z" horiz-adv-x="426" unicode="ż"/>
			<glyph d="M111 698H559L532 570L170 126H441L415 0H-44L-16 134L344 572H84ZM219 888H316L346 799L411 888H517L410 742H266Z" horiz-adv-x="519" unicode="Ž"/>
			<glyph d="M69 521H430L403 392L153 118H350L325 0H-47L-20 130L234 403H44ZM146 726H243L273 637L338 726H444L337 580H193Z" horiz-adv-x="426" unicode="ž"/>
			<glyph d="M379 710Q406 710 427 706T474 691L454 590Q431 602 403 602Q358 602 343 528L320 414H406V303H298L224 -42Q185 -222 42 -222Q-18 -222 -61 -202L-42 -96Q-15 -111 14 -111Q41 -111 54 -89T77 -22L145 303H61V414H168L198 551Q233 710 379 710Z" horiz-adv-x="520" unicode="ƒ"/>
			<glyph d="M351 710Q431 710 507 683L475 558Q416 592 349 592Q298 592 270 572T242 516Q242 489 258 467T293 432T360 389Q406 360 428 333T457 282T463 226Q463 112 387 50T174 -12Q124 -12 83 -5T0 19L39 152Q64 134 102 122T178 110Q235 110 264 130T294 196Q294 225 273 250T205 303Q132 344 104 388T77 482Q77 589 149 649T351 710ZM126 -71H266L185 -232H70Z" horiz-adv-x="537" unicode="Ș"/>
			<glyph d="M251 530Q318 530 391 507L362 391Q311 421 245 421Q213 421 194 408T176 376Q176 354 193 340T275 294Q324 267 341 239T358 167Q358 81 299 35T129 -11Q91 -11 44 -2T-25 16L7 138Q44 120 71 110T131 101Q173 101 191 112T210 146Q210 167 189 183T110 228Q64 254 48 285T32 354Q32 435 92 482T251 530ZM69 -71H209L128 -232H13Z" horiz-adv-x="426" unicode="ș"/>
			<glyph d="M90 698H558L531 572H379L258 0H94L215 572H63ZM98 -71H238L157 -232H42Z" horiz-adv-x="500" unicode="Ț"/>
			<glyph d="M327 677L294 521H397L374 410H271L219 165Q217 155 217 145Q217 125 228 115T259 106Q280 106 313 117L290 6Q278 0 250 -4T189 -8Q125 -8 89 21T53 103Q53 123 56 139T60 159L113 410H28L51 521H140L163 628ZM68 -71H208L127 -232H12Z" horiz-adv-x="389" unicode="ț"/>
			<glyph d="M96 521H254L137 -31Q115 -137 69 -179T-52 -222Q-83 -222 -103 -219T-142 -208L-117 -102Q-99 -108 -84 -108Q-56 -108 -43 -91T-23 -40Z" horiz-adv-x="278" unicode="ȷ"/>
			<glyph d="M113 726H257L304 580H207L177 669L112 580H6Z" horiz-adv-x="222" unicode="ˆ"/>
			<glyph d="M37 726H134L164 637L229 726H335L228 580H84Z" horiz-adv-x="222" unicode="ˇ"/>
			<glyph d="M33 697H327L308 611H14Z" horiz-adv-x="222" unicode="ˉ"/>
			<glyph d="M46 728H112Q110 720 110 713Q110 688 126 674T172 661Q241 661 260 728H326Q289 581 161 581Q105 581 73 610T41 687Q41 701 46 728Z" horiz-adv-x="222" unicode="˘"/>
			<glyph d="M128 731H246L219 605H101Z" horiz-adv-x="222" unicode="˙"/>
			<glyph d="M191 787Q235 787 261 761T288 692Q288 659 271 629T224 582T160 565Q116 565 89 591T62 660Q62 694 79 723T127 770T191 787ZM185 735Q158 735 138 713T119 663Q119 643 131 630T165 617Q193 617 212 638T231 688Q231 709 218 722T185 735Z" horiz-adv-x="222" unicode="˚"/>
			<glyph d="M49 6H92Q41 -40 19 -70T-3 -129Q-3 -147 9 -157T44 -168Q62 -168 80 -163L85 -209Q65 -217 47 -219T5 -222Q-36 -222 -61 -203T-87 -154Q-87 -117 -63 -86T-1 -29Z" horiz-adv-x="222" unicode="˛"/>
			<glyph d="M117 716Q148 716 184 697Q194 692 206 686T230 680Q259 680 267 716H341Q316 594 225 594Q195 594 152 616Q123 630 109 630Q88 630 75 594H1Q14 651 44 683T117 716Z" horiz-adv-x="222" unicode="˜"/>
			<glyph d="M69 726H206L84 580H-6ZM258 726H394L273 580H182Z" horiz-adv-x="222" unicode="˝"/>
			<glyph d="M298 698H506L598 0H-37ZM381 553L212 147H410L383 553Z" horiz-adv-x="648" unicode="Δ"/>
			<glyph d="M395 712Q516 712 587 643T658 455Q658 358 614 273T487 132H626L602 0H330L353 137Q417 194 451 276T486 445Q486 506 461 545T381 585Q330 585 295 546T243 449T226 329Q226 220 270 136L246 0H-11L13 132H130Q97 180 81 233T65 353Q65 460 103 541T215 667T395 712Z" horiz-adv-x="673" unicode="Ω"/>
			<glyph d="M97 522H258L213 253Q205 211 205 178Q205 149 215 134T251 120Q286 120 311 165T350 291L390 522H555L491 162Q489 146 489 141Q489 113 513 113Q525 113 541 119L526 3Q507 -2 481 -5T439 -8Q389 -8 359 14T330 75H328Q305 33 275 11T213 -11Q168 -11 153 10H150L148 -10Q140 -90 133 -135L120 -210H-31Z" horiz-adv-x="585" unicode="μ"/>
			<glyph d="M51 522H607L586 402H528L486 159Q484 147 484 142Q484 112 513 112Q537 112 549 117L526 1Q489 -6 458 -6Q391 -6 353 22T316 118Q316 141 325 188L362 397H261L191 0H25L93 402H29Z" horiz-adv-x="582" unicode="π"/>
			<glyph d="M446 709Q539 709 659 696L632 572Q603 570 573 557T523 521T503 469Q503 429 548 355L559 336Q584 296 598 265T612 204Q612 141 581 91T496 15T377 -12Q329 -12 292 -4T216 19L255 152Q274 133 306 121T363 110Q399 110 421 132T443 191Q443 212 434 230T403 288L387 314Q362 354 350 380T338 434Q338 486 373 526T468 589Q449 592 413 592Q347 592 306 553T251 444L157 0H-7L88 449Q109 549 154 606T270 686T446 709Z" horiz-adv-x="683" unicode="ẞ"/>
			<glyph d="M41 348H290L265 226H16Z" horiz-adv-x="333" unicode="‐"/>
			<glyph d="M-2 342H498L475 234H-25Z" horiz-adv-x="500" unicode="–"/>
			<glyph d="M-2 342H998L975 234H-25Z" horiz-adv-x="1000" unicode="—"/>
			<glyph d="M182 750H295L210 490H70Z" horiz-adv-x="260" unicode="‘"/>
			<glyph d="M166 750H306L194 490H81Z" horiz-adv-x="260" unicode="’"/>
			<glyph d="M38 150H178L66 -110H-47Z" horiz-adv-x="260" unicode="‚"/>
			<glyph d="M214 750H327L242 490H102ZM408 750H521L436 490H296Z" horiz-adv-x="520" unicode="“"/>
			<glyph d="M199 750H339L227 490H114ZM393 750H533L421 490H308Z" horiz-adv-x="520" unicode="”"/>
			<glyph d="M71 150H211L99 -110H-14ZM265 150H405L293 -110H180Z" horiz-adv-x="520" unicode="„"/>
			<glyph d="M269 698H399L363 529H505L480 411H338L251 0H121L208 411H65L90 529H233Z" horiz-adv-x="519" unicode="†"/>
			<glyph d="M270 698H396L366 556H511L487 445H342L301 253H446L422 142H278L248 0H122L152 142H8L31 253H175L216 445H72L96 556H240Z" horiz-adv-x="519" unicode="‡"/>
			<glyph d="M270 523Q313 523 349 502T405 446T426 368Q426 318 398 273T325 201T229 174Q184 174 149 195T94 252T75 330Q75 382 102 426T175 496T270 523Z" horiz-adv-x="500" unicode="•"/>
			<glyph d="M52 150H196L165 0H21ZM385 150H529L498 0H354ZM718 150H862L831 0H687Z" horiz-adv-x="1000" unicode="…"/>
			<glyph d="M491 731H562L160 -33H90ZM226 710Q272 710 301 677T330 589Q330 524 308 464T248 367T163 330Q117 330 88 363T59 451Q59 515 81 575T141 672T226 710ZM216 631Q198 631 181 602T154 531T144 454Q144 433 151 421T173 409Q191 409 207 438T234 509T245 586Q245 606 237 618T216 631ZM495 368Q541 368 570 335T599 247Q599 182 577 122T517 25T432 -12Q386 -12 357 21T328 109Q328 173 350 233T410 330T495 368ZM782 368Q828 368 857 335T886 247Q886 182 864 122T804 25T719 -12Q673 -12 644 21T615 109Q615 173 637 233T697 330T782 368ZM485 289Q467 289 450 260T423 189T413 112Q413 91 420 79T442 67Q460 67 476 96T503 167T514 244Q514 264 506 276T485 289ZM772 289Q754 289 737 260T710 189T700 112Q700 91 707 79T729 67Q747 67 763 96T790 167T801 244Q801 264 793 276T772 289Z" horiz-adv-x="944" unicode="‰"/>
			<glyph d="M155 467H287L146 255L199 53H76L20 264Z" horiz-adv-x="315" unicode="‹"/>
			<glyph d="M79 467H202L258 256L123 53H-9L132 265Z" horiz-adv-x="315" unicode="›"/>
			<glyph d="M257 731H347L-91 -33H-181Z" horiz-adv-x="167" unicode="⁄"/>
			<glyph d="M409 710Q455 710 489 702T558 679L511 549Q490 561 463 568T412 576Q310 576 267 454H479L453 383H249Q241 340 240 315H434L411 244H241Q243 191 275 159T359 127Q384 127 410 132T455 148V6Q423 -5 398 -8T335 -12Q217 -12 147 56T73 244H-11L13 315H75Q84 377 85 383H4L28 454H100Q133 573 216 641T409 710Z" horiz-adv-x="520" unicode="€"/>
			<glyph d="M125 698H575L556 610H411Q421 598 426 579T430 542H542L523 454H414Q394 374 340 337T203 301L357 0H178L39 299L58 386H138Q187 386 219 400T266 454H72L91 542H282Q279 610 182 610H106Z" horiz-adv-x="520" unicode="₹"/>
			<glyph d="M165 698H323L304 612L468 688L447 584L283 509L265 428L429 504L407 400L243 325L196 102Q244 102 272 130T315 199T345 311L351 335H499Q481 217 446 142T346 27T173 -12Q101 -12 17 0L68 245L-13 209L9 313L90 348L107 428L27 393L49 497L129 532Z" horiz-adv-x="520" unicode="₺"/>
			<glyph d="M378 698H530L505 580Q611 559 654 475T697 269Q697 165 673 51L662 0H507L522 60Q534 106 543 174T553 281Q553 361 538 405T479 463L396 70H241L328 463Q267 445 224 375T158 225T112 41L103 0H-52L-38 63Q8 274 105 416T353 580Z" horiz-adv-x="750" unicode="₼"/>
			<glyph d="M161 698H328Q424 698 481 655T538 527Q538 451 506 395T418 308T285 278H230L218 220H358L339 130H199L171 0H13L40 130H-32L-13 220H59L71 278H-1L17 368H90ZM295 585L249 368H283Q337 368 363 408T390 510Q390 546 372 565T320 585Z" horiz-adv-x="511" unicode="₽"/>
			<glyph d="M367 721Q423 721 460 684T498 593Q498 510 433 430T238 265L220 193Q211 157 211 131Q211 109 223 98T254 87Q273 87 295 96T353 128L387 45Q343 13 301 0T211 -14Q146 -14 109 18T72 106Q72 117 74 131T82 174L20 129L-17 210L107 292L153 514Q175 618 232 669T367 721ZM351 629Q318 629 303 564L264 387Q319 434 350 487T382 585Q382 604 373 616T351 629Z" horiz-adv-x="500" unicode="ℓ"/>
			<glyph d="M122 698H460L443 618H326L254 282H150L222 618H105ZM540 698H681L725 435L879 698H1026L937 282H841L904 576H902L731 282H657L612 576H610L547 282H451Z" horiz-adv-x="1000" unicode="™"/>
			<glyph d="M395 712Q516 712 587 643T658 455Q658 358 614 273T487 132H626L602 0H330L353 137Q417 194 451 276T486 445Q486 506 461 545T381 585Q330 585 295 546T243 449T226 329Q226 220 270 136L246 0H-11L13 132H130Q97 180 81 233T65 353Q65 460 103 541T215 667T395 712Z" horiz-adv-x="673" unicode="Ω"/>
			<glyph d="M292 535Q367 535 425 501T517 404T551 259H147V78Q206 19 292 19Q355 19 401 47T485 139L520 118Q475 45 422 14T292 -17Q217 -17 158 19T66 118T34 259Q34 337 67 400T158 499T292 535ZM290 500Q207 500 147 440V295H438V440Q375 500 290 500Z" horiz-adv-x="600" unicode="℮"/>
			<glyph d="M253 721Q387 721 458 623T529 358Q529 176 463 81T271 -13Q204 -13 152 16T71 99T42 219Q42 283 71 334T150 414T262 443Q333 443 396 395V403Q396 505 359 562T259 620Q225 620 196 606T138 567L68 647Q114 686 158 703T253 721ZM282 346Q231 346 200 309T169 212Q169 155 197 119T273 84Q326 84 359 132T395 256V292Q345 346 282 346Z" horiz-adv-x="572" unicode="∂"/>
			<glyph d="M298 698H506L598 0H-37ZM381 553L212 147H410L383 553Z" horiz-adv-x="648" unicode="∆"/>
			<glyph d="M55 786H693V-214H561V660H188V-214H55Z" horiz-adv-x="749" unicode="∏"/>
			<glyph d="M39 786H634V660H216L479 293L198 -88H646V-214H27V-104L322 292L39 676Z" horiz-adv-x="673" unicode="∑"/>
			<glyph d="M27 305H533V201H27Z" horiz-adv-x="600" unicode="−"/>
			<glyph d="M257 731H347L-91 -33H-181Z" horiz-adv-x="167" unicode="∕"/>
			<glyph d="M123 355Q155 355 173 337T192 289Q192 251 167 226T106 201Q74 201 55 219T37 267Q37 305 62 330T123 355Z" horiz-adv-x="260" unicode="∙"/>
			<glyph d="M441 786H580L362 -214H240L93 89L40 63L-9 168L162 246L279 -9Z" horiz-adv-x="570" unicode="√"/>
			<glyph d="M208 463Q262 463 306 435T404 341Q454 407 500 435T600 463Q654 463 695 438T760 370T783 269Q783 211 760 165T695 94T599 69Q547 69 500 97T404 185Q351 121 308 96T212 71Q157 71 114 96T48 165T25 268Q25 354 75 408T208 463ZM596 349Q568 349 537 328T471 264Q507 222 537 203T599 184Q633 184 653 207T674 266Q674 303 652 326T596 349ZM208 348Q176 348 155 325T134 266Q134 230 155 207T211 185Q273 185 336 264Q264 348 208 348Z" horiz-adv-x="848" unicode="∞"/>
			<glyph d="M400 784Q447 784 483 761T519 702Q519 674 502 656T458 638Q439 638 425 648T403 688Q398 706 393 715T379 725Q360 725 360 685Q360 659 363 612T366 534V39Q366 -93 324 -153T200 -213Q150 -213 113 -188T77 -124Q77 -100 95 -83T140 -67Q159 -67 173 -78T196 -128Q202 -154 215 -154Q225 -154 229 -146T234 -117Q234 -94 231 -52T228 19V521Q228 598 239 653T288 746T400 784Z" horiz-adv-x="628" unicode="∫"/>
			<glyph d="M157 475Q181 475 205 468T276 446Q325 429 353 421T408 414Q454 414 465 474H551Q542 381 501 331T395 282Q368 282 337 290T253 318Q211 333 187 339T145 346Q122 346 106 330T86 285H1Q7 372 49 423T157 475ZM157 249Q181 249 205 242T276 220Q325 203 353 195T408 188Q454 188 465 248H551Q542 155 501 105T395 56Q368 56 337 64T253 92Q212 106 188 113T145 120Q122 120 106 104T86 59H1Q7 146 49 197T157 249Z" horiz-adv-x="593" unicode="≈"/>
			<glyph d="M435 584L508 547L426 414H533V310H362L291 196H533V92H227L139 -52L65 -15L131 92H27V196H195L266 310H27V414H330Z" horiz-adv-x="593" unicode="≠"/>
			<glyph d="M543 576V441L189 347L543 249V114L10 282V411ZM10 86H543V-43H10Z" horiz-adv-x="593" unicode="≤"/>
			<glyph d="M30 576L563 411V282L30 114V249L384 347L30 441ZM30 86H563V-43H30Z" horiz-adv-x="593" unicode="≥"/>
			<glyph d="M237 747H355L541 356L355 -35H236L52 356ZM296 617L184 356L296 94L408 356Z" horiz-adv-x="593" unicode="◊"/>
			<glyph d="M138 888H273L309 742H220Z" horiz-adv-x="296" unicode=""/>
			<glyph d="M226 888H366L244 742H150Z" horiz-adv-x="296" unicode=""/>
			<glyph d="M184 888H328L375 742H278L248 831L183 742H77Z" horiz-adv-x="296" unicode=""/>
			<glyph d="M108 888H205L235 799L300 888H406L299 742H155Z" horiz-adv-x="296" unicode=""/>
			<glyph d="M188 878Q219 878 255 859Q265 854 277 848T301 842Q330 842 338 878H412Q387 756 296 756Q266 756 223 778Q194 792 180 792Q159 792 146 756H72Q85 813 115 845T188 878Z" horiz-adv-x="222" unicode=""/>
			<glyph d="M112 886H230L203 760H85ZM284 886H402L375 760H257Z" horiz-adv-x="296" unicode=""/>
			<glyph d="M104 859H398L380 773H86Z" horiz-adv-x="296" unicode=""/>
			<glyph d="M117 888H183Q181 877 181 873Q181 848 197 834T243 821Q313 821 331 888H397Q361 741 232 741Q176 741 144 770T112 847Q112 867 117 888Z" horiz-adv-x="296" unicode=""/>
			<glyph d="M263 949Q307 949 333 923T360 854Q360 820 343 791T296 744T232 727Q188 727 161 752T134 822Q134 857 152 886T199 932T263 949ZM257 897Q230 897 210 876T191 825Q191 805 203 792T237 779Q265 779 284 800T303 850Q303 871 290 884T257 897Z" horiz-adv-x="222" unicode=""/>
			<glyph d="M140 888H277L155 742H65ZM329 888H465L344 742H253Z" horiz-adv-x="296" unicode=""/>
			<glyph d="M198 886H316L289 760H171Z" horiz-adv-x="296" unicode=""/>
			<glyph d="M97 726H220L143 555H55Z" horiz-adv-x="278" unicode=""/>
			<glyph d="M7 -71H147L66 -232H-49Z" horiz-adv-x="278" unicode=""/>
			<glyph d="M172 726H285L230 580H95Z" horiz-adv-x="278" unicode=""/>
			<glyph d="M0 718H512V0H0ZM50 667V50H462V667ZM259 609Q313 609 348 573T383 478Q383 444 369 416T319 357Q289 330 280 311T271 258V234H225V259Q225 305 236 330T287 396Q312 421 322 436T332 474Q332 509 309 534T256 559Q222 559 201 535T174 464L124 472Q130 539 165 574T259 609ZM222 184H278V117H222Z" horiz-adv-x="512" unicode=""/>
			<glyph d="M348 762Q401 762 449 750L422 640Q398 648 378 648Q348 648 332 634T309 590L294 521H390L367 410H271L184 0H26L113 410H23L46 521H136L155 611Q171 688 217 725T348 762ZM485 750H643L613 610H455ZM440 521H598L488 0H330Z" horiz-adv-x="630" unicode="ﬁ"/>
			<glyph d="M348 762Q401 762 449 750L422 640Q398 648 378 648Q348 648 332 634T309 590L294 521H390L367 410H271L184 0H26L113 410H23L46 521H136L155 611Q171 688 217 725T348 762ZM489 750H647L488 0H330Z" horiz-adv-x="630" unicode="ﬂ"/>
		</font>
</defs>
</svg>
