<?xml version="1.0" encoding="UTF-8"?>
<svg height="100%" width="100%" xmlns="http://www.w3.org/2000/svg">
	<defs>
		<font horiz-adv-x="556" id="web">
			<font-face alphabetic="0" ascent="961" descent="-250" font-family="" panose-1="2 11 7 3 3 5 4 9 2 4"/>
			<missing-glyph d="M0 718H512V0H0ZM50 667V50H462V667ZM259 609Q313 609 348 573T383 478Q383 442 369 416T319 357Q289 329 281 314T272 270L271 234H225Q225 236 224 244T223 264Q223 301 233 325T276 385L292 402Q313 422 322 437T332 474Q332 510 309 534T256 559Q222 559 201 535T174 464L124 472Q130 538 165 573T259 609ZM222 184H278V117H222Z" horiz-adv-x="512"/>
			<glyph d="" horiz-adv-x="278" unicode=" "/>
			<glyph d="M213 698H370L244 205H133ZM106 140H246L217 0H77Z" horiz-adv-x="389" unicode="!"/>
			<glyph d="M146 698H268V448H146ZM329 698H451V448H329Z" horiz-adv-x="500" unicode="&quot;"/>
			<glyph d="M208 698H297L268 493H371L399 698H488L459 493H551L540 413H450L432 285H524L513 205H421L393 0H304L332 205H228L200 0H112L140 205H48L59 285H151L169 413H77L88 493H180ZM258 413L241 285H342L359 413Z" unicode="#"/>
			<glyph d="M353 830H448L424 708Q498 703 559 679L526 564Q494 580 456 590T381 600Q336 600 300 580T264 520Q264 487 288 465T375 406Q434 371 468 329T502 221Q502 120 442 62T276 -9L251 -130H156L181 -11Q100 -4 16 27L52 146Q109 120 149 109T223 98Q279 98 317 126T356 207Q356 242 333 265T261 317Q213 344 185 364T137 418T118 499Q118 588 176 641T329 707Z" unicode="$"/>
			<glyph d="M752 720H837L295 -22H210ZM317 710Q387 710 428 674T469 576Q469 515 445 461T376 374T268 342Q202 342 165 378T128 483Q128 543 149 595T214 678T317 710ZM313 630Q272 630 252 579T232 473Q232 445 245 433T277 422Q322 422 343 470T365 582Q365 630 313 630ZM761 356Q831 356 872 320T913 222Q913 161 889 107T821 21T712 -12Q646 -12 609 24T572 129Q572 189 593 241T658 324T761 356ZM757 276Q716 276 696 225T676 119Q676 91 689 79T721 68Q767 68 788 117T809 228Q809 276 757 276Z" horiz-adv-x="1000" unicode="%"/>
			<glyph d="M413 710Q458 710 502 692T576 638T606 551Q606 483 562 436T424 356L525 211Q583 299 586 379H708Q699 304 668 236T588 118L669 0H519L494 40Q462 17 408 2T304 -12Q199 -12 130 39T61 186Q61 261 110 317T253 403Q227 437 215 465T204 533Q204 590 233 630T309 690T413 710ZM419 612Q385 612 358 591T332 529Q332 493 369 441Q490 474 490 551Q490 581 471 596T419 612ZM311 315Q251 293 223 264T195 193Q195 142 228 117T317 92Q349 92 380 101T435 127Z" horiz-adv-x="722" unicode="&amp;"/>
			<glyph d="M134 698H256V448H134Z" horiz-adv-x="278" unicode="'"/>
			<glyph d="M287 756H429Q345 655 298 582T223 418T195 206Q195 34 248 -140H134Q85 11 69 95T53 246Q53 353 83 438T158 589T287 756Z" horiz-adv-x="333" unicode="("/>
			<glyph d="M121 756H235Q284 604 300 519T316 370Q316 268 288 184T212 29T82 -140H-60Q27 -36 76 43T150 210T174 410Q174 584 121 756Z" horiz-adv-x="333" unicode=")"/>
			<glyph d="M314 698L419 675L373 539L515 566L523 462H382L453 344L353 298L308 436L205 322L133 401L257 487L125 545L181 641L300 554Z" unicode="*"/>
			<glyph d="M263 506H367V305H569V201H367V0H263V201H61V305H263Z" horiz-adv-x="600" unicode="+"/>
			<glyph d="M65 140H216L83 -110H-37Z" horiz-adv-x="278" unicode=","/>
			<glyph d="M82 324H345L322 214H59Z" horiz-adv-x="389" unicode="-"/>
			<glyph d="M50 140H190L161 0H21Z" horiz-adv-x="278" unicode="."/>
			<glyph d="M296 710H412L31 -12H-85Z" horiz-adv-x="278" unicode="/"/>
			<glyph d="M361 710Q459 710 509 651T560 478Q560 368 530 255T431 65T256 -12Q155 -12 104 54T53 234Q53 335 85 447T190 635T361 710ZM361 606Q305 606 265 531T206 359T187 204Q187 156 205 124T265 92Q319 92 356 173T409 355T426 504Q426 551 410 578T361 606Z" horiz-adv-x="569" unicode="0"/>
			<glyph d="M307 698H434L283 0H143L262 539L134 450L73 545Z" horiz-adv-x="414" unicode="1"/>
			<glyph d="M306 710Q406 710 469 661T533 521Q533 449 475 363T261 160L197 112V110H469L448 0H-11L11 115Q25 129 82 175T171 247Q297 347 342 404T387 502Q387 549 357 574T282 600Q206 600 121 540L118 665Q178 689 222 699T306 710Z" horiz-adv-x="522" unicode="2"/>
			<glyph d="M308 710Q400 710 462 667T524 543Q524 474 481 428T360 366V363Q421 341 449 306T477 217Q477 143 438 91T334 13T191 -12Q71 -12 -13 28L12 135Q57 114 94 106T181 98Q240 98 285 126T331 213Q331 265 282 285T149 306H135L154 416H174Q274 416 326 442T378 530Q378 566 349 583T272 600Q197 600 119 563L133 680Q231 710 308 710Z" horiz-adv-x="515" unicode="3"/>
			<glyph d="M374 698H548L451 249H549L527 145H431L400 0H266L297 145H10L25 264ZM389 576L150 249H320L391 576Z" horiz-adv-x="563" unicode="4"/>
			<glyph d="M171 698H571L549 594H281L249 451L282 452Q388 452 444 395T500 240Q500 163 462 106T359 18T210 -12Q110 -12 18 21L41 134Q128 98 191 98Q262 98 308 135T354 234Q354 287 316 314T210 342Q149 342 87 322Z" horiz-adv-x="534" unicode="5"/>
			<glyph d="M420 710Q462 710 508 701T581 681L546 579Q494 600 430 600Q348 600 296 547T221 418H223Q249 436 275 443T332 451Q420 451 470 400T521 259Q521 183 491 121T405 24T269 -12Q164 -12 109 52T55 235Q55 356 94 464T217 641T420 710ZM299 347Q248 347 218 302T189 198Q189 154 210 123T268 92Q325 92 353 142T381 254Q381 297 361 322T299 347Z" horiz-adv-x="548" unicode="6"/>
			<glyph d="M130 698H593L567 571L208 0H46L423 588H109Z" horiz-adv-x="536" unicode="7"/>
			<glyph d="M376 710Q428 710 477 693T557 640T589 553Q589 481 550 433T441 367Q486 341 510 302T535 215Q535 107 464 47T270 -12Q210 -12 157 10T73 74T42 172Q42 326 211 377Q172 401 150 436T129 509Q129 606 198 658T376 710ZM366 606Q324 606 290 580T257 513Q257 464 340 413Q400 433 430 460T461 531Q461 567 433 586T366 606ZM316 316Q182 267 182 186Q182 141 211 116T284 92Q329 92 362 122T395 200Q395 226 385 245T361 279T316 316Z" horiz-adv-x="574" unicode="8"/>
			<glyph d="M328 710Q433 710 487 647T542 462Q542 340 502 231T379 55T177 -12Q136 -12 90 -3T16 17L51 119Q103 98 167 98Q241 98 294 144T376 280H374Q347 262 321 254T265 247Q178 247 127 298T76 438Q76 516 106 577T193 674T328 710ZM328 606Q275 606 245 557T216 444Q216 400 236 375T297 351Q351 351 379 396T408 500Q408 542 387 574T328 606Z" horiz-adv-x="550" unicode="9"/>
			<glyph d="M128 515H268L239 375H99ZM50 140H190L161 0H21Z" horiz-adv-x="278" unicode=":"/>
			<glyph d="M128 515H268L239 375H99ZM65 140H216L83 -110H-37Z" horiz-adv-x="278" unicode=";"/>
			<glyph d="M569 514V412L196 253L569 94V-8L61 210V296Z" horiz-adv-x="600" unicode="&lt;"/>
			<glyph d="M61 414H569V310H61ZM61 196H569V92H61Z" horiz-adv-x="600" unicode="="/>
			<glyph d="M61 514L569 296V210L61 -8V94L434 253L61 412Z" horiz-adv-x="600" unicode="&gt;"/>
			<glyph d="M262 710Q324 710 379 691T470 632T506 528Q506 477 481 438T403 357Q339 306 310 275T279 205H157Q165 270 192 315T277 407Q282 411 307 431T346 474T360 525Q360 566 323 586T244 606Q177 606 120 581V693Q203 710 262 710ZM141 140H281L252 0H112Z" horiz-adv-x="500" unicode="?"/>
			<glyph d="M448 710Q535 710 612 677T738 578T787 416Q787 322 741 259T636 167T535 138Q513 138 497 151T481 190H479Q459 168 433 153T378 138Q337 138 301 159T244 218T223 304Q223 368 250 423T325 511T429 544Q464 544 494 528T545 480L557 528H641L588 294Q579 258 579 251Q579 236 594 236Q621 236 647 255T690 315T707 413Q707 519 634 568T448 618Q368 618 303 581T201 482T165 349Q165 273 198 211T291 115T425 80Q506 80 562 96T655 143H740Q688 66 607 27T424 -12Q332 -12 248 30T113 154T61 349Q61 448 111 531T250 662T448 710ZM438 446Q408 446 382 427T342 379T327 318Q327 282 347 259T402 236Q433 236 458 255T498 304T513 366Q513 401 493 423T438 446Z" horiz-adv-x="800" unicode="@"/>
			<glyph d="M381 698H536L663 0H523L499 160H202L113 0H-42ZM432 574L264 270H480L436 574Z" horiz-adv-x="722" unicode="A"/>
			<glyph d="M167 698H374Q474 698 529 655T585 531Q585 470 542 422T436 365V363Q493 354 520 314T548 216Q548 107 462 53T223 0H21ZM279 588L242 416H296Q367 416 406 441T445 518Q445 555 419 571T338 588ZM220 312L178 110H234Q318 110 363 135T408 228Q408 272 375 292T260 312Z" horiz-adv-x="611" unicode="B"/>
			<glyph d="M470 710Q591 710 674 676L639 559Q613 577 571 588T479 600Q403 600 343 564T249 465T215 319Q215 261 239 210T308 129T414 98Q490 98 561 141L539 7Q469 -12 381 -12Q282 -12 212 28T105 143T69 319Q69 433 118 521T258 660T470 710Z" horiz-adv-x="611" unicode="C"/>
			<glyph d="M178 698H388Q539 698 619 622T700 400Q700 294 656 203T516 56T268 0H31ZM295 588L195 110H262Q402 110 478 188T554 419Q554 498 498 543T341 588Z" horiz-adv-x="722" unicode="D"/>
			<glyph d="M178 698H589L568 588H295L259 416H503L481 306H236L195 110H471L447 0H31Z" unicode="E"/>
			<glyph d="M178 698H563L539 588H295L258 416H491L469 306H235L171 0H31Z" horiz-adv-x="500" unicode="F"/>
			<glyph d="M494 710Q624 710 726 671L691 550Q614 600 498 600Q416 600 352 561T254 454T220 302Q220 247 244 200T313 126T418 98Q469 98 486 105L525 290H377L400 400H683L603 19Q571 6 518 -3T416 -12Q250 -12 162 67T74 298Q74 425 126 518T274 660T494 710Z" horiz-adv-x="722" unicode="G"/>
			<glyph d="M177 698H317L258 416H540L599 698H739L593 0H453L517 306H235L171 0H31Z" horiz-adv-x="722" unicode="H"/>
			<glyph d="M164 698H310L163 0H17Z" horiz-adv-x="278" unicode="I"/>
			<glyph d="M271 698H411L313 222Q297 143 273 93T204 16T83 -12Q19 -12 -34 2L-2 121Q29 110 62 110Q103 110 126 130T158 176T176 242Z" horiz-adv-x="389" unicode="J"/>
			<glyph d="M181 698H321L262 424H265L542 698H736L383 380L608 0H441L247 354L171 0H31Z" horiz-adv-x="667" unicode="K"/>
			<glyph d="M171 698H311L186 110H460L436 0H23Z" horiz-adv-x="500" unicode="L"/>
			<glyph d="M179 698H410L457 195H459L734 698H967L818 0H670L802 578H800L484 0H350L294 578H292L164 0H31Z" horiz-adv-x="944" unicode="M"/>
			<glyph d="M175 698H352L501 168H503L617 698H749L598 0H418L272 535H270L159 0H25Z" horiz-adv-x="722" unicode="N"/>
			<glyph d="M466 710Q605 710 681 633T757 414Q757 322 717 224T584 57T345 -12Q263 -12 200 24T103 125T69 278Q69 383 116 483T254 646T466 710ZM461 600Q386 600 330 549T244 422T215 271Q215 194 254 146T362 98Q438 98 494 150T581 279T611 429Q611 504 572 552T461 600Z" horiz-adv-x="778" unicode="O"/>
			<glyph d="M169 698H302Q456 698 524 654T593 517Q593 438 554 381T448 294T298 265H217L161 0H21ZM286 588L241 375H289Q359 375 403 409T447 502Q447 588 331 588Z" unicode="P"/>
			<glyph d="M466 710Q605 710 681 633T757 414Q757 324 723 240T631 96T501 14L648 -132H481L379 -11Q373 -12 347 -12Q256 -12 193 28T100 134T69 280Q69 379 114 479T251 645T466 710ZM461 600Q385 600 329 548T244 421T215 271Q215 193 254 145T362 98Q436 98 493 149T580 277T611 429Q611 504 572 552T461 600Z" horiz-adv-x="778" unicode="Q"/>
			<glyph d="M167 698H364Q441 698 493 686T578 638T610 533Q610 447 553 398T406 347V345Q464 342 478 277L544 0H397L359 184Q357 197 350 229T326 275T277 290H222L161 0H21ZM286 588L247 400H296Q375 400 419 429T464 515Q464 558 437 573T358 588Z" horiz-adv-x="611" unicode="R"/>
			<glyph d="M373 710Q476 710 553 679L520 564Q488 580 450 590T375 600Q330 600 294 580T258 520Q258 487 282 465T369 406Q428 374 462 330T496 221Q496 105 418 46T209 -12Q117 -12 10 27L46 146Q103 120 143 109T217 98Q273 98 311 126T350 207Q350 242 328 265T255 317Q207 344 179 364T131 418T112 499Q112 567 146 614T240 686T373 710Z" unicode="S"/>
			<glyph d="M108 698H647L624 588H427L300 0H154L281 588H84Z" unicode="T"/>
			<glyph d="M175 698H315L239 344Q223 272 223 227Q223 98 338 98Q398 98 435 125T494 202T532 330L611 698H749L657 280Q624 128 548 58T337 -12Q83 -12 83 209Q83 265 96 324Z" horiz-adv-x="722" unicode="U"/>
			<glyph d="M107 698H247L312 155H314L604 698H756L366 0H199Z" horiz-adv-x="667" unicode="V"/>
			<glyph d="M107 698H247L268 163H270L502 698H690L693 163H695L942 698H1087L754 0H579L572 558H570L324 0H151Z" horiz-adv-x="1000" unicode="W"/>
			<glyph d="M126 698H277L378 458H380L572 698H737L448 365L610 0H457L350 280H348L130 0H-44L279 379Z" horiz-adv-x="667" unicode="X"/>
			<glyph d="M107 698H255L359 405L586 698H749L411 289L350 0H210L271 289Z" horiz-adv-x="667" unicode="Y"/>
			<glyph d="M148 698H627L603 588L182 110H500L477 0H-13L9 110L429 588H124Z" unicode="Z"/>
			<glyph d="M229 756H457L436 658H330L175 -42H280L259 -140H31Z" horiz-adv-x="389" unicode="["/>
			<glyph d="M-10 710H94L338 -12H234Z" horiz-adv-x="278" unicode="\"/>
			<glyph d="M168 756H396L198 -140H-30L-9 -42H97L252 658H147Z" horiz-adv-x="389" unicode="]"/>
			<glyph d="M273 698H367L554 313H450L320 593L190 313H86Z" horiz-adv-x="600" unicode="^"/>
			<glyph d="M0 -75H500V-125H0Z" horiz-adv-x="500" unicode="_"/>
			<glyph d="M82 731H215L296 585H211Z" horiz-adv-x="278" unicode="`"/>
			<glyph d="M310 527Q406 527 458 486T510 369Q510 335 495 256L464 100Q449 24 447 0H334L348 79H346Q308 30 269 9T180 -12Q107 -12 64 27T21 135Q21 225 94 271T325 318H384Q388 346 388 362Q388 398 356 413T285 429Q201 429 116 389L135 496Q223 527 310 527ZM319 238Q238 238 193 213T149 141Q149 114 169 100T217 86Q278 86 314 121T369 238Z" unicode="a"/>
			<glyph d="M180 750H317L250 460L254 462Q312 527 393 527Q482 527 531 471T581 318Q581 234 550 158T459 35T312 -12Q254 -12 225 5T165 73H163L147 0H21ZM347 423Q304 423 271 390T222 308T205 213Q205 156 227 124T293 92Q345 92 378 128T426 215T441 312Q441 363 416 393T347 423Z" horiz-adv-x="611" unicode="b"/>
			<glyph d="M345 527Q414 527 479 507L446 397Q406 423 348 423Q296 423 258 394T201 321T181 226Q181 92 295 92Q320 92 349 99T404 118L389 12Q341 -12 260 -12Q194 -12 144 15T68 93T41 210Q41 302 79 374T187 486T345 527Z" horiz-adv-x="444" unicode="c"/>
			<glyph d="M524 750H658L521 123Q513 87 507 49T500 0H375L388 76H386Q353 30 312 9T218 -12Q133 -12 87 49T41 203Q41 283 70 357T158 479T300 527Q395 527 459 454ZM321 423Q278 423 246 389T197 307T181 214Q181 157 202 124T263 92Q310 92 345 123T400 203T419 301Q419 351 394 387T321 423Z" horiz-adv-x="611" unicode="d"/>
			<glyph d="M325 527Q425 527 480 475T536 331Q536 277 523 216H160Q160 149 195 117T303 86Q379 86 461 123L444 17Q352 -12 280 -12Q162 -12 97 46T32 213Q32 292 69 364T174 482T325 527ZM322 429Q271 429 236 401T178 308H405Q408 325 408 343Q408 378 389 403T322 429Z" unicode="e"/>
			<glyph d="M405 762Q447 762 488 749L457 649Q439 658 416 658Q377 658 354 627T319 544L312 515H432L411 417H291L203 0H69L157 417H53L74 515H178L183 538Q207 650 258 706T405 762Z" horiz-adv-x="389" unicode="f"/>
			<glyph d="M303 527Q354 527 395 504T460 440L475 515H604Q598 493 587 443L501 38Q473 -93 404 -157T213 -222Q98 -222 5 -187L39 -78Q86 -98 124 -108T201 -118Q265 -118 301 -92T355 -28T390 77L396 98H394Q368 51 322 25T221 0Q134 0 88 62T42 218Q42 297 73 368T164 483T303 527ZM320 423Q276 423 245 390T198 310T182 219Q182 171 202 137T268 104Q316 104 350 134T401 212T418 314Q418 361 392 392T320 423Z" horiz-adv-x="611" unicode="g"/>
			<glyph d="M181 750H315L251 465H253Q321 527 399 527Q476 527 521 482T567 362Q567 327 558 289T549 245L496 0H362L413 248Q414 254 420 286T427 351Q427 383 407 403T354 423Q295 423 260 379T209 254L155 0H21Z" horiz-adv-x="611" unicode="h"/>
			<glyph d="M180 737H314L286 609H152ZM131 515H265L155 0H21Z" horiz-adv-x="278" unicode="i"/>
			<glyph d="M180 737H314L286 609H152ZM131 515H265L151 -16Q133 -100 113 -143T64 -204T-14 -222Q-60 -222 -103 -210L-71 -112Q-53 -118 -41 -118Q-20 -118 -8 -101T9 -53Z" horiz-adv-x="278" unicode="j"/>
			<glyph d="M180 750H314L225 328H228L415 515H588L341 280L496 0H345L212 273H210L152 0H21Z" unicode="k"/>
			<glyph d="M180 750H314L155 0H21Z" horiz-adv-x="278" unicode="l"/>
			<glyph d="M399 527Q449 527 487 499T530 429H532Q558 479 609 503T712 527Q751 527 784 508T836 456T856 386Q856 359 851 333T838 265L779 0H645L699 250Q716 327 716 360Q716 388 698 405T652 423Q600 423 568 376T518 236L467 0H333L388 255Q404 329 404 361Q404 390 385 406T341 423Q288 423 257 377T207 240L155 0H21L105 409Q121 484 126 515H251L239 446H241Q270 488 312 507T399 527Z" horiz-adv-x="889" unicode="m"/>
			<glyph d="M399 527Q476 527 521 482T567 362Q567 328 559 290T549 246L496 0H362L412 243Q413 248 420 282T427 351Q427 383 406 403T354 423Q295 423 260 378T208 251L155 0H21L114 432Q118 450 122 474T129 515H260L251 465H253Q284 494 321 510T399 527Z" horiz-adv-x="611" unicode="n"/>
			<glyph d="M346 527Q454 527 518 466T582 300Q582 211 543 140T435 28T275 -12Q166 -12 103 51T41 223Q41 307 81 377T191 487T346 527ZM339 423Q292 423 255 392T200 312T181 213Q181 154 208 123T286 92Q335 92 370 124T424 205T442 300Q442 423 339 423Z" horiz-adv-x="611" unicode="o"/>
			<glyph d="M392 527Q481 527 531 472T581 318Q581 233 550 157T458 34T313 -12Q255 -12 219 12T171 80H169L110 -210H-24L112 448Q120 488 123 515H250L235 447H237Q267 489 304 508T392 527ZM347 423Q306 423 273 391T222 310T205 213Q205 156 227 124T293 92Q344 92 377 127T426 214T441 312Q441 363 416 393T347 423Z" horiz-adv-x="611" unicode="p"/>
			<glyph d="M300 527Q362 527 398 503T453 429H455L474 515H603Q587 457 582 432L446 -210H312L374 67L372 69Q327 -12 218 -12Q135 -12 88 48T41 203Q41 283 70 357T158 479T300 527ZM321 423Q279 423 246 389T197 307T181 214Q181 162 201 127T263 92Q310 92 345 123T400 203T419 301Q419 351 394 387T321 423Z" horiz-adv-x="611" unicode="q"/>
			<glyph d="M390 527Q420 527 440 522L412 391Q388 399 361 399Q300 399 259 354T203 231L155 0H21L113 446Q117 465 125 515H253L235 418H237Q257 463 300 495T390 527Z" horiz-adv-x="389" unicode="r"/>
			<glyph d="M296 527Q358 527 442 506L413 405Q348 429 303 429Q262 429 237 415T213 377Q213 359 230 342T287 301Q338 268 362 236T387 162Q387 74 324 31T155 -12Q64 -12 -2 19L27 126Q66 104 95 95T155 86Q197 86 222 101T247 143Q247 168 228 186T160 236Q117 263 95 293T73 363Q73 442 136 484T296 527Z" horiz-adv-x="444" unicode="s"/>
			<glyph d="M338 668L305 515H425L404 417H284L237 201Q229 164 229 143Q229 119 243 105T280 92Q316 92 345 104L322 0Q271 -12 250 -12Q95 -12 95 124Q95 149 99 175T113 247L150 417H53L74 515H171L194 621Z" horiz-adv-x="389" unicode="t"/>
			<glyph d="M125 515H259L209 273Q208 266 201 231T194 165Q194 132 214 112T267 92Q322 92 357 132T413 265L466 515H600L514 116Q497 41 492 0H361L370 50H368Q300 -12 222 -12Q145 -12 99 32T54 153Q54 174 57 194T69 256Z" horiz-adv-x="611" unicode="u"/>
			<glyph d="M66 515H203L255 137H257L460 515H602L301 0H153Z" unicode="v"/>
			<glyph d="M66 515H200L237 128H239L428 515H577L605 128H607L805 515H942L656 0H505L476 394H474L286 0H134Z" horiz-adv-x="889" unicode="w"/>
			<glyph d="M83 515H222L289 338L434 515H594L375 269L498 0H352L273 197L119 0H-41L192 269Z" unicode="x"/>
			<glyph d="M66 515H203L251 132H253L458 515H605L247 -93Q207 -161 160 -191T51 -222Q4 -222 -49 -208L-19 -106Q12 -118 40 -118Q73 -118 98 -97T157 -25Z" unicode="y"/>
			<glyph d="M109 515H514L492 411L177 104H435L416 0H-15L6 104L323 411H86Z" horiz-adv-x="500" unicode="z"/>
			<glyph d="M351 756H435L418 676H377Q353 676 334 660T306 606L263 417Q253 371 222 345T134 309V307Q172 304 194 288T216 234Q216 213 209 181L170 8Q164 -18 164 -28Q164 -60 202 -60H250L233 -140H146Q95 -140 68 -115T42 -43Q42 -15 48 10T55 41L80 152Q88 186 88 210Q88 240 69 252T15 265L34 351Q71 351 103 372T144 430L187 623Q200 682 244 719T351 756Z" horiz-adv-x="333" unicode="{"/>
			<glyph d="M84 750H188V-250H84Z" horiz-adv-x="222" unicode="|"/>
			<glyph d="M132 756H218Q269 756 295 731T322 659Q322 631 316 606T309 575L285 464Q277 430 277 406Q277 376 295 363T350 351L331 265Q294 265 261 243T221 186L179 -6Q166 -65 121 -102T15 -140H-70L-53 -60H-11Q13 -60 31 -45T59 10L102 199Q112 245 143 270T231 307V309Q193 312 171 328T149 382Q149 404 156 435L194 608Q200 634 200 644Q200 676 162 676H115Z" horiz-adv-x="333" unicode="}"/>
			<glyph d="M510 342L546 254Q494 166 431 166Q404 166 377 174T313 202Q276 222 253 229T207 236Q179 236 158 219T120 164L84 252Q129 340 206 340Q236 340 261 332T321 307Q361 286 383 278T426 270Q447 270 465 286T510 342Z" horiz-adv-x="600" unicode="~"/>
			<glyph d="" horiz-adv-x="278" unicode=" "/>
			<glyph d="M172 515H312L283 375H143ZM145 310H256L176 -183H19Z" horiz-adv-x="389" unicode="¡"/>
			<glyph d="M440 639H492L457 522Q497 518 533 507L500 397Q463 420 428 425L327 95Q335 92 350 92Q375 92 403 99T458 118L443 12Q415 -2 383 -7T311 -12Q302 -12 295 -11L256 -139H204L246 -2Q175 16 135 72T95 210Q95 301 133 373T241 486T399 527H406ZM374 423Q313 412 274 355T235 226Q235 143 280 112Z" unicode="¢"/>
			<glyph d="M470 710Q540 710 609 685L579 572Q550 586 526 593T476 600Q410 600 376 563T324 448L313 403H468L451 323H297L249 104H482L459 0H0L23 104H109L157 323H81L98 403H173L178 429Q198 533 235 594T329 683T470 710Z" unicode="£"/>
			<glyph d="M103 611L161 553Q192 576 229 587T304 599Q342 599 379 587T447 553L505 611L564 552L506 494Q529 462 540 425T552 352Q552 315 540 277T506 208L564 150L505 91L447 149Q415 126 378 114T304 103Q267 103 230 114T161 149L103 91L44 150L102 208Q56 273 56 351Q56 388 67 425T102 494L44 552ZM304 495Q267 495 235 475T184 423T166 351Q166 313 184 280T234 227T304 207Q341 207 373 226T423 279T442 351Q442 389 423 422T373 475T304 495Z" unicode="¤"/>
			<glyph d="M70 698H211L310 404L526 698H680L410 369H521L505 289H359L345 227H493L477 147H331L302 0H168L199 147H53L69 227H213L225 289H79L95 369H205Z" unicode="¥"/>
			<glyph d="M84 675H188V325H84ZM84 175H188V-175H84Z" horiz-adv-x="222" unicode="¦"/>
			<glyph d="M377 710Q438 710 487 697T571 668L532 570Q468 606 383 606Q338 606 304 590T271 544Q271 523 284 508T317 481T380 451Q421 431 447 414T494 367T515 296Q515 250 483 209T400 149Q453 107 453 49Q453 -10 422 -51T340 -114T226 -136Q131 -136 16 -96L50 5Q144 -32 213 -32Q261 -32 296 -18T331 31Q331 57 310 76T240 118Q190 141 158 161T109 211T91 283Q91 332 124 371T212 431Q182 455 168 479T155 534Q155 592 186 631T268 690T377 710ZM277 389Q230 367 212 346T195 300Q195 275 217 254T286 212Q311 201 319 197T333 191Q374 211 392 232T411 280Q411 305 385 328T310 373Q301 377 277 389Z" unicode="§"/>
			<glyph d="M57 725H171L146 609H32ZM265 725H379L354 609H240Z" horiz-adv-x="278" unicode="¨"/>
			<glyph d="M422 710Q520 710 603 661T734 529T783 349Q783 252 734 169T603 37T422 -12Q324 -12 241 36T110 168T61 349Q61 445 109 528T240 660T422 710ZM421 630Q350 630 291 594T199 495T165 349Q165 268 198 204T290 104T422 68Q493 68 552 103T645 203T679 349Q679 429 645 493T553 593T421 630ZM434 565Q504 565 551 525T608 415H528Q522 448 496 466T434 485Q385 485 357 449T330 353Q330 297 359 258T436 219Q474 219 499 237T528 291H611Q600 220 551 179T436 139Q376 139 330 166T258 242T232 352Q232 411 256 459T325 536T434 565Z" horiz-adv-x="800" unicode="©"/>
			<glyph d="M261 710Q328 710 362 685T396 614Q396 580 378 500Q362 425 358 392H271L281 440H279Q259 411 233 397T171 384Q125 384 98 407T72 473Q72 531 122 557T266 584H307Q310 608 310 611Q310 629 291 639T245 650Q191 650 135 622L147 692Q204 710 261 710ZM268 530Q158 530 158 477Q158 461 172 452T205 444Q238 444 260 466T294 530Z" horiz-adv-x="361" unicode="ª"/>
			<glyph d="M196 474H336L178 269L248 64H133L46 269ZM418 474H558L400 269L470 64H355L268 269Z" horiz-adv-x="611" unicode="«"/>
			<glyph d="M61 414H569V108H465V310H61Z" horiz-adv-x="600" unicode="¬"/>
			<glyph d="M82 324H345L322 214H59Z" horiz-adv-x="389" unicode="­"/>
			<glyph d="M422 710Q520 710 603 661T734 529T783 349Q783 252 734 169T603 37T422 -12Q324 -12 241 36T110 168T61 349Q61 445 109 528T240 660T422 710ZM421 630Q350 630 291 594T199 495T165 349Q165 268 198 204T290 104T422 68Q493 68 552 103T645 203T679 349Q679 429 645 493T553 593T421 630ZM277 551H430Q510 551 549 523T588 431Q588 333 482 324L588 150H500L404 320H363V150H277ZM363 485V386H437Q472 386 487 398T502 438Q502 485 427 485Z" horiz-adv-x="800" unicode="®"/>
			<glyph d="M69 698H366L351 618H53Z" horiz-adv-x="278" unicode="¯"/>
			<glyph d="M252 710Q296 710 333 688T391 630T413 549Q413 505 392 468T334 409T252 388Q206 388 169 408T112 466T91 549Q91 593 112 630T171 688T252 710ZM251 637Q213 637 188 612T164 549Q164 510 188 485T252 461Q291 461 315 485T340 549Q340 588 315 612T251 637Z" horiz-adv-x="400" unicode="°"/>
			<glyph d="M263 506H367V374H569V270H367V137H263V270H61V374H263ZM61 104H569V0H61Z" horiz-adv-x="600" unicode="±"/>
			<glyph d="M273 856Q344 856 387 828T431 742Q431 685 373 623T240 521L231 516V514H390L376 428H57L71 498L256 640Q315 686 315 721Q315 745 297 757T248 770Q207 770 143 744L140 829Q183 844 212 850T273 856ZZ" horiz-adv-x="361" unicode="²"/>
			<glyph d="M279 856Q352 856 390 830T429 755Q429 715 401 687T322 649V647Q362 634 380 613T398 563Q398 494 343 458T203 422Q117 422 61 447L77 521Q128 502 186 502Q226 502 254 517T282 558Q282 582 260 592T198 602H157L169 682H177Q313 682 313 741Q313 756 297 766T253 776Q189 776 146 757L155 838Q222 856 279 856ZZZ" horiz-adv-x="361" unicode="³"/>
			<glyph d="M213 731H346L218 585H132Z" horiz-adv-x="278" unicode="´"/>
			<glyph d="M127 515H259L210 277Q209 269 201 233T194 165Q194 132 214 112T267 92Q322 92 358 133T413 263L466 515H600L514 116Q503 67 498 37T492 0H361L370 50H368Q300 -12 222 -12Q199 -12 184 -4T158 22L110 -210H-24Z" horiz-adv-x="611" unicode="µ"/>
			<glyph d="M365 698H663L492 -124H388L542 618H436L282 -124H178L275 341Q186 341 137 377T88 476Q88 521 108 570T190 659T365 698Z" horiz-adv-x="620" unicode="¶"/>
			<glyph d="M157 361Q188 361 211 338T234 284Q234 253 211 230T157 207Q126 207 103 230T80 284Q80 315 103 338T157 361Z" horiz-adv-x="278" unicode="·"/>
			<glyph d="M187 0H242L227 -44H234Q336 -44 336 -121Q336 -172 295 -197T184 -222Q149 -222 121 -214T59 -191L76 -135Q124 -162 175 -162Q200 -162 219 -151T238 -123Q238 -104 220 -95T183 -86Q169 -86 156 -91Z" horiz-adv-x="278" unicode="¸"/>
			<glyph d="M286 850H388L298 428H188L259 750L176 699L136 756Z" horiz-adv-x="361" unicode="¹"/>
			<glyph d="M285 710Q356 710 401 674T446 574Q446 517 419 473T345 407T239 384Q164 384 121 421T79 527Q79 581 106 622T181 687T285 710ZM282 650Q251 650 227 631T190 584T177 526Q177 490 194 467T245 444Q273 444 297 463T334 511T348 568Q348 603 331 626T282 650Z" horiz-adv-x="397" unicode="º"/>
			<glyph d="M141 474H256L343 269L193 64H53L211 269ZM363 474H478L565 269L415 64H275L433 269Z" horiz-adv-x="611" unicode="»"/>
			<glyph d="M572 720H657L237 -22H152ZM266 704H368L278 282H168L239 604L156 553L116 610ZM623 422H756L699 157H764L746 77H683L667 0H560L576 77H391L401 163ZM628 324L492 157H593L630 324Z" horiz-adv-x="834" unicode="¼"/>
			<glyph d="M557 720H642L222 -22H137ZM266 704H368L278 282H168L239 604L156 553L116 610ZM638 428Q703 428 749 401T796 314Q796 252 733 190T605 93L596 88V86H755L741 0H422L436 70L621 212Q680 258 680 293Q680 317 662 329T613 342Q572 342 508 316L505 401Q548 416 577 422T638 428ZZ" horiz-adv-x="834" unicode="½"/>
			<glyph d="M612 720H697L277 -22H192ZM259 710Q332 710 370 684T409 609Q409 569 381 541T302 503V501Q342 488 360 467T378 417Q378 346 322 311T183 276Q97 276 41 301L57 375Q108 356 166 356Q206 356 234 371T262 412Q262 436 240 446T178 456H137L149 536H157Q293 536 293 595Q293 610 277 620T233 630Q169 630 126 611L135 692Q202 710 259 710ZM652 422H785L728 157H793L775 77H712L696 0H589L605 77H420L430 163ZM657 324L521 157H622L659 324ZZZ" horiz-adv-x="834" unicode="¾"/>
			<glyph d="M248 515H388L359 375H219ZM222 310H344Q336 245 309 199T224 108Q218 104 192 84T153 40T140 -10Q140 -51 177 -71T257 -91Q324 -91 381 -66V-178Q298 -195 239 -195Q177 -195 121 -176T30 -117T-6 -13Q-6 38 19 76T98 158Q162 209 190 240T222 310Z" horiz-adv-x="500" unicode="¿"/>
			<glyph d="M381 698H536L663 0H523L499 160H202L113 0H-42ZM432 574L264 270H480L436 574ZM322 886H455L536 740H451Z" horiz-adv-x="722" unicode="À"/>
			<glyph d="M381 698H536L663 0H523L499 160H202L113 0H-42ZM432 574L264 270H480L436 574ZM486 886H619L491 740H405Z" horiz-adv-x="722" unicode="Á"/>
			<glyph d="M381 698H536L663 0H523L499 160H202L113 0H-42ZM432 574L264 270H480L436 574ZM443 886H558L633 740H544L494 833L414 740H314Z" horiz-adv-x="722" unicode="Â"/>
			<glyph d="M381 698H536L663 0H523L499 160H202L113 0H-42ZM432 574L264 270H480L436 574ZM612 886H663Q646 767 545 767Q530 767 512 772T468 790Q454 796 438 801T410 807Q392 807 377 792T360 758H309Q319 816 348 847T425 879Q442 879 461 873T507 856Q544 839 559 839Q581 839 593 849T612 886Z" horiz-adv-x="722" unicode="Ã"/>
			<glyph d="M381 698H536L663 0H523L499 160H202L113 0H-42ZM432 574L264 270H480L436 574ZM328 878H442L417 762H303ZM536 878H650L625 762H511Z" horiz-adv-x="722" unicode="Ä"/>
			<glyph d="M381 698H536L663 0H523L499 160H202L113 0H-42ZM432 574L264 270H480L436 574ZM479 935Q520 935 552 904T584 830Q584 788 552 757T479 726Q437 726 406 757T375 830Q375 873 406 904T479 935ZM479 881Q458 881 443 866T429 830Q429 809 443 794T479 780Q501 780 515 794T530 830Q530 852 515 866T479 881Z" horiz-adv-x="722" unicode="Å"/>
			<glyph d="M461 698H948L926 582H677L651 416H863L841 306H634L604 110H828L804 0H452L477 160H230L113 0H-42ZM541 588L309 270H494L543 588Z" horiz-adv-x="944" unicode="Æ"/>
			<glyph d="M470 710Q591 710 674 676L639 559Q612 577 572 588T479 600Q401 600 341 563T248 463T215 319Q215 260 239 209T309 128T414 98Q488 98 561 141L539 7Q469 -12 385 -12L374 -44H378Q428 -44 455 -61T483 -122Q483 -172 442 -197T331 -222Q303 -222 273 -215T206 -191L223 -135Q272 -162 323 -162Q346 -162 365 -152T385 -123Q385 -104 367 -95T330 -86Q315 -86 303 -91L331 -9Q206 6 137 93T69 319Q69 432 118 521T258 660T470 710Z" horiz-adv-x="611" unicode="Ç"/>
			<glyph d="M178 698H589L568 588H295L259 416H503L481 306H236L195 110H471L447 0H31ZM250 886H383L464 740H379Z" unicode="È"/>
			<glyph d="M178 698H589L568 588H295L259 416H503L481 306H236L195 110H471L447 0H31ZM384 886H517L389 740H303Z" unicode="É"/>
			<glyph d="M178 698H589L568 588H295L259 416H503L481 306H236L195 110H471L447 0H31ZM340 886H455L530 740H441L391 833L311 740H211Z" unicode="Ê"/>
			<glyph d="M178 698H589L568 588H295L259 416H503L481 306H236L195 110H471L447 0H31ZM245 878H359L334 762H220ZM453 878H567L542 762H428Z" unicode="Ë"/>
			<glyph d="M164 698H310L163 0H17ZM102 886H235L316 740H231Z" horiz-adv-x="278" unicode="Ì"/>
			<glyph d="M164 698H310L163 0H17ZM264 886H397L269 740H183Z" horiz-adv-x="278" unicode="Í"/>
			<glyph d="M164 698H310L163 0H17ZM222 886H337L412 740H323L273 833L193 740H93Z" horiz-adv-x="278" unicode="Î"/>
			<glyph d="M164 698H310L163 0H17ZM106 878H220L195 762H81ZM314 878H428L403 762H289Z" horiz-adv-x="278" unicode="Ï"/>
			<glyph d="M178 698H375Q535 698 617 622T700 400Q700 294 656 203T511 56T252 0H31L101 330H42L61 422H120ZM295 588L260 422H420L401 330H241L195 110H257Q398 110 476 188T554 419Q554 498 498 543T341 588Z" horiz-adv-x="722" unicode="Ð"/>
			<glyph d="M175 698H352L501 168H503L617 698H749L598 0H418L272 535H270L159 0H25ZM611 886H662Q645 767 544 767Q529 767 511 772T467 790Q453 796 437 801T409 807Q391 807 376 792T359 758H308Q318 816 347 847T424 879Q441 879 460 873T506 856Q543 839 558 839Q580 839 592 849T611 886Z" horiz-adv-x="722" unicode="Ñ"/>
			<glyph d="M466 710Q605 710 681 633T757 414Q757 322 717 224T584 57T345 -12Q263 -12 200 24T103 125T69 278Q69 383 116 483T254 646T466 710ZM461 600Q386 600 330 549T244 422T215 271Q215 194 254 146T362 98Q438 98 494 150T581 279T611 429Q611 504 572 552T461 600ZM352 886H485L566 740H481Z" horiz-adv-x="778" unicode="Ò"/>
			<glyph d="M466 710Q605 710 681 633T757 414Q757 322 717 224T584 57T345 -12Q263 -12 200 24T103 125T69 278Q69 383 116 483T254 646T466 710ZM461 600Q386 600 330 549T244 422T215 271Q215 194 254 146T362 98Q438 98 494 150T581 279T611 429Q611 504 572 552T461 600ZM514 886H647L519 740H433Z" horiz-adv-x="778" unicode="Ó"/>
			<glyph d="M466 710Q605 710 681 633T757 414Q757 322 717 224T584 57T345 -12Q263 -12 200 24T103 125T69 278Q69 383 116 483T254 646T466 710ZM461 600Q386 600 330 549T244 422T215 271Q215 194 254 146T362 98Q438 98 494 150T581 279T611 429Q611 504 572 552T461 600ZM471 886H586L661 740H572L522 833L442 740H342Z" horiz-adv-x="778" unicode="Ô"/>
			<glyph d="M466 710Q605 710 681 633T757 414Q757 322 717 224T584 57T345 -12Q263 -12 200 24T103 125T69 278Q69 383 116 483T254 646T466 710ZM461 600Q386 600 330 549T244 422T215 271Q215 194 254 146T362 98Q438 98 494 150T581 279T611 429Q611 504 572 552T461 600ZM640 886H691Q674 767 573 767Q558 767 540 772T496 790Q482 796 466 801T438 807Q420 807 405 792T388 758H337Q347 816 376 847T453 879Q470 879 489 873T535 856Q572 839 587 839Q609 839 621 849T640 886Z" horiz-adv-x="778" unicode="Õ"/>
			<glyph d="M466 710Q605 710 681 633T757 414Q757 322 717 224T584 57T345 -12Q263 -12 200 24T103 125T69 278Q69 383 116 483T254 646T466 710ZM461 600Q386 600 330 549T244 422T215 271Q215 194 254 146T362 98Q438 98 494 150T581 279T611 429Q611 504 572 552T461 600ZM356 878H470L445 762H331ZM564 878H678L653 762H539Z" horiz-adv-x="778" unicode="Ö"/>
			<glyph d="M153 487L315 325L477 487L549 415L386 253L549 91L477 19L315 182L153 19L81 91L243 253L81 415Z" horiz-adv-x="600" unicode="×"/>
			<glyph d="M688 783L740 745L667 646Q757 569 757 412Q757 327 719 229T588 59T345 -12Q266 -12 207 22L127 -86L76 -47L154 59Q112 98 90 154T69 279Q69 382 115 481T253 645T466 710Q552 710 612 680ZM461 600Q386 600 330 550T244 423T215 271Q215 213 237 172L539 580Q507 600 461 600ZM584 534L281 122Q315 98 362 98Q437 98 493 149T580 277T611 429Q611 491 584 534Z" horiz-adv-x="778" unicode="Ø"/>
			<glyph d="M175 698H315L239 344Q223 272 223 227Q223 98 338 98Q398 98 435 125T494 202T532 330L611 698H749L657 280Q624 128 548 58T337 -12Q83 -12 83 209Q83 265 96 324ZM322 886H455L536 740H451Z" horiz-adv-x="722" unicode="Ù"/>
			<glyph d="M175 698H315L239 344Q223 272 223 227Q223 98 338 98Q398 98 435 125T494 202T532 330L611 698H749L657 280Q624 128 548 58T337 -12Q83 -12 83 209Q83 265 96 324ZM486 886H619L491 740H405Z" horiz-adv-x="722" unicode="Ú"/>
			<glyph d="M175 698H315L239 344Q223 272 223 227Q223 98 338 98Q398 98 435 125T494 202T532 330L611 698H749L657 280Q624 128 548 58T337 -12Q83 -12 83 209Q83 265 96 324ZM443 886H558L633 740H544L494 833L414 740H314Z" horiz-adv-x="722" unicode="Û"/>
			<glyph d="M175 698H315L239 344Q223 272 223 227Q223 98 338 98Q398 98 435 125T494 202T532 330L611 698H749L657 280Q624 128 548 58T337 -12Q83 -12 83 209Q83 265 96 324ZM328 878H442L417 762H303ZM536 878H650L625 762H511Z" horiz-adv-x="722" unicode="Ü"/>
			<glyph d="M107 698H255L359 405L586 698H749L411 289L350 0H210L271 289ZM458 886H591L463 740H377Z" horiz-adv-x="667" unicode="Ý"/>
			<glyph d="M167 698H307L283 582H291Q429 582 497 537T566 401Q566 320 526 263T419 177T271 149H192L161 0H21ZM259 472L214 259H263Q330 259 375 293T420 386Q420 426 394 449T304 472Z" unicode="Þ"/>
			<glyph d="M396 762Q452 762 502 744T582 689T613 599Q613 516 572 469T441 400V398Q507 383 540 344T573 252Q573 174 538 115T442 25T300 -6Q262 -6 206 8L227 118Q262 98 291 98Q338 98 370 120T417 179T433 254Q433 298 402 320T306 342L326 446Q393 446 433 482T473 581Q473 616 452 637T391 658Q334 658 304 619T259 502L155 0H21L134 544Q157 651 222 706T396 762Z" horiz-adv-x="611" unicode="ß"/>
			<glyph d="M310 527Q406 527 458 486T510 369Q510 335 495 256L464 100Q449 24 447 0H334L348 79H346Q308 30 269 9T180 -12Q107 -12 64 27T21 135Q21 225 94 271T325 318H384Q388 346 388 362Q388 398 356 413T285 429Q201 429 116 389L135 496Q223 527 310 527ZM319 238Q238 238 193 213T149 141Q149 114 169 100T217 86Q278 86 314 121T369 238ZM191 731H324L405 585H320Z" unicode="à"/>
			<glyph d="M310 527Q406 527 458 486T510 369Q510 335 495 256L464 100Q449 24 447 0H334L348 79H346Q308 30 269 9T180 -12Q107 -12 64 27T21 135Q21 225 94 271T325 318H384Q388 346 388 362Q388 398 356 413T285 429Q201 429 116 389L135 496Q223 527 310 527ZM319 238Q238 238 193 213T149 141Q149 114 169 100T217 86Q278 86 314 121T369 238ZM352 731H485L357 585H271Z" unicode="á"/>
			<glyph d="M310 527Q406 527 458 486T510 369Q510 335 495 256L464 100Q449 24 447 0H334L348 79H346Q308 30 269 9T180 -12Q107 -12 64 27T21 135Q21 225 94 271T325 318H384Q388 346 388 362Q388 398 356 413T285 429Q201 429 116 389L135 496Q223 527 310 527ZM319 238Q238 238 193 213T149 141Q149 114 169 100T217 86Q278 86 314 121T369 238ZM310 731H425L500 585H411L361 678L281 585H181Z" unicode="â"/>
			<glyph d="M310 527Q406 527 458 486T510 369Q510 335 495 256L464 100Q449 24 447 0H334L348 79H346Q308 30 269 9T180 -12Q107 -12 64 27T21 135Q21 225 94 271T325 318H384Q388 346 388 362Q388 398 356 413T285 429Q201 429 116 389L135 496Q223 527 310 527ZM319 238Q238 238 193 213T149 141Q149 114 169 100T217 86Q278 86 314 121T369 238ZM478 731H529Q512 612 411 612Q395 612 377 617T335 634Q320 641 304 646T276 652Q257 652 242 636T226 603H175Q185 662 214 693T291 724Q308 724 327 718T371 702Q409 684 425 684Q448 684 460 695T478 731Z" unicode="ã"/>
			<glyph d="M310 527Q406 527 458 486T510 369Q510 335 495 256L464 100Q449 24 447 0H334L348 79H346Q308 30 269 9T180 -12Q107 -12 64 27T21 135Q21 225 94 271T325 318H384Q388 346 388 362Q388 398 356 413T285 429Q201 429 116 389L135 496Q223 527 310 527ZM319 238Q238 238 193 213T149 141Q149 114 169 100T217 86Q278 86 314 121T369 238ZM196 725H310L285 609H171ZM404 725H518L493 609H379Z" unicode="ä"/>
			<glyph d="M310 527Q406 527 458 486T510 369Q510 335 495 256L464 100Q449 24 447 0H334L348 79H346Q308 30 269 9T180 -12Q107 -12 64 27T21 135Q21 225 94 271T325 318H384Q388 346 388 362Q388 398 356 413T285 429Q201 429 116 389L135 496Q223 527 310 527ZM319 238Q238 238 193 213T149 141Q149 114 169 100T217 86Q278 86 314 121T369 238ZM380 792Q423 792 454 760T485 687Q485 645 453 614T380 583Q338 583 307 614T276 687Q276 729 307 760T380 792ZM379 738Q358 738 344 723T330 687Q330 665 344 651T380 637Q402 637 416 651T431 687Q431 708 416 723T379 738Z" unicode="å"/>
			<glyph d="M314 527Q390 527 432 507T487 434H489Q515 481 560 504T664 527Q762 527 815 476T869 332Q869 276 855 216H515V210Q515 86 641 86Q705 86 786 120L766 14Q688 -12 604 -12Q535 -12 491 13T416 95Q363 -12 194 -12Q111 -12 66 26T21 139Q21 228 100 273T327 318H396Q399 335 399 348Q399 389 373 409T291 429Q208 429 123 389L142 498Q230 527 314 527ZM664 435Q618 435 580 400T528 308H737Q741 333 741 349Q741 387 722 411T664 435ZM317 238Q230 238 189 216T149 148Q149 119 171 102T232 86Q288 86 325 121T386 238Z" horiz-adv-x="889" unicode="æ"/>
			<glyph d="M345 527Q414 527 479 507L446 397Q406 423 348 423Q296 423 258 394T201 321T181 226Q181 92 295 92Q320 92 349 99T404 118L389 12Q345 -9 281 -11L270 -44H277Q324 -44 351 -62T379 -122Q379 -173 337 -197T227 -222Q196 -222 167 -215T102 -191L119 -135Q168 -162 219 -162Q242 -162 261 -152T281 -123Q281 -104 264 -95T226 -86Q212 -86 199 -91L227 -9Q140 1 90 60T41 210Q41 302 79 374T187 486T345 527Z" horiz-adv-x="444" unicode="ç"/>
			<glyph d="M325 527Q425 527 480 475T536 331Q536 277 523 216H160Q160 149 195 117T303 86Q379 86 461 123L444 17Q352 -12 280 -12Q162 -12 97 46T32 213Q32 292 69 364T174 482T325 527ZM322 429Q271 429 236 401T178 308H405Q408 325 408 343Q408 378 389 403T322 429ZM221 731H354L435 585H350Z" unicode="è"/>
			<glyph d="M325 527Q425 527 480 475T536 331Q536 277 523 216H160Q160 149 195 117T303 86Q379 86 461 123L444 17Q352 -12 280 -12Q162 -12 97 46T32 213Q32 292 69 364T174 482T325 527ZM322 429Q271 429 236 401T178 308H405Q408 325 408 343Q408 378 389 403T322 429ZM352 731H485L357 585H271Z" unicode="é"/>
			<glyph d="M325 527Q425 527 480 475T536 331Q536 277 523 216H160Q160 149 195 117T303 86Q379 86 461 123L444 17Q352 -12 280 -12Q162 -12 97 46T32 213Q32 292 69 364T174 482T325 527ZM322 429Q271 429 236 401T178 308H405Q408 325 408 343Q408 378 389 403T322 429ZM310 731H425L500 585H411L361 678L281 585H181Z" unicode="ê"/>
			<glyph d="M325 527Q425 527 480 475T536 331Q536 277 523 216H160Q160 149 195 117T303 86Q379 86 461 123L444 17Q352 -12 280 -12Q162 -12 97 46T32 213Q32 292 69 364T174 482T325 527ZM322 429Q271 429 236 401T178 308H405Q408 325 408 343Q408 378 389 403T322 429ZM196 725H310L285 609H171ZM404 725H518L493 609H379Z" unicode="ë"/>
			<glyph d="M131 515H265L155 0H21ZM54 731H187L268 585H183Z" horiz-adv-x="278" unicode="ì"/>
			<glyph d="M131 515H265L155 0H21ZM213 731H346L218 585H132Z" horiz-adv-x="278" unicode="í"/>
			<glyph d="M131 515H265L155 0H21ZM171 731H286L361 585H272L222 678L142 585H42Z" horiz-adv-x="278" unicode="î"/>
			<glyph d="M131 515H265L155 0H21ZM57 725H171L146 609H32ZM265 725H379L354 609H240Z" horiz-adv-x="278" unicode="ï"/>
			<glyph d="M317 762Q367 734 396 710L512 762L565 703L457 654Q519 588 550 506T582 321Q582 219 543 144T435 28T275 -12Q165 -12 103 51T41 223Q41 306 79 373T182 477T324 515Q358 515 382 509T430 488H432Q392 562 350 605L246 558L192 618L288 661Q260 683 222 702ZM339 411Q291 411 255 382T200 308T181 213Q181 155 207 123T284 92Q335 92 371 125T424 206T442 300Q442 354 416 382T339 411Z" horiz-adv-x="611" unicode="ð"/>
			<glyph d="M399 527Q476 527 521 482T567 362Q567 328 559 290T549 246L496 0H362L412 243Q413 248 420 282T427 351Q427 383 406 403T354 423Q295 423 260 378T208 251L155 0H21L114 432Q118 450 122 474T129 515H260L251 465H253Q284 494 321 510T399 527ZM506 731H557Q540 612 439 612Q423 612 405 617T363 634Q348 641 332 646T304 652Q285 652 270 636T254 603H203Q213 662 242 693T319 724Q336 724 355 718T399 702Q437 684 453 684Q476 684 488 695T506 731Z" horiz-adv-x="611" unicode="ñ"/>
			<glyph d="M346 527Q454 527 518 466T582 300Q582 211 543 140T435 28T275 -12Q166 -12 103 51T41 223Q41 307 81 377T191 487T346 527ZM339 423Q292 423 255 392T200 312T181 213Q181 154 208 123T286 92Q335 92 370 124T424 205T442 300Q442 423 339 423ZM220 731H353L434 585H349Z" horiz-adv-x="611" unicode="ò"/>
			<glyph d="M346 527Q454 527 518 466T582 300Q582 211 543 140T435 28T275 -12Q166 -12 103 51T41 223Q41 307 81 377T191 487T346 527ZM339 423Q292 423 255 392T200 312T181 213Q181 154 208 123T286 92Q335 92 370 124T424 205T442 300Q442 423 339 423ZM378 731H511L383 585H297Z" horiz-adv-x="611" unicode="ó"/>
			<glyph d="M346 527Q454 527 518 466T582 300Q582 211 543 140T435 28T275 -12Q166 -12 103 51T41 223Q41 307 81 377T191 487T346 527ZM339 423Q292 423 255 392T200 312T181 213Q181 154 208 123T286 92Q335 92 370 124T424 205T442 300Q442 423 339 423ZM338 731H453L528 585H439L389 678L309 585H209Z" horiz-adv-x="611" unicode="ô"/>
			<glyph d="M346 527Q454 527 518 466T582 300Q582 211 543 140T435 28T275 -12Q166 -12 103 51T41 223Q41 307 81 377T191 487T346 527ZM339 423Q292 423 255 392T200 312T181 213Q181 154 208 123T286 92Q335 92 370 124T424 205T442 300Q442 423 339 423ZM506 731H557Q540 612 439 612Q423 612 405 617T363 634Q348 641 332 646T304 652Q285 652 270 636T254 603H203Q213 662 242 693T319 724Q336 724 355 718T399 702Q437 684 453 684Q476 684 488 695T506 731Z" horiz-adv-x="611" unicode="õ"/>
			<glyph d="M346 527Q454 527 518 466T582 300Q582 211 543 140T435 28T275 -12Q166 -12 103 51T41 223Q41 307 81 377T191 487T346 527ZM339 423Q292 423 255 392T200 312T181 213Q181 154 208 123T286 92Q335 92 370 124T424 205T442 300Q442 423 339 423ZM224 725H338L313 609H199ZM432 725H546L521 609H407Z" horiz-adv-x="611" unicode="ö"/>
			<glyph d="M315 529Q346 529 369 506T392 452Q392 421 369 398T315 375Q284 375 261 398T238 452Q238 482 261 505T315 529ZM61 305H569V201H61ZM315 131Q347 131 369 108T392 54Q392 22 369 0T315 -23Q283 -23 260 0T238 54Q238 85 261 108T315 131Z" horiz-adv-x="600" unicode="÷"/>
			<glyph d="M517 587L562 554L504 476Q541 447 561 402T582 301Q582 210 542 138T433 27T275 -12Q206 -12 159 13L91 -78L46 -45L112 43Q41 108 41 223Q41 306 80 375T189 486T348 527Q409 527 456 505ZM339 423Q290 423 254 391T199 311T181 213Q181 178 192 150L388 413Q370 423 339 423ZM428 374L229 107Q251 92 286 92Q335 92 370 124T424 204T442 300Q442 343 428 374Z" horiz-adv-x="611" unicode="ø"/>
			<glyph d="M125 515H259L209 273Q208 266 201 231T194 165Q194 132 214 112T267 92Q322 92 357 132T413 265L466 515H600L514 116Q497 41 492 0H361L370 50H368Q300 -12 222 -12Q145 -12 99 32T54 153Q54 174 57 194T69 256ZM219 731H352L433 585H348Z" horiz-adv-x="611" unicode="ù"/>
			<glyph d="M125 515H259L209 273Q208 266 201 231T194 165Q194 132 214 112T267 92Q322 92 357 132T413 265L466 515H600L514 116Q497 41 492 0H361L370 50H368Q300 -12 222 -12Q145 -12 99 32T54 153Q54 174 57 194T69 256ZM380 731H513L385 585H299Z" horiz-adv-x="611" unicode="ú"/>
			<glyph d="M125 515H259L209 273Q208 266 201 231T194 165Q194 132 214 112T267 92Q322 92 357 132T413 265L466 515H600L514 116Q497 41 492 0H361L370 50H368Q300 -12 222 -12Q145 -12 99 32T54 153Q54 174 57 194T69 256ZM338 731H453L528 585H439L389 678L309 585H209Z" horiz-adv-x="611" unicode="û"/>
			<glyph d="M125 515H259L209 273Q208 266 201 231T194 165Q194 132 214 112T267 92Q322 92 357 132T413 265L466 515H600L514 116Q497 41 492 0H361L370 50H368Q300 -12 222 -12Q145 -12 99 32T54 153Q54 174 57 194T69 256ZM224 725H338L313 609H199ZM432 725H546L521 609H407Z" horiz-adv-x="611" unicode="ü"/>
			<glyph d="M66 515H203L251 132H253L458 515H605L247 -93Q207 -161 160 -191T51 -222Q4 -222 -49 -208L-19 -106Q12 -118 40 -118Q73 -118 98 -97T157 -25ZM352 731H485L357 585H271Z" unicode="ý"/>
			<glyph d="M177 750H311L248 459H250Q269 488 309 507T393 527Q482 527 531 471T581 318Q581 233 550 157T458 34T313 -12Q255 -12 219 12T171 80H169L110 -210H-24ZM347 423Q304 423 271 390T222 308T205 213Q205 155 227 123T293 92Q344 92 377 127T425 213T441 312Q441 363 416 393T347 423Z" horiz-adv-x="611" unicode="þ"/>
			<glyph d="M66 515H203L251 132H253L458 515H605L247 -93Q207 -161 160 -191T51 -222Q4 -222 -49 -208L-19 -106Q12 -118 40 -118Q73 -118 98 -97T157 -25ZM196 725H310L285 609H171ZM404 725H518L493 609H379Z" unicode="ÿ"/>
			<glyph d="M381 698H536L663 0H523L499 160H202L113 0H-42ZM432 574L264 270H480L436 574ZM334 863H631L616 783H318Z" horiz-adv-x="722" unicode="Ā"/>
			<glyph d="M310 527Q406 527 458 486T510 369Q510 335 495 256L464 100Q449 24 447 0H334L348 79H346Q308 30 269 9T180 -12Q107 -12 64 27T21 135Q21 225 94 271T325 318H384Q388 346 388 362Q388 398 356 413T285 429Q201 429 116 389L135 496Q223 527 310 527ZM319 238Q238 238 193 213T149 141Q149 114 169 100T217 86Q278 86 314 121T369 238ZM201 698H498L483 618H185Z" unicode="ā"/>
			<glyph d="M381 698H536L663 0H523L499 160H202L113 0H-42ZM432 574L264 270H480L436 574ZM321 892H383Q389 850 413 831T475 812Q556 812 585 892H647Q637 822 586 781T468 740Q402 740 362 780T321 892Z" horiz-adv-x="722" unicode="Ă"/>
			<glyph d="M310 527Q406 527 458 486T510 369Q510 335 495 256L464 100Q449 24 447 0H334L348 79H346Q308 30 269 9T180 -12Q107 -12 64 27T21 135Q21 225 94 271T325 318H384Q388 346 388 362Q388 398 356 413T285 429Q201 429 116 389L135 496Q223 527 310 527ZM319 238Q238 238 193 213T149 141Q149 114 169 100T217 86Q278 86 314 121T369 238ZM177 729H247Q249 694 271 675T332 656Q373 656 399 673T442 729H514Q496 661 450 622T337 584Q179 584 177 729Z" unicode="ă"/>
			<glyph d="M381 698H536L663 0H617Q550 -40 517 -73T485 -129Q485 -144 494 -153T521 -162Q538 -162 551 -156T581 -134L619 -148Q576 -222 488 -222Q451 -222 425 -206T399 -158Q399 -123 429 -85T549 0H523L499 160H202L113 0H-42ZM432 574L264 270H480L436 574Z" horiz-adv-x="722" unicode="Ą"/>
			<glyph d="M310 527Q406 527 458 486T510 369Q510 335 495 256L464 100Q449 24 447 0H424Q357 -40 324 -73T292 -129Q292 -144 301 -153T328 -162Q345 -162 358 -155T388 -134L426 -148Q383 -222 295 -222Q256 -222 231 -205T206 -158Q206 -122 237 -84T356 0H334L348 79H346Q308 30 269 9T180 -12Q107 -12 64 27T21 135Q21 224 92 271T325 318H384Q388 346 388 362Q388 399 356 414T285 429Q201 429 116 389L135 496Q223 527 310 527ZM319 238Q238 238 193 213T149 141Q149 114 169 100T217 86Q278 86 314 121T369 238Z" unicode="ą"/>
			<glyph d="M470 710Q591 710 674 676L639 559Q613 577 571 588T479 600Q403 600 343 564T249 465T215 319Q215 261 239 210T308 129T414 98Q490 98 561 141L539 7Q469 -12 381 -12Q282 -12 212 28T105 143T69 319Q69 433 118 521T258 660T470 710ZM493 886H626L498 740H412Z" horiz-adv-x="611" unicode="Ć"/>
			<glyph d="M345 527Q414 527 479 507L446 397Q406 423 348 423Q296 423 258 394T201 321T181 226Q181 92 295 92Q320 92 349 99T404 118L389 12Q341 -12 260 -12Q194 -12 144 15T68 93T41 210Q41 302 79 374T187 486T345 527ZM366 731H499L371 585H285Z" horiz-adv-x="444" unicode="ć"/>
			<glyph d="M470 710Q591 710 674 676L639 559Q613 577 571 588T479 600Q403 600 343 564T249 465T215 319Q215 261 239 210T308 129T414 98Q490 98 561 141L539 7Q469 -12 381 -12Q282 -12 212 28T105 143T69 319Q69 433 118 521T258 660T470 710ZM450 886H565L640 740H551L501 833L421 740H321Z" horiz-adv-x="611" unicode="Ĉ"/>
			<glyph d="M345 527Q414 527 479 507L446 397Q406 423 348 423Q296 423 258 394T201 321T181 226Q181 92 295 92Q320 92 349 99T404 118L389 12Q341 -12 260 -12Q194 -12 144 15T68 93T41 210Q41 302 79 374T187 486T345 527ZM317 731H432L507 585H418L368 678L288 585H188Z" horiz-adv-x="444" unicode="ĉ"/>
			<glyph d="M470 710Q591 710 674 676L639 559Q613 577 571 588T479 600Q403 600 343 564T249 465T215 319Q215 261 239 210T308 129T414 98Q490 98 561 141L539 7Q469 -12 381 -12Q282 -12 212 28T105 143T69 319Q69 433 118 521T258 660T470 710ZM439 878H553L528 762H414Z" horiz-adv-x="611" unicode="Ċ"/>
			<glyph d="M345 527Q414 527 479 507L446 397Q406 423 348 423Q296 423 258 394T201 321T181 226Q181 92 295 92Q320 92 349 99T404 118L389 12Q341 -12 260 -12Q194 -12 144 15T68 93T41 210Q41 302 79 374T187 486T345 527ZM307 725H421L396 609H282Z" horiz-adv-x="444" unicode="ċ"/>
			<glyph d="M470 710Q591 710 674 676L639 559Q613 577 571 588T479 600Q403 600 343 564T249 465T215 319Q215 261 239 210T308 129T414 98Q490 98 561 141L539 7Q469 -12 381 -12Q282 -12 212 28T105 143T69 319Q69 433 118 521T258 660T470 710ZM349 886H438L488 794L568 886H668L539 740H424Z" horiz-adv-x="611" unicode="Č"/>
			<glyph d="M345 527Q414 527 479 507L446 397Q406 423 348 423Q296 423 258 394T201 321T181 226Q181 92 295 92Q320 92 349 99T404 118L389 12Q341 -12 260 -12Q194 -12 144 15T68 93T41 210Q41 302 79 374T187 486T345 527ZM210 731H299L349 639L429 731H529L400 585H285Z" horiz-adv-x="444" unicode="č"/>
			<glyph d="M178 698H388Q539 698 619 622T700 400Q700 294 656 203T516 56T268 0H31ZM295 588L195 110H262Q402 110 478 188T554 419Q554 498 498 543T341 588ZM274 886H363L413 794L493 886H593L464 740H349Z" horiz-adv-x="722" unicode="Ď"/>
			<glyph d="M524 750H658L521 123Q513 87 507 49T500 0H375L388 76H386Q353 30 312 9T218 -12Q133 -12 87 49T41 203Q41 283 70 357T158 479T300 527Q395 527 459 454ZM321 423Q278 423 246 389T197 307T181 214Q181 157 202 124T263 92Q310 92 345 123T400 203T419 301Q419 351 394 387T321 423ZM723 731H838L739 532H665Z" horiz-adv-x="688" unicode="ď"/>
			<glyph d="M178 698H375Q535 698 617 622T700 400Q700 294 656 203T511 56T252 0H31L101 330H42L61 422H120ZM295 588L260 422H420L401 330H241L195 110H257Q398 110 476 188T554 419Q554 498 498 543T341 588Z" horiz-adv-x="722" unicode="Đ"/>
			<glyph d="M524 750H658L640 669H727L711 596H624L521 123Q513 87 507 49T500 0H375L388 76H386Q353 30 312 9T218 -12Q134 -12 87 49T41 203Q41 282 70 357T158 479T300 527Q395 527 459 454L490 596H324L340 669H506ZM321 423Q278 423 246 389T197 307T181 214Q181 157 202 124T263 92Q310 92 345 123T400 203T419 301Q419 351 394 387T321 423Z" horiz-adv-x="611" unicode="đ"/>
			<glyph d="M178 698H589L568 588H295L259 416H503L481 306H236L195 110H471L447 0H31ZM259 863H556L541 783H243Z" unicode="Ē"/>
			<glyph d="M325 527Q425 527 480 475T536 331Q536 277 523 216H160Q160 149 195 117T303 86Q379 86 461 123L444 17Q352 -12 280 -12Q162 -12 97 46T32 213Q32 292 69 364T174 482T325 527ZM322 429Q271 429 236 401T178 308H405Q408 325 408 343Q408 378 389 403T322 429ZM206 698H503L488 618H190Z" unicode="ē"/>
			<glyph d="M178 698H589L568 588H295L259 416H503L481 306H236L195 110H471L447 0H31ZM246 892H308Q314 850 338 831T400 812Q481 812 510 892H572Q562 822 511 781T393 740Q327 740 287 780T246 892Z" unicode="Ĕ"/>
			<glyph d="M325 527Q425 527 480 475T536 331Q536 277 523 216H160Q160 149 195 117T303 86Q379 86 461 123L444 17Q352 -12 280 -12Q162 -12 97 46T32 213Q32 292 69 364T174 482T325 527ZM322 429Q271 429 236 401T178 308H405Q408 325 408 343Q408 378 389 403T322 429ZM214 729H284Q286 694 308 675T369 656Q410 656 436 673T479 729H551Q533 661 487 622T374 584Q216 584 214 729Z" unicode="ĕ"/>
			<glyph d="M178 698H589L568 588H295L259 416H503L481 306H236L195 110H471L447 0H31ZM359 878H473L448 762H334Z" unicode="Ė"/>
			<glyph d="M325 527Q425 527 480 475T536 331Q536 277 523 216H160Q160 149 195 117T303 86Q379 86 461 123L444 17Q352 -12 280 -12Q162 -12 97 46T32 213Q32 292 69 364T174 482T325 527ZM322 429Q271 429 236 401T178 308H405Q408 325 408 343Q408 378 389 403T322 429ZM304 725H418L393 609H279Z" unicode="ė"/>
			<glyph d="M178 698H589L568 588H295L259 416H503L481 306H236L195 110H471L447 0H404Q334 -43 303 -75T272 -129Q272 -143 281 -152T308 -162Q325 -162 338 -155T368 -134L406 -148Q363 -222 275 -222Q239 -222 212 -206T186 -158Q186 -125 214 -88T336 0H31Z" unicode="Ę"/>
			<glyph d="M325 527Q425 527 480 475T536 331Q536 277 523 216H160Q160 148 194 117T303 86Q379 86 461 123L444 17Q415 8 376 0T315 -10Q256 -47 228 -77T201 -129Q201 -145 210 -153T236 -162Q254 -162 267 -155T297 -134L335 -148Q292 -222 204 -222Q169 -222 142 -206T115 -157Q115 -121 145 -85T244 -10Q142 -3 87 56T32 213Q32 292 69 364T174 482T325 527ZM322 429Q271 429 236 401T178 308H405Q408 325 408 343Q408 378 389 403T322 429Z" unicode="ę"/>
			<glyph d="M178 698H589L568 588H295L259 416H503L481 306H236L195 110H471L447 0H31ZM253 886H342L392 794L472 886H572L443 740H328Z" unicode="Ě"/>
			<glyph d="M325 527Q425 527 480 475T536 331Q536 277 523 216H160Q160 149 195 117T303 86Q379 86 461 123L444 17Q352 -12 280 -12Q162 -12 97 46T32 213Q32 292 69 364T174 482T325 527ZM322 429Q271 429 236 401T178 308H405Q408 325 408 343Q408 378 389 403T322 429ZM213 731H302L352 639L432 731H532L403 585H288Z" unicode="ě"/>
			<glyph d="M494 710Q624 710 726 671L691 550Q614 600 498 600Q416 600 352 561T254 454T220 302Q220 247 244 200T313 126T418 98Q469 98 486 105L525 290H377L400 400H683L603 19Q571 6 518 -3T416 -12Q250 -12 162 67T74 298Q74 425 126 518T274 660T494 710ZM469 886H584L659 740H570L520 833L440 740H340Z" horiz-adv-x="722" unicode="Ĝ"/>
			<glyph d="M303 527Q354 527 395 504T460 440L475 515H604Q598 493 587 443L501 38Q473 -93 404 -157T213 -222Q98 -222 5 -187L39 -78Q86 -98 124 -108T201 -118Q265 -118 301 -92T355 -28T390 77L396 98H394Q368 51 322 25T221 0Q134 0 88 62T42 218Q42 297 73 368T164 483T303 527ZM320 423Q276 423 245 390T198 310T182 219Q182 171 202 137T268 104Q316 104 350 134T401 212T418 314Q418 361 392 392T320 423ZM319 731H434L509 585H420L370 678L290 585H190Z" horiz-adv-x="611" unicode="ĝ"/>
			<glyph d="M494 710Q624 710 726 671L691 550Q614 600 498 600Q416 600 352 561T254 454T220 302Q220 247 244 200T313 126T418 98Q469 98 486 105L525 290H377L400 400H683L603 19Q571 6 518 -3T416 -12Q250 -12 162 67T74 298Q74 425 126 518T274 660T494 710ZM345 892H407Q413 850 437 831T499 812Q580 812 609 892H671Q661 822 610 781T492 740Q426 740 386 780T345 892Z" horiz-adv-x="722" unicode="Ğ"/>
			<glyph d="M303 527Q354 527 395 504T460 440L475 515H604Q598 493 587 443L501 38Q473 -93 404 -157T213 -222Q98 -222 5 -187L39 -78Q86 -98 124 -108T201 -118Q265 -118 301 -92T355 -28T390 77L396 98H394Q368 51 322 25T221 0Q134 0 88 62T42 218Q42 297 73 368T164 483T303 527ZM320 423Q276 423 245 390T198 310T182 219Q182 171 202 137T268 104Q316 104 350 134T401 212T418 314Q418 361 392 392T320 423ZM203 729H273Q275 694 297 675T358 656Q399 656 425 673T468 729H540Q522 661 476 622T363 584Q205 584 203 729Z" horiz-adv-x="611" unicode="ğ"/>
			<glyph d="M494 710Q624 710 726 671L691 550Q614 600 498 600Q416 600 352 561T254 454T220 302Q220 247 244 200T313 126T418 98Q469 98 486 105L525 290H377L400 400H683L603 19Q571 6 518 -3T416 -12Q250 -12 162 67T74 298Q74 425 126 518T274 660T494 710ZM458 878H572L547 762H433Z" horiz-adv-x="722" unicode="Ġ"/>
			<glyph d="M303 527Q354 527 395 504T460 440L475 515H604Q598 493 587 443L501 38Q473 -93 404 -157T213 -222Q98 -222 5 -187L39 -78Q86 -98 124 -108T201 -118Q265 -118 301 -92T355 -28T390 77L396 98H394Q368 51 322 25T221 0Q134 0 88 62T42 218Q42 297 73 368T164 483T303 527ZM320 423Q276 423 245 390T198 310T182 219Q182 171 202 137T268 104Q316 104 350 134T401 212T418 314Q418 361 392 392T320 423ZM309 725H423L398 609H284Z" horiz-adv-x="611" unicode="ġ"/>
			<glyph d="M494 710Q624 710 726 671L691 550Q614 600 498 600Q416 600 352 561T254 454T220 302Q220 247 244 200T313 126T418 98Q469 98 486 105L525 290H377L400 400H683L603 19Q571 6 518 -3T416 -12Q250 -12 162 67T74 298Q74 425 126 518T274 660T494 710ZM311 -66H438L348 -222H248Z" horiz-adv-x="722" unicode="Ģ"/>
			<glyph d="M303 527Q354 527 395 504T460 440L475 515H604Q598 493 587 443L501 38Q473 -93 404 -157T213 -222Q98 -222 5 -187L39 -78Q86 -98 124 -108T201 -118Q265 -118 301 -92T355 -28T390 77L396 98H394Q368 51 322 25T221 0Q134 0 88 62T42 218Q42 297 73 368T164 483T303 527ZM320 423Q276 423 245 390T198 310T182 219Q182 171 202 137T268 104Q316 104 350 134T401 212T418 314Q418 361 392 392T320 423ZM367 731H464L404 585H282Z" horiz-adv-x="611" unicode="ģ"/>
			<glyph d="M177 698H317L258 416H540L599 698H739L593 0H453L517 306H235L171 0H31ZM430 886H545L620 740H531L481 833L401 740H301Z" horiz-adv-x="722" unicode="Ĥ"/>
			<glyph d="M181 750H315L251 465H253Q321 527 399 527Q476 527 521 482T567 362Q567 327 558 289T549 245L496 0H362L413 248Q414 254 420 286T427 351Q427 383 407 403T354 423Q295 423 260 379T209 254L155 0H21ZM368 926H483L558 780H469L419 873L339 780H239Z" horiz-adv-x="611" unicode="ĥ"/>
			<glyph d="M177 698H317L291 575H573L599 698H739L713 575H777L760 493H696L593 0H453L510 276H228L171 0H31L134 493H64L82 575H151ZM274 493L250 377H531L555 493Z" horiz-adv-x="722" unicode="Ħ"/>
			<glyph d="M181 750H315L297 669H464L449 596H280L251 465H253Q321 527 399 527Q476 527 521 482T567 362Q567 327 558 289T549 245L496 0H362L413 248Q414 254 420 286T427 351Q427 383 407 403T354 423Q295 423 260 379T209 254L155 0H21L148 596H62L77 669H164Z" horiz-adv-x="611" unicode="ħ"/>
			<glyph d="M164 698H310L163 0H17ZM377 886H428Q411 767 310 767Q295 767 277 772T233 790Q219 796 203 801T175 807Q157 807 142 792T125 758H74Q84 816 113 847T190 879Q207 879 226 873T272 856Q309 839 324 839Q346 839 358 849T377 886Z" horiz-adv-x="278" unicode="Ĩ"/>
			<glyph d="M131 515H265L155 0H21ZM345 731H396Q379 612 278 612Q262 612 244 617T202 634Q187 641 171 646T143 652Q124 652 109 636T93 603H42Q52 662 81 693T158 724Q175 724 194 718T238 702Q276 684 292 684Q315 684 327 695T345 731Z" horiz-adv-x="278" unicode="ĩ"/>
			<glyph d="M164 698H310L163 0H17ZM113 863H410L395 783H97Z" horiz-adv-x="278" unicode="Ī"/>
			<glyph d="M131 515H265L155 0H21ZM79 698H376L361 618H63Z" horiz-adv-x="278" unicode="ī"/>
			<glyph d="M164 698H310L163 0Q100 -37 65 -71T31 -129Q31 -145 40 -153T66 -162Q84 -162 97 -155T127 -134L165 -148Q122 -222 34 -222Q-4 -222 -29 -205T-55 -158Q-55 -122 -24 -85T95 0H17Z" horiz-adv-x="278" unicode="Į"/>
			<glyph d="M180 737H314L286 609H152ZM131 515H265L155 0Q82 -45 53 -77T24 -129Q24 -143 33 -152T60 -162Q77 -162 90 -155T120 -134L158 -148Q114 -222 27 -222Q-11 -222 -36 -205T-62 -158Q-62 -125 -34 -88T88 0H21Z" horiz-adv-x="278" unicode="į"/>
			<glyph d="M164 698H310L163 0H17ZM215 878H329L304 762H190Z" horiz-adv-x="278" unicode="İ"/>
			<glyph d="M131 515H265L155 0H21Z" horiz-adv-x="278" unicode="ı"/>
			<glyph d="M164 698H310L163 0H17ZM523 698H663L565 222Q549 143 525 93T456 16T335 -12Q271 -12 218 2L250 121Q281 110 314 110Q355 110 378 130T410 176T428 242Z" horiz-adv-x="641" unicode="Ĳ"/>
			<glyph d="M180 737H314L286 609H152ZM131 515H265L155 0H21ZM440 737H574L546 609H412ZM391 515H525L411 -16Q393 -100 373 -143T324 -204T246 -222Q200 -222 157 -210L189 -112Q207 -118 219 -118Q240 -118 251 -101T269 -53Z" horiz-adv-x="538" unicode="ĳ"/>
			<glyph d="M271 698H411L313 222Q297 143 273 93T204 16T83 -12Q19 -12 -34 2L-2 121Q29 110 62 110Q103 110 126 130T158 176T176 242ZM309 886H424L499 740H410L360 833L280 740H180Z" horiz-adv-x="389" unicode="Ĵ"/>
			<glyph d="M131 515H265L151 -16Q133 -100 113 -143T64 -204T-14 -222Q-60 -222 -103 -210L-71 -112Q-53 -118 -41 -118Q-20 -118 -8 -101T9 -53ZM173 731H288L363 585H274L224 678L144 585H44Z" horiz-adv-x="278" unicode="ĵ"/>
			<glyph d="M181 698H321L262 424H265L542 698H736L383 380L608 0H441L247 354L171 0H31ZM239 -66H366L276 -222H176Z" horiz-adv-x="667" unicode="Ķ"/>
			<glyph d="M180 750H314L225 328H228L415 515H588L341 280L496 0H345L212 273H210L152 0H21ZM194 -66H321L231 -222H131Z" unicode="ķ"/>
			<glyph d="M171 698H311L186 110H460L436 0H23ZM276 886H409L281 740H195Z" horiz-adv-x="500" unicode="Ĺ"/>
			<glyph d="M180 750H314L155 0H21ZM268 926H401L273 780H187Z" horiz-adv-x="278" unicode="ĺ"/>
			<glyph d="M171 698H311L186 110H460L436 0H23ZM170 -66H297L207 -222H107Z" horiz-adv-x="500" unicode="Ļ"/>
			<glyph d="M180 750H314L155 0H21ZM15 -66H142L52 -222H-48Z" horiz-adv-x="278" unicode="ļ"/>
			<glyph d="M171 698H311L186 110H460L436 0H23ZM414 731H529L430 532H356Z" horiz-adv-x="500" unicode="Ľ"/>
			<glyph d="M180 750H314L155 0H21ZM379 731H494L395 532H321Z" horiz-adv-x="353" unicode="ľ"/>
			<glyph d="M171 698H311L186 110H460L436 0H23ZM347 427H461L436 311H322Z" horiz-adv-x="500" unicode="Ŀ"/>
			<glyph d="M180 750H314L155 0H21ZM323 428H437L412 312H298Z" horiz-adv-x="434" unicode="ŀ"/>
			<glyph d="M171 698H311L253 418L442 518L423 426L234 326L189 110H460L437 0H26L77 243L-6 199L14 291L96 335Z" horiz-adv-x="500" unicode="Ł"/>
			<glyph d="M177 750H311L252 465L333 508L313 416L233 373L155 0H21L82 293L1 250L20 342L101 385Z" horiz-adv-x="278" unicode="ł"/>
			<glyph d="M175 698H352L501 168H503L617 698H749L598 0H418L272 535H270L159 0H25ZM491 886H624L496 740H410Z" horiz-adv-x="722" unicode="Ń"/>
			<glyph d="M399 527Q476 527 521 482T567 362Q567 328 559 290T549 246L496 0H362L412 243Q413 248 420 282T427 351Q427 383 406 403T354 423Q295 423 260 378T208 251L155 0H21L114 432Q118 450 122 474T129 515H260L251 465H253Q284 494 321 510T399 527ZM391 731H524L396 585H310Z" horiz-adv-x="611" unicode="ń"/>
			<glyph d="M175 698H352L501 168H503L617 698H749L598 0H418L272 535H270L159 0H25ZM267 -66H394L304 -222H204Z" horiz-adv-x="722" unicode="Ņ"/>
			<glyph d="M399 527Q476 527 521 482T567 362Q567 328 559 290T549 246L496 0H362L412 243Q413 248 420 282T427 351Q427 383 406 403T354 423Q295 423 260 378T208 251L155 0H21L114 432Q118 450 122 474T129 515H260L251 465H253Q284 494 321 510T399 527ZM198 -66H325L235 -222H135Z" horiz-adv-x="611" unicode="ņ"/>
			<glyph d="M175 698H352L501 168H503L617 698H749L598 0H418L272 535H270L159 0H25ZM336 886H425L475 794L555 886H655L526 740H411Z" horiz-adv-x="722" unicode="Ň"/>
			<glyph d="M399 527Q476 527 521 482T567 362Q567 328 559 290T549 246L496 0H362L412 243Q413 248 420 282T427 351Q427 383 406 403T354 423Q295 423 260 378T208 251L155 0H21L114 432Q118 450 122 474T129 515H260L251 465H253Q284 494 321 510T399 527ZM241 731H330L380 639L460 731H560L431 585H316Z" horiz-adv-x="611" unicode="ň"/>
			<glyph d="M121 698H269L146 468H33ZM519 527Q596 527 641 482T687 362Q687 328 679 290T669 246L616 0H482L532 243Q533 248 540 282T547 351Q547 383 526 403T474 423Q415 423 380 378T328 251L275 0H141L234 432Q238 450 242 474T249 515H380L371 465H373Q404 494 441 510T519 527Z" horiz-adv-x="731" unicode="ŉ"/>
			<glyph d="M466 710Q605 710 681 633T757 414Q757 322 717 224T584 57T345 -12Q263 -12 200 24T103 125T69 278Q69 383 116 483T254 646T466 710ZM461 600Q386 600 330 549T244 422T215 271Q215 194 254 146T362 98Q438 98 494 150T581 279T611 429Q611 504 572 552T461 600ZM363 863H660L645 783H347Z" horiz-adv-x="778" unicode="Ō"/>
			<glyph d="M346 527Q454 527 518 466T582 300Q582 211 543 140T435 28T275 -12Q166 -12 103 51T41 223Q41 307 81 377T191 487T346 527ZM339 423Q292 423 255 392T200 312T181 213Q181 154 208 123T286 92Q335 92 370 124T424 205T442 300Q442 423 339 423ZM234 698H531L516 618H218Z" horiz-adv-x="611" unicode="ō"/>
			<glyph d="M466 710Q605 710 681 633T757 414Q757 322 717 224T584 57T345 -12Q263 -12 200 24T103 125T69 278Q69 383 116 483T254 646T466 710ZM461 600Q386 600 330 549T244 422T215 271Q215 194 254 146T362 98Q438 98 494 150T581 279T611 429Q611 504 572 552T461 600ZM362 892H424Q430 850 454 831T516 812Q597 812 626 892H688Q678 822 627 781T509 740Q443 740 403 780T362 892Z" horiz-adv-x="778" unicode="Ŏ"/>
			<glyph d="M346 527Q454 527 518 466T582 300Q582 211 543 140T435 28T275 -12Q166 -12 103 51T41 223Q41 307 81 377T191 487T346 527ZM339 423Q292 423 255 392T200 312T181 213Q181 154 208 123T286 92Q335 92 370 124T424 205T442 300Q442 423 339 423ZM231 729H301Q303 694 325 675T386 656Q427 656 453 673T496 729H568Q550 661 504 622T391 584Q233 584 231 729Z" horiz-adv-x="611" unicode="ŏ"/>
			<glyph d="M466 710Q605 710 681 633T757 414Q757 322 717 224T584 57T345 -12Q263 -12 200 24T103 125T69 278Q69 383 116 483T254 646T466 710ZM461 600Q386 600 330 549T244 422T215 271Q215 194 254 146T362 98Q438 98 494 150T581 279T611 429Q611 504 572 552T461 600ZM400 886H533L405 740H319ZM597 886H730L602 740H516Z" horiz-adv-x="778" unicode="Ő"/>
			<glyph d="M346 527Q454 527 518 466T582 300Q582 211 543 140T435 28T275 -12Q166 -12 103 51T41 223Q41 307 81 377T191 487T346 527ZM339 423Q292 423 255 392T200 312T181 213Q181 154 208 123T286 92Q335 92 370 124T424 205T442 300Q442 423 339 423ZM287 731H420L292 585H206ZM484 731H617L489 585H403Z" horiz-adv-x="611" unicode="ő"/>
			<glyph d="M479 704Q522 704 587 701T696 698H979L957 588H699L663 416H896L874 306H640L599 110H862L839 0H562Q499 0 443 -3T360 -6Q278 -6 211 32T107 142T69 306Q69 422 117 512T259 653T479 704ZM487 594Q407 594 345 555T249 451T215 305Q215 217 262 160T398 104Q430 104 458 110L558 588Q525 594 487 594Z" horiz-adv-x="944" unicode="Œ"/>
			<glyph d="M333 527Q414 527 461 503T530 431Q570 484 612 505T719 527Q817 527 870 476T924 332Q924 278 910 216H570V208Q570 86 696 86Q760 86 841 120L821 14Q743 -12 659 -12Q526 -12 480 84Q451 38 395 13T275 -12Q165 -12 103 51T41 223Q41 307 79 376T185 486T333 527ZM719 435Q673 435 635 400T583 308H792Q796 336 796 349Q796 386 777 410T719 435ZM341 429Q293 429 255 395T199 312T181 214Q181 153 206 119T280 86Q330 86 365 119T418 203T436 306Q436 362 411 395T341 429Z" horiz-adv-x="944" unicode="œ"/>
			<glyph d="M167 698H364Q441 698 493 686T578 638T610 533Q610 447 553 398T406 347V345Q464 342 478 277L544 0H397L359 184Q357 197 350 229T326 275T277 290H222L161 0H21ZM286 588L247 400H296Q375 400 419 429T464 515Q464 558 437 573T358 588ZM397 886H530L402 740H316Z" horiz-adv-x="611" unicode="Ŕ"/>
			<glyph d="M390 527Q420 527 440 522L412 391Q388 399 361 399Q300 399 259 354T203 231L155 0H21L113 446Q117 465 125 515H253L235 418H237Q257 463 300 495T390 527ZM320 731H453L325 585H239Z" horiz-adv-x="389" unicode="ŕ"/>
			<glyph d="M167 698H364Q441 698 493 686T578 638T610 533Q610 447 553 398T406 347V345Q464 342 478 277L544 0H397L359 184Q357 197 350 229T326 275T277 290H222L161 0H21ZM286 588L247 400H296Q375 400 419 429T464 515Q464 558 437 573T358 588ZM214 -66H341L251 -222H151Z" horiz-adv-x="611" unicode="Ŗ"/>
			<glyph d="M390 527Q420 527 440 522L412 391Q388 399 361 399Q300 399 259 354T203 231L155 0H21L113 446Q117 465 125 515H253L235 418H237Q257 463 300 495T390 527ZM21 -66H148L58 -222H-42Z" horiz-adv-x="389" unicode="ŗ"/>
			<glyph d="M167 698H364Q441 698 493 686T578 638T610 533Q610 447 553 398T406 347V345Q464 342 478 277L544 0H397L359 184Q357 197 350 229T326 275T277 290H222L161 0H21ZM286 588L247 400H296Q375 400 419 429T464 515Q464 558 437 573T358 588ZM251 886H340L390 794L470 886H570L441 740H326Z" horiz-adv-x="611" unicode="Ř"/>
			<glyph d="M390 527Q420 527 440 522L412 391Q388 399 361 399Q300 399 259 354T203 231L155 0H21L113 446Q117 465 125 515H253L235 418H237Q257 463 300 495T390 527ZM164 731H253L303 639L383 731H483L354 585H239Z" horiz-adv-x="389" unicode="ř"/>
			<glyph d="M373 710Q476 710 553 679L520 564Q488 580 450 590T375 600Q330 600 294 580T258 520Q258 487 282 465T369 406Q428 374 462 330T496 221Q496 105 418 46T209 -12Q117 -12 10 27L46 146Q103 120 143 109T217 98Q273 98 311 126T350 207Q350 242 328 265T255 317Q207 344 179 364T131 418T112 499Q112 567 146 614T240 686T373 710ZM386 886H519L391 740H305Z" unicode="Ś"/>
			<glyph d="M296 527Q358 527 442 506L413 405Q348 429 303 429Q262 429 237 415T213 377Q213 359 230 342T287 301Q338 268 362 236T387 162Q387 74 324 31T155 -12Q64 -12 -2 19L27 126Q66 104 95 95T155 86Q197 86 222 101T247 143Q247 168 228 186T160 236Q117 263 95 293T73 363Q73 442 136 484T296 527ZM314 731H447L319 585H233Z" horiz-adv-x="444" unicode="ś"/>
			<glyph d="M373 710Q476 710 553 679L520 564Q488 580 450 590T375 600Q330 600 294 580T258 520Q258 487 282 465T369 406Q428 374 462 330T496 221Q496 105 418 46T209 -12Q117 -12 10 27L46 146Q103 120 143 109T217 98Q273 98 311 126T350 207Q350 242 328 265T255 317Q207 344 179 364T131 418T112 499Q112 567 146 614T240 686T373 710ZM353 886H468L543 740H454L404 833L324 740H224Z" unicode="Ŝ"/>
			<glyph d="M296 527Q358 527 442 506L413 405Q348 429 303 429Q262 429 237 415T213 377Q213 359 230 342T287 301Q338 268 362 236T387 162Q387 74 324 31T155 -12Q64 -12 -2 19L27 126Q66 104 95 95T155 86Q197 86 222 101T247 143Q247 168 228 186T160 236Q117 263 95 293T73 363Q73 442 136 484T296 527ZM254 731H369L444 585H355L305 678L225 585H125Z" horiz-adv-x="444" unicode="ŝ"/>
			<glyph d="M373 710Q476 710 553 679L520 564Q488 580 450 590T375 600Q330 600 294 580T258 520Q258 487 282 465T369 406Q428 372 462 330T496 221Q496 116 429 55T236 -11L195 -53L197 -55Q216 -49 241 -49Q278 -49 298 -67T319 -119Q319 -171 274 -196T175 -222Q106 -222 63 -201L83 -147Q105 -154 129 -158T170 -162Q191 -162 206 -152T221 -126Q221 -109 209 -100T181 -91Q164 -91 155 -93T134 -100L117 -74L174 -11Q135 -8 98 1T10 27L46 146Q103 120 143 109T217 98Q273 98 311 126T350 207Q350 242 327 265T255 317Q207 344 179 364T131 418T112 499Q112 567 146 614T240 686T373 710Z" unicode="Ş"/>
			<glyph d="M296 527Q358 527 442 506L413 405Q348 429 303 429Q262 429 237 415T213 377Q213 359 230 342T287 301Q339 268 363 236T387 162Q387 87 338 42T187 -11L146 -53L148 -55Q168 -49 191 -49Q225 -49 247 -66T270 -118Q270 -169 226 -195T123 -222Q56 -222 14 -201L34 -147Q55 -154 80 -158T121 -162Q143 -162 157 -152T172 -126Q172 -109 160 -100T131 -91Q115 -91 105 -93T85 -100L68 -74L125 -11Q54 -7 -2 19L27 126Q66 104 95 95T155 86Q197 86 222 101T247 143Q247 168 228 186T160 236Q117 263 95 292T73 363Q73 444 136 485T296 527Z" horiz-adv-x="444" unicode="ş"/>
			<glyph d="M373 710Q476 710 553 679L520 564Q488 580 450 590T375 600Q330 600 294 580T258 520Q258 487 282 465T369 406Q428 374 462 330T496 221Q496 105 418 46T209 -12Q117 -12 10 27L46 146Q103 120 143 109T217 98Q273 98 311 126T350 207Q350 242 328 265T255 317Q207 344 179 364T131 418T112 499Q112 567 146 614T240 686T373 710ZM253 886H342L392 794L472 886H572L443 740H328Z" unicode="Š"/>
			<glyph d="M296 527Q358 527 442 506L413 405Q348 429 303 429Q262 429 237 415T213 377Q213 359 230 342T287 301Q338 268 362 236T387 162Q387 74 324 31T155 -12Q64 -12 -2 19L27 126Q66 104 95 95T155 86Q197 86 222 101T247 143Q247 168 228 186T160 236Q117 263 95 293T73 363Q73 442 136 484T296 527ZM147 731H236L286 639L366 731H466L337 585H222Z" horiz-adv-x="444" unicode="š"/>
			<glyph d="M108 698H647L624 588H427L300 0H154L281 588H84ZM156 -66H283L193 -222H93Z" unicode="Ţ"/>
			<glyph d="M338 668L305 515H425L404 417H284L237 201Q229 164 229 143Q229 119 243 105T280 92Q316 92 345 104L322 0Q271 -12 250 -12Q95 -12 95 124Q95 149 99 175T113 247L150 417H53L74 515H171L194 621ZM118 -66H245L155 -222H55Z" horiz-adv-x="389" unicode="ţ"/>
			<glyph d="M108 698H647L624 588H427L300 0H154L281 588H84ZM243 886H332L382 794L462 886H562L433 740H318Z" unicode="Ť"/>
			<glyph d="M413 731H523L434 552H362ZM338 668L305 515H425L404 417H284L237 201Q229 164 229 143Q229 119 243 105T280 92Q316 92 345 104L322 0Q271 -12 250 -12Q95 -12 95 124Q95 149 99 175T113 247L150 417H53L74 515H171L194 621Z" horiz-adv-x="398" unicode="ť"/>
			<glyph d="M108 698H647L624 588H427L398 455H554L535 365H379L300 0H154L233 365H81L100 455H252L281 588H84Z" unicode="Ŧ"/>
			<glyph d="M338 668L305 515H425L404 417H284L264 328H363L348 253H248L237 201Q229 164 229 143Q229 119 243 105T280 92Q316 92 345 104L322 0Q309 -4 287 -8T250 -12Q95 -12 95 124Q95 165 114 253H31L46 328H130L150 417H53L74 515H171L194 621Z" horiz-adv-x="389" unicode="ŧ"/>
			<glyph d="M175 698H315L239 344Q223 272 223 227Q223 98 338 98Q398 98 435 125T494 202T532 330L611 698H749L657 280Q624 128 548 58T337 -12Q83 -12 83 209Q83 265 96 324ZM606 886H657Q640 767 539 767Q524 767 506 772T462 790Q448 796 432 801T404 807Q386 807 371 792T354 758H303Q313 816 342 847T419 879Q436 879 455 873T501 856Q538 839 553 839Q575 839 587 849T606 886Z" horiz-adv-x="722" unicode="Ũ"/>
			<glyph d="M125 515H259L209 273Q208 266 201 231T194 165Q194 132 214 112T267 92Q322 92 357 132T413 265L466 515H600L514 116Q497 41 492 0H361L370 50H368Q300 -12 222 -12Q145 -12 99 32T54 153Q54 174 57 194T69 256ZM505 731H556Q539 612 438 612Q422 612 404 617T362 634Q347 641 331 646T303 652Q284 652 269 636T253 603H202Q212 662 241 693T318 724Q335 724 354 718T398 702Q436 684 452 684Q475 684 487 695T505 731Z" horiz-adv-x="611" unicode="ũ"/>
			<glyph d="M175 698H315L239 344Q223 272 223 227Q223 98 338 98Q398 98 435 125T494 202T532 330L611 698H749L657 280Q624 128 548 58T337 -12Q83 -12 83 209Q83 265 96 324ZM343 863H640L625 783H327Z" horiz-adv-x="722" unicode="Ū"/>
			<glyph d="M125 515H259L209 273Q208 266 201 231T194 165Q194 132 214 112T267 92Q322 92 357 132T413 265L466 515H600L514 116Q497 41 492 0H361L370 50H368Q300 -12 222 -12Q145 -12 99 32T54 153Q54 174 57 194T69 256ZM240 698H537L522 618H224Z" horiz-adv-x="611" unicode="ū"/>
			<glyph d="M175 698H315L239 344Q223 272 223 227Q223 98 338 98Q398 98 435 125T494 202T532 330L611 698H749L657 280Q624 128 548 58T337 -12Q83 -12 83 209Q83 265 96 324ZM324 892H386Q392 850 416 831T478 812Q559 812 588 892H650Q640 822 589 781T471 740Q405 740 365 780T324 892Z" horiz-adv-x="722" unicode="Ŭ"/>
			<glyph d="M125 515H259L209 273Q208 266 201 231T194 165Q194 132 214 112T267 92Q322 92 357 132T413 265L466 515H600L514 116Q497 41 492 0H361L370 50H368Q300 -12 222 -12Q145 -12 99 32T54 153Q54 174 57 194T69 256ZM231 729H301Q303 694 325 675T386 656Q427 656 453 673T496 729H568Q550 661 504 622T391 584Q233 584 231 729Z" horiz-adv-x="611" unicode="ŭ"/>
			<glyph d="M175 698H315L239 344Q223 272 223 227Q223 98 338 98Q398 98 435 125T494 202T532 330L611 698H749L657 280Q624 128 548 58T337 -12Q83 -12 83 209Q83 265 96 324ZM474 933Q515 933 547 902T579 828Q579 786 547 755T474 724Q432 724 401 755T370 828Q370 871 401 902T474 933ZM474 879Q453 879 438 864T424 828Q424 807 438 792T474 778Q496 778 510 792T525 828Q525 850 510 864T474 879Z" horiz-adv-x="722" unicode="Ů"/>
			<glyph d="M125 515H259L209 273Q208 266 201 231T194 165Q194 132 214 112T267 92Q322 92 357 132T413 265L466 515H600L514 116Q497 41 492 0H361L370 50H368Q300 -12 222 -12Q145 -12 99 32T54 153Q54 174 57 194T69 256ZM379 792Q422 792 453 760T484 687Q484 645 452 614T379 583Q337 583 306 614T275 687Q275 729 306 760T379 792ZM378 738Q357 738 343 723T329 687Q329 665 343 651T379 637Q401 637 415 651T430 687Q430 708 415 723T378 738Z" horiz-adv-x="611" unicode="ů"/>
			<glyph d="M175 698H315L239 344Q223 272 223 227Q223 98 338 98Q398 98 435 125T494 202T532 330L611 698H749L657 280Q624 128 548 58T337 -12Q83 -12 83 209Q83 265 96 324ZM393 886H526L398 740H312ZM590 886H723L595 740H509Z" horiz-adv-x="722" unicode="Ű"/>
			<glyph d="M125 515H259L209 273Q208 266 201 231T194 165Q194 132 214 112T267 92Q322 92 357 132T413 265L466 515H600L514 116Q497 41 492 0H361L370 50H368Q300 -12 222 -12Q145 -12 99 32T54 153Q54 174 57 194T69 256ZM300 731H433L305 585H219ZM497 731H630L502 585H416Z" horiz-adv-x="611" unicode="ű"/>
			<glyph d="M175 698H315L239 344Q223 272 223 227Q223 98 338 98Q397 98 434 124T493 199T531 324L611 698H749L655 272Q625 134 556 66T373 -11Q316 -46 287 -76T259 -129Q259 -145 268 -153T294 -162Q313 -162 326 -155T355 -134L393 -148Q350 -222 263 -222Q224 -222 198 -205T173 -157Q173 -84 301 -11Q192 -4 137 52T83 208Q83 265 96 324Z" horiz-adv-x="722" unicode="Ų"/>
			<glyph d="M125 515H259L209 273Q208 266 201 231T194 165Q194 132 214 112T267 92Q321 92 357 131T413 265L466 515H600L514 116Q498 42 498 37L492 0H453Q386 -41 353 -73T321 -129Q321 -145 330 -153T356 -162Q374 -162 387 -155T417 -134L455 -148Q412 -222 324 -222Q287 -222 261 -205T235 -158Q235 -122 265 -86T385 0H361L370 50H368Q301 -12 222 -12Q145 -12 99 32T54 153Q54 175 57 195T69 256Z" horiz-adv-x="611" unicode="ų"/>
			<glyph d="M107 698H247L268 163H270L502 698H690L693 163H695L942 698H1087L754 0H579L572 558H570L324 0H151ZM562 886H677L752 740H663L613 833L533 740H433Z" horiz-adv-x="1000" unicode="Ŵ"/>
			<glyph d="M66 515H200L237 128H239L428 515H577L605 128H607L805 515H942L656 0H505L476 394H474L286 0H134ZM476 731H591L666 585H577L527 678L447 585H347Z" horiz-adv-x="889" unicode="ŵ"/>
			<glyph d="M107 698H255L359 405L586 698H749L411 289L350 0H210L271 289ZM395 886H510L585 740H496L446 833L366 740H266Z" horiz-adv-x="667" unicode="Ŷ"/>
			<glyph d="M66 515H203L251 132H253L458 515H605L247 -93Q207 -161 160 -191T51 -222Q4 -222 -49 -208L-19 -106Q12 -118 40 -118Q73 -118 98 -97T157 -25ZM310 731H425L500 585H411L361 678L281 585H181Z" unicode="ŷ"/>
			<glyph d="M107 698H255L359 405L586 698H749L411 289L350 0H210L271 289ZM302 878H416L391 762H277ZM510 878H624L599 762H485Z" horiz-adv-x="667" unicode="Ÿ"/>
			<glyph d="M148 698H627L603 588L182 110H500L477 0H-13L9 110L429 588H124ZM414 886H547L419 740H333Z" unicode="Ź"/>
			<glyph d="M109 515H514L492 411L177 104H435L416 0H-15L6 104L323 411H86ZM341 731H474L346 585H260Z" horiz-adv-x="500" unicode="ź"/>
			<glyph d="M148 698H627L603 588L182 110H500L477 0H-13L9 110L429 588H124ZM360 878H474L449 762H335Z" unicode="Ż"/>
			<glyph d="M109 515H514L492 411L177 104H435L416 0H-15L6 104L323 411H86ZM294 725H408L383 609H269Z" horiz-adv-x="500" unicode="ż"/>
			<glyph d="M148 698H627L603 588L182 110H500L477 0H-13L9 110L429 588H124ZM253 886H342L392 794L472 886H572L443 740H328Z" unicode="Ž"/>
			<glyph d="M109 515H514L492 411L177 104H435L416 0H-15L6 104L323 411H86ZM175 731H264L314 639L394 731H494L365 585H250Z" horiz-adv-x="500" unicode="ž"/>
			<glyph d="M506 710Q556 710 615 694L584 596Q564 606 532 606Q486 606 467 583T438 517L412 406H528L510 326H396L328 13Q309 -75 284 -125T219 -198T110 -222Q63 -222 2 -203L33 -105Q62 -118 84 -118Q129 -118 151 -86T188 12L254 326H136L156 406H273L294 497Q312 576 336 621T401 688T506 710Z" unicode="ƒ"/>
			<glyph d="M373 710Q476 710 553 679L520 564Q488 580 450 590T375 600Q330 600 294 580T258 520Q258 487 282 465T369 406Q428 374 462 330T496 221Q496 105 418 46T209 -12Q117 -12 10 27L46 146Q103 120 143 109T217 98Q273 98 311 126T350 207Q350 242 328 265T255 317Q207 344 179 364T131 418T112 499Q112 567 146 614T240 686T373 710ZM157 -66H284L194 -222H94Z" unicode="Ș"/>
			<glyph d="M296 527Q358 527 442 506L413 405Q348 429 303 429Q262 429 237 415T213 377Q213 359 230 342T287 301Q338 268 362 236T387 162Q387 74 324 31T155 -12Q64 -12 -2 19L27 126Q66 104 95 95T155 86Q197 86 222 101T247 143Q247 168 228 186T160 236Q117 263 95 293T73 363Q73 442 136 484T296 527ZM114 -66H241L151 -222H51Z" horiz-adv-x="444" unicode="ș"/>
			<glyph d="M108 698H647L624 588H427L300 0H154L281 588H84ZM156 -66H283L193 -222H93Z" unicode="Ț"/>
			<glyph d="M338 668L305 515H425L404 417H284L237 201Q229 164 229 143Q229 119 243 105T280 92Q316 92 345 104L322 0Q271 -12 250 -12Q95 -12 95 124Q95 149 99 175T113 247L150 417H53L74 515H171L194 621ZM118 -66H245L155 -222H55Z" horiz-adv-x="389" unicode="ț"/>
			<glyph d="M131 515H265L151 -16Q133 -100 113 -143T64 -204T-14 -222Q-60 -222 -103 -210L-71 -112Q-53 -118 -41 -118Q-20 -118 -8 -101T9 -53Z" horiz-adv-x="278" unicode="ȷ"/>
			<glyph d="M171 731H286L361 585H272L222 678L142 585H42Z" horiz-adv-x="278" unicode="ˆ"/>
			<glyph d="M64 731H153L203 639L283 731H383L254 585H139Z" horiz-adv-x="278" unicode="ˇ"/>
			<glyph d="M69 698H366L351 618H53Z" horiz-adv-x="278" unicode="ˉ"/>
			<glyph d="M65 729H135Q137 694 159 675T220 656Q261 656 287 673T330 729H402Q384 661 338 622T225 584Q67 584 65 729Z" horiz-adv-x="278" unicode="˘"/>
			<glyph d="M161 725H275L250 609H136Z" horiz-adv-x="278" unicode="˙"/>
			<glyph d="M281 792Q324 792 355 760T386 687Q386 645 354 614T281 583Q239 583 208 614T177 687Q177 729 208 760T281 792ZM280 738Q259 738 245 723T231 687Q231 665 245 651T281 637Q303 637 317 651T332 687Q332 708 317 723T280 738Z" horiz-adv-x="278" unicode="˚"/>
			<glyph d="M155 0H223Q153 -43 122 -72T91 -127Q91 -139 98 -150T123 -162Q157 -162 180 -124L228 -144Q184 -222 95 -222Q58 -222 31 -205T5 -155Q5 -113 49 -70T155 0Z" horiz-adv-x="278" unicode="˛"/>
			<glyph d="M339 731H390Q373 612 272 612Q256 612 238 617T196 634Q181 641 165 646T137 652Q118 652 103 636T87 603H36Q46 662 75 693T152 724Q169 724 188 718T232 702Q270 684 286 684Q309 684 321 695T339 731Z" horiz-adv-x="278" unicode="˜"/>
			<glyph d="M115 731H248L120 585H34ZM312 731H445L317 585H231Z" horiz-adv-x="278" unicode="˝"/>
			<glyph d="M367 698H538L649 0H-42ZM431 583L163 103H493L433 582Z" horiz-adv-x="708" unicode="Δ"/>
			<glyph d="M462 710Q550 710 615 673T714 572T749 429Q749 329 694 242T551 110H701L678 0H384L412 110Q471 136 514 185T581 296T604 418Q604 507 564 553T452 600Q387 600 334 564T250 463T220 316Q220 163 310 110L292 0H11L33 110H174Q129 147 104 206T79 333Q79 444 128 530T264 663T462 710Z" horiz-adv-x="774" unicode="Ω"/>
			<glyph d="M127 515H259L210 277Q209 269 201 233T194 165Q194 132 214 112T267 92Q322 92 358 133T413 263L466 515H600L514 116Q503 67 498 37T492 0H361L370 50H368Q300 -12 222 -12Q199 -12 184 -4T158 22L110 -210H-24Z" horiz-adv-x="611" unicode="μ"/>
			<glyph d="M74 515H683L662 417H570L514 154Q510 135 510 120Q510 84 547 84Q566 84 595 96L580 2Q528 -12 496 -12Q430 -12 400 11T371 89Q371 111 379 149L436 417H278L189 0H55L144 417H53Z" horiz-adv-x="656" unicode="π"/>
			<glyph d="M459 711Q510 711 574 707T682 696L660 591Q625 589 590 574T532 535T509 480Q509 455 523 432T576 362Q617 310 636 275T655 196Q655 94 582 41T397 -12Q358 -12 314 -3T234 22L269 141Q300 122 337 110T409 98Q452 98 480 122T509 189Q509 215 496 236T455 289L440 307Q401 353 383 383T365 445Q365 503 407 543T515 600Q477 604 446 604Q368 604 323 564T261 443L167 0H27L126 468Q153 597 237 654T459 711Z" horiz-adv-x="694" unicode="ẞ"/>
			<glyph d="M82 324H345L322 214H59Z" horiz-adv-x="389" unicode="‐"/>
			<glyph d="M18 315H518L498 223H-2Z" horiz-adv-x="500" unicode="–"/>
			<glyph d="M18 315H1018L998 223H-2Z" horiz-adv-x="1000" unicode="—"/>
			<glyph d="M216 698H337L235 448H84Z" horiz-adv-x="278" unicode="‘"/>
			<glyph d="M196 698H347L214 448H94Z" horiz-adv-x="278" unicode="’"/>
			<glyph d="M65 140H216L83 -110H-37Z" horiz-adv-x="278" unicode="‚"/>
			<glyph d="M216 698H337L235 448H84ZM438 698H559L457 448H306Z" horiz-adv-x="500" unicode="“"/>
			<glyph d="M196 698H347L215 448H94ZM418 698H569L437 448H316Z" horiz-adv-x="500" unicode="”"/>
			<glyph d="M65 140H216L83 -110H-37ZM287 140H438L305 -110H185Z" horiz-adv-x="500" unicode="„"/>
			<glyph d="M314 698H438L405 539H558L536 435H383L293 0H169L259 435H109L131 539H281Z" unicode="†"/>
			<glyph d="M315 698H439L409 555H564L544 457H389L345 245H500L480 147H324L293 0H169L200 147H46L66 245H220L265 457H109L129 555H285Z" unicode="‡"/>
			<glyph d="M274 523Q322 523 362 499T425 436T449 349Q449 302 425 262T362 198T274 174Q227 174 187 197T123 261T100 349Q100 395 123 435T186 499T274 523Z" horiz-adv-x="500" unicode="•"/>
			<glyph d="M81 140H221L192 0H52ZM414 140H554L525 0H385ZM747 140H887L858 0H718Z" horiz-adv-x="1000" unicode="…"/>
			<glyph d="M581 720H666L124 -22H39ZM228 710Q284 710 319 678T354 589Q354 491 310 427T183 364Q118 364 86 393T54 488Q54 545 73 596T132 678T228 710ZM223 638Q196 638 179 611T154 549T146 486Q146 463 154 449T185 436Q216 436 233 468T256 536T262 591Q262 638 223 638ZM524 334Q579 334 614 301T650 213Q650 115 606 51T479 -12Q414 -12 382 17T350 112Q350 169 369 219T428 302T524 334ZM859 334Q915 334 950 300T985 213Q985 114 941 51T814 -12Q750 -12 717 17T685 112Q685 169 704 220T763 302T859 334ZM519 262Q492 262 475 235T450 173T442 110Q442 87 450 73T481 60Q512 60 529 92T552 160T558 215Q558 262 519 262ZM854 262Q827 262 810 235T785 173T777 110Q777 87 785 73T816 60Q847 60 864 92T887 160T893 215Q893 262 854 262Z" horiz-adv-x="1000" unicode="‰"/>
			<glyph d="M196 474H336L178 269L248 64H133L46 269Z" horiz-adv-x="389" unicode="‹"/>
			<glyph d="M141 474H256L343 269L193 64H53L211 269Z" horiz-adv-x="389" unicode="›"/>
			<glyph d="M252 720H337L-83 -22H-168Z" horiz-adv-x="167" unicode="⁄"/>
			<glyph d="M528 710Q619 710 688 683L640 579Q620 590 589 596T527 603Q453 603 389 561T287 449H583L555 388H258Q247 352 242 310H521L494 249H245Q253 178 299 138T419 98Q488 98 542 120L525 8Q462 -12 376 -12Q246 -12 170 57T95 249H-4L24 310H99Q105 353 115 388H25L53 449H138Q191 568 297 639T528 710Z" unicode="€"/>
			<glyph d="M139 698H638L621 618H466Q492 599 492 556H608L591 476H479Q455 384 398 348T239 313H204L405 0H237L55 307L75 400H184Q232 400 261 404T312 424T345 476H91L108 556H358Q358 593 327 605T246 617H122Z" unicode="₹"/>
			<glyph d="M208 698H348L324 589L517 661L499 572L306 500L291 431L484 503L466 414L273 342L220 97H238Q294 97 327 127T379 203T421 337L427 358H561Q540 240 501 160T391 36T213 -8Q143 -8 60 0L121 286L20 249L39 339L140 376L154 445L53 408L71 496L172 533Z" unicode="₺"/>
			<glyph d="M452 698H585L558 573Q670 556 723 458T776 227Q776 189 772 144T762 63L751 0H613L624 54Q632 93 637 145T642 237Q642 330 620 392T536 469L451 70H318L403 469Q336 455 281 384T191 220T138 43L129 0H-9L4 63Q29 185 86 298T230 487T425 573Z" horiz-adv-x="827" unicode="₼"/>
			<glyph d="M198 698H337Q469 698 532 658T596 517Q596 403 521 345T322 287H251L238 227H404L385 139H219L190 0H50L79 139H-9L10 227H98L110 287H23L42 375H129ZM316 594L270 375H321Q389 375 426 407T463 505Q463 552 436 573T353 594Z" unicode="₽"/>
			<glyph d="M368 721Q417 721 448 689T479 608Q479 450 229 270L212 196Q198 132 198 112Q198 87 210 74T246 61Q269 61 292 70T347 102L373 42Q332 13 295 0T218 -14Q158 -14 127 16T96 92Q96 104 102 134L116 203L50 150L20 208L134 291L186 537Q204 624 251 672T368 721ZM357 653Q311 653 291 559L248 361Q316 422 355 486T395 603Q395 624 385 638T357 653Z" horiz-adv-x="500" unicode="ℓ"/>
			<glyph d="M72 698H410V618H293V282H189V618H72ZM489 698H634L733 438L831 698H976V282H878V576H876L770 282H695L589 576H587V282H489Z" horiz-adv-x="1000" unicode="™"/>
			<glyph d="M462 710Q550 710 615 673T714 572T749 429Q749 329 694 242T551 110H701L678 0H384L412 110Q471 136 514 185T581 296T604 418Q604 507 564 553T452 600Q387 600 334 564T250 463T220 316Q220 163 310 110L292 0H11L33 110H174Q129 147 104 206T79 333Q79 444 128 530T264 663T462 710Z" horiz-adv-x="774" unicode="Ω"/>
			<glyph d="M302 535Q376 535 435 501T527 404T561 259H157V78Q216 19 302 19Q366 19 412 48T495 139L530 118Q483 44 430 13T302 -17Q226 -17 167 19T76 118T44 259Q44 335 75 398T165 498T302 535ZM300 500Q217 500 157 440V295H448V440Q385 500 300 500Z" horiz-adv-x="600" unicode="℮"/>
			<glyph d="M362 785Q457 785 512 717T567 534Q567 434 524 305T395 84T188 -8Q110 -8 69 41T28 168Q28 242 64 316T163 439T305 487Q351 487 386 464T436 405H437Q438 410 446 443T454 515Q454 593 420 640T327 688Q255 688 186 641L171 728Q257 785 362 785ZM306 393Q264 393 227 360T167 279T145 184Q145 140 164 115T221 90Q274 90 325 154T404 305Q400 340 373 366T306 393Z" horiz-adv-x="567" unicode="∂"/>
			<glyph d="M367 698H538L649 0H-42ZM431 583L163 103H493L433 582Z" horiz-adv-x="708" unicode="∆"/>
			<glyph d="M63 786H674V-214H566V688H170V-214H63Z" horiz-adv-x="737" unicode="∏"/>
			<glyph d="M38 786H605V688H181L460 292L163 -117H618V-214H25V-128L331 291L38 702Z" horiz-adv-x="643" unicode="∑"/>
			<glyph d="M61 305H569V201H61Z" horiz-adv-x="600" unicode="−"/>
			<glyph d="M252 720H337L-83 -22H-168Z" horiz-adv-x="167" unicode="∕"/>
			<glyph d="M157 361Q188 361 211 338T234 284Q234 253 211 230T157 207Q126 207 103 230T80 284Q80 315 103 338T157 361Z" horiz-adv-x="278" unicode="∙"/>
			<glyph d="M408 786H518L307 -214H206L52 105L2 82L-37 167L105 232L238 -49Z" horiz-adv-x="531" unicode="√"/>
			<glyph d="M560 437Q610 437 647 413T704 350T724 262Q724 182 678 132T559 83Q512 83 465 109T366 195Q310 136 268 110T174 85Q99 85 53 134T7 260Q7 337 53 386T171 436Q220 436 265 410T366 318Q420 382 466 409T560 437ZM558 345Q524 345 495 323T421 257Q497 175 561 175Q595 175 616 198T638 259Q638 298 616 321T558 345ZM169 344Q135 344 114 319T93 259Q93 222 114 199T174 176Q205 176 242 198T311 258Q227 344 169 344Z" horiz-adv-x="806" unicode="∞"/>
			<glyph d="M369 786Q407 786 440 767T474 713Q474 693 459 678T423 664Q400 664 390 674T375 697T368 714Q361 729 352 729Q343 729 338 721T333 692Q333 654 333 637T334 597T335 532V-15Q335 -115 301 -164T195 -214Q152 -214 122 -194T93 -142Q93 -121 106 -107T141 -93Q165 -93 175 -105T195 -143Q202 -160 211 -160Q231 -160 231 -127Q227 -41 227 -21V584Q227 687 261 736T369 786Z" horiz-adv-x="600" unicode="∫"/>
			<glyph d="M146 445Q173 445 204 436T280 411Q323 395 352 386T405 378Q455 378 469 444H537Q529 363 491 320T392 277Q363 277 328 287T244 316Q199 332 175 339T135 346Q111 346 94 328T70 277H2Q10 357 48 401T146 445ZM146 242Q173 242 204 233T280 208Q323 192 352 183T405 175Q455 175 469 241H537Q529 160 491 117T392 74Q363 74 328 84T244 113Q199 129 176 136T135 143Q111 143 94 125T70 74H2Q10 154 48 198T146 242Z" horiz-adv-x="593" unicode="≈"/>
			<glyph d="M372 571L460 526L406 419H528V318H354L294 201H528V99H243L166 -53L77 -7L131 99H9V201H183L243 318H9V419H294Z" horiz-adv-x="593" unicode="≠"/>
			<glyph d="M528 554V447L147 324L528 207V100L9 272V375ZM9 66H528V-35H9Z" horiz-adv-x="593" unicode="≤"/>
			<glyph d="M9 554L528 375V272L9 100V207L390 324L9 447ZM9 66H528V-35H9Z" horiz-adv-x="593" unicode="≥"/>
			<glyph d="M248 747H343L520 356L343 -35H248L72 355ZM295 646L176 356L295 65L417 356Z" horiz-adv-x="593" unicode="◊"/>
			<glyph d="M102 886H235L316 740H231Z" horiz-adv-x="278" unicode=""/>
			<glyph d="M263 886H396L268 740H182Z" horiz-adv-x="278" unicode=""/>
			<glyph d="M211 886H326L401 740H312L262 833L182 740H82Z" horiz-adv-x="278" unicode=""/>
			<glyph d="M110 886H199L249 794L329 886H429L300 740H185Z" horiz-adv-x="278" unicode=""/>
			<glyph d="M379 886H430Q413 767 312 767Q297 767 279 772T235 790Q221 796 205 801T177 807Q159 807 144 792T127 758H76Q86 816 115 847T192 879Q209 879 228 873T274 856Q311 839 326 839Q348 839 360 849T379 886Z" horiz-adv-x="278" unicode=""/>
			<glyph d="M106 878H220L195 762H81ZM314 878H428L403 762H289Z" horiz-adv-x="278" unicode=""/>
			<glyph d="M111 863H408L393 783H95Z" horiz-adv-x="278" unicode=""/>
			<glyph d="M107 892H169Q175 850 199 831T261 812Q342 812 371 892H433Q423 822 372 781T254 740Q188 740 148 780T107 892Z" horiz-adv-x="278" unicode=""/>
			<glyph d="M261 933Q302 933 334 902T366 828Q366 786 334 755T261 724Q219 724 188 755T157 828Q157 871 188 902T261 933ZM261 879Q240 879 225 864T211 828Q211 807 225 792T261 778Q283 778 297 792T312 828Q312 850 297 864T261 879Z" horiz-adv-x="278" unicode=""/>
			<glyph d="M155 886H288L160 740H74ZM352 886H485L357 740H271Z" horiz-adv-x="278" unicode=""/>
			<glyph d="M200 878H314L289 762H175Z" horiz-adv-x="278" unicode=""/>
			<glyph d="M136 731H251L152 532H78Z" horiz-adv-x="278" unicode=""/>
			<glyph d="M22 -66H149L59 -222H-41Z" horiz-adv-x="278" unicode=""/>
			<glyph d="M214 731H311L251 585H129Z" horiz-adv-x="278" unicode=""/>
			<glyph d="M0 718H512V0H0ZM50 667V50H462V667ZM259 609Q313 609 348 573T383 478Q383 442 369 416T319 357Q289 329 281 314T272 270L271 234H225Q225 236 224 244T223 264Q223 301 233 325T276 385L292 402Q313 422 322 437T332 474Q332 510 309 534T256 559Q222 559 201 535T174 464L124 472Q130 538 165 573T259 609ZM222 184H278V117H222Z" horiz-adv-x="512" unicode=""/>
			<glyph d="M405 762Q447 762 488 749L457 649Q439 658 416 658Q377 658 354 627T319 544L312 515H432L411 417H291L203 0H69L157 417H53L74 515H178L183 538Q207 650 258 706T405 762ZM570 737H704L676 609H542ZM521 515H655L545 0H411Z" horiz-adv-x="667" unicode="ﬁ"/>
			<glyph d="M405 762Q447 762 488 749L457 649Q439 658 416 658Q377 658 354 627T319 544L312 515H432L411 417H291L203 0H69L157 417H53L74 515H178L183 538Q207 650 258 706T405 762ZM570 750H704L545 0H411Z" horiz-adv-x="667" unicode="ﬂ"/>
		</font>
</defs>
</svg>
