<?xml version="1.0" encoding="UTF-8"?>
<svg height="100%" width="100%" xmlns="http://www.w3.org/2000/svg">
	<defs>
		<font horiz-adv-x="611" id="web">
			<font-face alphabetic="0" ascent="961" descent="-250" font-family="" panose-1="2 11 8 3 3 5 4 9 2 4"/>
			<missing-glyph d="M0 718H512V0H0ZM50 667V50H462V667ZM259 609Q313 609 348 573T383 478Q383 442 369 416T319 357Q289 329 281 314T272 270L271 234H225Q225 236 224 244T223 264Q223 301 233 325T276 385L292 402Q313 422 322 437T332 474Q332 510 309 534T256 559Q222 559 201 535T174 464L124 472Q130 538 165 573T259 609ZM222 184H278V117H222Z" horiz-adv-x="512"/>
			<glyph d="" horiz-adv-x="306" unicode=" "/>
			<glyph d="M229 698H415L291 229H153ZM123 162H292L258 0H89Z" horiz-adv-x="444" unicode="!"/>
			<glyph d="M213 698H345V427H213ZM408 698H540V427H408Z" unicode="&quot;"/>
			<glyph d="M232 698H338L312 513H399L424 698H529L504 513H583L573 405H489L474 295H553L543 187H459L433 0H328L354 187H267L241 0H135L161 187H77L87 295H176L191 405H107L117 513H206ZM297 405L282 295H369L384 405Z" horiz-adv-x="612" unicode="#"/>
			<glyph d="M388 830H516L488 707Q578 701 625 679L580 540Q512 572 426 572Q362 572 327 558T292 505Q292 478 316 461T397 423Q448 403 482 381T540 323T563 231Q563 128 499 70T324 -5L299 -130H171L195 -11Q108 -7 6 24L50 166Q80 147 129 136T222 126Q294 126 332 147T371 209Q371 242 343 261T252 304Q177 333 138 370T100 477Q100 579 168 638T360 708Z" horiz-adv-x="612" unicode="$"/>
			<glyph d="M741 720H851L311 -22H201ZM316 710Q391 710 433 668T475 552Q475 493 451 442T382 361T275 331Q202 331 161 373T120 486Q120 546 143 597T212 679T316 710ZM314 620Q292 620 276 591T253 525T246 467Q246 449 253 435T276 421Q299 421 315 446T340 506T349 565Q349 587 343 603T314 620ZM772 367Q847 367 889 325T931 209Q931 150 907 99T838 18T731 -12Q658 -12 617 30T576 143Q576 203 599 254T667 336T772 367ZM770 277Q747 277 732 248T709 182T702 124Q702 106 709 92T732 78Q755 78 771 103T796 163T805 222Q805 244 799 260T770 277Z" horiz-adv-x="1000" unicode="%"/>
			<glyph d="M402 710Q496 710 558 667T620 542Q620 479 571 429T431 352Q486 291 535 225Q567 252 588 291T619 377H762Q749 298 711 230T616 125L718 0H528L497 41Q464 16 409 2T287 -12Q176 -12 109 39T43 194Q43 270 90 320T222 391Q190 421 175 453T160 525Q160 584 196 626T287 689T402 710ZM399 600Q363 600 339 581T316 529Q316 508 327 484T359 441Q410 455 440 480T470 537Q470 566 450 583T399 600ZM295 296Q205 256 205 186Q205 149 231 128T306 108Q339 108 367 116T425 141Q412 158 351 230Q325 259 295 296Z" horiz-adv-x="778" unicode="&amp;"/>
			<glyph d="M159 698H291V427H159Z" horiz-adv-x="333" unicode="'"/>
			<glyph d="M365 756H501Q246 498 246 175Q246 10 315 -140H179Q129 -42 106 38T84 197Q84 363 153 502T365 756Z" horiz-adv-x="389" unicode="("/>
			<glyph d="M132 756H268Q317 659 340 577T363 418Q363 252 293 114T82 -140H-54Q201 119 201 441Q201 607 132 756Z" horiz-adv-x="389" unicode=")"/>
			<glyph d="M329 698L449 677L401 537L541 573L557 456H412L486 339L381 290L338 425L238 307L158 395L283 480L145 533L204 638L325 548Z" unicode="*"/>
			<glyph d="M252 506H378V316H568V190H378V0H252V190H62V316H252Z" horiz-adv-x="600" unicode="+"/>
			<glyph d="M54 162H232L83 -109H-61Z" horiz-adv-x="306" unicode=","/>
			<glyph d="M56 335H327L300 203H30Z" horiz-adv-x="333" unicode="-"/>
			<glyph d="M54 162H223L189 0H20Z" horiz-adv-x="306" unicode="."/>
			<glyph d="M196 710H322L128 -12H2Z" horiz-adv-x="278" unicode="/"/>
			<glyph d="M389 710Q501 710 562 645T624 457Q624 325 584 218T469 50T291 -12Q179 -12 117 53T56 242Q56 367 95 474T209 645T389 710ZM391 584Q337 584 300 511T244 347T226 203Q226 156 243 135T294 114Q331 114 361 151T414 257Q434 319 444 387T454 494Q454 545 435 564T391 584Z" horiz-adv-x="624" unicode="0"/>
			<glyph d="M328 698H489L342 0H156L274 514L136 420L68 547Z" horiz-adv-x="454" unicode="1"/>
			<glyph d="M338 710Q439 710 506 659T573 510Q573 399 481 301Q443 261 399 227T267 134V132H513L486 0H-16L6 121Q35 140 134 212L158 229Q248 293 296 335T366 410T387 474Q387 520 361 546T289 572Q250 572 206 558T120 521L138 679Q238 710 338 710Z" horiz-adv-x="577" unicode="2"/>
			<glyph d="M340 710Q441 710 512 667T583 536Q583 460 533 411T399 354V352Q466 337 496 301T526 209Q526 97 437 42T211 -12Q149 -12 89 0T-13 32L22 166Q68 145 112 135T204 126Q263 126 301 149T340 221Q340 261 310 278T224 295Q186 295 156 292L181 419Q201 415 252 415Q397 415 397 497Q397 533 367 552T283 572Q247 572 203 563T124 540L142 685Q191 697 245 703T340 710Z" horiz-adv-x="566" unicode="3"/>
			<glyph d="M399 698H606L511 259H609L584 133H484L455 0H280L308 133H3L24 259ZM412 554L175 259H343L414 554Z" horiz-adv-x="618" unicode="4"/>
			<glyph d="M167 698H623L600 572H300L278 460Q412 460 480 406T549 249Q549 169 502 109T381 19T225 -12Q174 -12 117 0T19 29L47 166Q114 126 205 126Q273 126 318 154T363 239Q363 288 326 314T221 340Q192 340 155 336T88 325Z" horiz-adv-x="581" unicode="5"/>
			<glyph d="M429 710Q481 710 532 697T627 658L584 533Q552 555 512 566T434 578Q360 578 314 536T249 407L251 405Q300 444 370 444Q460 444 514 388T569 236Q569 161 537 105T447 18T313 -12Q193 -12 125 56T57 246Q57 378 97 482T221 648T429 710ZM320 324Q272 324 245 287T219 205Q219 161 240 134T304 108Q349 108 374 146T399 231Q399 272 378 298T320 324Z" horiz-adv-x="605" unicode="6"/>
			<glyph d="M129 698H636L602 540L248 0H36L414 566H102Z" horiz-adv-x="579" unicode="7"/>
			<glyph d="M371 710Q477 710 545 664T613 529Q613 484 589 446T527 384T443 351V350Q562 309 562 196Q562 152 539 104T454 22T288 -12Q218 -12 158 11T64 76T29 172Q29 242 68 290T198 369Q155 389 131 425T107 502Q107 566 140 613T233 685T371 710ZM367 590Q333 590 305 565T277 510Q277 461 336 416Q389 435 416 462T443 520Q443 556 420 573T367 590ZM309 301Q257 284 228 254T199 188Q199 156 224 135T290 114Q333 114 362 139T392 203Q392 236 370 259T309 301Z" horiz-adv-x="599" unicode="8"/>
			<glyph d="M330 710Q450 710 518 642T586 452Q586 318 545 213T420 48T215 -12Q104 -12 16 40L59 165Q91 143 130 131T209 120Q284 120 329 162T394 291L392 293Q343 254 273 254Q183 254 128 310T74 462Q74 536 105 592T195 679T330 710ZM339 590Q294 590 269 552T244 467Q244 425 265 399T322 374Q372 374 398 411T424 493Q424 535 403 562T339 590Z" horiz-adv-x="585" unicode="9"/>
			<glyph d="M129 521H298L264 359H95ZM54 162H223L189 0H20Z" horiz-adv-x="306" unicode=":"/>
			<glyph d="M129 521H298L264 359H95ZM54 162H232L83 -109H-61Z" horiz-adv-x="306" unicode=";"/>
			<glyph d="M568 514V392L227 253L568 114V-8L62 200V306Z" horiz-adv-x="600" unicode="&lt;"/>
			<glyph d="M62 431H568V305H62ZM62 201H568V75H62Z" horiz-adv-x="600" unicode="="/>
			<glyph d="M62 514L568 306V200L62 -8V114L403 253L62 392Z" horiz-adv-x="600" unicode="&gt;"/>
			<glyph d="M306 710Q367 710 424 694T521 641T560 545Q560 488 533 444T452 358Q388 307 365 281T332 224H190Q194 273 219 314T292 396Q340 437 360 463T380 518Q380 534 366 549T327 574T272 584Q238 584 195 574T117 549L138 686Q186 697 226 703T306 710ZM165 162H334L300 0H131Z" horiz-adv-x="556" unicode="?"/>
			<glyph d="M418 710Q510 710 589 674T715 572T763 417Q763 321 716 257T609 166T508 139Q487 139 472 151T457 188H455Q436 166 409 152T354 139Q313 139 277 164T221 233T200 332Q200 385 224 431T291 505T390 533Q469 533 510 476L519 523H613L580 320Q569 263 569 256Q569 240 582 240Q603 240 622 256T654 307T667 391Q667 499 603 556T411 614Q332 614 273 579T182 483T151 347Q151 224 223 154T422 84Q539 84 613 137H715Q661 64 587 26T424 -12Q315 -12 226 35T87 164T37 349Q37 450 86 532T222 662T418 710ZM401 437Q360 437 334 405T308 331Q308 289 330 262T392 235Q434 235 459 265T485 344Q485 384 462 410T401 437Z" horiz-adv-x="800" unicode="@"/>
			<glyph d="M374 698H608L722 0H534L515 149H244L161 0H-41ZM465 554L317 281H497L467 554Z" horiz-adv-x="778" unicode="A"/>
			<glyph d="M161 698H467Q555 698 611 657T668 538Q668 468 618 419T485 361V359Q549 349 584 313T620 224Q620 121 537 60T292 0H15ZM318 566L288 422H358Q415 422 448 443T482 501Q482 534 458 550T374 566ZM261 296L227 132H279Q354 132 394 155T434 226Q434 265 408 280T314 296Z" horiz-adv-x="667" unicode="B"/>
			<glyph d="M491 710Q638 710 737 673L693 530Q655 552 613 562T520 572Q431 572 371 535T284 438T257 308Q257 221 307 173T449 126Q549 126 625 165L605 15Q570 3 518 -4T419 -12Q310 -12 230 28T107 141T65 313Q65 429 116 519T265 659T491 710Z" horiz-adv-x="667" unicode="C"/>
			<glyph d="M163 698H407Q573 698 667 627T761 417Q761 215 646 107T317 0H15ZM321 560L233 138H316Q399 138 456 174T541 272T569 405Q569 483 523 521T374 560Z" horiz-adv-x="778" unicode="D"/>
			<glyph d="M165 698H656L629 566H322L290 422H581L552 290H262L228 132H547L520 0H15Z" unicode="E"/>
			<glyph d="M153 698H620L594 566H310L275 413H549L522 281H252L193 0H5Z" horiz-adv-x="556" unicode="F"/>
			<glyph d="M527 710Q588 710 643 701T761 676L721 534Q677 554 628 563T520 572Q432 572 372 535T285 439T257 308Q257 219 306 172T431 126Q466 126 505 138L536 276H425L452 408H745L662 19Q620 6 548 -3T419 -12Q310 -12 230 28T107 141T65 313Q65 502 184 606T527 710Z" horiz-adv-x="778" unicode="G"/>
			<glyph d="M160 698H347L292 431H513L568 698H755L610 0H423L485 299H264L202 0H15Z" horiz-adv-x="722" unicode="H"/>
			<glyph d="M168 698H356L211 0H23Z" horiz-adv-x="333" unicode="I"/>
			<glyph d="M294 698H483L376 208Q360 133 334 86T257 14T116 -12Q72 -12 41 -6T-33 11L5 162Q44 144 88 144Q135 144 162 173T203 272Z" horiz-adv-x="444" unicode="J"/>
			<glyph d="M162 698H350L290 413H292L544 698H785L453 359L659 0H444L272 317H270L203 0H15Z" horiz-adv-x="722" unicode="K"/>
			<glyph d="M160 698H349L233 138H525L496 0H15Z" horiz-adv-x="556" unicode="L"/>
			<glyph d="M158 698H450L461 229H463L682 698H980L832 0H650L777 572H775L501 0H325L299 572H297L176 0H6Z" horiz-adv-x="944" unicode="M"/>
			<glyph d="M162 698H395L538 214H540L638 698H814L666 0H434L288 483H286L189 0H13Z" horiz-adv-x="778" unicode="N"/>
			<glyph d="M463 710Q566 710 635 672T739 570T773 424Q773 288 725 190T585 40T365 -12Q263 -12 193 24T89 125T55 273Q55 408 102 506T241 657T463 710ZM450 572Q385 572 339 528T270 419T247 287Q247 210 280 168T377 126Q445 126 491 170T559 280T581 410Q581 484 549 528T450 572Z" horiz-adv-x="778" unicode="O"/>
			<glyph d="M153 698H346Q434 698 497 685T603 630T646 507Q646 424 605 364T494 274T334 244H241L189 0H3ZM309 566L269 376H317Q393 376 426 406T460 485Q460 528 437 547T362 566Z" unicode="P"/>
			<glyph d="M463 710Q568 710 637 672T740 569T773 425Q773 279 716 174T548 22L680 -132H462L384 -12H370Q224 -12 139 62T55 273Q55 405 101 503T239 655T463 710ZM450 572Q385 572 339 528T270 419T247 287Q247 211 279 168T377 126Q443 126 489 169T558 278T581 410Q581 485 549 528T450 572Z" horiz-adv-x="778" unicode="Q"/>
			<glyph d="M162 698H402Q546 698 612 658T678 520Q678 366 475 341V339Q530 334 553 236L608 0H422L385 184Q376 230 367 247T339 270T275 276H258L202 0H15ZM317 566L285 408H348Q492 408 492 494Q492 533 468 549T402 566Z" horiz-adv-x="667" unicode="R"/>
			<glyph d="M415 710Q483 710 540 701T628 679L583 540Q515 572 429 572Q365 572 330 557T295 505Q295 478 319 461T400 423Q451 403 485 381T543 323T566 231Q566 106 473 47T226 -12Q175 -12 117 -2T9 24L53 166Q83 147 132 136T225 126Q297 126 335 147T374 209Q374 242 346 261T255 304Q180 333 141 370T103 477Q103 589 185 649T415 710Z" unicode="S"/>
			<glyph d="M109 698H646L616 560H442L323 0H134L253 560H79Z" horiz-adv-x="556" unicode="T"/>
			<glyph d="M157 698H346L256 275Q249 242 249 227Q249 182 275 154T348 126Q408 126 442 172T496 311L580 698H765L691 345Q665 221 628 145T523 29T343 -12Q210 -12 136 41T63 209Q63 274 78 340Z" horiz-adv-x="722" unicode="U"/>
			<glyph d="M105 698H292L339 170H341L611 698H812L426 0H196Z" horiz-adv-x="722" unicode="V"/>
			<glyph d="M109 698H293L269 162H271L478 698H716L700 162H702L902 698H1090L791 0H551L565 548H563L353 0H113Z" horiz-adv-x="1000" unicode="W"/>
			<glyph d="M127 698H330L404 476L567 698H793L513 365L667 0H464L377 250L188 0H-38L270 370Z" horiz-adv-x="722" unicode="X"/>
			<glyph d="M108 698H304L391 417L584 698H813L461 258L407 0H217L271 258Z" horiz-adv-x="722" unicode="Y"/>
			<glyph d="M137 698H675L644 550L241 138H560L534 0H-18L14 148L410 560H109Z" unicode="Z"/>
			<glyph d="M236 756H501L478 646H363L223 -30H338L315 -140H50Z" horiz-adv-x="444" unicode="["/>
			<glyph d="M2 710H128L322 -12H196Z" horiz-adv-x="278" unicode="\"/>
			<glyph d="M160 756H425L239 -140H-26L-3 -30H112L252 646H137Z" horiz-adv-x="444" unicode="]"/>
			<glyph d="M284 698H396L570 333H448L340 560L232 333H110Z" horiz-adv-x="600" unicode="^"/>
			<glyph d="M0 -75H500V-125H0Z" horiz-adv-x="500" unicode="_"/>
			<glyph d="M28 729H244L348 585H222Z" horiz-adv-x="278" unicode="`"/>
			<glyph d="M345 533Q453 533 512 487T572 356Q572 327 565 291T533 148Q515 68 506 0H359L367 73H365Q340 33 294 10T189 -12Q105 -12 60 26T16 139Q16 198 51 241T152 307T304 330Q336 330 400 325Q402 331 402 345Q402 374 375 393T304 413Q258 413 219 403T137 372L155 503Q204 520 249 526T345 533ZM326 234Q259 234 222 212T186 160Q186 140 203 124T247 108Q299 108 335 140T383 231Q368 234 326 234Z" unicode="a"/>
			<glyph d="M159 750H336L271 458H273Q344 533 441 533Q530 533 582 473T635 317Q635 228 604 153T512 33T361 -12Q227 -12 180 98H178L152 0H-15Q0 41 23 141ZM362 395Q323 395 292 370T244 307T227 232Q227 185 250 155T313 126Q353 126 384 148T432 208T449 288Q449 339 426 367T362 395Z" horiz-adv-x="667" unicode="b"/>
			<glyph d="M367 533Q402 533 447 523T532 498L493 373Q432 401 377 401Q304 401 261 356T218 233Q218 185 252 152T343 120Q375 120 401 125T458 143L432 8Q372 -12 279 -12Q204 -12 148 20T62 106T32 226Q32 311 74 381T193 492T367 533Z" horiz-adv-x="500" unicode="c"/>
			<glyph d="M542 750H719L580 82Q572 48 568 0H403L417 83H415Q375 30 331 9T227 -12Q171 -12 126 17T57 95T32 204Q32 295 63 370T153 489T296 533Q360 533 407 507T477 437H479ZM353 395Q314 395 283 372T235 312T218 233Q218 183 240 154T304 126Q343 126 374 151T423 214T440 289Q440 332 418 363T353 395Z" horiz-adv-x="667" unicode="d"/>
			<glyph d="M344 533Q458 533 521 473T584 307Q584 286 579 255T571 208H202Q203 160 235 134T341 108Q381 108 425 117T505 144L482 17Q386 -12 300 -12Q221 -12 160 17T65 101T32 231Q32 291 63 362T166 483T344 533ZM345 413Q294 413 259 384T213 310H434Q434 357 412 385T345 413Z" unicode="e"/>
			<glyph d="M409 762Q487 762 542 746L508 623Q475 636 451 636Q417 636 397 614T368 552L361 521H495L467 395H335L253 0H73L157 395H44L72 521H181L195 587Q213 671 268 716T409 762Z" horiz-adv-x="444" unicode="f"/>
			<glyph d="M311 533Q377 533 424 505T491 426H493L516 521H683Q657 427 640 352L571 45Q548 -61 510 -118T409 -198T236 -222Q184 -222 137 -214T32 -189L67 -49Q106 -71 143 -80T227 -90Q286 -90 322 -72T381 -16T417 89L415 91Q384 47 340 23T245 0Q142 0 87 64T32 237Q32 318 67 385T165 493T311 533ZM347 395Q306 395 276 371T232 310T218 234Q218 192 244 165T312 138Q355 138 384 163T429 226T444 301Q444 342 419 368T347 395Z" horiz-adv-x="667" unicode="g"/>
			<glyph d="M165 750H347L283 445H285Q318 488 364 510T466 533Q540 533 584 484T628 353Q628 327 625 308T619 270T614 243L566 0H380L430 244Q442 298 442 323Q442 349 425 366T375 383Q322 383 287 347T240 250L187 0H7Z" horiz-adv-x="667" unicode="h"/>
			<glyph d="M180 738H362L334 606H152ZM134 521H316L208 0H26Z" horiz-adv-x="333" unicode="i"/>
			<glyph d="M180 738H362L334 606H152ZM134 521H316L208 2Q191 -79 165 -127T91 -198T-34 -222Q-75 -222 -122 -207L-93 -92Q-73 -102 -45 -102Q-17 -102 -2 -81T25 -3Z" horiz-adv-x="333" unicode="j"/>
			<glyph d="M168 750H350L254 302H256L429 521H634L419 270L554 0H354L247 258H245L190 0H7Z" unicode="k"/>
			<glyph d="M182 750H364L208 0H26Z" horiz-adv-x="333" unicode="l"/>
			<glyph d="M436 533Q485 533 524 505T573 427Q607 478 655 505T759 533Q829 533 875 495T921 377Q921 317 909 261L855 0H675L726 248Q737 299 737 329Q737 383 679 383Q636 383 611 346T572 240L521 0H341L392 248Q403 299 403 329Q403 383 345 383Q301 383 276 346T238 240L187 0H7L86 375Q104 464 110 521H270L250 426L252 427Q285 476 333 504T436 533Z" horiz-adv-x="944" unicode="m"/>
			<glyph d="M465 533Q541 533 584 483T628 353Q628 324 625 302T614 243L566 0H380L430 244Q432 253 437 278T442 323Q442 346 427 364T375 383Q317 383 283 341T240 249L187 0H7L86 376Q103 457 110 521H277L263 436H265Q311 488 358 510T465 533Z" horiz-adv-x="667" unicode="n"/>
			<glyph d="M368 533Q449 533 510 504T605 423T639 299Q639 150 551 69T303 -12Q171 -12 101 51T32 227Q32 317 73 386T191 494T368 533ZM358 407Q318 407 286 381T236 315T218 230Q218 179 243 146T314 114Q383 114 418 166T453 301Q453 352 428 379T358 407Z" horiz-adv-x="667" unicode="o"/>
			<glyph d="M441 533Q530 533 582 473T635 317Q635 228 604 153T512 33T361 -12Q305 -12 264 11T193 87L127 -210H-55L87 429Q98 477 101 521H266L252 438H254Q294 486 342 509T441 533ZM362 395Q324 395 293 370T244 307T227 232Q227 188 249 157T313 126Q354 126 385 149T432 209T449 288Q449 339 426 367T362 395Z" horiz-adv-x="667" unicode="p"/>
			<glyph d="M296 533Q368 533 414 504T485 411H487L515 521H682Q663 468 650 405L521 -210H339L396 62H394Q360 26 317 7T227 -12Q172 -12 127 17T57 95T32 204Q32 291 61 366T150 487T296 533ZM353 395Q314 395 283 372T235 312T218 233Q218 183 240 154T304 126Q343 126 374 151T423 214T440 289Q440 333 418 364T353 395Z" horiz-adv-x="667" unicode="q"/>
			<glyph d="M420 533Q465 533 496 520L455 361Q438 374 418 378T373 383Q321 383 287 346T240 249L187 0H7L86 376Q104 458 110 521H277L257 414H259Q286 469 328 501T420 533Z" horiz-adv-x="444" unicode="r"/>
			<glyph d="M327 533Q362 533 408 525T500 502L462 384Q392 413 318 413Q277 413 255 401T234 368Q234 353 253 341T323 312Q397 285 428 255T459 183Q459 92 390 40T203 -12Q156 -12 101 -5T-4 15L32 138Q101 108 178 108Q227 108 253 119T279 154Q279 175 258 186T185 216Q121 239 92 273T64 362Q64 416 100 455T196 513T327 533Z" horiz-adv-x="500" unicode="s"/>
			<glyph d="M389 684L353 521H479L452 395H326L285 200Q280 173 280 159Q280 132 293 120T337 108Q352 108 394 115L375 -2Q301 -12 260 -12Q175 -12 135 22T96 124Q96 158 105 198L146 395H46L73 521H174L198 633Z" horiz-adv-x="444" unicode="t"/>
			<glyph d="M101 521H287L237 277Q236 271 230 245T225 199Q225 174 241 156T292 138Q349 138 382 176T427 271L480 521H660L579 136Q564 64 557 0H390L404 85H402Q356 33 309 10T202 -12Q126 -12 82 37T39 168Q39 195 42 216T49 258T55 288Z" horiz-adv-x="667" unicode="u"/>
			<glyph d="M68 521H249L285 150H287L470 521H664L358 0H153Z" unicode="v"/>
			<glyph d="M68 521H247L252 144H254L425 521H643L647 144H649L816 521H998L725 0H516L509 377H507L328 0H118Z" horiz-adv-x="944" unicode="w"/>
			<glyph d="M83 521H273L330 365L440 521H653L432 265L555 0H360L300 162L180 0H-42L194 272Z" unicode="x"/>
			<glyph d="M66 521H249L296 192H298L475 521H666L326 -66Q280 -146 228 -184T96 -222Q24 -222 -44 -200L-6 -69Q42 -84 76 -84Q147 -84 181 2Z" unicode="y"/>
			<glyph d="M90 521H532L504 385L218 132H456L429 0H-24L2 136L287 389H63Z" horiz-adv-x="500" unicode="z"/>
			<glyph d="M376 756H463L444 666H392Q360 666 345 651T324 601L283 406Q274 362 240 337T148 309V307Q194 304 220 290T246 235Q246 222 238 185L208 37Q200 -3 200 -16Q200 -50 239 -50H295L277 -140H190Q121 -140 91 -111T62 -39Q62 -24 71 21L104 180Q108 202 108 214Q108 239 85 251T30 263L48 353H51Q98 353 122 369T154 419L195 618Q210 692 256 724T376 756Z" horiz-adv-x="389" unicode="{"/>
			<glyph d="M73 750H199V-250H73Z" horiz-adv-x="222" unicode="|"/>
			<glyph d="M142 756H229Q298 756 327 727T357 656Q357 640 348 595L315 436Q311 414 311 402Q311 377 333 365T389 353L371 263H368Q321 263 296 247T265 197L224 -2Q209 -76 162 -108T43 -140H-44L-25 -50H27Q59 -50 73 -35T95 15L136 210Q145 254 179 279T271 307V309Q226 311 199 325T173 381Q173 394 181 431L211 579Q219 619 219 632Q219 666 180 666H124Z" horiz-adv-x="389" unicode="}"/>
			<glyph d="M510 353L546 244Q524 202 493 180T421 158Q394 158 366 166T301 193Q267 209 245 215T208 222Q184 222 163 205T120 153L84 262Q128 348 209 348Q236 348 264 339T329 313Q361 298 382 291T422 284Q444 284 464 299T510 353Z" horiz-adv-x="600" unicode="~"/>
			<glyph d="" horiz-adv-x="306" unicode=" "/>
			<glyph d="M197 521H366L332 359H163ZM164 292H302L226 -177H40Z" horiz-adv-x="444" unicode="¡"/>
			<glyph d="M482 648H552L513 518Q545 511 577 498L538 373Q513 386 476 396L393 120Q448 120 503 143L477 8Q425 -9 353 -12L314 -140H243L283 -8Q221 0 174 32T102 114T77 226Q77 311 119 381T239 492T412 533Q428 533 446 530ZM407 401Q341 396 302 352T263 233Q263 199 280 172T326 134Z" horiz-adv-x="612" unicode="¢"/>
			<glyph d="M491 710Q574 710 658 687L618 556Q594 563 557 567T484 572Q447 572 426 561T393 526T373 459L363 412H514L495 322H344L304 132H530L502 0H-5L21 132H120L161 322H75L96 412H180L200 491Q228 607 298 658T491 710Z" horiz-adv-x="612" unicode="£"/>
			<glyph d="M109 609L166 555Q191 575 230 586T306 597Q342 597 381 586T446 555L503 609L566 547L508 490Q530 468 542 429T554 349Q554 304 541 266T508 208L566 151L503 89L446 143Q422 124 382 112T306 101Q269 101 230 112T166 143L109 89L46 151L104 208Q82 230 70 268T58 349Q58 392 70 430T104 490L46 547ZM306 471Q256 471 223 436T190 349Q190 297 222 262T306 227Q355 227 388 261T422 349Q422 402 388 436T306 471Z" horiz-adv-x="612" unicode="¤"/>
			<glyph d="M84 698H270L332 417L506 698H703L473 366H569L550 282H415L398 258L391 222H535L516 138H375L347 0H167L195 138H54L73 222H211L218 258L211 282H78L97 366H185Z" horiz-adv-x="612" unicode="¥"/>
			<glyph d="M73 675H199V325H73ZM73 175H199V-175H73Z" horiz-adv-x="222" unicode="¦"/>
			<glyph d="M377 710Q503 710 595 659L558 544Q527 561 478 575T394 590Q346 590 323 578T301 542Q301 521 325 502T405 455Q485 414 520 378T556 295Q556 237 523 196T431 143Q455 122 469 95T484 42Q484 -13 452 -53T364 -116T232 -138Q175 -138 116 -122T7 -78L44 34Q90 9 133 -4T222 -18Q269 -18 291 -7T314 31Q314 52 292 72T212 125Q138 166 107 205T77 293Q77 344 108 381T199 435Q139 483 139 544Q139 592 171 630T258 689T377 710ZM285 382Q252 366 236 349T221 307Q221 276 285 236L350 196Q380 218 393 235T406 276Q406 299 378 323T285 382Z" unicode="§"/>
			<glyph d="M75 729H213L183 585H45ZM292 729H430L400 585H262Z" horiz-adv-x="278" unicode="¨"/>
			<glyph d="M426 710Q522 710 605 662T737 531T787 349Q787 251 738 168T607 37T426 -12Q327 -12 244 37T113 169T65 349Q65 446 113 529T244 661T426 710ZM425 608Q358 608 301 573T212 480T179 349Q179 277 212 218T301 124T426 90Q493 90 549 124T639 217T673 349Q673 421 640 480T550 573T425 608ZM431 556Q507 556 552 516T599 405H503Q494 436 477 448T431 460Q394 460 372 430T351 349Q351 297 372 267T431 237Q462 237 478 249T503 292H599Q598 220 552 180T431 141Q373 141 329 167T261 241T237 349Q237 406 260 453T326 528T431 556Z" horiz-adv-x="800" unicode="©"/>
			<glyph d="M285 710Q360 710 401 683T442 606Q442 589 438 566T408 434Q405 422 403 388H298L304 437H302Q253 380 166 380Q120 380 94 404T68 466Q68 524 119 555T247 586Q280 586 302 585T329 584Q332 601 332 605Q332 622 312 631T264 640Q213 640 154 617L166 685Q222 710 285 710ZM254 526Q178 526 178 486Q178 450 224 450Q260 450 289 472T322 524Q288 526 254 526Z" horiz-adv-x="397" unicode="ª"/>
			<glyph d="M213 473H389L190 269L351 65H188L25 269ZM491 473H667L468 269L617 65H454L303 269Z" horiz-adv-x="667" unicode="«"/>
			<glyph d="M62 431H568V108H442V305H62Z" horiz-adv-x="600" unicode="¬"/>
			<glyph d="M56 335H327L300 203H30Z" horiz-adv-x="333" unicode="­"/>
			<glyph d="M426 710Q522 710 605 662T737 531T787 349Q787 251 738 168T607 37T426 -12Q327 -12 244 37T113 169T65 349Q65 446 113 529T244 661T426 710ZM425 608Q358 608 301 573T212 480T179 349Q179 277 212 218T301 124T426 90Q495 90 550 124T639 217T673 349Q673 421 640 480T550 573T425 608ZM283 547H445Q525 547 559 520T594 432Q594 383 566 355T484 324L578 154H482L396 318H379V154H283ZM379 471V394H437Q498 394 498 437Q498 471 431 471Z" horiz-adv-x="800" unicode="®"/>
			<glyph d="M44 707H419L403 623H28Z" horiz-adv-x="278" unicode="¯"/>
			<glyph d="M255 710Q294 710 328 690T382 637T402 563Q402 523 382 489T328 435T255 416Q215 416 181 436T128 489T108 563Q108 603 128 636T181 690T255 710ZM254 632Q227 632 206 612T186 563Q186 535 206 514T255 494Q284 494 304 514T324 563Q324 590 304 611T254 632Z" horiz-adv-x="400" unicode="°"/>
			<glyph d="M252 506H378V394H568V268H378V156H252V268H62V394H252ZM62 126H568V0H62Z" horiz-adv-x="600" unicode="±"/>
			<glyph d="M291 856Q367 856 410 822T453 730Q453 683 424 646T356 582T247 520V518H414L395 428H57L70 500L146 551Q227 604 268 642T309 709Q309 732 293 746T253 760Q230 760 200 752T144 732L156 834Q213 856 291 856ZZ" horiz-adv-x="398" unicode="²"/>
			<glyph d="M302 856Q372 856 417 830T463 755Q463 707 429 677T335 641V639Q381 632 403 608T426 543Q426 482 367 451T214 420Q119 420 65 446L87 540Q145 516 205 516Q239 516 263 527T288 559Q288 595 223 595L173 594L190 680Q202 679 242 679Q280 679 302 692T325 726Q325 744 309 752T257 760Q233 760 204 754T153 741L164 841Q190 847 228 851T302 856ZZZ" horiz-adv-x="398" unicode="³"/>
			<glyph d="M227 729H444L249 585H123Z" horiz-adv-x="278" unicode="´"/>
			<glyph d="M101 521H287L237 277Q236 271 230 245T225 199Q225 171 243 154T292 138Q339 138 375 170T428 276L480 521H660L580 141Q564 64 557 0H390L404 85H402Q359 36 313 12T202 -12Q192 -12 176 -10L138 -210H-41Z" horiz-adv-x="667" unicode="µ"/>
			<glyph d="M359 698H671L499 -126H379L532 608H435L282 -126H162L261 349Q166 349 118 387T71 501Q71 596 148 647T359 698Z" horiz-adv-x="620" unicode="¶"/>
			<glyph d="M170 365Q208 365 235 337T263 272Q263 234 235 206T170 179Q132 179 104 206T77 272Q77 310 104 337T170 365Z" horiz-adv-x="306" unicode="·"/>
			<glyph d="M103 0H175L122 -63L124 -65Q138 -59 169 -59Q207 -59 228 -80T249 -138Q249 -178 213 -200T123 -222Q43 -222 -7 -195L15 -153Q40 -165 57 -170T94 -176Q147 -176 147 -140Q147 -124 136 -114T109 -105Q94 -105 76 -111L39 -88Z" horiz-adv-x="278" unicode="¸"/>
			<glyph d="M299 848H414L327 428H187L250 716L167 668L129 751Z" horiz-adv-x="398" unicode="¹"/>
			<glyph d="M304 710Q383 710 432 671T482 560Q482 478 422 429T262 380Q175 380 126 413T78 515Q78 606 139 658T304 710ZM295 626Q256 626 230 596T204 528Q204 498 220 481T267 464Q308 464 332 490T356 551Q356 626 295 626Z" horiz-adv-x="434" unicode="º"/>
			<glyph d="M52 473H215L364 269L176 65H0L199 269ZM330 473H493L642 269L454 65H278L477 269Z" horiz-adv-x="667" unicode="»"/>
			<glyph d="M638 720H748L254 -22H144ZM217 701H332L245 281H105L168 569L85 521L47 604ZM739 420H885L832 161H891L874 71H814L799 0H664L680 71H480L496 153ZM726 300L600 161H699L728 300Z" horiz-adv-x="916" unicode="¼"/>
			<glyph d="M616 720H726L232 -22H122ZM217 701H332L245 281H105L168 569L85 521L47 604ZM736 428Q812 428 855 394T898 302Q898 255 869 218T801 154T692 92V90H859L840 0H502L515 72L591 123Q672 177 713 214T754 281Q754 304 738 318T698 332Q675 332 645 324T589 304L601 406Q658 428 736 428ZZ" horiz-adv-x="916" unicode="½"/>
			<glyph d="M716 720H826L332 -22H222ZM280 709Q350 709 395 683T441 608Q441 560 407 530T313 494V492Q359 485 381 461T404 396Q404 333 343 303T192 273Q97 273 43 299L65 393Q123 369 183 369Q217 369 241 380T266 412Q266 448 201 448L151 447L168 533Q180 532 220 532Q258 532 280 545T303 579Q303 597 287 605T235 613Q211 613 182 607T131 594L142 694Q168 700 206 704T280 709ZM771 420H917L864 161H923L906 71H846L831 0H696L712 71H512L528 153ZM758 300L632 161H731L760 300ZZZ" horiz-adv-x="916" unicode="¾"/>
			<glyph d="M256 521H425L391 359H222ZM224 297H366Q362 246 336 206T264 125Q216 84 196 57T176 3Q176 -13 190 -28T228 -53T284 -63Q319 -63 361 -53T439 -28L418 -165Q370 -176 330 -182T250 -189Q189 -189 131 -173T35 -120T-4 -24Q-4 33 23 76T104 163Q168 214 190 240T224 297Z" horiz-adv-x="556" unicode="¿"/>
			<glyph d="M374 698H608L722 0H534L515 149H244L161 0H-41ZM465 554L317 281H497L467 554ZM279 884H495L599 740H473Z" horiz-adv-x="778" unicode="À"/>
			<glyph d="M374 698H608L722 0H534L515 149H244L161 0H-41ZM465 554L317 281H497L467 554ZM503 884H720L525 740H399Z" horiz-adv-x="778" unicode="Á"/>
			<glyph d="M374 698H608L722 0H534L515 149H244L161 0H-41ZM465 554L317 281H497L467 554ZM433 884H594L688 740H569L507 818L420 740H284Z" horiz-adv-x="778" unicode="Â"/>
			<glyph d="M374 698H608L722 0H534L515 149H244L161 0H-41ZM465 554L317 281H497L467 554ZM624 884H696Q689 820 655 781T567 743Q548 743 527 748T480 764Q441 779 425 779Q404 779 392 769T376 740H304Q311 801 344 841T431 881Q447 881 466 876T514 861Q555 845 574 845Q617 845 624 884Z" horiz-adv-x="778" unicode="Ã"/>
			<glyph d="M374 698H608L722 0H534L515 149H244L161 0H-41ZM465 554L317 281H497L467 554ZM345 884H483L453 740H315ZM562 884H700L670 740H532Z" horiz-adv-x="778" unicode="Ä"/>
			<glyph d="M374 698H608L722 0H534L515 149H244L161 0H-41ZM465 554L317 281H497L467 554ZM507 948Q552 948 585 915T619 836Q619 791 586 757T507 724Q462 724 428 757T395 836Q395 881 428 914T507 948ZM507 888Q486 888 470 872T455 836Q455 815 470 799T507 784Q528 784 543 799T559 836Q559 857 543 872T507 888Z" horiz-adv-x="778" unicode="Å"/>
			<glyph d="M427 698H961L933 566H696L674 422H885L858 290H657L633 132H852L824 0H436L458 149H261L176 0H-28ZM518 564L341 281H477L520 564Z" horiz-adv-x="944" unicode="Æ"/>
			<glyph d="M491 710Q640 710 737 673L693 530Q655 551 614 561T520 572Q432 572 373 535T285 439T257 308Q257 221 307 173T449 126Q549 126 625 165L605 15Q569 3 518 -4T432 -11L389 -63L391 -65Q407 -59 436 -59Q475 -59 495 -80T516 -138Q516 -177 481 -199T390 -222Q311 -222 260 -195L282 -153Q308 -165 325 -170T361 -176Q414 -176 414 -140Q414 -124 403 -114T376 -105Q361 -105 343 -111L306 -88L363 -9Q276 0 209 40T103 149T65 313Q65 430 117 520T265 660T491 710Z" horiz-adv-x="667" unicode="Ç"/>
			<glyph d="M165 698H656L629 566H322L290 422H581L552 290H262L228 132H547L520 0H15ZM197 884H413L517 740H391Z" unicode="È"/>
			<glyph d="M165 698H656L629 566H322L290 422H581L552 290H262L228 132H547L520 0H15ZM404 884H621L426 740H300Z" unicode="É"/>
			<glyph d="M165 698H656L629 566H322L290 422H581L552 290H262L228 132H547L520 0H15ZM335 884H496L590 740H471L409 818L322 740H186Z" unicode="Ê"/>
			<glyph d="M165 698H656L629 566H322L290 422H581L552 290H262L228 132H547L520 0H15ZM256 884H394L364 740H226ZM473 884H611L581 740H443Z" unicode="Ë"/>
			<glyph d="M168 698H356L211 0H23ZM42 884H258L362 740H236Z" horiz-adv-x="333" unicode="Ì"/>
			<glyph d="M168 698H356L211 0H23ZM284 884H501L306 740H180Z" horiz-adv-x="333" unicode="Í"/>
			<glyph d="M168 698H356L211 0H23ZM211 884H372L466 740H347L285 818L198 740H62Z" horiz-adv-x="333" unicode="Î"/>
			<glyph d="M168 698H356L211 0H23ZM124 884H262L232 740H94ZM341 884H479L449 740H311Z" horiz-adv-x="333" unicode="Ï"/>
			<glyph d="M163 698H407Q568 698 664 628T761 417Q761 215 646 107T317 0H15L81 312H13L35 414H103ZM321 560L290 414H456L434 312H269L233 138H316Q399 138 456 174T541 272T569 405Q569 482 523 521T374 560Z" horiz-adv-x="778" unicode="Ð"/>
			<glyph d="M162 698H395L538 214H540L638 698H814L666 0H434L288 483H286L189 0H13ZM624 884H696Q689 820 655 781T567 743Q548 743 527 748T480 764Q441 779 425 779Q404 779 392 769T376 740H304Q311 801 344 841T431 881Q447 881 466 876T514 861Q555 845 574 845Q617 845 624 884Z" horiz-adv-x="778" unicode="Ñ"/>
			<glyph d="M463 710Q566 710 635 672T739 570T773 424Q773 288 725 190T585 40T365 -12Q263 -12 193 24T89 125T55 273Q55 408 102 506T241 657T463 710ZM450 572Q385 572 339 528T270 419T247 287Q247 210 280 168T377 126Q445 126 491 170T559 280T581 410Q581 484 549 528T450 572ZM252 884H468L572 740H446Z" horiz-adv-x="778" unicode="Ò"/>
			<glyph d="M463 710Q566 710 635 672T739 570T773 424Q773 288 725 190T585 40T365 -12Q263 -12 193 24T89 125T55 273Q55 408 102 506T241 657T463 710ZM450 572Q385 572 339 528T270 419T247 287Q247 210 280 168T377 126Q445 126 491 170T559 280T581 410Q581 484 549 528T450 572ZM477 884H694L499 740H373Z" horiz-adv-x="778" unicode="Ó"/>
			<glyph d="M463 710Q566 710 635 672T739 570T773 424Q773 288 725 190T585 40T365 -12Q263 -12 193 24T89 125T55 273Q55 408 102 506T241 657T463 710ZM450 572Q385 572 339 528T270 419T247 287Q247 210 280 168T377 126Q445 126 491 170T559 280T581 410Q581 484 549 528T450 572ZM403 884H564L658 740H539L477 818L390 740H254Z" horiz-adv-x="778" unicode="Ô"/>
			<glyph d="M463 710Q566 710 635 672T739 570T773 424Q773 288 725 190T585 40T365 -12Q263 -12 193 24T89 125T55 273Q55 408 102 506T241 657T463 710ZM450 572Q385 572 339 528T270 419T247 287Q247 210 280 168T377 126Q445 126 491 170T559 280T581 410Q581 484 549 528T450 572ZM594 884H666Q659 820 625 781T537 743Q518 743 497 748T450 764Q411 779 395 779Q374 779 362 769T346 740H274Q281 801 314 841T401 881Q417 881 436 876T484 861Q525 845 544 845Q587 845 594 884Z" horiz-adv-x="778" unicode="Õ"/>
			<glyph d="M463 710Q566 710 635 672T739 570T773 424Q773 288 725 190T585 40T365 -12Q263 -12 193 24T89 125T55 273Q55 408 102 506T241 657T463 710ZM450 572Q385 572 339 528T270 419T247 287Q247 210 280 168T377 126Q445 126 491 170T559 280T581 410Q581 484 549 528T450 572ZM324 884H462L432 740H294ZM541 884H679L649 740H511Z" horiz-adv-x="778" unicode="Ö"/>
			<glyph d="M163 491L315 339L467 491L553 405L400 253L553 101L467 15L315 168L163 15L77 101L229 253L77 405Z" horiz-adv-x="600" unicode="×"/>
			<glyph d="M676 801L762 740L686 638Q728 601 750 546T773 424Q773 293 727 195T590 42T365 -12Q285 -12 224 11L140 -103L55 -42L135 67Q55 143 55 273Q55 404 100 502T237 655T463 710Q539 710 594 690ZM450 572Q382 572 336 526T268 415T247 287Q247 256 253 227L501 564Q477 572 450 572ZM571 482L318 138Q342 126 377 126Q444 126 490 170T559 280T581 410Q581 451 571 482Z" horiz-adv-x="778" unicode="Ø"/>
			<glyph d="M157 698H346L256 275Q249 242 249 227Q249 182 275 154T348 126Q408 126 442 172T496 311L580 698H765L691 345Q665 221 628 145T523 29T343 -12Q210 -12 136 41T63 209Q63 274 78 340ZM225 884H441L545 740H419Z" horiz-adv-x="722" unicode="Ù"/>
			<glyph d="M157 698H346L256 275Q249 242 249 227Q249 182 275 154T348 126Q408 126 442 172T496 311L580 698H765L691 345Q665 221 628 145T523 29T343 -12Q210 -12 136 41T63 209Q63 274 78 340ZM474 884H691L496 740H370Z" horiz-adv-x="722" unicode="Ú"/>
			<glyph d="M157 698H346L256 275Q249 242 249 227Q249 182 275 154T348 126Q408 126 442 172T496 311L580 698H765L691 345Q665 221 628 145T523 29T343 -12Q210 -12 136 41T63 209Q63 274 78 340ZM404 884H565L659 740H540L478 818L391 740H255Z" horiz-adv-x="722" unicode="Û"/>
			<glyph d="M157 698H346L256 275Q249 242 249 227Q249 182 275 154T348 126Q408 126 442 172T496 311L580 698H765L691 345Q665 221 628 145T523 29T343 -12Q210 -12 136 41T63 209Q63 274 78 340ZM324 884H462L432 740H294ZM541 884H679L649 740H511Z" horiz-adv-x="722" unicode="Ü"/>
			<glyph d="M108 698H304L391 417L584 698H813L461 258L407 0H217L271 258ZM447 884H664L469 740H343Z" horiz-adv-x="722" unicode="Ý"/>
			<glyph d="M153 698H339L320 611H344Q493 611 560 562T627 404Q627 328 586 272T474 186T317 157H222L189 0H3ZM290 479L250 289H298Q373 289 407 318T441 398Q441 441 417 460T340 479Z" unicode="Þ"/>
			<glyph d="M417 762Q534 762 605 717T677 583Q677 498 629 449T490 391V389Q556 374 592 332T629 230Q629 162 596 108T501 24T355 -6Q296 -6 237 2L265 131Q294 120 326 120Q356 120 384 135T430 178T449 245Q449 292 422 309T338 327H329L355 453H390Q431 453 464 480T497 556Q497 598 474 620T416 642Q373 642 341 602T296 501L188 0H7L112 493Q132 586 165 644T258 732T417 762Z" horiz-adv-x="667" unicode="ß"/>
			<glyph d="M345 533Q453 533 512 487T572 356Q572 327 565 291T533 148Q515 68 506 0H359L367 73H365Q340 33 294 10T189 -12Q105 -12 60 26T16 139Q16 198 51 241T152 307T304 330Q336 330 400 325Q402 331 402 345Q402 374 375 393T304 413Q258 413 219 403T137 372L155 503Q204 520 249 526T345 533ZM326 234Q259 234 222 212T186 160Q186 140 203 124T247 108Q299 108 335 140T383 231Q368 234 326 234ZM177 729H393L497 585H371Z" unicode="à"/>
			<glyph d="M345 533Q453 533 512 487T572 356Q572 327 565 291T533 148Q515 68 506 0H359L367 73H365Q340 33 294 10T189 -12Q105 -12 60 26T16 139Q16 198 51 241T152 307T304 330Q336 330 400 325Q402 331 402 345Q402 374 375 393T304 413Q258 413 219 403T137 372L155 503Q204 520 249 526T345 533ZM326 234Q259 234 222 212T186 160Q186 140 203 124T247 108Q299 108 335 140T383 231Q368 234 326 234ZM376 729H593L398 585H272Z" unicode="á"/>
			<glyph d="M345 533Q453 533 512 487T572 356Q572 327 565 291T533 148Q515 68 506 0H359L367 73H365Q340 33 294 10T189 -12Q105 -12 60 26T16 139Q16 198 51 241T152 307T304 330Q336 330 400 325Q402 331 402 345Q402 374 375 393T304 413Q258 413 219 403T137 372L155 503Q204 520 249 526T345 533ZM326 234Q259 234 222 212T186 160Q186 140 203 124T247 108Q299 108 335 140T383 231Q368 234 326 234ZM320 729H481L575 585H456L394 663L307 585H171Z" unicode="â"/>
			<glyph d="M345 533Q453 533 512 487T572 356Q572 327 565 291T533 148Q515 68 506 0H359L367 73H365Q340 33 294 10T189 -12Q105 -12 60 26T16 139Q16 198 51 241T152 307T304 330Q336 330 400 325Q402 331 402 345Q402 374 375 393T304 413Q258 413 219 403T137 372L155 503Q204 520 249 526T345 533ZM326 234Q259 234 222 212T186 160Q186 140 203 124T247 108Q299 108 335 140T383 231Q368 234 326 234ZM512 729H584Q577 664 543 626T455 588Q436 588 415 593T369 609Q329 624 313 624Q291 624 280 614T264 585H192Q200 649 233 687T319 726Q336 726 355 721T402 706Q443 690 462 690Q505 690 512 729Z" unicode="ã"/>
			<glyph d="M345 533Q453 533 512 487T572 356Q572 327 565 291T533 148Q515 68 506 0H359L367 73H365Q340 33 294 10T189 -12Q105 -12 60 26T16 139Q16 198 51 241T152 307T304 330Q336 330 400 325Q402 331 402 345Q402 374 375 393T304 413Q258 413 219 403T137 372L155 503Q204 520 249 526T345 533ZM326 234Q259 234 222 212T186 160Q186 140 203 124T247 108Q299 108 335 140T383 231Q368 234 326 234ZM242 729H380L350 585H212ZM459 729H597L567 585H429Z" unicode="ä"/>
			<glyph d="M345 533Q453 533 512 487T572 356Q572 327 565 291T533 148Q515 68 506 0H359L367 73H365Q340 33 294 10T189 -12Q105 -12 60 26T16 139Q16 198 51 241T152 307T304 330Q336 330 400 325Q402 331 402 345Q402 374 375 393T304 413Q258 413 219 403T137 372L155 503Q204 520 249 526T345 533ZM326 234Q259 234 222 212T186 160Q186 140 203 124T247 108Q299 108 335 140T383 231Q368 234 326 234ZM394 790Q440 790 473 756T506 678Q506 633 473 599T394 566Q349 566 315 599T282 678Q282 723 315 756T394 790ZM394 730Q373 730 357 714T342 678Q342 657 357 641T394 626Q415 626 430 641T446 678Q446 699 430 714T394 730Z" unicode="å"/>
			<glyph d="M332 533Q389 533 429 518T500 476Q534 506 574 519T669 533Q732 533 781 506T858 428T886 307Q886 268 873 208H517V203Q517 160 548 134T644 108Q683 108 725 117T807 144L784 17Q688 -12 603 -12Q471 -12 417 95Q331 -12 177 -12Q92 -12 47 26T3 139Q3 198 38 241T139 307T291 330Q327 330 387 325Q389 333 389 345Q389 375 362 394T292 413Q244 413 207 404T124 372L142 503Q229 533 332 533ZM656 413Q607 413 576 385T539 310H742Q742 360 720 386T656 413ZM315 234Q246 234 210 212T175 160Q175 140 192 124T236 108Q288 108 324 140T372 231Q357 234 315 234Z" horiz-adv-x="889" unicode="æ"/>
			<glyph d="M367 533Q402 533 447 523T532 498L493 373Q432 401 377 401Q305 401 261 356T218 233Q218 184 252 152T343 120Q376 120 401 125T458 143L432 8Q384 -9 313 -11L269 -63L271 -65Q283 -59 316 -59Q354 -59 375 -80T396 -138Q396 -180 359 -201T270 -222Q191 -222 140 -195L162 -153Q187 -165 204 -170T241 -176Q294 -176 294 -140Q294 -124 285 -114T259 -105Q246 -105 223 -111L186 -88L244 -9Q184 -3 136 28T60 110T32 226Q32 311 74 381T193 492T367 533Z" horiz-adv-x="500" unicode="ç"/>
			<glyph d="M344 533Q458 533 521 473T584 307Q584 286 579 255T571 208H202Q203 160 235 134T341 108Q381 108 425 117T505 144L482 17Q386 -12 300 -12Q221 -12 160 17T65 101T32 231Q32 291 63 362T166 483T344 533ZM345 413Q294 413 259 384T213 310H434Q434 357 412 385T345 413ZM155 729H371L475 585H349Z" unicode="è"/>
			<glyph d="M344 533Q458 533 521 473T584 307Q584 286 579 255T571 208H202Q203 160 235 134T341 108Q381 108 425 117T505 144L482 17Q386 -12 300 -12Q221 -12 160 17T65 101T32 231Q32 291 63 362T166 483T344 533ZM345 413Q294 413 259 384T213 310H434Q434 357 412 385T345 413ZM394 729H611L416 585H290Z" unicode="é"/>
			<glyph d="M344 533Q458 533 521 473T584 307Q584 286 579 255T571 208H202Q203 160 235 134T341 108Q381 108 425 117T505 144L482 17Q386 -12 300 -12Q221 -12 160 17T65 101T32 231Q32 291 63 362T166 483T344 533ZM345 413Q294 413 259 384T213 310H434Q434 357 412 385T345 413ZM320 729H481L575 585H456L394 663L307 585H171Z" unicode="ê"/>
			<glyph d="M344 533Q458 533 521 473T584 307Q584 286 579 255T571 208H202Q203 160 235 134T341 108Q381 108 425 117T505 144L482 17Q386 -12 300 -12Q221 -12 160 17T65 101T32 231Q32 291 63 362T166 483T344 533ZM345 413Q294 413 259 384T213 310H434Q434 357 412 385T345 413ZM242 729H380L350 585H212ZM459 729H597L567 585H429Z" unicode="ë"/>
			<glyph d="M134 521H316L208 0H26ZM20 729H236L340 585H214Z" horiz-adv-x="333" unicode="ì"/>
			<glyph d="M134 521H316L208 0H26ZM218 729H435L240 585H114Z" horiz-adv-x="333" unicode="í"/>
			<glyph d="M134 521H316L208 0H26ZM181 729H342L436 585H317L255 663L168 585H32Z" horiz-adv-x="333" unicode="î"/>
			<glyph d="M134 521H316L208 0H26ZM103 729H241L211 585H73ZM320 729H458L428 585H290Z" horiz-adv-x="333" unicode="ï"/>
			<glyph d="M340 786Q397 758 454 709L572 752L612 688L513 653Q574 588 606 513T639 359Q639 181 552 84T308 -12Q227 -12 164 16T67 96T32 216Q32 308 70 374T171 473T302 507Q350 507 381 493T445 445H447Q423 527 356 596L231 551L192 614L294 651Q262 676 212 704ZM358 381Q320 381 287 359T236 301T218 229Q218 174 240 144T316 114Q379 114 416 161T453 278Q453 320 431 350T358 381Z" horiz-adv-x="667" unicode="ð"/>
			<glyph d="M465 533Q541 533 584 483T628 353Q628 324 625 302T614 243L566 0H380L430 244Q432 253 437 278T442 323Q442 346 427 364T375 383Q317 383 283 341T240 249L187 0H7L86 376Q103 457 110 521H277L263 436H265Q311 488 358 510T465 533ZM540 729H612Q605 664 571 626T483 588Q464 588 443 593T397 609Q357 624 341 624Q319 624 308 614T292 585H220Q228 649 261 687T347 726Q364 726 383 721T430 706Q471 690 490 690Q533 690 540 729Z" horiz-adv-x="667" unicode="ñ"/>
			<glyph d="M368 533Q449 533 510 504T605 423T639 299Q639 150 551 69T303 -12Q171 -12 101 51T32 227Q32 317 73 386T191 494T368 533ZM358 407Q318 407 286 381T236 315T218 230Q218 179 243 146T314 114Q383 114 418 166T453 301Q453 352 428 379T358 407ZM158 729H374L478 585H352Z" horiz-adv-x="667" unicode="ò"/>
			<glyph d="M368 533Q449 533 510 504T605 423T639 299Q639 150 551 69T303 -12Q171 -12 101 51T32 227Q32 317 73 386T191 494T368 533ZM358 407Q318 407 286 381T236 315T218 230Q218 179 243 146T314 114Q383 114 418 166T453 301Q453 352 428 379T358 407ZM422 729H639L444 585H318Z" horiz-adv-x="667" unicode="ó"/>
			<glyph d="M368 533Q449 533 510 504T605 423T639 299Q639 150 551 69T303 -12Q171 -12 101 51T32 227Q32 317 73 386T191 494T368 533ZM358 407Q318 407 286 381T236 315T218 230Q218 179 243 146T314 114Q383 114 418 166T453 301Q453 352 428 379T358 407ZM348 729H509L603 585H484L422 663L335 585H199Z" horiz-adv-x="667" unicode="ô"/>
			<glyph d="M368 533Q449 533 510 504T605 423T639 299Q639 150 551 69T303 -12Q171 -12 101 51T32 227Q32 317 73 386T191 494T368 533ZM358 407Q318 407 286 381T236 315T218 230Q218 179 243 146T314 114Q383 114 418 166T453 301Q453 352 428 379T358 407ZM540 729H612Q605 664 571 626T483 588Q464 588 443 593T397 609Q357 624 341 624Q319 624 308 614T292 585H220Q228 649 261 687T347 726Q364 726 383 721T430 706Q471 690 490 690Q533 690 540 729Z" horiz-adv-x="667" unicode="õ"/>
			<glyph d="M368 533Q449 533 510 504T605 423T639 299Q639 150 551 69T303 -12Q171 -12 101 51T32 227Q32 317 73 386T191 494T368 533ZM358 407Q318 407 286 381T236 315T218 230Q218 179 243 146T314 114Q383 114 418 166T453 301Q453 352 428 379T358 407ZM230 729H368L338 585H200ZM447 729H585L555 585H417Z" horiz-adv-x="667" unicode="ö"/>
			<glyph d="M314 554Q352 554 379 526T407 461Q407 423 380 395T314 368Q276 368 248 395T221 461Q221 499 248 526T314 554ZM62 316H568V190H62ZM314 138Q352 138 379 110T407 45Q407 7 379 -20T314 -48Q276 -48 248 -20T221 45Q221 83 248 110T314 138Z" horiz-adv-x="600" unicode="÷"/>
			<glyph d="M535 610L607 556L551 481Q594 449 616 402T639 299Q639 150 551 69T303 -12Q245 -12 197 2L133 -84L61 -30L114 42Q32 105 32 226Q32 318 74 387T192 495T368 533Q419 533 468 520ZM358 407Q318 407 286 381T236 314T218 230Q218 211 223 189L382 404Q373 407 358 407ZM448 341L284 119Q298 114 316 114Q380 114 416 164T453 301Q453 328 448 341Z" horiz-adv-x="667" unicode="ø"/>
			<glyph d="M101 521H287L237 277Q236 271 230 245T225 199Q225 174 241 156T292 138Q349 138 382 176T427 271L480 521H660L579 136Q564 64 557 0H390L404 85H402Q356 33 309 10T202 -12Q126 -12 82 37T39 168Q39 195 42 216T49 258T55 288ZM158 729H374L478 585H352Z" horiz-adv-x="667" unicode="ù"/>
			<glyph d="M101 521H287L237 277Q236 271 230 245T225 199Q225 174 241 156T292 138Q349 138 382 176T427 271L480 521H660L579 136Q564 64 557 0H390L404 85H402Q356 33 309 10T202 -12Q126 -12 82 37T39 168Q39 195 42 216T49 258T55 288ZM422 729H639L444 585H318Z" horiz-adv-x="667" unicode="ú"/>
			<glyph d="M101 521H287L237 277Q236 271 230 245T225 199Q225 174 241 156T292 138Q349 138 382 176T427 271L480 521H660L579 136Q564 64 557 0H390L404 85H402Q356 33 309 10T202 -12Q126 -12 82 37T39 168Q39 195 42 216T49 258T55 288ZM348 729H509L603 585H484L422 663L335 585H199Z" horiz-adv-x="667" unicode="û"/>
			<glyph d="M101 521H287L237 277Q236 271 230 245T225 199Q225 174 241 156T292 138Q349 138 382 176T427 271L480 521H660L579 136Q564 64 557 0H390L404 85H402Q356 33 309 10T202 -12Q126 -12 82 37T39 168Q39 195 42 216T49 258T55 288ZM240 729H378L348 585H210ZM457 729H595L565 585H427Z" horiz-adv-x="667" unicode="ü"/>
			<glyph d="M66 521H249L296 192H298L475 521H666L326 -66Q280 -146 228 -184T96 -222Q24 -222 -44 -200L-6 -69Q42 -84 76 -84Q147 -84 181 2ZM394 729H611L416 585H290Z" unicode="ý"/>
			<glyph d="M159 750H336L271 458H273Q345 533 441 533Q530 533 582 473T635 317Q635 229 604 154T512 33T361 -12Q301 -12 261 13T193 87L127 -210H-55ZM362 395Q323 395 292 370T244 307T227 232Q227 187 249 156T313 126Q353 126 384 148T432 208T449 288Q449 339 426 367T362 395Z" horiz-adv-x="667" unicode="þ"/>
			<glyph d="M66 521H249L296 192H298L475 521H666L326 -66Q280 -146 228 -184T96 -222Q24 -222 -44 -200L-6 -69Q42 -84 76 -84Q147 -84 181 2ZM221 729H359L329 585H191ZM438 729H576L546 585H408Z" unicode="ÿ"/>
			<glyph d="M374 698H608L722 0H534L515 149H244L161 0H-41ZM465 554L317 281H497L467 554ZM329 863H704L688 779H313Z" horiz-adv-x="778" unicode="Ā"/>
			<glyph d="M345 533Q453 533 512 487T572 356Q572 327 565 291T533 148Q515 68 506 0H359L367 73H365Q340 33 294 10T189 -12Q105 -12 60 26T16 139Q16 198 51 241T152 307T304 330Q336 330 400 325Q402 331 402 345Q402 374 375 393T304 413Q258 413 219 403T137 372L155 503Q204 520 249 526T345 533ZM326 234Q259 234 222 212T186 160Q186 140 203 124T247 108Q299 108 335 140T383 231Q368 234 326 234ZM206 707H581L565 623H190Z" unicode="ā"/>
			<glyph d="M374 698H608L722 0H534L515 149H244L161 0H-41ZM465 554L317 281H497L467 554ZM327 894H408Q414 855 437 838T509 821Q544 821 575 842T617 894H705Q656 737 491 737Q418 737 372 781T327 894Z" horiz-adv-x="778" unicode="Ă"/>
			<glyph d="M345 533Q453 533 512 487T572 356Q572 327 565 291T533 148Q515 68 506 0H359L367 73H365Q340 33 294 10T189 -12Q105 -12 60 26T16 139Q16 198 51 241T152 307T304 330Q336 330 400 325Q402 331 402 345Q402 374 375 393T304 413Q258 413 219 403T137 372L155 503Q204 520 249 526T345 533ZM326 234Q259 234 222 212T186 160Q186 140 203 124T247 108Q299 108 335 140T383 231Q368 234 326 234ZM204 729H285Q290 690 314 673T386 656Q420 656 452 677T494 729H582Q534 572 368 572Q322 572 284 591T225 647T204 729Z" unicode="ă"/>
			<glyph d="M374 698H608L722 0H636Q585 -40 567 -66T550 -112Q550 -132 562 -144T593 -156Q611 -156 627 -149T655 -131L693 -145Q666 -185 636 -203T559 -222Q448 -222 448 -134Q448 -97 479 -64T575 0H534L515 149H244L161 0H-41ZM465 554L317 281H497L467 554Z" horiz-adv-x="778" unicode="Ą"/>
			<glyph d="M345 533Q453 533 512 487T572 356Q572 327 565 291T533 148Q515 68 506 0H472Q427 -36 406 -62T386 -112Q386 -130 397 -143T430 -156Q449 -156 465 -148T491 -131L529 -145Q500 -188 469 -205T395 -222Q284 -222 284 -134Q284 -60 411 0H359L367 73H365Q340 33 294 10T189 -12Q105 -12 60 26T16 139Q16 198 51 241T152 307T304 330Q335 330 400 325Q402 331 402 345Q402 374 375 393T304 413Q258 413 219 404T137 372L155 503Q203 519 248 526T345 533ZM326 234Q259 234 222 212T186 160Q186 140 203 124T247 108Q299 108 335 140T383 231Q368 234 326 234Z" unicode="ą"/>
			<glyph d="M491 710Q638 710 737 673L693 530Q655 552 613 562T520 572Q431 572 371 535T284 438T257 308Q257 221 307 173T449 126Q549 126 625 165L605 15Q570 3 518 -4T419 -12Q310 -12 230 28T107 141T65 313Q65 429 116 519T265 659T491 710ZM519 884H736L541 740H415Z" horiz-adv-x="667" unicode="Ć"/>
			<glyph d="M367 533Q402 533 447 523T532 498L493 373Q432 401 377 401Q304 401 261 356T218 233Q218 185 252 152T343 120Q375 120 401 125T458 143L432 8Q372 -12 279 -12Q204 -12 148 20T62 106T32 226Q32 311 74 381T193 492T367 533ZM379 729H596L401 585H275Z" horiz-adv-x="500" unicode="ć"/>
			<glyph d="M491 710Q638 710 737 673L693 530Q655 552 613 562T520 572Q431 572 371 535T284 438T257 308Q257 221 307 173T449 126Q549 126 625 165L605 15Q570 3 518 -4T419 -12Q310 -12 230 28T107 141T65 313Q65 429 116 519T265 659T491 710ZM444 884H605L699 740H580L518 818L431 740H295Z" horiz-adv-x="667" unicode="Ĉ"/>
			<glyph d="M367 533Q402 533 447 523T532 498L493 373Q432 401 377 401Q304 401 261 356T218 233Q218 185 252 152T343 120Q375 120 401 125T458 143L432 8Q372 -12 279 -12Q204 -12 148 20T62 106T32 226Q32 311 74 381T193 492T367 533ZM310 729H471L565 585H446L384 663L297 585H161Z" horiz-adv-x="500" unicode="ĉ"/>
			<glyph d="M491 710Q638 710 737 673L693 530Q655 552 613 562T520 572Q431 572 371 535T284 438T257 308Q257 221 307 173T449 126Q549 126 625 165L605 15Q570 3 518 -4T419 -12Q310 -12 230 28T107 141T65 313Q65 429 116 519T265 659T491 710ZM488 884H626L596 740H458Z" horiz-adv-x="667" unicode="Ċ"/>
			<glyph d="M367 533Q402 533 447 523T532 498L493 373Q432 401 377 401Q304 401 261 356T218 233Q218 185 252 152T343 120Q375 120 401 125T458 143L432 8Q372 -12 279 -12Q204 -12 148 20T62 106T32 226Q32 311 74 381T193 492T367 533ZM356 729H494L464 585H326Z" horiz-adv-x="500" unicode="ċ"/>
			<glyph d="M491 710Q638 710 737 673L693 530Q655 552 613 562T520 572Q431 572 371 535T284 438T257 308Q257 221 307 173T449 126Q549 126 625 165L605 15Q570 3 518 -4T419 -12Q310 -12 230 28T107 141T65 313Q65 429 116 519T265 659T491 710ZM331 884H449L511 806L598 884H734L585 740H424Z" horiz-adv-x="667" unicode="Č"/>
			<glyph d="M367 533Q402 533 447 523T532 498L493 373Q432 401 377 401Q304 401 261 356T218 233Q218 185 252 152T343 120Q375 120 401 125T458 143L432 8Q372 -12 279 -12Q204 -12 148 20T62 106T32 226Q32 311 74 381T193 492T367 533ZM199 729H317L379 651L466 729H602L453 585H292Z" horiz-adv-x="500" unicode="č"/>
			<glyph d="M163 698H407Q573 698 667 627T761 417Q761 215 646 107T317 0H15ZM321 560L233 138H316Q399 138 456 174T541 272T569 405Q569 483 523 521T374 560ZM248 884H366L428 806L515 884H651L502 740H341Z" horiz-adv-x="778" unicode="Ď"/>
			<glyph d="M542 750H719L580 82Q572 48 568 0H403L417 83H415Q375 30 331 9T227 -12Q171 -12 126 17T57 95T32 204Q32 295 63 370T153 489T296 533Q360 533 407 507T477 437H479ZM353 395Q314 395 283 372T235 312T218 233Q218 183 240 154T304 126Q343 126 374 151T423 214T440 289Q440 332 418 363T353 395ZM784 729H930L820 530H726Z" horiz-adv-x="778" unicode="ď"/>
			<glyph d="M163 698H407Q568 698 664 628T761 417Q761 215 646 107T317 0H15L81 312H13L35 414H103ZM321 560L290 414H456L434 312H269L233 138H316Q399 138 456 174T541 272T569 405Q569 482 523 521T374 560Z" horiz-adv-x="778" unicode="Đ"/>
			<glyph d="M542 750H719L704 680H784L767 594H686L580 82Q572 48 568 0H403L417 83H415Q375 30 331 9T227 -12Q171 -12 126 17T57 95T32 204Q32 295 63 370T154 489T296 533Q360 533 407 507T477 437H479L511 594H332L350 680H528ZM353 395Q314 395 283 372T235 312T218 233Q218 183 240 154T304 126Q343 126 374 151T423 214T440 289Q440 332 418 363T353 395Z" horiz-adv-x="667" unicode="đ"/>
			<glyph d="M165 698H656L629 566H322L290 422H581L552 290H262L228 132H547L520 0H15ZM248 863H623L607 779H232Z" unicode="Ē"/>
			<glyph d="M344 533Q458 533 521 473T584 307Q584 286 579 255T571 208H202Q203 160 235 134T341 108Q381 108 425 117T505 144L482 17Q386 -12 300 -12Q221 -12 160 17T65 101T32 231Q32 291 63 362T166 483T344 533ZM345 413Q294 413 259 384T213 310H434Q434 357 412 385T345 413ZM188 707H563L547 623H172Z" unicode="ē"/>
			<glyph d="M165 698H656L629 566H322L290 422H581L552 290H262L228 132H547L520 0H15ZM245 894H326Q332 855 355 838T427 821Q462 821 493 842T535 894H623Q574 737 409 737Q336 737 290 781T245 894Z" unicode="Ĕ"/>
			<glyph d="M344 533Q458 533 521 473T584 307Q584 286 579 255T571 208H202Q203 160 235 134T341 108Q381 108 425 117T505 144L482 17Q386 -12 300 -12Q221 -12 160 17T65 101T32 231Q32 291 63 362T166 483T344 533ZM345 413Q294 413 259 384T213 310H434Q434 357 412 385T345 413ZM196 729H277Q282 690 306 673T378 656Q412 656 444 677T486 729H574Q526 572 360 572Q314 572 276 591T217 647T196 729Z" unicode="ĕ"/>
			<glyph d="M165 698H656L629 566H322L290 422H581L552 290H262L228 132H547L520 0H15ZM376 884H514L484 740H346Z" unicode="Ė"/>
			<glyph d="M344 533Q458 533 521 473T584 307Q584 286 579 255T571 208H202Q203 160 235 134T341 108Q381 108 425 117T505 144L482 17Q386 -12 300 -12Q221 -12 160 17T65 101T32 231Q32 291 63 362T166 483T344 533ZM345 413Q294 413 259 384T213 310H434Q434 357 412 385T345 413ZM311 729H449L419 585H281Z" unicode="ė"/>
			<glyph d="M165 698H656L629 566H322L290 422H581L552 290H262L228 132H547L520 0H445Q398 -36 378 -63T359 -112Q359 -132 371 -144T402 -156Q421 -156 437 -149T464 -131L502 -145Q475 -185 445 -203T368 -222Q257 -222 257 -134Q257 -97 288 -64T384 0H15Z" unicode="Ę"/>
			<glyph d="M344 533Q458 533 521 473T584 307Q584 286 579 255T571 208H202Q204 159 235 133T341 108Q381 108 425 117T505 144L482 17Q441 5 392 -3T306 -12Q236 -69 236 -112Q236 -132 248 -144T279 -156Q298 -156 314 -149T341 -131L379 -145Q353 -184 323 -203T245 -222Q134 -222 134 -134Q134 -64 244 -8Q189 0 141 28T62 106T32 228Q32 292 63 362T165 483T344 533ZM345 413Q294 413 259 384T213 310H434Q434 357 413 385T345 413Z" unicode="ę"/>
			<glyph d="M165 698H656L629 566H322L290 422H581L552 290H262L228 132H547L520 0H15ZM246 884H364L426 806L513 884H649L500 740H339Z" unicode="Ě"/>
			<glyph d="M344 533Q458 533 521 473T584 307Q584 286 579 255T571 208H202Q203 160 235 134T341 108Q381 108 425 117T505 144L482 17Q386 -12 300 -12Q221 -12 160 17T65 101T32 231Q32 291 63 362T166 483T344 533ZM345 413Q294 413 259 384T213 310H434Q434 357 412 385T345 413ZM189 729H307L369 651L456 729H592L443 585H282Z" unicode="ě"/>
			<glyph d="M527 710Q588 710 643 701T761 676L721 534Q677 554 628 563T520 572Q432 572 372 535T285 439T257 308Q257 219 306 172T431 126Q466 126 505 138L536 276H425L452 408H745L662 19Q620 6 548 -3T419 -12Q310 -12 230 28T107 141T65 313Q65 502 184 606T527 710ZM450 884H611L705 740H586L524 818L437 740H301Z" horiz-adv-x="778" unicode="Ĝ"/>
			<glyph d="M311 533Q377 533 424 505T491 426H493L516 521H683Q657 427 640 352L571 45Q548 -61 510 -118T409 -198T236 -222Q184 -222 137 -214T32 -189L67 -49Q106 -71 143 -80T227 -90Q286 -90 322 -72T381 -16T417 89L415 91Q384 47 340 23T245 0Q142 0 87 64T32 237Q32 318 67 385T165 493T311 533ZM347 395Q306 395 276 371T232 310T218 234Q218 192 244 165T312 138Q355 138 384 163T429 226T444 301Q444 342 419 368T347 395ZM328 729H489L583 585H464L402 663L315 585H179Z" horiz-adv-x="667" unicode="ĝ"/>
			<glyph d="M527 710Q588 710 643 701T761 676L721 534Q677 554 628 563T520 572Q432 572 372 535T285 439T257 308Q257 219 306 172T431 126Q466 126 505 138L536 276H425L452 408H745L662 19Q620 6 548 -3T419 -12Q310 -12 230 28T107 141T65 313Q65 502 184 606T527 710ZM340 894H421Q427 855 450 838T522 821Q557 821 588 842T630 894H718Q669 737 504 737Q431 737 385 781T340 894Z" horiz-adv-x="778" unicode="Ğ"/>
			<glyph d="M311 533Q377 533 424 505T491 426H493L516 521H683Q657 427 640 352L571 45Q548 -61 510 -118T409 -198T236 -222Q184 -222 137 -214T32 -189L67 -49Q106 -71 143 -80T227 -90Q286 -90 322 -72T381 -16T417 89L415 91Q384 47 340 23T245 0Q142 0 87 64T32 237Q32 318 67 385T165 493T311 533ZM347 395Q306 395 276 371T232 310T218 234Q218 192 244 165T312 138Q355 138 384 163T429 226T444 301Q444 342 419 368T347 395ZM212 729H293Q298 690 322 673T394 656Q428 656 460 677T502 729H590Q542 572 376 572Q330 572 292 591T233 647T212 729Z" horiz-adv-x="667" unicode="ğ"/>
			<glyph d="M527 710Q588 710 643 701T761 676L721 534Q677 554 628 563T520 572Q432 572 372 535T285 439T257 308Q257 219 306 172T431 126Q466 126 505 138L536 276H425L452 408H745L662 19Q620 6 548 -3T419 -12Q310 -12 230 28T107 141T65 313Q65 502 184 606T527 710ZM476 884H614L584 740H446Z" horiz-adv-x="778" unicode="Ġ"/>
			<glyph d="M311 533Q377 533 424 505T491 426H493L516 521H683Q657 427 640 352L571 45Q548 -61 510 -118T409 -198T236 -222Q184 -222 137 -214T32 -189L67 -49Q106 -71 143 -80T227 -90Q286 -90 322 -72T381 -16T417 89L415 91Q384 47 340 23T245 0Q142 0 87 64T32 237Q32 318 67 385T165 493T311 533ZM347 395Q306 395 276 371T232 310T218 234Q218 192 244 165T312 138Q355 138 384 163T429 226T444 301Q444 342 419 368T347 395ZM339 729H477L447 585H309Z" horiz-adv-x="667" unicode="ġ"/>
			<glyph d="M527 710Q588 710 643 701T761 676L721 534Q677 554 628 563T520 572Q432 572 372 535T285 439T257 308Q257 219 306 172T431 126Q466 126 505 138L536 276H425L452 408H745L662 19Q620 6 548 -3T419 -12Q310 -12 230 28T107 141T65 313Q65 502 184 606T527 710ZM316 -73H477L384 -232H253Z" horiz-adv-x="778" unicode="Ģ"/>
			<glyph d="M311 533Q377 533 424 505T491 426H493L516 521H683Q657 427 640 352L571 45Q548 -61 510 -118T409 -198T236 -222Q184 -222 137 -214T32 -189L67 -49Q106 -71 143 -80T227 -90Q286 -90 322 -72T381 -16T417 89L415 91Q384 47 340 23T245 0Q142 0 87 64T32 237Q32 318 67 385T165 493T311 533ZM347 395Q306 395 276 371T232 310T218 234Q218 192 244 165T312 138Q355 138 384 163T429 226T444 301Q444 342 419 368T347 395ZM387 729H511L453 585H299Z" horiz-adv-x="667" unicode="ģ"/>
			<glyph d="M160 698H347L292 431H513L568 698H755L610 0H423L485 299H264L202 0H15ZM406 884H567L661 740H542L480 818L393 740H257Z" horiz-adv-x="722" unicode="Ĥ"/>
			<glyph d="M165 750H347L283 445H285Q318 488 364 510T466 533Q540 533 584 484T628 353Q628 327 625 308T619 270T614 243L566 0H380L430 244Q442 298 442 323Q442 349 425 366T375 383Q322 383 287 347T240 250L187 0H7ZM381 931H542L636 787H517L455 865L368 787H232Z" horiz-adv-x="667" unicode="ĥ"/>
			<glyph d="M160 698H347L326 595H546L567 698H755L732 595H791L772 500H713L607 0H421L477 266H257L201 0H15L119 500H60L81 595H139ZM306 500L283 391H503L526 500Z" horiz-adv-x="722" unicode="Ħ"/>
			<glyph d="M165 750H347L332 680H512L494 594H314L283 445H285Q318 488 364 510T466 533Q541 533 584 484T628 353Q628 327 625 308T619 270T614 243L566 0H380L430 244Q431 251 436 276T442 323Q442 346 427 364T375 383Q322 383 287 347T240 250L187 0H7L132 594H61L79 680H150Z" horiz-adv-x="667" unicode="ħ"/>
			<glyph d="M168 698H356L211 0H23ZM403 884H475Q468 820 434 781T346 743Q327 743 306 748T259 764Q220 779 204 779Q183 779 171 769T155 740H83Q90 801 123 841T210 881Q226 881 245 876T293 861Q334 845 353 845Q396 845 403 884Z" horiz-adv-x="333" unicode="Ĩ"/>
			<glyph d="M134 521H316L208 0H26ZM367 729H439Q432 664 398 626T310 588Q291 588 270 593T224 609Q184 624 168 624Q146 624 135 614T119 585H47Q55 649 88 687T174 726Q191 726 210 721T257 706Q298 690 317 690Q360 690 367 729Z" horiz-adv-x="333" unicode="ĩ"/>
			<glyph d="M168 698H356L211 0H23ZM102 863H477L461 779H86Z" horiz-adv-x="333" unicode="Ī"/>
			<glyph d="M134 521H316L208 0H26ZM69 707H444L428 623H53Z" horiz-adv-x="333" unicode="ī"/>
			<glyph d="M168 698H356L211 0H171Q125 -36 105 -62T85 -112Q85 -132 97 -144T128 -156Q147 -156 163 -149T190 -131L228 -145Q201 -185 171 -203T94 -222Q-17 -222 -17 -134Q-17 -97 14 -64T110 0H23Z" horiz-adv-x="333" unicode="Į"/>
			<glyph d="M180 738H362L334 606H152ZM134 521H316L208 0H160Q113 -36 93 -63T74 -112Q74 -131 86 -143T118 -156Q135 -156 151 -149T179 -131L217 -145Q189 -187 158 -204T83 -222Q-28 -222 -28 -134Q-28 -97 2 -64T99 0H26Z" horiz-adv-x="333" unicode="į"/>
			<glyph d="M168 698H356L211 0H23ZM233 884H371L341 740H203Z" horiz-adv-x="333" unicode="İ"/>
			<glyph d="M134 521H316L208 0H26Z" horiz-adv-x="333" unicode="ı"/>
			<glyph d="M168 698H356L211 0H23ZM598 698H787L680 208Q664 133 638 86T561 14T420 -12Q376 -12 345 -6T271 11L309 162Q348 144 392 144Q439 144 466 173T507 272Z" horiz-adv-x="748" unicode="Ĳ"/>
			<glyph d="M180 738H362L334 606H152ZM134 521H316L208 0H26ZM497 738H679L651 606H469ZM451 521H633L525 2Q508 -79 482 -127T408 -198T283 -222Q242 -222 195 -207L224 -92Q244 -102 272 -102Q300 -102 315 -81T342 -3Z" horiz-adv-x="650" unicode="ĳ"/>
			<glyph d="M294 698H483L376 208Q360 133 334 86T257 14T116 -12Q72 -12 41 -6T-33 11L5 162Q44 144 88 144Q135 144 162 173T203 272ZM330 884H491L585 740H466L404 818L317 740H181Z" horiz-adv-x="444" unicode="Ĵ"/>
			<glyph d="M134 521H316L208 2Q191 -79 165 -127T91 -198T-34 -222Q-75 -222 -122 -207L-93 -92Q-73 -102 -45 -102Q-17 -102 -2 -81T25 -3ZM182 729H343L437 585H318L256 663L169 585H33Z" horiz-adv-x="333" unicode="ĵ"/>
			<glyph d="M162 698H350L290 413H292L544 698H785L453 359L659 0H444L272 317H270L203 0H15ZM228 -73H389L296 -232H165Z" horiz-adv-x="722" unicode="Ķ"/>
			<glyph d="M168 750H350L254 302H256L429 521H634L419 270L554 0H354L247 258H245L190 0H7ZM185 -73H346L253 -232H122Z" unicode="ķ"/>
			<glyph d="M160 698H349L233 138H525L496 0H15ZM291 884H508L313 740H187Z" horiz-adv-x="556" unicode="Ĺ"/>
			<glyph d="M182 750H364L208 0H26ZM296 929H513L318 785H192Z" horiz-adv-x="333" unicode="ĺ"/>
			<glyph d="M160 698H349L233 138H525L496 0H15ZM170 -73H331L238 -232H107Z" horiz-adv-x="556" unicode="Ļ"/>
			<glyph d="M182 750H364L208 0H26ZM21 -73H182L89 -232H-42Z" horiz-adv-x="333" unicode="ļ"/>
			<glyph d="M160 698H349L233 138H525L496 0H15ZM452 729H598L488 530H394Z" horiz-adv-x="556" unicode="Ľ"/>
			<glyph d="M182 750H364L208 0H26ZM429 729H575L465 530H371Z" horiz-adv-x="423" unicode="ľ"/>
			<glyph d="M160 698H349L233 138H525L496 0H15ZM380 449H518L488 305H350Z" horiz-adv-x="556" unicode="Ŀ"/>
			<glyph d="M182 750H364L208 0H26ZM376 449H514L484 305H346Z" horiz-adv-x="520" unicode="ŀ"/>
			<glyph d="M160 698H349L293 429L495 535L472 425L270 319L233 138H525L496 0H15L58 208L-15 170L8 279L81 317Z" horiz-adv-x="556" unicode="Ł"/>
			<glyph d="M182 750H364L308 483L393 527L372 428L287 384L208 0H26L83 276L-4 230L18 331L104 376Z" horiz-adv-x="333" unicode="ł"/>
			<glyph d="M162 698H395L538 214H540L638 698H814L666 0H434L288 483H286L189 0H13ZM513 884H730L535 740H409Z" horiz-adv-x="778" unicode="Ń"/>
			<glyph d="M465 533Q541 533 584 483T628 353Q628 324 625 302T614 243L566 0H380L430 244Q432 253 437 278T442 323Q442 346 427 364T375 383Q317 383 283 341T240 249L187 0H7L86 376Q103 457 110 521H277L263 436H265Q311 488 358 510T465 533ZM399 729H616L421 585H295Z" horiz-adv-x="667" unicode="ń"/>
			<glyph d="M162 698H395L538 214H540L638 698H814L666 0H434L288 483H286L189 0H13ZM275 -73H436L343 -232H212Z" horiz-adv-x="778" unicode="Ņ"/>
			<glyph d="M465 533Q541 533 584 483T628 353Q628 324 625 302T614 243L566 0H380L430 244Q432 253 437 278T442 323Q442 346 427 364T375 383Q317 383 283 341T240 249L187 0H7L86 376Q103 457 110 521H277L263 436H265Q311 488 358 510T465 533ZM199 -73H360L267 -232H136Z" horiz-adv-x="667" unicode="ņ"/>
			<glyph d="M162 698H395L538 214H540L638 698H814L666 0H434L288 483H286L189 0H13ZM320 884H438L500 806L587 884H723L574 740H413Z" horiz-adv-x="778" unicode="Ň"/>
			<glyph d="M465 533Q541 533 584 483T628 353Q628 324 625 302T614 243L566 0H380L430 244Q432 253 437 278T442 323Q442 346 427 364T375 383Q317 383 283 341T240 249L187 0H7L86 376Q103 457 110 521H277L263 436H265Q311 488 358 510T465 533ZM214 729H332L394 651L481 729H617L468 585H307Z" horiz-adv-x="667" unicode="ň"/>
			<glyph d="M122 698H289L157 447H24ZM615 533Q691 533 734 483T778 353Q778 324 775 302T764 243L716 0H530L580 244Q582 253 587 278T592 323Q592 346 577 364T525 383Q466 383 432 340T390 249L337 0H157L236 376Q253 457 260 521H427L413 436H415Q461 488 508 510T615 533Z" horiz-adv-x="817" unicode="ŉ"/>
			<glyph d="M463 710Q566 710 635 672T739 570T773 424Q773 288 725 190T585 40T365 -12Q263 -12 193 24T89 125T55 273Q55 408 102 506T241 657T463 710ZM450 572Q385 572 339 528T270 419T247 287Q247 210 280 168T377 126Q445 126 491 170T559 280T581 410Q581 484 549 528T450 572ZM318 863H693L677 779H302Z" horiz-adv-x="778" unicode="Ō"/>
			<glyph d="M368 533Q449 533 510 504T605 423T639 299Q639 150 551 69T303 -12Q171 -12 101 51T32 227Q32 317 73 386T191 494T368 533ZM358 407Q318 407 286 381T236 315T218 230Q218 179 243 146T314 114Q383 114 418 166T453 301Q453 352 428 379T358 407ZM223 707H598L582 623H207Z" horiz-adv-x="667" unicode="ō"/>
			<glyph d="M463 710Q566 710 635 672T739 570T773 424Q773 288 725 190T585 40T365 -12Q263 -12 193 24T89 125T55 273Q55 408 102 506T241 657T463 710ZM450 572Q385 572 339 528T270 419T247 287Q247 210 280 168T377 126Q445 126 491 170T559 280T581 410Q581 484 549 528T450 572ZM313 894H394Q400 855 423 838T495 821Q530 821 561 842T603 894H691Q642 737 477 737Q404 737 358 781T313 894Z" horiz-adv-x="778" unicode="Ŏ"/>
			<glyph d="M368 533Q449 533 510 504T605 423T639 299Q639 150 551 69T303 -12Q171 -12 101 51T32 227Q32 317 73 386T191 494T368 533ZM358 407Q318 407 286 381T236 315T218 230Q218 179 243 146T314 114Q383 114 418 166T453 301Q453 352 428 379T358 407ZM224 729H305Q310 690 334 673T406 656Q440 656 472 677T514 729H602Q554 572 388 572Q342 572 304 591T245 647T224 729Z" horiz-adv-x="667" unicode="ŏ"/>
			<glyph d="M463 710Q566 710 635 672T739 570T773 424Q773 288 725 190T585 40T365 -12Q263 -12 193 24T89 125T55 273Q55 408 102 506T241 657T463 710ZM450 572Q385 572 339 528T270 419T247 287Q247 210 280 168T377 126Q445 126 491 170T559 280T581 410Q581 484 549 528T450 572ZM360 884H577L382 740H256ZM629 884H846L651 740H525Z" horiz-adv-x="778" unicode="Ő"/>
			<glyph d="M368 533Q449 533 510 504T605 423T639 299Q639 150 551 69T303 -12Q171 -12 101 51T32 227Q32 317 73 386T191 494T368 533ZM358 407Q318 407 286 381T236 315T218 230Q218 179 243 146T314 114Q383 114 418 166T453 301Q453 352 428 379T358 407ZM268 729H455L296 585H170ZM516 729H703L544 585H418Z" horiz-adv-x="667" unicode="ő"/>
			<glyph d="M436 704Q462 704 520 701T604 698H1013L985 566H734L704 422H938L912 290H678L647 132H907L881 0H473Q445 0 401 -3T338 -6Q245 -6 177 34T73 147T37 316Q37 420 89 509T233 651T436 704ZM457 566Q389 566 337 528T257 428T229 294Q229 132 397 132Q426 132 462 136L554 562Q500 566 457 566Z" horiz-adv-x="963" unicode="Œ"/>
			<glyph d="M346 533Q403 533 454 513T533 457Q576 498 621 515T725 533Q785 533 834 507T912 430T941 307Q941 272 928 208H572V203Q572 160 603 134T699 108Q740 108 783 117T862 144L839 17Q743 -12 658 -12Q610 -12 567 5T492 55Q409 -12 278 -12Q206 -12 150 19T63 104T32 227Q32 326 75 395T189 498T346 533ZM711 413Q663 413 631 385T594 310H797Q797 356 777 384T711 413ZM332 407Q295 407 265 383T219 318T202 230Q202 171 226 142T293 114Q353 114 388 163T424 294Q424 352 401 379T332 407Z" horiz-adv-x="944" unicode="œ"/>
			<glyph d="M162 698H402Q546 698 612 658T678 520Q678 366 475 341V339Q530 334 553 236L608 0H422L385 184Q376 230 367 247T339 270T275 276H258L202 0H15ZM317 566L285 408H348Q492 408 492 494Q492 533 468 549T402 566ZM425 884H642L447 740H321Z" horiz-adv-x="667" unicode="Ŕ"/>
			<glyph d="M420 533Q465 533 496 520L455 361Q438 374 418 378T373 383Q321 383 287 346T240 249L187 0H7L86 376Q104 458 110 521H277L257 414H259Q286 469 328 501T420 533ZM312 729H529L334 585H208Z" horiz-adv-x="444" unicode="ŕ"/>
			<glyph d="M162 698H402Q546 698 612 658T678 520Q678 366 475 341V339Q530 334 553 236L608 0H422L385 184Q376 230 367 247T339 270T275 276H258L202 0H15ZM317 566L285 408H348Q492 408 492 494Q492 533 468 549T402 566ZM218 -73H379L286 -232H155Z" horiz-adv-x="667" unicode="Ŗ"/>
			<glyph d="M420 533Q465 533 496 520L455 361Q438 374 418 378T373 383Q321 383 287 346T240 249L187 0H7L86 376Q104 458 110 521H277L257 414H259Q286 469 328 501T420 533ZM8 -73H169L76 -232H-55Z" horiz-adv-x="444" unicode="ŗ"/>
			<glyph d="M162 698H402Q546 698 612 658T678 520Q678 366 475 341V339Q530 334 553 236L608 0H422L385 184Q376 230 367 247T339 270T275 276H258L202 0H15ZM317 566L285 408H348Q492 408 492 494Q492 533 468 549T402 566ZM239 884H357L419 806L506 884H642L493 740H332Z" horiz-adv-x="667" unicode="Ř"/>
			<glyph d="M420 533Q465 533 496 520L455 361Q438 374 418 378T373 383Q321 383 287 346T240 249L187 0H7L86 376Q104 458 110 521H277L257 414H259Q286 469 328 501T420 533ZM137 729H255L317 651L404 729H540L391 585H230Z" horiz-adv-x="444" unicode="ř"/>
			<glyph d="M415 710Q483 710 540 701T628 679L583 540Q515 572 429 572Q365 572 330 557T295 505Q295 478 319 461T400 423Q451 403 485 381T543 323T566 231Q566 106 473 47T226 -12Q175 -12 117 -2T9 24L53 166Q83 147 132 136T225 126Q297 126 335 147T374 209Q374 242 346 261T255 304Q180 333 141 370T103 477Q103 589 185 649T415 710ZM432 884H649L454 740H328Z" unicode="Ś"/>
			<glyph d="M327 533Q362 533 408 525T500 502L462 384Q392 413 318 413Q277 413 255 401T234 368Q234 353 253 341T323 312Q397 285 428 255T459 183Q459 92 390 40T203 -12Q156 -12 101 -5T-4 15L32 138Q101 108 178 108Q227 108 253 119T279 154Q279 175 258 186T185 216Q121 239 92 273T64 362Q64 416 100 455T196 513T327 533ZM333 729H550L355 585H229Z" horiz-adv-x="500" unicode="ś"/>
			<glyph d="M415 710Q483 710 540 701T628 679L583 540Q515 572 429 572Q365 572 330 557T295 505Q295 478 319 461T400 423Q451 403 485 381T543 323T566 231Q566 106 473 47T226 -12Q175 -12 117 -2T9 24L53 166Q83 147 132 136T225 126Q297 126 335 147T374 209Q374 242 346 261T255 304Q180 333 141 370T103 477Q103 589 185 649T415 710ZM350 884H511L605 740H486L424 818L337 740H201Z" unicode="Ŝ"/>
			<glyph d="M327 533Q362 533 408 525T500 502L462 384Q392 413 318 413Q277 413 255 401T234 368Q234 353 253 341T323 312Q397 285 428 255T459 183Q459 92 390 40T203 -12Q156 -12 101 -5T-4 15L32 138Q101 108 178 108Q227 108 253 119T279 154Q279 175 258 186T185 216Q121 239 92 273T64 362Q64 416 100 455T196 513T327 533ZM264 729H425L519 585H400L338 663L251 585H115Z" horiz-adv-x="500" unicode="ŝ"/>
			<glyph d="M415 710Q485 710 541 702T628 679L583 540Q515 572 429 572Q365 572 330 558T295 505Q295 478 319 461T400 423Q451 403 485 381T543 323T566 231Q566 120 491 60T291 -8L245 -63L247 -65Q274 -59 294 -59Q325 -59 348 -79T372 -134Q372 -178 334 -200T245 -222Q203 -222 174 -216T116 -195L138 -153Q158 -162 183 -169T223 -176Q246 -176 258 -167T270 -140Q270 -125 260 -115T234 -105Q223 -105 199 -111L162 -88L217 -12Q171 -11 116 -1T9 24L53 166Q83 147 132 136T225 126Q297 126 335 147T374 209Q374 242 346 261T255 304Q180 332 141 370T103 477Q103 589 185 649T415 710Z" unicode="Ş"/>
			<glyph d="M327 533Q362 533 408 525T500 502L462 384Q392 413 318 413Q277 413 255 401T234 368Q234 353 253 341T323 312Q397 285 428 255T459 183Q459 94 394 43T218 -12L175 -63L177 -65Q201 -59 223 -59Q256 -59 279 -79T302 -134Q302 -177 265 -199T175 -222Q134 -222 105 -216T46 -195L68 -153Q87 -162 112 -169T153 -176Q200 -176 200 -140Q200 -126 190 -115T163 -105Q155 -105 129 -111L92 -88L148 -10Q141 -9 98 -5T-4 15L32 138Q101 108 178 108Q227 108 253 119T279 154Q279 175 260 186T185 216Q121 239 92 273T64 362Q64 416 100 455T196 513T327 533Z" horiz-adv-x="500" unicode="ş"/>
			<glyph d="M415 710Q483 710 540 701T628 679L583 540Q515 572 429 572Q365 572 330 557T295 505Q295 478 319 461T400 423Q451 403 485 381T543 323T566 231Q566 106 473 47T226 -12Q175 -12 117 -2T9 24L53 166Q83 147 132 136T225 126Q297 126 335 147T374 209Q374 242 346 261T255 304Q180 333 141 370T103 477Q103 589 185 649T415 710ZM207 884H325L387 806L474 884H610L461 740H300Z" unicode="Š"/>
			<glyph d="M327 533Q362 533 408 525T500 502L462 384Q392 413 318 413Q277 413 255 401T234 368Q234 353 253 341T323 312Q397 285 428 255T459 183Q459 92 390 40T203 -12Q156 -12 101 -5T-4 15L32 138Q101 108 178 108Q227 108 253 119T279 154Q279 175 258 186T185 216Q121 239 92 273T64 362Q64 416 100 455T196 513T327 533ZM153 729H271L333 651L420 729H556L407 585H246Z" horiz-adv-x="500" unicode="š"/>
			<glyph d="M109 698H646L616 560H442L323 0H134L253 560H79ZM133 -73H294L201 -232H70Z" horiz-adv-x="556" unicode="Ţ"/>
			<glyph d="M389 684L353 521H479L452 395H326L285 200Q280 173 280 159Q280 132 293 120T337 108Q352 108 394 115L375 -2Q301 -12 260 -12Q175 -12 135 22T96 124Q96 158 105 198L146 395H46L73 521H174L198 633ZM125 -73H286L193 -232H62Z" horiz-adv-x="444" unicode="ţ"/>
			<glyph d="M109 698H646L616 560H442L323 0H134L253 560H79ZM198 884H316L378 806L465 884H601L452 740H291Z" horiz-adv-x="556" unicode="Ť"/>
			<glyph d="M459 729H583L498 560H409ZM391 684L355 521H479L457 395H326L287 212Q280 180 280 161Q280 132 296 117T339 102Q351 102 367 106T397 117L377 -2Q317 -12 266 -12Q187 -12 143 28T100 142Q100 164 105 193T120 268L147 395H51L73 521H176L201 633Z" horiz-adv-x="452" unicode="ť"/>
			<glyph d="M109 698H646L616 560H442L414 434H547L526 333H393L323 0H134L204 333H77L98 434H225L253 560H79Z" horiz-adv-x="556" unicode="Ŧ"/>
			<glyph d="M389 684L353 521H479L456 410H330L312 324H422L405 241H294L285 200Q280 173 280 159Q280 132 293 120T337 108Q352 108 394 115L375 -2Q301 -12 260 -12Q175 -12 135 22T96 124Q96 158 105 198L114 241H38L55 324H132L150 410H50L73 521H174L199 633Z" horiz-adv-x="444" unicode="ŧ"/>
			<glyph d="M157 698H346L256 275Q249 242 249 227Q249 182 275 154T348 126Q408 126 442 172T496 311L580 698H765L691 345Q665 221 628 145T523 29T343 -12Q210 -12 136 41T63 209Q63 274 78 340ZM607 884H679Q672 820 638 781T550 743Q531 743 510 748T463 764Q424 779 408 779Q387 779 375 769T359 740H287Q294 801 327 841T414 881Q430 881 449 876T497 861Q538 845 557 845Q600 845 607 884Z" horiz-adv-x="722" unicode="Ũ"/>
			<glyph d="M101 521H287L237 277Q236 271 230 245T225 199Q225 174 241 156T292 138Q349 138 382 176T427 271L480 521H660L579 136Q564 64 557 0H390L404 85H402Q356 33 309 10T202 -12Q126 -12 82 37T39 168Q39 195 42 216T49 258T55 288ZM517 729H589Q582 664 548 626T460 588Q441 588 420 593T374 609Q334 624 318 624Q296 624 285 614T269 585H197Q205 649 238 687T324 726Q341 726 360 721T407 706Q448 690 467 690Q510 690 517 729Z" horiz-adv-x="667" unicode="ũ"/>
			<glyph d="M157 698H346L256 275Q249 242 249 227Q249 182 275 154T348 126Q408 126 442 172T496 311L580 698H765L691 345Q665 221 628 145T523 29T343 -12Q210 -12 136 41T63 209Q63 274 78 340ZM303 863H678L662 779H287Z" horiz-adv-x="722" unicode="Ū"/>
			<glyph d="M101 521H287L237 277Q236 271 230 245T225 199Q225 174 241 156T292 138Q349 138 382 176T427 271L480 521H660L579 136Q564 64 557 0H390L404 85H402Q356 33 309 10T202 -12Q126 -12 82 37T39 168Q39 195 42 216T49 258T55 288ZM225 707H600L584 623H209Z" horiz-adv-x="667" unicode="ū"/>
			<glyph d="M157 698H346L256 275Q249 242 249 227Q249 182 275 154T348 126Q408 126 442 172T496 311L580 698H765L691 345Q665 221 628 145T523 29T343 -12Q210 -12 136 41T63 209Q63 274 78 340ZM295 894H376Q382 855 405 838T477 821Q512 821 543 842T585 894H673Q624 737 459 737Q386 737 340 781T295 894Z" horiz-adv-x="722" unicode="Ŭ"/>
			<glyph d="M101 521H287L237 277Q236 271 230 245T225 199Q225 174 241 156T292 138Q349 138 382 176T427 271L480 521H660L579 136Q564 64 557 0H390L404 85H402Q356 33 309 10T202 -12Q126 -12 82 37T39 168Q39 195 42 216T49 258T55 288ZM224 729H305Q310 690 334 673T406 656Q440 656 472 677T514 729H602Q554 572 388 572Q342 572 304 591T245 647T224 729Z" horiz-adv-x="667" unicode="ŭ"/>
			<glyph d="M157 698H346L256 275Q249 242 249 227Q249 182 275 154T348 126Q408 126 442 172T496 311L580 698H765L691 345Q665 221 628 145T523 29T343 -12Q210 -12 136 41T63 209Q63 274 78 340ZM472 948Q517 948 550 915T584 836Q584 791 551 757T472 724Q427 724 393 757T360 836Q360 881 393 914T472 948ZM472 888Q451 888 435 872T420 836Q420 815 435 799T472 784Q493 784 508 799T524 836Q524 857 508 872T472 888Z" horiz-adv-x="722" unicode="Ů"/>
			<glyph d="M101 521H287L237 277Q236 271 230 245T225 199Q225 174 241 156T292 138Q349 138 382 176T427 271L480 521H660L579 136Q564 64 557 0H390L404 85H402Q356 33 309 10T202 -12Q126 -12 82 37T39 168Q39 195 42 216T49 258T55 288ZM396 790Q442 790 475 756T508 678Q508 633 475 599T396 566Q351 566 317 599T284 678Q284 723 317 756T396 790ZM396 730Q375 730 359 714T344 678Q344 657 359 641T396 626Q417 626 432 641T448 678Q448 699 432 714T396 730Z" horiz-adv-x="667" unicode="ů"/>
			<glyph d="M157 698H346L256 275Q249 242 249 227Q249 182 275 154T348 126Q408 126 442 172T496 311L580 698H765L691 345Q665 221 628 145T523 29T343 -12Q210 -12 136 41T63 209Q63 274 78 340ZM353 884H570L375 740H249ZM622 884H839L644 740H518Z" horiz-adv-x="722" unicode="Ű"/>
			<glyph d="M101 521H287L237 277Q236 271 230 245T225 199Q225 174 241 156T292 138Q349 138 382 176T427 271L480 521H660L579 136Q564 64 557 0H390L404 85H402Q356 33 309 10T202 -12Q126 -12 82 37T39 168Q39 195 42 216T49 258T55 288ZM284 729H471L312 585H186ZM532 729H719L560 585H434Z" horiz-adv-x="667" unicode="ű"/>
			<glyph d="M157 698H346L256 275Q249 242 249 227Q249 182 275 154T348 126Q408 126 442 172T496 311L580 698H765L691 343Q665 220 627 144T521 29T343 -12H336Q266 -68 266 -112Q266 -132 278 -144T310 -156Q329 -156 345 -148T371 -131L409 -145Q382 -186 351 -204T275 -222Q164 -222 164 -134Q164 -64 274 -8Q179 4 121 55T63 209Q63 274 78 340Z" horiz-adv-x="722" unicode="Ų"/>
			<glyph d="M101 521H287L237 277Q236 271 230 245T225 199Q225 174 240 156T292 138Q349 138 382 177T427 271L480 521H660L579 136Q564 63 557 0H498Q454 -34 433 -61T412 -112Q412 -132 424 -144T456 -156Q474 -156 490 -149T517 -131L555 -145Q528 -186 497 -204T421 -222Q310 -222 310 -134Q310 -60 437 0H390L404 85H402Q357 32 309 10T202 -12Q126 -12 82 37T39 168Q39 195 42 216T49 258T55 288Z" horiz-adv-x="667" unicode="ų"/>
			<glyph d="M109 698H293L269 162H271L478 698H716L700 162H702L902 698H1090L791 0H551L565 548H563L353 0H113ZM545 884H706L800 740H681L619 818L532 740H396Z" horiz-adv-x="1000" unicode="Ŵ"/>
			<glyph d="M68 521H247L252 144H254L425 521H643L647 144H649L816 521H998L725 0H516L509 377H507L328 0H118ZM479 729H640L734 585H615L553 663L466 585H330Z" horiz-adv-x="944" unicode="ŵ"/>
			<glyph d="M108 698H304L391 417L584 698H813L461 258L407 0H217L271 258ZM406 884H567L661 740H542L480 818L393 740H257Z" horiz-adv-x="722" unicode="Ŷ"/>
			<glyph d="M66 521H249L296 192H298L475 521H666L326 -66Q280 -146 228 -184T96 -222Q24 -222 -44 -200L-6 -69Q42 -84 76 -84Q147 -84 181 2ZM322 729H483L577 585H458L396 663L309 585H173Z" unicode="ŷ"/>
			<glyph d="M108 698H304L391 417L584 698H813L461 258L407 0H217L271 258ZM317 891H455L425 747H287ZM534 891H672L642 747H504Z" horiz-adv-x="722" unicode="Ÿ"/>
			<glyph d="M137 698H675L644 550L241 138H560L534 0H-18L14 148L410 560H109ZM431 884H648L453 740H327Z" unicode="Ź"/>
			<glyph d="M90 521H532L504 385L218 132H456L429 0H-24L2 136L287 389H63ZM342 729H559L364 585H238Z" horiz-adv-x="500" unicode="ź"/>
			<glyph d="M137 698H675L644 550L241 138H560L534 0H-18L14 148L410 560H109ZM369 884H507L477 740H339Z" unicode="Ż"/>
			<glyph d="M90 521H532L504 385L218 132H456L429 0H-24L2 136L287 389H63ZM283 729H421L391 585H253Z" horiz-adv-x="500" unicode="ż"/>
			<glyph d="M137 698H675L644 550L241 138H560L534 0H-18L14 148L410 560H109ZM208 884H326L388 806L475 884H611L462 740H301Z" unicode="Ž"/>
			<glyph d="M90 521H532L504 385L218 132H456L429 0H-24L2 136L287 389H63ZM153 729H271L333 651L420 729H556L407 585H246Z" horiz-adv-x="500" unicode="ž"/>
			<glyph d="M456 710Q488 710 524 702T587 680L563 559Q561 560 544 572T499 584Q474 584 460 566T438 506L422 422H546L525 314H404L349 27Q325 -99 275 -160T135 -222Q104 -222 70 -214T15 -196L39 -74Q61 -96 101 -96Q130 -96 143 -71T165 2L225 314H100L121 422H247L263 505Q302 710 456 710Z" horiz-adv-x="612" unicode="ƒ"/>
			<glyph d="M415 710Q483 710 540 701T628 679L583 540Q515 572 429 572Q365 572 330 557T295 505Q295 478 319 461T400 423Q451 403 485 381T543 323T566 231Q566 106 473 47T226 -12Q175 -12 117 -2T9 24L53 166Q83 147 132 136T225 126Q297 126 335 147T374 209Q374 242 346 261T255 304Q180 333 141 370T103 477Q103 589 185 649T415 710ZM184 -73H345L252 -232H121Z" unicode="Ș"/>
			<glyph d="M327 533Q362 533 408 525T500 502L462 384Q392 413 318 413Q277 413 255 401T234 368Q234 353 253 341T323 312Q397 285 428 255T459 183Q459 92 390 40T203 -12Q156 -12 101 -5T-4 15L32 138Q101 108 178 108Q227 108 253 119T279 154Q279 175 258 186T185 216Q121 239 92 273T64 362Q64 416 100 455T196 513T327 533ZM126 -73H287L194 -232H63Z" horiz-adv-x="500" unicode="ș"/>
			<glyph d="M109 698H646L616 560H442L323 0H134L253 560H79ZM133 -73H294L201 -232H70Z" horiz-adv-x="556" unicode="Ț"/>
			<glyph d="M389 684L353 521H479L452 395H326L285 200Q280 173 280 159Q280 132 293 120T337 108Q352 108 394 115L375 -2Q301 -12 260 -12Q175 -12 135 22T96 124Q96 158 105 198L146 395H46L73 521H174L198 633ZM125 -73H286L193 -232H62Z" horiz-adv-x="444" unicode="ț"/>
			<glyph d="M134 521H316L208 2Q191 -79 165 -127T91 -198T-34 -222Q-75 -222 -122 -207L-93 -92Q-73 -102 -45 -102Q-17 -102 -2 -81T25 -3Z" horiz-adv-x="333" unicode="ȷ"/>
			<glyph d="M153 729H314L408 585H289L227 663L140 585H4Z" horiz-adv-x="278" unicode="ˆ"/>
			<glyph d="M42 729H160L222 651L309 729H445L296 585H135Z" horiz-adv-x="278" unicode="ˇ"/>
			<glyph d="M44 707H419L403 623H28Z" horiz-adv-x="278" unicode="ˉ"/>
			<glyph d="M43 729H124Q129 690 153 673T225 656Q259 656 291 677T333 729H421Q373 572 207 572Q161 572 123 591T64 647T43 729Z" horiz-adv-x="278" unicode="˘"/>
			<glyph d="M199 729H337L307 585H169Z" horiz-adv-x="278" unicode="˙"/>
			<glyph d="M227 790Q273 790 306 756T339 678Q339 633 306 599T227 566Q182 566 148 599T115 678Q115 723 148 756T227 790ZM227 730Q206 730 190 714T175 678Q175 657 190 641T227 626Q248 626 263 641T279 678Q279 699 263 714T227 730Z" horiz-adv-x="278" unicode="˚"/>
			<glyph d="M141 0H202Q157 -35 136 -61T116 -112Q116 -131 128 -143T160 -156Q176 -156 193 -149T221 -131L259 -145Q233 -185 201 -203T125 -222Q14 -222 14 -134Q14 -97 45 -64T141 0Z" horiz-adv-x="278" unicode="˛"/>
			<glyph d="M345 729H417Q410 664 376 626T288 588Q269 588 248 593T202 609Q162 624 146 624Q124 624 113 614T97 585H25Q33 649 66 687T152 726Q169 726 188 721T235 706Q276 690 295 690Q338 690 345 729Z" horiz-adv-x="278" unicode="˜"/>
			<glyph d="M64 729H251L92 585H-34ZM312 729H499L340 585H214Z" horiz-adv-x="278" unicode="˝"/>
			<glyph d="M369 698H597L700 0H-32ZM457 554L235 132H495L459 554Z" horiz-adv-x="748" unicode="Δ"/>
			<glyph d="M478 710Q568 710 636 672T742 570T779 426Q779 326 729 247T595 126H742L715 0H389L421 126Q475 143 513 189T570 297T589 419Q589 494 557 533T465 573Q410 573 364 537T290 437T263 293Q263 225 284 185T351 126L329 0H13L40 126H176Q130 157 107 211T84 334Q84 443 132 528T269 662T478 710Z" horiz-adv-x="804" unicode="Ω"/>
			<glyph d="M101 521H287L237 277Q236 271 230 245T225 199Q225 171 243 154T292 138Q339 138 375 170T428 276L480 521H660L580 141Q564 64 557 0H390L404 85H402Q359 36 313 12T202 -12Q192 -12 176 -10L138 -210H-41Z" horiz-adv-x="667" unicode="μ"/>
			<glyph d="M60 521H707L680 395H596L549 174Q546 162 546 152Q546 111 588 111Q600 111 608 113T636 123L615 4Q562 -12 515 -12Q434 -12 397 16T361 106Q361 139 369 174L416 395H304L221 0H41L124 395H33Z" horiz-adv-x="698" unicode="π"/>
			<glyph d="M483 709Q537 709 613 703T736 690L708 560Q659 558 617 535T576 475Q576 457 586 440T615 402T650 360Q682 319 697 280T713 201Q713 136 677 87T581 13T447 -12Q354 -12 266 23L310 165Q339 146 376 136T446 126Q477 126 499 144T521 190Q521 217 508 241T453 313Q420 351 403 377T387 433Q387 489 432 525T546 574Q506 579 472 579Q389 579 342 539T278 416L191 0H9L104 452Q135 595 228 652T483 709Z" horiz-adv-x="753" unicode="ẞ"/>
			<glyph d="M56 335H327L300 203H30Z" horiz-adv-x="333" unicode="‐"/>
			<glyph d="M28 332H528L500 206H0Z" horiz-adv-x="500" unicode="–"/>
			<glyph d="M28 332H1028L1000 206H0Z" horiz-adv-x="1000" unicode="—"/>
			<glyph d="M235 698H379L264 427H86Z" horiz-adv-x="333" unicode="‘"/>
			<glyph d="M198 698H376L227 427H83Z" horiz-adv-x="333" unicode="’"/>
			<glyph d="M85 162H263L114 -109H-30Z" horiz-adv-x="333" unicode="‚"/>
			<glyph d="M255 698H399L284 427H106ZM490 698H634L519 427H341Z" unicode="“"/>
			<glyph d="M221 698H399L250 427H106ZM456 698H634L485 427H341Z" unicode="”"/>
			<glyph d="M113 162H291L142 -109H-2ZM348 162H526L377 -109H233Z" unicode="„"/>
			<glyph d="M314 698H479L445 531H619L591 399H417L334 0H169L252 399H78L106 531H280Z" unicode="†"/>
			<glyph d="M316 698H481L453 562H625L600 442H428L389 255H562L536 135H364L336 0H171L199 135H27L52 255H224L263 442H91L117 562H288Z" unicode="‡"/>
			<glyph d="M266 523Q313 523 353 499T417 436T441 349Q441 301 417 261T353 197T266 174Q219 174 179 197T115 261T92 349Q92 396 115 436T178 499T266 523Z" horiz-adv-x="500" unicode="•"/>
			<glyph d="M68 162H237L203 0H34ZM401 162H570L536 0H367ZM734 162H903L869 0H700Z" horiz-adv-x="1000" unicode="…"/>
			<glyph d="M595 720H699L128 -22H23ZM226 710Q293 710 327 677T361 573Q361 482 315 422T191 363Q130 363 97 399T65 500Q65 551 83 599T137 679T226 710ZM229 626Q208 626 194 599T173 539T167 486Q167 469 173 458T194 447Q215 447 230 474T252 536T259 589Q259 626 229 626ZM528 335Q595 335 629 302T663 198Q663 107 617 47T493 -12Q432 -12 399 24T367 125Q367 176 385 224T439 304T528 335ZM851 335Q918 335 952 302T986 198Q986 107 940 47T816 -12Q755 -12 722 24T690 125Q690 176 708 224T762 304T851 335ZM531 251Q510 251 496 222T475 162T469 111Q469 94 475 83T496 72Q517 72 532 99T554 161T561 214Q561 251 531 251ZM854 251Q833 251 819 224T798 164T792 111Q792 94 798 83T819 72Q840 72 855 99T877 161T884 214Q884 251 854 251Z" horiz-adv-x="1000" unicode="‰"/>
			<glyph d="M213 473H389L190 269L339 65H176L25 269Z" horiz-adv-x="389" unicode="‹"/>
			<glyph d="M52 473H215L364 269L176 65H0L199 269Z" horiz-adv-x="389" unicode="›"/>
			<glyph d="M302 720H412L-82 -22H-192Z" horiz-adv-x="167" unicode="⁄"/>
			<glyph d="M549 710Q644 710 722 682L662 554Q621 574 557 574Q494 574 440 542T351 453H615L583 384H316Q307 355 302 314H552L519 245H307Q318 192 358 159T460 127Q488 127 518 132T575 147L551 7Q489 -12 400 -12Q311 -12 245 19T142 108T105 245H1L33 314H110Q115 355 124 384H30L62 453H150Q186 529 248 587T388 678T549 710Z" horiz-adv-x="612" unicode="€"/>
			<glyph d="M174 698H697L679 614H525Q545 591 545 553H666L648 469H533Q486 296 294 296H278L466 0H252L86 289L108 391H214Q256 391 283 396T331 418T363 469H124L142 553H375Q375 589 348 601T276 613H156Z" horiz-adv-x="612" unicode="₹"/>
			<glyph d="M205 698H391L370 597L558 666L539 576L350 507L335 437L524 506L505 416L316 347L267 117Q316 117 347 146T393 214T422 311Q432 351 433 354H612Q587 232 544 153T426 32T239 -9Q150 -9 57 0L115 274L28 242L47 333L134 364L149 433L62 402L81 492L168 523Z" horiz-adv-x="612" unicode="₺"/>
			<glyph d="M461 698H632L606 577Q724 556 778 456T832 215Q832 177 826 124T812 32L805 0H633L639 29Q648 75 655 130T662 221Q662 300 644 365T580 453L498 70H327L409 453Q349 436 300 365T220 206T172 38L164 0H-9L4 63Q29 186 87 297T233 485T435 577Z" horiz-adv-x="868" unicode="₼"/>
			<glyph d="M214 698H403Q522 698 587 654T652 513Q652 389 571 332T349 276H308L296 221H471L450 120H275L250 0H65L90 120H-7L14 221H111L123 276H26L48 377H145ZM373 581L330 377H356Q416 377 447 415T478 505Q478 542 457 561T399 581Z" horiz-adv-x="612" unicode="₽"/>
			<glyph d="M373 721Q435 721 474 682T513 585Q513 500 448 424T249 263L236 210Q224 159 224 140Q224 121 234 110T265 99Q284 99 306 108T363 139L401 48Q353 16 309 1T216 -14Q143 -14 105 22T68 111Q68 125 75 162L16 121L-26 210L102 292L149 517Q168 605 225 663T373 721ZM355 619Q338 619 327 599T312 555L278 398Q333 444 358 491T384 579Q384 594 377 606T355 619Z" horiz-adv-x="500" unicode="ℓ"/>
			<glyph d="M37 698H381V608H264V282H154V608H37ZM477 698H633L719 456H721L807 698H963V282H853V554H851L763 282H677L589 554H587V282H477Z" horiz-adv-x="1000" unicode="™"/>
			<glyph d="M478 710Q568 710 636 672T742 570T779 426Q779 326 729 247T595 126H742L715 0H389L421 126Q475 143 513 189T570 297T589 419Q589 494 557 533T465 573Q410 573 364 537T290 437T263 293Q263 225 284 185T351 126L329 0H13L40 126H176Q130 157 107 211T84 334Q84 443 132 528T269 662T478 710Z" horiz-adv-x="804" unicode="Ω"/>
			<glyph d="M302 535Q376 535 435 501T527 404T561 259H157V78Q216 19 302 19Q366 19 412 48T495 139L530 118Q484 45 431 14T302 -17Q226 -17 167 19T76 118T44 259Q44 337 76 400T167 499T302 535ZM300 500Q217 500 157 440V295H448V440Q385 500 300 500Z" horiz-adv-x="600" unicode="℮"/>
			<glyph d="M390 786Q460 786 513 755T597 664T627 519Q627 409 579 285T437 77T216 -8Q129 -8 81 44T33 178Q33 252 71 325T176 445T327 492Q379 492 416 468T470 408H471Q485 462 485 502Q485 576 448 622T347 669Q267 669 193 623L173 725Q272 786 390 786ZM334 380Q293 380 257 351T200 279T179 196Q179 156 199 132T256 108Q307 108 355 160T433 295Q429 326 403 353T334 380Z" horiz-adv-x="625" unicode="∂"/>
			<glyph d="M369 698H597L700 0H-32ZM457 554L235 132H495L459 554Z" horiz-adv-x="748" unicode="∆"/>
			<glyph d="M49 786H708V-214H556V637H202V-214H49Z" horiz-adv-x="757" unicode="∏"/>
			<glyph d="M41 786H656V636H243L496 293L227 -64H668V-214H29V-84L318 292L41 655Z" horiz-adv-x="698" unicode="∑"/>
			<glyph d="M62 316H568V190H62Z" horiz-adv-x="600" unicode="−"/>
			<glyph d="M302 720H412L-82 -22H-192Z" horiz-adv-x="167" unicode="∕"/>
			<glyph d="M170 365Q208 365 235 337T263 272Q263 234 235 206T170 179Q132 179 104 206T77 272Q77 310 104 337T170 365Z" horiz-adv-x="306" unicode="∙"/>
			<glyph d="M427 786H588L364 -214H227L85 76L27 49L-28 167L165 255L271 19Z" horiz-adv-x="603" unicode="√"/>
			<glyph d="M224 485Q278 485 325 456T420 360Q467 428 513 456T617 485Q676 485 721 459T790 385T815 274Q815 215 792 166T725 87T616 58Q562 58 515 85T420 175Q371 112 326 85T229 59Q166 59 119 87T48 163T24 274Q24 369 78 427T224 485ZM225 352Q192 352 172 329T152 271Q152 235 172 213T226 192Q256 192 284 210T343 269Q281 352 225 352ZM611 352Q559 352 497 269Q525 230 555 210T614 191Q648 191 668 213T688 272Q688 308 667 330T611 352Z" horiz-adv-x="881" unicode="∞"/>
			<glyph d="M422 785Q475 785 518 760T561 688Q561 658 541 637T490 617Q464 617 448 630T427 675Q423 700 418 710T403 720Q392 720 388 710T384 678Q384 656 388 584Q393 469 393 439V72Q393 -83 343 -148T200 -214Q147 -214 105 -187T63 -113Q63 -83 82 -64T132 -46Q160 -46 175 -60T196 -107Q200 -132 204 -140T218 -149Q228 -149 233 -140T238 -107Q238 -79 234 -23Q230 29 230 48V474Q230 561 241 626T295 738T422 785Z" horiz-adv-x="657" unicode="∫"/>
			<glyph d="M158 501Q183 501 211 494T284 471Q325 457 353 450T405 443Q432 443 444 457T459 497H558Q554 445 534 396T480 317T400 286Q375 286 345 294T273 317Q229 332 200 339T147 347Q127 347 112 332T94 292H-4Q-3 344 17 392T74 470T158 501ZM158 256Q183 256 210 249T283 227Q324 213 352 205T405 198Q432 198 444 212T459 252H558Q554 200 534 151T481 72T400 41Q375 41 345 49T273 72Q228 87 199 94T147 102Q127 102 112 87T94 47H-4Q-3 99 17 147T74 225T158 256Z" horiz-adv-x="593" unicode="≈"/>
			<glyph d="M371 629L504 563L457 468H548V316H382L337 226H548V75H263L183 -87L50 -21L98 75H5V226H172L217 316H5V468H292Z" horiz-adv-x="593" unicode="≠"/>
			<glyph d="M548 592V437L217 365L548 281V125L5 290V440ZM5 101H548V-51H5Z" horiz-adv-x="593" unicode="≤"/>
			<glyph d="M5 592L548 440V290L5 125V281L337 365L5 437ZM5 101H548V-51H5Z" horiz-adv-x="593" unicode="≥"/>
			<glyph d="M228 747H364L558 356L364 -35H226L35 356ZM296 592L190 356L296 119L401 355Z" horiz-adv-x="593" unicode="◊"/>
			<glyph d="M41 884H257L361 740H235Z" horiz-adv-x="333" unicode=""/>
			<glyph d="M285 884H502L307 740H181Z" horiz-adv-x="333" unicode=""/>
			<glyph d="M211 884H372L466 740H347L285 818L198 740H62Z" horiz-adv-x="333" unicode=""/>
			<glyph d="M100 884H218L280 806L367 884H503L354 740H193Z" horiz-adv-x="333" unicode=""/>
			<glyph d="M403 884H475Q468 820 434 781T346 743Q327 743 306 748T259 764Q220 779 204 779Q183 779 171 769T155 740H83Q90 801 123 841T210 881Q226 881 245 876T293 861Q334 845 353 845Q396 845 403 884Z" horiz-adv-x="333" unicode=""/>
			<glyph d="M133 884H271L241 740H103ZM350 884H488L458 740H320Z" horiz-adv-x="333" unicode=""/>
			<glyph d="M102 863H477L461 779H86Z" horiz-adv-x="333" unicode=""/>
			<glyph d="M101 894H182Q188 855 211 838T283 821Q318 821 349 842T391 894H479Q430 737 265 737Q192 737 146 781T101 894Z" horiz-adv-x="333" unicode=""/>
			<glyph d="M285 948Q330 948 363 915T397 836Q397 791 364 757T285 724Q240 724 206 757T173 836Q173 881 206 914T285 948ZM285 888Q264 888 248 872T233 836Q233 815 248 799T285 784Q306 784 321 799T337 836Q337 857 321 872T285 888Z" horiz-adv-x="333" unicode=""/>
			<glyph d="M152 884H369L174 740H48ZM421 884H638L443 740H317Z" horiz-adv-x="333" unicode=""/>
			<glyph d="M257 884H395L365 740H227Z" horiz-adv-x="333" unicode=""/>
			<glyph d="M138 729H284L174 530H80Z" horiz-adv-x="333" unicode=""/>
			<glyph d="M31 -73H192L99 -232H-32Z" horiz-adv-x="333" unicode=""/>
			<glyph d="M223 729H347L289 585H135Z" horiz-adv-x="333" unicode=""/>
			<glyph d="M0 718H512V0H0ZM50 667V50H462V667ZM259 609Q313 609 348 573T383 478Q383 442 369 416T319 357Q289 329 281 314T272 270L271 234H225Q225 236 224 244T223 264Q223 301 233 325T276 385L292 402Q313 422 322 437T332 474Q332 510 309 534T256 559Q222 559 201 535T174 464L124 472Q130 538 165 573T259 609ZM222 184H278V117H222Z" horiz-adv-x="512" unicode=""/>
			<glyph d="M409 762Q487 762 542 746L508 623Q475 636 451 636Q417 636 397 614T368 552L361 521H495L467 395H335L253 0H73L157 395H44L72 521H181L195 587Q213 671 268 716T409 762ZM625 738H807L779 606H597ZM579 521H761L653 0H471Z" horiz-adv-x="778" unicode="ﬁ"/>
			<glyph d="M409 762Q487 762 542 746L508 623Q475 636 451 636Q417 636 397 614T368 552L361 521H495L467 395H335L253 0H73L157 395H44L72 521H181L195 587Q213 671 268 716T409 762ZM627 750H809L653 0H471Z" horiz-adv-x="778" unicode="ﬂ"/>
		</font>
</defs>
</svg>
