<?xml version="1.0" encoding="UTF-8"?>
<svg height="100%" width="100%" xmlns="http://www.w3.org/2000/svg">
	<defs>
		<font horiz-adv-x="278" id="web">
			<font-face alphabetic="0" ascent="961" descent="-250" font-family="" panose-1="2 11 6 2 2 2 4 2 2 4"/>
			<missing-glyph d="M0 718H512V0H0ZM50 667V50H462V667ZM259 609Q313 609 348 573T383 478Q383 442 369 416T319 357Q297 337 288 325T275 295T271 244V234H225Q225 236 224 244T223 264Q223 301 233 325T276 385L292 402Q313 422 322 437T332 474Q332 510 309 534T256 559Q222 559 201 535T174 464L124 472Q130 538 165 573T259 609ZM222 184H278V117H222Z" horiz-adv-x="512"/>
			<glyph d="" unicode=" "/>
			<glyph d="M139 698H251L238 196H152ZM139 112H251V0H139Z" horiz-adv-x="389" unicode="!"/>
			<glyph d="M159 698H247V453H159ZM309 698H397V453H309Z" horiz-adv-x="556" unicode="&quot;"/>
			<glyph d="M192 698H268L239 490H357L386 698H462L433 490H528V414H422L404 284H499V208H393L364 0H288L317 208H199L170 0H94L123 208H28V284H134L152 414H56V490H163ZM228 414L210 284H328L346 414Z" horiz-adv-x="556" unicode="#"/>
			<glyph d="M239 840H314V710Q387 707 449 685L435 593Q394 610 366 616T305 622Q246 622 214 597T182 529Q182 491 209 468T291 419L313 408Q367 380 400 357T457 295T482 196Q482 116 438 65T314 -3V-140H239V-12H228Q193 -12 161 -5T84 17L94 110Q131 95 170 85T239 76Q293 76 334 106T376 190Q376 230 348 259T241 325Q188 349 153 373T97 432T76 520Q76 593 119 641T239 705Z" horiz-adv-x="556" unicode="$"/>
			<glyph d="M680 720H752L319 -22H247ZM260 710Q335 710 372 660T410 510Q410 414 371 362T260 310Q188 310 149 362T110 510Q110 612 147 661T260 710ZM260 640Q229 640 213 610T198 511Q198 441 213 410T260 380Q291 380 306 408T322 520Q322 590 306 615T260 640ZM740 388Q815 388 852 339T890 188Q890 93 851 40T740 -12Q668 -12 629 40T590 188Q590 292 627 340T740 388ZM740 318Q709 318 693 288T678 189Q678 119 693 88T740 58Q771 58 786 86T802 198Q802 268 786 293T740 318Z" horiz-adv-x="1000" unicode="%"/>
			<glyph d="M349 710Q425 710 473 668T522 552Q522 497 483 450T369 370L511 208Q530 238 540 277T554 377H648Q642 309 624 252T568 138L690 0H565L508 68Q471 26 423 7T309 -12Q204 -12 143 41T83 183Q83 254 120 304T239 387Q200 434 183 470T167 546Q167 624 217 667T349 710ZM345 634Q307 634 284 610T261 544Q261 517 275 489T323 426Q372 450 400 481T428 548Q428 634 345 634ZM287 328Q234 293 211 262T189 190Q189 135 229 99T326 64Q397 64 455 131Z" horiz-adv-x="722" unicode="&amp;"/>
			<glyph d="M95 698H183V453H95Z" unicode="'"/>
			<glyph d="M229 756H319Q236 610 200 505T165 308Q165 209 202 102T319 -140H229Q144 -14 104 94T65 308Q65 410 102 515T229 756Z" horiz-adv-x="333" unicode="("/>
			<glyph d="M14 756H104Q190 628 229 521T268 308Q268 206 231 101T104 -140H14Q98 7 133 110T168 308Q168 405 132 511T14 756Z" horiz-adv-x="333" unicode=")"/>
			<glyph d="M235 698H326L311 539L457 601L484 516L327 483L434 360L359 310L278 448L196 310L122 360L232 483L72 516L100 601L251 539Z" horiz-adv-x="556" unicode="*"/>
			<glyph d="M256 506H344V297H553V209H344V0H256V209H47V297H256Z" horiz-adv-x="600" unicode="+"/>
			<glyph d="M83 112H195L110 -133H20Z" unicode=","/>
			<glyph d="M38 307H295V231H38Z" horiz-adv-x="333" unicode="-"/>
			<glyph d="M83 112H195V0H83Z" unicode="."/>
			<glyph d="M215 710H303L63 -12H-25Z" unicode="/"/>
			<glyph d="M287 710Q405 710 464 611T524 349Q524 192 466 90T287 -12Q167 -12 108 89T50 349Q50 510 109 610T287 710ZM286 628Q221 628 188 548T156 349Q156 214 189 142T287 70Q350 70 384 141T418 349Q418 464 386 546T286 628Z" horiz-adv-x="574" unicode="0"/>
			<glyph d="M190 698H279V0H179V583L72 491L19 558Z" horiz-adv-x="373" unicode="1"/>
			<glyph d="M241 710Q342 710 405 657T468 512Q468 439 399 341T143 82H478V0H36V107Q137 196 189 245Q272 323 317 389T362 517Q362 565 324 596T228 628Q152 628 68 583L58 669Q155 710 241 710Z" horiz-adv-x="526" unicode="2"/>
			<glyph d="M219 710Q322 710 385 660T448 521Q448 460 408 417T298 361V359Q374 343 414 298T454 186Q454 -12 179 -12Q112 -12 19 15L25 108Q61 89 102 79T178 70Q248 70 298 100T348 189Q348 254 303 288T176 322H113V404H166Q242 404 292 432T342 518Q342 571 306 599T204 628Q157 628 120 617T50 590L44 679Q83 693 131 701T219 710Z" horiz-adv-x="497" unicode="3"/>
			<glyph d="M301 698H444V241H532V159H444V0H344V159H19V241ZM342 616L124 241H344V616Z" horiz-adv-x="556" unicode="4"/>
			<glyph d="M98 698H482V616H192L186 429Q226 439 275 439Q337 439 389 410T471 332T502 223Q502 150 466 97T370 16T234 -12Q152 -12 85 11L88 105Q123 86 156 78T232 70Q302 70 349 108T396 208Q396 281 348 319T226 357Q185 357 153 350T92 331Z" horiz-adv-x="550" unicode="5"/>
			<glyph d="M333 710Q369 710 413 703T477 688L463 599Q408 628 339 628Q278 628 234 594T167 502T144 374L146 375Q181 409 218 424T299 439Q364 439 411 411T483 333T509 219Q509 150 480 97T401 16T285 -12Q50 -12 50 323Q50 499 120 604T333 710ZM285 357Q228 357 192 318T156 217Q156 182 170 148T212 92T279 70Q337 70 370 112T403 217Q403 251 390 283T350 336T285 357Z" horiz-adv-x="552" unicode="6"/>
			<glyph d="M31 698H473V616L215 0H105L371 616H31Z" horiz-adv-x="504" unicode="7"/>
			<glyph d="M286 710Q352 710 401 687T476 629T502 553Q502 493 473 451T376 373Q445 349 484 301T523 187Q523 92 456 40T281 -12Q220 -12 165 10T76 77T43 183Q43 247 81 294T191 367V369Q128 391 94 435T60 542Q60 588 87 626T166 687T286 710ZM277 628Q254 628 226 616T179 583T160 529Q160 497 191 469T304 402Q346 433 365 456T390 498T396 540Q396 583 361 605T277 628ZM265 330L220 301Q182 276 165 251T149 189Q149 135 191 102T290 70Q342 70 379 100T417 185Q417 231 395 255T336 298Z" horiz-adv-x="566" unicode="8"/>
			<glyph d="M268 710Q382 710 442 627T502 375Q502 198 432 93T219 -12Q183 -12 139 -5T75 10L89 99Q144 70 213 70Q274 70 318 104T384 195T408 324L406 323Q372 290 335 274T253 259Q188 259 140 287T68 365T43 479Q43 547 71 599T151 681T268 710ZM272 628Q216 628 182 587T149 481Q149 447 162 415T202 362T267 341Q325 341 360 380T396 481Q396 516 382 549T340 605T272 628Z" horiz-adv-x="552" unicode="9"/>
			<glyph d="M83 510H195V398H83ZM83 112H195V0H83Z" unicode=":"/>
			<glyph d="M83 510H195V398H83ZM83 112H195L110 -133H20Z" unicode=";"/>
			<glyph d="M554 514V426L160 253L554 80V-8L46 215V291Z" horiz-adv-x="600" unicode="&lt;"/>
			<glyph d="M47 402H553V314H47ZM47 192H553V104H47Z" horiz-adv-x="600" unicode="="/>
			<glyph d="M46 514L554 291V215L46 -8V80L440 253L46 426Z" horiz-adv-x="600" unicode="&gt;"/>
			<glyph d="M240 710Q296 710 345 688T425 626T456 528Q456 492 444 461T413 405T359 339Q323 296 310 273T298 217V196H204V210Q204 249 210 273T233 323T289 393Q350 460 350 521Q350 569 316 595T228 622Q137 622 81 582L74 677Q152 710 240 710ZM195 112H307V0H195Z" horiz-adv-x="500" unicode="?"/>
			<glyph d="M416 710Q505 710 581 672T704 566T750 413Q750 325 709 262T612 167T513 135Q489 135 472 150T455 191H453Q427 164 398 149T344 135Q303 135 269 156T215 215T196 295Q196 358 223 416T299 510T411 546Q485 546 525 480L540 532H615L549 282Q540 250 540 237Q540 211 558 211Q587 211 615 236T662 305T680 398Q680 473 645 528T549 611T415 640Q333 640 268 602T168 496T132 347Q132 257 168 192T270 92T424 58Q486 58 543 81T642 147H718Q670 72 591 30T420 -12Q315 -12 230 32T98 158T50 349Q50 455 98 537T231 664T416 710ZM416 464Q380 464 349 440T301 380T284 308Q284 268 305 242T366 217Q401 217 430 242T477 306T494 379Q494 417 471 440T416 464Z" horiz-adv-x="800" unicode="@"/>
			<glyph d="M310 698H415L710 0H601L530 176H188L117 0H12ZM359 604L220 258H498Z" horiz-adv-x="722" unicode="A"/>
			<glyph d="M83 698H272Q517 698 517 522Q517 459 483 417T373 356V354Q451 347 493 300T535 186Q535 92 469 46T272 0H83ZM183 616V400H249Q336 400 376 424T417 512Q417 564 382 590T286 616ZM183 318V82H262Q346 82 387 109T429 195Q429 256 387 287T252 318Z" horiz-adv-x="611" unicode="B"/>
			<glyph d="M422 710Q511 710 579 680L571 583Q505 622 427 622Q349 622 288 587T193 489T159 349Q159 270 193 208T288 111T422 76Q463 76 506 85T574 110L580 13Q519 -12 421 -12Q311 -12 227 33T98 160T53 352Q53 457 100 538T232 664T422 710Z" horiz-adv-x="611" unicode="C"/>
			<glyph d="M83 698H289Q395 698 479 656T612 536T661 354Q661 184 563 92T290 0H83ZM183 610V88H293Q414 88 484 150T555 351Q555 429 522 488T431 578T299 610Z" horiz-adv-x="722" unicode="D"/>
			<glyph d="M94 698H485V610H194V406H459V318H194V88H485V0H94Z" horiz-adv-x="556" unicode="E"/>
			<glyph d="M83 698H454V610H183V406H442V318H183V0H83Z" horiz-adv-x="500" unicode="F"/>
			<glyph d="M423 710Q480 710 525 703T627 675L619 574Q580 600 534 611T428 622Q349 622 288 586T193 489T159 349Q159 270 193 208T288 111T423 76Q461 76 483 78T534 88V300H387V382H634V19Q545 -12 422 -12Q310 -12 226 33T98 161T53 352Q53 457 100 538T231 664T423 710Z" horiz-adv-x="722" unicode="G"/>
			<glyph d="M94 698H194V406H528V698H628V0H528V318H194V0H94Z" horiz-adv-x="722" unicode="H"/>
			<glyph d="M89 698H189V0H89Z" unicode="I"/>
			<glyph d="M198 698H298V180Q298 88 248 38T102 -12Q53 -12 21 0V86Q49 76 84 76Q145 76 171 107T198 210Z" horiz-adv-x="389" unicode="J"/>
			<glyph d="M94 698H194V391L492 698H625L297 368L651 0H505L194 342V0H94Z" horiz-adv-x="667" unicode="K"/>
			<glyph d="M88 698H188V88H480V0H88Z" horiz-adv-x="500" unicode="L"/>
			<glyph d="M90 698H255L474 118L689 698H854V0H754V604H752L521 0H423L192 604H190V0H90Z" horiz-adv-x="944" unicode="M"/>
			<glyph d="M88 698H224L532 136H534V698H634V0H506L190 574H188V0H88Z" horiz-adv-x="722" unicode="N"/>
			<glyph d="M389 710Q491 710 567 664T684 537T725 349Q725 240 684 158T567 32T389 -12Q287 -12 211 32T94 159T53 349Q53 452 93 534T208 663T389 710ZM388 622Q317 622 265 585T186 487T159 349Q159 270 186 208T265 111T389 76Q461 76 513 111T592 208T619 349Q619 422 593 484T516 584T388 622Z" horiz-adv-x="778" unicode="O"/>
			<glyph d="M83 698H268Q394 698 461 645T528 489Q528 387 461 333T280 279H183V0H83ZM183 610V367H282Q341 367 381 398T422 490Q422 546 375 578T264 610Z" horiz-adv-x="556" unicode="P"/>
			<glyph d="M389 710Q490 710 566 665T683 538T725 349Q725 233 676 145T537 18L699 -129H575L445 -8Q420 -12 391 -12Q283 -12 207 35T92 163T53 349Q53 451 92 533T207 662T389 710ZM388 622Q316 622 264 585T185 486T159 349Q159 272 185 210T263 112T389 76Q465 76 517 113T594 213T619 349Q619 418 594 480T518 582T388 622Z" horiz-adv-x="778" unicode="Q"/>
			<glyph d="M83 698H266Q406 698 465 650T525 509Q525 449 486 405T381 350V348Q406 339 421 321T455 265L581 0H467L369 222Q352 261 337 279T304 303T254 310H183V0H83ZM183 610V398H270Q338 398 378 427T419 507Q419 556 382 583T278 610Z" horiz-adv-x="611" unicode="R"/>
			<glyph d="M271 710Q349 710 420 685L406 593Q365 610 337 616T276 622Q217 622 185 597T153 529Q153 493 180 468T262 419L284 408Q337 382 370 358T428 295T453 196Q453 96 385 42T199 -12Q164 -12 132 -5T55 17L65 110Q102 95 141 85T210 76Q264 76 305 106T347 190Q347 230 319 259T212 325Q159 349 124 373T68 432T47 520Q47 607 108 658T271 710Z" horiz-adv-x="500" unicode="S"/>
			<glyph d="M11 698H545V610H328V0H228V610H11Z" horiz-adv-x="556" unicode="T"/>
			<glyph d="M90 698H190V300Q190 187 232 131T361 76Q448 76 490 132T532 300V698H632V287Q632 145 562 66T361 -12Q230 -12 160 66T90 287Z" horiz-adv-x="722" unicode="U"/>
			<glyph d="M6 698H118L333 88H335L556 698H661L394 0H269Z" horiz-adv-x="667" unicode="V"/>
			<glyph d="M2 698H112L279 100H281L430 698H572L723 100H725L892 698H998L783 0H654L502 610H500L347 0H213Z" horiz-adv-x="1000" unicode="W"/>
			<glyph d="M31 698H151L337 430L522 698H636L401 365L659 0H533L327 296L128 0H8L265 363Z" horiz-adv-x="667" unicode="X"/>
			<glyph d="M11 698H128L336 385L539 698H656L384 292V0H284V292Z" horiz-adv-x="667" unicode="Y"/>
			<glyph d="M44 698H509V608L148 88H515V0H32V90L394 610H44Z" horiz-adv-x="556" unicode="Z"/>
			<glyph d="M95 756H284V686H183V-70H284V-140H95Z" horiz-adv-x="333" unicode="["/>
			<glyph d="M-25 710H63L303 -12H215Z" unicode="\"/>
			<glyph d="M49 756H238V-140H49V-70H150V686H49Z" horiz-adv-x="333" unicode="]"/>
			<glyph d="M259 698H341L540 294H450L300 606L150 294H60Z" horiz-adv-x="600" unicode="^"/>
			<glyph d="M0 -75H500V-125H0Z" horiz-adv-x="500" unicode="_"/>
			<glyph d="M7 706H116L205 562H138Z" unicode="`"/>
			<glyph d="M272 522Q377 522 427 471T477 312V88Q477 32 481 0H393V66H391Q364 28 323 8T232 -12Q143 -12 94 29T46 147Q46 226 113 270T290 315Q341 315 383 313Q383 383 353 414T257 446Q218 446 178 432T109 394L104 474Q185 522 272 522ZM322 245Q240 245 193 220T146 147Q146 111 174 87T242 64Q307 64 345 101T383 198V243Q376 243 358 244T322 245Z" horiz-adv-x="556" unicode="a"/>
			<glyph d="M80 750H174V440H176Q227 522 345 522Q414 522 464 488T539 395T565 264Q565 189 541 126T467 26T346 -12Q291 -12 245 10T172 72H170V0H80ZM324 446Q277 446 243 419T191 348T174 254Q174 207 190 163T241 91T324 64Q368 64 400 91T448 162T465 258Q465 345 428 395T324 446Z" horiz-adv-x="611" unicode="b"/>
			<glyph d="M298 522Q326 522 359 516T412 502L404 424Q351 446 302 446Q253 446 215 419T158 349T138 255Q138 206 156 162T213 91T308 64Q333 64 360 71T409 93L416 9Q368 -12 298 -12Q222 -12 163 24T71 121T38 255Q38 332 70 393T162 488T298 522Z" horiz-adv-x="444" unicode="c"/>
			<glyph d="M437 750H531V0H441V72H439Q413 33 367 10T265 -12Q193 -12 143 26T70 126T46 264Q46 335 71 393T145 487T266 522Q385 522 435 440H437ZM285 446Q218 446 182 394T146 262Q146 176 184 120T287 64Q336 64 370 92T420 163T437 254Q437 302 420 346T370 418T285 446Z" horiz-adv-x="611" unicode="d"/>
			<glyph d="M285 522Q510 522 510 234H146Q146 184 169 145T231 85T314 64Q353 64 399 79T471 115V21Q421 1 385 -5T311 -12Q182 -12 114 59T46 264Q46 340 76 398T160 489T285 522ZM282 446Q226 446 190 408T146 304H410Q409 367 375 406T282 446Z" horiz-adv-x="556" unicode="e"/>
			<glyph d="M312 762Q339 762 375 756L371 680Q354 686 326 686Q276 686 255 659T235 573V510H370V434H235V0H141V434H21V510H141V560Q141 664 180 713T312 762Z" horiz-adv-x="389" unicode="f"/>
			<glyph d="M274 522Q398 522 442 434H444V510H531V21Q531 -98 466 -160T268 -222Q221 -222 181 -214T85 -187L95 -100Q152 -127 191 -136T278 -146Q353 -146 395 -99T437 29V79H435Q406 41 360 20T264 0Q194 0 144 34T70 126T46 251Q46 322 73 384T151 484T274 522ZM288 446Q244 446 212 418T163 347T146 256Q146 206 164 165T214 100T288 76Q329 76 363 98T417 160T437 250Q437 334 398 390T288 446Z" horiz-adv-x="611" unicode="g"/>
			<glyph d="M80 750H174V437H176Q202 478 244 500T340 522Q435 522 483 465T531 303V0H437V268Q437 355 412 400T326 446Q247 446 210 386T174 239V0H80Z" horiz-adv-x="611" unicode="h"/>
			<glyph d="M86 730H192V624H86ZM92 510H186V0H92Z" unicode="i"/>
			<glyph d="M86 730H192V624H86ZM92 510H186V-33Q186 -136 148 -179T42 -222Q1 -222 -16 -218L-13 -137Q2 -140 24 -140Q58 -140 75 -110T92 -31Z" unicode="j"/>
			<glyph d="M80 750H174V303L379 510H507L270 284L537 0H402L174 262V0H80Z" horiz-adv-x="556" unicode="k"/>
			<glyph d="M92 750H186V0H92Z" unicode="l"/>
			<glyph d="M331 522Q380 522 419 496T476 423Q497 468 542 495T635 522Q721 522 766 472T811 327V0H717V306Q717 372 694 409T626 446Q561 446 526 393T492 256V0H398V306Q398 371 375 408T307 446Q243 446 208 393T173 257V0H79V510H167V436H169Q197 481 236 501T331 522Z" horiz-adv-x="889" unicode="m"/>
			<glyph d="M340 522Q435 522 483 466T531 305V0H437V276Q437 370 407 408T325 446Q252 446 213 390T174 237V0H80V510H171V429H173Q196 473 241 497T340 522Z" horiz-adv-x="611" unicode="n"/>
			<glyph d="M306 522Q380 522 439 488T531 394T565 255Q565 183 532 122T440 24T305 -12Q232 -12 172 23T79 120T46 255Q46 332 78 393T170 488T306 522ZM305 446Q258 446 221 419T165 348T146 255Q146 204 164 160T219 90T306 64Q356 64 392 90T446 160T465 255Q465 306 445 350T389 420T305 446Z" horiz-adv-x="611" unicode="o"/>
			<glyph d="M345 522Q414 522 464 488T539 395T565 264Q565 189 541 126T467 26T346 -12Q227 -12 176 70H174V-210H80V510H170V438H172Q199 477 245 499T345 522ZM326 446Q278 446 243 419T191 348T174 254Q174 207 190 163T241 91T324 64Q367 64 399 90T448 161T465 258Q465 351 425 398T326 446Z" horiz-adv-x="611" unicode="p"/>
			<glyph d="M266 522Q321 522 367 499T439 437H441V510H531V-210H437V67H435Q412 30 366 9T265 -12Q194 -12 144 25T70 124T46 264Q46 334 70 393T144 487T266 522ZM285 446Q219 446 182 394T146 262Q146 204 164 159T214 89T287 64Q339 64 372 93T421 166T437 254Q437 303 420 347T368 418T285 446Z" horiz-adv-x="611" unicode="q"/>
			<glyph d="M304 522Q333 522 365 515V431Q343 440 313 440Q249 440 211 383T174 232V0H80V510H168V431H170Q189 472 226 497T304 522Z" horiz-adv-x="389" unicode="r"/>
			<glyph d="M214 522Q244 522 271 517T331 502L323 420Q309 429 275 437T224 446Q184 446 159 429T134 384Q134 355 157 335T233 293Q299 264 327 231T355 147Q355 75 306 31T176 -12Q89 -12 37 16L42 100Q65 85 99 74T159 64Q200 64 227 82T255 137Q255 160 235 180T163 223Q89 256 61 289T34 366Q34 442 84 482T214 522Z" horiz-adv-x="389" unicode="s"/>
			<glyph d="M216 658V510H351V434H216V153Q216 116 237 90T295 64Q330 64 359 82V2Q309 -12 278 -12Q201 -12 161 26T122 135V434H7V510H122V628Z" horiz-adv-x="389" unicode="t"/>
			<glyph d="M80 510H174V253Q174 142 203 103T286 64Q357 64 397 119T437 273V510H531V0H440V81H438Q419 40 373 14T271 -12Q176 -12 128 44T80 206Z" horiz-adv-x="611" unicode="u"/>
			<glyph d="M11 510H114L252 94H254L395 510H489L306 0H194Z" horiz-adv-x="500" unicode="v"/>
			<glyph d="M12 510H115L232 88H234L364 510H475L603 88H605L729 510H821L657 0H548L416 428H414L285 0H176Z" horiz-adv-x="833" unicode="w"/>
			<glyph d="M28 510H145L256 328L369 510H474L310 267L490 0H374L248 200L122 0H10L194 267Z" horiz-adv-x="500" unicode="x"/>
			<glyph d="M7 510H110L247 88H249L389 510H484L282 -50Q253 -132 213 -177T100 -222Q74 -222 56 -219T36 -215L42 -138Q66 -146 86 -146Q129 -146 158 -109T198 -21Q198 -13 191 3T184 23Z" horiz-adv-x="500" unicode="y"/>
			<glyph d="M57 510H446V428L152 76H457V0H43V82L337 434H57Z" horiz-adv-x="500" unicode="z"/>
			<glyph d="M243 756H314V686H261Q211 686 211 611V427Q211 383 186 351T119 309V307Q163 300 187 267T211 186V8Q211 -31 223 -50T262 -70H314V-140H238Q208 -140 181 -124T139 -79T123 -16V169Q123 213 98 242T37 273V343Q72 344 97 372T123 444V630Q123 684 157 720T243 756Z" horiz-adv-x="333" unicode="{"/>
			<glyph d="M67 750H155V-250H67Z" horiz-adv-x="222" unicode="|"/>
			<glyph d="M19 756H95Q125 756 151 740T194 695T210 632V447Q210 403 235 373T296 343V273Q261 272 235 243T210 172V-14Q210 -68 176 -104T90 -140H19V-70H72Q122 -70 122 5V189Q122 233 146 265T214 307V309Q170 316 146 348T122 430V608Q122 647 110 666T71 686H19Z" horiz-adv-x="333" unicode="}"/>
			<glyph d="M495 333L531 263Q487 178 406 178Q364 178 293 210Q250 230 229 238T194 246Q171 246 151 230T105 173L69 243Q113 328 194 328Q238 328 312 294Q352 275 372 267T407 260Q431 260 451 277T495 333Z" horiz-adv-x="600" unicode="~"/>
			<glyph d="" unicode=" "/>
			<glyph d="M139 510H251V398H139ZM152 314H238L251 -188H139Z" horiz-adv-x="389" unicode="¡"/>
			<glyph d="M396 634H453L418 515Q450 508 463 502L455 424Q425 437 397 441L292 76Q325 64 359 64Q384 64 411 71T460 93L467 9Q421 -12 349 -12Q308 -12 270 0L231 -133H174L219 23Q158 57 123 118T89 255Q89 332 121 392T213 487T349 522Q357 522 363 521ZM341 445Q296 442 261 415T208 347T189 255Q189 213 202 174T244 109Z" horiz-adv-x="556" unicode="¢"/>
			<glyph d="M393 710Q451 710 510 691L502 598Q448 622 402 622Q328 622 289 579T250 456V406H411V348H250V88H497V0H59V88H150V348H71V406H150V463Q150 533 177 589T258 677T393 710Z" horiz-adv-x="556" unicode="£"/>
			<glyph d="M78 603L133 548Q161 571 201 584T281 597Q323 597 362 584T431 548L485 603L535 551L481 497Q504 471 516 431T529 349Q529 308 516 269T481 203L535 146L485 95L431 152Q403 127 363 114T281 101Q239 101 200 114T133 152L78 95L27 146L83 203Q33 262 33 349Q33 392 45 431T83 497L27 551ZM280 515Q237 515 200 492T142 432T121 349Q121 305 142 267T200 206T281 183Q326 183 362 206T420 267T441 349Q441 392 420 430T363 491T280 515Z" horiz-adv-x="556" unicode="¤"/>
			<glyph d="M6 698H117L281 385L439 698H550L369 366H470V308H337L329 292V220H470V162H329V0H229V162H88V220H229V292L221 308H88V366H189Z" horiz-adv-x="556" unicode="¥"/>
			<glyph d="M67 675H155V325H67ZM67 175H155V-175H67Z" horiz-adv-x="222" unicode="¦"/>
			<glyph d="M299 710Q366 710 442 691L433 600Q401 614 368 621T311 628Q260 628 221 610T182 552Q182 521 209 500T297 459Q395 427 439 391T483 292Q483 253 467 225T412 166Q442 147 459 116T476 51Q476 -7 443 -46T358 -105T249 -124Q159 -124 89 -99L98 -7Q165 -42 262 -42Q314 -42 348 -17T382 48Q382 75 356 94T270 133Q177 163 130 200T84 305Q84 347 102 377T157 429Q123 448 105 478T88 548Q88 599 118 635T196 691T299 710ZM209 402Q172 374 172 325Q172 290 203 265T297 220Q348 203 359 198Q379 220 387 237T395 273Q395 305 368 329T278 375Q218 396 209 402Z" horiz-adv-x="556" unicode="§"/>
			<glyph d="M10 684H104V584H10ZM174 684H268V584H174Z" unicode="¨"/>
			<glyph d="M400 710Q499 710 581 661T712 529T761 349Q761 252 712 169T581 37T400 -12Q303 -12 220 36T88 168T39 349Q39 446 87 529T218 661T400 710ZM399 640Q324 640 261 601T163 496T127 349Q127 265 163 199T262 95T400 58Q475 58 537 95T636 199T673 349Q673 429 637 496T539 601T399 640ZM406 567Q476 567 524 526T582 417H509Q502 454 474 475T407 497Q347 497 313 456T280 351Q280 284 315 241T409 199Q448 199 475 221T509 285H582Q571 214 523 171T409 129Q349 129 302 157T229 236T204 349Q204 411 227 460T297 538T406 567Z" horiz-adv-x="800" unicode="©"/>
			<glyph d="M181 710Q263 710 298 680T334 582V449Q334 431 337 396H253V434H251Q222 388 153 388Q101 388 62 411T23 484Q23 532 69 559T200 587Q232 587 252 585Q252 622 231 637T173 652Q111 652 66 619L63 682Q118 710 181 710ZM211 535Q162 535 133 521T105 481Q105 465 122 455T165 446Q252 446 252 506V533Q224 535 211 535Z" horiz-adv-x="361" unicode="ª"/>
			<glyph d="M194 471H282L152 269L282 67H194L51 269ZM396 471H484L354 269L484 67H396L253 269Z" horiz-adv-x="556" unicode="«"/>
			<glyph d="M47 402H553V104H465V314H47Z" horiz-adv-x="600" unicode="¬"/>
			<glyph d="M38 307H295V231H38Z" horiz-adv-x="333" unicode="­"/>
			<glyph d="M400 710Q499 710 581 661T712 529T761 349Q761 252 712 169T581 37T400 -12Q303 -12 220 36T88 168T39 349Q39 446 87 529T218 661T400 710ZM399 640Q324 640 261 601T163 496T127 349Q127 265 163 199T262 95T400 58Q475 58 537 95T636 199T673 349Q673 429 637 496T539 601T399 640ZM261 555H413Q487 555 525 527T564 435Q564 334 457 325L567 146H489L383 322H337V146H261ZM337 497V380H408Q450 380 469 394T488 441Q488 497 406 497Z" horiz-adv-x="800" unicode="®"/>
			<glyph d="M-9 665H287V607H-9Z" unicode="¯"/>
			<glyph d="M200 710Q238 710 271 691T323 639T343 567Q343 528 324 495T272 443T200 424Q161 424 128 443T76 496T57 567Q57 605 76 638T128 690T200 710ZM200 646Q167 646 144 623T121 567Q121 534 144 511T200 488Q233 488 256 511T279 567Q279 600 256 623T200 646Z" horiz-adv-x="400" unicode="°"/>
			<glyph d="M256 506H344V359H553V271H344V124H256V271H47V359H256ZM47 88H553V0H47Z" horiz-adv-x="600" unicode="±"/>
			<glyph d="M169 856Q238 856 280 825T323 735Q323 690 272 628T159 518Q137 502 131 500V498H330V428H31V504Q144 592 189 644T235 732Q235 756 211 771T154 786Q101 786 51 757L45 831Q104 856 169 856ZZ" horiz-adv-x="361" unicode="²"/>
			<glyph d="M170 856Q240 856 283 826T326 743Q326 707 298 681T226 648V646Q277 639 303 610T330 541Q330 484 286 453T145 422Q90 422 32 438L42 514Q54 505 81 498T136 492Q177 492 209 505T242 545Q242 577 210 594T142 612H93V682H130Q178 682 208 698T238 739Q238 763 210 774T148 786Q104 786 52 764L48 836Q73 845 105 850T170 856ZZZ" horiz-adv-x="361" unicode="³"/>
			<glyph d="M162 706H271L140 562H73Z" unicode="´"/>
			<glyph d="M80 510H174V240Q174 145 202 104T286 64Q356 64 396 118T437 272V510H531V0H440V81H438Q419 39 372 13T271 -12Q210 -12 174 8V-210H80Z" horiz-adv-x="611" unicode="µ"/>
			<glyph d="M251 698H527V-112H439V628H324V-112H236V333Q169 333 120 356T46 420T20 513Q20 604 79 651T251 698Z" horiz-adv-x="600" unicode="¶"/>
			<glyph d="M140 362Q164 362 181 345T198 304Q198 279 181 261T140 244Q116 244 98 262T80 304Q80 327 98 344T140 362Z" unicode="·"/>
			<glyph d="M200 0H247L201 -60L203 -62Q217 -57 233 -57Q268 -57 292 -77T316 -130Q316 -173 278 -197T185 -222Q140 -222 101 -201L119 -167Q141 -176 154 -179T184 -182Q208 -182 224 -170T240 -136Q240 -118 227 -107T194 -97Q175 -97 153 -105L136 -86Z" unicode="¸"/>
			<glyph d="M161 850H242V428H154V774L84 719L50 765Z" horiz-adv-x="361" unicode="¹"/>
			<glyph d="M198 710Q275 710 322 665T370 549Q370 504 348 467T286 409T198 388Q147 388 107 410T47 469T26 549Q26 621 74 665T198 710ZM198 652Q156 652 132 624T108 549Q108 499 131 472T198 446Q243 446 265 472T288 549Q288 596 264 624T198 652Z" horiz-adv-x="397" unicode="º"/>
			<glyph d="M72 471H160L303 269L160 67H72L202 269ZM274 471H362L505 269L362 67H274L404 269Z" horiz-adv-x="556" unicode="»"/>
			<glyph d="M576 720H648L215 -22H143ZM144 704H225V282H137V628L67 573L33 619ZM633 422H749V153H801V83H749V0H661V83H449V144ZM659 352L531 153H661V352Z" horiz-adv-x="834" unicode="¼"/>
			<glyph d="M545 720H617L184 -22H112ZM144 704H225V282H137V628L67 573L33 619ZM640 428Q709 428 751 397T794 307Q794 263 743 200T630 90Q608 74 602 72V70H801V0H502V76Q615 164 660 217T706 304Q706 328 682 343T625 358Q572 358 522 329L516 403Q575 428 640 428ZZ" horiz-adv-x="834" unicode="½"/>
			<glyph d="M619 720H691L258 -22H186ZM170 710Q240 710 283 680T326 597Q326 561 298 536T226 502V500Q277 493 303 464T330 395Q330 340 287 308T145 276Q90 276 32 292L42 368Q54 359 81 352T136 346Q177 346 209 359T242 399Q242 431 210 448T142 466H93V536H130Q178 536 208 552T238 593Q238 617 210 628T148 640Q104 640 52 618L48 690Q72 699 105 704T170 710ZM633 422H749V153H801V83H749V0H661V83H449V144ZM659 352L531 153H661V352ZZZ" horiz-adv-x="834" unicode="¾"/>
			<glyph d="M193 510H305V398H193ZM202 314H296V300Q296 261 290 236T267 186T211 117Q150 50 150 -11Q150 -59 184 -85T272 -112Q363 -112 419 -72L426 -167Q348 -200 260 -200Q204 -200 154 -178T74 -116T44 -18Q44 18 56 48T87 104T141 171Q177 213 189 236T202 293Z" horiz-adv-x="500" unicode="¿"/>
			<glyph d="M310 698H415L710 0H601L530 176H188L117 0H12ZM359 604L220 258H498ZM229 884H338L427 740H360Z" horiz-adv-x="722" unicode="À"/>
			<glyph d="M310 698H415L710 0H601L530 176H188L117 0H12ZM359 604L220 258H498ZM384 884H493L362 740H295Z" horiz-adv-x="722" unicode="Á"/>
			<glyph d="M310 698H415L710 0H601L530 176H188L117 0H12ZM359 604L220 258H498ZM315 884H406L506 740H426L360 838L295 740H216Z" horiz-adv-x="722" unicode="Â"/>
			<glyph d="M310 698H415L710 0H601L530 176H188L117 0H12ZM359 604L220 258H498ZM285 863Q302 863 321 857T367 839Q396 826 411 821T442 817Q460 817 471 829T485 863H531Q523 807 498 779T437 751Q421 751 402 756T357 774Q327 787 312 792T282 797Q262 797 251 784T237 751H191Q199 805 222 834T285 863Z" horiz-adv-x="722" unicode="Ã"/>
			<glyph d="M310 698H415L710 0H601L530 176H188L117 0H12ZM359 604L220 258H498ZM232 862H326V762H232ZM396 862H490V762H396Z" horiz-adv-x="722" unicode="Ä"/>
			<glyph d="M310 698H415L710 0H601L530 176H188L117 0H12ZM359 604L220 258H498ZM361 935Q402 935 432 905T463 833Q463 792 433 761T361 731Q319 731 289 761T259 833Q259 875 289 905T361 935ZM361 895Q336 895 317 876T299 833Q299 809 317 790T361 771Q385 771 404 790T423 833Q423 857 404 876T361 895Z" horiz-adv-x="722" unicode="Å"/>
			<glyph d="M424 698H863V610H586L599 406H845V318H604L618 88H873V0H526L515 176H218L113 0H2ZM486 628L266 258H510L488 628Z" horiz-adv-x="944" unicode="Æ"/>
			<glyph d="M422 710Q509 710 579 680L571 583Q505 622 427 622Q346 622 285 586T191 487T159 349Q159 271 193 209T287 111T422 76Q463 76 506 85T574 110L580 13Q551 1 510 -5T426 -12Q407 -12 398 -10L360 -60L362 -62Q377 -57 392 -57Q428 -57 451 -77T475 -130Q475 -176 435 -199T344 -222Q299 -222 260 -201L278 -167Q313 -182 342 -182Q369 -182 384 -170T399 -136Q399 -118 386 -107T353 -97Q334 -97 312 -105L295 -86L353 -7Q212 15 132 111T53 352Q53 456 100 537T230 664T422 710Z" horiz-adv-x="611" unicode="Ç"/>
			<glyph d="M94 698H485V610H194V406H459V318H194V88H485V0H94ZM146 884H255L344 740H277Z" horiz-adv-x="556" unicode="È"/>
			<glyph d="M94 698H485V610H194V406H459V318H194V88H485V0H94ZM301 884H410L279 740H212Z" horiz-adv-x="556" unicode="É"/>
			<glyph d="M94 698H485V610H194V406H459V318H194V88H485V0H94ZM232 884H323L423 740H343L277 838L212 740H133Z" horiz-adv-x="556" unicode="Ê"/>
			<glyph d="M94 698H485V610H194V406H459V318H194V88H485V0H94ZM149 862H243V762H149ZM313 862H407V762H313Z" horiz-adv-x="556" unicode="Ë"/>
			<glyph d="M89 698H189V0H89ZM7 884H116L205 740H138Z" unicode="Ì"/>
			<glyph d="M89 698H189V0H89ZM162 884H271L140 740H73Z" unicode="Í"/>
			<glyph d="M89 698H189V0H89ZM93 884H184L284 740H204L138 838L73 740H-6Z" unicode="Î"/>
			<glyph d="M89 698H189V0H89ZM10 862H104V762H10ZM174 862H268V762H174Z" unicode="Ï"/>
			<glyph d="M83 698H289Q395 698 479 656T612 536T661 354Q661 184 563 92T290 0H83V342H15V406H83ZM183 610V406H366V342H183V88H290Q415 88 485 150T555 351Q555 429 522 488T431 578T299 610Z" horiz-adv-x="722" unicode="Ð"/>
			<glyph d="M88 698H224L532 136H534V698H634V0H506L190 574H188V0H88ZM285 863Q302 863 321 857T367 839Q396 826 411 821T442 817Q460 817 471 829T485 863H531Q523 807 498 779T437 751Q421 751 402 756T357 774Q327 787 312 792T282 797Q262 797 251 784T237 751H191Q199 805 222 834T285 863Z" horiz-adv-x="722" unicode="Ñ"/>
			<glyph d="M389 710Q491 710 567 664T684 537T725 349Q725 240 684 158T567 32T389 -12Q287 -12 211 32T94 159T53 349Q53 452 93 534T208 663T389 710ZM388 622Q317 622 265 585T186 487T159 349Q159 270 186 208T265 111T389 76Q461 76 513 111T592 208T619 349Q619 422 593 484T516 584T388 622ZM257 884H366L455 740H388Z" horiz-adv-x="778" unicode="Ò"/>
			<glyph d="M389 710Q491 710 567 664T684 537T725 349Q725 240 684 158T567 32T389 -12Q287 -12 211 32T94 159T53 349Q53 452 93 534T208 663T389 710ZM388 622Q317 622 265 585T186 487T159 349Q159 270 186 208T265 111T389 76Q461 76 513 111T592 208T619 349Q619 422 593 484T516 584T388 622ZM412 884H521L390 740H323Z" horiz-adv-x="778" unicode="Ó"/>
			<glyph d="M389 710Q491 710 567 664T684 537T725 349Q725 240 684 158T567 32T389 -12Q287 -12 211 32T94 159T53 349Q53 452 93 534T208 663T389 710ZM388 622Q317 622 265 585T186 487T159 349Q159 270 186 208T265 111T389 76Q461 76 513 111T592 208T619 349Q619 422 593 484T516 584T388 622ZM343 884H434L534 740H454L388 838L323 740H244Z" horiz-adv-x="778" unicode="Ô"/>
			<glyph d="M389 710Q491 710 567 664T684 537T725 349Q725 240 684 158T567 32T389 -12Q287 -12 211 32T94 159T53 349Q53 452 93 534T208 663T389 710ZM388 622Q317 622 265 585T186 487T159 349Q159 270 186 208T265 111T389 76Q461 76 513 111T592 208T619 349Q619 422 593 484T516 584T388 622ZM313 863Q330 863 349 857T395 839Q424 826 439 821T470 817Q488 817 499 829T513 863H559Q551 807 526 779T465 751Q449 751 430 756T385 774Q355 787 340 792T310 797Q290 797 279 784T265 751H219Q227 805 250 834T313 863Z" horiz-adv-x="778" unicode="Õ"/>
			<glyph d="M389 710Q491 710 567 664T684 537T725 349Q725 240 684 158T567 32T389 -12Q287 -12 211 32T94 159T53 349Q53 452 93 534T208 663T389 710ZM388 622Q317 622 265 585T186 487T159 349Q159 270 186 208T265 111T389 76Q461 76 513 111T592 208T619 349Q619 422 593 484T516 584T388 622ZM260 862H354V762H260ZM424 862H518V762H424Z" horiz-adv-x="778" unicode="Ö"/>
			<glyph d="M130 485L300 314L470 485L532 423L361 253L532 83L470 21L300 192L130 21L68 83L238 253L68 423Z" horiz-adv-x="600" unicode="×"/>
			<glyph d="M644 717L680 689L626 618Q675 569 700 500T725 349Q725 241 684 159T568 33T389 -12Q269 -12 186 49L132 -21L94 5L151 79Q103 127 78 196T53 349Q53 453 93 535T209 663T389 710Q504 710 591 648ZM391 622Q311 622 259 581T183 479T159 349Q159 294 173 245T214 160L532 572Q474 622 391 622ZM563 537L246 126Q302 76 389 76Q465 76 516 113T593 213T619 349Q619 402 604 451T563 537Z" horiz-adv-x="778" unicode="Ø"/>
			<glyph d="M90 698H190V300Q190 187 232 131T361 76Q448 76 490 132T532 300V698H632V287Q632 145 562 66T361 -12Q230 -12 160 66T90 287ZM229 884H338L427 740H360Z" horiz-adv-x="722" unicode="Ù"/>
			<glyph d="M90 698H190V300Q190 187 232 131T361 76Q448 76 490 132T532 300V698H632V287Q632 145 562 66T361 -12Q230 -12 160 66T90 287ZM384 884H493L362 740H295Z" horiz-adv-x="722" unicode="Ú"/>
			<glyph d="M90 698H190V300Q190 187 232 131T361 76Q448 76 490 132T532 300V698H632V287Q632 145 562 66T361 -12Q230 -12 160 66T90 287ZM315 884H406L506 740H426L360 838L295 740H216Z" horiz-adv-x="722" unicode="Û"/>
			<glyph d="M90 698H190V300Q190 187 232 131T361 76Q448 76 490 132T532 300V698H632V287Q632 145 562 66T361 -12Q230 -12 160 66T90 287ZM232 862H326V762H232ZM396 862H490V762H396Z" horiz-adv-x="722" unicode="Ü"/>
			<glyph d="M11 698H128L336 385L539 698H656L384 292V0H284V292ZM357 884H466L335 740H268Z" horiz-adv-x="667" unicode="Ý"/>
			<glyph d="M83 698H183V596H268Q394 596 461 543T528 387Q528 284 461 230T280 177H183V0H83ZM183 508V265H281Q341 265 381 296T422 388Q422 445 375 476T264 508Z" horiz-adv-x="556" unicode="Þ"/>
			<glyph d="M324 762Q377 762 424 738T499 670T528 566Q528 439 411 403V401Q456 396 489 369T541 302T560 217Q560 155 534 104T457 23T339 -6Q287 -6 242 8V87Q281 70 321 70Q379 70 419 107T460 213Q460 282 419 319T278 357H272V433H275Q354 433 391 464T428 562Q428 613 398 649T316 686Q244 686 209 631T174 489V0H80V478Q80 621 139 691T324 762Z" horiz-adv-x="611" unicode="ß"/>
			<glyph d="M272 522Q377 522 427 471T477 312V88Q477 32 481 0H393V66H391Q364 28 323 8T232 -12Q143 -12 94 29T46 147Q46 226 113 270T290 315Q341 315 383 313Q383 383 353 414T257 446Q218 446 178 432T109 394L104 474Q185 522 272 522ZM322 245Q240 245 193 220T146 147Q146 111 174 87T242 64Q307 64 345 101T383 198V243Q376 243 358 244T322 245ZM146 706H255L344 562H277Z" horiz-adv-x="556" unicode="à"/>
			<glyph d="M272 522Q377 522 427 471T477 312V88Q477 32 481 0H393V66H391Q364 28 323 8T232 -12Q143 -12 94 29T46 147Q46 226 113 270T290 315Q341 315 383 313Q383 383 353 414T257 446Q218 446 178 432T109 394L104 474Q185 522 272 522ZM322 245Q240 245 193 220T146 147Q146 111 174 87T242 64Q307 64 345 101T383 198V243Q376 243 358 244T322 245ZM301 706H410L279 562H212Z" horiz-adv-x="556" unicode="á"/>
			<glyph d="M272 522Q377 522 427 471T477 312V88Q477 32 481 0H393V66H391Q364 28 323 8T232 -12Q143 -12 94 29T46 147Q46 226 113 270T290 315Q341 315 383 313Q383 383 353 414T257 446Q218 446 178 432T109 394L104 474Q185 522 272 522ZM322 245Q240 245 193 220T146 147Q146 111 174 87T242 64Q307 64 345 101T383 198V243Q376 243 358 244T322 245ZM232 706H323L423 562H343L277 660L212 562H133Z" horiz-adv-x="556" unicode="â"/>
			<glyph d="M272 522Q377 522 427 471T477 312V88Q477 32 481 0H393V66H391Q364 28 323 8T232 -12Q143 -12 94 29T46 147Q46 226 113 270T290 315Q341 315 383 313Q383 383 353 414T257 446Q218 446 178 432T109 394L104 474Q185 522 272 522ZM322 245Q240 245 193 220T146 147Q146 111 174 87T242 64Q307 64 345 101T383 198V243Q376 243 358 244T322 245ZM202 692Q219 692 238 686T284 668Q313 655 328 650T359 646Q377 646 388 659T402 692H448Q440 636 415 608T354 580Q338 580 319 585T274 603Q243 617 227 621T198 626Q178 626 167 612T154 580H108Q116 634 140 663T202 692Z" horiz-adv-x="556" unicode="ã"/>
			<glyph d="M272 522Q377 522 427 471T477 312V88Q477 32 481 0H393V66H391Q364 28 323 8T232 -12Q143 -12 94 29T46 147Q46 226 113 270T290 315Q341 315 383 313Q383 383 353 414T257 446Q218 446 178 432T109 394L104 474Q185 522 272 522ZM322 245Q240 245 193 220T146 147Q146 111 174 87T242 64Q307 64 345 101T383 198V243Q376 243 358 244T322 245ZM149 684H243V584H149ZM313 684H407V584H313Z" horiz-adv-x="556" unicode="ä"/>
			<glyph d="M272 522Q377 522 427 471T477 312V88Q477 32 481 0H393V66H391Q364 28 323 8T232 -12Q143 -12 94 29T46 147Q46 226 113 270T290 315Q341 315 383 313Q383 383 353 414T257 446Q218 446 178 432T109 394L104 474Q185 522 272 522ZM322 245Q240 245 193 220T146 147Q146 111 174 87T242 64Q307 64 345 101T383 198V243Q376 243 358 244T322 245ZM278 762Q319 762 349 731T380 660Q380 620 350 589T278 558Q237 558 206 588T176 660Q176 702 206 732T278 762ZM278 722Q253 722 234 703T216 660Q216 635 235 616T278 598Q302 598 321 617T340 660Q340 685 321 703T278 722Z" horiz-adv-x="556" unicode="å"/>
			<glyph d="M271 522Q331 522 378 498T447 433Q471 476 517 499T624 522Q733 522 790 448T848 234H487Q487 187 509 147T569 86T654 64Q689 64 727 78T795 117V22Q719 -12 649 -12Q565 -12 507 19T429 107H427Q413 51 359 19T238 -12Q188 -12 142 8T69 65T41 151Q41 230 106 272T292 315Q328 315 393 310Q393 376 356 411T250 446Q181 446 107 394L102 473Q181 522 271 522ZM622 446Q564 446 525 406T487 304H748Q747 341 731 373T686 426T622 446ZM305 245Q228 245 184 220T141 148Q141 110 169 87T241 64Q283 64 318 87T373 152T393 242Q330 245 305 245Z" horiz-adv-x="889" unicode="æ"/>
			<glyph d="M298 522Q326 522 359 516T412 502L404 424Q351 446 302 446Q253 446 215 420T158 350T138 255Q138 206 156 162T212 91T308 64Q333 64 360 71T409 93L416 9Q371 -12 294 -12L257 -60L259 -62Q277 -57 289 -57Q325 -57 348 -77T372 -130Q372 -176 332 -199T241 -222Q196 -222 157 -201L175 -167Q196 -176 209 -179T240 -182Q266 -182 281 -170T296 -136Q296 -117 282 -107T250 -97Q231 -97 209 -105L192 -86L251 -7Q188 3 139 40T64 134T38 255Q38 332 70 393T162 488T298 522Z" horiz-adv-x="444" unicode="ç"/>
			<glyph d="M285 522Q510 522 510 234H146Q146 184 169 145T231 85T314 64Q353 64 399 79T471 115V21Q421 1 385 -5T311 -12Q182 -12 114 59T46 264Q46 340 76 398T160 489T285 522ZM282 446Q226 446 190 408T146 304H410Q409 367 375 406T282 446ZM146 706H255L344 562H277Z" horiz-adv-x="556" unicode="è"/>
			<glyph d="M285 522Q510 522 510 234H146Q146 184 169 145T231 85T314 64Q353 64 399 79T471 115V21Q421 1 385 -5T311 -12Q182 -12 114 59T46 264Q46 340 76 398T160 489T285 522ZM282 446Q226 446 190 408T146 304H410Q409 367 375 406T282 446ZM301 706H410L279 562H212Z" horiz-adv-x="556" unicode="é"/>
			<glyph d="M285 522Q510 522 510 234H146Q146 184 169 145T231 85T314 64Q353 64 399 79T471 115V21Q421 1 385 -5T311 -12Q182 -12 114 59T46 264Q46 340 76 398T160 489T285 522ZM282 446Q226 446 190 408T146 304H410Q409 367 375 406T282 446ZM232 706H323L423 562H343L277 660L212 562H133Z" horiz-adv-x="556" unicode="ê"/>
			<glyph d="M285 522Q510 522 510 234H146Q146 184 169 145T231 85T314 64Q353 64 399 79T471 115V21Q421 1 385 -5T311 -12Q182 -12 114 59T46 264Q46 340 76 398T160 489T285 522ZM282 446Q226 446 190 408T146 304H410Q409 367 375 406T282 446ZM149 684H243V584H149ZM313 684H407V584H313Z" horiz-adv-x="556" unicode="ë"/>
			<glyph d="M92 510H186V0H92ZM7 706H116L205 562H138Z" unicode="ì"/>
			<glyph d="M92 510H186V0H92ZM162 706H271L140 562H73Z" unicode="í"/>
			<glyph d="M92 510H186V0H92ZM93 706H184L284 562H204L138 660L73 562H-6Z" unicode="î"/>
			<glyph d="M92 510H186V0H92ZM10 684H104V584H10ZM174 684H268V584H174Z" unicode="ï"/>
			<glyph d="M165 762Q239 736 302 696L424 762L470 709L366 653Q462 579 513 476T565 255Q565 181 531 120T438 23T306 -12Q230 -12 171 24T79 121T46 255Q46 330 77 390T168 486T307 522Q353 522 390 500H392Q345 563 283 608L154 539L108 592L218 651Q161 685 93 709ZM305 446Q257 446 220 419T165 347T146 255Q146 207 163 163T217 92T306 64Q359 64 394 92T447 163T465 255Q465 303 446 347T391 418T305 446Z" horiz-adv-x="611" unicode="ð"/>
			<glyph d="M340 522Q435 522 483 466T531 305V0H437V276Q437 370 407 408T325 446Q252 446 213 390T174 237V0H80V510H171V429H173Q196 473 241 497T340 522ZM230 692Q247 692 266 686T312 668Q341 655 356 650T387 646Q405 646 416 659T430 692H476Q468 636 443 608T382 580Q366 580 347 585T302 603Q271 617 255 621T226 626Q206 626 195 612T182 580H136Q144 634 168 663T230 692Z" horiz-adv-x="611" unicode="ñ"/>
			<glyph d="M306 522Q380 522 439 488T531 394T565 255Q565 183 532 122T440 24T305 -12Q232 -12 172 23T79 120T46 255Q46 332 78 393T170 488T306 522ZM305 446Q258 446 221 419T165 348T146 255Q146 204 164 160T219 90T306 64Q356 64 392 90T446 160T465 255Q465 306 445 350T389 420T305 446ZM174 706H283L372 562H305Z" horiz-adv-x="611" unicode="ò"/>
			<glyph d="M306 522Q380 522 439 488T531 394T565 255Q565 183 532 122T440 24T305 -12Q232 -12 172 23T79 120T46 255Q46 332 78 393T170 488T306 522ZM305 446Q258 446 221 419T165 348T146 255Q146 204 164 160T219 90T306 64Q356 64 392 90T446 160T465 255Q465 306 445 350T389 420T305 446ZM329 706H438L307 562H240Z" horiz-adv-x="611" unicode="ó"/>
			<glyph d="M306 522Q380 522 439 488T531 394T565 255Q565 183 532 122T440 24T305 -12Q232 -12 172 23T79 120T46 255Q46 332 78 393T170 488T306 522ZM305 446Q258 446 221 419T165 348T146 255Q146 204 164 160T219 90T306 64Q356 64 392 90T446 160T465 255Q465 306 445 350T389 420T305 446ZM260 706H351L451 562H371L305 660L240 562H161Z" horiz-adv-x="611" unicode="ô"/>
			<glyph d="M306 522Q380 522 439 488T531 394T565 255Q565 183 532 122T440 24T305 -12Q232 -12 172 23T79 120T46 255Q46 332 78 393T170 488T306 522ZM305 446Q258 446 221 419T165 348T146 255Q146 204 164 160T219 90T306 64Q356 64 392 90T446 160T465 255Q465 306 445 350T389 420T305 446ZM230 692Q247 692 266 686T312 668Q341 655 356 650T387 646Q405 646 416 659T430 692H476Q468 636 443 608T382 580Q366 580 347 585T302 603Q271 617 255 621T226 626Q206 626 195 612T182 580H136Q144 634 168 663T230 692Z" horiz-adv-x="611" unicode="õ"/>
			<glyph d="M306 522Q380 522 439 488T531 394T565 255Q565 183 532 122T440 24T305 -12Q232 -12 172 23T79 120T46 255Q46 332 78 393T170 488T306 522ZM305 446Q258 446 221 419T165 348T146 255Q146 204 164 160T219 90T306 64Q356 64 392 90T446 160T465 255Q465 306 445 350T389 420T305 446ZM177 684H271V584H177ZM341 684H435V584H341Z" horiz-adv-x="611" unicode="ö"/>
			<glyph d="M301 537Q331 537 354 513T377 460Q377 431 354 407T302 384Q270 384 247 406T224 460Q224 491 246 514T301 537ZM47 297H553V209H47ZM301 122Q332 122 354 99T377 46Q377 18 354 -6T302 -31Q270 -31 247 -8T224 46Q224 77 246 99T301 122Z" horiz-adv-x="600" unicode="÷"/>
			<glyph d="M512 541L542 516L489 451Q526 415 545 365T565 255Q565 182 532 121T439 24T306 -12Q217 -12 151 38L94 -31L64 -6L121 65Q85 102 65 150T46 255Q46 334 79 394T172 488T306 522Q396 522 459 476ZM305 446Q257 446 220 418T165 347T146 255Q146 187 179 135L403 408Q363 446 305 446ZM429 378L204 103Q245 64 306 64Q359 64 394 92T447 163T465 255Q465 289 455 320T429 378Z" horiz-adv-x="611" unicode="ø"/>
			<glyph d="M80 510H174V253Q174 142 203 103T286 64Q357 64 397 119T437 273V510H531V0H440V81H438Q419 40 373 14T271 -12Q176 -12 128 44T80 206ZM174 706H283L372 562H305Z" horiz-adv-x="611" unicode="ù"/>
			<glyph d="M80 510H174V253Q174 142 203 103T286 64Q357 64 397 119T437 273V510H531V0H440V81H438Q419 40 373 14T271 -12Q176 -12 128 44T80 206ZM329 706H438L307 562H240Z" horiz-adv-x="611" unicode="ú"/>
			<glyph d="M80 510H174V253Q174 142 203 103T286 64Q357 64 397 119T437 273V510H531V0H440V81H438Q419 40 373 14T271 -12Q176 -12 128 44T80 206ZM260 706H351L451 562H371L305 660L240 562H161Z" horiz-adv-x="611" unicode="û"/>
			<glyph d="M80 510H174V253Q174 142 203 103T286 64Q357 64 397 119T437 273V510H531V0H440V81H438Q419 40 373 14T271 -12Q176 -12 128 44T80 206ZM177 684H271V584H177ZM341 684H435V584H341Z" horiz-adv-x="611" unicode="ü"/>
			<glyph d="M7 510H110L247 88H249L389 510H484L282 -50Q253 -132 213 -177T100 -222Q74 -222 56 -219T36 -215L42 -138Q66 -146 86 -146Q129 -146 158 -109T198 -21Q198 -13 191 3T184 23ZM273 706H382L251 562H184Z" horiz-adv-x="500" unicode="ý"/>
			<glyph d="M80 750H174V440H176Q227 522 345 522Q414 522 464 488T539 395T565 264Q565 187 540 124T466 25T346 -12Q227 -12 176 70H174V-210H80ZM324 446Q278 446 244 420T192 350T174 254Q174 207 190 163T241 91T324 64Q388 64 426 119T465 258Q465 344 428 395T324 446Z" horiz-adv-x="611" unicode="þ"/>
			<glyph d="M7 510H110L247 88H249L389 510H484L282 -50Q253 -132 213 -177T100 -222Q74 -222 56 -219T36 -215L42 -138Q66 -146 86 -146Q129 -146 158 -109T198 -21Q198 -13 191 3T184 23ZM121 684H215V584H121ZM285 684H379V584H285Z" horiz-adv-x="500" unicode="ÿ"/>
			<glyph d="M310 698H415L710 0H601L530 176H188L117 0H12ZM359 604L220 258H498ZM215 841H511V783H215Z" horiz-adv-x="722" unicode="Ā"/>
			<glyph d="M272 522Q377 522 427 471T477 312V88Q477 32 481 0H393V66H391Q364 28 323 8T232 -12Q143 -12 94 29T46 147Q46 226 113 270T290 315Q341 315 383 313Q383 383 353 414T257 446Q218 446 178 432T109 394L104 474Q185 522 272 522ZM322 245Q240 245 193 220T146 147Q146 111 174 87T242 64Q307 64 345 101T383 198V243Q376 243 358 244T322 245ZM130 665H426V607H130Z" horiz-adv-x="556" unicode="ā"/>
			<glyph d="M310 698H415L710 0H601L530 176H188L117 0H12ZM359 604L220 258H498ZM210 880H259Q274 802 364 802Q454 802 469 880H518Q511 815 471 779T364 744Q298 744 257 779T210 880Z" horiz-adv-x="722" unicode="Ă"/>
			<glyph d="M272 522Q377 522 427 471T477 312V88Q477 32 481 0H393V66H391Q364 28 323 8T232 -12Q143 -12 94 29T46 147Q46 226 113 270T290 315Q341 315 383 313Q383 383 353 414T257 446Q218 446 178 432T109 394L104 474Q185 522 272 522ZM322 245Q240 245 193 220T146 147Q146 111 174 87T242 64Q307 64 345 101T383 198V243Q376 243 358 244T322 245ZM125 698H174Q189 620 279 620Q369 620 384 698H433Q426 633 385 597T279 562Q213 562 172 597T125 698Z" horiz-adv-x="556" unicode="ă"/>
			<glyph d="M310 698H415L710 0H650Q605 -37 584 -65T564 -124Q564 -147 573 -158T598 -170Q630 -170 653 -141L684 -149Q661 -183 635 -196T566 -210Q526 -210 507 -189T488 -132Q488 -99 518 -65T602 0H601L530 176H188L117 0H12ZM359 604L220 258H498Z" horiz-adv-x="722" unicode="Ą"/>
			<glyph d="M272 522Q377 522 427 471T477 312V86Q477 21 481 0H460Q415 -36 394 -64T374 -124Q374 -147 383 -158T408 -170Q422 -170 437 -162T463 -141L494 -149Q472 -182 445 -196T378 -210Q298 -210 298 -132Q298 -99 328 -65T412 0H393V66H391Q366 30 324 9T232 -12Q142 -12 94 28T46 147Q46 226 113 270T290 315Q341 315 383 313Q383 383 353 414T257 446Q218 446 178 432T109 394L104 474Q185 522 272 522ZM322 245Q240 245 193 220T146 147Q146 111 174 87T242 64Q307 64 345 101T383 198V243Q376 243 358 244T322 245Z" horiz-adv-x="556" unicode="ą"/>
			<glyph d="M422 710Q511 710 579 680L571 583Q505 622 427 622Q349 622 288 587T193 489T159 349Q159 270 193 208T288 111T422 76Q463 76 506 85T574 110L580 13Q519 -12 421 -12Q311 -12 227 33T98 160T53 352Q53 457 100 538T232 664T422 710ZM428 884H537L406 740H339Z" horiz-adv-x="611" unicode="Ć"/>
			<glyph d="M298 522Q326 522 359 516T412 502L404 424Q351 446 302 446Q253 446 215 419T158 349T138 255Q138 206 156 162T213 91T308 64Q333 64 360 71T409 93L416 9Q368 -12 298 -12Q222 -12 163 24T71 121T38 255Q38 332 70 393T162 488T298 522ZM308 706H417L286 562H219Z" horiz-adv-x="444" unicode="ć"/>
			<glyph d="M422 710Q511 710 579 680L571 583Q505 622 427 622Q349 622 288 587T193 489T159 349Q159 270 193 208T288 111T422 76Q463 76 506 85T574 110L580 13Q519 -12 421 -12Q311 -12 227 33T98 160T53 352Q53 457 100 538T232 664T422 710ZM344 884H435L535 740H455L389 838L324 740H245Z" horiz-adv-x="611" unicode="Ĉ"/>
			<glyph d="M298 522Q326 522 359 516T412 502L404 424Q351 446 302 446Q253 446 215 419T158 349T138 255Q138 206 156 162T213 91T308 64Q333 64 360 71T409 93L416 9Q368 -12 298 -12Q222 -12 163 24T71 121T38 255Q38 332 70 393T162 488T298 522ZM231 706H322L422 562H342L276 660L211 562H132Z" horiz-adv-x="444" unicode="ĉ"/>
			<glyph d="M422 710Q511 710 579 680L571 583Q505 622 427 622Q349 622 288 587T193 489T159 349Q159 270 193 208T288 111T422 76Q463 76 506 85T574 110L580 13Q519 -12 421 -12Q311 -12 227 33T98 160T53 352Q53 457 100 538T232 664T422 710ZM343 862H437V762H343Z" horiz-adv-x="611" unicode="Ċ"/>
			<glyph d="M298 522Q326 522 359 516T412 502L404 424Q351 446 302 446Q253 446 215 419T158 349T138 255Q138 206 156 162T213 91T308 64Q333 64 360 71T409 93L416 9Q368 -12 298 -12Q222 -12 163 24T71 121T38 255Q38 332 70 393T162 488T298 522ZM230 684H324V584H230Z" horiz-adv-x="444" unicode="ċ"/>
			<glyph d="M422 710Q511 710 579 680L571 583Q505 622 427 622Q349 622 288 587T193 489T159 349Q159 270 193 208T288 111T422 76Q463 76 506 85T574 110L580 13Q519 -12 421 -12Q311 -12 227 33T98 160T53 352Q53 457 100 538T232 664T422 710ZM245 884H325L391 786L456 884H535L436 740H345Z" horiz-adv-x="611" unicode="Č"/>
			<glyph d="M298 522Q326 522 359 516T412 502L404 424Q351 446 302 446Q253 446 215 419T158 349T138 255Q138 206 156 162T213 91T308 64Q333 64 360 71T409 93L416 9Q368 -12 298 -12Q222 -12 163 24T71 121T38 255Q38 332 70 393T162 488T298 522ZM132 706H212L278 608L343 706H422L323 562H232Z" horiz-adv-x="444" unicode="č"/>
			<glyph d="M83 698H289Q395 698 479 656T612 536T661 354Q661 184 563 92T290 0H83ZM183 610V88H293Q414 88 484 150T555 351Q555 429 522 488T431 578T299 610ZM165 884H245L311 786L376 884H455L356 740H265Z" horiz-adv-x="722" unicode="Ď"/>
			<glyph d="M437 750H531V0H441V72H439Q413 33 367 10T265 -12Q193 -12 143 26T70 126T46 264Q46 335 71 393T145 487T266 522Q385 522 435 440H437ZM285 446Q218 446 182 394T146 262Q146 176 184 120T287 64Q336 64 370 92T420 163T437 254Q437 302 420 346T370 418T285 446ZM612 725H704L657 532H591Z" horiz-adv-x="654" unicode="ď"/>
			<glyph d="M83 698H289Q395 698 479 656T612 536T661 354Q661 184 563 92T290 0H83V342H15V406H83ZM183 610V406H366V342H183V88H290Q415 88 485 150T555 351Q555 429 522 488T431 578T299 610Z" horiz-adv-x="722" unicode="Đ"/>
			<glyph d="M437 750H531V666H605V605H531V0H441V72H439Q413 33 367 10T265 -12Q193 -12 143 26T70 126T46 264Q46 335 71 393T145 487T266 522Q385 522 435 440H437V605H252V666H437ZM285 446Q218 446 182 394T146 262Q146 176 184 120T287 64Q336 64 370 92T420 163T437 254Q437 302 420 346T370 418T285 446Z" horiz-adv-x="611" unicode="đ"/>
			<glyph d="M94 698H485V610H194V406H459V318H194V88H485V0H94ZM140 841H436V783H140Z" horiz-adv-x="556" unicode="Ē"/>
			<glyph d="M285 522Q510 522 510 234H146Q146 184 169 145T231 85T314 64Q353 64 399 79T471 115V21Q421 1 385 -5T311 -12Q182 -12 114 59T46 264Q46 340 76 398T160 489T285 522ZM282 446Q226 446 190 408T146 304H410Q409 367 375 406T282 446ZM139 665H435V607H139Z" horiz-adv-x="556" unicode="ē"/>
			<glyph d="M94 698H485V610H194V406H459V318H194V88H485V0H94ZM134 880H183Q198 802 288 802Q378 802 393 880H442Q435 815 395 779T288 744Q222 744 181 779T134 880Z" horiz-adv-x="556" unicode="Ĕ"/>
			<glyph d="M285 522Q510 522 510 234H146Q146 184 169 145T231 85T314 64Q353 64 399 79T471 115V21Q421 1 385 -5T311 -12Q182 -12 114 59T46 264Q46 340 76 398T160 489T285 522ZM282 446Q226 446 190 408T146 304H410Q409 367 375 406T282 446ZM124 698H173Q188 620 278 620Q368 620 383 698H432Q425 633 384 597T278 562Q212 562 171 597T124 698Z" horiz-adv-x="556" unicode="ĕ"/>
			<glyph d="M94 698H485V610H194V406H459V318H194V88H485V0H94ZM249 862H343V762H249Z" horiz-adv-x="556" unicode="Ė"/>
			<glyph d="M285 522Q510 522 510 234H146Q146 184 169 145T231 85T314 64Q353 64 399 79T471 115V21Q421 1 385 -5T311 -12Q182 -12 114 59T46 264Q46 340 76 398T160 489T285 522ZM282 446Q226 446 190 408T146 304H410Q409 367 375 406T282 446ZM241 684H335V584H241Z" horiz-adv-x="556" unicode="ė"/>
			<glyph d="M94 698H485V610H194V406H459V318H194V88H485V0H445Q399 -38 379 -65T359 -124Q359 -147 368 -158T393 -170Q425 -170 448 -141L479 -149Q457 -182 430 -196T362 -210Q283 -210 283 -129Q283 -99 313 -65T397 0H94Z" horiz-adv-x="556" unicode="Ę"/>
			<glyph d="M285 522Q510 522 510 234H146Q146 186 169 147T230 86T314 64Q352 64 396 79T471 115V21Q430 5 409 0T370 -7T343 -11Q306 -44 288 -68T271 -124Q271 -147 280 -158T305 -170Q319 -170 334 -162T360 -141L391 -149Q369 -182 342 -196T276 -210Q195 -210 195 -134Q195 -75 289 -11Q174 -7 110 65T46 264Q46 340 76 398T160 489T285 522ZM282 446Q227 446 191 409T146 304H410Q410 367 375 406T282 446Z" horiz-adv-x="556" unicode="ę"/>
			<glyph d="M94 698H485V610H194V406H459V318H194V88H485V0H94ZM143 884H223L289 786L354 884H433L334 740H243Z" horiz-adv-x="556" unicode="Ě"/>
			<glyph d="M285 522Q510 522 510 234H146Q146 184 169 145T231 85T314 64Q353 64 399 79T471 115V21Q421 1 385 -5T311 -12Q182 -12 114 59T46 264Q46 340 76 398T160 489T285 522ZM282 446Q226 446 190 408T146 304H410Q409 367 375 406T282 446ZM137 706H217L283 608L348 706H427L328 562H237Z" horiz-adv-x="556" unicode="ě"/>
			<glyph d="M423 710Q480 710 525 703T627 675L619 574Q580 600 534 611T428 622Q349 622 288 586T193 489T159 349Q159 270 193 208T288 111T423 76Q461 76 483 78T534 88V300H387V382H634V19Q545 -12 422 -12Q310 -12 226 33T98 161T53 352Q53 457 100 538T231 664T423 710ZM358 884H449L549 740H469L403 838L338 740H259Z" horiz-adv-x="722" unicode="Ĝ"/>
			<glyph d="M274 522Q398 522 442 434H444V510H531V21Q531 -98 466 -160T268 -222Q221 -222 181 -214T85 -187L95 -100Q152 -127 191 -136T278 -146Q353 -146 395 -99T437 29V79H435Q406 41 360 20T264 0Q194 0 144 34T70 126T46 251Q46 322 73 384T151 484T274 522ZM288 446Q244 446 212 418T163 347T146 256Q146 206 164 165T214 100T288 76Q329 76 363 98T417 160T437 250Q437 334 398 390T288 446ZM257 706H348L448 562H368L302 660L237 562H158Z" horiz-adv-x="611" unicode="ĝ"/>
			<glyph d="M423 710Q480 710 525 703T627 675L619 574Q580 600 534 611T428 622Q349 622 288 586T193 489T159 349Q159 270 193 208T288 111T423 76Q461 76 483 78T534 88V300H387V382H634V19Q545 -12 422 -12Q310 -12 226 33T98 161T53 352Q53 457 100 538T231 664T423 710ZM250 880H299Q314 802 404 802Q494 802 509 880H558Q551 815 511 779T404 744Q338 744 297 779T250 880Z" horiz-adv-x="722" unicode="Ğ"/>
			<glyph d="M274 522Q398 522 442 434H444V510H531V21Q531 -98 466 -160T268 -222Q221 -222 181 -214T85 -187L95 -100Q152 -127 191 -136T278 -146Q353 -146 395 -99T437 29V79H435Q406 41 360 20T264 0Q194 0 144 34T70 126T46 251Q46 322 73 384T151 484T274 522ZM288 446Q244 446 212 418T163 347T146 256Q146 206 164 165T214 100T288 76Q329 76 363 98T417 160T437 250Q437 334 398 390T288 446ZM149 698H198Q213 620 303 620Q393 620 408 698H457Q450 633 409 597T303 562Q237 562 196 597T149 698Z" horiz-adv-x="611" unicode="ğ"/>
			<glyph d="M423 710Q480 710 525 703T627 675L619 574Q580 600 534 611T428 622Q349 622 288 586T193 489T159 349Q159 270 193 208T288 111T423 76Q461 76 483 78T534 88V300H387V382H634V19Q545 -12 422 -12Q310 -12 226 33T98 161T53 352Q53 457 100 538T231 664T423 710ZM357 862H451V762H357Z" horiz-adv-x="722" unicode="Ġ"/>
			<glyph d="M274 522Q398 522 442 434H444V510H531V21Q531 -98 466 -160T268 -222Q221 -222 181 -214T85 -187L95 -100Q152 -127 191 -136T278 -146Q353 -146 395 -99T437 29V79H435Q406 41 360 20T264 0Q194 0 144 34T70 126T46 251Q46 322 73 384T151 484T274 522ZM288 446Q244 446 212 418T163 347T146 256Q146 206 164 165T214 100T288 76Q329 76 363 98T417 160T437 250Q437 334 398 390T288 446ZM256 684H350V584H256Z" horiz-adv-x="611" unicode="ġ"/>
			<glyph d="M423 710Q480 710 525 703T627 675L619 574Q580 600 534 611T428 622Q349 622 288 586T193 489T159 349Q159 270 193 208T288 111T423 76Q461 76 483 78T534 88V300H387V382H634V19Q545 -12 422 -12Q310 -12 226 33T98 161T53 352Q53 457 100 538T231 664T423 710ZM356 -78H451L396 -222H321Z" horiz-adv-x="722" unicode="Ģ"/>
			<glyph d="M274 522Q398 522 442 434H444V510H531V21Q531 -98 466 -160T268 -222Q221 -222 181 -214T85 -187L95 -100Q152 -127 191 -136T278 -146Q353 -146 395 -99T437 29V79H435Q406 41 360 20T264 0Q194 0 144 34T70 126T46 251Q46 322 73 384T151 484T274 522ZM288 446Q244 446 212 418T163 347T146 256Q146 206 164 165T214 100T288 76Q329 76 363 98T417 160T437 250Q437 334 398 390T288 446ZM298 725H370L335 581H243Z" horiz-adv-x="611" unicode="ģ"/>
			<glyph d="M94 698H194V406H528V698H628V0H528V318H194V0H94ZM321 884H412L512 740H432L366 838L301 740H222Z" horiz-adv-x="722" unicode="Ĥ"/>
			<glyph d="M80 750H174V437H176Q202 478 244 500T340 522Q435 522 483 465T531 303V0H437V268Q437 355 412 400T326 446Q247 446 210 386T174 239V0H80ZM265 933H356L456 789H376L310 887L245 789H166Z" horiz-adv-x="611" unicode="ĥ"/>
			<glyph d="M94 698H194V558H528V698H628V558H700V497H628V0H528V303H194V0H94V497H22V558H94ZM194 497V383H528V497Z" horiz-adv-x="722" unicode="Ħ"/>
			<glyph d="M80 750H174V666H359V605H174V437H176Q202 478 244 500T340 522Q435 522 483 465T531 303V0H437V268Q437 355 412 400T326 446Q240 446 207 382T174 239V0H80V605H6V666H80Z" horiz-adv-x="611" unicode="ħ"/>
			<glyph d="M89 698H189V0H89ZM63 863Q80 863 99 857T145 839Q174 826 189 821T220 817Q238 817 249 829T263 863H309Q301 807 276 779T215 751Q199 751 180 756T135 774Q105 787 90 792T60 797Q40 797 29 784T15 751H-31Q-23 805 0 834T63 863Z" unicode="Ĩ"/>
			<glyph d="M92 510H186V0H92ZM63 692Q80 692 99 686T145 668Q174 655 189 650T220 646Q238 646 249 659T263 692H309Q301 636 276 608T215 580Q199 580 180 585T135 603Q104 617 88 621T59 626Q39 626 28 612T15 580H-31Q-23 634 1 663T63 692Z" unicode="ĩ"/>
			<glyph d="M89 698H189V0H89ZM-9 841H287V783H-9Z" unicode="Ī"/>
			<glyph d="M92 510H186V0H92ZM-8 665H288V607H-8Z" unicode="ī"/>
			<glyph d="M89 698H189V0Q142 -39 122 -66T103 -124Q103 -147 112 -158T137 -170Q169 -170 192 -141L223 -149Q201 -182 174 -196T106 -210Q27 -210 27 -129Q27 -99 57 -65T141 0H89Z" unicode="Į"/>
			<glyph d="M86 730H192V624H86ZM92 510H186V0Q141 -37 120 -65T100 -124Q100 -147 109 -158T133 -170Q166 -170 189 -141L220 -149Q197 -182 171 -196T103 -210Q24 -210 24 -129Q24 -99 55 -64T138 0H92Z" unicode="į"/>
			<glyph d="M89 698H189V0H89ZM92 862H186V762H92Z" unicode="İ"/>
			<glyph d="M92 510H186V0H92Z" unicode="ı"/>
			<glyph d="M89 698H189V0H89ZM452 698H552V180Q552 88 502 38T356 -12Q307 -12 275 0V86Q303 76 338 76Q399 76 425 107T452 210Z" horiz-adv-x="643" unicode="Ĳ"/>
			<glyph d="M86 730H192V624H86ZM92 510H186V0H92ZM347 730H453V624H347ZM353 510H447V-33Q447 -136 409 -179T303 -222Q262 -222 245 -218L248 -137Q263 -140 285 -140Q319 -140 336 -110T353 -31Z" horiz-adv-x="539" unicode="ĳ"/>
			<glyph d="M198 698H298V180Q298 88 248 38T102 -12Q53 -12 21 0V86Q49 76 84 76Q145 76 171 107T198 210ZM202 884H293L393 740H313L247 838L182 740H103Z" horiz-adv-x="389" unicode="Ĵ"/>
			<glyph d="M92 510H186V-33Q186 -136 148 -179T42 -222Q1 -222 -16 -218L-13 -137Q2 -140 24 -140Q58 -140 75 -110T92 -31ZM93 706H184L284 562H204L138 660L73 562H-6Z" unicode="ĵ"/>
			<glyph d="M94 698H194V391L492 698H625L297 368L651 0H505L194 342V0H94ZM309 -78H404L349 -222H274Z" horiz-adv-x="667" unicode="Ķ"/>
			<glyph d="M80 750H174V303L379 510H507L270 284L537 0H402L174 262V0H80ZM254 -78H349L294 -222H219Z" horiz-adv-x="556" unicode="ķ"/>
			<glyph d="M88 698H188V88H480V0H88ZM191 884H300L169 740H102Z" horiz-adv-x="500" unicode="Ĺ"/>
			<glyph d="M92 750H186V0H92ZM171 924H280L149 780H82Z" unicode="ĺ"/>
			<glyph d="M88 698H188V88H480V0H88ZM233 -78H328L273 -222H198Z" horiz-adv-x="500" unicode="Ļ"/>
			<glyph d="M92 750H186V0H92ZM92 -78H187L132 -222H57Z" unicode="ļ"/>
			<glyph d="M88 698H188V88H480V0H88ZM293 725H385L338 532H272Z" horiz-adv-x="500" unicode="Ľ"/>
			<glyph d="M92 750H186V0H92ZM267 725H359L312 532H246Z" horiz-adv-x="309" unicode="ľ"/>
			<glyph d="M88 698H188V88H480V0H88ZM287 452H381V352H287Z" horiz-adv-x="500" unicode="Ŀ"/>
			<glyph d="M92 750H186V0H92ZM274 450H368V350H274Z" horiz-adv-x="396" unicode="ŀ"/>
			<glyph d="M88 698H188V366L384 481V409L188 294V88H480V0H88V236L24 198V270L88 308Z" horiz-adv-x="500" unicode="Ł"/>
			<glyph d="M92 750H186V485L250 536V465L186 414V0H92V340L28 289V360L92 411Z" unicode="ł"/>
			<glyph d="M88 698H224L532 136H534V698H634V0H506L190 574H188V0H88ZM414 884H523L392 740H325Z" horiz-adv-x="722" unicode="Ń"/>
			<glyph d="M340 522Q435 522 483 466T531 305V0H437V276Q437 370 407 408T325 446Q252 446 213 390T174 237V0H80V510H171V429H173Q196 473 241 497T340 522ZM347 706H456L325 562H258Z" horiz-adv-x="611" unicode="ń"/>
			<glyph d="M88 698H224L532 136H534V698H634V0H506L190 574H188V0H88ZM336 -78H431L376 -222H301Z" horiz-adv-x="722" unicode="Ņ"/>
			<glyph d="M340 522Q435 522 483 466T531 305V0H437V276Q437 370 407 408T325 446Q252 446 213 390T174 237V0H80V510H171V429H173Q196 473 241 497T340 522ZM265 -78H360L305 -222H230Z" horiz-adv-x="611" unicode="ņ"/>
			<glyph d="M88 698H224L532 136H534V698H634V0H506L190 574H188V0H88ZM227 884H307L373 786L438 884H517L418 740H327Z" horiz-adv-x="722" unicode="Ň"/>
			<glyph d="M340 522Q435 522 483 466T531 305V0H437V276Q437 370 407 408T325 446Q252 446 213 390T174 237V0H80V510H171V429H173Q196 473 241 497T340 522ZM166 706H246L312 608L377 706H456L357 562H266Z" horiz-adv-x="611" unicode="ň"/>
			<glyph d="M30 698H142L59 483H-27ZM410 522Q505 522 553 466T601 305V0H507V276Q507 370 477 408T395 446Q322 446 283 390T244 237V0H150V510H241V429H243Q266 473 311 497T410 522Z" horiz-adv-x="681" unicode="ŉ"/>
			<glyph d="M389 710Q491 710 567 664T684 537T725 349Q725 240 684 158T567 32T389 -12Q287 -12 211 32T94 159T53 349Q53 452 93 534T208 663T389 710ZM388 622Q317 622 265 585T186 487T159 349Q159 270 186 208T265 111T389 76Q461 76 513 111T592 208T619 349Q619 422 593 484T516 584T388 622ZM245 841H541V783H245Z" horiz-adv-x="778" unicode="Ō"/>
			<glyph d="M306 522Q380 522 439 488T531 394T565 255Q565 183 532 122T440 24T305 -12Q232 -12 172 23T79 120T46 255Q46 332 78 393T170 488T306 522ZM305 446Q258 446 221 419T165 348T146 255Q146 204 164 160T219 90T306 64Q356 64 392 90T446 160T465 255Q465 306 445 350T389 420T305 446ZM158 665H454V607H158Z" horiz-adv-x="611" unicode="ō"/>
			<glyph d="M389 710Q491 710 567 664T684 537T725 349Q725 240 684 158T567 32T389 -12Q287 -12 211 32T94 159T53 349Q53 452 93 534T208 663T389 710ZM388 622Q317 622 265 585T186 487T159 349Q159 270 186 208T265 111T389 76Q461 76 513 111T592 208T619 349Q619 422 593 484T516 584T388 622ZM235 880H284Q299 802 389 802Q479 802 494 880H543Q536 815 496 779T389 744Q323 744 282 779T235 880Z" horiz-adv-x="778" unicode="Ŏ"/>
			<glyph d="M306 522Q380 522 439 488T531 394T565 255Q565 183 532 122T440 24T305 -12Q232 -12 172 23T79 120T46 255Q46 332 78 393T170 488T306 522ZM305 446Q258 446 221 419T165 348T146 255Q146 204 164 160T219 90T306 64Q356 64 392 90T446 160T465 255Q465 306 445 350T389 420T305 446ZM151 698H200Q215 620 305 620Q395 620 410 698H459Q452 633 411 597T305 562Q239 562 198 597T151 698Z" horiz-adv-x="611" unicode="ŏ"/>
			<glyph d="M389 710Q491 710 567 664T684 537T725 349Q725 240 684 158T567 32T389 -12Q287 -12 211 32T94 159T53 349Q53 452 93 534T208 663T389 710ZM388 622Q317 622 265 585T186 487T159 349Q159 270 186 208T265 111T389 76Q461 76 513 111T592 208T619 349Q619 422 593 484T516 584T388 622ZM334 884H443L312 740H245ZM515 884H624L493 740H426Z" horiz-adv-x="778" unicode="Ő"/>
			<glyph d="M306 522Q380 522 439 488T531 394T565 255Q565 183 532 122T440 24T305 -12Q232 -12 172 23T79 120T46 255Q46 332 78 393T170 488T306 522ZM305 446Q258 446 221 419T165 348T146 255Q146 204 164 160T219 90T306 64Q356 64 392 90T446 160T465 255Q465 306 445 350T389 420T305 446ZM261 706H370L239 562H172ZM442 706H551L420 562H353Z" horiz-adv-x="611" unicode="ő"/>
			<glyph d="M438 704Q471 704 525 700Q567 698 579 698H875V610H593V406H855V318H593V88H882V0H585Q564 0 543 -1T506 -3Q466 -6 437 -6Q323 -6 236 38T101 164T53 358Q53 464 102 542T238 662T438 704ZM431 616Q307 616 233 550T159 358Q159 273 193 211T288 115T433 82Q470 82 493 88V610Q454 616 431 616Z" horiz-adv-x="944" unicode="Œ"/>
			<glyph d="M294 522Q365 522 417 496T497 422Q520 471 568 496T679 522Q792 522 847 446T903 234H542Q542 186 564 147T624 86T709 64Q744 64 782 78T850 117V22Q775 -12 704 -12Q626 -12 572 16T494 98Q471 47 416 17T293 -12Q217 -12 159 22T71 117T41 255Q41 324 72 385T161 484T294 522ZM294 446Q248 446 213 419T159 349T141 254Q141 168 181 116T295 64Q342 64 377 92T430 164T448 255Q448 300 431 344T379 417T294 446ZM677 446Q619 446 580 406T542 304H803Q802 340 786 373T741 426T677 446Z" horiz-adv-x="944" unicode="œ"/>
			<glyph d="M83 698H266Q406 698 465 650T525 509Q525 449 486 405T381 350V348Q406 339 421 321T455 265L581 0H467L369 222Q352 261 337 279T304 303T254 310H183V0H83ZM183 610V398H270Q338 398 378 427T419 507Q419 556 382 583T278 610ZM320 884H429L298 740H231Z" horiz-adv-x="611" unicode="Ŕ"/>
			<glyph d="M304 522Q333 522 365 515V431Q343 440 313 440Q249 440 211 383T174 232V0H80V510H168V431H170Q189 472 226 497T304 522ZM267 706H376L245 562H178Z" horiz-adv-x="389" unicode="ŕ"/>
			<glyph d="M83 698H266Q406 698 465 650T525 509Q525 449 486 405T381 350V348Q406 339 421 321T455 265L581 0H467L369 222Q352 261 337 279T304 303T254 310H183V0H83ZM183 610V398H270Q338 398 378 427T419 507Q419 556 382 583T278 610ZM261 -78H356L301 -222H226Z" horiz-adv-x="611" unicode="Ŗ"/>
			<glyph d="M304 522Q333 522 365 515V431Q343 440 313 440Q249 440 211 383T174 232V0H80V510H168V431H170Q189 472 226 497T304 522ZM81 -78H176L121 -222H46Z" horiz-adv-x="389" unicode="ŗ"/>
			<glyph d="M83 698H266Q406 698 465 650T525 509Q525 449 486 405T381 350V348Q406 339 421 321T455 265L581 0H467L369 222Q352 261 337 279T304 303T254 310H183V0H83ZM183 610V398H270Q338 398 378 427T419 507Q419 556 382 583T278 610ZM137 884H217L283 786L348 884H427L328 740H237Z" horiz-adv-x="611" unicode="Ř"/>
			<glyph d="M304 522Q333 522 365 515V431Q343 440 313 440Q249 440 211 383T174 232V0H80V510H168V431H170Q189 472 226 497T304 522ZM85 706H165L231 608L296 706H375L276 562H185Z" horiz-adv-x="389" unicode="ř"/>
			<glyph d="M271 710Q349 710 420 685L406 593Q365 610 337 616T276 622Q217 622 185 597T153 529Q153 493 180 468T262 419L284 408Q337 382 370 358T428 295T453 196Q453 96 385 42T199 -12Q164 -12 132 -5T55 17L65 110Q102 95 141 85T210 76Q264 76 305 106T347 190Q347 230 319 259T212 325Q159 349 124 373T68 432T47 520Q47 607 108 658T271 710ZM299 884H408L277 740H210Z" horiz-adv-x="500" unicode="Ś"/>
			<glyph d="M214 522Q244 522 271 517T331 502L323 420Q309 429 275 437T224 446Q184 446 159 429T134 384Q134 355 157 335T233 293Q299 264 327 231T355 147Q355 75 306 31T176 -12Q89 -12 37 16L42 100Q65 85 99 74T159 64Q200 64 227 82T255 137Q255 160 235 180T163 223Q89 256 61 289T34 366Q34 442 84 482T214 522ZM238 706H347L216 562H149Z" horiz-adv-x="389" unicode="ś"/>
			<glyph d="M271 710Q349 710 420 685L406 593Q365 610 337 616T276 622Q217 622 185 597T153 529Q153 493 180 468T262 419L284 408Q337 382 370 358T428 295T453 196Q453 96 385 42T199 -12Q164 -12 132 -5T55 17L65 110Q102 95 141 85T210 76Q264 76 305 106T347 190Q347 230 319 259T212 325Q159 349 124 373T68 432T47 520Q47 607 108 658T271 710ZM204 884H295L395 740H315L249 838L184 740H105Z" horiz-adv-x="500" unicode="Ŝ"/>
			<glyph d="M214 522Q244 522 271 517T331 502L323 420Q309 429 275 437T224 446Q184 446 159 429T134 384Q134 355 157 335T233 293Q299 264 327 231T355 147Q355 75 306 31T176 -12Q89 -12 37 16L42 100Q65 85 99 74T159 64Q200 64 227 82T255 137Q255 160 235 180T163 223Q89 256 61 289T34 366Q34 442 84 482T214 522ZM149 706H240L340 562H260L194 660L129 562H50Z" horiz-adv-x="389" unicode="ŝ"/>
			<glyph d="M271 710Q349 710 420 685L406 593Q365 610 337 616T276 622Q217 622 185 597T153 529Q153 491 180 468T262 419L284 408Q337 382 370 358T428 295T453 196Q453 111 404 58T259 -8L220 -59L222 -61Q236 -57 250 -57Q288 -57 312 -77T337 -130Q337 -169 303 -189T215 -210Q163 -210 119 -188L135 -152Q151 -160 171 -165T209 -170Q261 -170 261 -132Q261 -117 248 -107T215 -97Q194 -97 173 -107L155 -85L209 -12H204Q168 -12 138 -5T55 17L65 110Q155 76 209 76Q264 76 305 106T347 190Q347 230 319 259T212 325Q159 349 124 373T68 432T47 520Q47 607 108 658T271 710Z" horiz-adv-x="500" unicode="Ş"/>
			<glyph d="M214 522Q244 522 271 517T331 502L323 420Q309 429 275 437T224 446Q184 446 159 429T134 384Q134 355 157 335T233 293Q299 264 327 231T355 147Q355 83 317 42T208 -10L171 -59L173 -61Q188 -57 201 -57Q236 -57 262 -76T288 -130Q288 -172 252 -191T167 -210Q114 -210 70 -188L86 -152Q102 -160 122 -165T160 -170Q212 -170 212 -132Q212 -117 199 -107T166 -97Q145 -97 124 -107L106 -85L160 -12Q119 -10 90 -3T37 16L42 100Q68 84 101 74T159 64Q202 64 228 83T255 137Q255 160 235 180T163 223Q89 256 61 289T34 366Q34 442 84 482T214 522Z" horiz-adv-x="389" unicode="ş"/>
			<glyph d="M271 710Q349 710 420 685L406 593Q365 610 337 616T276 622Q217 622 185 597T153 529Q153 493 180 468T262 419L284 408Q337 382 370 358T428 295T453 196Q453 96 385 42T199 -12Q164 -12 132 -5T55 17L65 110Q102 95 141 85T210 76Q264 76 305 106T347 190Q347 230 319 259T212 325Q159 349 124 373T68 432T47 520Q47 607 108 658T271 710ZM105 884H185L251 786L316 884H395L296 740H205Z" horiz-adv-x="500" unicode="Š"/>
			<glyph d="M214 522Q244 522 271 517T331 502L323 420Q309 429 275 437T224 446Q184 446 159 429T134 384Q134 355 157 335T233 293Q299 264 327 231T355 147Q355 75 306 31T176 -12Q89 -12 37 16L42 100Q65 85 99 74T159 64Q200 64 227 82T255 137Q255 160 235 180T163 223Q89 256 61 289T34 366Q34 442 84 482T214 522ZM50 706H130L196 608L261 706H340L241 562H150Z" horiz-adv-x="389" unicode="š"/>
			<glyph d="M11 698H545V610H328V0H228V610H11ZM229 -78H324L269 -222H194Z" horiz-adv-x="556" unicode="Ţ"/>
			<glyph d="M216 658V510H351V434H216V153Q216 116 237 90T295 64Q330 64 359 82V2Q309 -12 278 -12Q201 -12 161 26T122 135V434H7V510H122V628ZM169 -78H264L209 -222H134Z" horiz-adv-x="389" unicode="ţ"/>
			<glyph d="M11 698H545V610H328V0H228V610H11ZM134 884H214L280 786L345 884H424L325 740H234Z" horiz-adv-x="556" unicode="Ť"/>
			<glyph d="M304 725H396L351 552H285ZM216 658V510H351V434H216V153Q216 116 237 90T295 64Q330 64 359 82V2Q309 -12 278 -12Q201 -12 161 26T122 135V434H7V510H122V628Z" horiz-adv-x="395" unicode="ť"/>
			<glyph d="M11 698H545V610H328V460H500V392H328V0H228V392H56V460H228V610H11Z" horiz-adv-x="556" unicode="Ŧ"/>
			<glyph d="M216 658V510H351V434H216V336H330V273H216V153Q216 116 237 90T295 64Q330 64 359 82V2Q309 -12 278 -12Q201 -12 161 26T122 135V273H24V336H122V434H7V510H122V628Z" horiz-adv-x="389" unicode="ŧ"/>
			<glyph d="M90 698H190V300Q190 187 232 131T361 76Q448 76 490 132T532 300V698H632V287Q632 145 562 66T361 -12Q230 -12 160 66T90 287ZM285 863Q302 863 321 857T367 839Q396 826 411 821T442 817Q460 817 471 829T485 863H531Q523 807 498 779T437 751Q421 751 402 756T357 774Q327 787 312 792T282 797Q262 797 251 784T237 751H191Q199 805 222 834T285 863Z" horiz-adv-x="722" unicode="Ũ"/>
			<glyph d="M80 510H174V253Q174 142 203 103T286 64Q357 64 397 119T437 273V510H531V0H440V81H438Q419 40 373 14T271 -12Q176 -12 128 44T80 206ZM229 692Q246 692 265 686T311 668Q340 655 355 650T386 646Q404 646 415 659T429 692H475Q467 636 442 608T381 580Q365 580 346 585T301 603Q270 617 254 621T225 626Q205 626 194 612T181 580H135Q143 634 167 663T229 692Z" horiz-adv-x="611" unicode="ũ"/>
			<glyph d="M90 698H190V300Q190 187 232 131T361 76Q448 76 490 132T532 300V698H632V287Q632 145 562 66T361 -12Q230 -12 160 66T90 287ZM214 841H510V783H214Z" horiz-adv-x="722" unicode="Ū"/>
			<glyph d="M80 510H174V253Q174 142 203 103T286 64Q357 64 397 119T437 273V510H531V0H440V81H438Q419 40 373 14T271 -12Q176 -12 128 44T80 206ZM156 665H452V607H156Z" horiz-adv-x="611" unicode="ū"/>
			<glyph d="M90 698H190V300Q190 187 232 131T361 76Q448 76 490 132T532 300V698H632V287Q632 145 562 66T361 -12Q230 -12 160 66T90 287ZM207 880H256Q271 802 361 802Q451 802 466 880H515Q508 815 468 779T361 744Q295 744 254 779T207 880Z" horiz-adv-x="722" unicode="Ŭ"/>
			<glyph d="M80 510H174V253Q174 142 203 103T286 64Q357 64 397 119T437 273V510H531V0H440V81H438Q419 40 373 14T271 -12Q176 -12 128 44T80 206ZM151 698H200Q215 620 305 620Q395 620 410 698H459Q452 633 411 597T305 562Q239 562 198 597T151 698Z" horiz-adv-x="611" unicode="ŭ"/>
			<glyph d="M90 698H190V300Q190 187 232 131T361 76Q448 76 490 132T532 300V698H632V287Q632 145 562 66T361 -12Q230 -12 160 66T90 287ZM368 933Q409 933 439 903T470 831Q470 790 440 759T368 729Q326 729 296 759T266 831Q266 873 296 903T368 933ZM368 893Q343 893 324 874T306 831Q306 807 324 788T368 769Q392 769 411 788T430 831Q430 855 411 874T368 893Z" horiz-adv-x="722" unicode="Ů"/>
			<glyph d="M80 510H174V253Q174 142 203 103T286 64Q357 64 397 119T437 273V510H531V0H440V81H438Q419 40 373 14T271 -12Q176 -12 128 44T80 206ZM303 767Q344 767 374 736T405 665Q405 625 375 594T303 563Q262 563 231 593T201 665Q201 707 231 737T303 767ZM303 727Q278 727 259 708T241 665Q241 640 260 621T303 603Q327 603 346 622T365 665Q365 690 346 708T303 727Z" horiz-adv-x="611" unicode="ů"/>
			<glyph d="M90 698H190V300Q190 187 232 131T361 76Q448 76 490 132T532 300V698H632V287Q632 145 562 66T361 -12Q230 -12 160 66T90 287ZM310 884H419L288 740H221ZM491 884H600L469 740H402Z" horiz-adv-x="722" unicode="Ű"/>
			<glyph d="M80 510H174V253Q174 142 203 103T286 64Q357 64 397 119T437 273V510H531V0H440V81H438Q419 40 373 14T271 -12Q176 -12 128 44T80 206ZM255 706H364L233 562H166ZM436 706H545L414 562H347Z" horiz-adv-x="611" unicode="ű"/>
			<glyph d="M90 698H190V298Q190 76 361 76Q532 76 532 296V698H632V284Q632 162 578 85T423 -7Q381 -42 363 -68T346 -124Q346 -147 355 -158T379 -170Q412 -170 435 -141L466 -149Q444 -182 417 -196T352 -210Q308 -210 289 -189T270 -129Q270 -102 297 -69T364 -12H361Q228 -12 159 66T90 287Z" horiz-adv-x="722" unicode="Ų"/>
			<glyph d="M80 510H174V240Q174 146 201 105T286 64Q359 64 398 119T437 271V510H531V0H505Q460 -36 439 -64T419 -124Q419 -147 428 -158T453 -170Q467 -170 482 -162T508 -141L539 -149Q517 -182 490 -196T425 -210Q343 -210 343 -132Q343 -99 373 -65T457 0H440V81H438Q417 38 371 13T271 -12Q176 -12 128 43T80 204Z" horiz-adv-x="611" unicode="ų"/>
			<glyph d="M2 698H112L279 100H281L430 698H572L723 100H725L892 698H998L783 0H654L502 610H500L347 0H213ZM454 884H545L645 740H565L499 838L434 740H355Z" horiz-adv-x="1000" unicode="Ŵ"/>
			<glyph d="M12 510H115L232 88H234L364 510H475L603 88H605L729 510H821L657 0H548L416 428H414L285 0H176ZM370 706H461L561 562H481L415 660L350 562H271Z" horiz-adv-x="833" unicode="ŵ"/>
			<glyph d="M11 698H128L336 385L539 698H656L384 292V0H284V292ZM287 884H378L478 740H398L332 838L267 740H188Z" horiz-adv-x="667" unicode="Ŷ"/>
			<glyph d="M7 510H110L247 88H249L389 510H484L282 -50Q253 -132 213 -177T100 -222Q74 -222 56 -219T36 -215L42 -138Q66 -146 86 -146Q129 -146 158 -109T198 -21Q198 -13 191 3T184 23ZM204 706H295L395 562H315L249 660L184 562H105Z" horiz-adv-x="500" unicode="ŷ"/>
			<glyph d="M11 698H128L336 385L539 698H656L384 292V0H284V292ZM205 863H299V763H205ZM369 863H463V763H369Z" horiz-adv-x="667" unicode="Ÿ"/>
			<glyph d="M44 698H509V608L148 88H515V0H32V90L394 610H44ZM322 884H431L300 740H233Z" horiz-adv-x="556" unicode="Ź"/>
			<glyph d="M57 510H446V428L152 76H457V0H43V82L337 434H57ZM299 706H408L277 562H210Z" horiz-adv-x="500" unicode="ź"/>
			<glyph d="M44 698H509V608L148 88H515V0H32V90L394 610H44ZM241 862H335V762H241Z" horiz-adv-x="556" unicode="Ż"/>
			<glyph d="M57 510H446V428L152 76H457V0H43V82L337 434H57ZM213 684H307V584H213Z" horiz-adv-x="500" unicode="ż"/>
			<glyph d="M44 698H509V608L148 88H515V0H32V90L394 610H44ZM133 884H213L279 786L344 884H423L324 740H233Z" horiz-adv-x="556" unicode="Ž"/>
			<glyph d="M57 510H446V428L152 76H457V0H43V82L337 434H57ZM105 706H185L251 608L316 706H395L296 562H205Z" horiz-adv-x="500" unicode="ž"/>
			<glyph d="M450 710Q469 710 523 702L509 622Q482 628 468 628Q422 628 402 605T372 527L349 414H475L461 344H335L267 -18Q253 -89 238 -129T188 -195T84 -222Q56 -222 33 -217L49 -136Q61 -140 79 -140Q115 -140 135 -117T165 -40L237 344H125L139 414H250L270 518Q282 580 300 620T355 685T450 710Z" horiz-adv-x="556" unicode="ƒ"/>
			<glyph d="M271 710Q349 710 420 685L406 593Q365 610 337 616T276 622Q217 622 185 597T153 529Q153 493 180 468T262 419L284 408Q337 382 370 358T428 295T453 196Q453 96 385 42T199 -12Q164 -12 132 -5T55 17L65 110Q102 95 141 85T210 76Q264 76 305 106T347 190Q347 230 319 259T212 325Q159 349 124 373T68 432T47 520Q47 607 108 658T271 710ZM201 -78H296L241 -222H166Z" horiz-adv-x="500" unicode="Ș"/>
			<glyph d="M214 522Q244 522 271 517T331 502L323 420Q309 429 275 437T224 446Q184 446 159 429T134 384Q134 355 157 335T233 293Q299 264 327 231T355 147Q355 75 306 31T176 -12Q89 -12 37 16L42 100Q65 85 99 74T159 64Q200 64 227 82T255 137Q255 160 235 180T163 223Q89 256 61 289T34 366Q34 442 84 482T214 522ZM149 -78H244L189 -222H114Z" horiz-adv-x="389" unicode="ș"/>
			<glyph d="M11 698H545V610H328V0H228V610H11ZM229 -78H324L269 -222H194Z" horiz-adv-x="556" unicode="Ț"/>
			<glyph d="M216 658V510H351V434H216V153Q216 116 237 90T295 64Q330 64 359 82V2Q309 -12 278 -12Q201 -12 161 26T122 135V434H7V510H122V628ZM169 -78H264L209 -222H134Z" horiz-adv-x="389" unicode="ț"/>
			<glyph d="M92 510H186V-33Q186 -136 148 -179T42 -222Q1 -222 -16 -218L-13 -137Q2 -140 24 -140Q58 -140 75 -110T92 -31Z" unicode="ȷ"/>
			<glyph d="M93 706H184L284 562H204L138 660L73 562H-6Z" unicode="ˆ"/>
			<glyph d="M-6 706H74L140 608L205 706H284L185 562H94Z" unicode="ˇ"/>
			<glyph d="M-9 665H287V607H-9Z" unicode="ˉ"/>
			<glyph d="M-15 698H34Q49 620 139 620Q229 620 244 698H293Q286 633 245 597T139 562Q73 562 32 597T-15 698Z" unicode="˘"/>
			<glyph d="M92 684H186V584H92Z" unicode="˙"/>
			<glyph d="M139 767Q180 767 210 736T241 665Q241 625 211 594T139 563Q98 563 67 593T37 665Q37 707 67 737T139 767ZM139 727Q114 727 95 708T77 665Q77 640 96 621T139 603Q163 603 182 622T201 665Q201 690 182 708T139 727Z" unicode="˚"/>
			<glyph d="M182 0H230Q187 -34 165 -63T144 -123Q144 -146 153 -158T177 -170Q210 -170 233 -141L264 -149Q242 -182 215 -196T146 -210Q106 -210 87 -189T68 -135Q68 -99 98 -64T182 0Z" unicode="˛"/>
			<glyph d="M63 692Q80 692 99 686T145 668Q174 655 189 650T220 646Q238 646 249 659T263 692H309Q301 636 276 608T215 580Q199 580 180 585T135 603Q104 617 88 621T59 626Q39 626 28 612T15 580H-31Q-23 634 1 663T63 692Z" unicode="˜"/>
			<glyph d="M72 706H181L50 562H-17ZM253 706H362L231 562H164Z" unicode="˝"/>
			<glyph d="M303 698H408L693 0H15ZM352 604L156 88H547Z" horiz-adv-x="708" unicode="Δ"/>
			<glyph d="M381 710Q474 710 546 667T657 550T697 380Q697 293 660 216T557 88H702V0H440L443 88Q591 188 591 367Q591 441 565 498T492 589T381 622Q280 622 222 553T164 364Q164 283 202 210T309 88L313 0H58V88H196Q125 145 91 214T58 370Q58 463 96 540T208 664T381 710Z" horiz-adv-x="760" unicode="Ω"/>
			<glyph d="M80 510H174V240Q174 145 202 104T286 64Q356 64 396 118T437 272V510H531V0H440V81H438Q419 39 372 13T271 -12Q210 -12 174 8V-210H80Z" horiz-adv-x="611" unicode="μ"/>
			<glyph d="M12 510H579V434H489V126Q489 63 533 63Q546 63 555 65T580 76L583 1Q544 -12 515 -12Q453 -12 424 19T395 116V434H196V0H102V434H12Z" horiz-adv-x="617" unicode="π"/>
			<glyph d="M347 710Q445 710 549 697V617Q490 614 450 585T411 508Q411 484 422 464T451 427T506 379Q563 332 592 288T622 186Q622 93 563 40T408 -12Q337 -12 264 19L274 112Q300 94 337 85T408 76Q460 76 488 103T516 182Q516 216 496 240T430 304L411 320Q355 368 330 406T306 494Q306 538 337 573T419 626Q386 629 352 629Q271 629 231 590T191 470V0H91V482Q91 604 155 657T347 710Z" horiz-adv-x="659" unicode="ẞ"/>
			<glyph d="M38 307H295V231H38Z" horiz-adv-x="333" unicode="‐"/>
			<glyph d="M0 304H500V234H0Z" horiz-adv-x="500" unicode="–"/>
			<glyph d="M0 304H1000V234H0Z" horiz-adv-x="1000" unicode="—"/>
			<glyph d="M137 698H226L163 453H52Z" unicode="‘"/>
			<glyph d="M114 698H226L138 453H52Z" unicode="’"/>
			<glyph d="M115 112H226L141 -133H52Z" unicode="‚"/>
			<glyph d="M182 698H270L208 453H96ZM370 698H460L396 453H286Z" horiz-adv-x="556" unicode="“"/>
			<glyph d="M159 698H270L185 453H96ZM349 698H460L375 453H286Z" horiz-adv-x="556" unicode="”"/>
			<glyph d="M159 112H270L185 -133H96ZM349 112H460L375 -133H286Z" horiz-adv-x="556" unicode="„"/>
			<glyph d="M234 698H322V523H489V453H322V0H234V453H67V523H234Z" horiz-adv-x="556" unicode="†"/>
			<glyph d="M234 698H322V536H489V466H322V232H489V162H322V0H234V162H67V232H234V466H67V536H234Z" horiz-adv-x="556" unicode="‡"/>
			<glyph d="M250 523Q297 523 337 500T401 437T425 349Q425 302 402 262T339 198T250 174Q202 174 162 197T99 261T76 349Q76 397 99 437T163 500T250 523Z" horiz-adv-x="500" unicode="•"/>
			<glyph d="M111 112H223V0H111ZM444 112H556V0H444ZM777 112H889V0H777Z" horiz-adv-x="1000" unicode="…"/>
			<glyph d="M511 720H583L150 -22H78ZM153 710Q231 710 267 659T303 510Q303 414 264 362T153 310Q81 310 42 362T3 510Q3 614 40 662T153 710ZM152 640Q116 640 103 603T91 512Q91 437 107 408T153 380Q191 380 203 418T215 519Q215 574 203 607T152 640ZM509 388Q587 388 623 337T659 188Q659 92 620 40T509 -12Q437 -12 398 40T359 188Q359 292 396 340T509 388ZM847 388Q925 388 961 337T997 188Q997 92 958 40T847 -12Q775 -12 736 40T697 188Q697 292 734 340T847 388ZM508 318Q472 318 459 281T447 190Q447 115 463 86T509 58Q548 58 559 96T571 197Q571 256 559 287T508 318ZM846 318Q810 318 797 281T785 190Q785 115 801 86T847 58Q885 58 897 94T909 197Q909 258 896 288T846 318Z" horiz-adv-x="1000" unicode="‰"/>
			<glyph d="M163 471H251L121 269L251 67H163L20 269Z" unicode="‹"/>
			<glyph d="M27 471H115L258 269L115 67H27L157 269Z" unicode="›"/>
			<glyph d="M264 720H336L-97 -22H-169Z" horiz-adv-x="167" unicode="⁄"/>
			<glyph d="M423 710Q512 710 576 684L556 601Q533 613 497 620T431 628Q349 628 289 580T206 445H524L511 391H194Q194 388 193 377T192 351Q192 334 193 322T194 307H493L481 253H206Q228 169 286 120T431 72Q463 72 496 78T556 97L562 10Q536 0 499 -6T423 -12Q296 -12 209 58T95 253H0L13 307H88Q88 311 87 322T86 351Q86 368 87 378T88 391H0L13 445H96Q114 526 160 585T274 677T423 710Z" horiz-adv-x="556" unicode="€"/>
			<glyph d="M66 698H548V640H392Q429 607 437 550H549V492H438Q430 402 370 361T206 320H177L456 0H327L66 313V394H175Q250 394 288 414T332 492H66V550H330Q321 600 282 620T177 640H66Z" horiz-adv-x="556" unicode="₹"/>
			<glyph d="M113 698H213V550L409 628V567L213 489V402L409 480V419L213 341V72Q229 70 236 70Q337 70 379 148T423 362H528Q525 186 455 89T233 -7Q195 -7 113 0V302L25 267V328L113 363V450L25 415V476L113 511Z" horiz-adv-x="556" unicode="₺"/>
			<glyph d="M346 698H446V573Q548 563 617 485T720 293T753 63V0H650V47Q650 133 629 233T562 408T446 494V70H346V494Q275 484 229 409T162 234T142 47V0H39V63Q39 180 72 293T174 485T346 573Z" horiz-adv-x="792" unicode="₼"/>
			<glyph d="M117 698H320Q431 698 491 648T551 494Q551 430 520 384T437 316T318 293H221V232H394V154H221V0H117V154H28V232H117V293H28V371H117ZM221 617V371H308Q377 371 412 400T447 494Q447 559 412 588T307 617Z" horiz-adv-x="556" unicode="₽"/>
			<glyph d="M242 721Q291 721 321 686T352 593Q352 520 309 441T181 275V124Q181 82 201 60T256 38Q300 38 345 77L370 41Q310 -14 240 -14Q180 -14 146 20T113 113V228L54 165L27 203L113 287V548Q113 625 148 673T242 721ZM242 673Q215 673 198 642T181 559V335Q236 398 265 464T295 588Q295 626 280 649T242 673Z" horiz-adv-x="493" unicode="ℓ"/>
			<glyph d="M54 698H386V628H258V282H182V628H54ZM484 698H602L711 417L818 698H936V282H860V600H858L741 282H679L562 600H560V282H484Z" horiz-adv-x="990" unicode="™"/>
			<glyph d="M381 710Q474 710 546 667T657 550T697 380Q697 293 660 216T557 88H702V0H440L443 88Q591 188 591 367Q591 441 565 498T492 589T381 622Q280 622 222 553T164 364Q164 283 202 210T309 88L313 0H58V88H196Q125 145 91 214T58 370Q58 463 96 540T208 664T381 710Z" horiz-adv-x="760" unicode="Ω"/>
			<glyph d="M302 535Q377 535 435 501T527 404T561 259H157V78Q216 19 302 19Q366 19 412 48T495 139L530 118Q485 45 431 14T302 -17Q226 -17 167 19T76 118T44 259Q44 337 76 400T167 499T302 535ZM300 500Q217 500 157 440V295H448V440Q385 500 300 500Z" horiz-adv-x="600" unicode="℮"/>
			<glyph d="M245 782Q316 782 375 739T469 610T504 405Q504 283 472 189T381 44T238 -8Q175 -8 130 25T63 112T41 225Q41 300 69 358T147 448T254 481Q303 481 345 456T414 389Q415 399 415 432Q415 505 392 567T328 668T233 706Q160 706 102 659L73 726Q145 782 245 782ZM270 407Q232 407 200 382T149 314T131 223Q131 155 163 111T247 68Q285 68 318 98T374 182T404 306Q388 350 351 378T270 407Z" horiz-adv-x="554" unicode="∂"/>
			<glyph d="M303 698H408L693 0H15ZM352 604L156 88H547Z" horiz-adv-x="708" unicode="∆"/>
			<glyph d="M25 786H607V-214H529V714H103V-214H25Z" horiz-adv-x="705" unicode="∏"/>
			<glyph d="M39 786H577V714H140L441 290L122 -142H589V-214H25V-150L347 290L39 722Z" horiz-adv-x="615" unicode="∑"/>
			<glyph d="M47 297H553V209H47Z" horiz-adv-x="600" unicode="−"/>
			<glyph d="M264 720H336L-97 -22H-169Z" horiz-adv-x="167" unicode="∕"/>
			<glyph d="M140 362Q164 362 181 345T198 304Q198 279 181 261T140 244Q116 244 98 262T80 304Q80 327 98 344T140 362Z" unicode="∙"/>
			<glyph d="M438 786H514L303 -214H228L66 120L19 98L-9 158L103 210L254 -107Z" horiz-adv-x="504" unicode="√"/>
			<glyph d="M577 410Q643 410 684 366T725 255Q725 186 684 142T578 98Q533 98 487 124T388 207L339 163Q268 99 197 99Q130 99 90 143T50 252Q50 319 90 363T195 408Q240 408 284 382T388 294L411 316Q452 360 492 385T577 410ZM577 342Q546 342 511 319T431 251Q479 204 513 185T581 166Q618 166 639 190T660 252Q660 291 638 316T577 342ZM195 341Q160 341 137 315T115 252Q115 214 136 190T198 166Q260 166 345 251Q294 299 259 320T195 341Z" horiz-adv-x="775" unicode="∞"/>
			<glyph d="M340 786Q373 786 396 771T420 730Q420 713 408 702T378 692Q366 692 357 699T337 723Q330 735 322 735Q291 735 291 640L293 555V2Q293 -119 259 -166T167 -213Q138 -213 118 -198T98 -161Q98 -147 109 -136T135 -125Q147 -125 155 -132T172 -152Q181 -167 187 -167Q201 -167 208 -139T216 -60Q216 -44 215 -35T215 -18V592Q215 697 248 741T340 786Z" horiz-adv-x="554" unicode="∫"/>
			<glyph d="M522 415H572Q564 346 530 307T442 269Q412 269 375 279T273 314Q204 340 171 340Q143 340 122 319T95 263H44Q52 333 86 372T173 411Q200 411 234 402T319 373Q405 340 447 340Q476 340 495 359T522 415ZM521 235H571Q563 166 529 127T441 89Q412 89 375 99T272 134Q203 160 170 160Q142 160 121 139T94 83H43Q51 153 85 192T172 231Q199 231 233 222T318 193Q405 160 446 160Q475 160 494 179T521 235Z" horiz-adv-x="558" unicode="≈"/>
			<glyph d="M410 532L472 500L411 384H557V313H374L307 186H557V114H270L194 -32L132 0L191 114H50V186H228L295 313H50V384H333Z" horiz-adv-x="558" unicode="≠"/>
			<glyph d="M557 528V450L149 304L557 159V82L50 266V341ZM50 42H557V-30H50Z" horiz-adv-x="558" unicode="≤"/>
			<glyph d="M51 528L558 341V266L51 82V159L459 304L51 450ZM51 42H558V-30H51Z" horiz-adv-x="558" unicode="≥"/>
			<glyph d="M260 747H332L504 356L332 -35H260L89 356ZM296 671L165 356L296 41L428 356Z" horiz-adv-x="593" unicode="◊"/>
			<glyph d="M7 884H116L205 740H138Z" unicode=""/>
			<glyph d="M162 884H271L140 740H73Z" unicode=""/>
			<glyph d="M93 884H184L284 740H204L138 838L73 740H-6Z" unicode=""/>
			<glyph d="M-6 884H74L140 786L205 884H284L185 740H94Z" unicode=""/>
			<glyph d="M63 863Q80 863 99 857T145 839Q174 826 189 821T220 817Q238 817 249 829T263 863H309Q301 807 276 779T215 751Q199 751 180 756T135 774Q105 787 90 792T60 797Q40 797 29 784T15 751H-31Q-23 805 0 834T63 863Z" unicode=""/>
			<glyph d="M10 862H104V762H10ZM174 862H268V762H174Z" unicode=""/>
			<glyph d="M-9 841H287V783H-9Z" unicode=""/>
			<glyph d="M-15 880H34Q49 802 139 802Q229 802 244 880H293Q286 815 246 779T139 744Q73 744 32 779T-15 880Z" unicode=""/>
			<glyph d="M139 933Q180 933 210 903T241 831Q241 790 211 759T139 729Q97 729 67 759T37 831Q37 873 67 903T139 933ZM139 893Q114 893 95 874T77 831Q77 807 95 788T139 769Q163 769 182 788T201 831Q201 855 182 874T139 893Z" unicode=""/>
			<glyph d="M72 884H181L50 740H-17ZM253 884H362L231 740H164Z" unicode=""/>
			<glyph d="M92 862H186V762H92Z" unicode=""/>
			<glyph d="M25 725H117L70 532H4Z" unicode=""/>
			<glyph d="M114 -78H209L154 -222H79Z" unicode=""/>
			<glyph d="M134 725H206L171 581H79Z" unicode=""/>
			<glyph d="M0 718H512V0H0ZM50 667V50H462V667ZM259 609Q313 609 348 573T383 478Q383 442 369 416T319 357Q297 337 288 325T275 295T271 244V234H225Q225 236 224 244T223 264Q223 301 233 325T276 385L292 402Q313 422 322 437T332 474Q332 510 309 534T256 559Q222 559 201 535T174 464L124 472Q130 538 165 573T259 609ZM222 184H278V117H222Z" horiz-adv-x="512" unicode=""/>
			<glyph d="M312 762Q339 762 375 756L371 680Q354 686 326 686Q276 686 255 659T235 573V510H370V434H235V0H141V434H21V510H141V560Q141 664 180 713T312 762ZM475 730H581V624H475ZM481 510H575V0H481Z" horiz-adv-x="667" unicode="ﬁ"/>
			<glyph d="M312 762Q339 762 375 756L371 680Q354 686 326 686Q276 686 255 659T235 573V510H370V434H235V0H141V434H21V510H141V560Q141 664 180 713T312 762ZM481 750H575V0H481Z" horiz-adv-x="667" unicode="ﬂ"/>
		</font>
</defs>
</svg>
