<?xml version="1.0" encoding="UTF-8"?>
<svg height="100%" width="100%" xmlns="http://www.w3.org/2000/svg">
	<defs>
		<font horiz-adv-x="556" id="web">
			<font-face alphabetic="0" ascent="961" descent="-250" font-family="" panose-1="2 11 4 3 3 5 4 2 2 4"/>
			<missing-glyph d="M0 718H512V0H0ZM50 667V50H462V667ZM259 609Q313 609 348 573T383 478Q383 442 369 416T319 357Q297 337 288 325T275 295T271 244V234H225Q225 236 224 244T223 264Q223 301 233 325T276 385L292 402Q313 422 322 437T332 474Q332 510 309 534T256 559Q222 559 201 535T174 464L124 472Q130 538 165 573T259 609ZM222 184H278V117H222Z" horiz-adv-x="512"/>
			<glyph d="" horiz-adv-x="278" unicode=" "/>
			<glyph d="M154 698H235L223 169H166ZM154 84H235V0H154Z" horiz-adv-x="389" unicode="!"/>
			<glyph d="M179 698H242V480H179ZM314 698H377V480H314Z" unicode="&quot;"/>
			<glyph d="M205 698H266L235 479H365L396 698H457L426 479H522V425H419L398 273H494V219H390L359 0H298L329 219H199L168 0H107L138 219H34V273H145L167 425H60V479H174ZM228 425L207 273H337L358 425Z" unicode="#"/>
			<glyph d="M255 841H310V710Q345 710 381 704T445 687L434 624Q411 636 377 643T307 650Q243 650 199 620T156 530Q156 489 189 459T298 391Q353 363 389 337T451 273T476 185Q476 107 429 58T310 -6V-140H255V-12H246Q158 -12 89 18L96 89Q161 48 250 48Q322 48 364 85T407 190Q407 230 374 260T273 328Q212 361 174 387T111 448T87 528Q87 599 134 645T255 705Z" unicode="$"/>
			<glyph d="M677 720H735L322 -22H264ZM263 705Q339 705 380 656T421 518Q421 433 381 382T263 331Q186 331 145 380T105 518Q105 606 145 655T263 705ZM262 651Q218 651 193 616T168 518Q168 457 192 421T263 385Q312 385 335 422T358 518Q358 580 334 615T262 651ZM737 367Q813 367 854 318T895 180Q895 95 855 44T737 -7Q660 -7 619 42T579 180Q579 268 619 317T737 367ZM736 313Q692 313 667 278T642 180Q642 119 666 83T737 47Q786 47 809 84T832 180Q832 242 808 277T736 313Z" horiz-adv-x="1000" unicode="%"/>
			<glyph d="M313 710Q355 710 392 694T452 646T476 566Q476 505 439 462T308 376L492 171Q552 257 552 383H612Q612 313 592 248T534 131L655 0H567L491 80Q409 -12 279 -12Q216 -12 164 10T81 76T50 183Q50 322 215 386Q162 443 143 483T124 557Q124 605 151 639T221 692T313 710ZM307 656Q261 656 227 629T193 554Q193 523 211 490T272 412Q342 443 374 475T407 555Q407 602 380 629T307 656ZM250 347Q190 323 154 279T119 186Q119 118 166 80T281 42Q328 42 375 64T453 123Z" horiz-adv-x="667" unicode="&amp;"/>
			<glyph d="M108 698H171V480H108Z" horiz-adv-x="278" unicode="'"/>
			<glyph d="M213 756H255Q166 592 135 491T105 308Q105 226 135 125T255 -140H213Q119 3 80 108T42 308Q42 405 81 509T213 756Z" horiz-adv-x="278" unicode="("/>
			<glyph d="M23 756H65Q159 612 197 509T236 308Q236 212 197 108T65 -140H23Q110 21 141 122T173 308Q173 393 141 494T23 756Z" horiz-adv-x="278" unicode=")"/>
			<glyph d="M249 698H307L300 545L445 601L464 543L317 501L414 382L364 344L278 475L194 344L145 382L239 501L92 543L109 601L256 545Z" unicode="*"/>
			<glyph d="M265 507H334V288H553V219H334V0H265V219H46V288H265Z" horiz-adv-x="600" unicode="+"/>
			<glyph d="M112 84H196L117 -134H54Z" horiz-adv-x="278" unicode=","/>
			<glyph d="M41 304H292V235H41Z" horiz-adv-x="333" unicode="-"/>
			<glyph d="M98 84H179V0H98Z" horiz-adv-x="278" unicode="."/>
			<glyph d="M240 710H309L38 -12H-31Z" horiz-adv-x="278" unicode="/"/>
			<glyph d="M294 705Q406 705 464 613T523 349Q523 174 465 83T294 -7Q181 -7 123 83T65 349Q65 521 123 613T294 705ZM293 645Q134 645 134 349Q134 195 175 124T294 53Q373 53 413 124T454 349Q454 499 414 572T293 645Z" horiz-adv-x="588" unicode="0"/>
			<glyph d="M184 698H246V0H177V620L64 521L26 566Z" horiz-adv-x="335" unicode="1"/>
			<glyph d="M241 705Q335 705 389 657T443 522Q443 469 404 396T269 218L126 61V60H459V0H40V60L209 247Q292 339 330 404T368 519Q368 573 333 609T243 645Q161 645 77 595L65 658Q112 681 158 693T241 705Z" horiz-adv-x="526" unicode="2"/>
			<glyph d="M222 705Q319 705 381 661T444 532Q444 470 405 426T299 365V363Q369 360 406 312T444 194Q444 133 411 87T320 17T192 -7Q95 -7 20 21L28 87Q99 53 195 53Q271 53 323 90T375 200Q375 332 188 332H120V392H147Q268 392 321 428T375 532Q375 586 327 615T215 645Q137 645 59 608L53 673Q141 705 222 705Z" horiz-adv-x="499" unicode="3"/>
			<glyph d="M340 698H428V221H531V161H428V0H359V161H26V229ZM357 629L89 221H359V629Z" horiz-adv-x="565" unicode="4"/>
			<glyph d="M102 698H459V638H170L165 414Q190 422 213 425T270 429Q372 429 431 375T490 225Q490 112 420 52T236 -7Q151 -7 87 18V89Q119 71 158 62T236 53Q284 53 326 70T395 124T421 211Q421 287 380 328T246 369Q167 369 95 347Z" horiz-adv-x="543" unicode="5"/>
			<glyph d="M380 705Q424 705 492 689L486 623Q464 633 432 639T367 645Q241 645 187 559T134 355H136Q163 397 205 419T299 441Q356 441 405 419T485 349T517 223Q517 154 489 102T410 21T289 -7Q177 -7 121 75T65 324Q65 512 145 608T380 705ZM299 381Q226 381 183 338T141 226Q141 181 157 141T208 77T291 53Q363 53 405 98T448 218Q448 296 410 338T299 381Z" horiz-adv-x="564" unicode="6"/>
			<glyph d="M33 698H459V638L189 0H113L391 638H33Z" horiz-adv-x="494" unicode="7"/>
			<glyph d="M285 705Q373 705 433 664T494 542Q494 440 351 363Q442 332 479 289T517 179Q517 86 450 39T285 -7Q227 -7 173 13T86 76T53 179Q53 246 90 289T214 363Q75 429 75 542Q75 597 108 634T189 688T285 705ZM284 645Q228 645 186 617T144 536Q144 490 179 455T285 388Q358 423 391 459T425 536Q425 587 382 616T284 645ZM285 337L239 318Q181 294 151 261T122 180Q122 141 146 112T207 68T285 53Q357 53 402 86T448 185Q448 221 427 247T382 287T310 325Z" horiz-adv-x="570" unicode="8"/>
			<glyph d="M274 705Q386 705 442 623T498 375Q498 187 418 90T184 -7Q139 -7 71 9L77 75Q128 53 195 53Q324 53 376 140T429 343H427Q401 302 358 279T263 257Q208 257 158 278T77 348T46 475Q46 579 107 642T274 705ZM271 645Q200 645 157 600T115 480Q115 402 153 359T263 317Q337 317 379 359T422 472Q422 516 405 555T355 620T271 645Z" horiz-adv-x="563" unicode="9"/>
			<glyph d="M98 510H179V426H98ZM98 84H179V0H98Z" horiz-adv-x="278" unicode=":"/>
			<glyph d="M98 510H179V426H98ZM112 84H196L117 -134H54Z" horiz-adv-x="278" unicode=";"/>
			<glyph d="M553 514V448L123 253L553 58V-8L46 222V284Z" horiz-adv-x="600" unicode="&lt;"/>
			<glyph d="M46 388H553V319H46ZM46 187H553V118H46Z" horiz-adv-x="600" unicode="="/>
			<glyph d="M47 514L554 284V222L47 -8V58L478 253L47 448Z" horiz-adv-x="600" unicode="&gt;"/>
			<glyph d="M231 710Q320 710 372 662T424 531Q424 480 404 441T337 354Q293 308 273 270T253 182V169H190V179Q190 233 207 274T271 363Q301 396 317 417T344 466T355 530Q355 586 319 618T229 650Q192 650 162 643T89 622L86 685Q170 710 231 710ZM182 84H263V0H182Z" horiz-adv-x="500" unicode="?"/>
			<glyph d="M401 710Q492 710 573 674T705 570T756 408Q756 328 719 265T628 168T530 134Q463 134 451 195H449Q424 165 396 149T327 134Q287 134 256 154T208 210T191 285Q191 349 220 411T301 514T421 555Q458 555 487 535T532 478L553 538H616L534 276Q521 236 521 217Q521 207 526 200T543 194Q581 194 614 223T669 302T690 408Q690 483 650 537T544 621T401 650Q319 650 251 611T145 503T106 350Q106 264 144 195T250 87T401 48Q481 48 551 77T665 159H726Q676 75 590 31T401 -12Q285 -12 203 40T81 174T40 349Q40 446 82 528T207 660T401 710ZM421 495Q388 495 351 467T290 393T266 293Q266 252 284 223T338 194Q384 194 421 228T480 312T502 405Q502 449 480 472T421 495Z" horiz-adv-x="800" unicode="@"/>
			<glyph d="M299 698H377L654 0H582L507 187H155L80 0H13ZM333 632L181 247H484Z" horiz-adv-x="667" unicode="A"/>
			<glyph d="M80 698H247Q354 698 410 654T467 526Q467 392 340 367V365Q410 352 449 308T488 199Q488 97 417 48T219 0H80ZM151 638V393H228Q317 393 357 428T398 523Q398 581 358 609T247 638ZM149 333V60H219Q323 60 371 96T419 196Q419 269 370 301T219 333Z" unicode="B"/>
			<glyph d="M409 710Q451 710 499 703T569 684L565 620Q538 634 497 642T409 650Q322 650 258 612T160 506T126 350Q126 259 159 191T256 85T409 48Q457 48 499 55T565 78L569 18Q546 4 501 -4T409 -12Q302 -12 222 32T100 158T57 350Q57 456 100 537T223 664T409 710Z" horiz-adv-x="667" unicode="C"/>
			<glyph d="M80 698H255Q422 698 512 610T602 350Q602 182 501 91T202 0H80ZM149 638V60H206Q533 60 533 354Q533 495 460 566T250 638Z" horiz-adv-x="667" unicode="D"/>
			<glyph d="M86 698H428V638H155V389H414V329H155V60H440V0H86Z" horiz-adv-x="500" unicode="E"/>
			<glyph d="M77 698H409V638H146V389H397V329H146V0H77Z" horiz-adv-x="444" unicode="F"/>
			<glyph d="M416 710Q467 710 521 701T603 677L595 613Q527 650 417 650Q327 650 263 611T166 504T133 349Q133 261 165 193T261 86T416 48Q463 48 503 54T564 73V318H402V378H633V31Q535 -12 417 -12Q308 -12 228 33T106 159T64 349Q64 454 107 536T229 664T416 710Z" horiz-adv-x="722" unicode="G"/>
			<glyph d="M87 698H156V389H509V698H578V0H509V329H156V0H87Z" horiz-adv-x="667" unicode="H"/>
			<glyph d="M77 698H146V0H77Z" horiz-adv-x="222" unicode="I"/>
			<glyph d="M181 698H250V180Q250 90 208 39T86 -12Q46 -12 14 0V61Q40 48 79 48Q129 48 155 82T181 177Z" horiz-adv-x="333" unicode="J"/>
			<glyph d="M95 698H164V385L478 698H568L230 369L597 0H502L164 349V0H95Z" horiz-adv-x="611" unicode="K"/>
			<glyph d="M80 698H149V60H429V0H80Z" horiz-adv-x="444" unicode="L"/>
			<glyph d="M86 698H193L448 84L704 698H803V0H734V629H732L478 0H419L157 629H155V0H86Z" horiz-adv-x="889" unicode="M"/>
			<glyph d="M77 698H164L519 84H521V698H590V0H497L148 602H146V0H77Z" horiz-adv-x="667" unicode="N"/>
			<glyph d="M360 710Q459 710 528 662T633 533T668 354Q668 245 633 162T529 34T360 -12Q263 -12 194 33T89 160T54 354Q54 457 91 537T197 664T360 710ZM360 650Q287 650 233 609T151 500T123 349Q123 264 152 195T235 87T360 48Q437 48 491 89T572 199T599 349Q599 427 572 496T492 607T360 650Z" horiz-adv-x="722" unicode="O"/>
			<glyph d="M86 698H259Q360 698 417 646T474 500Q474 408 412 355T252 302H155V0H86ZM155 638V362H220Q325 362 365 398T405 500Q405 567 368 602T268 638Z" horiz-adv-x="500" unicode="P"/>
			<glyph d="M360 710Q461 710 530 661T634 531T668 355Q668 229 621 138T487 12L634 -130H542L418 -7Q398 -12 363 -12Q260 -12 191 35T88 165T54 354Q54 458 91 538T198 664T360 710ZM360 650Q289 650 235 611T152 503T123 349Q123 266 151 197T233 88T360 48Q439 48 492 90T572 202T599 349Q599 428 572 497T492 608T360 650Z" horiz-adv-x="722" unicode="Q"/>
			<glyph d="M88 698H268Q366 698 419 653T473 518Q473 452 430 408T318 356V354Q355 349 372 331T409 268L527 0H451L356 222Q336 268 319 290T282 321T228 329H157V0H88ZM157 638V389H232Q299 389 351 419T404 518Q404 585 366 611T245 638Z" unicode="R"/>
			<glyph d="M279 710Q314 710 350 704T416 687L405 624Q382 636 348 643T278 650Q214 650 170 620T127 530Q127 489 160 459T269 391Q324 363 360 337T422 273T447 185Q447 121 415 76T331 10T217 -12Q129 -12 60 18L67 89Q132 48 221 48Q293 48 335 85T378 190Q378 230 344 261T244 328Q183 361 145 387T82 448T58 528Q58 584 88 625T168 688T279 710Z" horiz-adv-x="500" unicode="S"/>
			<glyph d="M10 698H491V638H285V0H216V638H10Z" horiz-adv-x="500" unicode="T"/>
			<glyph d="M81 698H150V241Q150 158 198 103T334 48Q418 48 468 99T518 244V698H587V241Q587 153 550 96T456 13T334 -12Q270 -12 212 13T118 95T81 242Z" horiz-adv-x="667" unicode="U"/>
			<glyph d="M6 698H79L304 69L537 698H605L340 0H266Z" horiz-adv-x="611" unicode="V"/>
			<glyph d="M9 698H80L252 78H254L433 698H516L692 78H694L869 698H935L733 0H651L474 620H472L292 0H209Z" horiz-adv-x="944" unicode="W"/>
			<glyph d="M33 698H114L310 416L508 698H585L350 367L604 0H520L307 318L86 0H7L267 367Z" horiz-adv-x="611" unicode="X"/>
			<glyph d="M12 698H92L305 357L524 698H599L340 296V0H271V296Z" horiz-adv-x="611" unicode="Y"/>
			<glyph d="M30 698H458V638L96 60H470V0H21V60L385 638H30Z" horiz-adv-x="500" unicode="Z"/>
			<glyph d="M69 756H231V708H132V-92H231V-140H69Z" horiz-adv-x="278" unicode="["/>
			<glyph d="M-31 710H38L309 -12H240Z" horiz-adv-x="278" unicode="\"/>
			<glyph d="M47 756H209V-140H47V-92H146V708H47Z" horiz-adv-x="278" unicode="]"/>
			<glyph d="M268 698H332L550 265H479L300 629L121 265H50Z" horiz-adv-x="600" unicode="^"/>
			<glyph d="M0 -75H500V-125H0Z" horiz-adv-x="500" unicode="_"/>
			<glyph d="M-4 706H75L168 562H122Z" horiz-adv-x="222" unicode="`"/>
			<glyph d="M250 522Q347 522 388 475T429 333V74Q429 58 430 35T434 0H372V82H370Q350 39 304 13T208 -12Q142 -12 104 12T53 69T40 132Q40 227 112 269T335 311H366V338Q366 409 337 438T250 468Q165 468 100 426V487Q130 501 173 511T250 522ZM337 257Q216 257 162 226T109 134Q109 90 136 66T215 42Q366 42 366 219V257Z" horiz-adv-x="500" unicode="a"/>
			<glyph d="M73 750H136V424H138Q156 466 199 494T297 522Q401 522 454 452T507 255Q507 134 451 61T297 -12Q241 -12 202 10T138 81H136V0H73ZM287 468Q212 468 174 404T136 255Q136 167 175 104T287 42Q360 42 399 97T438 255Q438 349 401 408T287 468Z" unicode="b"/>
			<glyph d="M293 522Q355 522 416 502L411 442Q351 468 301 468Q212 468 161 409T110 255Q110 198 132 149T196 71T295 42Q346 42 410 65L416 6Q364 -12 286 -12Q206 -12 150 24T68 121T41 255Q41 335 73 395T163 489T293 522Z" horiz-adv-x="444" unicode="c"/>
			<glyph d="M420 750H483V0H420V81H418Q392 32 353 10T259 -12Q160 -12 104 61T49 255Q49 385 103 453T258 522Q318 522 359 492T418 424H420ZM268 468Q197 468 157 412T118 255Q118 159 155 100T269 42Q320 42 354 73T404 152T420 255Q420 307 404 355T355 436T268 468Z" unicode="d"/>
			<glyph d="M256 522Q352 522 405 455T459 264V237H110Q111 147 157 94T278 42Q311 42 354 53T421 80V16Q351 -12 272 -12Q160 -12 100 56T41 255Q41 332 67 392T143 487T256 522ZM259 468Q219 468 185 445T131 381T110 291H390Q389 375 354 421T259 468Z" horiz-adv-x="500" unicode="e"/>
			<glyph d="M256 762Q273 762 290 759T316 752L312 697Q292 708 262 708Q223 708 204 682T185 597V510H300V456H185V0H122V456H19V510H122V575Q122 678 155 720T256 762Z" horiz-adv-x="333" unicode="f"/>
			<glyph d="M259 522Q316 522 350 508T418 452H420V510H483V40Q483 -81 422 -148T244 -216Q174 -216 90 -189L95 -126Q129 -144 169 -153T245 -162Q314 -162 352 -134T406 -53T421 84V100H419Q374 0 264 0Q190 0 142 36T71 131T49 255Q49 384 103 453T259 522ZM268 468Q194 468 156 411T118 255Q118 169 155 111T265 54Q343 54 381 114T420 256Q420 363 382 415T268 468Z" unicode="g"/>
			<glyph d="M79 750H142V424H144Q167 471 209 496T304 522Q393 522 435 469T477 309V0H414V309Q414 393 385 430T293 468Q220 468 181 411T142 272V0H79Z" unicode="h"/>
			<glyph d="M79 730H142V646H79ZM79 510H142V0H79Z" horiz-adv-x="222" unicode="i"/>
			<glyph d="M79 730H142V646H79ZM79 510H142V-75Q142 -147 114 -181T26 -216Q-1 -216 -28 -211V-156Q-10 -162 10 -162Q50 -162 64 -139T79 -69Z" horiz-adv-x="222" unicode="j"/>
			<glyph d="M79 750H142V301L370 510H451L202 284L481 0H394L142 262V0H79Z" horiz-adv-x="500" unicode="k"/>
			<glyph d="M79 750H142V0H79Z" horiz-adv-x="222" unicode="l"/>
			<glyph d="M296 522Q350 522 386 493T432 414H434Q454 465 498 493T597 522Q675 522 716 473T758 352V0H695V340Q695 400 668 434T587 468Q550 468 519 447T469 384T450 283V0H387V340Q387 401 360 434T279 468Q219 468 180 417T142 285V0H79V430Q79 466 75 510H136V424L138 423Q164 476 202 499T296 522Z" horiz-adv-x="833" unicode="m"/>
			<glyph d="M303 522Q392 522 434 469T477 326V0H414V311Q414 468 293 468Q218 468 180 414T142 283V0H79V423Q79 466 75 510H136V419H138Q162 473 202 497T303 522Z" unicode="n"/>
			<glyph d="M278 522Q354 522 408 487T489 391T516 255Q516 180 489 119T408 23T278 -12Q201 -12 147 23T67 119T40 255Q40 331 67 391T148 487T278 522ZM277 468Q227 468 189 441T130 366T109 255Q109 161 154 101T278 42Q357 42 402 102T447 255Q447 347 402 407T277 468Z" unicode="o"/>
			<glyph d="M297 522Q398 522 452 454T507 255Q507 134 451 61T297 -12Q239 -12 200 12T138 87H136V-210H73V510H136L132 417H134Q189 522 297 522ZM287 468Q236 468 202 437T152 357T136 255Q136 202 152 153T202 73T287 42Q362 42 400 99T438 255Q438 353 400 410T287 468Z" unicode="p"/>
			<glyph d="M259 522Q363 522 418 427H420V510H483V-210H420V87H418Q394 37 356 12T259 -12Q160 -12 104 61T49 255Q49 384 103 453T259 522ZM268 468Q195 468 156 412T118 255Q118 153 157 97T269 42Q320 42 354 73T404 152T420 255Q420 309 404 357T354 437T268 468Z" unicode="q"/>
			<glyph d="M271 522Q293 522 315 516V450Q295 456 270 456Q206 456 174 399T142 251V0H79V439Q79 474 75 510H138V412H140Q162 465 196 493T271 522Z" horiz-adv-x="333" unicode="r"/>
			<glyph d="M207 522Q234 522 269 516T333 499L327 444Q302 455 270 461T213 468Q157 468 130 447T104 383Q104 360 126 340T216 291Q298 255 326 218T355 133Q355 61 301 24T176 -12Q93 -12 34 12L40 74Q104 42 172 42Q222 42 254 67T286 133Q286 171 256 195T165 247Q95 278 68 310T41 383Q41 453 88 487T207 522Z" horiz-adv-x="389" unicode="s"/>
			<glyph d="M183 655V510H299V456H183V126Q183 86 200 64T251 42Q278 42 309 54L313 2Q300 -3 278 -7T236 -12Q169 -12 144 24T120 139V456H20V510H120V633Z" horiz-adv-x="333" unicode="t"/>
			<glyph d="M79 510H142V198Q142 129 170 85T263 42Q338 42 376 95T414 225V510H477V84Q477 36 481 0H420V91H418Q394 38 353 13T253 -12Q165 -12 122 40T79 182Z" unicode="u"/>
			<glyph d="M9 510H78L219 69H221L369 510H435L256 0H182Z" horiz-adv-x="444" unicode="v"/>
			<glyph d="M7 510H76L210 69H212L354 510H430L565 69H567L708 510H771L603 0H527L388 441H386L247 0H171Z" horiz-adv-x="778" unicode="w"/>
			<glyph d="M25 510H103L224 320L347 510H419L261 270L436 0H358L224 220L81 0H8L187 270Z" horiz-adv-x="444" unicode="x"/>
			<glyph d="M9 510H78L221 85H222L369 510H435L230 -79Q204 -153 172 -184T99 -216Q66 -216 32 -208L38 -154Q60 -162 87 -162Q114 -162 131 -145T158 -104T181 -37L190 -6Z" horiz-adv-x="444" unicode="y"/>
			<glyph d="M44 510H412V456L105 54H412V0H32V53L339 456H44Z" horiz-adv-x="444" unicode="z"/>
			<glyph d="M218 756H273V708H223Q201 708 190 682T179 615V449Q179 395 155 358T95 309V307Q133 294 156 256T179 166V1Q179 -41 190 -66T223 -92H273V-140H217Q172 -140 144 -106T116 -20V154Q116 212 95 248T38 284V332Q75 332 95 369T116 466V636Q116 689 144 722T218 756Z" horiz-adv-x="278" unicode="{"/>
			<glyph d="M77 750H146V-250H77Z" horiz-adv-x="222" unicode="|"/>
			<glyph d="M5 756H61Q106 756 134 722T162 636V462Q162 404 182 368T240 332V284Q203 284 182 247T162 150V-20Q162 -73 134 -106T60 -140H5V-92H55Q77 -92 88 -66T99 1V167Q99 220 123 257T183 307V309Q145 322 122 360T99 450V615Q99 657 87 682T55 708H5Z" horiz-adv-x="278" unicode="}"/>
			<glyph d="M194 324Q219 324 248 313T320 282Q352 266 372 258T407 251Q430 251 450 267T495 324L531 273Q485 182 406 182Q383 182 355 191T286 222Q249 240 228 247T193 255Q172 255 151 239T105 182L69 233Q94 281 124 302T194 324Z" horiz-adv-x="600" unicode="~"/>
			<glyph d="" horiz-adv-x="278" unicode=" "/>
			<glyph d="M154 510H235V426H154ZM166 341H223L235 -188H154Z" horiz-adv-x="389" unicode="¡"/>
			<glyph d="M407 588H454L429 514Q452 509 474 502L469 442Q445 453 412 461L278 59Q314 42 354 42Q406 42 468 65L474 6Q422 -12 344 -12Q296 -12 259 2L228 -91H181L218 19Q161 52 130 114T99 255Q99 333 130 394T219 488T352 522Q375 522 385 520ZM361 468Q267 468 217 408T168 255Q168 202 186 157T239 83L367 467Z" unicode="¢"/>
			<glyph d="M389 705Q422 705 452 699T501 684L491 622Q453 645 390 645Q323 645 281 604T239 452V401H405V347H239V60H485V0H67V60H170V347H79V401H170V447Q170 705 389 705Z" unicode="£"/>
			<glyph d="M70 600L127 544Q159 570 198 583T278 597Q320 597 359 583T430 544L484 600L529 555L475 500Q500 470 513 430T526 349Q526 259 475 196L529 141L484 98L430 154Q400 128 360 114T278 101Q235 101 196 114T127 154L70 98L27 141L84 196Q30 264 30 349Q30 439 84 500L27 555ZM280 537Q234 537 192 512T125 444T99 349Q99 298 121 255T183 186T273 161Q332 161 374 189T436 260T457 349Q457 401 433 444T368 512T280 537Z" unicode="¤"/>
			<glyph d="M19 698H95L278 361L466 698H537L343 352H457V304H316L313 298V223H457V175H313V0H244V175H100V223H244V298L241 304H100V352H214Z" unicode="¥"/>
			<glyph d="M77 675H146V325H77ZM77 175H146V-175H77Z" horiz-adv-x="222" unicode="¦"/>
			<glyph d="M277 710Q353 710 421 688L414 630Q396 639 361 647T295 656Q268 656 237 647T185 619T164 571Q164 543 182 522T226 487T298 455Q351 433 384 414T441 366T464 295Q464 261 448 230T389 159Q425 139 446 109T467 41Q467 -17 433 -53T352 -104T263 -120Q176 -120 95 -92L102 -33Q175 -66 263 -66Q317 -66 357 -38T398 39Q398 75 365 97T256 149Q173 180 131 214T89 310Q89 343 109 375T177 447Q134 471 114 498T95 561Q95 609 120 642T188 693T277 710ZM226 423Q200 409 179 377T158 314Q158 263 223 234L340 183Q370 210 384 232T399 283Q399 322 377 342T309 384L290 393Z" unicode="§"/>
			<glyph d="M-12 668H63V584H-12ZM159 668H234V584H159Z" horiz-adv-x="222" unicode="¨"/>
			<glyph d="M400 710Q497 710 580 662T712 531T761 349Q761 252 713 169T582 37T400 -12Q302 -12 219 37T87 168T39 349Q39 446 87 529T218 661T400 710ZM400 656Q318 656 251 615T146 504T108 349Q108 264 146 193T251 82T401 42Q481 42 548 81T653 191T692 349Q692 436 653 506T548 616T400 656ZM410 575Q482 575 531 535T590 424H530Q521 469 489 495T411 521Q344 521 305 474T266 350Q266 304 283 264T334 201T413 178Q458 178 490 205T530 280H591Q576 208 527 166T413 124Q350 124 301 153T224 233T197 349Q197 413 222 464T295 545T410 575Z" horiz-adv-x="800" unicode="©"/>
			<glyph d="M173 710Q289 710 289 598V442Q289 425 292 396H242V444H240Q229 418 200 403T139 388Q24 388 24 479Q24 536 69 563T212 590H238V608Q238 668 167 668Q113 668 69 644V690Q125 710 173 710ZM227 548Q152 548 113 531T75 484Q75 430 150 430Q238 430 238 521V548Z" horiz-adv-x="325" unicode="ª"/>
			<glyph d="M231 474H290L157 269L290 64H231L91 269ZM406 474H465L332 269L465 64H406L266 269Z" unicode="«"/>
			<glyph d="M46 388H553V114H484V319H46Z" horiz-adv-x="600" unicode="¬"/>
			<glyph d="M41 304H292V235H41Z" horiz-adv-x="333" unicode="­"/>
			<glyph d="M400 710Q497 710 580 662T712 531T761 349Q761 252 713 169T582 37T400 -12Q302 -12 219 37T87 168T39 349Q39 446 87 529T218 661T400 710ZM400 656Q318 656 251 615T146 504T108 349Q108 264 146 193T251 82T401 42Q481 42 548 81T653 191T692 349Q692 436 653 506T548 616T400 656ZM262 561H425Q569 561 569 442Q569 390 539 357T460 325L580 138H507L389 325H331V138H262ZM331 507V379H416Q461 379 480 394T500 445Q500 476 476 491T412 507Z" horiz-adv-x="800" unicode="®"/>
			<glyph d="M-11 661H233V607H-11Z" horiz-adv-x="222" unicode="¯"/>
			<glyph d="M200 705Q242 705 278 686T336 634T358 556Q358 513 336 479T278 426T200 407Q157 407 120 426T63 480T42 556Q42 598 63 632T121 686T200 705ZM199 657Q152 657 122 629T93 556Q93 514 125 484T200 455Q243 455 275 485T307 556Q307 602 277 629T199 657Z" horiz-adv-x="400" unicode="°"/>
			<glyph d="M265 507H334V338H553V269H334V100H265V269H46V338H265ZM46 69H553V0H46Z" horiz-adv-x="600" unicode="±"/>
			<glyph d="M178 853Q242 853 277 823T312 736Q312 688 282 642T188 538L120 476H316V428H45V469L144 558Q189 600 222 647T255 733Q255 765 233 785T178 805Q126 805 69 774L61 825Q119 853 178 853ZZ" horiz-adv-x="361" unicode="²"/>
			<glyph d="M174 853Q233 853 276 826T319 747Q319 711 294 685T224 649V647Q268 645 294 616T321 542Q321 485 271 453T153 422Q84 422 34 439L39 491Q92 470 158 470Q199 470 231 490T264 550Q264 590 229 606T136 622H99V671H123Q198 671 230 691T262 743Q262 805 162 805Q108 805 59 782L55 834Q78 843 112 848T174 853ZZZ" horiz-adv-x="361" unicode="³"/>
			<glyph d="M146 706H225L99 562H53Z" horiz-adv-x="222" unicode="´"/>
			<glyph d="M79 510H142V197Q142 122 172 82T263 42Q335 42 374 93T414 230V510H477V82Q477 44 481 0H420V91H418Q394 38 353 13T253 -12Q190 -12 142 17V-210H79Z" unicode="µ"/>
			<glyph d="M274 698H516V-108H453V644H319V-108H256V320Q197 320 149 344T75 411T48 506Q48 599 107 648T274 698Z" horiz-adv-x="600" unicode="¶"/>
			<glyph d="M140 359Q159 359 173 345T187 311Q187 290 173 277T140 264Q118 264 105 277T92 311Q92 332 106 345T140 359Z" horiz-adv-x="278" unicode="·"/>
			<glyph d="M104 0H131L112 -54Q133 -51 145 -51Q177 -51 197 -69T218 -116Q218 -149 191 -167T108 -185Q67 -185 7 -163L14 -126Q34 -139 58 -147T103 -155Q128 -155 141 -145T155 -118Q155 -102 145 -91T116 -81Q95 -81 75 -85Z" horiz-adv-x="222" unicode="¸"/>
			<glyph d="M180 849H232V428H175V794L99 736L77 769Z" horiz-adv-x="361" unicode="¹"/>
			<glyph d="M178 710Q259 710 298 664T338 548Q338 481 298 434T178 388Q103 388 63 433T23 548Q23 618 63 664T178 710ZM180 668Q132 668 103 632T74 548Q74 496 103 463T181 430Q229 430 258 462T287 548Q287 598 258 633T180 668Z" horiz-adv-x="361" unicode="º"/>
			<glyph d="M91 474H150L290 269L150 64H91L224 269ZM266 474H325L465 269L325 64H266L399 269Z" unicode="»"/>
			<glyph d="M565 720H622L209 -22H152ZM174 703H226V282H169V648L93 590L71 623ZM639 421H707V139H763V91H707V0H650V91H431V140ZM648 352L488 139H650V352Z" horiz-adv-x="834" unicode="¼"/>
			<glyph d="M548 720H605L192 -22H135ZM162 703H214V282H157V648L81 590L59 623ZM638 425Q702 425 737 395T772 308Q772 260 742 214T648 110L580 48H776V0H505V41L604 130Q649 172 682 219T715 305Q715 337 693 357T638 377Q586 377 529 346L521 397Q579 425 638 425ZZ" horiz-adv-x="834" unicode="½"/>
			<glyph d="M635 720H692L279 -22H222ZM193 707Q252 707 295 680T338 601Q338 565 313 539T243 503V501Q287 499 313 470T340 396Q340 337 289 306T172 276Q103 276 53 293L58 345Q110 324 177 324Q218 324 250 344T283 404Q283 445 248 460T155 476H118V525H142Q217 525 249 545T281 597Q281 659 181 659Q127 659 78 636L74 688Q97 697 131 702T193 707ZM658 421H726V139H782V91H726V0H669V91H450V140ZM667 352L507 139H669V352ZZZ" horiz-adv-x="834" unicode="¾"/>
			<glyph d="M237 510H318V426H237ZM247 341H310V327Q310 282 297 248T269 195T225 142Q220 136 196 110T159 51T145 -21Q145 -75 180 -107T271 -140Q307 -140 338 -133T411 -112L414 -175Q331 -200 269 -200Q183 -200 129 -153T76 -21Q76 27 96 68T164 157Q211 205 229 243T247 328Z" horiz-adv-x="500" unicode="¿"/>
			<glyph d="M299 698H377L654 0H582L507 187H155L80 0H13ZM333 632L181 247H484ZM216 884H295L388 740H342Z" horiz-adv-x="667" unicode="À"/>
			<glyph d="M299 698H377L654 0H582L507 187H155L80 0H13ZM333 632L181 247H484ZM381 884H460L334 740H288Z" horiz-adv-x="667" unicode="Á"/>
			<glyph d="M299 698H377L654 0H582L507 187H155L80 0H13ZM333 632L181 247H484ZM299 884H381L474 740H428L340 842L252 740H206Z" horiz-adv-x="667" unicode="Â"/>
			<glyph d="M299 698H377L654 0H582L507 187H155L80 0H13ZM333 632L181 247H484ZM437 845H474Q469 804 445 780T391 757Q365 757 323 772Q295 782 282 782Q265 782 255 774T238 746H202Q212 790 233 813T284 836Q307 836 347 823Q380 811 389 811Q404 811 418 819T437 845Z" horiz-adv-x="667" unicode="Ã"/>
			<glyph d="M299 698H377L654 0H582L507 187H155L80 0H13ZM333 632L181 247H484ZM217 846H292V762H217ZM388 846H463V762H388Z" horiz-adv-x="667" unicode="Ä"/>
			<glyph d="M299 698H377L654 0H582L507 187H155L80 0H13ZM333 632L181 247H484ZM341 911Q378 911 407 886T437 816Q437 776 409 748T341 721Q300 721 272 747T245 816Q245 861 274 886T341 911ZM340 875Q314 875 297 858T281 816Q281 792 298 774T341 757Q368 757 384 774T401 816Q401 841 385 858T340 875Z" horiz-adv-x="667" unicode="Å"/>
			<glyph d="M436 698H817V638H546V389H803V329H546V60H829V0H477V187H192L76 0H0ZM475 644L229 247H477V644Z" horiz-adv-x="889" unicode="Æ"/>
			<glyph d="M409 710Q454 710 501 702T569 684L565 620Q539 634 497 642T409 650Q323 650 259 612T160 506T126 349Q126 259 159 191T256 85T409 48Q457 48 499 56T565 78L569 18Q547 5 502 -3T407 -12L395 -11L380 -54Q404 -51 413 -51Q445 -51 465 -69T486 -116Q486 -151 457 -168T376 -185Q333 -185 275 -163L282 -126Q301 -138 326 -146T371 -155Q395 -155 409 -145T423 -118Q423 -103 413 -92T384 -81Q363 -81 343 -85L368 -9Q271 -1 200 46T93 171T57 349Q57 455 100 537T223 664T409 710Z" horiz-adv-x="667" unicode="Ç"/>
			<glyph d="M86 698H428V638H155V389H414V329H155V60H440V0H86ZM131 884H210L303 740H257Z" horiz-adv-x="500" unicode="È"/>
			<glyph d="M86 698H428V638H155V389H414V329H155V60H440V0H86ZM294 884H373L247 740H201Z" horiz-adv-x="500" unicode="É"/>
			<glyph d="M86 698H428V638H155V389H414V329H155V60H440V0H86ZM209 884H291L384 740H338L250 842L162 740H116Z" horiz-adv-x="500" unicode="Ê"/>
			<glyph d="M86 698H428V638H155V389H414V329H155V60H440V0H86ZM129 846H204V762H129ZM300 846H375V762H300Z" horiz-adv-x="500" unicode="Ë"/>
			<glyph d="M77 698H146V0H77ZM-5 884H74L167 740H121Z" horiz-adv-x="222" unicode="Ì"/>
			<glyph d="M77 698H146V0H77ZM147 884H226L100 740H54Z" horiz-adv-x="222" unicode="Í"/>
			<glyph d="M77 698H146V0H77ZM69 884H151L244 740H198L110 842L22 740H-24Z" horiz-adv-x="222" unicode="Î"/>
			<glyph d="M77 698H146V0H77ZM-12 846H63V762H-12ZM159 846H234V762H159Z" horiz-adv-x="222" unicode="Ï"/>
			<glyph d="M80 698H255Q422 698 512 610T602 350Q602 182 501 91T202 0H80V329H11V389H80ZM149 638V389H362V329H149V60H206Q533 60 533 354Q533 495 460 566T250 638Z" horiz-adv-x="667" unicode="Ð"/>
			<glyph d="M77 698H164L519 84H521V698H590V0H497L148 602H146V0H77ZM436 850H473Q468 809 444 785T390 762Q364 762 322 777Q294 787 281 787Q264 787 254 779T237 751H201Q211 795 232 818T283 841Q306 841 346 828Q379 816 388 816Q403 816 417 824T436 850Z" horiz-adv-x="667" unicode="Ñ"/>
			<glyph d="M360 710Q459 710 528 662T633 533T668 354Q668 245 633 162T529 34T360 -12Q263 -12 194 33T89 160T54 354Q54 457 91 537T197 664T360 710ZM360 650Q287 650 233 609T151 500T123 349Q123 264 152 195T235 87T360 48Q437 48 491 89T572 199T599 349Q599 427 572 496T492 607T360 650ZM248 884H327L420 740H374Z" horiz-adv-x="722" unicode="Ò"/>
			<glyph d="M360 710Q459 710 528 662T633 533T668 354Q668 245 633 162T529 34T360 -12Q263 -12 194 33T89 160T54 354Q54 457 91 537T197 664T360 710ZM360 650Q287 650 233 609T151 500T123 349Q123 264 152 195T235 87T360 48Q437 48 491 89T572 199T599 349Q599 427 572 496T492 607T360 650ZM406 884H485L359 740H313Z" horiz-adv-x="722" unicode="Ó"/>
			<glyph d="M360 710Q459 710 528 662T633 533T668 354Q668 245 633 162T529 34T360 -12Q263 -12 194 33T89 160T54 354Q54 457 91 537T197 664T360 710ZM360 650Q287 650 233 609T151 500T123 349Q123 264 152 195T235 87T360 48Q437 48 491 89T572 199T599 349Q599 427 572 496T492 607T360 650ZM323 884H405L498 740H452L364 842L276 740H230Z" horiz-adv-x="722" unicode="Ô"/>
			<glyph d="M360 710Q459 710 528 662T633 533T668 354Q668 245 633 162T529 34T360 -12Q263 -12 194 33T89 160T54 354Q54 457 91 537T197 664T360 710ZM360 650Q287 650 233 609T151 500T123 349Q123 264 152 195T235 87T360 48Q437 48 491 89T572 199T599 349Q599 427 572 496T492 607T360 650ZM464 850H501Q496 809 472 785T418 762Q392 762 350 777Q322 787 309 787Q292 787 282 779T265 751H229Q239 795 260 818T311 841Q334 841 374 828Q407 816 416 816Q431 816 445 824T464 850Z" horiz-adv-x="722" unicode="Õ"/>
			<glyph d="M360 710Q459 710 528 662T633 533T668 354Q668 245 633 162T529 34T360 -12Q263 -12 194 33T89 160T54 354Q54 457 91 537T197 664T360 710ZM360 650Q287 650 233 609T151 500T123 349Q123 264 152 195T235 87T360 48Q437 48 491 89T572 199T599 349Q599 427 572 496T492 607T360 650ZM243 846H318V762H243ZM414 846H489V762H414Z" horiz-adv-x="722" unicode="Ö"/>
			<glyph d="M120 486L301 305L480 486L530 437L350 257L530 76L480 26L301 208L120 26L71 76L252 257L71 437Z" horiz-adv-x="600" unicode="×"/>
			<glyph d="M654 727L693 694L602 589Q635 542 651 482T668 356Q668 243 632 160T528 33T361 -12Q226 -12 149 71L68 -22L29 11L117 112Q85 158 69 220T54 355Q54 455 89 535T194 663T361 710Q489 710 568 629ZM361 650Q286 650 232 609T150 499T123 349Q123 246 166 169L523 577Q460 650 361 650ZM554 534L196 124Q259 48 362 48Q437 48 490 89T571 199T599 349Q599 456 554 534Z" horiz-adv-x="722" unicode="Ø"/>
			<glyph d="M81 698H150V241Q150 158 198 103T334 48Q418 48 468 99T518 244V698H587V241Q587 153 550 96T456 13T334 -12Q270 -12 212 13T118 95T81 242ZM227 884H306L399 740H353Z" horiz-adv-x="667" unicode="Ù"/>
			<glyph d="M81 698H150V241Q150 158 198 103T334 48Q418 48 468 99T518 244V698H587V241Q587 153 550 96T456 13T334 -12Q270 -12 212 13T118 95T81 242ZM376 884H455L329 740H283Z" horiz-adv-x="667" unicode="Ú"/>
			<glyph d="M81 698H150V241Q150 158 198 103T334 48Q418 48 468 99T518 244V698H587V241Q587 153 550 96T456 13T334 -12Q270 -12 212 13T118 95T81 242ZM296 884H378L471 740H425L337 842L249 740H203Z" horiz-adv-x="667" unicode="Û"/>
			<glyph d="M81 698H150V241Q150 158 198 103T334 48Q418 48 468 99T518 244V698H587V241Q587 153 550 96T456 13T334 -12Q270 -12 212 13T118 95T81 242ZM215 846H290V762H215ZM386 846H461V762H386Z" horiz-adv-x="667" unicode="Ü"/>
			<glyph d="M12 698H92L305 357L524 698H599L340 296V0H271V296ZM347 884H426L300 740H254Z" horiz-adv-x="611" unicode="Ý"/>
			<glyph d="M86 698H155V568H259Q360 568 417 517T474 370Q474 306 444 261T365 194T253 172H155V0H86ZM155 508V232H217Q316 232 360 264T405 370Q405 437 368 472T269 508Z" horiz-adv-x="500" unicode="Þ"/>
			<glyph d="M279 762Q365 762 416 711T468 576Q468 508 432 462T334 402V400Q417 393 461 344T506 215Q506 151 480 100T405 21T290 -7Q237 -7 204 5L208 64Q235 47 290 47Q359 47 398 93T437 214Q437 292 391 329T246 367H236V421H252Q318 421 358 463T399 574Q399 634 366 671T279 708Q210 708 176 660T142 524V0H79V543Q79 644 131 703T279 762Z" unicode="ß"/>
			<glyph d="M250 522Q347 522 388 475T429 333V74Q429 58 430 35T434 0H372V82H370Q350 39 304 13T208 -12Q142 -12 104 12T53 69T40 132Q40 227 112 269T335 311H366V338Q366 409 337 438T250 468Q165 468 100 426V487Q130 501 173 511T250 522ZM337 257Q216 257 162 226T109 134Q109 90 136 66T215 42Q366 42 366 219V257ZM137 706H216L309 562H263Z" horiz-adv-x="500" unicode="à"/>
			<glyph d="M250 522Q347 522 388 475T429 333V74Q429 58 430 35T434 0H372V82H370Q350 39 304 13T208 -12Q142 -12 104 12T53 69T40 132Q40 227 112 269T335 311H366V338Q366 409 337 438T250 468Q165 468 100 426V487Q130 501 173 511T250 522ZM337 257Q216 257 162 226T109 134Q109 90 136 66T215 42Q366 42 366 219V257ZM287 706H366L240 562H194Z" horiz-adv-x="500" unicode="á"/>
			<glyph d="M250 522Q347 522 388 475T429 333V74Q429 58 430 35T434 0H372V82H370Q350 39 304 13T208 -12Q142 -12 104 12T53 69T40 132Q40 227 112 269T335 311H366V338Q366 409 337 438T250 468Q165 468 100 426V487Q130 501 173 511T250 522ZM337 257Q216 257 162 226T109 134Q109 90 136 66T215 42Q366 42 366 219V257ZM210 706H292L385 562H339L251 664L163 562H117Z" horiz-adv-x="500" unicode="â"/>
			<glyph d="M250 522Q347 522 388 475T429 333V74Q429 58 430 35T434 0H372V82H370Q350 39 304 13T208 -12Q142 -12 104 12T53 69T40 132Q40 227 112 269T335 311H366V338Q366 409 337 438T250 468Q165 468 100 426V487Q130 501 173 511T250 522ZM337 257Q216 257 162 226T109 134Q109 90 136 66T215 42Q366 42 366 219V257ZM347 679H384Q379 638 356 614T301 591Q274 591 233 606Q205 616 192 616Q175 616 165 608T148 580H112Q122 624 143 647T194 670Q219 670 260 656Q291 645 299 645Q314 645 328 654T347 679Z" horiz-adv-x="500" unicode="ã"/>
			<glyph d="M250 522Q347 522 388 475T429 333V74Q429 58 430 35T434 0H372V82H370Q350 39 304 13T208 -12Q142 -12 104 12T53 69T40 132Q40 227 112 269T335 311H366V338Q366 409 337 438T250 468Q165 468 100 426V487Q130 501 173 511T250 522ZM337 257Q216 257 162 226T109 134Q109 90 136 66T215 42Q366 42 366 219V257ZM128 663H203V579H128ZM299 663H374V579H299Z" horiz-adv-x="500" unicode="ä"/>
			<glyph d="M250 522Q347 522 388 475T429 333V74Q429 58 430 35T434 0H372V82H370Q350 39 304 13T208 -12Q142 -12 104 12T53 69T40 132Q40 227 112 269T335 311H366V338Q366 409 337 438T250 468Q165 468 100 426V487Q130 501 173 511T250 522ZM337 257Q216 257 162 226T109 134Q109 90 136 66T215 42Q366 42 366 219V257ZM251 743Q292 743 319 715T347 648Q347 608 319 580T251 553Q209 553 182 580T155 648Q155 688 182 715T251 743ZM250 707Q227 707 209 690T191 648Q191 623 208 606T251 589Q277 589 294 606T311 648Q311 672 294 689T250 707Z" horiz-adv-x="500" unicode="å"/>
			<glyph d="M256 522Q321 522 359 500T419 430Q448 473 491 497T584 522Q680 522 733 455T787 266V237H441V216Q441 130 484 86T605 42Q639 42 682 53T749 80V16Q717 3 678 -4T601 -12Q527 -12 477 15T407 91Q336 -12 214 -12Q134 -12 90 24T46 124Q46 206 110 248T311 291H372V319Q372 397 344 432T256 468Q171 468 106 426V487Q138 502 180 512T256 522ZM588 468Q547 468 513 444T460 379T441 291H718Q717 374 683 421T588 468ZM325 237Q115 237 115 125Q115 86 147 64T222 42Q292 42 332 83T372 212V237Z" horiz-adv-x="833" unicode="æ"/>
			<glyph d="M293 522Q357 522 416 502L411 442Q352 468 301 468Q213 468 161 409T110 255Q110 197 132 148T197 70T295 42Q346 42 410 65L416 6Q385 -5 355 -8T283 -12L268 -54Q295 -51 301 -51Q333 -51 353 -68T374 -116Q374 -150 346 -167T265 -185Q222 -185 163 -163L170 -126Q189 -138 214 -146T259 -155Q283 -155 297 -145T311 -118Q311 -100 300 -90T272 -81Q250 -81 231 -85L257 -10Q155 0 98 73T41 255Q41 333 72 393T161 488T293 522Z" horiz-adv-x="444" unicode="ç"/>
			<glyph d="M256 522Q352 522 405 455T459 264V237H110Q111 147 157 94T278 42Q311 42 354 53T421 80V16Q351 -12 272 -12Q160 -12 100 56T41 255Q41 332 67 392T143 487T256 522ZM259 468Q219 468 185 445T131 381T110 291H390Q389 375 354 421T259 468ZM136 706H215L308 562H262Z" horiz-adv-x="500" unicode="è"/>
			<glyph d="M256 522Q352 522 405 455T459 264V237H110Q111 147 157 94T278 42Q311 42 354 53T421 80V16Q351 -12 272 -12Q160 -12 100 56T41 255Q41 332 67 392T143 487T256 522ZM259 468Q219 468 185 445T131 381T110 291H390Q389 375 354 421T259 468ZM288 706H367L241 562H195Z" horiz-adv-x="500" unicode="é"/>
			<glyph d="M256 522Q352 522 405 455T459 264V237H110Q111 147 157 94T278 42Q311 42 354 53T421 80V16Q351 -12 272 -12Q160 -12 100 56T41 255Q41 332 67 392T143 487T256 522ZM259 468Q219 468 185 445T131 381T110 291H390Q389 375 354 421T259 468ZM211 706H293L386 562H340L252 664L164 562H118Z" horiz-adv-x="500" unicode="ê"/>
			<glyph d="M256 522Q352 522 405 455T459 264V237H110Q111 147 157 94T278 42Q311 42 354 53T421 80V16Q351 -12 272 -12Q160 -12 100 56T41 255Q41 332 67 392T143 487T256 522ZM259 468Q219 468 185 445T131 381T110 291H390Q389 375 354 421T259 468ZM129 663H204V579H129ZM300 663H375V579H300Z" horiz-adv-x="500" unicode="ë"/>
			<glyph d="M79 510H142V0H79ZM-4 706H75L168 562H122Z" horiz-adv-x="222" unicode="ì"/>
			<glyph d="M79 510H142V0H79ZM146 706H225L99 562H53Z" horiz-adv-x="222" unicode="í"/>
			<glyph d="M79 510H142V0H79ZM70 706H152L245 562H199L111 664L23 562H-23Z" horiz-adv-x="222" unicode="î"/>
			<glyph d="M79 510H142V0H79ZM-12 663H63V579H-12ZM159 663H234V579H159Z" horiz-adv-x="222" unicode="ï"/>
			<glyph d="M439 765L469 723L376 666Q445 606 480 512T516 296Q516 143 456 65T278 -12Q201 -12 147 23T67 119T40 255Q40 332 68 392T149 487T277 522Q371 522 435 443H437Q410 558 320 631L212 564L182 606L273 663Q214 699 138 714L150 762Q255 747 332 699ZM277 468Q227 468 189 441T130 366T109 255Q109 163 153 102T278 42Q357 42 402 101T447 255Q447 350 401 409T277 468Z" unicode="ð"/>
			<glyph d="M303 522Q392 522 434 469T477 326V0H414V311Q414 468 293 468Q218 468 180 414T142 283V0H79V423Q79 466 75 510H136V419H138Q162 473 202 497T303 522ZM377 679H414Q409 638 386 614T331 591Q304 591 263 606Q235 616 222 616Q205 616 195 608T178 580H142Q152 624 173 647T224 670Q249 670 290 656Q321 645 329 645Q344 645 358 654T377 679Z" unicode="ñ"/>
			<glyph d="M278 522Q354 522 408 487T489 391T516 255Q516 180 489 119T408 23T278 -12Q201 -12 147 23T67 119T40 255Q40 331 67 391T148 487T278 522ZM277 468Q227 468 189 441T130 366T109 255Q109 161 154 101T278 42Q357 42 402 102T447 255Q447 347 402 407T277 468ZM167 706H246L339 562H293Z" unicode="ò"/>
			<glyph d="M278 522Q354 522 408 487T489 391T516 255Q516 180 489 119T408 23T278 -12Q201 -12 147 23T67 119T40 255Q40 331 67 391T148 487T278 522ZM277 468Q227 468 189 441T130 366T109 255Q109 161 154 101T278 42Q357 42 402 102T447 255Q447 347 402 407T277 468ZM319 706H398L272 562H226Z" unicode="ó"/>
			<glyph d="M278 522Q354 522 408 487T489 391T516 255Q516 180 489 119T408 23T278 -12Q201 -12 147 23T67 119T40 255Q40 331 67 391T148 487T278 522ZM277 468Q227 468 189 441T130 366T109 255Q109 161 154 101T278 42Q357 42 402 102T447 255Q447 347 402 407T277 468ZM240 706H322L415 562H369L281 664L193 562H147Z" unicode="ô"/>
			<glyph d="M278 522Q354 522 408 487T489 391T516 255Q516 180 489 119T408 23T278 -12Q201 -12 147 23T67 119T40 255Q40 331 67 391T148 487T278 522ZM277 468Q227 468 189 441T130 366T109 255Q109 161 154 101T278 42Q357 42 402 102T447 255Q447 347 402 407T277 468ZM378 679H415Q410 638 387 614T332 591Q305 591 264 606Q236 616 223 616Q206 616 196 608T179 580H143Q153 624 174 647T225 670Q250 670 291 656Q322 645 330 645Q345 645 359 654T378 679Z" unicode="õ"/>
			<glyph d="M278 522Q354 522 408 487T489 391T516 255Q516 180 489 119T408 23T278 -12Q201 -12 147 23T67 119T40 255Q40 331 67 391T148 487T278 522ZM277 468Q227 468 189 441T130 366T109 255Q109 161 154 101T278 42Q357 42 402 102T447 255Q447 347 402 407T277 468ZM159 663H234V579H159ZM330 663H405V579H330Z" unicode="ö"/>
			<glyph d="M300 514Q326 514 345 495T364 450Q364 426 344 406T300 386Q274 386 255 405T236 450Q236 476 255 495T300 514ZM46 288H553V219H46ZM300 121Q325 121 344 102T364 57Q364 33 345 13T300 -7Q274 -7 255 12T236 57Q236 83 255 102T300 121Z" horiz-adv-x="600" unicode="÷"/>
			<glyph d="M502 545L537 516L464 432Q490 398 503 352T516 255Q516 179 488 118T407 23T278 -12Q185 -12 124 41L54 -40L19 -11L94 75Q40 147 40 255Q40 330 67 390T147 486T278 522Q376 522 434 466ZM277 468Q201 468 155 409T109 255Q109 181 139 127L393 419Q347 468 277 468ZM419 380L166 89Q210 42 278 42Q357 42 402 101T447 255Q447 328 419 380Z" unicode="ø"/>
			<glyph d="M79 510H142V198Q142 129 170 85T263 42Q338 42 376 95T414 225V510H477V84Q477 36 481 0H420V91H418Q394 38 353 13T253 -12Q165 -12 122 40T79 182ZM164 706H243L336 562H290Z" unicode="ù"/>
			<glyph d="M79 510H142V198Q142 129 170 85T263 42Q338 42 376 95T414 225V510H477V84Q477 36 481 0H420V91H418Q394 38 353 13T253 -12Q165 -12 122 40T79 182ZM316 706H395L269 562H223Z" unicode="ú"/>
			<glyph d="M79 510H142V198Q142 129 170 85T263 42Q338 42 376 95T414 225V510H477V84Q477 36 481 0H420V91H418Q394 38 353 13T253 -12Q165 -12 122 40T79 182ZM238 706H320L413 562H367L279 664L191 562H145Z" unicode="û"/>
			<glyph d="M79 510H142V198Q142 129 170 85T263 42Q338 42 376 95T414 225V510H477V84Q477 36 481 0H420V91H418Q394 38 353 13T253 -12Q165 -12 122 40T79 182ZM157 663H232V579H157ZM328 663H403V579H328Z" unicode="ü"/>
			<glyph d="M9 510H78L221 85H222L369 510H435L230 -79Q204 -153 172 -184T99 -216Q66 -216 32 -208L38 -154Q60 -162 87 -162Q114 -162 131 -145T158 -104T181 -37L190 -6ZM261 706H340L214 562H168Z" horiz-adv-x="444" unicode="ý"/>
			<glyph d="M73 750H136V417H138Q159 466 199 494T297 522Q401 522 454 452T507 255Q507 134 451 61T297 -12Q237 -12 199 13T138 93H136V-210H73ZM287 468Q236 468 202 437T152 358T136 255Q136 167 175 104T287 42Q360 42 399 97T438 255Q438 356 399 412T287 468Z" unicode="þ"/>
			<glyph d="M9 510H78L221 85H222L369 510H435L230 -79Q204 -153 172 -184T99 -216Q66 -216 32 -208L38 -154Q60 -162 87 -162Q114 -162 131 -145T158 -104T181 -37L190 -6ZM101 663H176V579H101ZM272 663H347V579H272Z" horiz-adv-x="444" unicode="ÿ"/>
			<glyph d="M299 698H377L654 0H582L507 187H155L80 0H13ZM333 632L181 247H484ZM217 837H461V783H217Z" horiz-adv-x="667" unicode="Ā"/>
			<glyph d="M250 522Q347 522 388 475T429 333V74Q429 58 430 35T434 0H372V82H370Q350 39 304 13T208 -12Q142 -12 104 12T53 69T40 132Q40 227 112 269T335 311H366V338Q366 409 337 438T250 468Q165 468 100 426V487Q130 501 173 511T250 522ZM337 257Q216 257 162 226T109 134Q109 90 136 66T215 42Q366 42 366 219V257ZM127 661H371V607H127Z" horiz-adv-x="500" unicode="ā"/>
			<glyph d="M299 698H377L654 0H582L507 187H155L80 0H13ZM333 632L181 247H484ZM213 856H243Q252 828 277 814T334 800Q375 800 398 814T429 856H459Q453 805 420 772T336 740Q285 740 252 773T213 856Z" horiz-adv-x="667" unicode="Ă"/>
			<glyph d="M250 522Q347 522 388 475T429 333V74Q429 58 430 35T434 0H372V82H370Q350 39 304 13T208 -12Q142 -12 104 12T53 69T40 132Q40 227 112 269T335 311H366V338Q366 409 337 438T250 468Q165 468 100 426V487Q130 501 173 511T250 522ZM337 257Q216 257 162 226T109 134Q109 90 136 66T215 42Q366 42 366 219V257ZM124 678H154Q162 650 186 636T247 622Q284 622 308 636T340 678H370Q363 625 330 593T247 562Q198 562 165 592T124 678Z" horiz-adv-x="500" unicode="ă"/>
			<glyph d="M299 698H377L654 0H614Q528 -65 528 -123Q528 -143 541 -153T573 -164Q607 -164 638 -137L652 -145Q641 -165 614 -182T548 -200Q509 -200 487 -181T465 -136Q465 -105 493 -70T577 -5L586 0H582L507 187H155L80 0H13ZM333 632L181 247H484Z" horiz-adv-x="667" unicode="Ą"/>
			<glyph d="M250 522Q347 522 388 475T429 333V80Q429 40 434 0H403Q348 -43 332 -72T317 -125Q317 -143 330 -153T365 -164Q379 -164 396 -157T427 -137L441 -145Q432 -162 405 -181T338 -200Q294 -200 274 -179T254 -136Q254 -68 375 0H372V82H370Q345 31 296 9T208 -12Q149 -12 111 9T57 63T40 132Q40 227 112 269T335 311H366V338Q366 409 337 438T250 468Q165 468 100 426V487Q130 501 173 511T250 522ZM337 257Q216 257 162 226T109 134Q109 90 136 66T215 42Q366 42 366 219V257Z" horiz-adv-x="500" unicode="ą"/>
			<glyph d="M409 710Q451 710 499 703T569 684L565 620Q538 634 497 642T409 650Q322 650 258 612T160 506T126 350Q126 259 159 191T256 85T409 48Q457 48 499 55T565 78L569 18Q546 4 501 -4T409 -12Q302 -12 222 32T100 158T57 350Q57 456 100 537T223 664T409 710ZM432 884H511L385 740H339Z" horiz-adv-x="667" unicode="Ć"/>
			<glyph d="M293 522Q355 522 416 502L411 442Q351 468 301 468Q212 468 161 409T110 255Q110 198 132 149T196 71T295 42Q346 42 410 65L416 6Q364 -12 286 -12Q206 -12 150 24T68 121T41 255Q41 335 73 395T163 489T293 522ZM317 706H396L270 562H224Z" horiz-adv-x="444" unicode="ć"/>
			<glyph d="M409 710Q451 710 499 703T569 684L565 620Q538 634 497 642T409 650Q322 650 258 612T160 506T126 350Q126 259 159 191T256 85T409 48Q457 48 499 55T565 78L569 18Q546 4 501 -4T409 -12Q302 -12 222 32T100 158T57 350Q57 456 100 537T223 664T409 710ZM348 884H430L523 740H477L389 842L301 740H255Z" horiz-adv-x="667" unicode="Ĉ"/>
			<glyph d="M293 522Q355 522 416 502L411 442Q351 468 301 468Q212 468 161 409T110 255Q110 198 132 149T196 71T295 42Q346 42 410 65L416 6Q364 -12 286 -12Q206 -12 150 24T68 121T41 255Q41 335 73 395T163 489T293 522ZM233 706H315L408 562H362L274 664L186 562H140Z" horiz-adv-x="444" unicode="ĉ"/>
			<glyph d="M409 710Q451 710 499 703T569 684L565 620Q538 634 497 642T409 650Q322 650 258 612T160 506T126 350Q126 259 159 191T256 85T409 48Q457 48 499 55T565 78L569 18Q546 4 501 -4T409 -12Q302 -12 222 32T100 158T57 350Q57 456 100 537T223 664T409 710ZM352 846H427V762H352Z" horiz-adv-x="667" unicode="Ċ"/>
			<glyph d="M293 522Q355 522 416 502L411 442Q351 468 301 468Q212 468 161 409T110 255Q110 198 132 149T196 71T295 42Q346 42 410 65L416 6Q364 -12 286 -12Q206 -12 150 24T68 121T41 255Q41 335 73 395T163 489T293 522ZM237 668H312V584H237Z" horiz-adv-x="444" unicode="ċ"/>
			<glyph d="M409 710Q451 710 499 703T569 684L565 620Q538 634 497 642T409 650Q322 650 258 612T160 506T126 350Q126 259 159 191T256 85T409 48Q457 48 499 55T565 78L569 18Q546 4 501 -4T409 -12Q302 -12 222 32T100 158T57 350Q57 456 100 537T223 664T409 710ZM255 884H301L389 782L477 884H523L430 740H348Z" horiz-adv-x="667" unicode="Č"/>
			<glyph d="M293 522Q355 522 416 502L411 442Q351 468 301 468Q212 468 161 409T110 255Q110 198 132 149T196 71T295 42Q346 42 410 65L416 6Q364 -12 286 -12Q206 -12 150 24T68 121T41 255Q41 335 73 395T163 489T293 522ZM140 706H186L274 604L362 706H408L315 562H233Z" horiz-adv-x="444" unicode="č"/>
			<glyph d="M80 698H255Q422 698 512 610T602 350Q602 182 501 91T202 0H80ZM149 638V60H206Q533 60 533 354Q533 495 460 566T250 638ZM146 884H192L280 782L368 884H414L321 740H239Z" horiz-adv-x="667" unicode="Ď"/>
			<glyph d="M420 750H483V0H420V81H418Q392 32 353 10T259 -12Q160 -12 104 61T49 255Q49 385 103 453T258 522Q318 522 359 492T418 424H420ZM268 468Q197 468 157 412T118 255Q118 159 155 100T269 42Q320 42 354 73T404 152T420 255Q420 307 404 355T355 436T268 468ZM562 709H623L589 545H544Z" horiz-adv-x="604" unicode="ď"/>
			<glyph d="M80 698H255Q422 698 512 610T602 350Q602 182 501 91T202 0H80V329H11V389H80ZM149 638V389H362V329H149V60H206Q533 60 533 354Q533 495 460 566T250 638Z" horiz-adv-x="667" unicode="Đ"/>
			<glyph d="M420 750H483V658H556V612H483V0H420V81H418Q392 32 353 10T259 -12Q160 -12 104 61T49 255Q49 385 103 453T258 522Q318 522 359 492T418 424H420V612H254V658H420ZM268 468Q197 468 157 412T118 255Q118 159 155 100T269 42Q320 42 354 73T404 152T420 255Q420 307 404 355T355 436T268 468Z" horiz-adv-x="564" unicode="đ"/>
			<glyph d="M86 698H428V638H155V389H414V329H155V60H440V0H86ZM138 837H382V783H138Z" horiz-adv-x="500" unicode="Ē"/>
			<glyph d="M256 522Q352 522 405 455T459 264V237H110Q111 147 157 94T278 42Q311 42 354 53T421 80V16Q351 -12 272 -12Q160 -12 100 56T41 255Q41 332 67 392T143 487T256 522ZM259 468Q219 468 185 445T131 381T110 291H390Q389 375 354 421T259 468ZM136 661H380V607H136Z" horiz-adv-x="500" unicode="ē"/>
			<glyph d="M86 698H428V638H155V389H414V329H155V60H440V0H86ZM137 856H167Q176 828 201 814T258 800Q299 800 322 814T353 856H383Q377 805 344 772T260 740Q209 740 176 773T137 856Z" horiz-adv-x="500" unicode="Ĕ"/>
			<glyph d="M256 522Q352 522 405 455T459 264V237H110Q111 147 157 94T278 42Q311 42 354 53T421 80V16Q351 -12 272 -12Q160 -12 100 56T41 255Q41 332 67 392T143 487T256 522ZM259 468Q219 468 185 445T131 381T110 291H390Q389 375 354 421T259 468ZM127 678H157Q165 650 189 636T250 622Q287 622 311 636T343 678H373Q366 625 333 593T250 562Q201 562 168 592T127 678Z" horiz-adv-x="500" unicode="ĕ"/>
			<glyph d="M86 698H428V638H155V389H414V329H155V60H440V0H86ZM220 846H295V762H220Z" horiz-adv-x="500" unicode="Ė"/>
			<glyph d="M256 522Q352 522 405 455T459 264V237H110Q111 147 157 94T278 42Q311 42 354 53T421 80V16Q351 -12 272 -12Q160 -12 100 56T41 255Q41 332 67 392T143 487T256 522ZM259 468Q219 468 185 445T131 381T110 291H390Q389 375 354 421T259 468ZM222 668H297V584H222Z" horiz-adv-x="500" unicode="ė"/>
			<glyph d="M86 698H428V638H155V389H414V329H155V60H440V0H393Q345 -37 326 -67T307 -124Q307 -143 320 -153T352 -164Q367 -164 384 -157T417 -137L431 -145Q422 -163 396 -181T327 -200Q289 -200 266 -182T244 -136Q244 -98 278 -63T365 0H86Z" horiz-adv-x="500" unicode="Ę"/>
			<glyph d="M256 522Q354 522 406 454T459 265V237H110Q110 155 153 98T278 42Q315 42 356 54T421 80V16Q368 -5 301 -10Q229 -69 229 -124Q229 -143 241 -153T273 -164Q308 -164 339 -137L353 -145Q343 -164 317 -182T249 -200Q211 -200 188 -182T166 -136Q166 -75 265 -12Q149 -9 95 64T41 249Q41 327 66 388T139 486T256 522ZM258 468Q215 468 181 442T129 376T110 291H390Q389 367 357 417T258 468Z" horiz-adv-x="500" unicode="ę"/>
			<glyph d="M86 698H428V638H155V389H414V329H155V60H440V0H86ZM126 884H172L260 782L348 884H394L301 740H219Z" horiz-adv-x="500" unicode="Ě"/>
			<glyph d="M256 522Q352 522 405 455T459 264V237H110Q111 147 157 94T278 42Q311 42 354 53T421 80V16Q351 -12 272 -12Q160 -12 100 56T41 255Q41 332 67 392T143 487T256 522ZM259 468Q219 468 185 445T131 381T110 291H390Q389 375 354 421T259 468ZM120 706H166L254 604L342 706H388L295 562H213Z" horiz-adv-x="500" unicode="ě"/>
			<glyph d="M416 710Q467 710 521 701T603 677L595 613Q527 650 417 650Q327 650 263 611T166 504T133 349Q133 261 165 193T261 86T416 48Q463 48 503 54T564 73V318H402V378H633V31Q535 -12 417 -12Q308 -12 228 33T106 159T64 349Q64 454 107 536T229 664T416 710ZM359 884H441L534 740H488L400 842L312 740H266Z" horiz-adv-x="722" unicode="Ĝ"/>
			<glyph d="M259 522Q316 522 350 508T418 452H420V510H483V40Q483 -81 422 -148T244 -216Q174 -216 90 -189L95 -126Q129 -144 169 -153T245 -162Q314 -162 352 -134T406 -53T421 84V100H419Q374 0 264 0Q190 0 142 36T71 131T49 255Q49 384 103 453T259 522ZM268 468Q194 468 156 411T118 255Q118 169 155 111T265 54Q343 54 381 114T420 256Q420 363 382 415T268 468ZM237 706H319L412 562H366L278 664L190 562H144Z" unicode="ĝ"/>
			<glyph d="M416 710Q467 710 521 701T603 677L595 613Q527 650 417 650Q327 650 263 611T166 504T133 349Q133 261 165 193T261 86T416 48Q463 48 503 54T564 73V318H402V378H633V31Q535 -12 417 -12Q308 -12 228 33T106 159T64 349Q64 454 107 536T229 664T416 710ZM277 856H307Q316 828 341 814T398 800Q439 800 462 814T493 856H523Q517 805 484 772T400 740Q349 740 316 773T277 856Z" horiz-adv-x="722" unicode="Ğ"/>
			<glyph d="M259 522Q316 522 350 508T418 452H420V510H483V40Q483 -81 422 -148T244 -216Q174 -216 90 -189L95 -126Q129 -144 169 -153T245 -162Q314 -162 352 -134T406 -53T421 84V100H419Q374 0 264 0Q190 0 142 36T71 131T49 255Q49 384 103 453T259 522ZM268 468Q194 468 156 411T118 255Q118 169 155 111T265 54Q343 54 381 114T420 256Q420 363 382 415T268 468ZM151 678H181Q189 650 213 636T274 622Q311 622 335 636T367 678H397Q390 625 357 593T274 562Q225 562 192 592T151 678Z" unicode="ğ"/>
			<glyph d="M416 710Q467 710 521 701T603 677L595 613Q527 650 417 650Q327 650 263 611T166 504T133 349Q133 261 165 193T261 86T416 48Q463 48 503 54T564 73V318H402V378H633V31Q535 -12 417 -12Q308 -12 228 33T106 159T64 349Q64 454 107 536T229 664T416 710ZM363 846H438V762H363Z" horiz-adv-x="722" unicode="Ġ"/>
			<glyph d="M259 522Q316 522 350 508T418 452H420V510H483V40Q483 -81 422 -148T244 -216Q174 -216 90 -189L95 -126Q129 -144 169 -153T245 -162Q314 -162 352 -134T406 -53T421 84V100H419Q374 0 264 0Q190 0 142 36T71 131T49 255Q49 384 103 453T259 522ZM268 468Q194 468 156 411T118 255Q118 169 155 111T265 54Q343 54 381 114T420 256Q420 363 382 415T268 468ZM237 668H312V584H237Z" unicode="ġ"/>
			<glyph d="M416 710Q467 710 521 701T603 677L595 613Q527 650 417 650Q327 650 263 611T166 504T133 349Q133 261 165 193T261 86T416 48Q463 48 503 54T564 73V318H402V378H633V31Q535 -12 417 -12Q308 -12 228 33T106 159T64 349Q64 454 107 536T229 664T416 710ZM372 -73H446L391 -217H334Z" horiz-adv-x="722" unicode="Ģ"/>
			<glyph d="M259 522Q316 522 350 508T418 452H420V510H483V40Q483 -81 422 -148T244 -216Q174 -216 90 -189L95 -126Q129 -144 169 -153T245 -162Q314 -162 352 -134T406 -53T421 84V100H419Q374 0 264 0Q190 0 142 36T71 131T49 255Q49 384 103 453T259 522ZM268 468Q194 468 156 411T118 255Q118 169 155 111T265 54Q343 54 381 114T420 256Q420 363 382 415T268 468ZM289 716H343L305 572H234Z" unicode="ģ"/>
			<glyph d="M87 698H156V389H509V698H578V0H509V329H156V0H87ZM289 884H371L464 740H418L330 842L242 740H196Z" horiz-adv-x="667" unicode="Ĥ"/>
			<glyph d="M79 750H142V424H144Q167 471 209 496T304 522Q393 522 435 469T477 309V0H414V309Q414 393 385 430T293 468Q220 468 181 411T142 272V0H79ZM236 927H318L411 783H365L277 885L189 783H143Z" unicode="ĥ"/>
			<glyph d="M88 698H157V521H510V698H579V521H657V470H579V0H510V304H157V0H88V470H10V521H88ZM157 470V362H510V470Z" horiz-adv-x="667" unicode="Ħ"/>
			<glyph d="M79 750H142V658H313V612H142V424H144Q167 471 209 496T304 522Q394 522 435 470T477 309V0H414V309Q414 393 385 430T293 468Q218 468 180 411T142 272V0H79V612H6V658H79Z" unicode="ħ"/>
			<glyph d="M77 698H146V0H77ZM208 850H245Q240 809 216 785T162 762Q136 762 94 777Q66 787 53 787Q36 787 26 779T9 751H-27Q-17 795 4 818T55 841Q78 841 118 828Q151 816 160 816Q175 816 189 824T208 850Z" horiz-adv-x="222" unicode="Ĩ"/>
			<glyph d="M79 510H142V0H79ZM210 684H247Q242 643 219 619T164 596Q137 596 96 611Q68 621 55 621Q38 621 28 613T11 585H-25Q-15 629 6 652T57 675Q82 675 123 661Q154 650 162 650Q177 650 191 659T210 684Z" horiz-adv-x="222" unicode="ĩ"/>
			<glyph d="M77 698H146V0H77ZM-10 837H234V783H-10Z" horiz-adv-x="222" unicode="Ī"/>
			<glyph d="M79 510H142V0H79ZM-10 661H234V607H-10Z" horiz-adv-x="222" unicode="ī"/>
			<glyph d="M77 698H146V0Q94 -41 77 -70T60 -124Q60 -143 73 -153T105 -164Q120 -164 137 -157T170 -137L184 -145Q173 -166 145 -183T78 -200Q40 -200 18 -181T-3 -136Q-3 -69 118 0H77Z" horiz-adv-x="222" unicode="Į"/>
			<glyph d="M79 730H142V646H79ZM79 510H142V0Q90 -40 73 -69T56 -124Q56 -143 69 -153T101 -164Q135 -164 166 -137L180 -145Q171 -163 145 -181T76 -200Q36 -200 14 -181T-7 -136Q-7 -97 29 -62T114 0H79Z" horiz-adv-x="222" unicode="į"/>
			<glyph d="M77 698H146V0H77ZM74 846H149V762H74Z" horiz-adv-x="222" unicode="İ"/>
			<glyph d="M79 510H142V0H79Z" horiz-adv-x="222" unicode="ı"/>
			<glyph d="M77 698H146V0H77ZM378 698H447V180Q447 90 405 39T283 -12Q243 -12 211 0V61Q237 48 276 48Q326 48 352 82T378 177Z" horiz-adv-x="530" unicode="Ĳ"/>
			<glyph d="M79 730H142V646H79ZM79 510H142V0H79ZM290 730H353V646H290ZM290 510H353V-75Q353 -147 325 -181T237 -216Q210 -216 183 -211V-156Q201 -162 221 -162Q261 -162 275 -139T290 -69Z" horiz-adv-x="433" unicode="ĳ"/>
			<glyph d="M181 698H250V180Q250 90 208 39T86 -12Q46 -12 14 0V61Q40 48 79 48Q129 48 155 82T181 177ZM174 884H256L349 740H303L215 842L127 740H81Z" horiz-adv-x="333" unicode="Ĵ"/>
			<glyph d="M79 510H142V-75Q142 -147 114 -181T26 -216Q-1 -216 -28 -211V-156Q-10 -162 10 -162Q50 -162 64 -139T79 -69ZM70 706H152L245 562H199L111 664L23 562H-23Z" horiz-adv-x="222" unicode="ĵ"/>
			<glyph d="M95 698H164V385L478 698H568L230 369L597 0H502L164 349V0H95ZM290 -73H364L309 -217H252Z" horiz-adv-x="611" unicode="Ķ"/>
			<glyph d="M79 750H142V301L370 510H451L202 284L481 0H394L142 262V0H79ZM233 -73H307L252 -217H195Z" horiz-adv-x="500" unicode="ķ"/>
			<glyph d="M80 698H149V60H429V0H80ZM191 884H270L144 740H98Z" horiz-adv-x="444" unicode="Ĺ"/>
			<glyph d="M79 750H142V0H79ZM153 929H232L106 785H60Z" horiz-adv-x="222" unicode="ĺ"/>
			<glyph d="M80 698H149V60H429V0H80ZM215 -73H289L234 -217H177Z" horiz-adv-x="444" unicode="Ļ"/>
			<glyph d="M79 750H142V0H79ZM74 -73H148L93 -217H36Z" horiz-adv-x="222" unicode="ļ"/>
			<glyph d="M80 698H149V60H429V0H80ZM251 709H312L278 545H233Z" horiz-adv-x="444" unicode="Ľ"/>
			<glyph d="M79 750H142V0H79ZM221 709H282L248 545H203Z" horiz-adv-x="270" unicode="ľ"/>
			<glyph d="M80 698H149V60H429V0H80ZM248 443H323V359H248Z" horiz-adv-x="444" unicode="Ŀ"/>
			<glyph d="M79 750H142V0H79ZM230 443H305V359H230Z" horiz-adv-x="342" unicode="ŀ"/>
			<glyph d="M80 698H149V360L324 483V415L149 291V60H429V0H80V242L8 191V260L80 311Z" horiz-adv-x="444" unicode="Ł"/>
			<glyph d="M79 750H142V461L208 514V445L142 392V0H79V342L13 289V358L79 411Z" horiz-adv-x="222" unicode="ł"/>
			<glyph d="M77 698H164L519 84H521V698H590V0H497L148 602H146V0H77ZM399 884H478L352 740H306Z" horiz-adv-x="667" unicode="Ń"/>
			<glyph d="M303 522Q392 522 434 469T477 326V0H414V311Q414 468 293 468Q218 468 180 414T142 283V0H79V423Q79 466 75 510H136V419H138Q162 473 202 497T303 522ZM328 706H407L281 562H235Z" unicode="ń"/>
			<glyph d="M77 698H164L519 84H521V698H590V0H497L148 602H146V0H77ZM312 -73H386L331 -217H274Z" horiz-adv-x="667" unicode="Ņ"/>
			<glyph d="M303 522Q392 522 434 469T477 326V0H414V311Q414 468 293 468Q218 468 180 414T142 283V0H79V423Q79 466 75 510H136V419H138Q162 473 202 497T303 522ZM250 -73H324L269 -217H212Z" unicode="ņ"/>
			<glyph d="M77 698H164L519 84H521V698H590V0H497L148 602H146V0H77ZM211 884H257L345 782L433 884H479L386 740H304Z" horiz-adv-x="667" unicode="Ň"/>
			<glyph d="M303 522Q392 522 434 469T477 326V0H414V311Q414 468 293 468Q218 468 180 414T142 283V0H79V423Q79 466 75 510H136V419H138Q162 473 202 497T303 522ZM146 706H192L280 604L368 706H414L321 562H239Z" unicode="ň"/>
			<glyph d="M363 522Q452 522 494 469T537 326V0H474V311Q474 468 353 468Q278 468 240 414T202 283V0H139V423Q139 466 135 510H196V419H198Q222 473 262 497T363 522ZM47 698H122L45 480H-12Z" horiz-adv-x="616" unicode="ŉ"/>
			<glyph d="M360 710Q459 710 528 662T633 533T668 354Q668 245 633 162T529 34T360 -12Q263 -12 194 33T89 160T54 354Q54 457 91 537T197 664T360 710ZM360 650Q287 650 233 609T151 500T123 349Q123 264 152 195T235 87T360 48Q437 48 491 89T572 199T599 349Q599 427 572 496T492 607T360 650ZM239 837H483V783H239Z" horiz-adv-x="722" unicode="Ō"/>
			<glyph d="M278 522Q354 522 408 487T489 391T516 255Q516 180 489 119T408 23T278 -12Q201 -12 147 23T67 119T40 255Q40 331 67 391T148 487T278 522ZM277 468Q227 468 189 441T130 366T109 255Q109 161 154 101T278 42Q357 42 402 102T447 255Q447 347 402 407T277 468ZM157 661H401V607H157Z" unicode="ō"/>
			<glyph d="M360 710Q459 710 528 662T633 533T668 354Q668 245 633 162T529 34T360 -12Q263 -12 194 33T89 160T54 354Q54 457 91 537T197 664T360 710ZM360 650Q287 650 233 609T151 500T123 349Q123 264 152 195T235 87T360 48Q437 48 491 89T572 199T599 349Q599 427 572 496T492 607T360 650ZM236 856H266Q275 828 300 814T357 800Q398 800 421 814T452 856H482Q476 805 443 772T359 740Q308 740 275 773T236 856Z" horiz-adv-x="722" unicode="Ŏ"/>
			<glyph d="M278 522Q354 522 408 487T489 391T516 255Q516 180 489 119T408 23T278 -12Q201 -12 147 23T67 119T40 255Q40 331 67 391T148 487T278 522ZM277 468Q227 468 189 441T130 366T109 255Q109 161 154 101T278 42Q357 42 402 102T447 255Q447 347 402 407T277 468ZM155 672H185Q193 644 217 630T278 616Q315 616 339 630T371 672H401Q394 619 361 587T278 556Q229 556 196 586T155 672Z" unicode="ŏ"/>
			<glyph d="M360 710Q459 710 528 662T633 533T668 354Q668 245 633 162T529 34T360 -12Q263 -12 194 33T89 160T54 354Q54 457 91 537T197 664T360 710ZM360 650Q287 650 233 609T151 500T123 349Q123 264 152 195T235 87T360 48Q437 48 491 89T572 199T599 349Q599 427 572 496T492 607T360 650ZM327 884H406L280 740H234ZM497 884H576L450 740H404Z" horiz-adv-x="722" unicode="Ő"/>
			<glyph d="M278 522Q354 522 408 487T489 391T516 255Q516 180 489 119T408 23T278 -12Q201 -12 147 23T67 119T40 255Q40 331 67 391T148 487T278 522ZM277 468Q227 468 189 441T130 366T109 255Q109 161 154 101T278 42Q357 42 402 102T447 255Q447 347 402 407T277 468ZM242 706H321L195 562H149ZM412 706H491L365 562H319Z" unicode="ő"/>
			<glyph d="M332 705Q359 705 415 701T493 698H817V638H546V389H803V329H546V60H829V0H492Q474 0 412 -4L332 -7Q237 -7 174 43T83 174T54 349Q54 441 82 521T173 653T332 705ZM348 644Q249 644 186 571T123 352Q123 198 185 126T343 54Q401 54 477 60V638L446 640Q388 644 348 644Z" horiz-adv-x="889" unicode="Œ"/>
			<glyph d="M274 522Q346 522 394 493T466 412Q523 522 649 522Q743 522 797 454T852 266V237H503Q504 147 549 94T671 42Q704 42 748 54T814 80V16Q783 3 742 -4T666 -12Q527 -12 470 92Q408 -12 274 -12Q199 -12 145 22T64 117T36 255Q36 331 63 391T144 487T274 522ZM273 468Q197 468 151 409T105 255Q105 160 150 101T274 42Q354 42 394 94T434 255Q434 468 273 468ZM652 468Q585 468 544 421T503 291H783Q783 364 749 416T652 468Z" horiz-adv-x="889" unicode="œ"/>
			<glyph d="M88 698H268Q366 698 419 653T473 518Q473 452 430 408T318 356V354Q355 349 372 331T409 268L527 0H451L356 222Q336 268 319 290T282 321T228 329H157V0H88ZM157 638V389H232Q299 389 351 419T404 518Q404 585 366 611T245 638ZM303 884H382L256 740H210Z" unicode="Ŕ"/>
			<glyph d="M271 522Q293 522 315 516V450Q295 456 270 456Q206 456 174 399T142 251V0H79V439Q79 474 75 510H138V412H140Q162 465 196 493T271 522ZM249 706H328L202 562H156Z" horiz-adv-x="333" unicode="ŕ"/>
			<glyph d="M88 698H268Q366 698 419 653T473 518Q473 452 430 408T318 356V354Q355 349 372 331T409 268L527 0H451L356 222Q336 268 319 290T282 321T228 329H157V0H88ZM157 638V389H232Q299 389 351 419T404 518Q404 585 366 611T245 638ZM251 -73H325L270 -217H213Z" unicode="Ŗ"/>
			<glyph d="M271 522Q293 522 315 516V450Q295 456 270 456Q206 456 174 399T142 251V0H79V439Q79 474 75 510H138V412H140Q162 465 196 493T271 522ZM75 -73H149L94 -217H37Z" horiz-adv-x="333" unicode="ŗ"/>
			<glyph d="M88 698H268Q366 698 419 653T473 518Q473 452 430 408T318 356V354Q355 349 372 331T409 268L527 0H451L356 222Q336 268 319 290T282 321T228 329H157V0H88ZM157 638V389H232Q299 389 351 419T404 518Q404 585 366 611T245 638ZM122 884H168L256 782L344 884H390L297 740H215Z" unicode="Ř"/>
			<glyph d="M271 522Q293 522 315 516V450Q295 456 270 456Q206 456 174 399T142 251V0H79V439Q79 474 75 510H138V412H140Q162 465 196 493T271 522ZM70 706H116L204 604L292 706H338L245 562H163Z" horiz-adv-x="333" unicode="ř"/>
			<glyph d="M279 710Q314 710 350 704T416 687L405 624Q382 636 348 643T278 650Q214 650 170 620T127 530Q127 489 160 459T269 391Q324 363 360 337T422 273T447 185Q447 121 415 76T331 10T217 -12Q129 -12 60 18L67 89Q132 48 221 48Q293 48 335 85T378 190Q378 230 344 261T244 328Q183 361 145 387T82 448T58 528Q58 584 88 625T168 688T279 710ZM305 884H384L258 740H212Z" horiz-adv-x="500" unicode="Ś"/>
			<glyph d="M207 522Q234 522 269 516T333 499L327 444Q302 455 270 461T213 468Q157 468 130 447T104 383Q104 360 126 340T216 291Q298 255 326 218T355 133Q355 61 301 24T176 -12Q93 -12 34 12L40 74Q104 42 172 42Q222 42 254 67T286 133Q286 171 256 195T165 247Q95 278 68 310T41 383Q41 453 88 487T207 522ZM250 706H329L203 562H157Z" horiz-adv-x="389" unicode="ś"/>
			<glyph d="M279 710Q314 710 350 704T416 687L405 624Q382 636 348 643T278 650Q214 650 170 620T127 530Q127 489 160 459T269 391Q324 363 360 337T422 273T447 185Q447 121 415 76T331 10T217 -12Q129 -12 60 18L67 89Q132 48 221 48Q293 48 335 85T378 190Q378 230 344 261T244 328Q183 361 145 387T82 448T58 528Q58 584 88 625T168 688T279 710ZM211 884H293L386 740H340L252 842L164 740H118Z" horiz-adv-x="500" unicode="Ŝ"/>
			<glyph d="M207 522Q234 522 269 516T333 499L327 444Q302 455 270 461T213 468Q157 468 130 447T104 383Q104 360 126 340T216 291Q298 255 326 218T355 133Q355 61 301 24T176 -12Q93 -12 34 12L40 74Q104 42 172 42Q222 42 254 67T286 133Q286 171 256 195T165 247Q95 278 68 310T41 383Q41 453 88 487T207 522ZM154 706H236L329 562H283L195 664L107 562H61Z" horiz-adv-x="389" unicode="ŝ"/>
			<glyph d="M279 710Q314 710 350 704T416 687L405 624Q382 636 348 643T278 650Q214 650 170 620T127 530Q127 489 160 459T269 391Q324 363 360 337T422 273T447 185Q447 95 390 47T248 -10L209 -58L211 -60Q233 -52 257 -52Q294 -52 316 -69T338 -119Q338 -159 303 -179T220 -200Q197 -200 171 -196T126 -184L137 -156Q182 -170 209 -170Q241 -170 257 -160T274 -124Q274 -104 260 -93T225 -82Q204 -82 174 -95L163 -83L217 -12Q116 -11 60 18L67 89Q126 48 220 48Q287 48 332 83T378 190Q378 230 345 260T244 328Q183 361 145 387T82 448T58 528Q58 584 88 625T168 688T279 710Z" horiz-adv-x="500" unicode="Ş"/>
			<glyph d="M207 522Q234 522 269 516T333 499L327 444Q302 455 270 461T213 468Q157 468 130 447T104 383Q104 360 126 340T216 291Q298 256 326 217T355 133Q355 67 308 31T193 -11L155 -58L157 -60Q179 -52 203 -52Q240 -52 262 -69T284 -119Q284 -160 249 -180T166 -200Q143 -200 117 -196T72 -184L83 -156Q127 -170 155 -170Q188 -170 204 -159T220 -124Q220 -104 206 -93T171 -82Q149 -82 120 -95L109 -83L163 -12Q94 -11 34 12L40 74Q71 57 107 49T174 42Q220 42 253 66T286 133Q286 171 256 195T165 247Q95 278 68 310T41 383Q41 453 88 487T207 522Z" horiz-adv-x="389" unicode="ş"/>
			<glyph d="M279 710Q314 710 350 704T416 687L405 624Q382 636 348 643T278 650Q214 650 170 620T127 530Q127 489 160 459T269 391Q324 363 360 337T422 273T447 185Q447 121 415 76T331 10T217 -12Q129 -12 60 18L67 89Q132 48 221 48Q293 48 335 85T378 190Q378 230 344 261T244 328Q183 361 145 387T82 448T58 528Q58 584 88 625T168 688T279 710ZM120 884H166L254 782L342 884H388L295 740H213Z" horiz-adv-x="500" unicode="Š"/>
			<glyph d="M207 522Q234 522 269 516T333 499L327 444Q302 455 270 461T213 468Q157 468 130 447T104 383Q104 360 126 340T216 291Q298 255 326 218T355 133Q355 61 301 24T176 -12Q93 -12 34 12L40 74Q104 42 172 42Q222 42 254 67T286 133Q286 171 256 195T165 247Q95 278 68 310T41 383Q41 453 88 487T207 522ZM61 706H107L195 604L283 706H329L236 562H154Z" horiz-adv-x="389" unicode="š"/>
			<glyph d="M10 698H491V638H285V0H216V638H10ZM212 -73H286L231 -217H174Z" horiz-adv-x="500" unicode="Ţ"/>
			<glyph d="M183 655V510H299V456H183V126Q183 86 200 64T251 42Q278 42 309 54L313 2Q300 -3 278 -7T236 -12Q169 -12 144 24T120 139V456H20V510H120V633ZM155 -73H229L174 -217H117Z" horiz-adv-x="333" unicode="ţ"/>
			<glyph d="M10 698H491V638H285V0H216V638H10ZM116 884H162L250 782L338 884H384L291 740H209Z" horiz-adv-x="500" unicode="Ť"/>
			<glyph d="M183 655V510H299V456H183V126Q183 86 200 64T251 42Q278 42 309 54L313 2Q300 -3 278 -7T236 -12Q169 -12 144 24T120 139V456H20V510H120V633ZM265 709H326L292 545H247Z" horiz-adv-x="339" unicode="ť"/>
			<glyph d="M10 698H491V638H285V489H450V436H285V0H216V436H50V489H216V638H10Z" horiz-adv-x="500" unicode="Ŧ"/>
			<glyph d="M183 655V510H299V456H183V355H283V307H183V126Q183 86 200 64T251 42Q278 42 309 54L313 2Q300 -3 278 -7T236 -12Q169 -12 144 24T120 139V307H30V355H120V456H20V510H120V633Z" horiz-adv-x="333" unicode="ŧ"/>
			<glyph d="M81 698H150V241Q150 158 198 103T334 48Q418 48 468 99T518 244V698H587V241Q587 153 550 96T456 13T334 -12Q270 -12 212 13T118 95T81 242ZM430 850H467Q462 809 438 785T384 762Q358 762 316 777Q288 787 275 787Q258 787 248 779T231 751H195Q205 795 226 818T277 841Q300 841 340 828Q373 816 382 816Q397 816 411 824T430 850Z" horiz-adv-x="667" unicode="Ũ"/>
			<glyph d="M79 510H142V198Q142 129 170 85T263 42Q338 42 376 95T414 225V510H477V84Q477 36 481 0H420V91H418Q394 38 353 13T253 -12Q165 -12 122 40T79 182ZM377 684H414Q409 643 386 619T331 596Q304 596 263 611Q235 621 222 621Q205 621 195 613T178 585H142Q152 629 173 652T224 675Q249 675 290 661Q321 650 329 650Q344 650 358 659T377 684Z" unicode="ũ"/>
			<glyph d="M81 698H150V241Q150 158 198 103T334 48Q418 48 468 99T518 244V698H587V241Q587 153 550 96T456 13T334 -12Q270 -12 212 13T118 95T81 242ZM219 837H463V783H219Z" horiz-adv-x="667" unicode="Ū"/>
			<glyph d="M79 510H142V198Q142 129 170 85T263 42Q338 42 376 95T414 225V510H477V84Q477 36 481 0H420V91H418Q394 38 353 13T253 -12Q165 -12 122 40T79 182ZM157 661H401V607H157Z" unicode="ū"/>
			<glyph d="M81 698H150V241Q150 158 198 103T334 48Q418 48 468 99T518 244V698H587V241Q587 153 550 96T456 13T334 -12Q270 -12 212 13T118 95T81 242ZM208 856H238Q247 828 272 814T329 800Q370 800 393 814T424 856H454Q448 805 415 772T331 740Q280 740 247 773T208 856Z" horiz-adv-x="667" unicode="Ŭ"/>
			<glyph d="M79 510H142V198Q142 129 170 85T263 42Q338 42 376 95T414 225V510H477V84Q477 36 481 0H420V91H418Q394 38 353 13T253 -12Q165 -12 122 40T79 182ZM155 678H185Q193 650 217 636T278 622Q315 622 339 636T371 678H401Q394 625 361 593T278 562Q229 562 196 592T155 678Z" unicode="ŭ"/>
			<glyph d="M81 698H150V241Q150 158 198 103T334 48Q418 48 468 99T518 244V698H587V241Q587 153 550 96T456 13T334 -12Q270 -12 212 13T118 95T81 242ZM344 911Q381 911 410 886T440 816Q440 776 412 748T344 721Q303 721 275 747T248 816Q248 861 277 886T344 911ZM343 875Q317 875 300 858T284 816Q284 792 301 774T344 757Q371 757 387 774T404 816Q404 841 388 858T343 875Z" horiz-adv-x="667" unicode="Ů"/>
			<glyph d="M79 510H142V198Q142 129 170 85T263 42Q338 42 376 95T414 225V510H477V84Q477 36 481 0H420V91H418Q394 38 353 13T253 -12Q165 -12 122 40T79 182ZM279 743Q320 743 347 715T375 648Q375 608 347 580T279 553Q237 553 210 580T183 648Q183 688 210 715T279 743ZM278 707Q255 707 237 690T219 648Q219 623 236 606T279 589Q305 589 322 606T339 648Q339 672 322 689T278 707Z" unicode="ů"/>
			<glyph d="M81 698H150V241Q150 158 198 103T334 48Q418 48 468 99T518 244V698H587V241Q587 153 550 96T456 13T334 -12Q270 -12 212 13T118 95T81 242ZM300 884H379L253 740H207ZM470 884H549L423 740H377Z" horiz-adv-x="667" unicode="Ű"/>
			<glyph d="M79 510H142V198Q142 129 170 85T263 42Q338 42 376 95T414 225V510H477V84Q477 36 481 0H420V91H418Q394 38 353 13T253 -12Q165 -12 122 40T79 182ZM245 706H324L198 562H152ZM415 706H494L368 562H322Z" unicode="ű"/>
			<glyph d="M81 698H150V242Q150 191 169 147T230 75T334 48Q425 48 471 103T518 242V698H587V246Q587 132 531 69T375 -9Q331 -46 316 -73T301 -123Q301 -143 314 -153T346 -164Q379 -164 411 -137L425 -145Q414 -166 386 -183T321 -200Q284 -200 261 -181T238 -136Q238 -75 338 -12H327Q239 -8 184 29T105 121T81 240Z" horiz-adv-x="667" unicode="Ų"/>
			<glyph d="M79 510H142V198Q142 130 169 86T263 42Q338 42 376 95T414 225V510H477V84Q477 36 481 0H457Q407 -40 389 -67T371 -124Q371 -143 384 -153T416 -164Q434 -164 451 -156T481 -137L495 -145Q483 -166 457 -183T391 -200Q348 -200 328 -180T308 -136Q308 -101 340 -66T429 0H420V91H418Q394 38 353 13T253 -12Q165 -12 122 40T79 182Z" unicode="ų"/>
			<glyph d="M9 698H80L252 78H254L433 698H516L692 78H694L869 698H935L733 0H651L474 620H472L292 0H209ZM429 884H511L604 740H558L470 842L382 740H336Z" horiz-adv-x="944" unicode="Ŵ"/>
			<glyph d="M7 510H76L210 69H212L354 510H430L565 69H567L708 510H771L603 0H527L388 441H386L247 0H171ZM348 706H430L523 562H477L389 664L301 562H255Z" horiz-adv-x="778" unicode="ŵ"/>
			<glyph d="M12 698H92L305 357L524 698H599L340 296V0H271V296ZM262 884H344L437 740H391L303 842L215 740H169Z" horiz-adv-x="611" unicode="Ŷ"/>
			<glyph d="M9 510H78L221 85H222L369 510H435L230 -79Q204 -153 172 -184T99 -216Q66 -216 32 -208L38 -154Q60 -162 87 -162Q114 -162 131 -145T158 -104T181 -37L190 -6ZM181 706H263L356 562H310L222 664L134 562H88Z" horiz-adv-x="444" unicode="ŷ"/>
			<glyph d="M12 698H92L305 357L524 698H599L340 296V0H271V296ZM189 846H264V762H189ZM360 846H435V762H360Z" horiz-adv-x="611" unicode="Ÿ"/>
			<glyph d="M30 698H458V638L96 60H470V0H21V60L385 638H30ZM305 884H384L258 740H212Z" horiz-adv-x="500" unicode="Ź"/>
			<glyph d="M44 510H412V456L105 54H412V0H32V53L339 456H44ZM282 706H361L235 562H189Z" horiz-adv-x="444" unicode="ź"/>
			<glyph d="M30 698H458V638L96 60H470V0H21V60L385 638H30ZM217 846H292V762H217Z" horiz-adv-x="500" unicode="Ż"/>
			<glyph d="M44 510H412V456L105 54H412V0H32V53L339 456H44ZM198 668H273V584H198Z" horiz-adv-x="444" unicode="ż"/>
			<glyph d="M30 698H458V638L96 60H470V0H21V60L385 638H30ZM116 884H162L250 782L338 884H384L291 740H209Z" horiz-adv-x="500" unicode="Ž"/>
			<glyph d="M44 510H412V456L105 54H412V0H32V53L339 456H44ZM88 706H134L222 604L310 706H356L263 562H181Z" horiz-adv-x="444" unicode="ž"/>
			<glyph d="M469 705Q501 705 533 688L520 638Q489 651 464 651Q424 651 400 620T361 510L343 419H458V365H332L261 3Q244 -82 222 -129T168 -196T83 -216Q57 -216 25 -206L41 -153Q47 -155 60 -158T84 -162Q125 -162 151 -129T195 -7L266 365H155V419H277L296 519Q317 628 361 666T469 705Z" unicode="ƒ"/>
			<glyph d="M279 710Q314 710 350 704T416 687L405 624Q382 636 348 643T278 650Q214 650 170 620T127 530Q127 489 160 459T269 391Q324 363 360 337T422 273T447 185Q447 121 415 76T331 10T217 -12Q129 -12 60 18L67 89Q132 48 221 48Q293 48 335 85T378 190Q378 230 344 261T244 328Q183 361 145 387T82 448T58 528Q58 584 88 625T168 688T279 710ZM213 -73H287L232 -217H175Z" horiz-adv-x="500" unicode="Ș"/>
			<glyph d="M207 522Q234 522 269 516T333 499L327 444Q302 455 270 461T213 468Q157 468 130 447T104 383Q104 360 126 340T216 291Q298 255 326 218T355 133Q355 61 301 24T176 -12Q93 -12 34 12L40 74Q104 42 172 42Q222 42 254 67T286 133Q286 171 256 195T165 247Q95 278 68 310T41 383Q41 453 88 487T207 522ZM162 -73H236L181 -217H124Z" horiz-adv-x="389" unicode="ș"/>
			<glyph d="M10 698H491V638H285V0H216V638H10ZM212 -73H286L231 -217H174Z" horiz-adv-x="500" unicode="Ț"/>
			<glyph d="M183 655V510H299V456H183V126Q183 86 200 64T251 42Q278 42 309 54L313 2Q300 -3 278 -7T236 -12Q169 -12 144 24T120 139V456H20V510H120V633ZM155 -73H229L174 -217H117Z" horiz-adv-x="333" unicode="ț"/>
			<glyph d="M79 510H142V-75Q142 -147 114 -181T26 -216Q-1 -216 -28 -211V-156Q-10 -162 10 -162Q50 -162 64 -139T79 -69Z" horiz-adv-x="222" unicode="ȷ"/>
			<glyph d="M70 706H152L245 562H199L111 664L23 562H-23Z" horiz-adv-x="222" unicode="ˆ"/>
			<glyph d="M-23 706H23L111 604L199 706H245L152 562H70Z" horiz-adv-x="222" unicode="ˇ"/>
			<glyph d="M-11 661H233V607H-11Z" horiz-adv-x="222" unicode="ˉ"/>
			<glyph d="M-12 678H18Q26 650 50 636T111 622Q148 622 172 636T204 678H234Q227 625 194 593T111 562Q62 562 29 592T-12 678Z" horiz-adv-x="222" unicode="˘"/>
			<glyph d="M74 668H149V584H74Z" horiz-adv-x="222" unicode="˙"/>
			<glyph d="M111 743Q152 743 179 715T207 648Q207 608 179 580T111 553Q69 553 42 580T15 648Q15 688 42 715T111 743ZM110 707Q87 707 69 690T51 648Q51 623 68 606T111 589Q137 589 154 606T171 648Q171 672 154 689T110 707Z" horiz-adv-x="222" unicode="˚"/>
			<glyph d="M200 0H228Q183 -36 162 -64T142 -124Q142 -148 156 -161T194 -174Q214 -174 229 -163T254 -137L268 -145Q255 -175 228 -192T167 -210Q131 -210 105 -189T79 -137Q79 -102 109 -68T200 0Z" horiz-adv-x="222" unicode="˛"/>
			<glyph d="M208 684H245Q240 643 217 619T162 596Q135 596 94 611Q66 621 53 621Q36 621 26 613T9 585H-27Q-17 629 4 652T55 675Q80 675 121 661Q152 650 160 650Q175 650 189 659T208 684Z" horiz-adv-x="222" unicode="˜"/>
			<glyph d="M61 706H140L14 562H-32ZM231 706H310L184 562H138Z" horiz-adv-x="222" unicode="˝"/>
			<glyph d="M294 698H372L639 0H18ZM330 632L109 60H544Z" horiz-adv-x="657" unicode="Δ"/>
			<glyph d="M373 710Q481 710 548 658T645 530T674 378Q674 271 627 187T527 60H683V0H446L449 60Q524 120 564 200T605 367Q605 446 576 510T495 612T373 650Q299 650 245 614T163 514T135 368Q135 283 176 202T291 60L294 0H61V60H210Q139 122 102 200T66 367Q66 456 100 534T204 661T373 710Z" horiz-adv-x="744" unicode="Ω"/>
			<glyph d="M79 510H142V197Q142 122 172 82T263 42Q335 42 374 93T414 230V510H477V82Q477 44 481 0H420V91H418Q394 38 353 13T253 -12Q190 -12 142 17V-210H79Z" unicode="μ"/>
			<glyph d="M18 510H552V456H463V107Q463 42 504 42Q529 42 551 54L554 0Q518 -12 496 -12Q400 -12 400 95V456H170V0H107V456H18Z" horiz-adv-x="579" unicode="π"/>
			<glyph d="M321 710Q395 710 490 699V642Q427 638 385 605T343 518Q343 481 366 450T441 377Q499 327 528 283T558 178Q558 91 505 39T364 -12Q329 -12 297 -5T228 17L235 89Q261 69 297 58T364 48Q421 48 455 83T489 176Q489 218 463 252T383 334Q326 383 300 423T274 517Q274 561 301 596T377 650Q339 653 317 653Q152 653 152 491V0H83V496Q83 606 143 658T321 710Z" horiz-adv-x="600" unicode="ẞ"/>
			<glyph d="M41 304H292V235H41Z" horiz-adv-x="333" unicode="‐"/>
			<glyph d="M0 296H500V242H0Z" horiz-adv-x="500" unicode="–"/>
			<glyph d="M0 296H1000V242H0Z" horiz-adv-x="1000" unicode="—"/>
			<glyph d="M149 698H206L147 480H72Z" horiz-adv-x="278" unicode="‘"/>
			<glyph d="M131 698H206L129 480H72Z" horiz-adv-x="278" unicode="’"/>
			<glyph d="M131 84H206L129 -134H72Z" horiz-adv-x="278" unicode="‚"/>
			<glyph d="M200 698H257L198 480H123ZM376 698H433L374 480H299Z" unicode="“"/>
			<glyph d="M182 698H257L180 480H123ZM358 698H433L356 480H299Z" unicode="”"/>
			<glyph d="M182 84H257L181 -134H123ZM358 84H433L356 -134H299Z" unicode="„"/>
			<glyph d="M246 698H309V510H485V456H309V0H246V456H71V510H246Z" unicode="†"/>
			<glyph d="M246 698H309V510H485V456H309V242H485V188H309V0H246V188H71V242H246V456H71V510H246Z" unicode="‡"/>
			<glyph d="M250 524Q296 524 336 500T401 437T425 349Q425 301 401 261T337 198T250 175Q204 175 163 198T99 261T76 349Q76 396 99 436T162 500T250 524Z" horiz-adv-x="500" unicode="•"/>
			<glyph d="M127 84H208V0H127ZM460 84H541V0H460ZM793 84H874V0H793Z" horiz-adv-x="1000" unicode="…"/>
			<glyph d="M521 720H579L166 -22H108ZM174 705Q242 705 274 661T306 528Q306 437 273 394T174 351Q108 351 75 394T42 528Q42 618 74 661T174 705ZM173 657Q134 657 119 625T105 530Q105 470 118 434T174 399Q217 399 230 432T243 530Q243 593 228 625T173 657ZM512 347Q580 347 612 303T644 170Q644 79 611 36T512 -7Q446 -7 413 36T380 170Q380 260 412 303T512 347ZM826 347Q894 347 926 303T958 170Q958 79 925 36T826 -7Q760 -7 727 36T694 170Q694 260 726 303T826 347ZM511 299Q472 299 457 267T443 172Q443 112 456 76T512 41Q554 41 567 74T581 172Q581 235 567 267T511 299ZM825 299Q786 299 771 267T757 172Q757 109 770 75T826 41Q869 41 882 73T895 172Q895 235 881 267T825 299Z" horiz-adv-x="1000" unicode="‰"/>
			<glyph d="M179 474H238L105 269L238 64H179L39 269Z" horiz-adv-x="278" unicode="‹"/>
			<glyph d="M40 474H99L239 269L99 64H40L173 269Z" horiz-adv-x="278" unicode="›"/>
			<glyph d="M261 720H318L-95 -22H-152Z" horiz-adv-x="167" unicode="⁄"/>
			<glyph d="M423 710Q510 710 566 685L553 622Q503 651 423 651Q330 651 264 596T176 442H517L506 394H167Q165 380 165 350Q165 319 167 304H488L478 256H176Q198 158 263 103T422 48Q501 48 553 75L559 11Q505 -12 422 -12Q297 -12 213 58T104 256H14L25 304H98Q96 332 96 351Q96 360 98 394H14L25 442H105Q120 519 162 580T272 675T423 710Z" unicode="€"/>
			<glyph d="M82 698H534V650H383Q427 613 434 549H534V501H433Q424 418 367 376T221 334H156L444 0H360L82 329V389H201Q276 389 316 414T364 501H82V549H365Q359 600 322 625T226 650H82Z" unicode="₹"/>
			<glyph d="M124 698H193V526L419 615V564L193 475V387L419 476V425L193 336V56Q206 53 233 53Q334 53 384 140T435 366H504Q502 190 436 91T233 -7Q196 -7 164 -4T124 0V309L42 277V328L124 360V448L42 416V467L124 499Z" unicode="₺"/>
			<glyph d="M345 698H414V573Q515 566 582 488T682 295T714 64V0H645V52Q645 147 621 251T545 430T414 513V70H345V513Q266 505 214 430T138 251T114 52V0H45V64Q45 181 77 295T176 488T345 573Z" horiz-adv-x="759" unicode="₼"/>
			<glyph d="M135 698H318Q419 698 476 647T533 500Q533 408 472 357T311 307H204V242H383V188H204V0H135V188H45V242H135V307H45V361H135ZM204 638V361H279Q383 361 423 396T464 500Q464 638 306 638Z" unicode="₽"/>
			<glyph d="M285 721Q331 721 357 688T384 598Q384 457 218 277V117Q218 74 238 50T296 26Q342 26 385 66L406 38Q354 -14 286 -14Q229 -14 198 19T167 108V240L107 175L85 203L167 287V555Q167 628 199 674T285 721ZM284 684Q254 684 236 650T218 561V325Q277 394 309 463T341 593Q341 632 325 658T284 684Z" horiz-adv-x="500" unicode="ℓ"/>
			<glyph d="M64 698H389V650H258V284H195V650H64ZM478 698H580L702 379L824 698H926V284H863V644H861L723 284H680L543 644H541V284H478Z" horiz-adv-x="990" unicode="™"/>
			<glyph d="M373 710Q481 710 548 658T645 530T674 378Q674 271 627 187T527 60H683V0H446L449 60Q524 120 564 200T605 367Q605 446 576 510T495 612T373 650Q299 650 245 614T163 514T135 368Q135 283 176 202T291 60L294 0H61V60H210Q139 122 102 200T66 367Q66 456 100 534T204 661T373 710Z" horiz-adv-x="744" unicode="Ω"/>
			<glyph d="M302 535Q375 535 434 501T527 404T561 259H157V78Q216 19 302 19Q366 19 412 48T495 139L530 118Q484 45 431 14T302 -17Q226 -17 167 19T76 118T44 259Q44 337 76 400T167 499T302 535ZM300 500Q217 500 157 440V295H448V440Q385 500 300 500Z" horiz-adv-x="600" unicode="℮"/>
			<glyph d="M240 773Q309 773 365 729T455 602T488 402Q488 285 458 193T370 49T232 -3Q172 -3 129 28T65 110T43 223Q43 297 72 354T150 441T254 472Q308 472 354 444T424 372H426Q427 379 427 411Q427 511 399 581T327 686T234 721Q161 721 101 674L78 719Q144 773 240 773ZM263 421Q220 421 184 394T127 322T106 224Q106 148 141 98T237 49Q309 49 357 122T417 307Q399 353 357 387T263 421Z" horiz-adv-x="539" unicode="∂"/>
			<glyph d="M294 698H372L639 0H18ZM330 632L109 60H544Z" horiz-adv-x="657" unicode="∆"/>
			<glyph d="M68 786H650V-214H572V714H146V-214H68Z" horiz-adv-x="719" unicode="∏"/>
			<glyph d="M39 786H577V714H140L441 290L122 -142H589V-214H25V-150L347 290L39 722Z" horiz-adv-x="615" unicode="∑"/>
			<glyph d="M46 288H553V219H46Z" horiz-adv-x="600" unicode="−"/>
			<glyph d="M261 720H318L-95 -22H-152Z" horiz-adv-x="167" unicode="∕"/>
			<glyph d="M140 359Q159 359 173 345T187 311Q187 290 173 277T140 264Q118 264 105 277T92 311Q92 332 106 345T140 359Z" horiz-adv-x="278" unicode="∙"/>
			<glyph d="M438 786H514L303 -214H228L66 120L19 98L-9 158L103 210L254 -107Z" horiz-adv-x="504" unicode="√"/>
			<glyph d="M569 410Q634 410 675 366T717 255Q717 186 676 142T570 98Q525 98 479 124T380 207L332 164Q297 133 262 116T189 99Q123 99 82 142T42 252Q42 320 82 364T187 408Q232 408 276 382T380 294L421 335Q496 410 569 410ZM569 342Q540 342 505 320T423 251Q473 203 506 184T573 166Q609 166 630 189T652 252Q652 292 629 317T569 342ZM187 341Q153 341 130 315T107 252Q107 212 129 189T190 166Q252 166 337 251Q286 299 251 320T187 341Z" horiz-adv-x="759" unicode="∞"/>
			<glyph d="M340 786Q375 786 397 771T420 730Q420 713 408 702T378 692Q366 692 358 698T340 719Q335 726 330 730T322 735Q291 735 291 642L292 590Q293 576 293 555V2Q293 -120 259 -166T167 -213Q139 -213 118 -198T98 -161Q98 -147 109 -136T135 -125Q147 -125 154 -132T171 -152Q172 -154 177 -160T187 -167Q202 -167 208 -139T215 -50V597Q215 786 340 786Z" horiz-adv-x="554" unicode="∫"/>
			<glyph d="M510 414H560Q552 345 519 307T431 269Q401 269 364 279T280 308Q229 326 204 333T159 341Q131 341 110 319T84 263H32Q43 336 76 373T161 411Q190 411 221 402T304 374Q350 357 379 348T435 340Q464 340 483 359T510 414ZM510 234H560Q552 165 519 127T431 89Q401 89 364 99T277 129Q228 146 203 153T159 161Q131 161 110 139T84 83H32Q43 156 76 193T161 231Q190 231 222 222T305 194Q350 177 379 168T435 160Q464 160 483 179T510 234Z" horiz-adv-x="593" unicode="≈"/>
			<glyph d="M403 532L465 500L404 384H550V313H367L300 186H550V114H263L187 -32L125 0L184 114H43V186H221L288 313H43V384H326Z" horiz-adv-x="593" unicode="≠"/>
			<glyph d="M550 528V450L142 304L550 159V82L43 266V341ZM43 42H550V-30H43Z" horiz-adv-x="593" unicode="≤"/>
			<glyph d="M43 528L550 341V266L43 82V159L451 304L43 450ZM43 42H550V-30H43Z" horiz-adv-x="593" unicode="≥"/>
			<glyph d="M260 747H332L504 356L332 -35H260L89 356ZM296 671L165 356L296 41L428 356Z" horiz-adv-x="593" unicode="◊"/>
			<glyph d="M-5 884H74L167 740H121Z" horiz-adv-x="222" unicode=""/>
			<glyph d="M146 884H225L99 740H53Z" horiz-adv-x="222" unicode=""/>
			<glyph d="M70 884H152L245 740H199L111 842L23 740H-23Z" horiz-adv-x="222" unicode=""/>
			<glyph d="M-25 884H21L109 782L197 884H243L150 740H68Z" horiz-adv-x="222" unicode=""/>
			<glyph d="M206 850H243Q238 809 214 785T160 762Q134 762 92 777Q64 787 51 787Q34 787 24 779T7 751H-29Q-19 795 2 818T53 841Q76 841 116 828Q149 816 158 816Q173 816 187 824T206 850Z" horiz-adv-x="222" unicode=""/>
			<glyph d="M-12 846H63V762H-12ZM159 846H234V762H159Z" horiz-adv-x="222" unicode=""/>
			<glyph d="M-13 837H231V783H-13Z" horiz-adv-x="222" unicode=""/>
			<glyph d="M-14 856H16Q25 828 50 814T107 800Q148 800 171 814T202 856H232Q226 805 193 772T109 740Q58 740 25 773T-14 856Z" horiz-adv-x="222" unicode=""/>
			<glyph d="M109 911Q146 911 175 886T205 816Q205 776 177 748T109 721Q68 721 40 747T13 816Q13 861 42 886T109 911ZM108 875Q82 875 65 858T49 816Q49 792 66 774T109 757Q136 757 152 774T169 816Q169 841 153 858T108 875Z" horiz-adv-x="222" unicode=""/>
			<glyph d="M59 884H138L12 740H-34ZM229 884H308L182 740H136Z" horiz-adv-x="222" unicode=""/>
			<glyph d="M72 846H147V762H72Z" horiz-adv-x="222" unicode=""/>
			<glyph d="M29 709H90L56 545H11Z" horiz-adv-x="278" unicode=""/>
			<glyph d="M83 -73H157L102 -217H45Z" horiz-adv-x="222" unicode=""/>
			<glyph d="M112 716H166L128 572H57Z" horiz-adv-x="222" unicode=""/>
			<glyph d="M0 718H512V0H0ZM50 667V50H462V667ZM259 609Q313 609 348 573T383 478Q383 442 369 416T319 357Q289 329 280 313T271 268V234H225Q225 236 224 244T223 264Q223 301 233 325T276 385L292 402Q313 422 322 437T332 474Q332 510 309 534T256 559Q222 559 201 535T174 464L124 472Q130 538 165 573T259 609ZM222 184H278V117H222Z" horiz-adv-x="512" unicode=""/>
			<glyph d="M256 762Q273 762 290 759T316 752L312 697Q292 708 262 708Q223 708 204 682T185 597V510H300V456H185V0H122V456H19V510H122V575Q122 678 155 720T256 762ZM412 730H475V646H412ZM412 510H475V0H412Z" unicode="ﬁ"/>
			<glyph d="M256 762Q273 762 290 759T316 752L312 697Q292 708 262 708Q223 708 204 682T185 597V510H300V456H185V0H122V456H19V510H122V575Q122 678 155 720T256 762ZM412 750H475V0H412Z" unicode="ﬂ"/>
		</font>
</defs>
</svg>
