<?xml version="1.0" encoding="UTF-8"?>
<svg height="100%" width="100%" xmlns="http://www.w3.org/2000/svg">
	<defs>
		<font horiz-adv-x="556" id="web">
			<font-face alphabetic="0" ascent="961" descent="-250" font-family="" panose-1="2 11 9 6 3 5 4 9 2 4"/>
			<missing-glyph d="M0 718H512V0H0ZM50 667V50H462V667ZM259 609Q313 609 348 573T383 478Q383 444 369 416T319 357Q289 330 280 311T271 258V234H225V259Q225 305 236 330T287 396Q312 421 322 436T332 474Q332 509 309 534T256 559Q222 559 201 535T174 464L124 472Q130 539 165 574T259 609ZM222 184H278V117H222Z" horiz-adv-x="512"/>
			<glyph d="" horiz-adv-x="259" unicode=" "/>
			<glyph d="M180 698H356L234 235H104ZM74 160H234L200 0H40Z" horiz-adv-x="388" unicode="!"/>
			<glyph d="M185 750H319L262 480H128ZM387 750H521L464 480H330Z" horiz-adv-x="536" unicode="&quot;"/>
			<glyph d="M188 698H294L254 513H342L381 698H487L448 513H511V407H425L400 291H476V185H378L339 0H233L272 185H185L145 0H39L79 185H13V291H100L126 407H51V513H148ZM232 407L206 291H294L319 407Z" horiz-adv-x="520" unicode="#"/>
			<glyph d="M300 830H428L401 707Q461 701 515 682L480 545Q450 562 415 571T347 580Q300 580 271 562T243 515Q243 482 266 460T340 410L380 386Q429 355 450 317T472 229Q472 132 415 72T250 -5L223 -130H95L121 -11Q54 -6 -22 15L21 168Q53 148 91 137T167 126Q227 126 252 143T278 199Q278 227 254 249T169 306Q114 337 84 380T55 477Q55 571 112 630T273 705Z" horiz-adv-x="520" unicode="$"/>
			<glyph d="M601 732H694L250 -34H157ZM264 710Q317 710 352 671T388 573Q388 504 364 440T294 337T185 298Q131 298 96 336T61 435Q61 504 85 567T156 670T264 710ZM247 620Q227 620 209 587T181 510T170 434Q170 413 178 400T202 388Q222 388 240 420T268 498T279 575Q279 596 270 608T247 620ZM665 400Q718 400 753 361T789 263Q789 194 765 130T695 27T586 -12Q532 -12 497 26T462 125Q462 194 486 257T557 360T665 400ZM648 310Q628 310 610 277T582 200T571 124Q571 103 579 90T603 78Q623 78 641 110T669 188T680 265Q680 286 671 298T648 310Z" horiz-adv-x="852" unicode="%"/>
			<glyph d="M355 710Q414 710 460 689T531 633T556 554Q556 490 519 444T388 355L453 254Q472 273 492 312T519 384H677Q652 251 530 141L613 0H428L398 45Q344 11 306 0T217 -12Q154 -12 106 10T31 73T4 164Q4 308 177 389Q132 453 132 521Q132 577 162 620T243 686T355 710ZM353 612Q322 612 304 593T286 539Q286 514 293 497T323 450Q373 468 392 493T412 558Q412 579 394 595T353 612ZM246 287Q207 264 191 239T176 180Q176 147 196 128T253 110Q279 110 297 118T335 145Z" horiz-adv-x="722" unicode="&amp;"/>
			<glyph d="M148 750H282L225 480H91Z" horiz-adv-x="260" unicode="'"/>
			<glyph d="M261 756H400Q273 581 219 438T165 146Q165 80 177 11T216 -140H88Q50 -61 31 12T13 160Q13 316 76 468T261 756Z" horiz-adv-x="333" unicode="("/>
			<glyph d="M99 756H227Q265 677 283 604T302 457Q302 296 239 145T54 -140H-85Q42 34 96 177T150 470Q150 536 138 605T99 756Z" horiz-adv-x="333" unicode=")"/>
			<glyph d="M271 750H397L359 615L483 680L510 560L374 541L462 450L351 375L307 497L231 375L139 450L245 541L116 560L169 680L281 615Z" horiz-adv-x="536" unicode="*"/>
			<glyph d="M217 506H343V316H533V190H343V0H217V190H27V316H217Z" horiz-adv-x="600" unicode="+"/>
			<glyph d="M29 160H185L67 -110H-59Z" horiz-adv-x="260" unicode=","/>
			<glyph d="M40 359H298L268 221H10Z" horiz-adv-x="334" unicode="-"/>
			<glyph d="M10 160H170L136 0H-24Z" horiz-adv-x="260" unicode="."/>
			<glyph d="M248 710H362L47 -12H-67Z" horiz-adv-x="296" unicode="/"/>
			<glyph d="M342 710Q435 710 486 655T538 505Q538 371 499 252T387 61T218 -12Q126 -12 74 42T23 193Q23 323 62 442T175 636T342 710ZM327 580Q298 580 265 514T211 355T190 185Q190 150 200 134T233 118Q265 118 297 183T350 342T371 513Q371 547 360 563T327 580Z" horiz-adv-x="566" unicode="0"/>
			<glyph d="M311 698H458L310 0H130L235 489L129 416L56 524Z" horiz-adv-x="447" unicode="1"/>
			<glyph d="M320 710Q380 710 425 688T494 629T519 542Q519 474 486 414T386 290T201 136V134H442L414 0H-28L-4 136L53 184L89 214Q178 289 223 331T298 417T327 501Q327 531 307 549T251 568Q173 568 99 518L118 671Q169 692 217 701T320 710Z" horiz-adv-x="530" unicode="2"/>
			<glyph d="M286 710Q390 710 449 667T508 549Q508 407 337 361V359Q393 346 426 309T459 225Q459 152 420 98T311 16T150 -12Q28 -12 -33 19L4 161Q79 126 148 126Q205 126 239 154T273 230Q273 264 248 279T170 294H121L141 420H180Q248 420 286 442T324 510Q324 543 302 557T238 572Q165 572 96 542L114 679Q158 697 195 703T286 710Z" horiz-adv-x="521" unicode="3"/>
			<glyph d="M342 698H533L438 254H513L488 128H412L385 0H217L244 128H-8L22 279ZM325 518L134 254H270L327 518Z" horiz-adv-x="553" unicode="4"/>
			<glyph d="M129 698H530L503 568H255L231 450Q255 456 288 456Q342 456 383 434T448 373T471 285Q471 198 429 130T314 25T148 -12Q91 -12 48 -5T-27 19L9 156Q71 126 148 126Q210 126 243 157T277 246Q277 291 244 315T152 339Q99 339 51 319Z" horiz-adv-x="528" unicode="5"/>
			<glyph d="M388 710Q479 710 543 681L505 550Q460 580 401 580Q335 580 289 541T222 399H224Q253 427 280 439T339 451Q410 451 450 407T491 286Q491 206 458 137T366 28T229 -12Q134 -12 79 43T24 194Q24 258 45 357T113 540Q158 618 226 664T388 710ZM268 319Q247 319 228 297T197 240T186 167Q186 141 199 125T235 110Q269 110 291 158T314 265Q314 290 302 304T268 319Z" horiz-adv-x="546" unicode="6"/>
			<glyph d="M105 698H538L509 546L193 0H-4L338 560H76Z" horiz-adv-x="509" unicode="7"/>
			<glyph d="M324 710Q383 710 428 689T499 632T524 550Q524 486 488 441T371 358Q427 329 453 293T480 212Q480 146 446 95T351 16T206 -12Q107 -12 47 35T-12 162Q-12 232 31 285T154 363Q117 387 96 422T75 500Q75 563 107 610T195 684T324 710ZM307 588Q275 588 253 560T232 494Q232 465 244 441T276 407Q314 424 336 458T359 529Q359 554 344 571T307 588ZM255 309Q212 294 186 255T160 173Q160 146 176 128T218 110Q255 110 279 140T303 215Q303 244 290 270T255 309Z" horiz-adv-x="535" unicode="8"/>
			<glyph d="M310 710Q405 710 460 654T515 503Q515 395 471 262Q427 127 344 57T144 -12Q59 -12 -4 17L34 148Q54 135 81 126T141 118Q211 118 252 158T317 299H315Q286 271 258 259T200 247Q129 247 88 291T48 413Q48 493 81 561T174 669T310 710ZM303 588Q270 588 247 540T225 434Q225 408 236 393T270 379Q305 379 329 427T353 530Q353 557 339 572T303 588Z" horiz-adv-x="537" unicode="9"/>
			<glyph d="M86 521H246L212 361H52ZM10 160H170L136 0H-24Z" horiz-adv-x="260" unicode=":"/>
			<glyph d="M103 521H263L229 361H69ZM29 160H185L67 -110H-59Z" horiz-adv-x="260" unicode=";"/>
			<glyph d="M523 514V392L181 253L523 114V-8L17 200V306Z" horiz-adv-x="600" unicode="&lt;"/>
			<glyph d="M37 431H543V305H37ZM37 201H543V75H37Z" horiz-adv-x="600" unicode="="/>
			<glyph d="M47 514L553 306V200L47 -8V114L389 253L47 392Z" horiz-adv-x="600" unicode="&gt;"/>
			<glyph d="M281 710Q373 710 427 668T481 558Q481 507 456 465T386 380Q315 318 295 291T274 233H120L121 247Q123 277 132 299T157 340T207 392Q253 436 270 459T287 513Q287 542 266 557T211 572Q150 572 76 540L98 681Q185 710 281 710ZM104 160H264L230 0H70Z" horiz-adv-x="463" unicode="?"/>
			<glyph d="M448 710Q544 710 617 673T730 570T770 416Q770 346 738 286T651 191T530 156Q506 156 489 171T469 210H467Q443 179 414 165T348 151Q310 151 278 171T228 227T209 307Q209 367 234 419T303 502T405 534Q448 534 473 521T516 478L530 525H624L559 301Q551 274 551 262Q551 247 566 247Q596 247 621 270T662 331T677 415Q677 512 615 565T440 619Q350 619 282 578T177 467T140 308Q140 201 207 140T389 79Q440 79 476 89T547 127H669Q610 55 540 21T380 -12Q279 -12 201 29T80 143T37 310Q37 422 91 513T239 657T448 710ZM412 445Q386 445 363 427T327 381T314 321Q314 282 332 260T382 238Q423 238 450 277T477 366Q477 445 412 445Z" horiz-adv-x="800" unicode="@"/>
			<glyph d="M306 698H513L590 0H409L402 148H196L123 0H-71ZM380 556L254 282H395L382 556Z" horiz-adv-x="667" unicode="A"/>
			<glyph d="M137 698H387Q474 698 525 656T576 545Q576 477 534 427T419 358L418 356Q476 343 506 310T536 227Q536 155 500 103T403 26T265 0H-11ZM290 572L258 419H300Q348 419 373 443T398 516Q398 540 380 556T333 572ZM231 293L196 130H250Q300 130 326 157T352 232Q352 261 335 277T288 293Z" horiz-adv-x="593" unicode="B"/>
			<glyph d="M448 710Q552 710 622 678L581 527Q548 547 517 555T452 564Q383 564 332 529T253 433T226 299Q226 221 264 179T375 138Q413 138 453 149T522 177L496 15Q418 -12 333 -12Q242 -12 174 23T68 124T31 276Q31 402 86 501T236 655T448 710Z" horiz-adv-x="593" unicode="C"/>
			<glyph d="M137 698H356Q501 698 580 630T659 429Q659 305 609 207T470 55T271 0H-11ZM296 560L205 134H259Q326 134 373 175T443 283T467 421Q467 489 434 524T345 560Z" horiz-adv-x="685" unicode="D"/>
			<glyph d="M137 698H565L536 560H292L263 426H495L466 288H234L202 138H459L430 0H-11Z" horiz-adv-x="537" unicode="E"/>
			<glyph d="M137 698H549L520 560H292L261 418H479L450 280H232L173 0H-11Z" horiz-adv-x="500" unicode="F"/>
			<glyph d="M480 710Q533 710 586 702T673 682L634 536Q607 553 565 562T479 572Q400 572 342 535T254 434T223 285Q223 213 258 171T356 130Q374 130 386 132T410 140L438 274H343L370 404H641L561 27Q519 9 461 -1T345 -12Q251 -12 180 24T70 128T31 283Q31 406 87 503T246 655T480 710Z" horiz-adv-x="685" unicode="G"/>
			<glyph d="M137 698H325L268 430H414L471 698H659L511 0H323L383 284H237L177 0H-11Z" horiz-adv-x="648" unicode="H"/>
			<glyph d="M137 698H325L177 0H-11Z" horiz-adv-x="314" unicode="I"/>
			<glyph d="M230 698H418L320 234Q291 97 226 42T51 -12Q-2 -12 -60 9L-21 157Q11 142 38 142Q79 142 99 163T130 232Z" horiz-adv-x="407" unicode="J"/>
			<glyph d="M137 698H325L265 417H267L473 698H683L408 364L557 0H354L245 319H243L177 0H-11Z" horiz-adv-x="630" unicode="K"/>
			<glyph d="M137 698H325L207 142H437L407 0H-11Z" horiz-adv-x="500" unicode="L"/>
			<glyph d="M137 698H405L411 260H413L605 698H881L733 0H565L678 529H676L415 0H295L266 530H264L153 0H-11Z" horiz-adv-x="870" unicode="M"/>
			<glyph d="M133 698H346L431 213H433L536 698H700L552 0H338L256 488H252L149 0H-15Z" horiz-adv-x="685" unicode="N"/>
			<glyph d="M403 710Q531 710 603 640T676 442Q676 330 633 225T507 54T303 -12Q174 -12 102 58T30 256Q30 368 73 472T202 643T403 710ZM398 576Q349 576 308 527T245 403T222 248Q222 191 246 156T307 122Q357 122 397 169T461 294T484 451Q484 508 460 542T398 576Z" horiz-adv-x="704" unicode="O"/>
			<glyph d="M137 698H365Q467 698 525 648T584 510Q584 432 549 371T453 277T315 244H228L177 0H-11ZM288 566L248 376H297Q338 376 366 405T395 498Q395 566 315 566Z" horiz-adv-x="574" unicode="P"/>
			<glyph d="M403 710Q531 710 603 640T676 442Q676 351 648 266T568 117T448 20L551 -139H354L285 -12Q162 -4 96 65T30 256Q30 368 73 472T202 643T403 710ZM398 576Q349 576 308 527T245 403T222 248Q222 191 246 156T307 122Q357 122 397 170T461 295T484 451Q484 508 460 542T398 576Z" horiz-adv-x="704" unicode="Q"/>
			<glyph d="M137 698H395Q486 698 539 654T593 529Q593 451 550 401T426 334L425 331Q456 323 470 294T493 202L517 0H323L309 198Q307 232 294 252T251 273H235L177 0H-11ZM288 564L255 407H300Q351 407 378 432T406 507Q406 534 386 549T333 564Z" horiz-adv-x="611" unicode="R"/>
			<glyph d="M362 710Q451 710 531 682L496 545Q466 562 431 571T363 580Q316 580 287 562T259 515Q259 484 281 461T354 411Q441 362 464 321T488 229Q488 114 407 51T177 -12Q91 -12 -6 15L37 168Q69 148 107 137T183 126Q243 126 268 143T294 199Q294 227 270 249T185 306Q130 337 100 380T71 477Q71 586 148 648T362 710Z" unicode="S"/>
			<glyph d="M89 698H577L547 556H397L279 0H91L209 556H59Z" horiz-adv-x="518" unicode="T"/>
			<glyph d="M132 698H316L222 250Q213 212 213 192Q213 162 231 144T280 126Q307 126 325 134T358 167T383 240L480 698H664L565 231Q540 112 465 50T267 -12Q154 -12 92 38T30 181Q30 224 41 272Z" horiz-adv-x="648" unicode="U"/>
			<glyph d="M77 698H270L281 198H283L498 698H695L344 0H140Z" horiz-adv-x="630" unicode="V"/>
			<glyph d="M77 698H249L224 208H226L398 698H616L593 208H595L771 698H935L663 0H441L477 538H475L290 0H71Z" horiz-adv-x="870" unicode="W"/>
			<glyph d="M100 698H300L345 489L470 698H681L431 368L552 0H354L297 241L146 0H-66L210 372Z" horiz-adv-x="630" unicode="X"/>
			<glyph d="M71 698H278L319 430H321L467 698H679L376 251L324 0H136L189 254Z" horiz-adv-x="610" unicode="Y"/>
			<glyph d="M109 698H576L547 549L190 138H463L434 0H-42L-12 156L335 560H80Z" horiz-adv-x="537" unicode="Z"/>
			<glyph d="M161 756H390L366 642H275L133 -26H230L207 -140H-29Z" horiz-adv-x="333" unicode="["/>
			<glyph d="M48 710H162L248 -12H134Z" horiz-adv-x="296" unicode="\"/>
			<glyph d="M108 756H344L154 -140H-75L-51 -26H40L182 642H85Z" horiz-adv-x="333" unicode="]"/>
			<glyph d="M317 698H431L526 333H408L349 560L192 333H66Z" horiz-adv-x="600" unicode="^"/>
			<glyph d="M0 -75H500V-125H0Z" horiz-adv-x="500" unicode="_"/>
			<glyph d="M67 740H218L250 594H151Z" horiz-adv-x="242" unicode="`"/>
			<glyph d="M305 533Q400 533 454 492T508 383Q508 356 499 315L456 115Q444 60 438 0H278Q279 29 287 72Q242 24 209 6T134 -12Q70 -12 27 28T-15 132Q-15 231 52 281T251 332H342Q346 344 346 359Q346 419 269 419Q225 419 184 409T102 378L114 502Q199 533 305 533ZM319 252Q236 252 193 229T150 158Q150 135 167 118T209 102Q257 102 285 139T325 252Z" unicode="a"/>
			<glyph d="M135 750H315L260 491Q252 459 247 444H249Q310 533 399 533Q467 533 507 480T547 335Q547 240 512 161T421 37T302 -8Q204 -8 168 84H166Q159 48 144 0H-28Q-14 50 -5 91ZM317 407Q286 407 260 372T217 286T201 190Q201 157 217 135T258 114Q289 114 314 147T354 231T368 334Q368 367 354 387T317 407Z" horiz-adv-x="592" unicode="b"/>
			<glyph d="M326 533Q410 533 463 508L429 377Q381 399 332 399Q269 399 230 349T191 225Q191 177 218 149T294 122Q337 122 396 147L378 17Q348 3 312 -4T245 -12Q176 -12 123 16T41 92T12 202Q12 295 51 370T162 489T326 533Z" horiz-adv-x="463" unicode="c"/>
			<glyph d="M447 750H627L487 92Q480 60 472 0H300Q304 38 312 84H310Q282 37 246 14T161 -8Q90 -8 49 44T9 190Q9 281 41 359T130 485T255 533Q345 533 384 445H386Q397 518 402 539ZM296 411Q267 411 241 378T201 293T187 191Q187 158 200 138T237 118Q269 118 296 153T338 239T354 334Q354 368 338 389T296 411Z" horiz-adv-x="592" unicode="d"/>
			<glyph d="M306 533Q397 533 451 482T506 346Q506 318 500 280T487 211H176Q175 207 175 195Q175 102 282 102Q343 102 439 142L423 18Q333 -12 252 -12Q139 -12 76 44T13 200Q13 289 51 365T156 487T306 533ZM296 423Q258 423 230 392T190 305H346Q351 321 353 332T355 362Q355 388 338 405T296 423Z" unicode="e"/>
			<glyph d="M357 762Q416 762 477 748L446 621Q423 632 394 632Q366 632 350 619T330 580L318 521H416L390 399H292L208 0H28L112 399H20L46 521H138L156 605Q172 681 222 721T357 762Z" horiz-adv-x="389" unicode="f"/>
			<glyph d="M255 533Q304 533 339 510T389 441H391Q410 512 413 521H584Q565 456 559 430L478 50Q448 -94 368 -158T146 -222Q88 -222 34 -213T-51 -187L-15 -46Q22 -70 58 -81T136 -92Q217 -92 255 -56T311 63L319 103H317Q252 0 161 0Q91 0 50 51T9 193Q9 280 41 358T129 485T255 533ZM296 411Q267 411 241 378T201 295T187 193Q187 163 200 144T237 126Q269 126 296 159T338 241T354 334Q354 368 338 389T296 411Z" horiz-adv-x="592" unicode="g"/>
			<glyph d="M135 750H315L267 523Q260 490 248 456H251Q319 533 398 533Q455 533 492 497T530 405Q530 378 522 341L450 0H270L337 317Q339 327 339 339Q339 361 328 374T300 387Q266 387 246 364T218 298L156 0H-24Z" horiz-adv-x="574" unicode="h"/>
			<glyph d="M139 750H319L287 600H107ZM94 521H274L164 0H-16Z" horiz-adv-x="296" unicode="i"/>
			<glyph d="M139 750H319L287 600H107ZM94 521H274L159 -24Q136 -131 84 -176T-60 -222Q-115 -222 -147 -209L-116 -91Q-97 -96 -80 -96Q-57 -96 -43 -78T-21 -25Z" horiz-adv-x="296" unicode="j"/>
			<glyph d="M143 750H323L230 314H232L387 521H570L368 278L480 0H291L217 246H215L164 0H-16Z" unicode="k"/>
			<glyph d="M143 750H323L164 0H-16Z" horiz-adv-x="296" unicode="l"/>
			<glyph d="M400 533Q444 533 476 508T523 436Q591 533 693 533Q750 533 787 497T824 405Q824 383 819 359L744 0H564L627 301Q633 327 633 347Q633 365 621 376T590 387Q560 387 541 367T515 311L450 0H270L333 301Q336 315 337 325T339 346Q339 364 327 375T298 387Q268 387 248 366T220 306L156 0H-24L62 408Q72 454 75 479T80 521H249Q247 499 235 434H237Q304 533 400 533Z" horiz-adv-x="868" unicode="m"/>
			<glyph d="M398 533Q455 533 492 497T530 405Q530 378 522 341L450 0H270L337 317Q339 327 339 339Q339 362 328 374T300 387Q266 387 246 364T218 298L156 0H-24L64 414Q68 437 73 469T80 521H249Q247 501 239 456L235 434H238Q304 533 398 533Z" horiz-adv-x="574" unicode="n"/>
			<glyph d="M310 533Q378 533 431 507T513 434T543 326Q543 235 506 157T402 34T246 -12Q140 -12 76 43T13 195Q13 288 51 365T156 487T310 533ZM306 411Q273 411 246 380T205 298T191 192Q191 153 207 131T250 110Q285 110 311 141T351 222T365 329Q365 368 349 389T306 411Z" horiz-adv-x="592" unicode="o"/>
			<glyph d="M397 533Q466 533 506 480T547 335Q547 242 513 163T422 38T298 -8Q253 -8 220 14T171 80H169Q166 52 160 23L110 -216H-70L64 417Q80 489 80 521H254L250 484Q248 463 242 441H244Q304 533 397 533ZM317 407Q286 407 259 372T216 285T201 190Q201 157 217 135T258 114Q289 114 314 147T354 231T368 334Q368 367 354 387T317 407Z" horiz-adv-x="592" unicode="p"/>
			<glyph d="M255 533Q304 533 338 510T386 441H388Q407 512 410 521H584Q566 462 554 404L422 -216H242L290 10Q299 55 309 80H307Q271 34 236 13T161 -8Q91 -8 50 44T9 190Q9 281 41 359T129 485T255 533ZM296 411Q266 411 240 377T201 292T187 191Q187 158 200 138T237 118Q269 118 296 153T338 239T354 334Q354 368 338 389T296 411Z" horiz-adv-x="592" unicode="q"/>
			<glyph d="M376 533Q404 533 420 529L387 372Q354 379 332 379Q289 379 255 347T213 270L156 0H-24L54 371Q71 452 80 521H249Q247 500 239 457L235 434H237Q269 488 301 510T376 533Z" horiz-adv-x="407" unicode="r"/>
			<glyph d="M263 533Q333 533 412 509L381 379Q356 394 322 402T255 411Q227 411 209 400T192 373Q192 355 206 344T249 320T293 299Q341 275 360 243T380 170Q380 83 317 35T138 -12Q95 -12 44 -4T-26 12L8 151Q40 131 72 122T140 114Q181 114 196 122T212 151Q212 166 192 180T126 216Q75 239 52 273T29 353Q29 437 91 485T263 533Z" horiz-adv-x="444" unicode="s"/>
			<glyph d="M354 687L318 521H419L393 399H292L245 176Q242 163 242 151Q242 134 254 124T286 114Q308 114 334 122L314 0Q266 -12 201 -12Q133 -12 94 21T55 112Q55 134 59 151L112 399H23L49 521H138L162 631Z" horiz-adv-x="407" unicode="t"/>
			<glyph d="M87 521H267L200 204Q198 194 198 182Q198 160 208 147T236 134Q267 134 286 153T316 219L379 521H559L473 113Q457 37 455 0H286Q286 8 289 29T300 87H297Q232 -12 139 -12Q82 -12 44 24T7 116Q7 141 13 171Z" horiz-adv-x="574" unicode="u"/>
			<glyph d="M38 521H222L240 164H242L402 521H582L309 0H96Z" unicode="v"/>
			<glyph d="M39 521H220L213 160H215L353 521H559L548 160H550L686 521H860L615 0H421L422 371H420L271 0H73Z" horiz-adv-x="833" unicode="w"/>
			<glyph d="M49 521H240L279 379L373 521H564L359 270L465 0H279L233 164L123 0H-74L153 282Z" horiz-adv-x="537" unicode="x"/>
			<glyph d="M39 521H224L249 189H251L405 521H583L267 -60Q219 -150 164 -186T36 -222Q-19 -222 -60 -205L-27 -75Q-3 -84 19 -84Q57 -84 85 -62T122 0Z" unicode="y"/>
			<glyph d="M70 521H444L415 376L178 134H370L342 0H-44L-14 151L225 387H42Z" horiz-adv-x="444" unicode="z"/>
			<glyph d="M339 756H441L422 666H381Q350 666 331 651T305 595L269 419Q258 369 221 338T128 304V302Q178 299 200 279T223 222Q223 206 220 189L184 23Q179 3 179 -11Q179 -50 225 -50H277L259 -140H158Q108 -140 73 -110T38 -32Q38 -18 41 -4L81 183Q84 198 84 209Q84 263 12 263L30 353Q71 353 98 370T131 418L174 624Q188 689 234 722T339 756Z" horiz-adv-x="389" unicode="{"/>
			<glyph d="M48 750H174V-250H48Z" horiz-adv-x="222" unicode="|"/>
			<glyph d="M111 756H212Q262 756 297 726T332 648Q332 634 329 620L289 433Q286 418 286 407Q286 353 358 353L340 263Q299 263 272 245T239 198L196 -8Q182 -73 136 -106T31 -140H-71L-52 -50H-11Q20 -50 38 -35T65 21L101 197Q112 247 148 277T242 312V314Q192 317 169 336T147 394Q147 411 150 427L186 593Q191 613 191 627Q191 666 145 666H93Z" horiz-adv-x="389" unicode="}"/>
			<glyph d="M496 353L508 244Q480 200 449 179T375 158Q347 158 320 166T249 197Q221 210 202 216T166 222Q143 222 119 206T63 153L50 262Q83 309 113 328T183 348Q207 348 231 341T294 316Q330 299 351 291T393 284Q417 284 440 300T496 353Z" horiz-adv-x="600" unicode="~"/>
			<glyph d="" horiz-adv-x="259" unicode=" "/>
			<glyph d="M150 521H310L276 361H116ZM116 286H246L170 -177H-6Z" horiz-adv-x="388" unicode="¡"/>
			<glyph d="M386 646H444L418 528Q457 521 484 508L450 377Q415 392 389 396L329 123Q366 125 417 147L399 17Q349 -5 300 -10L274 -130H216L242 -11Q179 -6 131 23T58 98T33 202Q33 295 72 370T184 489T349 533H361ZM331 397Q278 390 245 341T212 225Q212 190 227 165T273 129Z" horiz-adv-x="520" unicode="¢"/>
			<glyph d="M424 710Q473 710 549 698L513 567Q483 574 464 577T422 580Q372 580 343 554T298 461L287 414H432L412 316H267L227 130H444L419 0H-42L-15 130H51L91 316H25L45 414H111L118 448Q144 577 215 643T424 710Z" horiz-adv-x="520" unicode="£"/>
			<glyph d="M80 586L132 537Q152 554 188 564T260 575Q296 575 332 564T388 537L440 586L497 529L444 478Q464 457 475 423T486 349Q486 307 474 273T444 221L497 169L440 112L388 161Q365 144 329 133T260 123Q226 123 189 133T132 161L80 112L23 169L76 221Q57 240 45 273T34 349Q34 389 45 423T76 478L23 529ZM259 461Q214 461 183 429T152 349Q152 301 182 269T260 237Q307 237 337 269T368 349Q368 397 337 429T259 461Z" horiz-adv-x="520" unicode="¤"/>
			<glyph d="M84 698H248L279 430H281L416 698H584L405 396H500L481 306H351L319 254L315 233H465L446 143H296L266 0H106L136 143H-14L6 233H155L161 260L153 306H21L40 396H137Z" horiz-adv-x="520" unicode="¥"/>
			<glyph d="M48 675H174V325H48ZM48 175H174V-175H48Z" horiz-adv-x="222" unicode="¦"/>
			<glyph d="M336 710Q414 710 502 679L463 554Q391 588 337 588Q262 588 262 542Q262 523 285 501T366 442Q419 407 443 377T467 311Q467 263 442 224T358 145Q399 107 399 52Q399 -5 367 -47T278 -112T145 -135Q92 -135 43 -124T-32 -98L7 31Q31 16 74 1T146 -13Q187 -13 209 0T232 41Q232 64 205 88T125 144Q76 173 53 206T31 280Q31 326 58 361T148 427Q126 449 114 476T102 530Q102 586 132 626T216 688T336 710ZM219 380Q200 358 191 342T182 306Q182 274 204 251T281 200Q301 220 309 237T317 278Q317 305 296 325T219 380Z" horiz-adv-x="520" unicode="§"/>
			<glyph d="M46 734H172L143 600H17ZM224 734H350L321 600H195Z" horiz-adv-x="242" unicode="¨"/>
			<glyph d="M400 710Q498 710 581 661T712 530T761 349Q761 251 712 168T581 36T400 -12Q303 -12 220 36T88 167T39 349Q39 448 88 531T220 662T400 710ZM399 608Q330 608 270 573T176 479T141 349Q141 279 175 219T269 125T400 90Q469 90 528 124T623 217T659 349Q659 418 624 477T530 572T399 608ZM405 556Q483 556 527 516T573 405H477Q467 437 451 449T405 462Q367 462 346 431T325 349Q325 297 346 266T405 235Q435 235 451 247T477 292H573Q571 220 527 180T405 141Q348 141 304 167T235 241T211 349Q211 409 235 456T304 529T405 556Z" horiz-adv-x="800" unicode="©"/>
			<glyph d="M267 710Q329 710 362 685T396 618Q396 607 395 597T390 572L367 464Q362 440 358 396H252V403Q252 425 256 439Q222 411 200 401T150 392Q105 392 78 415T52 477Q52 533 98 562T248 593H285Q288 601 288 609Q288 644 234 644Q209 644 180 636T128 616L140 693Q191 710 267 710ZM263 543Q214 543 189 528T164 486Q164 458 199 458Q232 458 249 477T274 543Z" horiz-adv-x="370" unicode="ª"/>
			<glyph d="M153 466H298L159 259L207 54H72L15 263ZM357 466H502L363 259L411 54H276L219 263Z" horiz-adv-x="537" unicode="«"/>
			<glyph d="M27 431H533V108H407V305H27Z" horiz-adv-x="600" unicode="¬"/>
			<glyph d="M40 359H298L268 221H10Z" horiz-adv-x="334" unicode="­"/>
			<glyph d="M400 710Q498 710 581 661T712 530T761 349Q761 251 712 168T581 36T400 -12Q303 -12 220 36T88 167T39 349Q39 448 88 531T220 662T400 710ZM399 608Q330 608 270 573T176 479T141 349Q141 279 175 219T269 125T400 90Q469 90 528 124T623 217T659 349Q659 418 624 477T530 572T399 608ZM259 547H421Q495 547 530 520T566 432Q566 340 476 324L552 154H456L388 318H353V154H259ZM353 471V394H411Q472 394 472 432Q472 453 457 462T411 471Z" horiz-adv-x="800" unicode="®"/>
			<glyph d="M41 722H349L328 624H20Z" horiz-adv-x="242" unicode="¯"/>
			<glyph d="M265 710Q324 710 359 676T395 584Q395 539 371 500T309 438T225 416Q166 416 130 450T95 542Q95 587 118 625T181 687T265 710ZM257 638Q223 638 198 611T173 547Q173 521 189 504T231 488Q266 488 291 514T317 579Q317 606 301 622T257 638Z" horiz-adv-x="400" unicode="°"/>
			<glyph d="M217 506H343V394H533V268H343V156H217V268H27V394H217ZM27 126H533V0H27Z" horiz-adv-x="600" unicode="±"/>
			<glyph d="M263 856Q320 856 356 824T393 745Q393 699 370 663T314 600T203 520V518H353L337 428H48L61 513L89 535Q180 603 224 647T268 725Q268 766 218 766Q198 766 172 757T122 734L134 831Q190 856 263 856Z" horiz-adv-x="352" unicode="²"/>
			<glyph d="M251 856Q319 856 358 829T397 757Q397 682 290 647V645Q326 639 350 616T375 561Q375 494 321 459T171 424Q104 424 54 441L76 531Q134 510 170 510Q205 510 224 524T244 564Q244 584 225 594T176 604H144L158 684H194Q229 684 253 696T277 732Q277 749 260 759T219 770Q163 770 126 752L138 839Q168 849 194 852T251 856Z" horiz-adv-x="352" unicode="³"/>
			<glyph d="M171 740H327L204 594H100Z" horiz-adv-x="242" unicode="´"/>
			<glyph d="M105 522H277L232 253Q224 202 224 182Q224 156 233 141T269 127Q302 127 323 169T359 294L399 522H576L514 182Q509 155 509 146Q509 123 531 123Q547 123 559 127L541 3Q504 -6 453 -6Q398 -6 368 14T339 72H337Q316 31 289 10T224 -11Q207 -11 192 -6T169 8H166Q157 -90 137 -210H-25Z" horiz-adv-x="600" unicode="µ"/>
			<glyph d="M293 698H636L461 -123H339L495 608H400L244 -123H122L222 348Q162 349 124 386T86 481Q86 542 113 591T187 669T293 698Z" horiz-adv-x="629" unicode="¶"/>
			<glyph d="M121 357Q156 357 180 333T205 275Q205 233 174 203T102 173Q66 173 42 196T19 254Q19 296 50 326T121 357Z" horiz-adv-x="260" unicode="·"/>
			<glyph d="M20 6H78L34 -58Q50 -54 67 -54Q100 -54 120 -72T141 -119Q141 -166 98 -194T-14 -222Q-64 -222 -105 -204L-78 -152Q-58 -161 -44 -164T-13 -168Q17 -168 31 -158T45 -127Q45 -116 37 -108T13 -100Q-8 -100 -22 -108L-44 -86Z" horiz-adv-x="242" unicode="¸"/>
			<glyph d="M256 844H362L273 428H151L213 717L139 665L91 740Z" horiz-adv-x="352" unicode="¹"/>
			<glyph d="M253 710Q319 710 360 675T402 584Q402 530 377 486T305 417T198 392Q133 392 91 427T50 516Q50 572 76 616T148 685T253 710ZM241 638Q212 638 193 596T175 507Q175 488 184 476T211 464Q241 464 259 503T277 594Q277 613 268 625T241 638Z" horiz-adv-x="370" unicode="º"/>
			<glyph d="M89 466H224L281 257L143 54H-2L137 261ZM293 466H428L485 257L347 54H202L341 261Z" horiz-adv-x="537" unicode="»"/>
			<glyph d="M583 732H676L232 -34H139ZM236 697H342L253 281H131L193 570L119 518L71 593ZM611 416H748L692 153H744L729 73H675L660 0H542L557 73H392L406 163ZM606 309L488 153H574L608 309Z" horiz-adv-x="814" unicode="¼"/>
			<glyph d="M563 732H656L212 -34H119ZM236 697H342L253 281H131L193 570L119 518L71 593ZM640 428Q697 428 733 396T770 317Q770 271 747 235T691 172T580 92V90H730L714 0H425L438 85L466 107Q557 176 601 219T645 297Q645 338 595 338Q575 338 549 329T499 306L511 403Q568 428 640 428Z" horiz-adv-x="814" unicode="½"/>
			<glyph d="M608 732H701L257 -34H164ZM222 709Q290 709 329 682T368 610Q368 535 261 500V498Q297 492 321 469T346 414Q346 347 292 312T142 277Q75 277 25 294L47 384Q105 363 141 363Q176 363 195 377T215 417Q215 437 196 447T147 457H115L129 537H165Q200 537 224 549T248 585Q248 602 231 612T190 623Q134 623 97 605L109 692Q139 702 164 705T222 709ZM631 416H768L712 153H764L749 73H695L680 0H562L577 73H412L426 163ZM626 309L508 153H594L628 309Z" horiz-adv-x="814" unicode="¾"/>
			<glyph d="M195 521H355L321 361H161ZM151 288H305L304 274Q302 242 293 220T268 180T218 129Q172 84 155 61T138 8Q138 -21 158 -36T214 -51Q275 -51 349 -19L327 -160Q240 -189 144 -189Q52 -189 -2 -147T-56 -37Q-56 11 -31 56T67 166Q110 203 130 229T151 288Z" horiz-adv-x="463" unicode="¿"/>
			<glyph d="M306 698H513L590 0H409L402 148H196L123 0H-71ZM380 556L254 282H395L382 556ZM307 893H458L490 747H391Z" horiz-adv-x="667" unicode="À"/>
			<glyph d="M306 698H513L590 0H409L402 148H196L123 0H-71ZM380 556L254 282H395L382 556ZM414 893H570L447 747H343Z" horiz-adv-x="667" unicode="Á"/>
			<glyph d="M306 698H513L590 0H409L402 148H196L123 0H-71ZM380 556L254 282H395L382 556ZM356 893H524L562 747H453L430 831L373 747H254Z" horiz-adv-x="667" unicode="Â"/>
			<glyph d="M306 698H513L590 0H409L402 148H196L123 0H-71ZM380 556L254 282H395L382 556ZM513 886H593Q580 826 547 790T472 755Q458 755 445 758T407 771Q402 773 386 779T356 785Q343 785 333 776T321 753H241Q252 811 285 847T362 884Q378 884 393 880T429 867Q461 854 480 854Q492 854 501 862T513 886Z" horiz-adv-x="667" unicode="Ã"/>
			<glyph d="M306 698H513L590 0H409L402 148H196L123 0H-71ZM380 556L254 282H395L382 556ZM285 887H411L383 753H257ZM463 887H589L561 753H435Z" horiz-adv-x="667" unicode="Ä"/>
			<glyph d="M306 698H513L590 0H409L402 148H196L123 0H-71ZM380 556L254 282H395L382 556ZM445 959Q493 959 521 931T550 857Q550 822 530 790T479 739T410 721Q362 721 333 749T305 823Q305 859 324 890T376 940T445 959ZM440 903Q411 903 388 879T366 826Q366 805 379 791T415 777Q445 777 467 800T489 854Q489 876 475 889T440 903Z" horiz-adv-x="667" unicode="Å"/>
			<glyph d="M386 698H920L891 560H662L633 426H848L819 288H604L572 138H811L782 0H367L398 148H234L146 0H-56ZM491 596L303 282H426L493 596Z" horiz-adv-x="889" unicode="Æ"/>
			<glyph d="M448 710Q552 710 622 678L581 527Q548 547 517 555T452 564Q383 564 332 529T253 433T226 299Q226 221 264 179T375 138Q413 138 453 149T522 177L496 15Q453 0 414 -6T334 -12L302 -10L270 -58Q286 -54 303 -54Q335 -54 356 -72T377 -119Q377 -167 334 -194T222 -222Q170 -222 131 -204L158 -152Q191 -168 223 -168Q253 -168 267 -158T281 -127Q281 -116 273 -108T249 -100Q228 -100 214 -108L192 -86L249 -3Q146 19 88 93T31 276Q31 402 86 501T237 655T448 710Z" horiz-adv-x="593" unicode="Ç"/>
			<glyph d="M137 698H565L536 560H292L263 426H495L466 288H234L202 138H459L430 0H-11ZM246 893H397L429 747H330Z" horiz-adv-x="537" unicode="È"/>
			<glyph d="M137 698H565L536 560H292L263 426H495L466 288H234L202 138H459L430 0H-11ZM369 893H525L402 747H298Z" horiz-adv-x="537" unicode="É"/>
			<glyph d="M137 698H565L536 560H292L263 426H495L466 288H234L202 138H459L430 0H-11ZM306 893H474L512 747H403L380 831L323 747H204Z" horiz-adv-x="537" unicode="Ê"/>
			<glyph d="M137 698H565L536 560H292L263 426H495L466 288H234L202 138H459L430 0H-11ZM235 887H361L333 753H207ZM413 887H539L511 753H385Z" horiz-adv-x="537" unicode="Ë"/>
			<glyph d="M137 698H325L177 0H-11ZM131 893H282L314 747H215Z" horiz-adv-x="314" unicode="Ì"/>
			<glyph d="M137 698H325L177 0H-11ZM233 893H389L266 747H162Z" horiz-adv-x="314" unicode="Í"/>
			<glyph d="M137 698H325L177 0H-11ZM184 893H352L390 747H281L258 831L201 747H82Z" horiz-adv-x="314" unicode="Î"/>
			<glyph d="M137 698H325L177 0H-11ZM114 887H240L212 753H86ZM292 887H418L390 753H264Z" horiz-adv-x="314" unicode="Ï"/>
			<glyph d="M137 698H356Q501 698 580 630T659 429Q659 305 609 207T470 55T271 0H-11L54 308H-9L12 406H75ZM296 560L263 406H363L342 308H242L205 134H259Q326 134 373 175T443 282T467 421Q467 489 434 524T345 560Z" horiz-adv-x="685" unicode="Ð"/>
			<glyph d="M133 698H346L431 213H433L536 698H700L552 0H338L256 488H252L149 0H-15ZM535 886H615Q602 826 569 790T494 755Q480 755 467 758T429 771Q424 773 408 779T378 785Q365 785 355 776T343 753H263Q274 811 307 847T384 884Q400 884 415 880T451 867Q483 854 502 854Q514 854 523 862T535 886Z" horiz-adv-x="685" unicode="Ñ"/>
			<glyph d="M403 710Q531 710 603 640T676 442Q676 330 633 225T507 54T303 -12Q174 -12 102 58T30 256Q30 368 73 472T202 643T403 710ZM398 576Q349 576 308 527T245 403T222 248Q222 191 246 156T307 122Q357 122 397 169T461 294T484 451Q484 508 460 542T398 576ZM315 893H466L498 747H399Z" horiz-adv-x="704" unicode="Ò"/>
			<glyph d="M403 710Q531 710 603 640T676 442Q676 330 633 225T507 54T303 -12Q174 -12 102 58T30 256Q30 368 73 472T202 643T403 710ZM398 576Q349 576 308 527T245 403T222 248Q222 191 246 156T307 122Q357 122 397 169T461 294T484 451Q484 508 460 542T398 576ZM430 893H586L463 747H359Z" horiz-adv-x="704" unicode="Ó"/>
			<glyph d="M403 710Q531 710 603 640T676 442Q676 330 633 225T507 54T303 -12Q174 -12 102 58T30 256Q30 368 73 472T202 643T403 710ZM398 576Q349 576 308 527T245 403T222 248Q222 191 246 156T307 122Q357 122 397 169T461 294T484 451Q484 508 460 542T398 576ZM367 893H535L573 747H464L441 831L384 747H265Z" horiz-adv-x="704" unicode="Ô"/>
			<glyph d="M403 710Q531 710 603 640T676 442Q676 330 633 225T507 54T303 -12Q174 -12 102 58T30 256Q30 368 73 472T202 643T403 710ZM398 576Q349 576 308 527T245 403T222 248Q222 191 246 156T307 122Q357 122 397 169T461 294T484 451Q484 508 460 542T398 576ZM534 886H614Q601 826 568 790T493 755Q479 755 466 758T428 771Q423 773 407 779T377 785Q364 785 354 776T342 753H262Q273 811 306 847T383 884Q399 884 414 880T450 867Q482 854 501 854Q513 854 522 862T534 886Z" horiz-adv-x="704" unicode="Õ"/>
			<glyph d="M403 710Q531 710 603 640T676 442Q676 330 633 225T507 54T303 -12Q174 -12 102 58T30 256Q30 368 73 472T202 643T403 710ZM398 576Q349 576 308 527T245 403T222 248Q222 191 246 156T307 122Q357 122 397 169T461 294T484 451Q484 508 460 542T398 576ZM300 887H426L398 753H272ZM478 887H604L576 753H450Z" horiz-adv-x="704" unicode="Ö"/>
			<glyph d="M128 491L280 339L432 491L518 405L365 253L518 101L432 15L280 168L128 15L42 101L194 253L42 405Z" horiz-adv-x="600" unicode="×"/>
			<glyph d="M660 726L703 685L632 608Q676 544 676 444Q676 327 632 222T503 52T303 -12Q187 -12 114 48L44 -28L0 13L74 93Q30 156 30 252Q30 377 76 481T208 648T403 710Q521 710 591 652ZM398 576Q351 576 310 531T246 411T221 248L471 527Q450 576 398 576ZM485 453L234 173Q257 122 307 122Q357 122 397 166T461 287T485 453Z" horiz-adv-x="704" unicode="Ø"/>
			<glyph d="M132 698H316L222 250Q213 212 213 192Q213 162 231 144T280 126Q307 126 325 134T358 167T383 240L480 698H664L565 231Q540 112 465 50T267 -12Q154 -12 92 38T30 181Q30 224 41 272ZM292 893H443L475 747H376Z" horiz-adv-x="648" unicode="Ù"/>
			<glyph d="M132 698H316L222 250Q213 212 213 192Q213 162 231 144T280 126Q307 126 325 134T358 167T383 240L480 698H664L565 231Q540 112 465 50T267 -12Q154 -12 92 38T30 181Q30 224 41 272ZM416 893H572L449 747H345Z" horiz-adv-x="648" unicode="Ú"/>
			<glyph d="M132 698H316L222 250Q213 212 213 192Q213 162 231 144T280 126Q307 126 325 134T358 167T383 240L480 698H664L565 231Q540 112 465 50T267 -12Q154 -12 92 38T30 181Q30 224 41 272ZM346 893H514L552 747H443L420 831L363 747H244Z" horiz-adv-x="648" unicode="Û"/>
			<glyph d="M132 698H316L222 250Q213 212 213 192Q213 162 231 144T280 126Q307 126 325 134T358 167T383 240L480 698H664L565 231Q540 112 465 50T267 -12Q154 -12 92 38T30 181Q30 224 41 272ZM280 887H406L378 753H252ZM458 887H584L556 753H430Z" horiz-adv-x="648" unicode="Ü"/>
			<glyph d="M71 698H278L319 430H321L467 698H679L376 251L324 0H136L189 254ZM384 893H540L417 747H313Z" horiz-adv-x="610" unicode="Ý"/>
			<glyph d="M137 698H325L305 603H345Q454 603 507 554T561 419Q561 343 527 283T432 191T295 159H210L177 0H-11ZM269 474L230 288H285Q328 288 353 319T378 405Q378 474 312 474Z" horiz-adv-x="574" unicode="Þ"/>
			<glyph d="M373 762Q433 762 479 739T552 676T579 586Q579 539 561 495T510 422T434 384V382Q479 369 508 329T537 240Q537 124 469 58T279 -8Q241 -8 211 -2L237 125Q249 122 263 122Q305 122 331 159T357 248Q357 324 283 324L309 450Q359 450 386 485T414 578Q414 605 398 622T356 640Q299 640 280 551L164 0H-16L97 534Q145 762 373 762Z" horiz-adv-x="593" unicode="ß"/>
			<glyph d="M305 533Q400 533 454 492T508 383Q508 356 499 315L456 115Q444 60 438 0H278Q279 29 287 72Q242 24 209 6T134 -12Q70 -12 27 28T-15 132Q-15 231 52 281T251 332H342Q346 344 346 359Q346 419 269 419Q225 419 184 409T102 378L114 502Q199 533 305 533ZM319 252Q236 252 193 229T150 158Q150 135 167 118T209 102Q257 102 285 139T325 252ZM214 740H365L397 594H298Z" unicode="à"/>
			<glyph d="M305 533Q400 533 454 492T508 383Q508 356 499 315L456 115Q444 60 438 0H278Q279 29 287 72Q242 24 209 6T134 -12Q70 -12 27 28T-15 132Q-15 231 52 281T251 332H342Q346 344 346 359Q346 419 269 419Q225 419 184 409T102 378L114 502Q199 533 305 533ZM319 252Q236 252 193 229T150 158Q150 135 167 118T209 102Q257 102 285 139T325 252ZM328 740H484L361 594H257Z" unicode="á"/>
			<glyph d="M305 533Q400 533 454 492T508 383Q508 356 499 315L456 115Q444 60 438 0H278Q279 29 287 72Q242 24 209 6T134 -12Q70 -12 27 28T-15 132Q-15 231 52 281T251 332H342Q346 344 346 359Q346 419 269 419Q225 419 184 409T102 378L114 502Q199 533 305 533ZM319 252Q236 252 193 229T150 158Q150 135 167 118T209 102Q257 102 285 139T325 252ZM266 740H434L472 594H363L340 678L283 594H164Z" unicode="â"/>
			<glyph d="M305 533Q400 533 454 492T508 383Q508 356 499 315L456 115Q444 60 438 0H278Q279 29 287 72Q242 24 209 6T134 -12Q70 -12 27 28T-15 132Q-15 231 52 281T251 332H342Q346 344 346 359Q346 419 269 419Q225 419 184 409T102 378L114 502Q199 533 305 533ZM319 252Q236 252 193 229T150 158Q150 135 167 118T209 102Q257 102 285 139T325 252ZM434 733H514Q501 673 468 637T393 602Q379 602 366 605T328 618Q323 620 307 626T277 632Q264 632 254 623T242 600H162Q173 658 206 694T283 731Q301 731 316 726T350 714Q382 701 401 701Q413 701 422 709T434 733Z" unicode="ã"/>
			<glyph d="M305 533Q400 533 454 492T508 383Q508 356 499 315L456 115Q444 60 438 0H278Q279 29 287 72Q242 24 209 6T134 -12Q70 -12 27 28T-15 132Q-15 231 52 281T251 332H342Q346 344 346 359Q346 419 269 419Q225 419 184 409T102 378L114 502Q199 533 305 533ZM319 252Q236 252 193 229T150 158Q150 135 167 118T209 102Q257 102 285 139T325 252ZM201 734H327L298 600H172ZM379 734H505L476 600H350Z" unicode="ä"/>
			<glyph d="M305 533Q400 533 454 492T508 383Q508 356 499 315L456 115Q444 60 438 0H278Q279 29 287 72Q242 24 209 6T134 -12Q70 -12 27 28T-15 132Q-15 231 52 281T251 332H342Q346 344 346 359Q346 419 269 419Q225 419 184 409T102 378L114 502Q199 533 305 533ZM319 252Q236 252 193 229T150 158Q150 135 167 118T209 102Q257 102 285 139T325 252ZM359 806Q407 806 435 778T464 704Q464 668 444 636T392 586T324 568Q276 568 247 595T219 670Q219 705 238 736T290 787T359 806ZM354 750Q325 750 302 727T280 673Q280 651 293 637T329 624Q359 624 381 647T403 701Q403 723 390 736T354 750Z" unicode="å"/>
			<glyph d="M295 533Q345 533 384 516T438 469Q473 500 512 516T592 533Q683 533 737 482T792 346Q792 318 786 280T773 211H462L461 190Q461 148 489 125T568 102Q624 102 725 142L709 18Q664 3 625 -4T539 -12Q459 -12 410 12T338 87Q295 37 249 12T138 -12Q95 -12 60 7T5 59T-15 132Q-15 231 52 281T251 332H342Q346 344 346 359Q346 419 269 419Q224 419 183 410T99 378L111 502Q197 533 295 533ZM582 423Q544 423 516 392T476 305H632Q641 332 641 362Q641 388 625 405T582 423ZM321 252Q236 252 193 229T150 158Q150 135 167 118T209 102Q257 102 285 139T325 252Z" horiz-adv-x="833" unicode="æ"/>
			<glyph d="M326 533Q410 533 463 508L429 377Q381 399 332 399Q269 399 230 349T191 225Q191 177 218 149T294 122Q337 122 396 147L378 17Q348 3 311 -4T240 -12H231L199 -58Q215 -54 232 -54Q265 -54 285 -72T306 -119Q306 -166 263 -194T151 -222Q101 -222 60 -204L87 -152Q120 -168 152 -168Q182 -168 196 -158T210 -127Q210 -116 202 -108T178 -100Q157 -100 143 -108L121 -86L177 -4Q102 12 57 69T12 202Q12 295 51 370T163 489T326 533Z" horiz-adv-x="463" unicode="ç"/>
			<glyph d="M306 533Q397 533 451 482T506 346Q506 318 500 280T487 211H176Q175 207 175 195Q175 102 282 102Q343 102 439 142L423 18Q333 -12 252 -12Q139 -12 76 44T13 200Q13 289 51 365T156 487T306 533ZM296 423Q258 423 230 392T190 305H346Q351 321 353 332T355 362Q355 388 338 405T296 423ZM214 740H365L397 594H298Z" unicode="è"/>
			<glyph d="M306 533Q397 533 451 482T506 346Q506 318 500 280T487 211H176Q175 207 175 195Q175 102 282 102Q343 102 439 142L423 18Q333 -12 252 -12Q139 -12 76 44T13 200Q13 289 51 365T156 487T306 533ZM296 423Q258 423 230 392T190 305H346Q351 321 353 332T355 362Q355 388 338 405T296 423ZM328 740H484L361 594H257Z" unicode="é"/>
			<glyph d="M306 533Q397 533 451 482T506 346Q506 318 500 280T487 211H176Q175 207 175 195Q175 102 282 102Q343 102 439 142L423 18Q333 -12 252 -12Q139 -12 76 44T13 200Q13 289 51 365T156 487T306 533ZM296 423Q258 423 230 392T190 305H346Q351 321 353 332T355 362Q355 388 338 405T296 423ZM261 740H429L467 594H358L335 678L278 594H159Z" unicode="ê"/>
			<glyph d="M306 533Q397 533 451 482T506 346Q506 318 500 280T487 211H176Q175 207 175 195Q175 102 282 102Q343 102 439 142L423 18Q333 -12 252 -12Q139 -12 76 44T13 200Q13 289 51 365T156 487T306 533ZM296 423Q258 423 230 392T190 305H346Q351 321 353 332T355 362Q355 388 338 405T296 423ZM195 734H321L292 600H166ZM373 734H499L470 600H344Z" unicode="ë"/>
			<glyph d="M94 521H274L164 0H-16ZM94 740H245L277 594H178Z" horiz-adv-x="296" unicode="ì"/>
			<glyph d="M94 521H274L164 0H-16ZM198 740H354L231 594H127Z" horiz-adv-x="296" unicode="í"/>
			<glyph d="M94 521H274L164 0H-16ZM143 740H311L349 594H240L217 678L160 594H41Z" horiz-adv-x="296" unicode="î"/>
			<glyph d="M94 521H274L164 0H-16ZM73 734H199L170 600H44ZM251 734H377L348 600H222Z" horiz-adv-x="296" unicode="ï"/>
			<glyph d="M275 762Q332 753 391 718L463 762L498 714L439 680Q496 632 523 567T550 417Q550 294 513 197T403 44T224 -12Q160 -12 112 14T38 85T12 188Q12 279 49 357T151 482T296 529Q336 529 368 516T418 478L421 480Q421 519 401 559T351 627L258 572L224 621L301 666Q287 676 267 684T216 702ZM309 411Q275 411 248 376T206 290T191 191Q191 151 206 130T245 110Q278 110 305 145T348 232T363 330Q363 370 348 390T309 411Z" horiz-adv-x="592" unicode="ð"/>
			<glyph d="M398 533Q455 533 492 497T530 405Q530 378 522 341L450 0H270L337 317Q339 327 339 339Q339 362 328 374T300 387Q266 387 246 364T218 298L156 0H-24L64 414Q68 437 73 469T80 521H249Q247 501 239 456L235 434H238Q304 533 398 533ZM445 733H525Q512 673 479 637T404 602Q390 602 377 605T339 618Q334 620 318 626T288 632Q275 632 265 623T253 600H173Q184 658 217 694T294 731Q312 731 327 726T361 714Q393 701 412 701Q424 701 433 709T445 733Z" horiz-adv-x="574" unicode="ñ"/>
			<glyph d="M310 533Q378 533 431 507T513 434T543 326Q543 235 506 157T402 34T246 -12Q140 -12 76 43T13 195Q13 288 51 365T156 487T310 533ZM306 411Q273 411 246 380T205 298T191 192Q191 153 207 131T250 110Q285 110 311 141T351 222T365 329Q365 368 349 389T306 411ZM228 740H379L411 594H312Z" horiz-adv-x="592" unicode="ò"/>
			<glyph d="M310 533Q378 533 431 507T513 434T543 326Q543 235 506 157T402 34T246 -12Q140 -12 76 43T13 195Q13 288 51 365T156 487T310 533ZM306 411Q273 411 246 380T205 298T191 192Q191 153 207 131T250 110Q285 110 311 141T351 222T365 329Q365 368 349 389T306 411ZM346 740H502L379 594H275Z" horiz-adv-x="592" unicode="ó"/>
			<glyph d="M310 533Q378 533 431 507T513 434T543 326Q543 235 506 157T402 34T246 -12Q140 -12 76 43T13 195Q13 288 51 365T156 487T310 533ZM306 411Q273 411 246 380T205 298T191 192Q191 153 207 131T250 110Q285 110 311 141T351 222T365 329Q365 368 349 389T306 411ZM284 740H452L490 594H381L358 678L301 594H182Z" horiz-adv-x="592" unicode="ô"/>
			<glyph d="M310 533Q378 533 431 507T513 434T543 326Q543 235 506 157T402 34T246 -12Q140 -12 76 43T13 195Q13 288 51 365T156 487T310 533ZM306 411Q273 411 246 380T205 298T191 192Q191 153 207 131T250 110Q285 110 311 141T351 222T365 329Q365 368 349 389T306 411ZM448 733H528Q515 673 482 637T407 602Q393 602 380 605T342 618Q337 620 321 626T291 632Q278 632 268 623T256 600H176Q187 658 220 694T297 731Q315 731 330 726T364 714Q396 701 415 701Q427 701 436 709T448 733Z" horiz-adv-x="592" unicode="õ"/>
			<glyph d="M310 533Q378 533 431 507T513 434T543 326Q543 235 506 157T402 34T246 -12Q140 -12 76 43T13 195Q13 288 51 365T156 487T310 533ZM306 411Q273 411 246 380T205 298T191 192Q191 153 207 131T250 110Q285 110 311 141T351 222T365 329Q365 368 349 389T306 411ZM215 734H341L312 600H186ZM393 734H519L490 600H364Z" horiz-adv-x="592" unicode="ö"/>
			<glyph d="M280 554Q318 554 345 527T372 462Q372 423 345 396T280 370Q241 370 214 396T188 462Q188 500 214 527T280 554ZM27 316H533V190H27ZM280 136Q318 136 345 109T372 44Q372 5 345 -21T280 -48Q241 -48 214 -21T188 44Q188 83 214 109T280 136Z" horiz-adv-x="600" unicode="÷"/>
			<glyph d="M514 547L551 512L498 455Q543 403 543 326Q543 233 506 156T401 33T246 -12Q156 -12 97 28L38 -34L2 1L59 62Q13 118 13 194Q13 288 51 365T157 488T310 533Q401 533 460 490ZM306 411Q275 411 248 383T206 307T190 200L356 381Q349 396 335 403T306 411ZM366 317L202 137Q215 110 250 110Q280 110 305 136T347 209T366 317Z" horiz-adv-x="592" unicode="ø"/>
			<glyph d="M87 521H267L200 204Q198 194 198 182Q198 160 208 147T236 134Q267 134 286 153T316 219L379 521H559L473 113Q457 37 455 0H286Q286 8 289 29T300 87H297Q232 -12 139 -12Q82 -12 44 24T7 116Q7 141 13 171ZM223 740H374L406 594H307Z" horiz-adv-x="574" unicode="ù"/>
			<glyph d="M87 521H267L200 204Q198 194 198 182Q198 160 208 147T236 134Q267 134 286 153T316 219L379 521H559L473 113Q457 37 455 0H286Q286 8 289 29T300 87H297Q232 -12 139 -12Q82 -12 44 24T7 116Q7 141 13 171ZM340 740H496L373 594H269Z" horiz-adv-x="574" unicode="ú"/>
			<glyph d="M87 521H267L200 204Q198 194 198 182Q198 160 208 147T236 134Q267 134 286 153T316 219L379 521H559L473 113Q457 37 455 0H286Q286 8 289 29T300 87H297Q232 -12 139 -12Q82 -12 44 24T7 116Q7 141 13 171ZM278 740H446L484 594H375L352 678L295 594H176Z" horiz-adv-x="574" unicode="û"/>
			<glyph d="M87 521H267L200 204Q198 194 198 182Q198 160 208 147T236 134Q267 134 286 153T316 219L379 521H559L473 113Q457 37 455 0H286Q286 8 289 29T300 87H297Q232 -12 139 -12Q82 -12 44 24T7 116Q7 141 13 171ZM212 734H338L309 600H183ZM390 734H516L487 600H361Z" horiz-adv-x="574" unicode="ü"/>
			<glyph d="M39 521H224L249 189H251L405 521H583L267 -60Q219 -150 164 -186T36 -222Q-19 -222 -60 -205L-27 -75Q-3 -84 19 -84Q57 -84 85 -62T122 0ZM328 740H484L361 594H257Z" unicode="ý"/>
			<glyph d="M135 750H315L273 551Q268 527 262 503T245 441H247Q277 487 314 510T399 533Q467 533 507 480T547 335Q547 240 512 161T421 37T301 -8Q207 -8 171 80H169L160 23L110 -216H-70ZM317 407Q286 407 259 372T216 285T201 190Q201 157 217 135T258 114Q289 114 314 147T354 231T368 334Q368 367 354 387T317 407Z" horiz-adv-x="592" unicode="þ"/>
			<glyph d="M39 521H224L249 189H251L405 521H583L267 -60Q219 -150 164 -186T36 -222Q-19 -222 -60 -205L-27 -75Q-3 -84 19 -84Q57 -84 85 -62T122 0ZM200 734H326L297 600H171ZM378 734H504L475 600H349Z" unicode="ÿ"/>
			<glyph d="M306 698H513L590 0H409L402 148H196L123 0H-71ZM380 556L254 282H395L382 556ZM279 875H587L567 777H259Z" horiz-adv-x="667" unicode="Ā"/>
			<glyph d="M305 533Q400 533 454 492T508 383Q508 356 499 315L456 115Q444 60 438 0H278Q279 29 287 72Q242 24 209 6T134 -12Q70 -12 27 28T-15 132Q-15 231 52 281T251 332H342Q346 344 346 359Q346 419 269 419Q225 419 184 409T102 378L114 502Q199 533 305 533ZM319 252Q236 252 193 229T150 158Q150 135 167 118T209 102Q257 102 285 139T325 252ZM196 722H504L483 624H175Z" unicode="ā"/>
			<glyph d="M306 698H513L590 0H409L402 148H196L123 0H-71ZM380 556L254 282H395L382 556ZM294 893H378Q377 890 377 882Q377 863 391 851T427 839Q454 839 474 853T500 893H584Q570 822 525 784T414 747Q357 747 323 775T289 851Q289 865 294 893Z" horiz-adv-x="667" unicode="Ă"/>
			<glyph d="M305 533Q400 533 454 492T508 383Q508 356 499 315L456 115Q444 60 438 0H278Q279 29 287 72Q242 24 209 6T134 -12Q70 -12 27 28T-15 132Q-15 231 52 281T251 332H342Q346 344 346 359Q346 419 269 419Q225 419 184 409T102 378L114 502Q199 533 305 533ZM319 252Q236 252 193 229T150 158Q150 135 167 118T209 102Q257 102 285 139T325 252ZM209 740H293Q292 737 292 730Q292 710 306 698T342 686Q371 686 390 700T415 740H499Q485 669 440 631T329 594Q272 594 238 621T204 698Q204 713 209 740Z" unicode="ă"/>
			<glyph d="M306 698H513L590 0H521Q471 -46 453 -71T435 -125Q435 -144 447 -156T482 -169Q509 -169 520 -164L525 -208Q485 -222 440 -222Q398 -222 374 -202T351 -151Q351 -114 378 -79T473 0H409L402 148H196L123 0H-71ZM380 556L254 282H395L382 556Z" horiz-adv-x="667" unicode="Ą"/>
			<glyph d="M305 533Q400 533 454 492T508 383Q508 356 499 315L456 115Q444 60 438 0H392Q343 -45 324 -71T306 -125Q306 -144 318 -156T353 -169Q376 -169 391 -164L396 -208Q356 -222 312 -222Q269 -222 245 -202T222 -151Q222 -114 249 -79T344 0H278Q279 29 287 72Q243 24 209 6T134 -12Q70 -12 27 28T-15 132Q-15 231 52 281T251 332H342Q346 344 346 359Q346 419 269 419Q225 419 184 409T102 378L114 502Q202 533 305 533ZM319 252Q236 252 193 229T150 158Q150 135 167 118T209 102Q257 102 285 139T325 252Z" unicode="ą"/>
			<glyph d="M448 710Q552 710 622 678L581 527Q548 547 517 555T452 564Q383 564 332 529T253 433T226 299Q226 221 264 179T375 138Q413 138 453 149T522 177L496 15Q418 -12 333 -12Q242 -12 174 23T68 124T31 276Q31 402 86 501T236 655T448 710ZM454 893H610L487 747H383Z" horiz-adv-x="593" unicode="Ć"/>
			<glyph d="M326 533Q410 533 463 508L429 377Q381 399 332 399Q269 399 230 349T191 225Q191 177 218 149T294 122Q337 122 396 147L378 17Q348 3 312 -4T245 -12Q176 -12 123 16T41 92T12 202Q12 295 51 370T162 489T326 533ZM332 740H488L365 594H261Z" horiz-adv-x="463" unicode="ć"/>
			<glyph d="M448 710Q552 710 622 678L581 527Q548 547 517 555T452 564Q383 564 332 529T253 433T226 299Q226 221 264 179T375 138Q413 138 453 149T522 177L496 15Q418 -12 333 -12Q242 -12 174 23T68 124T31 276Q31 402 86 501T236 655T448 710ZM392 893H560L598 747H489L466 831L409 747H290Z" horiz-adv-x="593" unicode="Ĉ"/>
			<glyph d="M326 533Q410 533 463 508L429 377Q381 399 332 399Q269 399 230 349T191 225Q191 177 218 149T294 122Q337 122 396 147L378 17Q348 3 312 -4T245 -12Q176 -12 123 16T41 92T12 202Q12 295 51 370T162 489T326 533ZM279 740H447L485 594H376L353 678L296 594H177Z" horiz-adv-x="463" unicode="ĉ"/>
			<glyph d="M448 710Q552 710 622 678L581 527Q548 547 517 555T452 564Q383 564 332 529T253 433T226 299Q226 221 264 179T375 138Q413 138 453 149T522 177L496 15Q418 -12 333 -12Q242 -12 174 23T68 124T31 276Q31 402 86 501T236 655T448 710ZM411 887H537L509 753H383Z" horiz-adv-x="593" unicode="Ċ"/>
			<glyph d="M326 533Q410 533 463 508L429 377Q381 399 332 399Q269 399 230 349T191 225Q191 177 218 149T294 122Q337 122 396 147L378 17Q348 3 312 -4T245 -12Q176 -12 123 16T41 92T12 202Q12 295 51 370T162 489T326 533ZM298 734H424L395 600H269Z" horiz-adv-x="463" unicode="ċ"/>
			<glyph d="M448 710Q552 710 622 678L581 527Q548 547 517 555T452 564Q383 564 332 529T253 433T226 299Q226 221 264 179T375 138Q413 138 453 149T522 177L496 15Q418 -12 333 -12Q242 -12 174 23T68 124T31 276Q31 402 86 501T236 655T448 710ZM322 893H431L454 809L511 893H630L528 747H360Z" horiz-adv-x="593" unicode="Č"/>
			<glyph d="M326 533Q410 533 463 508L429 377Q381 399 332 399Q269 399 230 349T191 225Q191 177 218 149T294 122Q337 122 396 147L378 17Q348 3 312 -4T245 -12Q176 -12 123 16T41 92T12 202Q12 295 51 370T162 489T326 533ZM208 740H317L340 656L397 740H516L414 594H246Z" horiz-adv-x="463" unicode="č"/>
			<glyph d="M137 698H356Q501 698 580 630T659 429Q659 305 609 207T470 55T271 0H-11ZM296 560L205 134H259Q326 134 373 175T443 283T467 421Q467 489 434 524T345 560ZM261 893H370L393 809L450 893H569L467 747H299Z" horiz-adv-x="685" unicode="Ď"/>
			<glyph d="M447 750H627L487 92Q480 60 472 0H300Q304 38 312 84H310Q282 37 246 14T161 -8Q90 -8 49 44T9 190Q9 281 41 359T130 485T255 533Q345 533 384 445H386Q397 518 402 539ZM296 411Q267 411 241 378T201 293T187 191Q187 158 200 138T237 118Q269 118 296 153T338 239T354 334Q354 368 338 389T296 411ZM683 740H811L728 558H638Z" horiz-adv-x="592" unicode="ď"/>
			<glyph d="M137 698H356Q501 698 580 630T659 429Q659 305 609 207T470 55T271 0H-11L54 308H-9L12 406H75ZM296 560L263 406H363L342 308H242L205 134H259Q326 134 373 175T443 282T467 421Q467 489 434 524T345 560Z" horiz-adv-x="685" unicode="Đ"/>
			<glyph d="M447 750H627L612 681H671L653 596H594L487 92Q480 60 472 0H300Q304 38 312 84H310Q282 37 246 14T161 -8Q90 -8 49 44T9 190Q9 281 41 359T129 485T255 533Q345 533 384 445H386Q397 518 402 539L414 596H261L279 681H432ZM296 411Q265 411 240 378T201 293T187 191Q187 158 200 138T237 118Q269 118 296 153T338 239T354 334Q354 368 338 389T296 411Z" horiz-adv-x="592" unicode="đ"/>
			<glyph d="M137 698H565L536 560H292L263 426H495L466 288H234L202 138H459L430 0H-11ZM232 875H540L520 777H212Z" horiz-adv-x="537" unicode="Ē"/>
			<glyph d="M306 533Q397 533 451 482T506 346Q506 318 500 280T487 211H176Q175 207 175 195Q175 102 282 102Q343 102 439 142L423 18Q333 -12 252 -12Q139 -12 76 44T13 200Q13 289 51 365T156 487T306 533ZM296 423Q258 423 230 392T190 305H346Q351 321 353 332T355 362Q355 388 338 405T296 423ZM190 722H498L477 624H169Z" unicode="ē"/>
			<glyph d="M137 698H565L536 560H292L263 426H495L466 288H234L202 138H459L430 0H-11ZM233 893H317Q316 890 316 882Q316 863 330 851T366 839Q393 839 413 853T439 893H523Q509 822 464 784T353 747Q296 747 262 775T228 851Q228 865 233 893Z" horiz-adv-x="537" unicode="Ĕ"/>
			<glyph d="M306 533Q397 533 451 482T506 346Q506 318 500 280T487 211H176Q175 207 175 195Q175 102 282 102Q343 102 439 142L423 18Q333 -12 252 -12Q139 -12 76 44T13 200Q13 289 51 365T156 487T306 533ZM296 423Q258 423 230 392T190 305H346Q351 321 353 332T355 362Q355 388 338 405T296 423ZM205 740H289Q288 737 288 730Q288 710 302 698T338 686Q367 686 386 700T411 740H495Q481 669 436 631T325 594Q268 594 234 621T200 698Q200 713 205 740Z" unicode="ĕ"/>
			<glyph d="M137 698H565L536 560H292L263 426H495L466 288H234L202 138H459L430 0H-11ZM330 887H456L428 753H302Z" horiz-adv-x="537" unicode="Ė"/>
			<glyph d="M306 533Q397 533 451 482T506 346Q506 318 500 280T487 211H176Q175 207 175 195Q175 102 282 102Q343 102 439 142L423 18Q333 -12 252 -12Q139 -12 76 44T13 200Q13 289 51 365T156 487T306 533ZM296 423Q258 423 230 392T190 305H346Q351 321 353 332T355 362Q355 388 338 405T296 423ZM285 734H411L382 600H256Z" unicode="ė"/>
			<glyph d="M137 698H565L536 560H292L263 426H495L466 288H234L202 138H459L430 0H379Q329 -46 311 -71T293 -125Q293 -144 305 -156T340 -169Q365 -169 378 -164L383 -208Q367 -214 344 -218T298 -222Q256 -222 232 -202T209 -151Q209 -114 236 -79T331 0H-11Z" horiz-adv-x="537" unicode="Ę"/>
			<glyph d="M306 533Q398 533 452 482T506 346Q506 318 500 280T487 211H176Q175 207 175 195Q175 102 282 102Q343 102 439 142L423 18Q384 5 347 -2T264 -12Q228 -44 209 -70T190 -125Q190 -144 202 -156T237 -169Q262 -169 275 -164L280 -208Q240 -222 195 -222Q154 -222 130 -202T106 -151Q106 -88 187 -29L213 -10Q116 0 64 55T13 200Q13 289 51 365T156 487T306 533ZM296 423Q258 423 230 392T190 305H346Q352 320 353 332T355 362Q355 388 338 405T296 423Z" unicode="ę"/>
			<glyph d="M137 698H565L536 560H292L263 426H495L466 288H234L202 138H459L430 0H-11ZM238 893H347L370 809L427 893H546L444 747H276Z" horiz-adv-x="537" unicode="Ě"/>
			<glyph d="M306 533Q397 533 451 482T506 346Q506 318 500 280T487 211H176Q175 207 175 195Q175 102 282 102Q343 102 439 142L423 18Q333 -12 252 -12Q139 -12 76 44T13 200Q13 289 51 365T156 487T306 533ZM296 423Q258 423 230 392T190 305H346Q351 321 353 332T355 362Q355 388 338 405T296 423ZM199 740H308L331 656L388 740H507L405 594H237Z" unicode="ě"/>
			<glyph d="M480 710Q533 710 586 702T673 682L634 536Q607 553 565 562T479 572Q400 572 342 535T254 434T223 285Q223 213 258 171T356 130Q374 130 386 132T410 140L438 274H343L370 404H641L561 27Q519 9 461 -1T345 -12Q251 -12 180 24T70 128T31 283Q31 406 87 503T246 655T480 710ZM414 893H582L620 747H511L488 831L431 747H312Z" horiz-adv-x="685" unicode="Ĝ"/>
			<glyph d="M255 533Q304 533 339 510T389 441H391Q410 512 413 521H584Q565 456 559 430L478 50Q448 -94 368 -158T146 -222Q88 -222 34 -213T-51 -187L-15 -46Q22 -70 58 -81T136 -92Q217 -92 255 -56T311 63L319 103H317Q252 0 161 0Q91 0 50 51T9 193Q9 280 41 358T129 485T255 533ZM296 411Q267 411 241 378T201 295T187 193Q187 163 200 144T237 126Q269 126 296 159T338 241T354 334Q354 368 338 389T296 411ZM300 740H468L506 594H397L374 678L317 594H198Z" horiz-adv-x="592" unicode="ĝ"/>
			<glyph d="M480 710Q533 710 586 702T673 682L634 536Q607 553 565 562T479 572Q400 572 342 535T254 434T223 285Q223 213 258 171T356 130Q374 130 386 132T410 140L438 274H343L370 404H641L561 27Q519 9 461 -1T345 -12Q251 -12 180 24T70 128T31 283Q31 406 87 503T246 655T480 710ZM352 893H436Q435 890 435 882Q435 863 449 851T485 839Q512 839 532 853T558 893H642Q628 822 583 784T472 747Q415 747 381 775T347 851Q347 865 352 893Z" horiz-adv-x="685" unicode="Ğ"/>
			<glyph d="M255 533Q304 533 339 510T389 441H391Q410 512 413 521H584Q565 456 559 430L478 50Q448 -94 368 -158T146 -222Q88 -222 34 -213T-51 -187L-15 -46Q22 -70 58 -81T136 -92Q217 -92 255 -56T311 63L319 103H317Q252 0 161 0Q91 0 50 51T9 193Q9 280 41 358T129 485T255 533ZM296 411Q267 411 241 378T201 295T187 193Q187 163 200 144T237 126Q269 126 296 159T338 241T354 334Q354 368 338 389T296 411ZM238 740H322Q321 737 321 730Q321 710 335 698T371 686Q400 686 419 700T444 740H528Q514 669 469 631T358 594Q301 594 267 621T233 698Q233 713 238 740Z" horiz-adv-x="592" unicode="ğ"/>
			<glyph d="M480 710Q533 710 586 702T673 682L634 536Q607 553 565 562T479 572Q400 572 342 535T254 434T223 285Q223 213 258 171T356 130Q374 130 386 132T410 140L438 274H343L370 404H641L561 27Q519 9 461 -1T345 -12Q251 -12 180 24T70 128T31 283Q31 406 87 503T246 655T480 710ZM433 887H559L531 753H405Z" horiz-adv-x="685" unicode="Ġ"/>
			<glyph d="M255 533Q304 533 339 510T389 441H391Q410 512 413 521H584Q565 456 559 430L478 50Q448 -94 368 -158T146 -222Q88 -222 34 -213T-51 -187L-15 -46Q22 -70 58 -81T136 -92Q217 -92 255 -56T311 63L319 103H317Q252 0 161 0Q91 0 50 51T9 193Q9 280 41 358T129 485T255 533ZM296 411Q267 411 241 378T201 295T187 193Q187 163 200 144T237 126Q269 126 296 159T338 241T354 334Q354 368 338 389T296 411ZM319 734H445L416 600H290Z" horiz-adv-x="592" unicode="ġ"/>
			<glyph d="M480 710Q533 710 586 702T673 682L634 536Q607 553 565 562T479 572Q400 572 342 535T254 434T223 285Q223 213 258 171T356 130Q374 130 386 132T410 140L438 274H343L370 404H641L561 27Q519 9 461 -1T345 -12Q251 -12 180 24T70 128T31 283Q31 406 87 503T246 655T480 710ZM245 -72H402L308 -234H181Z" horiz-adv-x="685" unicode="Ģ"/>
			<glyph d="M255 533Q304 533 339 510T389 441H391Q410 512 413 521H584Q565 456 559 430L478 50Q448 -94 368 -158T146 -222Q88 -222 34 -213T-51 -187L-15 -46Q22 -70 58 -81T136 -92Q217 -92 255 -56T311 63L319 103H317Q252 0 161 0Q91 0 50 51T9 193Q9 280 41 358T129 485T255 533ZM296 411Q267 411 241 378T201 295T187 193Q187 163 200 144T237 126Q269 126 296 159T338 241T354 334Q354 368 338 389T296 411ZM352 740H475L418 594H268Z" horiz-adv-x="592" unicode="ģ"/>
			<glyph d="M137 698H325L268 430H414L471 698H659L511 0H323L383 284H237L177 0H-11ZM351 893H519L557 747H448L425 831L368 747H249Z" horiz-adv-x="648" unicode="Ĥ"/>
			<glyph d="M135 750H315L267 523Q260 490 248 456H251Q319 533 398 533Q455 533 492 497T530 405Q530 378 522 341L450 0H270L337 317Q339 327 339 339Q339 361 328 374T300 387Q266 387 246 364T218 298L156 0H-24ZM317 935H485L523 789H414L391 873L334 789H215Z" horiz-adv-x="574" unicode="ĥ"/>
			<glyph d="M137 698H325L303 596H449L471 698H659L637 596H697L678 504H618L511 0H323L379 266H233L177 0H-11L96 504H36L55 596H115ZM284 504L262 400H408L430 504Z" horiz-adv-x="648" unicode="Ħ"/>
			<glyph d="M135 750H315L300 681H446L428 596H282L267 523Q260 490 248 456H251Q319 533 398 533Q455 533 492 497T530 405Q530 378 522 341L450 0H270L337 317Q339 327 339 339Q339 361 328 374T300 387Q266 387 246 364T218 298L156 0H-24L102 596H42L60 681H120Z" horiz-adv-x="574" unicode="ħ"/>
			<glyph d="M137 698H325L177 0H-11ZM338 886H418Q405 826 372 790T297 755Q283 755 270 758T232 771Q227 773 211 779T181 785Q168 785 158 776T146 753H66Q77 811 110 847T187 884Q203 884 218 880T254 867Q286 854 305 854Q317 854 326 862T338 886Z" horiz-adv-x="314" unicode="Ĩ"/>
			<glyph d="M94 521H274L164 0H-16ZM304 733H384Q371 673 338 637T263 602Q249 602 236 605T198 618Q193 620 177 626T147 632Q134 632 124 623T112 600H32Q43 658 76 694T153 731Q171 731 186 726T220 714Q252 701 271 701Q283 701 292 709T304 733Z" horiz-adv-x="296" unicode="ĩ"/>
			<glyph d="M137 698H325L177 0H-11ZM109 875H417L397 777H89Z" horiz-adv-x="314" unicode="Ī"/>
			<glyph d="M94 521H274L164 0H-16ZM69 722H377L356 624H48Z" horiz-adv-x="296" unicode="ī"/>
			<glyph d="M137 698H325L177 0H141Q94 -44 74 -70T55 -125Q55 -144 67 -156T102 -169Q125 -169 140 -164L145 -208Q131 -214 107 -218T61 -222Q18 -222 -5 -202T-29 -151Q-29 -115 -2 -80T93 0H-11Z" horiz-adv-x="314" unicode="Į"/>
			<glyph d="M139 750H319L287 600H107ZM94 521H274L164 0H131Q82 -45 63 -71T45 -125Q45 -144 57 -156T92 -169Q118 -169 130 -164L135 -208Q95 -222 50 -222Q8 -222 -15 -202T-39 -151Q-39 -114 -11 -79T83 0H-16Z" horiz-adv-x="296" unicode="į"/>
			<glyph d="M137 698H325L177 0H-11ZM206 887H332L304 753H178Z" horiz-adv-x="314" unicode="İ"/>
			<glyph d="M94 521H274L164 0H-16Z" horiz-adv-x="296" unicode="ı"/>
			<glyph d="M137 698H325L177 0H-11ZM539 698H727L629 234Q600 97 535 42T360 -12Q307 -12 249 9L288 157Q320 142 347 142Q388 142 408 163T439 232Z" horiz-adv-x="716" unicode="Ĳ"/>
			<glyph d="M139 750H319L287 600H107ZM94 521H274L164 0H-16ZM426 750H606L574 600H394ZM381 521H561L446 -24Q423 -131 371 -176T227 -222Q172 -222 140 -209L171 -91Q190 -96 207 -96Q230 -96 244 -78T266 -25Z" horiz-adv-x="583" unicode="ĳ"/>
			<glyph d="M230 698H418L320 234Q291 97 226 42T51 -12Q-2 -12 -60 9L-21 157Q11 142 38 142Q79 142 99 163T130 232ZM276 893H444L482 747H373L350 831L293 747H174Z" horiz-adv-x="407" unicode="Ĵ"/>
			<glyph d="M94 521H274L159 -24Q136 -131 84 -176T-60 -222Q-115 -222 -147 -209L-116 -91Q-97 -96 -80 -96Q-57 -96 -43 -78T-21 -25ZM146 740H314L352 594H243L220 678L163 594H44Z" horiz-adv-x="296" unicode="ĵ"/>
			<glyph d="M137 698H325L265 417H267L473 698H683L408 364L557 0H354L245 319H243L177 0H-11ZM172 -72H329L235 -234H108Z" horiz-adv-x="630" unicode="Ķ"/>
			<glyph d="M143 750H323L230 314H232L387 521H570L368 278L480 0H291L217 246H215L164 0H-16ZM136 -72H293L199 -234H72Z" unicode="ķ"/>
			<glyph d="M137 698H325L207 142H437L407 0H-11ZM249 893H405L282 747H178Z" horiz-adv-x="500" unicode="Ĺ"/>
			<glyph d="M143 750H323L164 0H-16ZM240 935H396L273 789H169Z" horiz-adv-x="296" unicode="ĺ"/>
			<glyph d="M137 698H325L207 142H437L407 0H-11ZM111 -72H268L174 -234H47Z" horiz-adv-x="500" unicode="Ļ"/>
			<glyph d="M143 750H323L164 0H-16ZM-13 -72H144L50 -234H-77Z" horiz-adv-x="296" unicode="ļ"/>
			<glyph d="M137 698H325L207 142H437L407 0H-11ZM399 740H527L444 558H354Z" horiz-adv-x="500" unicode="Ľ"/>
			<glyph d="M143 750H323L164 0H-16ZM379 740H507L424 558H334Z" horiz-adv-x="296" unicode="ľ"/>
			<glyph d="M137 698H325L207 142H437L407 0H-11ZM333 433H459L431 299H305Z" horiz-adv-x="500" unicode="Ŀ"/>
			<glyph d="M143 750H323L164 0H-16ZM316 433H442L413 299H287Z" horiz-adv-x="450" unicode="ŀ"/>
			<glyph d="M137 698H325L274 454L409 542V443L250 340L207 142H437L407 0H-11L36 229L-32 186V285L60 343Z" horiz-adv-x="500" unicode="Ł"/>
			<glyph d="M153 750H333L277 486L353 531V432L253 372L174 0H-6L47 254L-19 212V311L71 368Z" horiz-adv-x="316" unicode="ł"/>
			<glyph d="M133 698H346L431 213H433L536 698H700L552 0H338L256 488H252L149 0H-15ZM441 893H597L474 747H370Z" horiz-adv-x="685" unicode="Ń"/>
			<glyph d="M398 533Q455 533 492 497T530 405Q530 378 522 341L450 0H270L337 317Q339 327 339 339Q339 362 328 374T300 387Q266 387 246 364T218 298L156 0H-24L64 414Q68 437 73 469T80 521H249Q247 501 239 456L235 434H238Q304 533 398 533ZM346 740H502L379 594H275Z" horiz-adv-x="574" unicode="ń"/>
			<glyph d="M133 698H346L431 213H433L536 698H700L552 0H338L256 488H252L149 0H-15ZM210 -72H367L273 -234H146Z" horiz-adv-x="685" unicode="Ņ"/>
			<glyph d="M398 533Q455 533 492 497T530 405Q530 378 522 341L450 0H270L337 317Q339 327 339 339Q339 362 328 374T300 387Q266 387 246 364T218 298L156 0H-24L64 414Q68 437 73 469T80 521H249Q247 501 239 456L235 434H238Q304 533 398 533ZM127 -72H284L190 -234H63Z" horiz-adv-x="574" unicode="ņ"/>
			<glyph d="M133 698H346L431 213H433L536 698H700L552 0H338L256 488H252L149 0H-15ZM314 893H423L446 809L503 893H622L520 747H352Z" horiz-adv-x="685" unicode="Ň"/>
			<glyph d="M398 533Q455 533 492 497T530 405Q530 378 522 341L450 0H270L337 317Q339 327 339 339Q339 362 328 374T300 387Q266 387 246 364T218 298L156 0H-24L64 414Q68 437 73 469T80 521H249Q247 501 239 456L235 434H238Q304 533 398 533ZM214 740H323L346 656L403 740H522L420 594H252Z" horiz-adv-x="574" unicode="ň"/>
			<glyph d="M114 750H264L151 510H28ZM543 533Q600 533 637 497T675 405Q675 378 667 341L595 0H415L482 317Q484 327 484 339Q484 361 473 374T445 387Q411 387 391 364T363 298L301 0H121L209 414Q213 437 218 469T225 521H394Q392 501 384 456L380 434H383Q449 533 543 533Z" horiz-adv-x="719" unicode="ŉ"/>
			<glyph d="M403 710Q531 710 603 640T676 442Q676 330 633 225T507 54T303 -12Q174 -12 102 58T30 256Q30 368 73 472T202 643T403 710ZM398 576Q349 576 308 527T245 403T222 248Q222 191 246 156T307 122Q357 122 397 169T461 294T484 451Q484 508 460 542T398 576ZM295 875H603L583 777H275Z" horiz-adv-x="704" unicode="Ō"/>
			<glyph d="M310 533Q378 533 431 507T513 434T543 326Q543 235 506 157T402 34T246 -12Q140 -12 76 43T13 195Q13 288 51 365T156 487T310 533ZM306 411Q273 411 246 380T205 298T191 192Q191 153 207 131T250 110Q285 110 311 141T351 222T365 329Q365 368 349 389T306 411ZM210 722H518L497 624H189Z" horiz-adv-x="592" unicode="ō"/>
			<glyph d="M403 710Q531 710 603 640T676 442Q676 330 633 225T507 54T303 -12Q174 -12 102 58T30 256Q30 368 73 472T202 643T403 710ZM398 576Q349 576 308 527T245 403T222 248Q222 191 246 156T307 122Q357 122 397 169T461 294T484 451Q484 508 460 542T398 576ZM318 893H402Q401 890 401 882Q401 863 415 851T451 839Q478 839 498 853T524 893H608Q594 822 549 784T438 747Q381 747 347 775T313 851Q313 865 318 893Z" horiz-adv-x="704" unicode="Ŏ"/>
			<glyph d="M310 533Q378 533 431 507T513 434T543 326Q543 235 506 157T402 34T246 -12Q140 -12 76 43T13 195Q13 288 51 365T156 487T310 533ZM306 411Q273 411 246 380T205 298T191 192Q191 153 207 131T250 110Q285 110 311 141T351 222T365 329Q365 368 349 389T306 411ZM223 740H307Q306 737 306 730Q306 710 320 698T356 686Q385 686 404 700T429 740H513Q499 669 454 631T343 594Q286 594 252 621T218 698Q218 713 223 740Z" horiz-adv-x="592" unicode="ŏ"/>
			<glyph d="M403 710Q531 710 603 640T676 442Q676 330 633 225T507 54T303 -12Q174 -12 102 58T30 256Q30 368 73 472T202 643T403 710ZM398 576Q349 576 308 527T245 403T222 248Q222 191 246 156T307 122Q357 122 397 169T461 294T484 451Q484 508 460 542T398 576ZM337 893H489L364 747H264ZM537 893H689L564 747H464Z" horiz-adv-x="704" unicode="Ő"/>
			<glyph d="M310 533Q378 533 431 507T513 434T543 326Q543 235 506 157T402 34T246 -12Q140 -12 76 43T13 195Q13 288 51 365T156 487T310 533ZM306 411Q273 411 246 380T205 298T191 192Q191 153 207 131T250 110Q285 110 311 141T351 222T365 329Q365 368 349 389T306 411ZM252 740H404L279 594H179ZM452 740H604L479 594H379Z" horiz-adv-x="592" unicode="ő"/>
			<glyph d="M427 710Q444 710 526 704T632 698H937L908 560H673L644 426H864L835 288H615L583 138H829L800 0H465Q444 0 379 -6T293 -12Q171 -12 100 59T30 253Q30 384 78 488T217 651T427 710ZM417 576Q353 576 309 529T243 410T222 258Q222 188 246 155T321 122Q365 122 394 132L486 566Q461 576 417 576Z" horiz-adv-x="907" unicode="Œ"/>
			<glyph d="M311 533Q365 533 402 515T465 463Q535 533 637 533Q729 533 783 482T837 346Q837 298 818 211H506V192Q506 145 536 123T613 102Q669 102 770 142L754 18Q707 3 669 -4T583 -12Q464 -12 412 53Q382 22 337 5T239 -12Q135 -12 74 43T13 194Q13 288 51 365T156 488T311 533ZM627 423Q589 423 561 392T521 305H677Q686 331 686 358Q686 391 669 407T627 423ZM306 411Q273 411 246 380T205 298T191 192Q191 153 207 131T250 110Q284 110 310 141T351 222T365 329Q365 368 349 389T306 411Z" horiz-adv-x="889" unicode="œ"/>
			<glyph d="M137 698H395Q486 698 539 654T593 529Q593 451 550 401T426 334L425 331Q456 323 470 294T493 202L517 0H323L309 198Q307 232 294 252T251 273H235L177 0H-11ZM288 564L255 407H300Q351 407 378 432T406 507Q406 534 386 549T333 564ZM370 893H526L403 747H299Z" horiz-adv-x="611" unicode="Ŕ"/>
			<glyph d="M376 533Q404 533 420 529L387 372Q354 379 332 379Q289 379 255 347T213 270L156 0H-24L54 371Q71 452 80 521H249Q247 500 239 457L235 434H237Q269 488 301 510T376 533ZM276 740H432L309 594H205Z" horiz-adv-x="407" unicode="ŕ"/>
			<glyph d="M137 698H395Q486 698 539 654T593 529Q593 451 550 401T426 334L425 331Q456 323 470 294T493 202L517 0H323L309 198Q307 232 294 252T251 273H235L177 0H-11ZM288 564L255 407H300Q351 407 378 432T406 507Q406 534 386 549T333 564ZM161 -72H318L224 -234H97Z" horiz-adv-x="611" unicode="Ŗ"/>
			<glyph d="M376 533Q404 533 420 529L387 372Q354 379 332 379Q289 379 255 347T213 270L156 0H-24L54 371Q71 452 80 521H249Q247 500 239 457L235 434H237Q269 488 301 510T376 533ZM-20 -72H137L43 -234H-84Z" horiz-adv-x="407" unicode="ŗ"/>
			<glyph d="M137 698H395Q486 698 539 654T593 529Q593 451 550 401T426 334L425 331Q456 323 470 294T493 202L517 0H323L309 198Q307 232 294 252T251 273H235L177 0H-11ZM288 564L255 407H300Q351 407 378 432T406 507Q406 534 386 549T333 564ZM246 893H355L378 809L435 893H554L452 747H284Z" horiz-adv-x="611" unicode="Ř"/>
			<glyph d="M376 533Q404 533 420 529L387 372Q354 379 332 379Q289 379 255 347T213 270L156 0H-24L54 371Q71 452 80 521H249Q247 500 239 457L235 434H237Q269 488 301 510T376 533ZM145 740H254L277 656L334 740H453L351 594H183Z" horiz-adv-x="407" unicode="ř"/>
			<glyph d="M362 710Q451 710 531 682L496 545Q466 562 431 571T363 580Q316 580 287 562T259 515Q259 484 281 461T354 411Q441 362 464 321T488 229Q488 114 407 51T177 -12Q91 -12 -6 15L37 168Q69 148 107 137T183 126Q243 126 268 143T294 199Q294 227 270 249T185 306Q130 337 100 380T71 477Q71 586 148 648T362 710ZM361 893H517L394 747H290Z" unicode="Ś"/>
			<glyph d="M263 533Q333 533 412 509L381 379Q356 394 322 402T255 411Q227 411 209 400T192 373Q192 355 206 344T249 320T293 299Q341 275 360 243T380 170Q380 83 317 35T138 -12Q95 -12 44 -4T-26 12L8 151Q40 131 72 122T140 114Q181 114 196 122T212 151Q212 166 192 180T126 216Q75 239 52 273T29 353Q29 437 91 485T263 533ZM269 740H425L302 594H198Z" horiz-adv-x="444" unicode="ś"/>
			<glyph d="M362 710Q451 710 531 682L496 545Q466 562 431 571T363 580Q316 580 287 562T259 515Q259 484 281 461T354 411Q441 362 464 321T488 229Q488 114 407 51T177 -12Q91 -12 -6 15L37 168Q69 148 107 137T183 126Q243 126 268 143T294 199Q294 227 270 249T185 306Q130 337 100 380T71 477Q71 586 148 648T362 710ZM293 893H461L499 747H390L367 831L310 747H191Z" unicode="Ŝ"/>
			<glyph d="M263 533Q333 533 412 509L381 379Q356 394 322 402T255 411Q227 411 209 400T192 373Q192 355 206 344T249 320T293 299Q341 275 360 243T380 170Q380 83 317 35T138 -12Q95 -12 44 -4T-26 12L8 151Q40 131 72 122T140 114Q181 114 196 122T212 151Q212 166 192 180T126 216Q75 239 52 273T29 353Q29 437 91 485T263 533ZM219 740H387L425 594H316L293 678L236 594H117Z" horiz-adv-x="444" unicode="ŝ"/>
			<glyph d="M362 710Q451 710 531 682L496 545Q466 562 431 571T363 580Q316 580 287 562T259 515Q259 482 282 460T356 410L396 386Q445 355 466 317T488 229Q488 125 421 62T228 -10L195 -58Q211 -54 228 -54Q261 -54 281 -72T302 -121Q302 -166 259 -194T147 -222Q97 -222 56 -204L83 -152Q116 -168 148 -168Q178 -168 192 -158T206 -127Q206 -116 198 -108T173 -100Q153 -100 139 -108L117 -86L168 -12Q81 -12 -6 15L37 168Q69 148 107 137T183 126Q243 126 268 143T294 199Q294 227 270 249T185 306Q130 337 100 380T71 477Q71 586 148 648T362 710Z" unicode="Ş"/>
			<glyph d="M263 533Q333 533 412 509L381 379Q356 394 323 402T255 411Q227 411 209 400T192 373Q192 355 206 344T256 317Q279 307 293 299Q341 275 360 243T380 170Q380 89 326 42T171 -11L139 -58Q155 -54 172 -54Q205 -54 225 -72T246 -119Q246 -167 203 -194T91 -222Q41 -222 0 -204L27 -152Q60 -168 92 -168Q122 -168 136 -158T150 -127Q150 -116 142 -108T118 -100Q97 -100 83 -108L61 -86L113 -11Q9 -4 -26 12L8 151Q40 131 72 122T140 114Q181 114 196 122T212 151Q212 166 192 180T126 216Q75 239 52 273T29 353Q29 437 91 485T263 533Z" horiz-adv-x="444" unicode="ş"/>
			<glyph d="M362 710Q451 710 531 682L496 545Q466 562 431 571T363 580Q316 580 287 562T259 515Q259 484 281 461T354 411Q441 362 464 321T488 229Q488 114 407 51T177 -12Q91 -12 -6 15L37 168Q69 148 107 137T183 126Q243 126 268 143T294 199Q294 227 270 249T185 306Q130 337 100 380T71 477Q71 586 148 648T362 710ZM223 893H332L355 809L412 893H531L429 747H261Z" unicode="Š"/>
			<glyph d="M263 533Q333 533 412 509L381 379Q356 394 322 402T255 411Q227 411 209 400T192 373Q192 355 206 344T249 320T293 299Q341 275 360 243T380 170Q380 83 317 35T138 -12Q95 -12 44 -4T-26 12L8 151Q40 131 72 122T140 114Q181 114 196 122T212 151Q212 166 192 180T126 216Q75 239 52 273T29 353Q29 437 91 485T263 533ZM148 740H257L280 656L337 740H456L354 594H186Z" horiz-adv-x="444" unicode="š"/>
			<glyph d="M89 698H577L547 556H397L279 0H91L209 556H59ZM99 -72H256L162 -234H35Z" horiz-adv-x="518" unicode="Ţ"/>
			<glyph d="M354 687L318 521H419L393 399H292L245 176Q242 163 242 151Q242 134 254 124T286 114Q308 114 334 122L314 0Q266 -12 201 -12Q133 -12 94 21T55 112Q55 134 59 151L112 399H23L49 521H138L162 631ZM84 -72H241L147 -234H20Z" horiz-adv-x="407" unicode="ţ"/>
			<glyph d="M89 698H577L547 556H397L279 0H91L209 556H59ZM215 893H324L347 809L404 893H523L421 747H253Z" horiz-adv-x="518" unicode="Ť"/>
			<glyph d="M354 687L318 521H419L393 399H292L245 176Q242 163 242 151Q242 134 254 124T286 114Q308 114 334 122L314 0Q266 -12 201 -12Q133 -12 94 21T55 112Q55 134 59 151L112 399H23L49 521H138L162 631ZM412 740H540L457 558H367Z" horiz-adv-x="407" unicode="ť"/>
			<glyph d="M89 698H577L547 556H397L368 421H480L459 320H347L279 0H91L159 320H48L69 421H180L209 556H59Z" horiz-adv-x="518" unicode="Ŧ"/>
			<glyph d="M354 687L318 521H419L393 399H292L276 326H356L337 236H257L245 176Q242 163 242 151Q242 134 254 124T286 114Q308 114 334 122L314 0Q266 -12 201 -12Q133 -12 94 21T55 112Q55 134 59 151L77 236H4L23 326H96L112 399H23L49 521H138L162 631Z" horiz-adv-x="407" unicode="ŧ"/>
			<glyph d="M132 698H316L222 250Q213 212 213 192Q213 162 231 144T280 126Q307 126 325 134T358 167T383 240L480 698H664L565 231Q540 112 465 50T267 -12Q154 -12 92 38T30 181Q30 224 41 272ZM515 886H595Q582 826 549 790T474 755Q460 755 447 758T409 771Q404 773 388 779T358 785Q345 785 335 776T323 753H243Q254 811 287 847T364 884Q380 884 395 880T431 867Q463 854 482 854Q494 854 503 862T515 886Z" horiz-adv-x="648" unicode="Ũ"/>
			<glyph d="M87 521H267L200 204Q198 194 198 182Q198 160 208 147T236 134Q267 134 286 153T316 219L379 521H559L473 113Q457 37 455 0H286Q286 8 289 29T300 87H297Q232 -12 139 -12Q82 -12 44 24T7 116Q7 141 13 171ZM449 733H529Q516 673 483 637T408 602Q394 602 381 605T343 618Q338 620 322 626T292 632Q279 632 269 623T257 600H177Q188 658 221 694T298 731Q316 731 331 726T365 714Q397 701 416 701Q428 701 437 709T449 733Z" horiz-adv-x="574" unicode="ũ"/>
			<glyph d="M132 698H316L222 250Q213 212 213 192Q213 162 231 144T280 126Q307 126 325 134T358 167T383 240L480 698H664L565 231Q540 112 465 50T267 -12Q154 -12 92 38T30 181Q30 224 41 272ZM276 875H584L564 777H256Z" horiz-adv-x="648" unicode="Ū"/>
			<glyph d="M87 521H267L200 204Q198 194 198 182Q198 160 208 147T236 134Q267 134 286 153T316 219L379 521H559L473 113Q457 37 455 0H286Q286 8 289 29T300 87H297Q232 -12 139 -12Q82 -12 44 24T7 116Q7 141 13 171ZM207 722H515L494 624H186Z" horiz-adv-x="574" unicode="ū"/>
			<glyph d="M132 698H316L222 250Q213 212 213 192Q213 162 231 144T280 126Q307 126 325 134T358 167T383 240L480 698H664L565 231Q540 112 465 50T267 -12Q154 -12 92 38T30 181Q30 224 41 272ZM279 893H363Q362 890 362 882Q362 863 376 851T412 839Q439 839 459 853T485 893H569Q555 822 510 784T399 747Q342 747 308 775T274 851Q274 865 279 893Z" horiz-adv-x="648" unicode="Ŭ"/>
			<glyph d="M87 521H267L200 204Q198 194 198 182Q198 160 208 147T236 134Q267 134 286 153T316 219L379 521H559L473 113Q457 37 455 0H286Q286 8 289 29T300 87H297Q232 -12 139 -12Q82 -12 44 24T7 116Q7 141 13 171ZM214 740H298Q297 737 297 730Q297 710 311 698T347 686Q376 686 395 700T420 740H504Q490 669 445 631T334 594Q277 594 243 621T209 698Q209 713 214 740Z" horiz-adv-x="574" unicode="ŭ"/>
			<glyph d="M132 698H316L222 250Q213 212 213 192Q213 162 231 144T280 126Q307 126 325 134T358 167T383 240L480 698H664L565 231Q540 112 465 50T267 -12Q154 -12 92 38T30 181Q30 224 41 272ZM441 959Q489 959 517 931T546 857Q546 822 526 790T475 739T406 721Q358 721 329 749T301 823Q301 859 320 890T372 940T441 959ZM436 903Q407 903 384 879T362 826Q362 805 375 791T411 777Q441 777 463 800T485 854Q485 876 471 889T436 903Z" horiz-adv-x="648" unicode="Ů"/>
			<glyph d="M87 521H267L200 204Q198 194 198 182Q198 160 208 147T236 134Q267 134 286 153T316 219L379 521H559L473 113Q457 37 455 0H286Q286 8 289 29T300 87H297Q232 -12 139 -12Q82 -12 44 24T7 116Q7 141 13 171ZM370 806Q418 806 446 778T475 704Q475 668 455 636T403 586T335 568Q287 568 258 595T230 670Q230 705 249 736T301 787T370 806ZM365 750Q336 750 313 727T291 673Q291 651 304 637T340 624Q370 624 392 647T414 701Q414 723 401 736T365 750Z" horiz-adv-x="574" unicode="ů"/>
			<glyph d="M132 698H316L222 250Q213 212 213 192Q213 162 231 144T280 126Q307 126 325 134T358 167T383 240L480 698H664L565 231Q540 112 465 50T267 -12Q154 -12 92 38T30 181Q30 224 41 272ZM313 893H465L340 747H240ZM513 893H665L540 747H440Z" horiz-adv-x="648" unicode="Ű"/>
			<glyph d="M87 521H267L200 204Q198 194 198 182Q198 160 208 147T236 134Q267 134 286 153T316 219L379 521H559L473 113Q457 37 455 0H286Q286 8 289 29T300 87H297Q232 -12 139 -12Q82 -12 44 24T7 116Q7 141 13 171ZM248 740H400L275 594H175ZM448 740H600L475 594H375Z" horiz-adv-x="574" unicode="ű"/>
			<glyph d="M132 698H316L226 271Q220 241 216 222T213 192Q213 162 231 144T280 126Q309 126 327 134T359 168T383 242L480 698H664L564 229Q541 120 475 60T304 -10Q257 -52 242 -77T228 -125Q228 -144 240 -156T275 -169Q300 -169 313 -164L318 -208Q278 -222 233 -222Q191 -222 167 -202T144 -151Q144 -120 163 -91T216 -36L250 -11Q142 -7 86 43T30 181Q30 224 41 272Z" horiz-adv-x="648" unicode="Ų"/>
			<glyph d="M87 521H267L202 213Q198 197 198 182Q198 160 208 147T236 134Q268 134 287 152T316 218L379 521H559L473 114Q457 38 455 0H410Q362 -45 343 -71T324 -125Q324 -144 336 -156T371 -169Q394 -169 409 -164L414 -208Q374 -222 330 -222Q287 -222 263 -202T240 -151Q240 -114 267 -79T362 0H286Q288 29 300 87H297Q232 -12 139 -12Q82 -12 44 24T7 116Q7 141 13 171Z" horiz-adv-x="574" unicode="ų"/>
			<glyph d="M77 698H249L224 208H226L398 698H616L593 208H595L771 698H935L663 0H441L477 538H475L290 0H71ZM456 893H624L662 747H553L530 831L473 747H354Z" horiz-adv-x="870" unicode="Ŵ"/>
			<glyph d="M39 521H220L213 160H215L353 521H559L548 160H550L686 521H860L615 0H421L422 371H420L271 0H73ZM404 740H572L610 594H501L478 678L421 594H302Z" horiz-adv-x="833" unicode="ŵ"/>
			<glyph d="M71 698H278L319 430H321L467 698H679L376 251L324 0H136L189 254ZM318 893H486L524 747H415L392 831L335 747H216Z" horiz-adv-x="610" unicode="Ŷ"/>
			<glyph d="M39 521H224L249 189H251L405 521H583L267 -60Q219 -150 164 -186T36 -222Q-19 -222 -60 -205L-27 -75Q-3 -84 19 -84Q57 -84 85 -62T122 0ZM276 740H444L482 594H373L350 678L293 594H174Z" unicode="ŷ"/>
			<glyph d="M71 698H278L319 430H321L467 698H679L376 251L324 0H136L189 254ZM258 887H384L356 753H230ZM436 887H562L534 753H408Z" horiz-adv-x="610" unicode="Ÿ"/>
			<glyph d="M109 698H576L547 549L190 138H463L434 0H-42L-12 156L335 560H80ZM353 893H509L386 747H282Z" horiz-adv-x="537" unicode="Ź"/>
			<glyph d="M70 521H444L415 376L178 134H370L342 0H-44L-14 151L225 387H42ZM276 740H432L309 594H205Z" horiz-adv-x="444" unicode="ź"/>
			<glyph d="M109 698H576L547 549L190 138H463L434 0H-42L-12 156L335 560H80ZM314 887H440L412 753H286Z" horiz-adv-x="537" unicode="Ż"/>
			<glyph d="M70 521H444L415 376L178 134H370L342 0H-44L-14 151L225 387H42ZM238 734H364L335 600H209Z" horiz-adv-x="444" unicode="ż"/>
			<glyph d="M109 698H576L547 549L190 138H463L434 0H-42L-12 156L335 560H80ZM225 893H334L357 809L414 893H533L431 747H263Z" horiz-adv-x="537" unicode="Ž"/>
			<glyph d="M70 521H444L415 376L178 134H370L342 0H-44L-14 151L225 387H42ZM150 740H259L282 656L339 740H458L356 594H188Z" horiz-adv-x="444" unicode="ž"/>
			<glyph d="M406 710Q439 710 463 705T520 690L498 578Q484 587 473 589T447 592Q408 592 395 533L370 415H452V289H342L275 -22Q253 -125 206 -173T83 -222Q18 -222 -34 -197L-13 -85Q4 -93 16 -96T44 -100Q71 -100 83 -77T106 -4L168 289H85V415H196L216 503Q231 570 251 614T309 684T406 710Z" horiz-adv-x="520" unicode="ƒ"/>
			<glyph d="M362 710Q451 710 531 682L496 545Q466 562 431 571T363 580Q316 580 287 562T259 515Q259 484 281 461T354 411Q441 362 464 321T488 229Q488 114 407 51T177 -12Q91 -12 -6 15L37 168Q69 148 107 137T183 126Q243 126 268 143T294 199Q294 227 270 249T185 306Q130 337 100 380T71 477Q71 586 148 648T362 710ZM131 -72H288L194 -234H67Z" unicode="Ș"/>
			<glyph d="M263 533Q333 533 412 509L381 379Q356 394 322 402T255 411Q227 411 209 400T192 373Q192 355 206 344T249 320T293 299Q341 275 360 243T380 170Q380 83 317 35T138 -12Q95 -12 44 -4T-26 12L8 151Q40 131 72 122T140 114Q181 114 196 122T212 151Q212 166 192 180T126 216Q75 239 52 273T29 353Q29 437 91 485T263 533ZM71 -72H228L134 -234H7Z" horiz-adv-x="444" unicode="ș"/>
			<glyph d="M89 698H577L547 556H397L279 0H91L209 556H59ZM99 -72H256L162 -234H35Z" horiz-adv-x="518" unicode="Ț"/>
			<glyph d="M354 687L318 521H419L393 399H292L245 176Q242 163 242 151Q242 134 254 124T286 114Q308 114 334 122L314 0Q266 -12 201 -12Q133 -12 94 21T55 112Q55 134 59 151L112 399H23L49 521H138L162 631ZM84 -72H241L147 -234H20Z" horiz-adv-x="407" unicode="ț"/>
			<glyph d="M94 521H274L159 -24Q136 -131 84 -176T-60 -222Q-115 -222 -147 -209L-116 -91Q-97 -96 -80 -96Q-57 -96 -43 -78T-21 -25Z" horiz-adv-x="296" unicode="ȷ"/>
			<glyph d="M116 740H284L322 594H213L190 678L133 594H14Z" horiz-adv-x="242" unicode="ˆ"/>
			<glyph d="M45 740H154L177 656L234 740H353L251 594H83Z" horiz-adv-x="242" unicode="ˇ"/>
			<glyph d="M41 722H349L328 624H20Z" horiz-adv-x="242" unicode="ˉ"/>
			<glyph d="M54 740H138Q137 737 137 730Q137 710 151 698T187 686Q216 686 235 700T260 740H344Q330 669 285 631T174 594Q117 594 83 621T49 698Q49 713 54 740Z" horiz-adv-x="242" unicode="˘"/>
			<glyph d="M135 734H261L232 600H106Z" horiz-adv-x="242" unicode="˙"/>
			<glyph d="M205 806Q253 806 281 778T310 704Q310 668 290 636T238 586T170 568Q122 568 93 595T65 670Q65 705 84 736T136 787T205 806ZM200 750Q171 750 148 727T126 673Q126 651 139 637T175 624Q205 624 227 647T249 701Q249 723 236 736T200 750Z" horiz-adv-x="242" unicode="˚"/>
			<glyph d="M123 6H169Q118 -40 97 -68T76 -125Q76 -144 88 -156T123 -169Q146 -169 161 -164L166 -208Q124 -222 82 -222Q40 -222 16 -202T-8 -151Q-8 -113 21 -77T123 6Z" horiz-adv-x="242" unicode="˛"/>
			<glyph d="M279 733H359Q346 673 313 637T238 602Q224 602 211 605T173 618Q168 620 152 626T122 632Q109 632 99 623T87 600H7Q18 658 51 694T128 731Q146 731 161 726T195 714Q227 701 246 701Q258 701 267 709T279 733Z" horiz-adv-x="242" unicode="˜"/>
			<glyph d="M64 740H216L91 594H-9ZM264 740H416L291 594H191Z" horiz-adv-x="242" unicode="˝"/>
			<glyph d="M297 698H522L611 0H-35ZM388 546L215 143H423L390 546Z" horiz-adv-x="661" unicode="Δ"/>
			<glyph d="M398 712Q480 712 540 681T634 592T667 455Q667 361 624 277T499 140H634L609 0H333L358 147Q420 204 451 275T483 426Q483 578 383 578Q335 578 300 540T250 446T234 331Q234 282 243 236T274 146L248 0H-16L9 140H126Q62 234 62 346Q62 455 101 537T215 666T398 712Z" horiz-adv-x="678" unicode="Ω"/>
			<glyph d="M105 522H277L232 253Q224 202 224 182Q224 156 233 141T269 127Q302 127 323 169T359 294L399 522H576L514 182Q509 155 509 146Q509 123 531 123Q547 123 559 127L541 3Q504 -6 453 -6Q398 -6 368 14T339 72H337Q316 31 289 10T224 -11Q207 -11 192 -6T169 8H166Q157 -90 137 -210H-25Z" horiz-adv-x="600" unicode="μ"/>
			<glyph d="M61 522H615L592 391H543L504 176Q501 160 501 147Q501 132 507 125T528 119Q541 119 558 123L537 0Q517 -4 500 -6T463 -9Q386 -9 354 21T322 119Q322 155 329 196L364 391H275L206 0H27L96 391H39Z" horiz-adv-x="600" unicode="π"/>
			<glyph d="M460 710Q569 710 691 694L661 555Q617 552 578 529T540 471Q540 456 551 437T586 387L602 366Q655 295 655 227Q655 110 580 49T383 -12Q308 -12 235 10L278 163Q293 150 323 138T379 126Q411 126 433 142T455 187Q455 210 445 229T406 288Q376 329 364 359T352 424Q352 476 387 515T488 577Q479 578 462 579T426 580Q360 580 322 541T269 431L178 0H-10L82 437Q105 544 151 603T272 686T460 710Z" horiz-adv-x="718" unicode="ẞ"/>
			<glyph d="M40 359H298L268 221H10Z" horiz-adv-x="334" unicode="‐"/>
			<glyph d="M0 351H500L474 229H-26Z" horiz-adv-x="500" unicode="–"/>
			<glyph d="M0 351H1000L974 229H-26Z" horiz-adv-x="1000" unicode="—"/>
			<glyph d="M182 750H308L220 480H64Z" horiz-adv-x="260" unicode="‘"/>
			<glyph d="M148 750H304L186 480H60Z" horiz-adv-x="260" unicode="’"/>
			<glyph d="M29 160H185L67 -110H-59Z" horiz-adv-x="260" unicode="‚"/>
			<glyph d="M218 750H344L256 480H100ZM424 750H550L462 480H306Z" horiz-adv-x="536" unicode="“"/>
			<glyph d="M187 750H343L225 480H99ZM393 750H549L431 480H305Z" horiz-adv-x="536" unicode="”"/>
			<glyph d="M62 160H218L100 -110H-26ZM268 160H424L306 -110H180Z" horiz-adv-x="536" unicode="„"/>
			<glyph d="M259 698H409L372 526H513L486 396H345L261 0H111L195 396H53L80 526H222Z" horiz-adv-x="519" unicode="†"/>
			<glyph d="M260 698H406L377 564H524L498 438H351L313 260H460L433 134H286L258 0H112L140 134H-6L21 260H167L205 438H59L85 564H231Z" horiz-adv-x="519" unicode="‡"/>
			<glyph d="M269 523Q312 523 348 502T405 446T426 367Q426 317 398 272T326 201T230 174Q186 174 150 195T95 251T75 331Q75 381 102 425T175 496T269 523Z" horiz-adv-x="500" unicode="•"/>
			<glyph d="M47 160H207L173 0H13ZM380 160H540L506 0H346ZM713 160H873L839 0H679Z" horiz-adv-x="1000" unicode="…"/>
			<glyph d="M521 732H595L154 -34H80ZM234 710Q278 710 308 677T339 590Q339 527 318 466T259 367T168 328Q121 328 91 361T62 450Q62 509 81 569T140 670T234 710ZM222 627Q208 627 191 598T165 528T155 454Q155 411 179 411Q195 411 210 439T235 508T245 584Q245 627 222 627ZM505 370Q549 370 579 337T610 250Q610 187 589 126T530 27T439 -12Q392 -12 362 21T333 110Q333 169 352 229T411 330T505 370ZM797 370Q841 370 871 337T902 250Q902 187 881 126T822 27T731 -12Q684 -12 654 21T625 110Q625 169 644 229T703 330T797 370ZM493 287Q477 287 461 258T436 188T426 114Q426 71 450 71Q466 71 481 99T506 168T516 244Q516 287 493 287ZM785 287Q769 287 753 258T728 188T718 114Q718 71 742 71Q758 71 773 99T798 168T808 244Q808 287 785 287Z" horiz-adv-x="963" unicode="‰"/>
			<glyph d="M153 466H298L159 259L207 54H72L15 263Z" horiz-adv-x="333" unicode="‹"/>
			<glyph d="M88 466H223L280 257L142 54H-3L136 261Z" horiz-adv-x="333" unicode="›"/>
			<glyph d="M259 732H352L-92 -34H-185Z" horiz-adv-x="167" unicode="⁄"/>
			<glyph d="M437 710Q481 710 508 705T567 686L511 551Q492 563 473 568T431 574Q376 574 333 545T266 460H480L451 385H244Q235 337 234 316H432L407 241H237Q254 128 361 128Q400 128 449 149V9Q396 -12 342 -12Q220 -12 149 54T70 241H-14L15 316H70L81 385H8L36 460H98Q138 579 227 644T437 710Z" horiz-adv-x="520" unicode="€"/>
			<glyph d="M124 698H580L561 608H414Q432 584 432 542H547L528 452H418Q381 299 211 299L374 0H180L36 292L56 386H129Q224 386 250 452H70L89 542H265Q264 608 185 608H105Z" horiz-adv-x="520" unicode="₹"/>
			<glyph d="M159 698H339L322 617L465 683L443 578L299 512L284 439L427 505L404 400L261 334L216 118Q257 118 280 144T316 210T346 335H513Q492 215 458 141T359 27T186 -12Q106 -12 11 0L61 244L-15 210L8 315L85 349L100 422L24 388L46 493L122 527Z" horiz-adv-x="520" unicode="₺"/>
			<glyph d="M382 698H554L529 581Q635 560 680 474T726 262Q726 173 704 63L691 0H513L522 38Q562 210 562 295Q562 362 550 400T501 451L420 70H245L329 451Q272 431 233 360T173 216T131 38L123 0H-55L-42 63Q0 268 99 412T357 581Z" horiz-adv-x="770" unicode="₼"/>
			<glyph d="M149 698H323Q429 698 483 651T538 526Q538 449 506 391T417 303T283 272H238L227 219H366L346 121H206L181 0H1L26 121H-40L-20 219H47L58 272H-8L12 370H79ZM301 568L259 370H282Q323 370 348 407T373 505Q373 536 358 552T318 568Z" horiz-adv-x="520" unicode="₽"/>
			<glyph d="M369 721Q431 721 470 683T509 585Q509 502 444 424T246 264L231 205Q222 172 220 140Q220 120 231 109T260 99Q296 99 358 139L397 48Q349 16 305 1T212 -14Q144 -14 104 20T64 111Q64 120 67 137T71 163L12 121L-30 209L98 292L146 520Q166 614 225 667T369 721ZM352 619Q336 619 325 602T306 546L274 398Q324 439 352 487T380 579Q380 596 372 607T352 619Z" horiz-adv-x="500" unicode="ℓ"/>
			<glyph d="M109 698H453L434 608H317L247 282H137L207 608H90ZM549 698H704L741 448L878 698H1039L950 282H840L899 556H897L750 282H662L631 556H629L570 282H460Z" horiz-adv-x="1000" unicode="™"/>
			<glyph d="M398 712Q480 712 540 681T634 592T667 455Q667 361 624 277T499 140H634L609 0H333L358 147Q420 204 451 275T483 426Q483 578 383 578Q335 578 300 540T250 446T234 331Q234 282 243 236T274 146L248 0H-16L9 140H126Q62 234 62 346Q62 455 101 537T215 666T398 712Z" horiz-adv-x="678" unicode="Ω"/>
			<glyph d="M292 535Q366 535 424 501T516 405T551 259H147V78Q206 19 292 19Q355 19 401 47T485 139L520 118Q475 45 422 14T292 -17Q217 -17 158 19T66 118T34 259Q34 338 66 400T157 499T292 535ZM290 500Q207 500 147 440V295H438V440Q375 500 290 500Z" horiz-adv-x="600" unicode="℮"/>
			<glyph d="M266 721Q401 721 472 623T544 357Q544 178 477 82T283 -14Q212 -14 158 16T74 99T44 222Q44 286 73 338T153 421T268 451Q304 451 333 441T394 409Q393 503 361 554T270 606Q237 606 210 593T150 549L69 640Q118 683 164 702T266 721ZM292 339Q247 339 218 304T189 215Q189 164 215 130T283 97Q335 97 362 146T391 294Q370 315 344 327T292 339Z" horiz-adv-x="588" unicode="∂"/>
			<glyph d="M297 698H522L611 0H-35ZM388 546L215 143H423L390 546Z" horiz-adv-x="661" unicode="∆"/>
			<glyph d="M49 786H708V-214H556V637H202V-214H49Z" horiz-adv-x="757" unicode="∏"/>
			<glyph d="M41 786H656V636H243L496 293L227 -64H668V-214H29V-84L318 293L41 655Z" horiz-adv-x="698" unicode="∑"/>
			<glyph d="M27 316H533V190H27Z" horiz-adv-x="600" unicode="−"/>
			<glyph d="M259 732H352L-92 -34H-185Z" horiz-adv-x="167" unicode="∕"/>
			<glyph d="M121 357Q156 357 180 333T205 275Q205 233 174 203T102 173Q66 173 42 196T19 254Q19 296 50 326T121 357Z" horiz-adv-x="260" unicode="∙"/>
			<glyph d="M448 786H609L385 -214H248L106 76L49 49L-7 167L186 255L292 19Z" horiz-adv-x="603" unicode="√"/>
			<glyph d="M234 485Q289 485 335 457T430 360Q475 426 521 455T627 485Q686 485 731 458T801 384T826 274Q826 211 801 162T730 85T626 58Q572 58 525 85T430 175Q382 113 337 86T239 59Q178 59 131 86T60 162T35 274Q35 369 89 427T234 485ZM234 352Q202 352 182 328T162 271Q162 236 183 214T237 192Q267 192 295 211T353 269Q293 352 234 352ZM622 352Q595 352 567 332T507 269Q534 232 564 211T625 191Q658 191 678 213T698 272Q698 308 677 330T622 352Z" horiz-adv-x="881" unicode="∞"/>
			<glyph d="M422 785Q481 785 521 758T561 688Q561 657 540 637T490 617Q449 617 435 648Q429 662 423 697Q418 720 403 720Q394 720 389 711T384 678Q384 646 388 583T392 499L393 187V68Q393 -82 344 -148T201 -214Q144 -214 103 -187T63 -113Q63 -83 82 -64T132 -46Q160 -46 175 -60T196 -106Q200 -131 204 -140T218 -149Q228 -149 233 -140T238 -107Q238 -79 234 -25T230 48V474Q230 563 242 628T297 739T422 785Z" horiz-adv-x="657" unicode="∫"/>
			<glyph d="M149 501Q171 501 200 494T287 470Q347 451 366 446T402 441Q427 441 440 453T458 497H558Q551 399 509 342T404 285Q362 285 272 316Q181 346 146 346Q123 346 109 330T93 292H-5Q-3 346 18 394T74 472T149 501ZM149 256Q171 256 200 249T287 225Q347 206 366 201T402 196Q427 196 440 208T458 252H558Q551 154 509 97T404 40Q362 40 272 71Q181 101 146 101Q123 101 109 85T93 47H-5Q-3 101 18 149T74 227T149 256Z" horiz-adv-x="593" unicode="≈"/>
			<glyph d="M446 589L533 543L461 431H543V305H381L315 201H543V75H235L138 -77L50 -31L117 75H37V201H198L264 305H37V431H345Z" horiz-adv-x="593" unicode="≠"/>
			<glyph d="M568 592V437L236 365L568 281V125L25 290V440ZM25 101H568V-51H25Z" horiz-adv-x="593" unicode="≤"/>
			<glyph d="M25 592L568 440V290L25 125V281L356 365L25 437ZM25 101H568V-51H25Z" horiz-adv-x="593" unicode="≥"/>
			<glyph d="M228 747H364L558 356L364 -35H226L35 356ZM296 592L190 356L296 119L401 355Z" horiz-adv-x="593" unicode="◊"/>
			<glyph d="M130 893H281L313 747H214Z" horiz-adv-x="314" unicode=""/>
			<glyph d="M239 893H395L272 747H168Z" horiz-adv-x="314" unicode=""/>
			<glyph d="M184 893H352L390 747H281L258 831L201 747H82Z" horiz-adv-x="314" unicode=""/>
			<glyph d="M114 893H223L246 809L303 893H422L320 747H152Z" horiz-adv-x="314" unicode=""/>
			<glyph d="M348 886H428Q415 826 382 790T307 755Q293 755 280 758T242 771Q237 773 221 779T191 785Q178 785 168 776T156 753H76Q87 811 120 847T197 884Q213 884 228 880T264 867Q296 854 315 854Q327 854 336 862T348 886Z" horiz-adv-x="242" unicode=""/>
			<glyph d="M114 887H240L212 753H86ZM292 887H418L390 753H264Z" horiz-adv-x="314" unicode=""/>
			<glyph d="M109 875H417L397 777H89Z" horiz-adv-x="314" unicode=""/>
			<glyph d="M122 893H206Q205 890 205 882Q205 863 219 851T255 839Q282 839 302 853T328 893H412Q398 822 353 784T242 747Q185 747 151 775T117 851Q117 865 122 893Z" horiz-adv-x="314" unicode=""/>
			<glyph d="M276 959Q324 959 352 931T381 857Q381 822 361 790T310 739T241 721Q193 721 164 749T136 823Q136 859 155 890T207 940T276 959ZM271 903Q242 903 219 879T197 826Q197 805 210 791T246 777Q276 777 298 800T320 854Q320 876 306 889T271 903Z" horiz-adv-x="314" unicode=""/>
			<glyph d="M132 893H284L159 747H59ZM332 893H484L359 747H259Z" horiz-adv-x="314" unicode=""/>
			<glyph d="M203 887H329L301 753H175Z" horiz-adv-x="314" unicode=""/>
			<glyph d="M104 740H232L149 558H59Z" horiz-adv-x="296" unicode=""/>
			<glyph d="M2 -72H159L65 -234H-62Z" horiz-adv-x="296" unicode=""/>
			<glyph d="M193 740H316L259 594H109Z" horiz-adv-x="296" unicode=""/>
			<glyph d="M0 718H512V0H0ZM50 667V50H462V667ZM259 609Q313 609 348 573T383 478Q383 444 369 416T319 357Q289 330 280 311T271 258V234H225V259Q225 305 236 330T287 396Q312 421 322 436T332 474Q332 509 309 534T256 559Q222 559 201 535T174 464L124 472Q130 539 165 574T259 609ZM222 184H278V117H222Z" horiz-adv-x="512" unicode=""/>
			<glyph d="M357 762Q416 762 477 748L446 621Q423 632 394 632Q366 632 350 619T330 580L318 521H416L390 399H292L208 0H28L112 399H20L46 521H138L156 605Q172 681 222 721T357 762ZM512 750H692L660 600H480ZM467 521H647L537 0H357Z" horiz-adv-x="667" unicode="ﬁ"/>
			<glyph d="M357 762Q416 762 477 748L446 621Q423 632 394 632Q366 632 350 619T330 580L318 521H416L390 399H292L208 0H28L112 399H20L46 521H138L156 605Q172 681 222 721T357 762ZM514 750H694L535 0H355Z" horiz-adv-x="667" unicode="ﬂ"/>
		</font>
</defs>
</svg>
