<svg xmlns="http://www.w3.org/2000/svg" viewBox="0 0 86.07 56.91"><defs><style>.cls-1{fill:#ca9f00;}.cls-2{fill:none;stroke:#fff;stroke-linecap:round;stroke-linejoin:round;stroke-width:1.5px;}.cls-3{fill:#c2141c;}.cls-4{fill:#ce601b;}.cls-5{fill:#df9d1d;}.cls-6{fill:#fff;}</style></defs><title>gold-master</title><g id="Capa_2" data-name="Capa 2"><g id="Capa_1-2" data-name="Capa 1"><path id="Stroke-519" class="cls-1" d="M78.58,56.91H7.48A7.53,7.53,0,0,1,0,49.33V7.59A7.54,7.54,0,0,1,7.48,0h71.1a7.54,7.54,0,0,1,7.49,7.59V49.33a7.53,7.53,0,0,1-7.49,7.58Z"/><path id="Stroke-520" class="cls-2" d="M11.11,36.09H25"/><path id="Stroke-521" class="cls-2" d="M11.11,45.81H44.42"/><path id="Stroke-523" class="cls-2" d="M11.11,26.37h6.94"/><path id="Stroke-524" class="cls-2" d="M26.38,26.37h6.94"/><path id="Stroke-525" class="cls-2" d="M41.64,26.37h7"/><path class="cls-3" d="M67.74,42.46a5.26,5.26,0,0,1,2-4.14,5.28,5.28,0,1,0,0,8.28A5.28,5.28,0,0,1,67.74,42.46Z"/><ellipse class="cls-4" cx="69.75" cy="42.46" rx="2.01" ry="4.14"/><path class="cls-5" d="M78,45.32v-.16h-.06v0h.17v0H78v.16Zm.33,0v-.14l0,.12h0l0-.12v.14H78.1v-.2h.07l0,.13,0-.13h.07v.2Z"/><path class="cls-5" d="M73,37.17a5.23,5.23,0,0,0-3.28,1.15,5.27,5.27,0,0,1,0,8.28,5.28,5.28,0,0,0,8.56-4.14A5.28,5.28,0,0,0,73,37.17Z"/><g id="Symbols"><g id="Head"><g id="Scotiabank_Logo" data-name="Scotiabank Logo"><g id="Shape"><path class="cls-6" d="M25,14.4a1.52,1.52,0,0,1-1.63-1.57,1.63,1.63,0,0,1,3.26,0A1.52,1.52,0,0,1,25,14.4Zm.11-.9c.42,0,.65-.35.65-.78s-.23-.78-.65-.78-.65.35-.65.78S24.73,13.5,25.15,13.5Z"/><path class="cls-6" d="M34.48,14.33V10.15h1v1.43h0a1.54,1.54,0,0,1,.88-.28,1.4,1.4,0,0,1,1.36,1.5,1.41,1.41,0,0,1-1.38,1.6,1.22,1.22,0,0,1-.9-.34h0l0,.27Zm2.39-1.39a.66.66,0,1,0-1.3,0c0,.46.23.78.65.78S36.87,13.42,36.87,12.94Z"/><path class="cls-6" d="M29.27,11.26h1.09v2.91H29.27Zm.54-1.34a.56.56,0,0,0-.54.56.55.55,0,1,0,1.09,0A.56.56,0,0,0,29.81,9.92Z"/><path class="cls-6" d="M41.87,14.16h1V12.71a.53.53,0,0,1,.53-.58.52.52,0,0,1,.54.58v1.46h1V12.46a1.14,1.14,0,0,0-1.2-1.2,1.27,1.27,0,0,0-.92.39h0v-.31h-.88v2.82Z"/><polygon class="cls-6" points="45.55 14.17 46.55 14.17 46.55 12.85 46.56 12.85 47.46 14.17 48.59 14.17 47.49 12.66 48.56 11.31 47.43 11.31 46.56 12.49 46.55 12.49 46.55 10.15 45.55 10.15 45.55 14.17"/><path class="cls-6" d="M23,11.39a2,2,0,0,0-.68-.13,1.46,1.46,0,0,0-1.49,1.57,1.45,1.45,0,0,0,1.46,1.57,2.32,2.32,0,0,0,.71-.13l-.05-.87a1,1,0,0,1-.48.15.72.72,0,0,1,0-1.44,1,1,0,0,1,.47.15Z"/><path class="cls-6" d="M34.05,11.33v3h-1V14h0a1.19,1.19,0,0,1-1,.37,1.44,1.44,0,0,1-1.3-1.57,1.43,1.43,0,0,1,1.36-1.57,1.08,1.08,0,0,1,.88.35h0v-.27h1Zm-2.17,1.58c0,.5.28.81.64.81a.71.71,0,0,0,.66-.77.71.71,0,0,0-.66-.79A.7.7,0,0,0,31.88,12.91Z"/><path class="cls-6" d="M41.42,11.33v3h-1V14h0a1.14,1.14,0,0,1-1,.37,1.43,1.43,0,0,1-1.3-1.57,1.43,1.43,0,0,1,1.36-1.57,1.08,1.08,0,0,1,.88.35h0v-.27h1Zm-2.17,1.58c0,.5.29.81.65.81a.72.72,0,0,0,.66-.77.71.71,0,0,0-.66-.79A.7.7,0,0,0,39.25,12.91Z"/><path class="cls-6" d="M17.59,14.24a4.11,4.11,0,0,0,1.12.16c.84,0,1.67-.31,1.67-1.26,0-1.3-1.74-1.13-1.74-1.64,0-.27.27-.32.53-.32a2.84,2.84,0,0,1,.92.22l.08-.9a3.5,3.5,0,0,0-1-.13c-.82,0-1.63.33-1.63,1.18,0,1.27,1.73,1,1.73,1.68,0,.26-.25.36-.57.36a2.51,2.51,0,0,1-1-.31Z"/><path class="cls-6" d="M28.84,13.34a1.59,1.59,0,0,1-.28.05.4.4,0,0,1-.43-.44V12h.63v-.72h-.63v-.91h-1v.91h-.44V12h.44v1.11a.94.94,0,0,0,1,1.06,2,2,0,0,0,.55-.06Z"/></g><path id="Shape-2" data-name="Shape" class="cls-6" d="M9.71,12.05a2.33,2.33,0,0,1-.28-1.21A2.44,2.44,0,0,1,11.8,8.52h3.8L14.13,10H11.77A2.19,2.19,0,0,0,9.71,12.05Zm1.5-1.1a2,2,0,0,1,.64-.88,1.88,1.88,0,0,0-1.54.88Zm.76-.66a2.21,2.21,0,0,0-.56.66h1.1A2,2,0,0,0,12,10.29Zm-1.89.88a2.37,2.37,0,0,0-.21.88h1a2.84,2.84,0,0,1,.13-.88Zm1.2,0a4,4,0,0,0-.16.88h1.61a3.61,3.61,0,0,0-.16-.88ZM13.62,11a1.87,1.87,0,0,0-1.55-.88,2.27,2.27,0,0,1,.66.88Zm-.89.22a2.8,2.8,0,0,1,.14.88h1a2.24,2.24,0,0,0-.22-.88ZM10,13.28a2.06,2.06,0,0,0,1.68.88,2.1,2.1,0,0,1-.7-.88Zm1.81.66a2.46,2.46,0,0,0,.59-.66h-1.2A2.39,2.39,0,0,0,11.82,13.94ZM11,13.15a3.08,3.08,0,0,1-.13-.88h-1a2.7,2.7,0,0,0,.21.88Zm1.6,0a3.19,3.19,0,0,0,.16-.88H11.12a5.06,5.06,0,0,0,.16.88Zm.08.13a2.4,2.4,0,0,1-.72.88,2,2,0,0,0,1.69-.88Zm1-.13a2.24,2.24,0,0,0,.22-.88h-1a3.21,3.21,0,0,1-.14.88Zm.58-.88a2.24,2.24,0,0,1-2,2.25H9.8L8.33,16h3.79a2.49,2.49,0,0,0,2.38-2.43,2.53,2.53,0,0,0-.29-1.29v0Z"/></g></g></g></g></g></svg>