<svg xmlns="http://www.w3.org/2000/svg" viewBox="0 0 85 56.21"><defs><style>.cls-1{fill:#c5c8d6;}.cls-2{fill:#005397;}.cls-3{fill:#e1a800;}.cls-4{fill:none;stroke:#c1272d;stroke-linecap:round;stroke-linejoin:round;stroke-width:2.06px;}.cls-5{fill:#c1272d;}.cls-6{fill:#fff;}</style></defs><title>Scotia-light</title><g id="Layer_2" data-name="Layer 2"><g id="Capa_1" data-name="Capa 1"><path id="Stroke-519" class="cls-1" d="M77.61,56.21H7.39A7.44,7.44,0,0,1,0,48.72V7.49A7.44,7.44,0,0,1,7.39,0H77.61A7.44,7.44,0,0,1,85,7.49V48.72a7.44,7.44,0,0,1-7.39,7.49Z"/><polygon class="cls-2" points="62.27 47.87 63.51 40.59 65.5 40.59 64.26 47.87 62.27 47.87"/><path class="cls-2" d="M71.45,40.77a5.08,5.08,0,0,0-1.78-.3c-2,0-3.34,1-3.35,2.4,0,1,1,1.63,1.74,2s1,.58,1,.9c0,.49-.62.71-1.19.71A4.2,4.2,0,0,1,66,46.08L65.78,46l-.28,1.63a6.35,6.35,0,0,0,2.21.39c2.08,0,3.44-1,3.45-2.49,0-.83-.52-1.46-1.66-2-.7-.33-1.12-.56-1.12-.9s.36-.62,1.14-.62a3.65,3.65,0,0,1,1.49.28l.17.08.27-1.58"/><path class="cls-2" d="M76.54,40.6H75a1,1,0,0,0-1,.6l-3,6.67H73.1l.42-1.09h2.54c.06.26.24,1.09.24,1.09h1.85L76.54,40.6m-2.45,4.69c.17-.42.79-2,.79-2s.17-.43.27-.7l.13.63.46,2.1Z"/><path class="cls-2" d="M60.61,40.6l-1.94,5-.21-1a5.68,5.68,0,0,0-2.75-3l1.78,6.37h2.1l3.12-7.26h-2.1"/><path class="cls-3" d="M56.86,40.59H53.67l0,.15a6.58,6.58,0,0,1,4.82,3.81l-.7-3.34a.83.83,0,0,0-.9-.62"/><path id="Stroke-520" class="cls-4" d="M11,37.65H24.68"/><path id="Stroke-521" class="cls-4" d="M11,47.24h32.9"/><path id="Stroke-523" class="cls-4" d="M11,28.05h6.85"/><path id="Stroke-524" class="cls-4" d="M26.05,28.05H32.9"/><path id="Stroke-525" class="cls-4" d="M41.13,28.05H48"/><rect class="cls-5" y="9.19" width="85" height="13"/><g id="Symbols"><g id="Head"><g id="Scotiabank_Logo" data-name="Scotiabank Logo"><g id="Shape"><path class="cls-6" d="M24.73,17.79a1.55,1.55,0,1,1,1.61-1.55A1.5,1.5,0,0,1,24.73,17.79Zm.11-.88c.41,0,.64-.35.64-.77s-.23-.78-.64-.78-.64.35-.64.78S24.43,16.91,24.84,16.91Z"/><path class="cls-6" d="M34.05,17.73V13.59h1V15h0a1.53,1.53,0,0,1,.87-.28,1.38,1.38,0,0,1,1.34,1.48,1.39,1.39,0,0,1-1.36,1.58,1.22,1.22,0,0,1-.89-.33h0v.27Zm2.36-1.38a.65.65,0,1,0-1.28,0c0,.45.23.78.64.78S36.41,16.83,36.41,16.35Z"/><path class="cls-6" d="M28.91,14.7H30v2.87H28.91Zm.54-1.33a.55.55,0,0,0-.54.55.54.54,0,1,0,1.07,0A.54.54,0,0,0,29.45,13.37Z"/><path class="cls-6" d="M41.35,17.56h1V16.12a.52.52,0,0,1,.52-.56.5.5,0,0,1,.53.56v1.45h1v-1.7a1.12,1.12,0,0,0-1.19-1.17,1.3,1.3,0,0,0-.9.37h0v-.3h-.87v2.79Z"/><polygon class="cls-6" points="44.98 17.57 45.98 17.57 45.98 16.26 45.99 16.26 46.87 17.57 47.98 17.57 46.91 16.07 47.96 14.74 46.85 14.74 45.99 15.91 45.98 15.91 45.98 13.59 44.98 13.59 44.98 17.57"/><path class="cls-6" d="M22.69,14.82A2,2,0,0,0,22,14.7a1.43,1.43,0,0,0-1.48,1.54A1.43,1.43,0,0,0,22,17.79a1.89,1.89,0,0,0,.7-.13l0-.86a1,1,0,0,1-.48.15.71.71,0,0,1,0-1.42,1,1,0,0,1,.47.15Z"/><path class="cls-6" d="M33.62,14.76v3h-.95v-.3h0a1.16,1.16,0,0,1-.94.36,1.41,1.41,0,0,1-1.29-1.55,1.41,1.41,0,0,1,1.35-1.54,1.09,1.09,0,0,1,.86.33h0v-.26h1Zm-2.14,1.56c0,.49.28.81.64.81a.71.71,0,0,0,.65-.77.65.65,0,1,0-1.29,0Z"/><path class="cls-6" d="M40.91,14.76v3H40v-.3h0a1.14,1.14,0,0,1-.94.36,1.41,1.41,0,0,1-1.28-1.55A1.4,1.4,0,0,1,39,14.7a1.12,1.12,0,0,1,.87.33h0v-.26h1Zm-2.14,1.56c0,.49.28.81.63.81a.71.71,0,0,0,.65-.77.65.65,0,1,0-1.28,0Z"/><path class="cls-6" d="M17.37,17.63a3.73,3.73,0,0,0,1.11.16c.83,0,1.64-.3,1.64-1.24,0-1.28-1.71-1.11-1.71-1.62,0-.27.27-.32.52-.32a2.76,2.76,0,0,1,.91.22l.08-.88a3.06,3.06,0,0,0-1-.14c-.82,0-1.61.33-1.61,1.17,0,1.26,1.7,1,1.7,1.66,0,.25-.25.35-.56.35a2.42,2.42,0,0,1-1-.3Z"/><path class="cls-6" d="M28.48,16.75a1.55,1.55,0,0,1-.28,0,.38.38,0,0,1-.42-.43v-.94h.63v-.7h-.63v-.91h-1v.91h-.43v.7h.43v1.1a.93.93,0,0,0,1,1.05,2.63,2.63,0,0,0,.55-.06Z"/></g><path id="Shape-2" data-name="Shape" class="cls-6" d="M9.59,15.47a2.26,2.26,0,0,1-.28-1.19A2.4,2.4,0,0,1,11.65,12H15.4L14,13.4H11.63A2.16,2.16,0,0,0,9.59,15.47Zm1.48-1.09a1.94,1.94,0,0,1,.64-.87,1.89,1.89,0,0,0-1.53.87Zm.75-.65a2.27,2.27,0,0,0-.55.65h1.09A2.23,2.23,0,0,0,11.82,13.73ZM10,14.6a2.32,2.32,0,0,0-.21.87h.95a2.83,2.83,0,0,1,.14-.87Zm1.18,0a3.44,3.44,0,0,0-.15.87h1.59a5,5,0,0,0-.16-.87Zm2.31-.22a1.86,1.86,0,0,0-1.53-.87,2.19,2.19,0,0,1,.65.87Zm-.87.22a3,3,0,0,1,.13.87h.95a2.21,2.21,0,0,0-.2-.87Zm-2.7,2.08a2,2,0,0,0,1.67.87,2,2,0,0,1-.7-.87Zm1.79.66a2.32,2.32,0,0,0,.59-.66H11.07A2.23,2.23,0,0,0,11.67,17.34Zm-.83-.78a3,3,0,0,1-.14-.87H9.75a2.7,2.7,0,0,0,.21.87Zm1.58,0a3.61,3.61,0,0,0,.16-.87H11a4.28,4.28,0,0,0,.15.87Zm.07.12a2.18,2.18,0,0,1-.71.87,2,2,0,0,0,1.67-.87Zm1-.12a2.21,2.21,0,0,0,.2-.87h-.95a3.53,3.53,0,0,1-.13.87Zm.57-.87a2.22,2.22,0,0,1-2,2.22H9.68L8.23,19.39H12A2.46,2.46,0,0,0,14.32,17,2.57,2.57,0,0,0,14,15.71v0Z"/></g></g></g><path class="cls-6" d="M59.54,13.27h.63v4.32h2.07v.52h-2.7Z"/><path class="cls-6" d="M63.56,13.27v4.84h-.63V13.27Z"/><path class="cls-6" d="M68.34,17.89a4.29,4.29,0,0,1-1.49.27,2.28,2.28,0,0,1-2.49-2.44A2.43,2.43,0,0,1,67,13.22a3,3,0,0,1,1.2.22L68,14A2.43,2.43,0,0,0,67,13.74a1.81,1.81,0,0,0-2,1.95,1.77,1.77,0,0,0,1.87,2,2,2,0,0,0,.84-.13V16.07h-1v-.5h1.6Z"/><path class="cls-6" d="M69.91,13.27v2h2.35v-2h.63v4.84h-.63V15.84H69.91v2.27h-.62V13.27Z"/><path class="cls-6" d="M74.89,13.8H73.42v-.53H77v.53H75.52v4.31h-.63Z"/></g></g></svg>