<svg xmlns="http://www.w3.org/2000/svg" viewBox="0 0 86.07 56.91"><defs><style>.cls-1{fill:#333;}.cls-2{fill:#fff;}.cls-3{fill:#e1a800;}.cls-4{fill:none;stroke:#fff;stroke-linecap:round;stroke-linejoin:round;stroke-width:1.5px;}</style></defs><title>black-visa</title><g id="Capa_2" data-name="Capa 2"><g id="Capa_1-2" data-name="Capa 1"><path id="Stroke-519" class="cls-1" d="M78.58,56.91H7.48A7.53,7.53,0,0,1,0,49.33V7.59A7.54,7.54,0,0,1,7.48,0h71.1a7.54,7.54,0,0,1,7.49,7.59V49.33a7.53,7.53,0,0,1-7.49,7.58Z"/><polygon class="cls-2" points="63.05 46.45 64.31 39.08 66.32 39.08 65.06 46.45 63.05 46.45"/><path class="cls-2" d="M72.35,39.26a5.17,5.17,0,0,0-1.8-.31c-2,0-3.39,1-3.4,2.43,0,1.06,1,1.65,1.76,2s1,.59,1,.92c0,.49-.62.72-1.2.72a4.16,4.16,0,0,1-1.89-.39l-.26-.12-.28,1.65a6.28,6.28,0,0,0,2.24.4c2.11,0,3.48-1,3.5-2.52,0-.84-.53-1.48-1.69-2-.7-.35-1.13-.57-1.13-.92s.37-.63,1.15-.63a3.76,3.76,0,0,1,1.51.28l.18.09.27-1.6"/><path class="cls-2" d="M77.5,39.08H76a1,1,0,0,0-1.06.61l-3,6.76H74s.35-.91.42-1.11H77c.06.26.24,1.11.24,1.11h1.86L77.5,39.08M75,43.83c.17-.42.8-2.06.8-2.06s.17-.42.27-.7l.13.64.47,2.12Z"/><path class="cls-2" d="M61.37,39.08l-2,5-.21-1A5.72,5.72,0,0,0,56.41,40l1.8,6.45h2.12l3.17-7.36H61.37"/><path class="cls-3" d="M57.58,39.08H54.34l0,.15a6.63,6.63,0,0,1,4.88,3.86l-.7-3.39a.83.83,0,0,0-.91-.62"/><path id="Stroke-520" class="cls-4" d="M11.11,36.09H25"/><path id="Stroke-521" class="cls-4" d="M11.11,45.81H44.42"/><path id="Stroke-523" class="cls-4" d="M11.11,26.38h6.94"/><path id="Stroke-524" class="cls-4" d="M26.38,26.38h6.94"/><path id="Stroke-525" class="cls-4" d="M41.64,26.38h7"/><g id="Symbols"><g id="Head"><g id="Scotiabank_Logo" data-name="Scotiabank Logo"><g id="Shape"><path class="cls-2" d="M27.35,14.69a1.73,1.73,0,0,1-1.86-1.78,1.86,1.86,0,0,1,3.71,0A1.72,1.72,0,0,1,27.35,14.69Zm.12-1a.78.78,0,0,0,.74-.88c0-.5-.27-.9-.74-.9s-.74.4-.74.9S27,13.67,27.47,13.67Z"/><path class="cls-2" d="M38.09,14.62V9.85h1.14v1.64h0a1.76,1.76,0,0,1,1-.33,1.59,1.59,0,0,1,1.54,1.71,1.6,1.6,0,0,1-1.56,1.82,1.4,1.4,0,0,1-1-.39h0l0,.32ZM40.8,13a.79.79,0,0,0-.74-.89.8.8,0,0,0-.74.89c0,.52.27.89.74.89S40.8,13.58,40.8,13Z"/><path class="cls-2" d="M32.16,11.13H33.4v3.3H32.16Zm.62-1.53a.64.64,0,1,0,.62.64A.64.64,0,0,0,32.78,9.6Z"/><path class="cls-2" d="M46.5,14.42h1.11V12.77a.6.6,0,0,1,.6-.65.58.58,0,0,1,.62.65v1.66h1.11V12.48a1.3,1.3,0,0,0-1.37-1.35,1.48,1.48,0,0,0-1,.43h0v-.35h-1v3.21Z"/><polygon class="cls-2" points="50.68 14.43 51.82 14.43 51.82 12.93 51.84 12.93 52.86 14.43 54.14 14.43 52.9 12.71 54.11 11.18 52.83 11.18 51.84 12.52 51.82 12.52 51.82 9.85 50.68 9.85 50.68 14.43"/><path class="cls-2" d="M25,11.27a2.22,2.22,0,0,0-.77-.14,1.65,1.65,0,0,0-1.7,1.78,1.65,1.65,0,0,0,1.66,1.78,2.85,2.85,0,0,0,.81-.14l-.05-1a1.09,1.09,0,0,1-.55.18.77.77,0,0,1-.76-.82.76.76,0,0,1,.77-.82,1.21,1.21,0,0,1,.54.17Z"/><path class="cls-2" d="M37.59,11.2v3.42H36.5l0-.35h0a1.35,1.35,0,0,1-1.09.42,1.63,1.63,0,0,1-1.48-1.78,1.63,1.63,0,0,1,1.55-1.78,1.28,1.28,0,0,1,1,.38h0v-.3h1.11ZM35.12,13c0,.56.33.93.74.93a.82.82,0,0,0,.75-.89.76.76,0,1,0-1.49,0Z"/><path class="cls-2" d="M46,11.2v3.42h-1.1v-.35h0a1.3,1.3,0,0,1-1.08.42,1.63,1.63,0,0,1-1.48-1.78,1.62,1.62,0,0,1,1.55-1.78,1.28,1.28,0,0,1,1,.38h0l0-.3H46ZM43.52,13c0,.56.32.93.73.93A.82.82,0,0,0,45,13a.81.81,0,0,0-.75-.9A.79.79,0,0,0,43.52,13Z"/><path class="cls-2" d="M18.87,14.51a4.77,4.77,0,0,0,1.27.18c1,0,1.9-.35,1.9-1.43,0-1.48-2-1.28-2-1.87,0-.3.31-.36.61-.36a3.47,3.47,0,0,1,1,.25l.1-1a3.77,3.77,0,0,0-1.13-.15c-.94,0-1.85.37-1.85,1.34,0,1.45,2,1.16,2,1.91,0,.3-.28.41-.65.41A2.8,2.8,0,0,1,19,13.42Z"/><path class="cls-2" d="M31.67,13.49a2,2,0,0,1-.32,0,.45.45,0,0,1-.49-.5V12h.72v-.81h-.72v-1H29.7v1h-.5V12h.5v1.27a1.07,1.07,0,0,0,1.19,1.2,2.59,2.59,0,0,0,.62-.06Z"/></g><path id="Shape-2" data-name="Shape" class="cls-2" d="M9.9,12a2.67,2.67,0,0,1-.32-1.37A2.77,2.77,0,0,1,12.27,8H16.6L14.93,9.64H12.25A2.49,2.49,0,0,0,9.9,12Zm1.71-1.25a2.27,2.27,0,0,1,.73-1,2.16,2.16,0,0,0-1.76,1Zm.86-.76a2.42,2.42,0,0,0-.63.76h1.25A2.39,2.39,0,0,0,12.47,10Zm-2.15,1a2.77,2.77,0,0,0-.24,1h1.1a3.32,3.32,0,0,1,.16-1Zm1.37,0a3.94,3.94,0,0,0-.18,1h1.83a4.65,4.65,0,0,0-.18-1Zm2.65-.25a2.1,2.1,0,0,0-1.75-1,2.55,2.55,0,0,1,.75,1Zm-1,.25a3.22,3.22,0,0,1,.15,1h1.1a2.33,2.33,0,0,0-.24-1Zm-3.1,2.4a2.38,2.38,0,0,0,1.91,1,2.54,2.54,0,0,1-.8-1Zm2.06.75a2.84,2.84,0,0,0,.68-.75H11.61A2.59,2.59,0,0,0,12.3,14.17Zm-1-.9a3.59,3.59,0,0,1-.16-1h-1.1a3.18,3.18,0,0,0,.24,1Zm1.82,0a4.11,4.11,0,0,0,.18-1H11.51a4.76,4.76,0,0,0,.18,1Zm.09.15a2.88,2.88,0,0,1-.82,1,2.27,2.27,0,0,0,1.91-1Zm1.1-.15a2.33,2.33,0,0,0,.24-1h-1.1a3.68,3.68,0,0,1-.15,1Zm.66-1a2.55,2.55,0,0,1-2.34,2.56H10l-1.67,1.7h4.32a2.83,2.83,0,0,0,2.7-2.77A3,3,0,0,0,15,12.3v0Z"/></g></g></g></g></g></svg>